<svg width="832" height="1248" viewBox="0 0 832 1248" fill="none" xmlns="http://www.w3.org/2000/svg">
<g clip-path="url(#clip0_6_691)">
<path d="M0 0H832V1248H0V0Z" fill="#FAFAF9"/>
<path d="M209.363 252.412C241.862 252.876 233.163 318.671 228.429 338.316C243.724 338.078 248.443 339 263.418 342.612C269.371 326.74 274.991 311.477 285.223 297.601C292.329 288.192 301.776 276.03 314.085 273.937C325.094 272.47 330.434 282.347 331.371 291.789C334.087 319.163 319.506 346.365 303.302 367.309C311.109 376.09 316.622 382.308 321.231 393.519C329.141 412.758 328.275 439.576 313.435 455.564C320.805 483.131 332.477 524.484 301.622 544.396C297.904 546.795 293.513 549.231 289.001 547.583C286.098 546.521 279.42 550.135 276.174 550.415C273.232 550.734 270.563 550.519 267.552 550.335C283.776 578.471 284.488 613.165 290.819 644.195C292.111 650.526 300.279 660.435 302.958 667.266C307.526 678.917 313.982 690.038 314.078 702.951C314.077 702.914 318.493 712.932 319.031 714.827C328.562 721.482 336.109 726.753 341.935 737.13C353.497 737.356 366.658 739.531 379.857 739.775C377.769 737.319 376.847 735.826 375.137 733.072C344.612 737.332 331.931 728.538 327.092 697.424C315.626 684.401 312.316 678.886 306.662 662.287C297.667 635.883 300.814 612.41 313.525 587.817C322.927 569.624 338.303 549.769 356.097 538.915C363.255 534.549 371.753 531.78 379.595 529.148C361.505 517.492 354.337 507.06 346.319 487.627C331.321 479.409 328.57 463.262 330.388 447.209C331.815 434.611 336.222 423.442 348.504 418.143C350.221 413.503 352.231 408.977 354.525 404.592C381.583 353.983 450.676 343.596 492.152 382.987C506.24 396.367 511.406 408.432 516.858 426.79C522.832 430.83 526.958 435.643 528.54 442.916C532.27 460.062 530.924 489.674 510.468 495.125C504.132 510.311 494.136 523.166 479.089 530.521C520.044 545.654 543.044 593.005 546.779 634.103L554.229 629.472C559.083 611.611 562.588 592.74 566.625 574.657C571.528 552.697 570.958 539.554 587.572 522.66C573.066 513.128 557.673 495.045 554.746 477.876C552.1 462.354 548.763 443.905 546.654 428.241C534.192 417.696 531.81 400.815 539.889 386.86C536.308 382.166 529.746 365.116 536.706 360.537C541.158 357.609 554.671 357.063 560.696 354.754C590.163 343.464 639.335 322.122 660.254 358.372C691.316 367.175 690.371 398.372 685.239 424.224C692.626 435.497 692.297 445.075 687.079 457.275C680.862 467.542 680.411 465.669 670.982 470.944C670.062 472.886 670.391 475.526 670.433 477.788C681.466 481.359 685.135 487.984 692.108 490.867C709.315 497.983 722.816 501.68 739.334 510.827C769.713 527.649 766.385 547.989 775.509 577.193C778.209 586.751 780.142 596.602 782.574 606.22C793.161 648.107 805.041 690.056 806.631 733.493C807.101 746.265 800.817 751.981 788.919 755.174C778.673 773.614 768.359 779.543 747.873 782.029C751.841 793.169 754.529 801.773 756.242 813.449C756.852 817.641 759.881 823.266 760.57 828.043C761.771 836.331 763.678 845.398 758.705 852.967C755.206 860.364 743.765 860.23 739.395 863.862C727.619 873.655 726.747 877.128 710.662 880.492C732.148 908.377 757.9 934.044 780.014 961.545C782.037 964.056 795.179 977.578 786.962 979.107C774.522 981.423 761.716 983.239 749.208 985.213L680.302 996.036C657.28 999.777 634.63 1004.01 611.255 1004.77C596.566 1006.1 581.445 1002.14 567.126 1001.64C518.433 999.911 469.215 1007.33 420.674 1009.28C380.553 1010.52 340.394 1009.43 300.399 1006.01C261.974 1003.04 235.639 997.724 198.043 991.1C174.832 987.194 151.597 983.434 128.338 979.82L72.1199 971.405C64.6551 970.308 57.1375 969.497 49.6963 968.254C46.4246 967.712 44.2814 966.84 43.2135 963.465C46.0897 957.127 76.7809 926.847 83.7124 919.754C99.7643 903.325 116.162 885.026 132.178 868.713C121.146 863.868 121.731 859.024 113.878 854.332C103.988 848.415 92.5188 848.439 90.9835 832.644C89.4359 816.727 99.7618 801.633 109.822 789.927C97.2829 788.531 89.0793 785.82 78.9679 777.355C68.8218 768.867 63.4171 754.875 61.8458 741.945C61.4411 738.611 61.7629 729.038 61.1716 726.582C59.0791 717.874 57.9412 718.721 57.2574 709.367C43.3682 705.851 22.6012 694.298 23.1305 677.79C23.8467 655.45 31.8006 632.812 37.9905 611.441C38.917 608.241 42.7102 605.434 44.0426 602.34C52.4783 581.839 60.1444 550.767 74.8786 534.363C88.4003 519.309 114.523 514.83 133.976 514.231C122.707 498.589 121.206 485.416 122.524 466.784C124.873 433.603 146.015 383.463 171.611 361.779C168.782 328.972 172.064 299.554 189.021 270.279C193.421 262.683 200.478 254.533 209.363 252.412Z" fill="#2F2F2F"/>
<path d="M630.455 753.127C636.385 747.929 644.535 741.335 650.356 735.449C650.831 735.363 651.306 735.272 651.782 735.187C654.61 737.301 655.78 743.011 656.817 746.533C662.644 771.859 669.83 797.398 676.321 822.504C677.924 828.713 685.915 860.681 688.042 863.752C695.887 875.069 713.533 894.898 722.828 905.617L780.544 973.269C771.389 974.391 761.521 976.432 752.323 977.895L678.79 989.515C653.099 993.592 626.907 998.65 600.716 998.016C589.818 997.803 578.689 995.396 567.886 994.859C522.615 992.611 477.201 999.783 432.232 1001.87C381.941 1004.02 331.561 1002.56 281.479 997.498C249.602 994.506 214.37 987.023 182.552 981.532C139.341 974.464 96.0431 967.931 52.6704 961.935C62.8308 950.089 75.8124 937.724 86.8534 926.299L133.67 876.891C141.579 868.621 152.846 858.091 159.805 849.798C162.662 846.391 171.272 827.287 173.784 821.754C184.612 797.903 198.944 768.458 207.101 743.639L209.213 737.6C215.243 739.629 217.903 740.707 224.111 738.989C229.615 745.82 234.194 750.183 240.805 755.96C237.532 774.211 251.447 770.152 262.388 773.595C271.239 770.488 270.007 772.687 277.17 771.432C281.831 766.228 282.29 768.105 285.657 760.409C289.806 767.886 291.684 771.615 297.463 777.867C302.222 779.299 304.538 778.702 308.694 776.447L310.112 775.027C316.752 764.412 303.027 745.26 297.083 736.204C310.22 740.141 315.249 746.545 322.294 757.63C327.529 765.863 336.441 772.986 342.291 760.53L342.792 758.745C346.965 759.72 360.003 759.958 364.872 760.207C391.148 761.554 415.512 761.816 441.805 760.268C442.112 760.116 492.791 754.315 496.885 754.297C499.201 756.844 500.244 755.984 503.582 755.29C506.365 754.382 512.703 753.541 515.943 752.938C524.555 751.573 533.537 749.799 542.051 748.178C546.766 747.283 564.803 742.316 567.924 743.322C564.296 750.464 555.853 764.315 558.402 771.67C559.309 774.339 561.311 776.496 563.906 777.593C574.225 781.907 581.518 765.911 585.356 758.836C587.661 762.615 591.22 768.105 595.83 769.421C597.496 769.897 600.366 769.202 601.914 769.409C609.416 770.421 621.415 773.004 627.943 768.306C631.503 765.741 632.472 762.48 633.807 758.44C632.716 756.588 631.747 754.845 630.455 753.127Z" fill="#CFCECE"/>
<path d="M630.455 753.127C636.385 747.929 644.535 741.335 650.356 735.449C650.831 735.363 651.307 735.272 651.782 735.187C654.61 737.301 655.78 743.011 656.817 746.533C649.972 747.654 642.487 756.838 642.791 764.077C642.34 761.317 642.011 757.752 640.585 755.448L639.506 756.332C639.366 758.215 639.488 758.306 640.402 760.043C633.051 773.51 633.819 772.243 621.3 780.865C616.021 784.491 611.273 798.299 603.475 801.761C633.185 811.968 613.187 840.901 615.454 857.385C617.003 868.664 642.31 884.898 616.606 898.066C600.574 905.623 586.022 873.716 568.622 883.234C564.117 885.257 557.625 887.884 552.836 888.048C551.078 887.89 548.544 887.914 546.718 887.865C545.321 887.817 542.299 887.317 541.685 888.316C538.806 893.002 539.132 892.673 534.062 893.13C531.425 894.727 527.916 899.121 525.597 900.534C520.508 903.648 514.335 904.8 509.776 908.578C510.193 908.231 505.822 916.945 505.867 916.744C504.733 921.107 504.06 923.112 501.141 926.609C494.521 932.258 485.436 936.311 477.014 938.218C474.222 942.593 470.456 948.919 467.057 952.575C464.125 949.455 462.224 947.115 459.624 943.782C445.628 943.148 431.613 938.584 418.075 934.897L416.778 934.781C391.462 928.029 391.918 934.141 370.259 945.518C368.857 946.256 361.982 945.914 360.169 947.017C343.879 954.653 335.511 965.981 317.245 954.763L313.14 951.411C306.982 945.592 307.338 941.783 300.323 937.334C281.905 942.082 266.076 940.966 253.598 923.112C249.568 917.341 247.468 908.517 240.693 904.568C232.442 899.767 224.053 895.227 215.289 891.491C212.135 890.175 203.038 891.619 202.159 885.775C200.69 876.013 216.417 878.889 222.169 878.079C225.035 877.677 227.965 877.354 230.899 876.878C224.536 866.592 233.961 860.212 240.885 866.251C243.244 870.029 240.618 871.772 240.238 875.647L241.547 876.251C249.385 875.94 265.855 863.856 271.778 857.848C271.939 856.434 272.335 852.924 273.151 852.126C286.253 839.231 306.065 840.139 320.653 831.809C321.516 831.315 321.141 828.415 321.159 826.867C323.08 824.07 325.715 823.217 327.955 821.084C337.533 811.968 352.566 804.619 362.628 817.397C366.533 821.992 367.841 828.378 371.23 833.192C374.11 837.281 376.754 837.373 380.324 834.637L384.222 840.633L386.237 843.332C387.475 844.789 388.988 846.458 390.055 848.012L394.698 842.973C395.277 841.864 396.201 840.663 396.945 839.621L397.515 839.926C403.306 842.961 437.636 852.04 433.995 860.395C432.074 861.76 431.14 862.327 429.089 863.436C449.116 879.883 449.116 868.146 469.025 860.194C464.82 858.427 455.235 858.177 450.601 852.467C448.53 855.24 446.388 857.951 444.178 860.608C437.164 853.643 427.783 839.694 427.078 829.567L426.562 828.165C421.764 828.811 419.252 828.933 414.397 828.86C414.625 825.654 414.594 822.266 414.581 819.037C414.513 800.426 413.792 781.804 413.615 763.187C419.567 762.992 436.914 762.535 441.857 761.225L441.805 760.268C442.112 760.116 492.791 754.315 496.886 754.297C499.201 756.844 500.244 755.984 503.582 755.29C506.365 754.382 512.703 753.541 515.943 752.938C524.555 751.573 533.537 749.799 542.051 748.178C546.766 747.283 564.803 742.316 567.924 743.322C564.296 750.464 555.853 764.315 558.402 771.67C559.309 774.339 561.311 776.496 563.906 777.593C574.225 781.907 581.518 765.911 585.356 758.836C587.661 762.615 591.22 768.105 595.83 769.421C597.496 769.897 600.366 769.202 601.914 769.409C609.416 770.421 621.415 773.004 627.943 768.306C631.503 765.741 632.472 762.48 633.807 758.44C632.716 756.588 631.747 754.845 630.455 753.127Z" fill="#959495"/>
<path d="M441.805 760.268C442.112 760.116 492.791 754.315 496.885 754.297C499.201 756.844 500.244 755.984 503.582 755.29C506.978 758.574 508.928 799.927 512.482 805.393C513.119 809.707 513.794 815.137 514.713 819.335L512.646 820.456C516.358 821.09 526.107 820.846 528.427 817.641C529.595 818.945 530.158 819.609 531.154 821.041C524.016 821.054 525.585 824.375 514.701 823.966C503.24 822.888 499.79 821.846 488.081 823.461C484.196 823.369 480.311 823.345 476.426 823.4C469.387 822.224 468.536 822.035 462.154 824.655L461.559 825.112C460.769 837.147 457.173 842.595 450.601 852.467C448.53 855.24 446.388 857.951 444.177 860.608C437.164 853.643 427.783 839.694 427.078 829.567L426.562 828.165C421.763 828.811 419.251 828.933 414.397 828.86C414.625 825.654 414.593 822.266 414.581 819.037C414.512 800.426 413.791 781.804 413.615 763.187C419.567 762.992 436.914 762.535 441.857 761.225L441.805 760.268Z" fill="#FAFAF9"/>
<path d="M426.562 828.165C428.891 811.036 445.134 804.795 457.613 816.855C459.713 820.316 460.284 821.31 461.559 825.112C460.769 837.147 457.173 842.595 450.601 852.467C448.53 855.24 446.388 857.951 444.178 860.608C437.165 853.643 427.783 839.694 427.078 829.567L426.562 828.165Z" fill="#2F2F2F"/>
<path d="M443.591 814.868C446.364 814.783 448.563 815.271 450.94 816.794C454.079 818.848 456.243 822.096 456.934 825.776C458.709 835.709 449.707 846.105 444.324 853.71C444.053 853.57 443.632 853.369 443.372 853.174C437.99 849.109 432.691 837.83 431.578 831.358C430.916 827.513 431.381 823.266 433.776 820.06C436.367 816.599 439.556 815.569 443.591 814.868Z" fill="#CFCECE"/>
<path d="M441.454 821.011C444.099 820.048 447.059 820.584 449.195 822.419C451.332 824.253 452.312 827.099 451.759 829.859C451.206 832.619 449.206 834.862 446.529 835.733C442.488 837.05 438.139 834.88 436.755 830.864C435.371 826.849 437.461 822.467 441.454 821.011Z" fill="#2F2F2F"/>
<path d="M442.29 823.814C443.827 823.156 445.597 823.381 446.926 824.393C448.254 825.405 448.935 827.056 448.709 828.707C448.483 830.365 447.385 831.772 445.833 832.388C443.472 833.332 440.79 832.205 439.819 829.853C438.849 827.501 439.95 824.807 442.29 823.814Z" fill="#FAFAF9"/>
<path d="M528.427 817.641C529.595 818.945 530.158 819.609 531.154 821.041C524.017 821.054 525.585 824.375 514.701 823.966C503.24 822.888 499.791 821.846 488.081 823.461C484.197 823.369 480.311 823.345 476.426 823.4C469.388 822.224 468.536 822.035 462.154 824.655C463.08 820.554 469.125 819.311 472.73 819.506C476.356 819.829 480.302 820.292 483.912 820.176C486.295 820.28 487.137 820.17 489.448 819.865C499.241 818.421 502.821 818.921 512.646 820.456C516.358 821.09 526.107 820.846 528.427 817.641Z" fill="#959495"/>
<path d="M457.613 816.855C462.516 816.172 467.572 818.647 472.73 819.506C469.125 819.311 463.079 820.554 462.154 824.655L461.559 825.112C460.284 821.31 459.712 820.316 457.613 816.855Z" fill="#ADACAB"/>
<path d="M483.913 820.176C483.943 817.361 481.816 808.47 481.149 804.777L481.869 805.082C481.909 806.782 481.913 807.477 482.227 809.128C483.155 808.531 483.647 805.636 484.043 804.241C484.782 805.691 483.753 816.106 486.3 818.872C487.285 819.945 487.479 819.591 489.449 819.865C487.138 820.17 486.296 820.28 483.913 820.176Z" fill="#CFCECE"/>
<path d="M463.292 798.056C458.939 791.054 454.388 783.358 456.415 774.656C457.409 770.354 460.122 766.642 463.923 764.388C467.983 761.987 472.844 761.323 477.4 762.554C487.864 765.326 491.896 775.137 488.868 784.985C485.894 794.655 479.013 803.022 473.12 811.096C465.877 813.65 461.87 810.17 457.619 804.984C460.186 802.285 461.269 801.139 463.292 798.056Z" fill="#2F2F2F"/>
<path d="M463.293 798.056C466.678 802.986 469.201 806.569 473.12 811.096C465.877 813.65 461.87 810.17 457.619 804.984C460.186 802.285 461.27 801.139 463.293 798.056Z" fill="#CFCECE"/>
<path d="M469.559 766.045C473.795 765.582 480.334 767.075 482.771 770.67C490.005 781.341 479.891 794.54 474.264 802.815C473.832 803.449 473.658 803.455 473.007 803.942C470.689 802.212 465.022 792.815 463.338 789.726C457.662 779.317 459.121 771.524 469.559 766.045Z" fill="#CFCECE"/>
<path d="M470.755 771.834C473.462 771.097 476.357 771.883 478.324 773.882C480.29 775.887 481.02 778.793 480.231 781.487C479.442 784.18 477.259 786.24 474.523 786.862C470.411 787.806 466.303 785.283 465.277 781.194C464.252 777.105 466.685 772.95 470.755 771.834Z" fill="#2F2F2F"/>
<path d="M470.759 774.93C472.248 774.235 473.994 774.4 475.331 775.35C476.668 776.307 477.388 777.904 477.218 779.537C477.047 781.17 476.011 782.584 474.506 783.242C472.217 784.241 469.551 783.211 468.525 780.938C467.499 778.659 468.495 775.984 470.759 774.93Z" fill="#E5E4E3"/>
<path d="M426.312 864.484C444.235 885.696 452.717 869.706 472.544 863.009C477.161 861.449 484.451 861.65 489.433 861.638L492.715 862.558C494.165 866.842 499.999 900.108 500.32 904.636C486.144 909.419 503.05 915.184 501.215 919.973C498.969 925.83 485.442 933.136 479.302 934.245C478.179 935.86 477.803 936.427 477.015 938.218C474.222 942.594 470.456 948.919 467.058 952.575C464.126 949.455 462.225 947.115 459.625 943.782C458.908 942.453 457.831 940.79 457.028 939.461C448.299 940.266 427.33 933.703 417.969 931.028L417.942 929.827L421.273 930.875L420.962 929.815L418.754 929.175L418.231 928.188C417.597 917.67 417.407 907.134 417.661 896.598L416.857 892.527C417.032 883.807 417.577 875.233 415.763 866.58C418.766 866.257 423.246 865.148 426.312 864.484Z" fill="#FAFAF9"/>
<path d="M451.439 928.121C439.476 891.717 500.196 896.628 479.301 934.245C478.179 935.86 477.803 936.427 477.014 938.218C474.222 942.593 470.456 948.919 467.057 952.575C464.125 949.455 462.224 947.115 459.624 943.782C458.908 942.453 457.83 940.79 457.028 939.461C454.378 934.921 453.383 933.032 451.439 928.121Z" fill="#2F2F2F"/>
<path d="M463.946 907.475C468.083 907.384 472.43 907.89 475.638 910.808C477.915 912.88 478.915 915.903 479.125 918.901C479.799 928.553 473.384 937.7 467.431 944.708L466.601 945.049C463.258 943.16 456.694 930.473 455.308 926.646C453.875 922.697 453.15 918.103 455.139 914.19C457.01 910.516 460.23 908.822 463.946 907.475Z" fill="#CFCECE"/>
<path d="M464.095 913.118C468.188 911.771 472.6 913.995 473.957 918.084C475.313 922.173 473.103 926.585 469.015 927.95C464.914 929.321 460.481 927.103 459.12 923.002C457.759 918.901 459.988 914.471 464.095 913.118Z" fill="#595957"/>
<path d="M464.688 916.165C467.079 915.22 469.786 916.366 470.778 918.736C471.77 921.107 470.682 923.837 468.331 924.873C466.767 925.567 464.952 925.36 463.585 924.33C462.219 923.307 461.514 921.619 461.743 919.925C461.971 918.231 463.098 916.792 464.688 916.165Z" fill="#FAFAF9"/>
<path d="M416.856 892.527L417.203 892.771C424.738 898.018 425.698 896.049 429.455 906.189C440.505 910.278 440.254 918.974 439.01 929.084C441.629 929.108 449.799 929.638 451.439 928.121C453.383 933.032 454.378 934.921 457.028 939.461C448.299 940.266 427.33 933.703 417.969 931.027L417.941 929.827L421.272 930.875L420.962 929.815L418.753 929.175L418.231 928.188C417.597 917.67 417.407 907.134 417.66 896.598L416.856 892.527Z" fill="#FAFAF9"/>
<path d="M416.856 892.527L417.203 892.771C424.738 898.018 425.698 896.049 429.455 906.189C440.505 910.278 440.254 918.974 439.01 929.084C441.629 929.108 449.799 929.638 451.439 928.121C453.383 933.032 454.378 934.921 457.028 939.461C448.299 940.266 427.33 933.703 417.969 931.027L417.941 929.827L421.272 930.875L420.962 929.815L418.753 929.175L418.231 928.188C425.409 929.583 429.682 929.309 436.989 929.205C437.086 925.104 437.234 917.579 436.084 913.691C434.878 911.503 431.314 910.29 429.414 908.517C422.868 902.387 427.035 900.193 417.66 896.598L416.856 892.527Z" fill="#E5E4E3"/>
<path d="M630.454 753.127C636.385 747.929 644.534 741.335 650.355 735.449C650.831 735.363 651.306 735.272 651.782 735.187C654.61 737.301 655.78 743.011 656.816 746.533C649.971 747.654 642.486 756.838 642.791 764.077C642.34 761.317 642.011 757.752 640.585 755.448L639.506 756.332C639.366 758.215 639.488 758.306 640.402 760.043C633.051 773.51 633.819 772.243 621.299 780.865C616.021 784.491 611.273 798.299 603.475 801.761C597.65 800.365 592.78 799.281 586.884 798.293C588.392 793.242 592.615 779.305 591.429 774.296C589.196 775.954 584.893 793.784 583.076 798.537C570.595 798.702 561.973 799.335 552.242 808.848C549.767 811.267 545.431 816.642 544.09 819.792L544.478 821.218L544.037 821.785C541.633 822.906 540.516 823.704 538.338 825.191L537.803 824.734C538.876 821.474 541.615 819.414 541.565 816.331C539.321 819.317 537.122 822.333 534.968 825.386L531.154 821.041C530.158 819.609 529.595 818.945 528.427 817.641C526.106 820.846 516.358 821.09 512.646 820.456L514.713 819.335C513.793 815.137 513.119 809.707 512.482 805.393C508.928 799.927 506.978 758.574 503.582 755.29C506.365 754.382 512.702 753.541 515.943 752.938C524.555 751.573 533.537 749.799 542.05 748.178C546.766 747.283 564.803 742.316 567.924 743.322C564.295 750.464 555.852 764.315 558.402 771.67C559.308 774.339 561.311 776.496 563.905 777.593C574.225 781.907 581.518 765.911 585.356 758.836C587.661 762.615 591.219 768.105 595.83 769.421C597.496 769.897 600.365 769.202 601.913 769.409C609.415 770.421 621.415 773.004 627.943 768.306C631.503 765.741 632.472 762.48 633.807 758.44C632.716 756.588 631.747 754.845 630.454 753.127Z" fill="#E5E4E3"/>
<path d="M528.428 817.641C521.243 806.636 508.946 788.513 525.272 778.403C529.293 775.887 534.169 775.125 538.766 776.295C543.164 777.38 546.943 780.183 549.253 784.077C556.259 796.155 547.244 806.557 541.566 816.331C539.322 819.317 537.123 822.333 534.968 825.386L531.155 821.041C530.159 819.609 529.596 818.945 528.428 817.641Z" fill="#2F2F2F"/>
<path d="M532.465 780.085C536.014 779.927 539.818 780.975 542.711 783.071C545.121 784.82 546.369 787.538 546.829 790.408C548.382 800.103 541.114 809.53 535.664 816.873L535.093 817.538L534.007 817.41C529.563 812.864 524.982 805.691 522.89 799.744C521.448 795.643 520.984 790.865 523.051 786.88C525.103 782.919 528.442 781.298 532.465 780.085Z" fill="#CFCECE"/>
<path d="M531.316 786.411C533.9 785.363 536.849 785.801 539.018 787.556C541.187 789.305 542.234 792.096 541.752 794.844C541.27 797.587 539.335 799.853 536.699 800.767C532.771 802.12 528.478 800.097 527.018 796.209C525.559 792.322 527.465 787.977 531.316 786.411Z" fill="#2F2F2F"/>
<path d="M533.041 789C535.315 788.33 537.716 789.561 538.5 791.797C539.285 794.034 538.178 796.496 535.983 797.392C534.461 798.013 532.718 797.745 531.452 796.697C530.186 795.643 529.603 793.979 529.936 792.37C530.268 790.762 531.462 789.464 533.041 789Z" fill="#FAFAF9"/>
<path d="M512.482 805.393C514.792 807.233 516.98 816.764 515.656 819.067L514.713 819.335C513.794 815.137 513.119 809.707 512.482 805.393Z" fill="#CFCECE"/>
<path d="M347.239 814.174L352.859 814.21C365.494 818.878 361.923 831.242 371.565 838.427C376.924 840.42 378.55 840.359 384.223 840.633L386.238 843.332C383.881 842.394 380.491 841.175 377.899 841.663L380.736 842.376C371.865 841.772 356.79 839.871 348.294 837.117C343.475 848.347 339.519 873.314 337.252 885.842C336.48 890.102 334.615 895.312 334.334 899.425C333.542 899.401 331.729 899.115 330.859 899.005C330.347 895.934 321.192 888.054 318.587 885.623C315.65 884.221 309.988 883.667 306.746 883.984L305.991 883.825C305.72 883.533 271.424 875.392 268.297 874.971L267.543 874.526L257.828 872.497L259.626 871.571C266.13 867.762 269.493 864.465 275.059 859.438C277.026 859.402 279.595 860.444 281.119 859.566C285.388 857.098 283.009 854.411 284.163 850.078C287.52 845.392 311.861 839.615 319.269 837.037C324.596 834.015 336.798 833.003 331.719 823.54L332.132 822.303C336.608 818.147 341.65 816.264 347.239 814.174Z" fill="#CFCECE"/>
<path d="M319.269 837.037C319.54 838.561 311.294 866.458 310.3 870.297C303.807 864.581 295.441 855.526 286.151 854.862L286.001 855.508C291.175 860.224 306.959 867.592 308.149 874.069L309.516 873.899C312.462 876.61 314.92 880.175 316.821 883.691C317.501 884.691 317.568 884.953 318.587 885.623C315.65 884.221 309.988 883.667 306.746 883.984L305.991 883.825C305.72 883.533 271.424 875.392 268.297 874.971L267.543 874.526L257.828 872.497L259.626 871.571C266.13 867.762 269.493 864.465 275.059 859.438C277.026 859.402 279.595 860.444 281.119 859.566C285.388 857.098 283.009 854.411 284.163 850.078C287.52 845.392 311.861 839.615 319.269 837.037Z" fill="#FAFAF9"/>
<path d="M257.828 872.497L259.626 871.571C273.135 873.454 291.899 879.694 306.369 882.064L308.149 874.069L309.516 873.899C312.462 876.61 314.92 880.175 316.821 883.691C317.501 884.691 317.568 884.953 318.587 885.623C315.65 884.221 309.988 883.667 306.746 883.984L305.991 883.825C305.72 883.533 271.424 875.392 268.297 874.971L267.543 874.526L257.828 872.497Z" fill="#CFCECE"/>
<path d="M309.515 873.899C312.461 876.61 314.919 880.175 316.82 883.691C314.161 882.692 310.993 882.539 308.13 882.265C308.5 879.389 308.987 876.744 309.515 873.899Z" fill="#FAFAF9"/>
<path d="M352.858 814.21C365.494 818.878 361.923 831.242 371.564 838.427C368.031 840.17 352.417 835.215 348.28 833.704C348.942 830.194 351.131 816.026 352.858 814.21Z" fill="#FAFAF9"/>
<path d="M332.132 822.303C336.608 818.147 341.65 816.264 347.239 814.174L349.168 814.911C350.187 818.701 347.635 829.067 346.538 833.095C342.743 829.877 336.498 824.247 332.132 822.303Z" fill="#FAFAF9"/>
<path d="M329.447 837.555C332.431 835.867 341.947 837.275 345.599 837.391C342.102 852.753 339.327 868.268 335.624 883.594L327.944 883.63C327.81 883.624 327.676 883.63 327.543 883.618C321.174 883.058 315.061 875.977 310.903 871.516C312.96 865.861 319.068 841.181 322.405 838.823C322.537 838.732 322.68 838.652 322.815 838.567C324.746 837.312 327.223 837.562 329.447 837.555Z" fill="#FAFAF9"/>
<path d="M268.296 874.971C271.424 875.392 305.719 883.533 305.991 883.825L306.746 883.984C309.988 883.667 315.65 884.221 318.587 885.623C321.191 888.054 330.347 895.934 330.859 899.005C328.832 899.821 327.67 900.071 326.463 901.93C325.795 904.191 327.163 907.359 326.34 908.322C320.477 915.165 310.669 926.469 302.179 929.4C301.232 930.491 299.631 933.179 298.79 934.507C289.649 935.866 280.425 938.108 271.799 933.709C267.174 931.35 261.534 927.609 258.136 923.672C256.186 921.137 254.997 918.072 253.59 915.172C248.48 904.635 243.684 901.826 233.962 896.61C238.154 891.095 263.474 883.807 268.296 874.971Z" fill="#FAFAF9"/>
<path d="M306.746 883.984C309.988 883.667 315.65 884.221 318.587 885.623C321.192 888.054 330.347 895.934 330.859 899.005C328.833 899.821 327.67 900.071 326.463 901.93C325.795 904.191 327.163 907.359 326.34 908.322C320.477 915.165 310.669 926.469 302.179 929.4L294.422 929.266C297.921 914.434 303.685 898.542 306.746 883.984Z" fill="#FAFAF9"/>
<path d="M305.991 883.825L306.746 883.984C303.685 898.542 297.921 914.434 294.422 929.266L302.179 929.4C301.232 930.491 299.631 933.179 298.79 934.507C289.649 935.866 280.425 938.108 271.799 933.709C267.174 931.35 261.534 927.609 258.136 923.672C259.054 921.814 258.526 922.216 260.108 921.363C270.491 925.245 281.59 927.566 292.478 929.461C295.557 917.42 301.89 895.257 305.991 883.825Z" fill="#DFDFDE"/>
<path d="M544.478 821.218C553.823 810.871 559.922 802.785 575.18 802.035C577.232 801.95 579.285 801.907 581.339 801.907C574.559 821.468 563.823 825.35 547.197 833.741C543.897 833.009 541.078 832.211 538.012 834.076C536.091 837.793 538.344 839.871 537.075 841.522C535.839 843.137 529.855 844.898 527.867 846.148C523.199 849.085 514.67 856.501 510.138 858.622C508.175 859.536 495.302 858.622 492.36 858.53C489.815 858.646 487.106 858.305 484.555 858.073C478.72 858.195 474.682 858.305 469.025 860.194C464.82 858.427 455.235 858.177 450.601 852.467C457.173 842.595 460.769 837.147 461.559 825.112L462.154 824.655C468.536 822.035 469.387 822.224 476.426 823.4C480.311 823.345 484.196 823.369 488.081 823.461C499.79 821.846 503.24 822.888 514.701 823.966C525.585 824.375 524.016 821.054 531.154 821.041L534.968 825.386C537.122 822.333 539.322 819.317 541.565 816.331C541.615 819.414 538.877 821.474 537.803 824.734L538.338 825.191C540.516 823.704 541.634 822.906 544.037 821.785L544.478 821.218Z" fill="#FAFAF9"/>
<path d="M462.154 824.655C468.536 822.035 469.387 822.224 476.426 823.4C480.311 823.345 484.196 823.369 488.081 823.461C485.762 828.774 494.032 850.815 492.36 858.53C489.815 858.646 487.106 858.305 484.555 858.073C478.72 858.195 474.682 858.305 469.025 860.194C464.82 858.427 455.235 858.177 450.601 852.467C457.173 842.595 460.769 837.147 461.559 825.112L462.154 824.655Z" fill="#FAFAF9"/>
<path d="M476.427 823.4C480.312 823.345 484.197 823.369 488.081 823.461C485.762 828.774 494.032 850.815 492.361 858.53C489.816 858.646 487.106 858.305 484.556 858.073C486.472 857.903 489.616 858.006 491.65 858.018C489.886 847.184 487.109 834.765 486.211 823.997C482.265 824.027 480.264 824.1 476.427 823.4Z" fill="#CFCECE"/>
<path d="M541.566 816.331C541.616 819.414 538.877 821.474 537.804 824.734L538.338 825.191C540.517 823.704 541.634 822.906 544.038 821.785C538.896 828.549 534.527 824.685 532.828 832.144C530.699 831.779 525.545 826.581 523.773 824.832C521.003 824.704 517.263 824.692 514.701 823.966C525.585 824.375 524.017 821.054 531.155 821.041L534.968 825.386C537.123 822.333 539.322 819.317 541.566 816.331Z" fill="#CFCECE"/>
<path d="M414.355 866.702L415.762 866.58C417.576 875.233 417.032 883.807 416.856 892.527L417.66 896.598C417.407 907.134 417.597 917.67 418.231 928.188L418.753 929.175L420.961 929.815L421.272 930.875L417.941 929.827L417.969 931.027L416.79 930.705C404.028 927.597 398.797 925.561 386.8 932.21L385.576 932.831C376.058 926.597 358.942 921.875 348.098 917.627C341.69 915.123 336.603 910.985 329.722 910.985C332.977 910.571 333.912 910.431 336.993 909.37C337.325 908.73 338.728 905.117 339.052 904.94C342.583 903.002 352.37 901.394 355.626 899.791C361.659 896.823 366.168 893.594 372.221 890.638L372.556 890.029C373.907 889.572 377.372 887.616 378.821 886.836C380.674 885.751 383.835 884.307 385.853 883.307C395.878 878.512 404.095 869.334 414.355 866.702Z" fill="#FAFAF9"/>
<path d="M372.221 890.638C368.908 900.863 363.63 909.169 358.273 918.395C347.748 915.97 346.382 914.696 337.208 909.803L336.993 909.37C337.326 908.731 338.728 905.117 339.053 904.94C342.584 903.002 352.37 901.394 355.626 899.791C361.659 896.823 366.168 893.594 372.221 890.638Z" fill="#FAFAF9"/>
<path d="M385.854 883.307C395.878 878.512 404.095 869.334 414.355 866.702C414.462 869.219 415.223 881.138 414.804 882.777C408.251 883.106 390.601 886.007 385.854 883.307Z" fill="#FAFAF9"/>
<path d="M372.221 890.638L372.556 890.029L374.973 891.053C372.824 896.671 363.384 914.27 359.976 918.974C365.918 921.869 383.788 928.103 386.8 932.21L385.576 932.831C376.058 926.597 358.942 921.875 348.098 917.627C341.69 915.123 336.603 910.985 329.722 910.985C332.977 910.571 333.912 910.431 336.993 909.37L337.208 909.803C346.381 914.696 347.747 915.97 358.272 918.395C363.629 909.169 368.907 900.863 372.221 890.638Z" fill="#CFCECE"/>
<path d="M414.354 866.702L415.762 866.58C417.576 875.233 417.032 883.807 416.856 892.527L417.66 896.598C417.406 907.134 417.597 917.67 418.23 928.188L418.753 929.175L420.961 929.815L421.272 930.875L417.941 929.827L417.968 931.027L416.79 930.705C415.959 923.118 417.704 899.59 415.154 894.678C414.876 894.142 415.722 887.073 414.871 884.179L414.804 882.777C415.222 881.138 414.462 869.219 414.354 866.702Z" fill="#CFCECE"/>
<path d="M385.854 883.307C390.602 886.007 408.252 883.106 414.805 882.777L414.872 884.179C403.45 885.075 392.033 885.733 380.722 887.482C380.348 887.536 379.206 887.037 378.821 886.836C380.674 885.751 383.835 884.307 385.854 883.307Z" fill="#CFCECE"/>
<path d="M348.293 837.117C356.79 839.871 371.864 841.772 380.736 842.376L377.899 841.663C380.491 841.175 383.881 842.394 386.237 843.332C387.475 844.789 388.988 846.458 390.055 848.012L394.698 842.973C402.609 845.13 409.347 848.287 416.983 850.785C416.128 853.454 415.958 859.127 416.298 861.912C417.308 862.455 417.118 862.442 418.207 862.717L413.042 863.155C404.763 865.337 396.199 873.606 389.395 877.147C379.202 882.448 347.275 902.545 336.86 900.937L334.334 899.425C334.614 895.312 336.48 890.102 337.251 885.842C339.519 873.314 343.475 848.347 348.293 837.117Z" fill="#FAFAF9"/>
<path d="M394.698 842.973C402.609 845.13 409.347 848.287 416.983 850.785C416.128 853.454 415.958 859.127 416.299 861.912C417.308 862.455 417.118 862.442 418.208 862.717L413.043 863.155C413.999 861.187 414.947 855.008 413.574 853.082C410.072 848.171 401.014 846.202 395.336 844.344C393.837 845.745 391.971 847.769 390.056 848.012L394.698 842.973Z" fill="#CFCECE"/>
<path d="M308.945 939.12C310.501 937.444 311.005 936.999 311.999 934.964C312.174 932.484 311.905 931.71 311.068 929.455C311.681 927.067 326.918 913.557 329.722 910.985C336.604 910.985 341.69 915.123 348.098 917.627C358.942 921.875 376.059 926.597 385.576 932.831C382.175 934.245 376.809 937.664 373.858 939.821C370.617 943.154 361.756 942.027 359.152 943.422C337.785 954.878 325.374 966.591 308.945 939.12Z" fill="#E5E4E3"/>
<path d="M489.433 861.638C490.778 861.711 493.549 861.766 494.723 862.077C500.278 862.29 505.839 862.363 511.399 862.296C514.739 866.16 515.859 866.044 521 866.83C525.467 871.546 528.356 875.044 530.709 881.254C530.613 882.997 530.742 882.375 529.292 883.965C528.966 885.05 528.248 886.732 528.545 887.597C528.932 888.725 529.495 891.369 528.867 892.375C525.483 897.798 512.327 903.344 506.43 905.458L501.757 904.087L500.319 904.635C499.998 900.108 494.164 866.842 492.714 862.558L489.433 861.638Z" fill="#FAFAF9"/>
<path d="M499.062 885.556C503.58 885.117 526.663 882.521 529.293 883.965C528.967 885.05 528.248 886.732 528.545 887.597C528.932 888.725 529.496 891.369 528.867 892.375C525.483 897.798 512.327 903.344 506.431 905.458L501.757 904.087C501.81 898.194 500.206 891.394 499.062 885.556Z" fill="#FAFAF9"/>
<path d="M489.433 861.638C490.778 861.711 493.549 861.766 494.723 862.077C493.758 864.648 498.226 879.925 498.774 884.282C503.687 883.911 528.236 883.387 530.709 881.254C530.613 882.997 530.742 882.375 529.292 883.965C526.662 882.521 503.58 885.117 499.061 885.556C500.205 891.394 501.81 898.194 501.757 904.087L500.319 904.635C499.998 900.108 494.164 866.842 492.714 862.558L489.433 861.638Z" fill="#CFCECE"/>
<path d="M257.828 872.497L267.543 874.526L268.297 874.971C263.474 883.807 238.155 891.095 233.963 896.61L230.874 895.056C225.746 892.204 221.372 890.931 216.247 888.225C215.68 886.354 216.016 884.813 216.206 882.844C223.277 880.133 225.196 883.246 234.319 877.725C235.58 878.164 236.854 878.56 238.14 878.914C245.151 880.778 252.025 875.873 257.828 872.497Z" fill="#FAFAF9"/>
<path d="M267.543 874.526L268.297 874.971C263.474 883.807 238.155 891.095 233.962 896.61L230.874 895.056C232.43 893.326 234.494 891.546 236.636 890.614C247.297 885.958 258.565 882.326 267.543 874.526Z" fill="#CFCECE"/>
<path d="M416.983 850.785C420.034 852.113 428.427 855.051 429.535 858.079C427.721 861.406 421.827 861.949 418.207 862.717C417.117 862.442 417.308 862.455 416.298 861.912C415.958 859.127 416.128 853.454 416.983 850.785Z" fill="#E5E4E3"/>
<path d="M585.076 801.852C589.397 802.285 592.851 802.791 597.105 803.504L605.225 805.874C618.667 812.272 617.143 824.838 615.015 837.952C613.955 843.503 610.292 850.535 611.291 856.263C613.559 869.237 636.971 884.867 615.515 894.556C608.9 897.542 592.842 887.616 589.717 882.71L589.706 882.271L586.204 879.615C582.29 879.48 576.586 878.627 572.577 878.152C561.529 881.315 553.679 887.256 541.243 884.471C538.795 881.887 537.635 882.997 535.569 881.406C532.412 878.969 529.883 868.341 524.654 865.672C522.041 864.331 523.023 862.314 523.508 860.791C524.028 859.158 523.147 857.756 522.607 855.94C525.806 848.372 541.058 845.672 547.621 842.071C549.041 840.56 548.914 839.786 549.087 837.683L549.143 836.958C550.742 835.319 552.72 834.947 554.873 834.003C571.607 826.69 578.413 818.177 585.076 801.852Z" fill="#FAFAF9"/>
<path d="M581.933 873.801C577.173 865.989 569.828 855.995 572.409 846.27C576.278 831.693 596.278 829.183 604.123 842.217C611.225 854.009 598.504 874.075 589.706 882.271L586.204 879.615L581.933 873.801Z" fill="#2F2F2F"/>
<path d="M586.597 837.939C590.505 837.854 594.279 838.482 597.577 840.736C599.794 842.254 601.08 844.746 601.587 847.336C603.566 857.439 595.901 867.287 590.537 875.081L589.451 875.556C585.286 872.491 580.653 864.234 578.536 859.487C576.615 855.179 575.444 850.145 577.361 845.611C579.133 841.425 582.537 839.457 586.597 837.939Z" fill="#CFCECE"/>
<path d="M586.993 843.064C591.159 841.797 595.581 844.07 596.973 848.195C598.366 852.321 596.224 856.806 592.14 858.317C589.388 859.341 586.301 858.78 584.08 856.867C581.859 854.947 580.856 851.973 581.462 849.103C582.068 846.233 584.186 843.923 586.993 843.064Z" fill="#2F2F2F"/>
<path d="M587.802 846.16C590.207 845.422 592.768 846.714 593.612 849.079C594.457 851.449 593.286 854.063 590.956 855.014C589.352 855.666 587.52 855.392 586.185 854.289C584.849 853.186 584.227 851.437 584.565 849.743C584.903 848.043 586.146 846.672 587.802 846.16Z" fill="#FAFAF9"/>
<path d="M581.932 873.801L586.204 879.615C582.29 879.48 576.586 878.627 572.577 878.152C576.296 877.165 579.072 878.262 581.932 873.801Z" fill="#CFCECE"/>
<path d="M597.105 803.504L605.225 805.874C602.47 806.38 599.839 807.8 597.74 807.19C596.57 805.387 596.9 806.087 597.105 803.504Z" fill="#E5E4E3"/>
<path d="M233.513 866.854C234.092 866.891 234.743 866.897 235.304 867.074C236.986 867.598 237.392 868.152 238.233 869.572C238.35 871.748 237.418 873.082 236.344 874.868C236.188 874.837 236.027 874.825 235.874 874.782C234.127 874.301 232.918 873.301 232.095 871.723C232.055 869.481 232.484 868.774 233.513 866.854Z" fill="#E5E4E3"/>
<path d="M499.765 907.055C500.363 907.067 500.97 907.085 501.564 907.152C503.408 907.372 504.325 908.036 505.413 909.45C505.359 911.588 504.815 912.003 503.549 913.642C503.407 913.648 503.265 913.672 503.122 913.672C501.267 913.63 499.828 912.88 498.617 911.582C498.36 909.468 498.827 908.889 499.765 907.055Z" fill="#CFCECE"/>
<path d="M207.909 881.406C209.573 880.693 211.502 881.443 212.242 883.1C212.982 884.752 212.257 886.689 210.615 887.451C209.531 887.957 208.26 887.841 207.289 887.14C206.317 886.446 205.796 885.282 205.925 884.093C206.053 882.905 206.811 881.881 207.909 881.406Z" fill="#E5E4E3"/>
<path d="M327.692 824.887C329.03 825.886 329.342 826.069 330.015 827.665C329.575 829.439 328.415 830.2 327.075 831.291C326.278 831.066 325.415 830.865 324.735 830.371C323.753 829.658 323.83 829.323 323.603 828.183C324.531 826.306 325.914 825.788 327.692 824.887Z" fill="#E5E4E3"/>
<path d="M533.633 884.691C535.021 883.898 536.784 884.362 537.611 885.727C538.436 887.092 538.026 888.865 536.683 889.73C535.781 890.309 534.636 890.352 533.693 889.846C532.75 889.334 532.156 888.353 532.144 887.287C532.132 886.214 532.701 885.221 533.633 884.691Z" fill="#CFCECE"/>
<path d="M305.654 930.79C307.341 931.576 307.956 931.728 309.041 933.294C308.711 935.19 307.973 935.86 306.824 937.298C305.104 936.445 304.077 936.177 303.014 934.483C303.254 932.776 304.466 931.905 305.654 930.79Z" fill="#E5E4E3"/>
<path d="M330.301 902.771C331.093 902.167 332.158 902.052 333.06 902.478C333.962 902.905 334.549 903.801 334.582 904.8C334.615 905.799 334.087 906.726 333.215 907.213C331.996 907.89 330.459 907.512 329.694 906.348C328.928 905.178 329.193 903.624 330.301 902.771Z" fill="#E5E4E3"/>
<path d="M277.395 852.083C278.666 851.547 280.135 852.126 280.692 853.387C281.248 854.655 280.684 856.129 279.426 856.702C278.6 857.074 277.635 856.976 276.901 856.446C276.167 855.91 275.776 855.02 275.878 854.118C275.981 853.216 276.56 852.443 277.395 852.083Z" fill="#E5E4E3"/>
<path d="M540.056 836.684C541.76 836.538 543.217 836.385 544.896 836.818C545.88 838.226 545.521 839.018 545.404 840.7C543.975 840.694 542.767 840.438 541.384 840.09C540.2 838.725 540.215 838.5 540.056 836.684Z" fill="#FAFAF9"/>
<path d="M297.083 736.204C310.22 740.141 315.249 746.545 322.294 757.63C327.529 765.863 336.441 772.986 342.292 760.531L342.792 758.745C346.965 759.72 360.003 759.958 364.873 760.208C391.148 761.554 415.512 761.816 441.805 760.268L441.857 761.225C436.914 762.535 419.568 762.992 413.616 763.187C413.792 781.804 414.513 800.426 414.582 819.037C414.594 822.266 414.626 825.654 414.397 828.86C419.252 828.933 421.764 828.811 426.562 828.165L427.078 829.567C427.783 839.694 437.165 853.643 444.178 860.608C446.388 857.951 448.53 855.24 450.601 852.467C455.235 858.177 464.82 858.427 469.026 860.194C449.116 868.146 449.116 879.883 429.09 863.436C431.141 862.327 432.074 861.76 433.995 860.395C437.636 852.04 403.306 842.961 397.516 839.926L396.945 839.621C396.201 840.663 395.277 841.864 394.698 842.973L390.056 848.012C388.988 846.458 387.476 844.789 386.238 843.332L384.222 840.633L380.325 834.637C376.754 837.373 374.11 837.281 371.23 833.192C367.842 828.378 366.533 821.992 362.628 817.397C352.566 804.619 337.534 811.968 327.955 821.084C325.716 823.217 323.081 824.07 321.159 826.867C321.142 828.415 321.516 831.315 320.653 831.809C306.065 840.139 286.253 839.231 273.151 852.126C272.335 852.924 271.939 856.434 271.778 857.848C265.855 863.856 249.385 875.94 241.548 876.251L240.238 875.647C240.618 871.772 243.244 870.029 240.885 866.251C233.961 860.212 224.536 866.592 230.899 876.878C227.965 877.354 225.036 877.677 222.17 878.079C216.417 878.889 200.691 876.013 202.159 885.775C203.038 891.619 212.135 890.175 215.289 891.491C224.054 895.227 232.443 899.767 240.694 904.568C247.468 908.517 249.568 917.341 253.598 923.112C266.076 940.966 281.905 942.082 300.323 937.334C307.338 941.783 306.982 945.592 313.14 951.411C313.694 955.823 315.412 955.506 314.214 961.015C312.675 968.096 310.332 974.141 309.308 981.344C299.392 979.802 287.336 978.79 277.18 977.62C279.324 970.564 287.929 947.56 287.911 941.594C286.392 943.258 277.151 973.873 276.653 977.279C265.234 976.274 255.029 974.001 243.81 972.13L174.313 960.436C153.498 957.06 132.771 954.854 112.1 951.094C107.213 950.211 101.273 950.101 96.7448 949.089L96.4443 948.224C99.1598 944.738 102.114 941.49 105.123 938.255C126.608 915.165 147.283 891.382 168.727 868.256C172.457 864.234 176.739 859.779 180.033 855.422L180.493 854.807C182.755 856.154 189.27 857.037 192.194 857.567C192.789 854.655 192.957 851.9 193.204 848.945C203.497 838.268 213.773 830.426 228.867 828.427C234.815 827.641 240.125 826.514 246.061 828.762C247.854 829.439 248.301 830.627 250.082 831.456C250.721 829.53 251.332 820.627 251.554 818.055C263.587 822.48 294.048 833.125 306.035 830.34C304.368 829.091 297.685 828.951 295.26 828.805L293.691 828.713C279.851 826.184 260.159 821.675 247.932 814.564C249.396 814.68 250.22 814.728 251.686 814.68C236.893 802.577 224.077 789.653 230.445 768.964C230.981 767.221 231.348 767.557 233.029 766.758L233.332 765.71C231.362 761.768 226.412 757.033 223.135 753.882C223.61 750.823 225.849 747.898 224.16 744.547L224.045 744.559L224.216 745.765L223.28 745.991C222.724 747.539 222.109 750.896 221.738 752.651C217.547 748.654 212.559 745.582 207.101 743.639L209.213 737.6C215.243 739.629 217.904 740.707 224.112 738.989C229.615 745.82 234.194 750.183 240.805 755.96C237.532 774.211 251.447 770.152 262.388 773.595C271.239 770.488 270.007 772.687 277.17 771.432C281.831 766.228 282.291 768.105 285.658 760.409C289.806 767.886 291.685 771.615 297.463 777.867C302.223 779.299 304.538 778.702 308.694 776.447L310.112 775.027C316.752 764.412 303.027 745.26 297.083 736.204Z" fill="#E5E4E3"/>
<path d="M380.325 834.637C375.904 826.934 371.381 819.335 373.922 809.987C375.131 805.362 378.165 801.42 382.331 799.067C386.44 796.77 391.257 796.38 395.751 797.678C400.216 798.927 403.999 801.901 406.259 805.947C412.883 818.019 404.027 830.28 396.945 839.621C396.202 840.663 395.277 841.864 394.699 842.973L390.056 848.012C388.988 846.458 387.476 844.789 386.238 843.332L384.223 840.633L380.325 834.637Z" fill="#2F2F2F"/>
<path d="M387.867 801.328C391.89 801.084 396.63 801.95 399.876 804.521C402.416 806.538 403.639 809.768 403.976 812.912C405.026 822.723 397.539 832.187 391.791 839.457L390.521 840.547C386.984 838.914 382.829 830.261 380.964 826.776C378.403 821.992 376.426 816.02 378.209 810.639C379.842 805.716 383.521 803.497 387.867 801.328Z" fill="#CFCECE"/>
<path d="M387.33 807.666C390.075 806.368 393.314 806.697 395.741 808.519C398.169 810.347 399.385 813.363 398.9 816.361C398.414 819.36 396.307 821.84 393.428 822.803C389.324 824.18 384.859 822.12 383.242 818.11C381.625 814.095 383.418 809.518 387.33 807.666Z" fill="#2F2F2F"/>
<path d="M389.397 810.085C391.193 809.561 393.132 810.073 394.436 811.413C395.741 812.754 396.197 814.71 395.621 816.489C395.046 818.269 393.534 819.585 391.691 819.908C389.049 820.377 386.502 818.695 385.892 816.087C385.282 813.473 386.821 810.84 389.397 810.085Z" fill="#FAFAF9"/>
<path d="M303.005 791.432C306.13 787.526 307.987 786.575 312.794 786.77C314.189 788.44 318.374 789.695 320.537 790.353C336.242 800.975 325.035 817.903 314.958 828.049C305.791 820.743 297.564 806.392 301.452 794.387C301.765 793.912 302.692 792.029 303.005 791.432Z" fill="#2F2F2F"/>
<path d="M307.933 790.164C311.143 790.554 316.394 792.261 319.112 794.016C321.886 795.813 323.89 798.391 324.448 801.712C325.621 808.677 320.869 814.643 317.051 819.896L314.604 823.455C311.282 818.854 307.327 814.04 305.356 808.683C302.939 802.114 305.098 796.197 307.933 790.164Z" fill="#CFCECE"/>
<path d="M312.722 797.294C316.412 796.459 320.075 798.781 320.896 802.474C321.718 806.167 319.385 809.823 315.692 810.633C312.011 811.444 308.369 809.122 307.55 805.441C306.732 801.767 309.046 798.117 312.722 797.294Z" fill="#2F2F2F"/>
<path d="M312.828 800.566C314.576 799.793 316.624 800.548 317.451 802.273C318.278 803.997 317.584 806.063 315.886 806.94C314.741 807.532 313.366 807.452 312.296 806.739C311.225 806.02 310.63 804.777 310.741 803.498C310.851 802.212 311.651 801.091 312.828 800.566Z" fill="#FAFAF9"/>
<path d="M277.17 771.432C281.831 766.228 282.291 768.105 285.658 760.409C289.806 767.886 291.685 771.615 297.463 777.867C302.223 779.299 304.538 778.702 308.694 776.447C310.599 778.928 312.553 783.029 313.078 786.069L312.794 786.77C307.987 786.575 306.13 787.526 303.005 791.432C302.693 792.029 301.765 793.912 301.452 794.387C297.401 788.763 293.586 781.913 289.862 776.039C283.725 766.368 281.878 772.346 277.17 771.432Z" fill="#BCBBBB"/>
<path d="M297.462 777.867C302.222 779.299 304.538 778.702 308.694 776.447C310.598 778.928 312.553 783.029 313.077 786.069L312.794 786.77C307.987 786.575 306.13 787.526 303.005 791.432C300.091 788.94 296.259 781.761 297.462 777.867Z" fill="#CFCECE"/>
<path d="M342.791 758.745C346.965 759.72 360.003 759.958 364.872 760.208C391.147 761.554 415.511 761.816 441.805 760.268L441.857 761.225C436.913 762.535 419.567 762.992 413.615 763.187C413.791 781.804 414.512 800.426 414.581 819.037C414.593 822.266 414.625 825.654 414.396 828.86C419.251 828.933 421.763 828.811 426.562 828.165L427.078 829.567L414.787 829.762C414.864 835.118 414.782 838.908 414.384 844.24C414.356 841.705 414.321 832.035 412.93 830.401L409.704 830.225C410.942 830.024 411.295 830.054 412.408 829.451C414.468 825.405 412.569 769.628 411.992 763.023C395.321 763.328 377.415 761.755 360.598 761.682C355.003 761.658 348.558 760.567 342.291 760.53L342.791 758.745Z" fill="#CFCECE"/>
<path d="M308.694 776.447L310.113 775.027C312.381 777.977 319.651 787.069 320.537 790.353C318.374 789.695 314.19 788.44 312.795 786.77L313.078 786.069C312.554 783.029 310.599 778.928 308.694 776.447Z" fill="#ADACAB"/>
<path d="M293.691 828.713C293.734 826.032 293.467 823.461 294.854 821.23L295.7 821.029C296.748 823.363 295.779 826.075 295.26 828.805L293.691 828.713Z" fill="#CFCECE"/>
<path d="M187.5 904.532C192.217 904.434 197.294 905.677 200.828 908.999C204.143 912.119 205.501 916.829 205.57 921.278C205.742 932.234 196.478 945.592 189.133 953.306C188.333 953.422 188.28 953.379 187.659 952.892C181.691 948.206 173.364 933.087 172.099 925.72C171.222 920.613 172.1 915.153 175.234 910.93C178.356 906.72 182.502 905.251 187.5 904.532Z" fill="#2F2F2F"/>
<path d="M185.869 908.633C190.12 908.42 193.684 908.895 197.111 911.582C199.637 913.563 200.832 916.597 201.189 919.699C202.302 929.394 195.668 938.218 190.042 945.409C189.615 946.03 189.301 946.183 188.667 946.56C184.633 944.44 180.702 935.842 178.736 931.734C176.574 927.219 174.938 921.856 176.832 916.945C178.416 912.844 182.03 910.376 185.869 908.633Z" fill="#CFCECE"/>
<path d="M185.97 914.812C188.701 913.758 191.791 914.318 193.978 916.262C196.165 918.206 197.082 921.204 196.354 924.038C195.626 926.878 193.374 929.065 190.521 929.711C186.528 930.625 182.51 928.298 181.314 924.379C180.118 920.461 182.15 916.287 185.97 914.812Z" fill="#595957"/>
<path d="M187.058 917.463C189.38 916.585 191.977 917.725 192.901 920.028C193.825 922.332 192.738 924.952 190.455 925.921C188.935 926.567 187.185 926.341 185.879 925.336C184.573 924.324 183.916 922.685 184.161 921.052C184.405 919.419 185.514 918.048 187.058 917.463Z" fill="#FAFAF9"/>
<path d="M357.465 777.617C359.449 779.665 364.595 779.579 367.088 781.645L359.116 778.958C358.203 785.832 357.19 792.699 356.078 799.549C355.632 802.157 355.459 804.893 354.28 807.3C353.863 808.147 353.591 809.079 352.662 809.384C352.666 801.036 359.161 786.868 357.465 777.617Z" fill="#CFCECE"/>
<path d="M283.016 798.665C287.26 801.06 292.862 803.857 295.78 807.848C297.236 809.841 296.818 811.675 296.529 813.967L295.391 813.881C294.103 804.649 286.483 805.679 283.016 798.665Z" fill="#CFCECE"/>
<path d="M207.101 743.639C212.559 745.582 217.547 748.654 221.738 752.651C214.243 773.656 206.055 794.399 197.186 814.862C191.341 828.147 184.89 840.864 179.218 854.319C175.331 853.052 169.852 850.949 165.921 850.822L165.592 851.059C169.468 852.747 174.375 854.082 178.48 855.331C149.127 887.415 121.914 918.328 91.551 949.699C108.694 952.733 127.337 955.543 144.517 957.883C206.226 966.28 266.979 981.691 329.444 983.58C337.752 983.83 346.147 984.5 354.507 984.677C385.755 985.53 417.025 984.89 448.212 982.77C490.729 980.076 533.643 974.561 576.202 978.705C582.914 979.357 591.131 982.05 597.614 981.843C603.572 980.667 606.622 981.124 612.401 980.74C620.044 980.186 627.669 979.394 635.27 978.376C667.812 974.031 699.806 967.791 732.306 963.209C736.719 962.587 741.51 961.844 745.88 960.997C736.859 951.734 728.826 940.918 720.39 931.046C709.028 917.755 697.899 904.946 687.567 890.778C681.655 882.686 673.39 874.417 668.824 865.349C665.063 856.275 661.9 842.107 659.566 832.473L648.271 787.312C646.601 780.463 644.705 770.451 642.791 764.077C642.487 756.838 649.972 747.654 656.817 746.533C662.644 771.859 669.83 797.398 676.321 822.504C677.924 828.713 685.915 860.681 688.042 863.752C695.887 875.069 713.533 894.898 722.828 905.617L780.544 973.269C771.389 974.391 761.521 976.432 752.323 977.895L678.79 989.515C653.099 993.592 626.907 998.65 600.716 998.016C589.818 997.803 578.689 995.396 567.886 994.859C522.615 992.611 477.201 999.783 432.232 1001.87C381.941 1004.02 331.561 1002.56 281.479 997.498C249.602 994.506 214.37 987.023 182.552 981.532C139.341 974.464 96.0431 967.931 52.6704 961.935C62.8308 950.089 75.8124 937.724 86.8534 926.299L133.67 876.891C141.579 868.621 152.846 858.091 159.805 849.798C162.662 846.391 171.272 827.287 173.784 821.754C184.612 797.903 198.944 768.458 207.101 743.639Z" fill="#FAFAF9"/>
<path d="M640.402 760.043C648.991 794.924 656.616 829.707 665.813 864.545C659.444 865.16 630.29 868.975 625.42 871.095L625.445 871.376C637.842 869.219 654.074 868.762 665.899 865.172C676.523 880.949 691.566 897.5 702.769 913.088C692.108 915.184 682.319 916.476 671.714 918.249C659.426 920.309 647.991 922.527 635.416 923.429C631.461 918.432 622.635 902.82 619.386 900.644L619.733 901.089C619.459 904.209 630.449 919.778 632.716 923.618C627.73 924.245 624.329 924.44 619.319 924.605C611.231 923.343 593.641 927.639 584.39 925.762C583.285 925.537 574.512 925.11 573.575 925.19C571.154 925.135 569.813 925.263 567.514 924.446C564.835 920.187 552.177 891.174 552.836 888.048C557.625 887.884 564.117 885.257 568.622 883.234C586.022 873.716 600.574 905.623 616.607 898.066C642.31 884.898 617.003 868.664 615.455 857.385C613.187 840.901 633.186 811.968 603.476 801.761C611.273 798.3 616.021 784.491 621.3 780.865C633.82 772.243 633.052 773.51 640.402 760.043Z" fill="#FAFAF9"/>
<path d="M648.363 807.507L650.24 807.538C648.46 809.67 626.048 815.313 621.233 816.757C620.855 816.983 620.441 816.922 620.014 816.934L619.654 815.776C622.263 812.644 642.767 808.982 648.363 807.507Z" fill="#CFCECE"/>
<path d="M501.14 926.609C504.401 928.212 504.642 927.67 508.586 926.75C510.37 935.579 511.964 942.411 514.329 951.058C503.775 959.485 494.876 962.148 482.07 965.865C478.633 969.644 477.528 971.088 475.698 975.829C478.177 974.342 482.697 966.822 484.8 966.164C496.992 962.349 504.208 960.54 514.858 952.788C516.997 960.546 518.459 968.376 520.6 976.146C487.039 979.004 453.417 981.082 419.759 982.38C418.678 966.84 419.288 950.546 418.075 934.897C431.613 938.584 445.627 943.148 459.624 943.782C462.224 947.115 464.125 949.455 467.057 952.575C470.456 948.919 474.221 942.593 477.014 938.218C485.436 936.311 494.52 932.258 501.14 926.609Z" fill="#FAFAF9"/>
<path d="M317.245 954.763C335.511 965.981 343.879 954.653 360.17 947.017C361.982 945.914 368.858 946.256 370.259 945.518C391.918 934.141 391.463 928.029 416.778 934.781C416.415 938.364 417.323 948.687 417.531 952.947C417.998 962.764 418.27 972.587 418.345 982.41C391.166 984.262 364.3 983.239 337.116 982.026C328.123 981.624 319.617 981.642 310.565 980.978C311.099 976.603 315.541 958.937 317.245 954.763Z" fill="#FAFAF9"/>
<path d="M702.769 913.088C707.517 917.768 712.161 923.721 716.184 929.053C724.279 939.772 733.513 949.656 742.022 959.967C720.42 962.916 696.661 967.858 675.121 970.905C672.42 971.319 669.641 971.715 666.959 972.173C655.774 955.805 646.272 942.051 636.044 924.678C646.266 923.873 696.722 917.109 702.769 913.088Z" fill="#FAFAF9"/>
<path d="M573.575 925.19C574.512 925.11 583.285 925.537 584.39 925.762C593.641 927.639 611.231 923.343 619.319 924.605C622.293 926.622 629.925 925.257 633.759 924.836C636.965 929.504 639.915 934.33 642.865 939.163C649.777 950.503 657.39 961.399 664.905 972.343C644.291 976.316 616.283 980.356 595.337 979.936C586.77 962.343 577.159 944.458 568.933 926.896C571.978 924.745 570.141 927.481 573.575 925.19Z" fill="#E5E4E3"/>
<path d="M205.567 798.159C219.81 805.673 236.687 811.633 251.554 818.055C251.333 820.627 250.721 829.53 250.082 831.456C248.301 830.627 247.854 829.439 246.061 828.762C240.125 826.514 234.816 827.641 228.867 828.427C213.773 830.426 203.497 838.268 193.205 848.945C192.957 851.9 192.789 854.655 192.195 857.567C189.27 857.037 182.756 856.154 180.493 854.807C184.556 849.152 202.485 806.544 205.567 798.159Z" fill="#FAFAF9"/>
<path d="M505.868 916.744C505.822 916.945 510.193 908.231 509.776 908.578C514.335 904.8 520.508 903.648 525.597 900.534C527.916 899.121 531.425 894.727 534.062 893.13C539.132 892.673 538.806 893.002 541.685 888.316C542.299 887.317 545.321 887.817 546.718 887.865C547.792 888.103 550.63 888.408 551 889.425C555.324 901.357 560.499 912.959 565.456 924.653C553.352 924.123 540.781 924.471 528.647 924.653C522.656 924.745 515.836 925.75 509.93 925.689C509.532 923.209 509.233 919.858 507.911 917.859L505.868 916.744Z" fill="#FAFAF9"/>
<path d="M247.932 814.564C244.283 814.478 210.172 799.701 207.032 797.197C208.922 790.231 213.103 781.042 215.703 774.052C218.004 767.867 220.475 759.641 223.135 753.882C226.413 757.033 231.362 761.768 233.333 765.71L233.029 766.758C231.348 767.557 230.982 767.221 230.445 768.964C224.078 789.653 236.893 802.577 251.687 814.68C250.221 814.728 249.396 814.68 247.932 814.564Z" fill="#FAFAF9"/>
<path d="M516.777 951.119C516.164 949.217 515.115 949.108 514.564 946.506C513.422 941.107 509.94 933.221 510.877 927.731C514.08 924.245 556.423 926.061 563.66 925.47C567.966 925.117 577.854 949.425 580.913 954.958C584.717 960.698 590.472 973.08 593.363 979.485C586.052 978.51 577.099 976.956 569.964 976.414C554.298 975.213 537.568 975.427 521.847 975.896C520.614 970.728 515.745 955.476 516.777 951.119Z" fill="#FAFAF9"/>
<path d="M516.777 951.119C516.164 949.217 515.115 949.108 514.564 946.506C513.422 941.107 509.94 933.221 510.877 927.731C514.08 924.245 556.423 926.061 563.66 925.47C567.966 925.117 577.854 949.425 580.913 954.958C574.734 954.123 558.792 943.044 552.931 939.65C549.729 937.798 545.964 936.177 542.63 934.434C536.088 939.016 528.353 942.24 522.209 947.566C520.681 948.888 518.672 950.497 516.777 951.119Z" fill="#E5E4E3"/>
<path d="M351.551 476.172C351.564 464.948 352.076 454.684 352.919 443.576C354.156 427.264 354.363 416.236 363.76 402.073C402.516 343.655 494.936 359.306 510.432 428.761L510.149 429.411C503.47 445.056 507.038 478.668 502.554 495.689C501.154 500.999 497.039 506.509 493.598 510.706C465.301 545.381 387.984 542.424 362.989 505.216C356.79 497.335 351.904 486.258 351.551 476.172Z" fill="#FAFAF9"/>
<path d="M351.551 476.172C355.182 480.435 356.593 488.459 359.182 493.639C360.961 497.2 363.664 499.421 364.818 503.045C364.072 504.329 364.13 504.267 362.989 505.216C356.79 497.335 351.904 486.258 351.551 476.172Z" fill="#E5E4E3"/>
<path d="M396.613 423.125C408.691 422.42 420.514 423.402 432.758 424.155C446.908 425.024 464.456 423.986 477.178 431.242C483.793 435.532 489.139 443.857 490.158 451.743C493.476 477.425 487.38 497.067 460.658 502.049C442.104 503.377 420.424 501.284 401.844 499.958C383.945 498.68 366.64 488.477 365.034 469.214C363.121 446.255 371.815 425.804 396.613 423.125Z" fill="#2F2F2F"/>
<path d="M396.266 448.538C410.729 447.526 409.059 470.215 400.081 475.863C385.503 475.415 386.921 455.845 396.266 448.538Z" fill="#FAFAF9"/>
<path d="M456.034 452.138C468.795 452.048 469.101 472.598 458.472 478.938C445.081 477.701 446.361 458.411 456.034 452.138Z" fill="#FAFAF9"/>
<path d="M412.117 508.173C415.018 509.001 420.85 512.426 425.449 513.986C429.256 513.394 436.542 509.682 439.026 511.118C439.318 512.959 439.323 512.26 438.479 514.152C438.212 514.349 437.941 514.54 437.666 514.726C429.739 520.028 408.737 519.463 412.117 508.173Z" fill="#2F2F2F"/>
<path d="M173.61 369.714C174.428 372.802 175.064 375.723 178.228 376.996L179.568 376.385C181.195 373.849 178.753 360.601 178.324 356.668C177.356 347.731 177.263 338.72 178.045 329.764C179.89 307.185 187.501 279.1 204.289 262.694C209.061 258.029 216.468 259.203 219.446 265.018C229.245 284.16 226.416 309.865 222.902 330.321C221.36 339.302 218.331 347.645 216.635 356.422L217.366 357.433L218.792 357.567C222.367 355.426 224.815 349.433 226.746 345.599C257.802 343.227 284.455 356.461 304.995 379.711C312.506 388.213 316.539 399.379 319.191 410.258L317.72 411.995C312.374 397.233 306.152 386.029 291.293 379.313C245.616 359.017 203.479 404.732 186.472 442.681C176.701 464.483 172.403 482.47 179.379 506.191C187.819 534.889 225.965 548.297 227.86 576.13C227.802 607.282 226.447 623.695 214.873 652.488C212.609 655.767 208.558 663.896 205.729 668.387C197.389 663.634 187.651 658.417 179.677 653.293C178.296 647.29 176.222 634.957 176.637 628.869C176.894 625.097 181.499 616.864 182.84 612.452C189.704 589.862 189.469 572.119 182.529 550.072C186.121 552.306 203.449 561.485 206.874 561.129C206.509 556.948 173.262 538.696 167.555 534.836C161.093 530.521 154.959 525.735 149.203 520.516C137.365 509.604 128.471 496.147 128.713 479.472C129.289 439.828 146.64 398.346 173.61 369.714Z" fill="#FAFAF9"/>
<path d="M208.369 285.588C214.808 286.634 216.258 296.418 216.275 301.686C216.34 320.888 213.376 349.709 200.011 364.577L197.872 365.872L196.695 365.324C189.959 356.91 192.884 323.412 195.258 312.546C197.554 302.042 200.295 292.972 208.369 285.588Z" fill="#CFCECE"/>
<path d="M646.808 678.295C647.144 661.927 653.934 631.69 657.286 614.524L670.104 545.561C673.317 529.201 679.954 503.135 677.187 486.953C692.541 500.171 693.303 518.32 695.064 537.467C690.548 540.017 682.941 543.888 679.113 546.74C682.996 551.803 688.5 555.526 693.614 559.401C684.672 583.648 675.365 607.761 665.697 631.727C662.601 639.643 654.421 656.34 653.982 663.689H654.561C661.992 655.462 695.333 572.686 698.539 558.631C695.302 554.759 691.169 551.215 687.415 547.795C690.883 545.942 699.209 541.893 699.685 538.096C700.94 528.062 695.948 507.692 692.846 498.513C714.788 507.168 748.197 516.784 757.943 539.464C761.094 546.989 763.142 554.93 764.026 563.041C767.262 590.721 763.057 647.9 753.579 674.846C752.043 679.215 747.416 686.016 743.777 688.892C724.059 704.48 692.388 720.549 669.324 730.427C665.978 708.715 661.15 699.995 643.383 687.345C654.043 680.928 666.045 675.078 677.022 668.411C685.928 663 696.954 656.443 706.328 652.019C709.76 650.398 718.519 650.075 722.334 651.068C724.614 651.66 726.912 653.323 728.283 652.689C729.283 644.055 712.6 644.731 707.627 645.243C708.486 622.751 710.76 598.382 712.369 575.822C712.527 573.575 712.948 571.607 712.99 569.268C712.088 565.978 713.697 564.187 712.747 561.796C712.18 563.811 711.656 566.128 710.68 567.943L709.918 567.916C703.524 586.5 703.622 625.755 700.184 647.406C684.075 656.114 662.443 668.6 646.808 678.295Z" fill="#FAFAF9"/>
<path d="M709.918 567.916C712.691 555.097 717.799 539.201 729.264 531.587C731.081 530.382 735.347 528.225 737.505 528.963L737.865 530.001C735.847 531.25 728.868 535.443 727.588 536.574C720.207 543.104 716.245 555.28 714.032 564.646C713.673 566.184 713.325 567.725 712.99 569.268C712.088 565.978 713.697 564.187 712.746 561.796C712.179 563.811 711.655 566.128 710.68 567.943L709.918 567.916Z" fill="#060605"/>
<path d="M382.336 535.184C387.658 531.821 388.049 533.295 393.88 535.67C394.916 539.691 395.43 541.133 397.167 544.904C409.288 563.988 443.592 563.588 457.753 547.241C460.497 544.073 462.055 541.232 464.057 537.602C466.463 536.371 468.626 535.748 471.187 534.919C476.976 536.854 481.044 538.969 486.226 541.995C468.018 561.591 468.306 591.157 486.083 610.898C485.749 619.771 484.946 644.323 479.997 649.88C458.756 673.707 402.831 670.349 377.077 654.493C371.184 650.861 366.964 644.603 366.339 639.033C363.779 616.224 370.446 552.776 382.336 535.184Z" fill="#FAFAF9"/>
<path d="M382.336 535.184C387.658 531.821 388.05 533.295 393.88 535.67C394.917 539.691 395.43 541.133 397.167 544.904C394.17 543.857 385.256 537.36 382.336 535.184Z" fill="#E5E4E3"/>
<path d="M625.164 382.171C627.267 381.948 628.651 381.558 630.528 382.425C632.954 385.397 630.412 396.068 631.132 401.265C632.942 414.31 640.524 417.063 646.211 427.464C648.107 430.564 648.619 440.855 651.703 442.538C659.81 446.961 662.912 432.714 665.667 428.765C669.629 423.079 675.743 424.927 679.729 428.673C687.403 435.879 684.404 452.102 677.59 458.981C673.231 463.415 669.483 464.311 663.449 464.445C662.473 470.868 662.504 475.074 662.638 481.445C664.162 483.467 665.393 485.244 666.795 487.351C663.845 503.424 647.18 523.968 631.82 529.77C629.236 528.39 626.115 525.92 623.683 524.117C631.863 521.428 635.837 519.34 642.079 513.412C644.669 510.439 648.668 506.522 647.747 502.341L646.876 501.901C638.885 506.027 634.326 513.708 623.689 517.679C595.949 528.039 573.156 508.653 563.459 483.954C562.158 480.635 561.146 477.211 560.434 473.718C558.609 464.915 558.053 455.516 556.413 446.671C552.87 427.559 547.907 412.174 556.264 393.124C566.796 396.187 565.529 394.447 575.564 394.475C595.713 394.529 606.893 388.559 625.164 382.171Z" fill="#FAFAF9"/>
<path d="M620.714 480.075C623.104 480.513 622.409 480.02 623.622 481.677C624.158 484.996 622.701 488.714 620.982 491.522C614.607 501.909 604.907 506.396 594.102 499.815C591.26 497.76 585.571 492.362 586.697 488.598C588.228 487.839 589.755 487.941 591.441 487.83C601.491 487.17 611.614 484.429 620.714 480.075Z" fill="#2F2F2F"/>
<path d="M617.404 485.702C618.63 485.65 618.105 485.468 619.038 486.264C618.075 494.058 606.081 502.095 597.885 498.129C595.848 496.635 593.411 495.142 593.264 492.496C597.052 490.583 611.285 487.959 617.404 485.702Z" fill="#6D6D6C"/>
<path d="M610.134 435.405C619.484 436.688 621.513 449.404 615.442 455.74C606.177 454.063 603.612 441.902 610.134 435.405Z" fill="#2F2F2F"/>
<path d="M583.896 446.746C584.891 446.962 585.137 447.222 586.013 447.765C589.743 456.348 583.186 463.183 583.095 471.417C583.037 476.614 591.935 473.122 594.97 475.302C594.722 476.928 594.709 476.456 592.93 477.829C572.697 482.17 578.659 469.238 582.021 456.987C582.787 454.198 583.102 449.983 583.896 446.746Z" fill="#2F2F2F"/>
<path d="M608.003 413.911C612.98 413.537 625.244 415.245 625.006 421.837L623.628 422.577C621.184 422.818 618.63 421.154 616.363 420C607.822 418.019 604.389 423.129 598.382 421.33L598.398 419.852C602.131 415.744 602.728 415.471 608.003 413.911Z" fill="#2F2F2F"/>
<path d="M567.868 441.491C575.93 443.671 578.428 454.362 572.606 460.004C564.592 458.62 562.657 447.319 567.868 441.491Z" fill="#2F2F2F"/>
<path d="M565.495 420.663C568.137 420.82 571.514 421.659 572.426 424.476C570.095 427.377 564.672 424.633 559.409 428.396L557.511 430.637L556.255 430.739L555.39 429.676C554.708 423.651 560.77 421.446 565.495 420.663Z" fill="#2F2F2F"/>
<path d="M136.119 542.491C168.975 542.06 165.491 603.353 169.187 625.45C170.495 633.275 171.234 642.958 172.035 650.928C166.919 650.27 152.818 650.185 149.893 655.011C150.22 657.113 149.786 656.218 151.272 657.778C153.529 657.266 155.644 656.327 157.894 655.779C166.477 653.64 175.12 658.265 182.324 662.543C196.647 671.038 211.455 679.087 225.554 687.96C224.745 688.228 223.941 688.508 223.143 688.801C214.902 691.866 207.809 701.165 204.196 708.959C200.764 717.167 199.732 720.446 200.609 729.464C174.95 721.762 129.06 703.554 121.75 675.681C114.816 649.24 107.37 602.892 111.166 576.19C112.066 570.086 113.973 564.175 116.81 558.696C121.138 550.509 127.237 545.152 136.119 542.491Z" fill="#FAFAF9"/>
<path d="M292.816 404.894C300.795 411.808 304.114 429.122 304.131 439.324C304.147 449.062 301.284 458.669 300.113 467.989C297.643 487.66 296.876 506.228 280.889 520.471C263.749 537.006 242.703 539.761 222.204 527.306C219.525 525.677 212.876 520.328 210.438 520.313L209.96 521.379C211.344 530.145 222.134 535.165 229.469 537.918L223.523 549.68C218.701 545.431 206.594 534.068 202.495 529.631C200.317 527.016 198.662 524.812 196.675 522.044C198.808 517.78 200.036 514.473 202.501 509.999C195.923 499.739 195.653 497.51 193.499 485.57C190.493 485.538 185.846 485.824 184.119 482.969C181.426 478.514 184.286 468.949 185.278 463.845C201.07 463.809 208.565 450.784 215.019 438.453C221.754 438.423 225.14 437.316 231.164 437.127C229.895 438.871 229.565 439.348 228.709 441.318C230.156 443.431 237.017 438.378 240.236 437.669C245.553 436.497 246.091 439.196 251.352 440.961C253.25 440.573 252.696 440.966 253.823 439.676C253.093 434.091 244.768 433.781 240.271 433.258C247.929 429.747 254.113 425.897 261.252 421.516C259.801 423.604 254.449 430.074 254.63 431.874C267.937 440.652 288.563 416.461 292.816 404.894Z" fill="#FAFAF9"/>
<path d="M240.743 454.436C251.643 454.675 249.186 468.924 242.259 474.466C231.512 475.899 233.982 460.092 240.743 454.436Z" fill="#2F2F2F"/>
<path d="M287.497 458.869C297.162 461.917 292.039 474.732 285.835 479.049C277.633 474.117 280.318 462.435 287.497 458.869Z" fill="#2F2F2F"/>
<path d="M237.499 498.596C240.591 499.038 251.368 508.682 257.119 508.388C260.236 508.227 263.507 507.236 266.846 506.971L267.656 507.856L267.397 509.809C263.699 512.07 260.381 513.027 256.076 512.408C248.463 511.313 236.313 508.234 237.499 498.596Z" fill="#2F2F2F"/>
<path d="M270.183 474.208C272.604 474.972 273.759 476.956 274.997 479.034C280.513 488.291 280.368 494.97 268.614 496.655C267.02 496.231 265.116 495.532 264.203 494.107C266.635 490.847 278.42 493.625 272.377 483.663C270.477 480.532 269.311 477.947 270.183 474.208Z" fill="#2F2F2F"/>
<path d="M287.609 438.877C293.62 438.281 300.634 438.681 301.688 446.032C300.8 447.631 301.445 447.109 299.679 447.635L298.908 446.608C294.138 441.31 291.064 444.105 283.811 443.016L283.214 442.164C284.281 440.217 285.572 439.879 287.609 438.877Z" fill="#2F2F2F"/>
<path d="M130.345 703.926C134.778 703.846 141.764 711.33 146.728 713.95C163.752 722.914 184.084 732.938 202.874 737.179L200.421 743.371C198.752 748.16 196.068 756.082 193.807 760.841C183.024 783.541 178.687 807.861 153.992 819.829C147.407 823.022 136.727 820.944 130.59 818.086C120.088 813.193 116.103 808.5 112.099 798.172C117.65 787.928 137.356 768.495 147.284 761.256C149.841 759.385 160.604 753.919 164.049 752.152L164.409 750.762L163.547 749.836C150.416 747.502 123.642 774.388 115.127 783.303C85.27 783.193 68.3941 762.212 68.2368 733.505C68.26 731.829 68.3551 730.123 68.4282 728.447C69.8258 727.015 73.4787 727.984 76.9433 727.131C82.3772 725.79 85.5278 724.431 90.4473 722.14C101.903 715.876 117.9 706.564 130.345 703.926Z" fill="#FAFAF9"/>
<path d="M130.345 703.926C134.778 703.846 141.764 711.33 146.728 713.95C163.752 722.914 184.084 732.938 202.874 737.179L200.421 743.371C198.799 741.561 164.702 727.984 159.485 725.12C150.623 720.251 141.617 714.291 133.139 708.825C135.755 709.044 138.334 710.818 140.816 712.128L141.047 711.72C137.872 709.891 133.376 706.241 130.345 703.926Z" fill="#E5E4E3"/>
<path d="M90.4473 722.14C87.5069 730.903 77.1676 730.202 69.6271 731.475C69.1133 731.561 68.416 733.06 68.2368 733.505C68.26 731.829 68.3551 730.123 68.4282 728.447C69.8258 727.015 73.4787 727.984 76.9433 727.131C82.3772 725.79 85.5278 724.431 90.4473 722.14Z" fill="#E5E4E3"/>
<path d="M732.148 705.565C751.348 715.144 752.89 728.368 761.558 743.614C767.165 750.189 771.987 753.413 780.508 755.674C779.569 757.252 778.253 759.635 777.143 761.006C776.802 761.402 776.454 761.792 776.101 762.182C767.062 772.029 757.395 774.552 744.68 775.168C741.84 768.251 739.359 762.34 735.165 756.076C733.062 752.932 720.659 737.734 716.179 741.317C716.319 743.505 725.864 751.432 728.564 756.277C737.03 771.45 745.771 791.505 748.965 808.604C740.005 827.336 714.411 834.033 696.18 824.582C694.217 823.57 690.018 813.059 688.579 810.457C680.601 796.002 671.342 782.194 668.051 765.71C666.179 756.984 663.54 748.672 662.175 739.641C674.31 737.941 721.122 712.792 732.148 705.565Z" fill="#FAFAF9"/>
<path d="M761.557 743.614C767.165 750.189 771.986 753.413 780.507 755.674C779.569 757.252 778.252 759.635 777.143 761.006C771.907 757.441 759.893 751.372 761.557 743.614Z" fill="#E5E4E3"/>
<path d="M596.636 524.986L597.624 525.57C598.545 527.863 592.571 543.864 591.575 548.693C594.135 551.41 595.792 552.647 598.782 554.941C596.716 557.275 592.373 561.791 592.839 564.754C596.803 589.91 615.29 639.216 631.35 657.004C629.162 647.644 622.421 637.613 618.416 628.692C609.889 609.704 600.573 585.651 596.942 565.331C599.207 561.79 602.09 558.448 604.648 554.419C602.172 551.935 598.924 549.311 596.215 547.075C598.021 540.47 600.483 533.103 602.473 526.424L610.297 526.65C611.047 561.265 616.039 594.425 626.2 627.62C631.71 645.621 640.969 661.489 644.449 679.843L638.14 683.646C632.588 681.056 626.139 677.375 620.659 674.426C618.392 665.224 615.875 658.576 612.51 649.728C604.714 632.379 599.11 615.146 593.717 596.956C591.285 588.755 588.272 576.008 585.217 568.552C583.951 591.267 595.129 620.917 602.688 642.324C601.078 648.466 594.752 661.58 591.234 666.851C579.912 666.382 569.625 665.931 559.421 672.037C550.832 677.18 544.614 686.126 542.16 695.772C535.422 698.575 529.171 700.69 522.282 703.024C538.322 682.311 543.883 669.429 547.032 642.927C559.289 629.868 569.737 629.832 583.141 640.35C577.974 630.898 572.892 627.711 561.946 627.595C565.182 613.202 568.293 598.776 571.278 584.327C574.258 570.069 577.195 550.777 583.713 537.709C585.951 533.223 592.551 527.856 596.636 524.986Z" fill="#FAFAF9"/>
<path d="M613.79 345.12C619.94 343.758 632.088 345.042 637.885 347.21C648.625 351.225 651.331 355.149 656.036 364.524C682.593 366.749 683.648 399.199 679.436 419.301C663.692 420.242 660.474 423.272 655.214 438.227C653.787 433.619 652.032 427.71 649.502 423.661C644.163 415.201 636.684 407.796 635.605 397.315C634.849 389.943 639.591 383.884 633.533 377.758C608.565 371.245 591.638 406.172 556.808 377.02L556.058 377.192C553.741 382.16 563.04 387.806 566.596 390.048C548.395 386.585 540.318 387.156 540.546 365.963C549.664 364.417 558.65 362.177 567.426 359.261C587.168 352.545 592.774 348.177 613.79 345.12Z" fill="#595957"/>
<path d="M771.114 584.291C776.204 609.802 809.246 727.307 797.83 743.114C795.392 746.49 790.881 748.05 786.883 748.495C781.025 749.141 775.637 747.916 770.999 744.211C763.623 738.319 762.051 728.404 757.297 720.702C752.329 712.652 745.259 707.04 737.694 701.61L744.984 696.662C749.988 697.801 763.502 699.812 768.012 697.948L767.86 697.076C770.377 696.552 772.65 696.254 774.906 695.059L774.839 694.023L773.455 693.359C764.58 695.26 757.87 695.352 748.806 694.06C758.552 684.005 762.337 672.299 764.69 658.856C768.67 636.127 771.584 611.087 771.2 588.021C771.175 586.778 771.151 585.534 771.114 584.291Z" fill="#FAFAF9"/>
<path d="M773.455 693.359C775.826 691.86 776.003 691.202 778.489 691.147L779.117 692.073C778.142 696.461 771.852 697.686 768.012 697.948L767.859 697.076C770.377 696.552 772.65 696.254 774.905 695.059L774.838 694.023L773.455 693.359Z" fill="#060605"/>
<path d="M343.797 744.565C352.493 745.522 362.751 745.723 371.578 746.253C442.261 750.476 511.492 739.318 580.134 723.194C575.93 728.721 572.918 734.096 569.599 740.159L567.924 743.322C564.803 742.316 546.766 747.283 542.051 748.178C533.538 749.799 524.555 751.573 515.944 752.938C512.703 753.541 506.365 754.382 503.583 755.29C500.244 755.985 499.201 756.844 496.886 754.297C492.792 754.315 442.112 760.116 441.805 760.268C415.512 761.816 391.148 761.554 364.873 760.208C360.003 759.958 346.965 759.72 342.792 758.745C344.674 752.609 344.508 751.024 343.797 744.565Z" fill="#FAFAF9"/>
<path d="M569.599 740.159L567.925 743.322C564.803 742.316 546.766 747.283 542.051 748.178C533.538 749.799 524.555 751.573 515.944 752.938C512.703 753.541 506.365 754.382 503.583 755.29C500.244 755.984 499.201 756.844 496.886 754.297C503.907 754.754 561.593 743.096 569.599 740.159Z" fill="#CFCECE"/>
<path d="M268.369 569.049C273.908 574.862 282.34 633.768 284.345 645.962C277.035 644.633 269.954 645.523 264.952 651.446L265.162 652.318C283.428 647.333 286.881 648.491 295.259 666.565C297.16 670.666 307.743 694.304 307.076 697.405C305.455 698.112 304.483 697.527 302.452 697.101C295.977 696.156 291.804 697.619 286.121 700.659C277.094 688.527 266.788 683.731 252.17 681.428C248.176 674.383 246.405 665.401 244.594 657.534C253.944 642.915 254.114 635.267 259.068 619.826C264.827 601.876 270.281 588.982 268.369 569.049Z" fill="#FAFAF9"/>
<path d="M244.694 541.481C252.378 541.926 257.401 541.046 264.744 539.148C257.312 557.838 243.391 558.888 238.014 568.343L238.638 568.738C243.921 567.069 246.884 564.833 251.476 561.824C259.218 613.379 253.537 636.9 222.342 677.85C217.662 675.45 212.831 673.103 208.63 669.916C211.43 664.944 217.015 655.742 218.809 650.843L218.586 649.143L217.884 648.68C217.129 650.136 216.548 652.269 214.873 652.488C226.447 623.695 227.802 607.282 227.86 576.13C228.029 574.841 228.213 573.555 228.413 572.27C229.138 574.94 228.959 577.928 228.916 580.714L229.728 580.605C230.422 579.549 230.337 574.639 230.79 572.179L230.914 571.517C230.959 569.088 230.962 566.658 230.923 564.229C235.372 556.273 240.239 549.186 244.694 541.481Z" fill="#FAFAF9"/>
<path d="M227.86 576.13C228.028 574.841 228.212 573.555 228.412 572.27C229.138 574.94 228.959 577.928 228.916 580.714L229.728 580.605C230.422 579.549 230.337 574.639 230.79 572.179L230.914 571.517C231.968 595.074 229.976 629.411 218.809 650.843L218.586 649.143L217.883 648.68C217.129 650.136 216.548 652.269 214.873 652.488C226.447 623.695 227.802 607.282 227.86 576.13Z" fill="#060605"/>
<path d="M261.334 381.01C310.016 375.095 286.378 420.592 263.243 427.159C265.734 422.058 272.054 408.702 268.782 403.795C267.379 404.459 265.266 409.189 263.817 410.811C249.337 427.022 233.442 431.789 212.658 433.292C207.87 433.539 205.955 432.339 200.666 433.175L200.268 433.874C202.361 436.216 205.615 437.216 208.602 438.535C203.618 448.061 199.964 455.488 188.426 457.326L187.74 456.722C188.734 449.314 203.798 423.274 208.68 416.637C219.811 401.505 242.513 383.806 261.334 381.01Z" fill="#595957"/>
<path d="M630.454 701.415C637.848 700.617 644.912 713.042 646.863 718.874C647.57 720.988 647.753 723.889 647.899 726.125C641.255 740.141 631.235 740.653 624.481 752.999C623.323 755.113 625.164 758.684 626.31 760.78L625.7 762.487C623.884 764.345 620.921 765.308 618.544 763.833C611.2 759.269 616.996 748.654 615.113 743.06L614.174 743.054C608.897 750.153 613.016 759.793 610.035 764.315C607.344 764.558 608.655 764.498 606.529 763.413C598.55 759.33 605.528 740.366 602.775 738.252C597.825 742.328 599.325 756.862 598.632 762.103L596.956 762.822C584.594 754.455 593.955 743.425 593.539 732.097L592.911 731.518C588.602 734.553 577.246 771.755 566.575 771.432C564.772 770.061 565.162 770.719 564.322 768.794C564.329 765.217 566.421 760.171 568.037 757.088C572.967 747.685 584.715 724.139 592.583 717.606C598.227 712.92 622.86 704.054 630.454 701.415Z" fill="#FAFAF9"/>
<path d="M578.779 673.579C596.538 671.245 617.844 679.916 633.411 687.46C629.687 690.288 628.371 691.988 625.945 695.906C611.639 701.397 604.749 703.615 590.49 710.738C581.894 717.1 559.446 721.183 548.065 723.767C547.951 723.176 547.853 722.579 547.771 721.981C544.244 696.912 551.022 676.784 578.779 673.579Z" fill="#FAFAF9"/>
<path d="M240.347 706.156C246.457 705.681 253.26 709.715 259.06 711.494C281.504 718.471 291.012 737.167 301.325 756.119C313.031 777.63 299.877 777.014 291.571 759.361C289.707 755.4 280.12 738.014 277.665 735.546L277.044 735.912C276.836 744.309 282.027 748.209 279.104 760.89C277.756 762.871 276.158 765.253 273.609 765.509C269.391 762.176 273.791 744.126 266.659 741.116C265.223 744.656 272.087 767.685 261.367 766.929C259.753 765.704 259.677 764.723 260.136 762.456C260.748 759.434 259.439 747.271 256.128 746.582C254.387 751.238 258.634 766.508 249.629 765.674C245.914 762.432 249.703 757.855 246.657 753.602C238.582 742.322 230.974 741.494 225.109 727.405C228.943 717.125 231.42 713.06 240.347 706.156Z" fill="#FAFAF9"/>
<path d="M270.137 345.322C276.724 323.383 290.192 296.284 309.416 282.601C313.824 279.463 321.304 280.992 323.241 286.152C327.327 297.035 323.352 314.702 319.369 325.151C316.164 333.557 305.471 356.31 298.851 361.473C296.163 362.074 295.636 361.098 293.645 359.268C289.574 356.261 285.644 353.885 281.343 351.231C277.483 349.065 274.161 347.212 270.137 345.322Z" fill="#FAFAF9"/>
<path d="M281.344 351.231C285.872 345.049 301.365 296.894 313.195 302.797C321.785 313.942 301.172 349.693 293.646 359.268C289.574 356.261 285.645 353.885 281.344 351.231Z" fill="#E5E4E3"/>
<path d="M324.76 619.296C349.324 618.028 358.055 647.461 361.915 666.985C349.809 666.071 343.63 669.277 334.674 676.638C330.736 680.977 329.408 683.694 328.021 689.276C315.148 671.3 307.366 652.543 308.534 630.063C309.01 629.283 309.507 628.516 310.027 627.766C313.95 622.148 318.338 620.453 324.76 619.296Z" fill="#FAFAF9"/>
<path d="M90.3143 538.781C98.3107 538.011 100.51 538.489 107.67 541.962C95.9348 556.828 80.8271 602.721 73.9114 621.879L68.5714 620.191C60.3225 617.09 55.8786 614.408 48.7954 609.345C53.9316 592.442 63.6202 567.291 71.2527 551.102C74.5691 544.067 82.8538 540.67 90.3143 538.781Z" fill="#ADACAB"/>
<path d="M355.289 672.915C366.548 671.964 378.429 684.456 387 690.379C390.287 692.652 397.934 693.578 397.398 698.191C395.095 700.324 390.483 701.141 387.429 700.702C381.02 699.776 378.093 693.591 374.871 688.685C375.81 696.723 377.656 702.335 380.602 709.703C382.848 715.321 391.427 728.532 386.82 733.815C376.741 735.455 372.959 708.697 365.837 705.022C365.106 712.615 374.183 723.639 371.097 727.508C363.061 728.325 362.19 715.772 356.416 712.372L355.623 713.109C355.05 718.051 360.41 723.322 361.467 728.179C360.122 729.739 360.813 729.398 358.976 729.605C353.742 727.661 351.146 720.769 346.772 716.985L346.24 717.6C346.201 720.482 347.549 723.438 348.577 726.186C341.296 720.098 336.324 711.701 334.491 702.39C331.109 685.931 338.992 675.718 355.289 672.915Z" fill="#FAFAF9"/>
<path d="M488.389 675.346C490.654 675.011 492.952 674.962 495.229 675.206C502.077 675.894 508.36 679.313 512.657 684.688C521.327 695.638 517.338 713.164 510.287 723.925C508.638 726.442 505.887 728.477 503.537 730.324C505.428 727.508 510.011 719.824 508.621 716.601C505.257 717.911 501.147 730.281 493.832 732.999C490.423 731.232 499.822 719.416 497.844 713.578L497.007 713.194C493.182 717.009 488.538 737.459 478.811 735.119C478.728 732.749 479.663 731.945 480.921 729.574C483.014 725.022 487.93 711.506 486.637 707.015C483.465 707.905 476.096 733.7 469.195 735.473C460.779 729.775 480.395 702.463 475.584 693.396C473.111 694.596 470.848 701.445 468.008 702.542C464.207 704.011 459.974 705.26 456.022 703.987C454.481 702.481 454.868 703.292 454.715 700.994C457.353 697.783 463.319 694.627 466.568 691.622C473.711 685.029 479.204 679.155 488.389 675.346Z" fill="#FAFAF9"/>
<path d="M516.809 625.353C519.693 625.28 522.578 625.511 525.415 626.029C532.363 627.327 536.144 629.911 540.004 635.609C540.724 659.222 534.967 672.579 522.864 692.256C521.619 689.191 520.418 686.68 518.958 683.707C517.289 680.964 515.213 678.496 512.8 676.376C504.941 669.575 496.775 668.43 486.815 669.1C488.341 660.319 494.288 643.585 499.337 636.133C503.651 629.765 509.385 626.718 516.809 625.353Z" fill="#FAFAF9"/>
<path d="M500.647 553.156C514.437 555.539 534.044 600.75 537.202 614.055C530.079 609.674 526.089 609.106 517.951 609.472C507.547 611.502 504.356 613.092 497.852 621.441C489.046 603.313 478.954 565.626 500.647 553.156Z" fill="#FAFAF9"/>
<path d="M750.232 818.823C750.336 818.896 750.446 818.957 750.537 819.037C754.627 822.705 755.115 834.679 755.249 839.975C750.458 844.173 745.149 847.708 740.2 851.705C726.211 863.015 719.665 869.42 700.617 868.938L696.527 864.587C692.255 858.42 690.731 850.773 688.756 843.637C691.633 839.895 695.424 836.501 698.74 833.119C703.976 834.576 709.394 835.264 714.825 835.161C728.716 834.886 740.748 828.677 750.232 818.823Z" fill="#CFCECE"/>
<path d="M38.7951 629.966C47.8921 636.114 56.9965 641.873 68.1336 643.043C64.0284 656.541 54.1598 688.435 58.1204 701.123L57.969 701.927C57.3773 701.884 57.018 701.884 56.4526 701.732C22.6013 692.652 28.0685 672.933 34.9116 645.639C36.1662 640.636 37.5162 634.883 38.7951 629.966Z" fill="#ADACAB"/>
<path d="M360.624 544.112L361.166 545.059C357.933 556.228 354.682 569.857 358.651 580.996C364.463 597.309 358.373 602.898 350.098 617.126C343.318 608.571 340.338 606.094 329.656 603.363C322.699 602.516 319.493 603.139 313.083 605.633C319.936 585.48 341.573 554.119 360.624 544.112Z" fill="#FAFAF9"/>
<path d="M107.493 804.357C110.086 809.293 113.862 813.723 118.074 817.361C128.373 826.252 140.296 828.013 153.43 827.117C155.962 829.701 157.977 832.37 159.998 835.368C156.577 843.04 152.058 848.579 146.386 854.655C144.537 856.55 142.574 858.128 140.468 859.724C129.151 857.659 122.671 850.371 114.565 843.18C111.358 840.334 107.882 837.805 104.612 835.039C101.54 832.437 98.3068 829.957 98.0661 825.691C97.64 818.147 102.616 809.707 107.493 804.357Z" fill="#CFCECE"/>
<path d="M113.301 669.13C113.603 669.691 114.694 674.133 115.019 675.248C116.512 680.355 117.85 684.389 120.058 689.234C113.788 690.708 91.7786 697.387 87.9989 701.951C89.0144 702.293 90.7393 702.085 91.7408 701.701C101.99 697.801 111.313 695.401 122.04 693.121L127.02 698.173C119.032 700.263 113.674 703.152 106.356 706.893C74.7418 724.078 53.158 735.595 70.6927 686.345C87.6923 687.722 100.317 678.99 113.301 669.13Z" fill="#FAFAF9"/>
<path d="M632.295 561.971L640.792 561.669C643.419 572.701 650.697 600.411 651.495 610.173C651.867 614.664 645.894 644.987 644.882 652.178L644.053 656.87L643.413 656.754C624.408 618.12 629.266 602.962 632.295 561.971Z" fill="#CFCECE"/>
<path d="M307.564 459.75C307.714 459.985 308.218 460.808 308.276 461.01C315.264 485.428 325.035 527.128 295.196 540.603C297.175 536.678 302.177 525.957 297.196 522.579C294.476 524.476 293.589 530.867 290.709 535.179L290.301 535.781C286.427 539.544 273.777 549.596 269.539 542.488C269.328 539.974 270.089 538.29 270.86 535.872C299.525 517.84 305.485 491.496 307.564 459.75Z" fill="#595957"/>
<path d="M475.754 674.804C475.829 678.978 444.628 695.583 448.349 703.785C452.289 712.463 460.131 711.933 467.231 710.001C463.68 719.355 458.486 726.466 460.97 736.497L461.166 737.271C460.023 738.02 456.961 737.886 455.31 737.971C448.957 738.623 442.329 738.946 435.934 739.343C435.239 706.979 439.04 681.153 475.754 674.804Z" fill="#FAFAF9"/>
<path d="M144.353 529.7C145.788 529.505 148.43 529.127 149.64 529.878C159.061 535.722 173.801 542.804 177.627 553.642C185.482 575.889 183.091 596.516 174.691 617.827L173.346 605.937C170.67 580.963 166.775 523.855 126.741 540.225C133.199 534.117 135.543 531.906 144.353 529.7Z" fill="#ADACAB"/>
<path d="M103.981 587.87C104.628 590.645 104.853 605.812 105.116 609.631C105.923 621.367 106.746 633.433 108.832 645.023C101.089 652.531 92.8632 657.577 82.3977 660.508L78.916 660.861L78.0444 660.112C78.5345 650.301 99.6118 598.335 103.981 587.87Z" fill="#FAFAF9"/>
<path d="M366.873 656.705C369.233 658.253 372.632 665.803 374.95 668.332C391.99 686.948 419.028 687.881 442.004 684.608C439.052 689.002 435.986 694.456 433.963 699.325C432.661 702.585 431.555 706.223 430.461 709.581C422.782 709.507 413.669 709.355 406.826 705.425C402.038 703.316 404.414 693.487 400.793 691.281C389.986 684.682 379.254 675.742 369.011 668.728C368.13 665.206 367.476 660.374 366.873 656.705Z" fill="#FAFAF9"/>
<path d="M110.105 543.901C115.665 542.424 116.702 541.966 121.34 538.691C111.259 551.447 108.507 562.179 101.989 576.482C90.9797 600.638 82.5592 625.176 73.963 650.24C72.744 653.798 71.6231 658.076 69.4251 661.087C68.253 662.671 67.3296 663.701 66.636 665.62L65.4517 665.243C71.4859 640.679 94.7734 561.271 110.105 543.901Z" fill="#959495"/>
<path d="M302.015 716.089C305.441 715.747 308.426 716.247 311.429 717.88C326.186 725.906 332.92 732.316 338.699 747.673C334.827 742.859 328.53 732.883 322.474 731.884L321.638 732.511C322.282 733.724 329.659 742.274 331.49 744.735C333.744 748.453 338.13 755.613 336.136 759.854C326.806 765.223 322.972 731.092 293.341 731.232C292.366 721.031 291.943 719.885 302.015 716.089Z" fill="#FAFAF9"/>
<path d="M225.989 691.641C231.801 691.549 235.604 695.51 239.522 699.313C237.524 700.635 235.615 702.085 233.806 703.657C224.85 711.482 219.443 721.488 218.649 733.352C207.591 730.653 200.494 728.508 205.991 714.724C209.822 705.114 216.215 695.9 225.989 691.641Z" fill="#FAFAF9"/>
<path d="M672.104 491.068L672.659 491.809C673.75 500.157 669.209 524.256 666.283 532.626C665.777 534.07 658.755 545.82 657.433 548.135L649.277 540.435L640.951 532.16C655.921 519.298 664.942 510.019 672.104 491.068Z" fill="#FAFAF9"/>
<path d="M386.742 707.478C393.068 707.667 394.142 707.375 399.839 704.559C402.618 707.941 403.433 708.794 406.913 711.427L412.579 714.163C411.497 723.06 410.482 731.695 408.667 740.5L401.029 740.64L389.63 740.403C398.947 730.458 391.478 718.228 386.742 707.478Z" fill="#FAFAF9"/>
<path d="M406.912 711.427L412.579 714.163C411.497 723.06 410.482 731.695 408.667 740.5L401.029 740.64C407.562 731.025 408.141 722.542 406.912 711.427Z" fill="#E5E4E3"/>
<path d="M109.564 651.41C110.15 653.421 111.338 660.495 111.899 663.183C98.4638 674.17 88.3482 681.647 70.3008 680.617C68.2223 679.666 68.7361 680.258 67.7896 678.496C67.9755 674.743 69.9741 669.843 71.148 666.065C87.9575 666.108 96.5243 661.568 109.564 651.41Z" fill="#959495"/>
<path d="M234.325 686.784C260.601 687.936 282.457 691.543 287.008 721.768C284.451 719.897 280.842 715.199 276.932 712.853C268.153 707.582 257.177 703.712 247.685 699.751C243.102 692.177 240.99 692.585 234.325 686.784Z" fill="#FAFAF9"/>
<path d="M127.166 521.279C131.037 521.088 139.102 520.613 141.947 523.521C141.278 524.463 131.75 528.697 129.434 530.032C123.741 533.281 118.257 536.881 113.014 540.813C104.26 536.985 100.871 535.315 91.1702 536.002C83.9967 537.572 80.5712 539.982 75.4683 544.819C87.1595 527.864 107.685 522.666 127.166 521.279Z" fill="#ADACAB"/>
<path d="M515.142 434.033C520.005 436.407 522.382 443.352 523.049 448.357C524.761 461.237 523.447 474.88 515.568 485.528C513.918 486.819 512.538 488.004 510.496 488.084L509.767 487.284C508.662 477.862 512.17 442.847 515.142 434.033Z" fill="#CFCECE"/>
<path d="M648.997 547.626C656.853 555.065 658.871 556.596 664.332 546.556C661.669 559.319 659.383 573.384 656.756 586.474C655.775 590.118 655.22 594.038 654.598 597.775C651.148 586.697 647.503 570.702 644.389 559.149C645.742 555.483 647.528 551.294 648.997 547.626Z" fill="#FAFAF9"/>
<path d="M45.1408 611.995C55.0321 618.156 61.434 622.221 72.6103 625.402C71.3546 630.441 70.241 634.664 68.6484 639.6C61.0549 638.259 46.0281 632.873 41.6213 625.682C40.1816 623.336 44.0489 614.744 45.1408 611.995Z" fill="#959495"/>
<path d="M377.272 662.872C378.958 663.207 381.265 664.207 382.888 664.853C401.594 672.305 421.273 675.535 441.31 672.762C446.099 672.098 458.26 669.234 462.765 669.843L462.951 670.575L460.864 672.086C452.506 676.985 435.049 680.355 425.269 680.184C405.631 679.837 391.672 676.882 377.272 662.872Z" fill="#6D6D6C"/>
<path d="M347.581 425.794C348.409 426.823 348.422 427.274 348.32 428.931C347.258 446.158 346.094 462.817 346.17 480.08C344.683 478.645 343.246 477.006 341.846 475.474C332.975 461.915 334.43 436.694 347.581 425.794Z" fill="#CFCECE"/>
<path d="M293.134 387.247C299.67 390.82 308.641 403.79 311.16 410.627C315.958 423.647 316.686 434.626 311.441 447.376C310.823 448.646 310.734 448.718 309.893 449.771C308.181 447.803 309.383 435.503 308.688 430.809C306.342 414.972 302.575 410.224 293.795 397.982C293.682 394.503 293.362 390.743 293.134 387.247Z" fill="#595957"/>
<path d="M539.579 703.828C541.029 705.565 540.721 721.786 540.884 725.309C534.659 726.278 528.195 727.557 521.903 728.587L520.758 728.38C519.87 724.669 521.954 713.816 522.63 709.8C528.132 708.581 534.404 705.997 539.579 703.828Z" fill="#FAFAF9"/>
<path d="M401.261 539.361C424.751 547.714 432.151 546.362 456.15 540.486C454.865 542.124 453.393 543.705 451.999 545.262C440.987 554.802 420.335 555.89 407.898 548.139C405.334 546.54 401.815 542.396 401.261 539.361Z" fill="#6D6D6C"/>
<path d="M633.222 535.039C639.408 535.425 642.115 538.878 645.674 543.425C644.083 547.816 642.377 554.107 638.817 556.952C637.818 557.028 633.819 557.353 633.222 557.046C627.931 554.34 624.963 546.787 626.962 541.244C628.254 537.655 630.381 536.343 633.222 535.039Z" fill="#CFCECE"/>
<path d="M639.409 692.219C651.624 691.781 660.937 715.248 662.912 725.181C661.224 725.906 658.987 726.588 657.201 727.191C656.793 727.386 655.817 727.472 655.366 727.539C654.08 725.674 653.391 719.714 652.532 717.32C648.613 706.387 643.596 700.611 634.039 695.102L639.409 692.219Z" fill="#FAFAF9"/>
<path d="M623.013 550.178C625.061 553.343 626.639 556.816 628.285 560.214C625.987 574.421 626.67 587.785 625.17 601.036L624.628 600.1C623.092 592.227 616.411 561.335 617.893 555.328L619.928 555.336C621.647 553.829 622.123 552.255 623.013 550.178Z" fill="#FAFAF9"/>
<path d="M419.564 715.949C422.582 716.406 426.21 716.674 429.29 716.985C429.01 721.61 429.831 737.057 428.053 739.507L425.596 739.763C422.179 739.995 418.76 740.202 415.34 740.391C417.117 732.243 418.291 724.181 419.564 715.949Z" fill="#FAFAF9"/>
<path d="M491.658 545.809C493.488 546.165 495.344 547.61 496.974 548.668C482.702 557.027 480.336 580.506 483.336 595.234L483.202 596.138L482.494 595.536C476.165 578.645 476.221 557.713 491.658 545.809Z" fill="#959495"/>
<path d="M297.846 700.94C306.26 701.366 307.59 704.163 311.154 711.183C306.837 710.879 304.106 710.842 299.912 711.781C297.55 712.445 294.689 713.785 292.381 714.791C291.249 710.818 290.118 707.954 288.61 704.151C292.407 702.25 293.702 701.689 297.846 700.94Z" fill="#FAFAF9"/>
<path d="M372.851 537.901L373.657 538.688C373.986 540.327 372.289 544.817 371.658 546.721C368.07 557.549 366.202 568.44 364.174 579.643L363.589 578.996C361.271 568.51 361.914 543.549 372.851 537.901Z" fill="#6D6D6C"/>
<path d="M183.225 489.582C184.03 489.801 187.235 490.888 187.352 491.232C189.351 497.134 192.566 504.165 195.56 509.394C195.828 511.517 194.879 512.712 193.847 514.671C193.134 515.46 193.348 515.214 192.355 515.732C185.848 511.684 183.414 496.88 183.225 489.582Z" fill="#595957"/>
<path d="M256.86 558.17L261.571 554.57C263.781 571.16 264.115 577.524 261.186 594.151C260.985 595.651 260.972 597.184 260.043 598.315C259.397 595.517 259.675 590.905 259.731 587.897C259.489 577.162 258.362 568.845 256.86 558.17Z" fill="#959495"/>
<path d="M259.732 587.897C259.91 590.313 259.733 592.361 261.187 594.151C260.986 595.651 260.972 597.184 260.043 598.315C259.397 595.517 259.676 590.905 259.732 587.897Z" fill="#959495"/>
<path d="M517.111 615.554C529.686 614.415 534.242 616.029 539.765 627.382C534.653 623.549 533.156 622.166 527.047 620.533C516.023 618.497 509.879 620.606 500.511 625.804C506.087 619.07 508.561 617.504 517.111 615.554Z" fill="#6F6F6E"/>
<path d="M322.493 608.915C331.03 608.109 337.371 611.252 343.292 617.236C337.092 615.158 333.44 613.86 326.786 613.58C317.626 613.982 314.818 617.967 308.992 618.534L308.488 617.224C311.966 611.368 316.244 610.082 322.493 608.915Z" fill="#6D6D6C"/>
<path d="M606.235 652.36C607.811 653.543 613.62 669.021 612.627 670.678L608.794 669.892C605.387 669.088 601.952 668.198 598.551 667.357C601.13 662.695 603.787 657.162 606.235 652.36Z" fill="#FAFAF9"/>
<path d="M616.052 525C617.734 525.569 623.555 530.935 626.956 532.93C623.525 536.481 622.202 538.972 620.13 543.401L617.24 549.914C616.399 543.494 614.491 531.026 616.052 525Z" fill="#FAFAF9"/>
<path d="M239.896 664.712C240.385 665.45 243.856 678.082 244.849 680.629L232.076 680.739C230.921 680.788 229.7 680.66 228.539 680.574L228.396 680.008C232.602 674.785 236.011 670.191 239.896 664.712Z" fill="#FAFAF9"/>
<path d="M544.234 390.291L550.513 392.601C546.756 401.797 546.459 406.19 545.881 415.928L545.031 416.62C538.973 408.416 541.571 398.947 544.234 390.291Z" fill="#595957"/>
<path d="M680.088 809.043C682.721 811.535 688.999 825.319 691.37 829.579C691.291 831.364 690.218 831.974 689.024 833.211C688.219 834.143 687.555 834.704 686.518 835.368C684.988 833.777 680.844 812.65 680.088 809.043Z" fill="#FAFAF9"/>
<path d="M358.778 614.75L359.309 615.524C359.2 619.966 360.167 635.785 359.53 638.917L358.987 637.802C357.177 633.598 354.917 629.021 352.958 624.835C354.96 621.55 356.871 618.095 358.778 614.75Z" fill="#FAFAF9"/>
<path d="M481.043 659.289L481.498 659.77C481.669 662.19 480.578 665.334 479.902 667.771L470.639 667.686L470.201 667.436C470.518 666.705 479.462 660.617 481.043 659.289Z" fill="#FAFAF9"/>
<path d="M61.6861 681.562C63.2282 682.579 63.2727 682.622 64.2205 684.182C64.3802 687.6 62.5486 691.763 61.4069 695.175L60.8507 695.864L60.3181 695.516C59.6054 691.33 60.7705 685.663 61.6861 681.562Z" fill="#959495"/>
<path d="M722.584 868.944L723.279 869.084L722.499 870.127C717.324 872.826 711.6 873.911 705.859 874.612C705.432 874.374 705.237 874.033 704.944 873.655C706.194 872.625 719.171 870.267 722.584 868.944Z" fill="#959495"/>
<path d="M97.4277 834.052C101.41 836.416 106.469 842.144 110.27 845.331C109.558 845.209 108.996 845.1 108.324 844.819C103.435 842.796 99.26 839.024 97.4277 834.052Z" fill="#959495"/>
<path d="M166.24 820.243C166.418 822.443 164.966 825.283 163.841 827.105L162.634 827.312C161.916 826.44 161.575 825.782 161.183 824.746C161.951 822.608 164.413 821.456 166.24 820.243Z" fill="#CFCECE"/>
<path d="M491.473 626.31C494.578 630.149 493.337 633.311 491.437 637.205L491.08 637.711C490.311 635.889 491.259 628.753 491.473 626.31Z" fill="#FAFAF9"/>
<path d="M754.524 846.361C754.493 846.818 754.457 847.263 754.298 847.689C753.037 851.114 748.069 853.637 744.899 854.85C745.399 853.125 752.762 847.897 754.524 846.361Z" fill="#ADACAB"/>
<path d="M319.191 410.258C319.597 413.074 320.27 416.989 320.341 419.721L319.749 420.271L320.239 421.247L320.129 421.267L319.811 420.76L320.247 420.357C318.835 419.248 318.226 414.303 317.72 411.995L319.191 410.258Z" fill="#CFCECE"/>
<path d="M127.233 859.17C130.632 859.359 135.186 861.12 137.638 863.472C133.834 863.161 130.43 861.102 127.233 859.17Z" fill="#959495"/>
<path d="M66.6361 665.62C65.8401 668.113 64.899 672.031 63.3161 673.871C62.9217 671.714 64.6649 667.375 65.4518 665.243L66.6361 665.62Z" fill="#6D6D6C"/>
</g>
<defs>
<clipPath id="clip0_6_691">
<rect width="832" height="1248" fill="white"/>
</clipPath>
</defs>
</svg>
