<svg width="227" height="143" viewBox="0 0 227 143" fill="none" xmlns="http://www.w3.org/2000/svg">
<path d="M75.1724 0C102.087 2.60203 131.903 3.04077 158.056 6.08155C161.957 12.1692 166.669 21.7851 170.234 28.5126L186.966 59.4872C197.45 79.103 203.91 91.2173 218.868 107.78C220.142 104.709 220.989 101.802 224.573 101.132C228.517 103.027 226.17 115.068 221.617 116.872C219.624 116.269 215.54 110.626 214.016 108.755C210.445 104.867 206.824 101.022 203.167 97.2074C201.753 101.382 200.564 105.885 199.357 110.151C180.066 116.08 154.801 119.389 134.742 123.886C123.679 102.613 114.081 80.8397 103.429 59.4628C96.4454 45.63 89.637 31.7057 83.0054 17.7023C80.9482 13.3331 76.4085 4.28391 75.1724 0Z" fill="#242324"/>
<path d="M75.2699 17.4159C77.8652 19.116 118.709 109.212 124.993 117.408C126.866 119.852 128.221 122.436 131.043 124.922C137.866 125.153 136.43 130.169 140.353 131.54L143.293 128.59C149.896 126.854 147.171 136.299 145.522 139.571C143.806 141.223 143.779 141.82 141.731 142.137C137.322 137.481 133.102 130.583 128.689 125.373C113.453 129.431 109.103 126.384 92.9638 123.685C86.2346 109.267 77.3666 64.9106 75.4472 48.3904C74.9048 43.7165 75.1077 23.0831 75.2699 17.4159Z" fill="#242324"/>
<path d="M68.7518 13.8145C73.6811 20.1215 67.0799 57.2325 64.8143 65.5748C60.0631 83.0821 51.5389 97.9753 43.0921 113.849C37.2236 112.716 31.9543 111.674 26.0218 110.979C25.831 107.098 24.3432 100.736 23.5356 96.7444C18.5783 101.29 11.7138 109.468 7.78421 114.824C6.99061 117.579 7.62329 116.951 5.67647 118.133C1.49148 116.86 -2.20647 104.447 1.57075 101.613C5.12366 102.607 6.18727 105.599 7.47886 108.694C11.8528 103.514 18.3308 97.4025 22.0751 91.7718C28.4611 82.1742 34.7069 71.5405 40.5059 61.559L57.5128 32.827C61.1072 26.6297 64.7662 19.6766 68.7518 13.8145Z" fill="#242324"/>
</svg>
