<svg width="231" height="151" viewBox="0 0 231 151" fill="none" xmlns="http://www.w3.org/2000/svg">
<path d="M77.3955 0C85.8934 0.268125 94.9022 1.48809 103.515 2.02495L132.27 4.028C140.836 4.58314 151.286 4.58373 159.357 6.87559C163.66 11.3344 176.99 37.8257 181.019 45.0682C193.911 68.2396 205.205 90.3204 221.059 111.913C223.125 109.265 223.223 108.937 226.484 108.05C233.323 109.526 230.208 125.831 222.845 125.768C219.517 124.219 210.831 110.021 207.137 105.295C206.162 110.4 205.266 115.298 203.974 120.336C192.472 126.787 147.808 133.206 143.132 136.715L143.382 138.083C144.714 138.745 147.135 137.456 149.62 137.109C151.722 138.108 151.279 138.161 152.583 140.382C152.627 143.786 152.037 146.981 148.808 148.861C140.077 153.943 138.603 143.022 135.234 137.177C130.734 138.608 122.479 140.679 117.892 140.22C101.918 138.624 85.7593 133.982 70.2006 130.531C55.6165 127.296 41.1269 125.023 26.6014 121.655C26.0906 116.296 24.4607 111.133 22.9375 105.992C19.9484 109.688 10.9982 123.397 6.57488 124.799C1.51522 126.401 -1.54522 114.421 0.804491 109.604C3.87344 107.279 6.12076 109.689 8.13157 112.16L8.5674 112.702C16.1029 103.239 20.1161 94.8815 26.5545 84.8969C43.2895 58.943 57.9126 32.5272 71.7293 4.96824C73.3019 1.83057 74.0358 0.823875 77.3955 0Z" fill="#242324"/>
<path d="M81.1333 9.05896C83.9828 9.05896 86.8524 9.19729 89.6892 9.46176C111.726 11.5123 133.808 12.7109 155.895 14.0863C157.169 16.3453 158.394 18.9351 159.607 21.2666C172.693 46.474 186.895 70.9459 200.701 95.7389L185.652 98.9503C166.58 102.277 147.652 107.809 128.468 111.293C123.214 101.117 81.0565 15.2283 80.9163 10.7C80.8992 10.1485 81.0613 9.60557 81.1333 9.05896Z" fill="#FCFCFB"/>
<path d="M78.5579 22.6413C82.0352 26.2598 88.0829 46.3271 91.6218 52.1357C103.998 72.451 112.665 95.6743 123.877 116.35L118.972 126.524L116.411 131.913C110.508 131.064 103.459 130.184 97.842 128.459C94.8858 122.136 94.1843 115.985 91.9619 110.11C80.1658 78.9226 77.6363 55.7584 78.5579 22.6413Z" fill="#FCFCFB"/>
<path d="M72.3202 22.1118C72.4293 22.4585 72.5354 22.751 72.5622 23.1166C74.5383 50.0949 59.8298 95.2063 44.3949 116.387C39.6278 116.011 37.3281 115.712 32.7146 114.562C30.3966 108.471 29.6871 103.689 28.9136 97.3428C33.7989 85.558 43.9877 71.0811 50.9143 60.1057C58.3859 48.2655 64.8389 33.3888 72.3202 22.1118Z" fill="#FCFCFB"/>
<path d="M73.9584 62.319C75.178 64.0459 77.7057 78.4333 78.5182 81.8531C82.0364 96.6566 86.1306 111.771 90.5295 126.332C84.6933 124.906 79.6312 123.91 73.7115 122.845C69.1072 121.876 56.5668 119.585 53.0968 117.561C52.4769 114.831 59.8899 100.942 61.3327 97.3793C66.1821 85.4027 70.7132 74.8483 73.9584 62.319Z" fill="#5F5F5F"/>
<path d="M196.891 103.546L198.513 103.481L199.013 104.254C198.976 106.987 197.257 111.713 196.386 114.492C192.466 116.096 188.382 117.175 184.293 118.222C179.197 119.526 139.318 129.515 136.946 128.111L131.365 117.752C153.142 112.715 174.985 107.979 196.891 103.546Z" fill="#E6E6E5"/>
<path d="M127.505 124.394C128.787 126.014 130.442 127.617 130.595 129.536C129.286 131.254 128.921 130.864 126.403 131.455L124.664 131.946L124.055 131.543C124.291 129.495 126.375 126.351 127.505 124.394Z" fill="#E6E6E5"/>
</svg>
