<svg width="173" height="173" viewBox="0 0 173 173" fill="none" xmlns="http://www.w3.org/2000/svg">
<path fill-rule="evenodd" clip-rule="evenodd" d="M81.7773 0.122819C129.466 -2.39999 170.152 34.2478 172.585 81.9314C175.018 129.615 138.274 170.218 90.5761 172.552C43.0121 174.885 2.54068 138.274 0.114178 90.7302C-2.3121 43.181 34.2231 2.64575 81.7773 0.122819ZM160.315 84.9724C159.59 44.0712 125.797 11.5239 84.8866 12.322C44.0827 13.1203 11.6299 46.8008 12.3534 87.5984C13.0776 128.39 46.7043 160.9 87.5107 160.248C128.423 159.602 161.041 125.873 160.315 84.9724Z" fill="#242324"/>
<path fill-rule="evenodd" clip-rule="evenodd" d="M129.513 41.6392C129.288 42.346 129.051 43.0536 128.799 43.7544C124.589 55.479 108.357 89.8222 99.7852 97.6528C90.2364 106.373 58.0296 123.503 45.3916 129.408L44.8652 128.701C45.5568 123.654 69.1836 77.1293 73.3027 73.5522C84.2328 64.0582 115.589 46.6175 129.076 40.8589L129.513 41.6392ZM91.293 78.3726C88.8385 76.6664 85.6546 76.4043 82.9551 77.6899C78.8408 79.6582 77.0756 84.5701 78.998 88.7017C80.9205 92.8331 85.813 94.6488 89.9668 92.772C92.6925 91.535 94.546 88.9392 94.8203 85.9595C95.0946 82.9796 93.7475 80.0849 91.293 78.3726Z" fill="#242324"/>
</svg>
