<svg width="187" height="167" viewBox="0 0 187 167" fill="none" xmlns="http://www.w3.org/2000/svg">
<path d="M138.219 0C146.316 2.36438 181.742 13.1199 185.961 16.5384C187.194 21.517 186.874 37.763 186.875 43.3753L186.842 87.7744L186.762 131.863C186.789 140.132 187.002 148.499 186.864 156.756C186.811 159.918 186.766 161.314 184.481 163.367C180.561 164.592 146.978 151.911 140.155 149.87C131.073 151.698 102.895 162.38 93.4329 166.11C85.6621 162.825 55.7302 151.862 48.0746 150.467C42.918 149.528 9.34422 164.775 2.1177 163.172C0.261702 161.588 -0.0430473 157.066 0.00449558 154.739C0.904153 110.717 0.162359 66.6778 0.153826 22.6505C0.153216 20.7432 0.234887 18.1533 1.1382 16.4531C5.78338 13.1442 41.4765 1.87689 48.1416 0.548452C61.9778 3.80861 78.705 12.2667 93.1208 16.5323C109.021 11.1759 122.627 5.95969 138.219 0Z" fill="#242324"/>
</svg>
