<svg width="194" height="169" viewBox="0 0 194 169" fill="none" xmlns="http://www.w3.org/2000/svg">
<path d="M122.83 0.296079C124.818 0.0529382 126.961 -0.211527 128.931 0.265004C137.282 2.28569 171.218 52.9424 177.953 62.1178C182.951 68.9294 189.455 75.4655 193.526 82.8201L192.911 84.7116C191.838 85.6902 191.186 86.4849 189.576 86.5074C176.234 86.6927 162.489 85.6567 149.232 87.4129C140.815 88.5281 124.83 95.4372 120.034 102.727C118.74 104.658 118.266 107.023 118.715 109.303C118.852 109.987 119.929 112.382 120.422 112.595C135.857 119.286 151.853 129.077 156.425 146.503C158.314 153.704 153.944 161.769 149.823 167.873C146.093 167.896 142.18 167.771 138.436 167.713C156.394 148.669 146.154 137.272 127.528 125.416C122.355 122.024 112.973 119.517 110.558 113.085C105.742 100.256 118.662 90.9351 128.319 86.7938C109.551 86.1978 88.2791 91.8419 72.3352 101.878C66.0047 105.864 64.8582 110.893 69.3998 116.903C73.0618 121.541 78.6292 128.029 80.3633 133.689C84.9957 149.347 65.5305 157.713 55.0625 164.175C50.7611 166.829 43.2926 169.589 38.4993 167.008C36.1094 160.065 69.1248 149.821 71.6343 140.13C72.8929 131.243 61.5411 123.384 58.5313 115.264C53.0999 100.614 75.058 91.0424 86.4689 86.8712C74.7288 86.6207 5.40769 87.6725 0.159077 84.7573L0 83.4678C1.95657 78.3631 35.0939 34.8629 40.5528 27.966C42.3259 25.7259 45.849 23.314 48.9691 23.3816C57.6146 23.5681 74.1778 44.0785 80.5937 50.9595C88.8649 41.1169 114.673 4.88955 122.83 0.296079Z" fill="#242324"/>
<path d="M125.121 9.00897C132.218 11.0102 148.385 37.5216 153.164 43.7037C161.971 55.1039 170.797 66.8204 179.007 78.6843C163.172 79.6185 142.191 78.8921 125.742 78.9055L16.6606 78.7257L14.4438 78.4607L14.1323 77.6605C19.2097 69.1427 42.8232 36.9701 50.58 32.136C64.5735 44.0499 75.7656 59.5895 88.4321 72.7953C90.3393 74.7837 93.6965 74.5217 95.2429 72.0445C95.1015 67.9221 88.9172 62.2202 85.9196 58.5298C90.7854 51.1369 101.543 39.3144 107.262 31.6619C111.254 26.3207 120.962 13.2411 125.121 9.00897Z" fill="#E6E6E5"/>
</svg>
