<svg width="194" height="158" viewBox="0 0 194 158" fill="none" xmlns="http://www.w3.org/2000/svg">
<path d="M125.168 0C130.181 0.725156 133.031 3.89395 136.043 7.73911C142.367 15.8072 148.304 24.1801 154.515 32.3579C160.97 40.7733 167.351 49.2497 173.66 57.781C175.702 60.5232 181.115 67.3786 182.297 69.8649C177.927 71.2847 144.817 70.7058 137.624 70.7241L13.0627 70.7058C11.4554 70.6022 12.0607 70.9252 11.0586 70.005C14.8139 64.2586 43.3597 25.6913 48.4206 22.8028C49.536 22.163 50.8124 21.7426 52.1149 21.9924C55.9342 22.7236 75.2159 44.6673 78.951 49.0426C83.0513 53.8383 87.9775 63.3872 94.4159 65.063L94.9882 64.5024C93.9508 60.1576 87.4636 54.2405 84.2265 50.895C97.2934 36.8489 112.018 12.7542 125.168 0Z" fill="#242324"/>
<path d="M0 78.6825C26.8282 78.5058 54.5524 79.6697 81.1685 79.2431L80.1366 80.6203C73.7116 82.7288 63.6288 89.6025 60.3825 95.6963C53.0139 109.529 76.9664 118.895 71.8001 131.783C67.3262 142.947 44.5836 146.975 39.4149 155.476L39.1199 156.993C37.1413 157.706 35.9583 157.493 33.8639 157.408C23.9921 156.914 10.6051 157.298 0.462054 157.28C0.28712 132.448 1.12152 103.094 0 78.6825Z" fill="#242324"/>
<path d="M51.8336 156.609C58.8809 152.618 64.9505 148.95 71.2896 144.483C80.3916 138.078 85.6945 128.663 78.9958 118.389C71.3438 106.653 58.8266 100.687 77.8279 90.0352C93.8072 81.0835 108.92 80.1999 126.818 78.4449C118.082 83.3626 104.301 94.1668 111.818 104.551C120.006 115.861 151.12 122.125 147.34 142.058C146.518 146.427 142.422 152.679 140.583 157.255C111.46 157.249 80.6367 157.719 51.6489 157.353L51.8336 156.609Z" fill="#242324"/>
<path d="M177.061 78.9933L193.213 78.4937C193.012 104.733 192.969 130.973 193.079 157.207L150.004 157.414C153.545 151.387 155.027 149.242 156.307 142.24C156.727 127.274 144.427 116.58 132.742 108.773C126.815 104.819 111.564 103.338 122.198 91.711C136.781 75.7697 157.593 79.4503 177.061 78.9933Z" fill="#242324"/>
</svg>
