<svg width="874.499" height="874.499" viewBox="75.392 74.926 874.499 874.499" fill="none" xmlns="http://www.w3.org/2000/svg">
<g clip-path="url(#clip0_15507_17999)">
<path d="M0 0H1024V1024H0V0Z" fill="#f5f5f5"/>
<path d="M516.635 75.0289C516.98 75.0089 517.32 74.9954 517.665 74.9884C521.5 74.9259 523.785 76.2869 526.42 79.0374C532.35 85.2189 537.905 91.7749 543.53 98.2359C558.06 114.888 572.92 131.133 587.02 148.161C592.74 155.067 590.78 161.457 591.12 169.863C591.28 173.76 591.105 177.842 591.095 181.757L591.065 232.74C622.765 232.597 654.465 232.631 686.165 232.844C701.08 232.894 716.11 232.77 731.045 233.183C750.09 233.709 761.325 237.196 761.5 258.928C761.59 269.669 761.615 280.992 761.6 291.829L761.61 350.328L761.74 389.813C761.765 402.318 763.74 420.873 754.86 430.388C749.83 435.774 740.5 436.207 733.54 436.301C686.115 436.938 638.62 436.007 591.2 436.501C590.915 449.756 590.96 463.016 591.32 476.268C610.485 476.776 740.095 474.558 747.73 477.93C756.43 481.772 770.065 496.218 777.7 503.15L807.195 529.85L831.92 552.49C837.565 557.615 843.895 562.935 848.775 568.74C853.95 575.26 850.29 582.86 845.015 587.745C833.485 598.435 821.895 608.96 810.38 619.615L778.545 648.675C774.54 652.365 752.905 673.115 749.91 673.565C728.875 676.71 701.54 675.515 680.225 675.52L591.205 675.53L591.21 854.305L591.15 911.25C591.115 921 591.195 930.895 590.855 940.535C590.645 946.505 587.16 948.435 581.805 948.7C573.275 949.125 564.12 949.01 555.615 949.07C539.12 949.315 522.62 949.425 506.125 949.41C490.99 949.405 475.855 949.425 460.722 949.38C453.549 949.36 446.037 947.465 445.77 938.965C445.431 928.165 445.544 917.335 445.537 906.53L445.551 843.705C445.616 788.145 444.944 730.985 445.881 675.57L346.461 675.5L317.353 675.47C295.138 675.38 275.779 677.13 275.625 647.88C275.456 615.625 275.495 583.35 275.493 551.095L275.506 517.815C275.533 491.252 273.973 475.109 306.735 476.323C308.907 476.403 311.713 476.304 313.96 476.297L343.23 476.249L445.976 476.125C445.479 463.629 445.555 449.032 445.824 436.52L336.506 436.376C322.917 436.352 296.818 437.285 283.36 435.11C279.723 434.523 263.624 420.191 259.286 416.554L221.578 384.851C212.159 376.981 202.785 369.057 193.455 361.081C188.103 356.562 182.276 352.238 177.326 347.282C174.332 344.285 171.333 340.621 171.415 336.186C171.514 330.801 174.419 327.667 178.07 324.126C190.695 311.881 204.7 300.852 217.941 289.268C226.99 281.352 275.042 237.755 281.551 235.002C284.587 233.718 287.918 233.205 291.189 232.976C307.965 231.802 326.164 232.798 343.122 232.744C377.302 232.634 411.54 232.369 445.717 232.696C445.606 221.695 444.455 157.248 446.952 152.383C450.7 145.084 467.869 126.967 474.13 119.752C485.17 107.029 497.854 90.9664 509.675 79.5969C511.845 77.5054 513.76 76.0794 516.635 75.0289Z" fill="#000000"/>
<path d="M293.621 248.262C313.378 247.34 338.325 248.024 358.604 248.021L480.249 248.033L627.59 248.023C657.27 248.015 688.96 247.568 718.55 248.467C719.24 264.147 718.965 280.985 718.975 296.752L719.025 373.944C712.765 374.017 682.52 371.643 692.355 385.65C694.65 388.922 714.22 388.085 719.07 388.393L718.995 420.147C710.165 420.706 699.375 420.465 690.44 420.474L642.75 420.501L410.862 420.493L334.686 420.515C321.243 420.518 307.728 420.584 294.287 420.436C292.079 420.25 289.284 420.541 287.411 419.181C280.774 414.363 274.507 408.833 268.253 403.529L238.778 378.503C223.773 365.805 202.53 349.193 188.798 335.926C192.45 332.015 202.875 323.392 207.217 319.585C219.994 308.225 232.884 296.991 245.883 285.886C259.25 274.316 272.452 261.935 286.333 250.911C288.277 249.368 291.189 248.601 293.621 248.262Z" fill="#ffffff"/>
<path d="M296.868 492.595C312.442 491.89 332.1 492.441 347.924 492.442L443.234 492.429L709.535 492.539C714.285 495.676 724.82 507.455 729.28 512.195L760.225 545.09C766.92 552.205 783.945 569 789.035 575.96C782.355 584.31 772.53 594.035 765.01 602.005L732.19 637.175C725.92 644 718.69 652.615 711.385 658.195C708.27 660.57 693.67 659.915 689.465 659.91H660.25L558.73 659.965L394.703 659.905C364.922 659.91 335.135 660.035 305.357 659.76C301.088 659.72 292.098 659.63 291.759 653.46C291.144 642.275 291.539 630.795 291.54 619.56L291.624 539.535C295.805 539.57 315.101 540.69 317.51 537.035C327.082 522.5 298.903 525.905 291.628 525.895C291.517 516.95 290.616 505.11 292.534 496.341C292.982 494.297 295.056 493.347 296.868 492.595Z" fill="#ffffff"/>
<path d="M461.285 675.475L540.925 675.595C540.9 681.54 541.155 689.29 540.93 695.035C541.245 704.355 540.92 715.275 540.93 724.72L540.985 784.66C541.01 834.015 541.415 884.545 540.755 933.81C531.875 933.125 516.465 933.68 507.195 933.7C492.084 933.73 476.334 933.585 461.317 933.97C461.05 925.77 461.325 915.915 461.32 907.59L461.304 852.72L461.372 690.405L461.285 675.475Z" fill="#979797"/>
<path d="M461.286 675.475L540.925 675.595C540.9 681.54 541.155 689.29 540.93 695.035C540.69 693.38 540.71 691.435 539.78 690.36C532.545 689.755 520.195 690.265 512.34 690.33C495.35 690.47 478.361 690.495 461.373 690.405L461.286 675.475Z" fill="#6f6f6f"/>
<path d="M514.315 97.3916C518.015 101.259 534.465 142.811 537.62 150.551C529.125 150.487 499.157 149.018 493.283 152.531C491.917 153.347 490.727 154.579 490.486 156.218C490.313 157.396 490.934 158.556 491.699 159.407C492.469 160.263 493.356 160.74 494.476 160.949C499.608 161.907 505.285 161.453 510.495 161.436C520.69 161.404 530.92 161.146 541.105 161.541C540.71 184.572 540.495 209.69 540.97 232.648L534.33 232.799C510.02 232.631 485.716 232.599 461.41 232.701C461.303 210.864 461.226 189.012 461.178 167.178C461.29 164.499 461.07 160.056 462.663 157.827C474.599 141.13 489.452 126.462 502.48 110.589C506.095 106.184 510.275 101.361 514.315 97.3916Z" fill="#979797"/>
<path d="M555.04 675.78C561.945 675.46 568.725 675.54 575.635 675.57C574.885 695.245 575.605 718.815 575.595 738.79L575.545 865.75L575.56 911.21C575.565 915.48 575.825 929.875 575.28 933.5L574.51 933.945C567.325 933.77 560.615 933.875 553.425 934.03C553.575 909.525 552.715 678.64 553.915 675.98L555.04 675.78Z" fill="#6f6f6f"/>
<path d="M461.43 436.201C487.791 436.368 514.51 436.156 540.795 436.576C540.93 441.255 541.015 445.936 541.055 450.618L540.99 476.014C516.79 477.102 485.854 476.163 461.317 476.062L461.314 450.743L461.43 436.201Z" fill="#979797"/>
<path d="M461.43 436.201C487.791 436.368 514.51 436.156 540.795 436.576C540.93 441.255 541.015 445.936 541.055 450.618C536.19 450.822 531.2 450.968 526.335 450.924C504.815 450.729 482.783 451.642 461.314 450.743L461.43 436.201Z" fill="#6f6f6f"/>
<path d="M732.375 248.485C735.045 248.546 737.91 248.486 740.54 248.937C742.02 249.191 744.275 249.922 744.955 251.392C746.515 254.772 746.35 396.554 745.66 411.517C745.55 413.879 745.34 415.978 744.35 418.163C740.445 420.428 737.015 420.106 732.45 420.312L732.375 248.485Z" fill="#6f6f6f"/>
<path d="M804.885 582.285C812.325 581.825 820.86 582.005 828.4 582.01C808.91 600.795 787.81 618.49 768.07 637.07C761.515 643.245 754.685 650.205 747.825 655.93C741.63 660.08 736.585 659.875 729.495 659.6C730.52 658.3 731.575 657.015 732.65 655.755C747.85 637.815 783.845 601.38 801.74 582.55C802.95 582.45 804 582.36 804.885 582.285Z" fill="#6f6f6f"/>
<path d="M553.49 161.058C560.855 161.149 568.22 161.288 575.585 161.476L575.57 208.109C575.57 215.177 575.905 225.793 575.44 232.584L553.38 232.834C553.85 209.282 553.505 184.677 553.49 161.058Z" fill="#6f6f6f"/>
<path d="M728.79 492.417C746.645 492.244 746.245 495.419 758.715 506.84L784.185 530.18C794.585 539.475 804.845 548.92 814.97 558.51C817.05 560.445 825.03 567.375 826.24 568.89C817.87 569.185 809.495 569.39 801.115 569.5C778.305 544.115 752.485 516.97 728.79 492.417Z" fill="#6f6f6f"/>
<path d="M553.015 436.446C560.53 436.27 568.05 436.271 575.565 436.449C575.395 449.443 575.625 462.939 575.685 475.956C568 476.111 561.025 476.169 553.345 475.951C553.445 463.019 553.79 449.274 553.015 436.446Z" fill="#6f6f6f"/>
<path d="M532.365 109.415C536.575 113.034 545.42 123.653 549.35 128.263C555.345 135.285 562.965 143.617 568.475 150.85C563.405 150.468 555.725 150.583 550.455 150.51C545.48 137.615 536.44 121.161 532.365 109.415Z" fill="#6f6f6f"/>
</g>
<defs>
<clipPath id="clip0_15507_17999">
<rect width="1024" height="1024" fill="#ffffff"/>
</clipPath>
</defs>
</svg>
