<svg width="1024" height="1024" viewBox="0 0 1024 1024" fill="none" xmlns="http://www.w3.org/2000/svg">
<g clip-path="url(#clip0_15505_17731)">
<path d="M0 0H1024V35.6096V868.6V1024H0V987.375V155.476V0Z" fill="#000000"/>
<path d="M0 0H1024V35.6096C1020.56 28.0185 1017.01 22.8619 1008.73 19.4461C1005.41 18.0791 1000.42 17.7551 996.99 18.7792C983.605 22.7727 969.925 27.862 956.825 32.6408L905.11 50.9695L749.615 106.34L699.78 124.107C689.01 128.01 676.745 132.782 665.91 136.245L424.031 43.2246L386.37 28.7542C377.419 25.2888 364.927 19.7124 355.553 18.1278C353.241 17.7368 348.144 19.3291 345.711 20.18C315.58 30.7178 285.443 41.4864 255.385 52.236L128.063 97.4905L52.6865 124.274C40.1576 128.725 26.9152 133.201 14.5814 138.16C6.39795 141.449 2.99293 147.7 0 155.476V0Z" fill="#ffffff"/>
<path d="M1024 868.6V1024H0V987.375C0.18428 988.01 0.373742 988.64 0.56837 989.275C4.05169 1000.55 15.3895 1009.94 27.6276 1006.8C37.946 1004.15 48.7837 999.74 58.869 996.11L117.139 975.245L283.386 915.95C306.52 907.795 331.807 897.97 354.992 890.63C379.881 899.34 406.643 910.075 431.491 919.515L575.435 974.5L625.44 993.695C634.91 997.335 654.705 1005.76 663.795 1007.06C669.535 1007.89 698.96 996.235 705.995 993.7L767.23 971.88L998.62 889.2C1012.74 884.135 1017.26 882.87 1024 868.6Z" fill="#ffffff"/>
<path d="M497.831 183.446C549.39 202.703 600.55 223.374 651.98 242.897L651.94 382.18C648.52 382.461 644.63 382.789 641.21 382.689C603.99 381.603 575.68 349.375 565.555 316.013C563.05 307.521 561.4 298.801 560.63 289.981C559.89 281.452 561.215 268.343 548.655 268.537C538.28 269.178 537.755 278.668 538.13 286.41C541.065 347.092 586.02 409.319 652.065 404.59C651.455 441.208 652.005 479.442 652.025 516.2L652.015 708.76C644.56 706.37 641.68 704.18 638.71 696.73C634.205 685.455 618.775 691.14 618.53 699.705C617.985 718.395 635.42 728.385 651.99 730.69L652.015 791.38C643.96 790.98 636.24 790.485 628.455 788.15C568.965 770.305 544.12 705.32 513.93 658.75C506.705 647.625 498.567 637.12 489.595 627.345C474.662 611.125 457.398 598.015 436.317 590.34C426.632 586.28 410.584 582.47 410.173 598.245C409.904 608.615 425.488 609.295 432.404 612.17C478.495 631.35 501.31 678.955 524.89 719.635C538.21 742.62 552.975 762.505 572.375 780.605C598.04 802.97 618.665 811.35 652.015 813.47L652.035 893.095L523.2 843.84C507.89 773.635 457.372 660.405 374.979 647.365C372.581 646.985 369.726 646.78 367.279 646.54C368.016 621.39 367.457 593.62 367.448 568.285L367.307 447.774C464.474 460.279 431.643 518.125 482.859 577.65C509.055 608.095 559.68 622.33 591.815 592.115C602.985 581.68 609.53 567.22 610.005 551.945C610.36 540.03 607.79 531.465 601.905 521.315C588.995 499.052 564.82 491.524 550.94 470.845C545.125 462.177 542.2 452.486 539.23 442.592C533.125 422.271 525.945 406.403 511.115 390.852C481.498 359.787 445.033 355.407 404.751 353.518C392.329 352.889 379.901 352.404 367.469 352.062L367.339 300.465C408.495 302.884 452.189 299.689 479.905 264.708C499.11 240.469 500.975 212.96 497.831 183.446Z" fill="#ffffff"/>
<path d="M920.755 155.948L921.715 156.189C922.19 158.194 921.945 175.066 921.945 178.212L921.985 234.032C914.48 235.588 906.765 238.917 899.65 241.726C826.995 270.404 761.885 338.423 751.12 417.883C744.535 464.117 756.86 511.055 785.31 548.09C818.07 590.695 868.915 618.46 921.985 625.375L922 805.71C908.75 810.1 894.25 815.7 880.87 820.405L747.665 867.695C724.425 875.99 699.84 885.24 676.545 892.955L676.575 874.25L676.56 812.115C704.81 807.205 736.265 796.41 762.32 784.65C785.85 774.035 808.31 758.485 817.135 733.18C822.31 718.335 822.18 700.7 815.26 686.34C808.94 673.385 797.765 663.44 784.165 658.67C756.92 649.195 730.26 661.46 709.85 679.29C699.745 688.125 688.46 699.04 676.51 704.77L676.55 398.21C683.8 395.381 692.82 389.524 698.785 384.6C746.68 345.058 766.415 267.685 772.485 208.882L920.755 155.948Z" fill="#ffffff"/>
<path d="M177.974 190.141C178.111 190.362 174.72 263.108 174.548 269.953C171.993 371.928 238.126 446.978 342.771 446.987C342.422 461.839 342.725 477.711 342.769 492.642L342.762 555.63C342.82 586.435 342.104 619.115 342.834 649.725C332.29 652.885 322.468 658.085 313.923 665.03C273.309 697.64 251.225 769.555 245.906 819.46C232.636 823.255 215.814 829.97 202.503 834.64L110.131 867.295C107.527 868.325 104.665 869.23 102 870.135L101.939 778.17C178.469 758.695 251.622 697.725 261.101 615.76C266.105 572.49 254.898 531.485 227.172 497.652C196.847 460.646 149.443 434.547 101.952 429.198L102.019 217.336C118.849 211.545 135.49 205.374 152.275 199.465C160.887 196.434 169.471 193.48 177.974 190.141Z" fill="#ffffff"/>
<path d="M991.046 62L991.746 62.2605C992.178 64.2223 991.853 73.4692 991.853 76.133L991.888 109.639L991.914 256.545L992 853.333C964.894 862.132 936.235 872.941 909.216 882.341L677.046 964L677.051 917.293L909.474 835.699C916.541 833.164 923.628 830.684 930.731 828.25C950.349 821.485 950.415 821.515 950.42 801.131V778.158L950.4 702.218L950.42 265.992L950.41 177.99C950.41 165.425 951.14 148.403 949.644 136.362C947.518 119.272 914.395 135.45 905.436 138.586L846.48 159.378L677.056 218.807L677 172.563C691.083 168.355 709.342 161.407 723.455 156.428L813.875 124.445L926.074 84.9949C946.985 77.6664 970.672 69.8829 991.046 62Z" fill="#aeaeae"/>
<path d="M342.073 61.0166L342.412 61.2531C343.044 62.7476 342.62 102.439 342.902 107.978C325.924 113.151 304.112 121.43 287.137 127.444L185.717 163.373L116.238 188.127C106.243 191.716 95.7842 195.254 85.8527 199.06C83.3862 200.006 80.8252 202.401 79.6027 204.82C78.7872 206.439 78.3012 208.203 78.1727 210.011C77.4397 221.11 78.0242 239.507 78.0247 250.947L78.0417 330.396V758.95L78.0307 846.82C78.0327 854.125 77.0282 884.84 78.8117 889.895C79.8852 892.935 82.3187 895.615 85.2622 896.92C87.8837 898.08 90.2222 898.32 92.9922 897.645C100.117 895.91 107.194 892.675 114.13 890.24L167.152 871.295L342.845 808.83C342.346 823.66 342.76 839.915 342.771 854.89C328.599 859.53 314.248 865.145 300.081 870.02C258.625 884.225 216.523 899.67 175.21 914.45L37.1948 963.86L37.1152 169.908C47.7537 167.092 67.0187 159.48 77.9122 155.541L152.046 128.889L291.952 79.1061C308.777 73.0481 325.329 67.3781 342.073 61.0166Z" fill="#aeaeae"/>
<path d="M921.18 257.494L921.865 257.784C922.325 262.32 921.99 274.478 921.985 279.384L921.99 322.201C876.535 333.625 834.45 374.979 827.255 422.054C822.94 448.977 829.695 476.5 845.985 498.364C864.93 523.835 890.91 537.7 921.905 542.17C922.035 562.38 922.05 582.59 921.96 602.8C905.37 600.17 895.385 597.36 879.675 591.53C875.67 589.95 871.705 588.265 867.785 586.475C784.585 548.56 747.945 457.165 786.87 373.796C808.97 326.465 848.065 290.617 894.875 268.085C903.545 263.911 912.185 260.813 921.18 257.494Z" fill="#f3f3f3"/>
<path d="M102.108 451.562C111.65 452.928 121.071 455.037 130.284 457.873C207.528 481.821 260.257 557.65 233.866 638.8C218.947 684.67 184.328 717.615 142.207 739.12C131.158 744.805 113.779 751.5 101.979 755.005L101.965 690.61C116.634 688.045 130.567 682.31 142.79 673.8C185.704 643.96 198.222 589.21 162.941 548.355C146.497 529.31 126.607 518.825 102.021 514.52L102.108 451.562Z" fill="#f3f3f3"/>
<path d="M367.359 374.482C423.83 378.064 486.555 369.118 513.73 434.646C521.38 453.083 522.855 470.865 536.28 487.566C546.145 500.175 559.725 508.765 571.85 519.13C590.8 535.325 594.375 556.87 577.205 576.025L576.72 576.45C557.98 592.8 530.07 588.365 511.295 574.605C493.094 561.265 481.831 540.925 474.244 520.11C466.772 499.613 461.872 478.139 447.065 461.364C427.109 438.271 397.173 427.831 367.452 425.775L367.359 374.482Z" fill="#f3f3f3"/>
<path d="M278.429 154.558C280.283 164.428 260.707 210.793 256.259 223.041C230.496 293.99 265.91 360.496 342.634 372.467C342.938 389.754 342.712 407.645 342.661 424.98C326.076 425.12 313.385 423.793 297.324 419.655C273.464 412.184 254.061 401.814 236.41 383.778C180.327 326.473 199.496 252.852 200.471 182.366C226.262 173.829 252.685 163.41 278.429 154.558Z" fill="#f3f3f3"/>
<path d="M367.474 61.6504C380.275 67.1504 395.163 72.4024 408.262 77.4234L491.499 109.346L599.18 150.681C616.185 157.144 634.965 164.864 651.97 170.637C652.14 186.424 652.035 202.722 651.94 218.51C641.495 214.798 630.41 210.216 620.01 206.198L565.945 185.467L367.391 108.989C367.608 93.3374 367.456 77.3304 367.474 61.6504Z" fill="#aeaeae"/>
<path d="M367.377 808.65L652.005 917.22L651.99 963.855C557.34 927.09 462.501 890.81 367.482 855.005C367.559 839.555 367.524 824.105 367.377 808.65Z" fill="#aeaeae"/>
<path d="M367.386 133.129C380.569 138.5 395.116 143.741 408.541 148.872L474.335 174.126C478.924 205.706 481.197 233.708 456.534 258.193C431.593 280.665 398.422 279.313 367.398 278.422L367.386 133.129Z" fill="#f3f3f3"/>
<path d="M342.111 132.009C342.224 132.052 342.885 132.259 342.882 132.723C342.567 179.032 342.683 313.412 342.697 350.481C322.372 346.181 310.417 341.086 294.355 327.403C291.993 325.306 289.791 323.034 287.769 320.607C279.145 310.588 273.382 298.43 271.086 285.412C264.402 248.855 282.531 218.484 293.778 185.352C298.187 172.364 300.422 160.1 301.589 146.448C314.26 142.476 329.56 136.653 342.111 132.009Z" fill="#ffffff"/>
<path d="M367.451 668.86C435.282 673.03 484.626 777.11 498.661 834.35C454.877 818.54 411.131 800.46 367.339 784.67C368.2 747.125 367.474 706.68 367.451 668.86Z" fill="#f3f3f3"/>
<path d="M921.44 345.578C922.365 346.632 922 503.395 922.01 519.755C902.525 516.72 886.785 509.78 872.5 495.826C863.635 487.187 856.975 477.428 852.69 465.762C845.255 444.987 846.42 422.106 855.92 402.192C868.795 375.041 893.51 355.604 921.44 345.578Z" fill="#ffffff"/>
<path d="M761.725 677.68C768.07 676.965 775.315 678.2 781.04 681.015C788.75 684.815 794.6 691.56 797.28 699.73C800.765 710.035 799.225 721.995 794.29 731.49C780.1 758.79 735.415 772.385 707.76 781.53C697.075 784.885 687.65 787.61 676.55 789.375L676.505 728.285C712.33 717.55 724.155 682.035 761.725 677.68Z" fill="#ffffff"/>
<path d="M748.275 217.472L749.105 217.542C749.635 219.735 746.965 234.273 746.41 237.453C739.09 279.324 723.91 327.092 694.645 358.924C689.69 364.316 683.645 368.848 677.73 373.025L677.1 373.14C676.91 372.941 676.72 372.742 676.535 372.542C676.565 335.962 676.59 277.627 676.505 242.959C683.665 240.867 693.555 237.029 700.73 234.457C716.55 228.709 732.395 223.047 748.275 217.472Z" fill="#ffffff"/>
<path d="M342.442 673.045C343.149 674.38 342.52 774.775 342.786 784.955C319.661 792.66 293.128 801.975 270.335 810.52L269.969 810.39C267.787 805.52 280.748 760.185 283.757 752.415C295.717 721.515 310.94 687.775 342.442 673.045Z" fill="#f3f3f3"/>
<path d="M101.95 536.805C117.489 540.565 129.644 545.465 141.298 556.86C169.617 584.54 167.666 620.035 140.81 647.41C129.266 658.27 117.424 664.565 101.943 667.94C102.47 624.69 102.134 580.115 101.95 536.805Z" fill="#ffffff"/>
</g>
<defs>
<clipPath id="clip0_15505_17731">
<rect width="1024" height="1024" fill="#ffffff"/>
</clipPath>
</defs>
</svg>
