<svg width="1024" height="1024" viewBox="0 0 1024 1024" fill="none" xmlns="http://www.w3.org/2000/svg">
<path d="M446.115 233.103C446.908 219.839 444.237 157.512 447.894 151.807C448.015 151.619 448.147 151.438 448.271 151.252C455.414 140.523 467.043 128.687 475.663 118.75C486.863 105.839 498.337 91.2259 510.56 79.3974C511.99 78.0099 513.365 76.8459 515.305 76.2499C517.675 75.5199 520.445 75.5774 522.605 76.8894C527.81 80.0474 581.25 141.422 587.08 149.061C588.63 151.095 589.58 152.938 590.225 155.414C588.56 160.516 589.075 213.873 590.195 221.5L590.45 221.827L590.595 233.054C601.3 233.417 612.51 233.083 623.275 233.12L696.285 233.316C711.61 233.377 726.795 232.872 742.03 234.625C764.55 237.216 761.055 259.224 761.07 276.107V313.386L761.11 371.98C761.135 384.099 761.215 396.195 760.98 408.317C760.685 423.404 756.82 434.555 739.65 435.288C690.185 437.4 640.25 434.941 590.755 436.079C590.03 448.508 590.63 463.934 590.86 476.555L684.26 476.546C700.515 476.572 731.455 475.388 747.99 478.71C751.245 479.364 765.27 492.617 768.53 495.591L795.725 520.515L830.915 552.465C835.47 556.645 840.215 560.705 844.66 564.975C847.395 567.595 850.47 571.02 850.4 575.005C850.395 580.905 847.415 584.39 843.37 588.22C835.195 595.965 826.73 603.45 818.42 611.06L779.915 646.425C772.975 652.72 756.765 669.585 749.09 673.18C741.445 676.76 611.35 674.745 590.675 675.085C590.64 680.105 590.565 685.13 590.455 690.15C588.8 693.305 589.32 748.675 589.31 756.59L589.28 870.385L589.295 914.96C589.3 921.47 588.86 935.55 590.185 941.17C589.03 946.74 584.58 948.39 579.29 948.375C556.715 948.31 533.875 948.96 511.32 948.965L478.571 948.95C472.269 948.94 465.541 949.205 459.309 948.645C451.313 947.925 446.838 946.85 446.432 937.995C445.985 928.24 446.094 918.7 446.093 909L446.116 858.69C446.075 797.75 446.855 735.925 446.297 675.09C434.778 674.745 421.728 675.035 410.112 675.03L342.382 675.02C326.276 675.03 309.087 675.745 293.134 673.575C289.448 673.075 284.2 669.875 281.678 667.165C275.814 660.875 276.411 649.845 276.097 641.815C275.942 599.695 276.189 557.525 276.012 515.41C276.035 500.03 274.186 479.078 295.099 477.349C311.69 475.977 328.819 476.515 345.522 476.516L446.437 476.515C446.3 463.037 446.292 449.558 446.414 436.079C434.306 435.506 418.447 435.969 406.113 435.968L328.144 435.964C313.968 435.951 297.88 436.616 283.998 434.742C280.64 434.289 265.443 420.747 262.181 418.023C250.692 408.493 239.257 398.899 227.876 389.241L194.801 361.348C188.809 356.286 182.757 351.33 176.927 346.084C170.687 340.468 170.397 332.179 176.493 326.304C180.933 322.026 185.618 318.033 190.26 313.961C199.473 305.868 208.731 297.827 218.035 289.839L260.538 252.776C263.784 249.972 279.817 235.119 283.394 234.625C302.331 232.012 323.381 233.345 342.668 233.172C377.11 232.861 411.679 233.694 446.115 233.103Z" fill="black"/>
<path d="M294.207 248.24C312.88 247.312 337.945 248.023 357.208 248.019L477.69 248.032L626.895 248.022C656.77 248.014 688.76 247.547 718.545 248.472C719.245 264.099 718.965 280.9 718.975 296.616L719.025 373.944C712.765 374.017 682.52 371.643 692.355 385.65C694.65 388.922 714.22 388.085 719.07 388.395L718.99 420.147C710.135 420.727 699.2 420.467 690.215 420.475L642.25 420.5L409.894 420.493L334.154 420.515C320.888 420.518 307.551 420.584 294.288 420.436C292.081 420.251 289.282 420.538 287.41 419.181C280.772 414.366 274.507 408.833 268.253 403.529L239.316 378.96C224.115 366.092 202.73 349.367 188.802 335.928C192.434 332.037 202.798 323.467 207.124 319.675C219.648 308.581 232.254 297.58 244.942 286.674C257.175 276.037 269.128 265.118 281.595 254.751C286.226 250.901 287.836 248.988 294.207 248.24Z" fill="white"/>
<path d="M296.837 492.626C313.09 491.865 333.155 492.444 349.858 492.455L445.374 492.43L709.535 492.549C714.245 495.628 724.855 507.49 729.28 512.195L760.225 545.09C766.885 552.17 783.985 569.055 789.035 575.96C782.35 584.31 772.53 594.035 765.01 602.005L732.19 637.175C728.01 641.76 713.94 658.26 708.805 659.27C704.035 660.205 688.01 659.875 682.33 659.885L640.68 659.95L511.635 659.94L377.4 659.9C351.976 659.91 326.513 660.11 301.099 659.59C297.259 659.51 291.947 657.815 291.731 653.21C291.188 641.67 291.543 629.945 291.543 618.36L291.627 539.535C295.811 539.565 315.101 540.69 317.51 537.035C327.085 522.49 298.865 525.9 291.632 525.895C291.519 516.955 290.611 505.1 292.55 496.335C293.007 494.271 295.026 493.401 296.837 492.626Z" fill="white"/>
<path d="M461.3 675.475L540.925 675.595C540.9 681.54 541.155 689.29 540.93 695.035C541.245 704.35 540.92 715.265 540.93 724.695L540.985 785.985C541.005 834.865 541.44 885.035 540.75 933.81C530.045 933.11 514.845 933.715 503.94 933.725C489.904 933.745 475.269 933.595 461.324 933.97C461.068 925.79 461.331 916 461.326 907.715L461.31 852.91L461.378 690.41L461.3 675.475Z" fill="#989797"/>
<path d="M461.3 675.475L540.925 675.595C540.9 681.54 541.155 689.29 540.93 695.035C540.69 693.385 540.705 691.435 539.78 690.355C532.32 689.755 519.795 690.27 511.715 690.335C494.937 690.465 478.158 690.49 461.378 690.41L461.3 675.475Z" fill="#6F6F6F"/>
<path d="M514.315 97.3911C517.8 100.905 534.52 142.935 537.62 150.551C529.125 150.487 499.158 149.018 493.283 152.531C491.917 153.347 490.727 154.578 490.486 156.217C490.313 157.395 490.934 158.556 491.699 159.407C492.469 160.263 493.356 160.74 494.475 160.949C499.608 161.907 505.285 161.453 510.495 161.436C520.69 161.404 530.92 161.146 541.105 161.541C540.715 184.589 540.495 209.673 540.97 232.648L534.34 232.799C510.035 232.635 485.728 232.605 461.421 232.706C461.097 210.921 461.402 188.893 461.195 167.082C461.301 164.541 461.12 160.037 462.6 157.943C473.724 142.215 487.669 128.385 499.961 113.542C504.405 108.178 509.385 102.237 514.315 97.3911Z" fill="#989797"/>
<path d="M555.035 675.78C561.9 675.445 568.755 675.54 575.63 675.57C575.06 695.67 575.6 717.495 575.585 737.75L575.545 864.075L575.56 911.25C575.56 915.75 575.835 929.785 575.28 933.5L574.51 933.945C567.315 933.765 560.625 933.875 553.425 934.03C553.575 909.47 552.715 678.645 553.915 675.98L555.035 675.78Z" fill="#6F6F6F"/>
<path d="M461.435 436.202C487.793 436.367 514.51 436.155 540.79 436.575C540.93 441.255 541.02 445.936 541.055 450.618L540.985 476.013C516.53 477.024 486.159 476.232 461.328 476.068L461.322 450.755L461.435 436.202Z" fill="#989797"/>
<path d="M461.435 436.202C487.793 436.367 514.51 436.155 540.79 436.575C540.93 441.255 541.02 445.936 541.055 450.618C536.495 450.808 531.855 450.945 527.29 450.915C505.425 450.772 483.151 451.579 461.322 450.755L461.435 436.202Z" fill="#6F6F6F"/>
<path d="M732.38 248.488C734.94 248.545 744.605 248.363 744.94 251.598C746.6 267.494 745.735 284.993 745.795 301L745.87 371.46C745.87 378.866 746.685 413.035 744.34 418.157C740.45 420.435 737.01 420.112 732.455 420.319L732.38 248.488Z" fill="#6F6F6F"/>
<path d="M804.885 582.285C812.32 581.825 820.86 582.01 828.4 582.01C808.73 600.96 787.47 618.79 767.56 637.55C761.175 643.57 754.53 650.335 747.84 655.92C741.645 660.08 736.615 659.85 729.485 659.63C730.385 658.47 731.315 657.33 732.265 656.205C747.455 638.195 783.8 601.45 801.74 582.55C802.95 582.45 804 582.36 804.885 582.285Z" fill="#6F6F6F"/>
<path d="M553.49 161.058C560.855 161.145 568.22 161.286 575.58 161.48L575.565 207.733C575.565 215.089 575.89 225.425 575.44 232.579L553.38 232.834C553.85 209.277 553.505 184.681 553.49 161.058Z" fill="#6F6F6F"/>
<path d="M728.795 492.428C746.815 492.266 746.465 495.621 759.19 507.27L784.775 530.71C795.135 539.98 805.36 549.395 815.455 558.955C817.61 560.97 824.935 567.265 826.24 568.89C817.865 569.185 809.495 569.39 801.12 569.5C778.27 544.085 752.52 517.025 728.795 492.428Z" fill="#6F6F6F"/>
<path d="M553.015 436.447C560.53 436.27 568.045 436.271 575.56 436.449C575.445 449.544 575.615 462.859 575.68 475.962C568 476.113 561.015 476.168 553.345 475.952C553.535 463.36 553.78 448.836 553.015 436.447Z" fill="#6F6F6F"/>
<path d="M532.395 109.419C537.08 113.602 545.17 123.376 549.54 128.472C555.495 135.415 563.015 143.679 568.475 150.847C563.425 150.465 555.715 150.582 550.46 150.51C545.54 137.876 536.135 120.641 532.395 109.419Z" fill="#6F6F6F"/>
<path d="M590.185 941.17C588.86 935.55 589.3 921.47 589.295 914.96L589.28 870.385L589.31 756.59C589.32 748.675 588.8 693.305 590.455 690.15C591.015 708.81 590.575 729.495 590.58 748.315L590.61 857.345L590.54 914.175C590.53 919.42 590.86 936.885 590.185 941.17Z" fill="black" fill-opacity="0.968627"/>
<path d="M590.225 155.414C591.205 165.714 590.38 182.788 590.56 193.822C590.665 199.902 590.935 216.67 590.45 221.827L590.195 221.5C589.075 213.874 588.56 160.517 590.225 155.414Z" fill="black" fill-opacity="0.964706"/>
</svg>
