<svg width="117" height="117" viewBox="0 0 117 117" fill="none" xmlns="http://www.w3.org/2000/svg">
<g clip-path="url(#clip0_15479_17749)">
<path d="M55.3071 0H61.2372L61.315 0.062423C62.0492 0.639167 63.1428 1.02371 63.9013 1.53292C64.4682 1.91349 65.3381 2.73194 65.8487 3.19034C67.9007 5.03231 68.7792 6.51856 69.1435 9.24581C69.6881 13.3237 68.5307 15.5632 66.4784 18.9077C76.1253 20.6067 84.975 25.2815 92.1761 31.8683C93.5897 33.1614 94.6957 34.9593 95.9819 36.3301C101.926 42.6644 105.111 51.0842 106.633 59.5251C106.968 61.3844 107.165 63.4381 107.165 65.3415C107.165 67.1005 107.147 68.8594 107.112 70.6181C106.926 72.8982 106.783 75.0111 106.298 77.2623C104.949 83.5229 102.571 89.2534 99.2295 94.7009C98.6018 95.7241 97.625 96.6787 96.9341 97.669C94.9934 100.694 92.7361 102.846 89.9851 105.182C85.4826 109.029 80.3446 112.062 74.8015 114.145C73.2724 114.705 71.3076 115.095 69.7835 115.684C68.7628 116.079 66.1169 115.87 65.8783 117H65.3152H50.6552H50.0894C50.0364 116.67 49.5115 116.328 49.1944 116.046C44.5293 115.335 37.1925 112.383 33.1789 109.977C30.4623 108.328 27.9037 106.432 25.5356 104.313C19.2711 98.7442 14.3229 90.7543 11.5891 82.8343C10.3515 79.2488 9.50634 74.0675 8.98217 70.2472C8.69536 68.1568 9.07249 65.0825 9.25035 62.9978C9.38014 61.8755 9.85606 60.6696 10.0059 59.5737C12.5102 41.262 27.1348 24.9682 44.918 20.1712C46.8501 19.6501 48.6669 19.0411 50.71 18.9383C49.8932 17.9464 49.076 17.0154 48.5233 15.8758C46.4442 11.5891 47.0822 6.79091 50.4308 3.36519C51.3143 2.46138 55.1059 0.367187 55.3071 0ZM63.6751 10.7059L63.8891 11.1219C63.961 11.6625 63.9906 12.3026 64.5864 12.4263C65.1833 12.0069 65.0604 11.106 64.8643 10.5027C64.7615 10.0974 64.6746 9.67459 64.585 9.26482C63.5308 5.02091 59.7846 3.85683 55.9166 4.91368C52.7025 5.79188 51.4229 9.05962 51.6632 12.1241C51.682 12.3492 51.9865 12.4726 52.1618 12.5759L52.3394 12.5016C53.0255 8.94756 56.1418 8.03258 59.3605 8.34953C61.0822 8.51907 62.5014 9.4931 63.6751 10.7059ZM58.3687 16.899L57.9004 18.0459C58.7833 18.1022 60.2446 18.2608 60.9918 17.8514C61.205 17.4489 61.138 17.5548 61.0668 17.0248L60.8197 16.8515C60.0032 16.8864 59.186 16.9023 58.3687 16.899ZM58.36 106.64C79.93 106.64 97.41 89.16 97.41 67.59C97.41 46.02 79.93 28.54 58.36 28.54C36.79 28.54 19.31 46.02 19.31 67.59C19.31 89.16 36.79 106.64 58.36 106.64Z" fill="black"/>
<path d="M50.6553 117.001C51.4162 116.329 52.5746 116.565 53.5624 116.491C56.4536 116.275 59.2573 116.338 62.1336 116.706C62.9596 116.811 64.749 116.498 65.3152 117.001H50.6553Z" fill="#202123"/>
<path d="M58.36 22.84C83.07 22.84 103.11 42.88 103.11 67.59C103.11 92.30 83.07 112.34 58.36 112.34C33.65 112.34 13.61 92.30 13.61 67.59C13.61 42.88 33.65 22.84 58.36 22.84ZM58.36 106.64C79.93 106.64 97.41 89.16 97.41 67.59C97.41 46.02 79.93 28.54 58.36 28.54C36.79 28.54 19.31 46.02 19.31 67.59C19.31 89.16 36.79 106.64 58.36 106.64Z" fill="#B1B1B1"/>
<path d="M58.36 28.54C79.93 28.54 97.41 46.02 97.41 67.59C97.41 89.16 79.93 106.64 58.36 106.64C36.79 106.64 19.31 89.16 19.31 67.59C19.31 46.02 36.79 28.54 58.36 28.54ZM31.6617 44.1406C27.763 49.8177 24.722 53.7202 23.6748 60.766C23.4156 62.5096 23.3087 64.2732 23.0546 66.0023C24.6468 66.064 28.7684 65.8457 29.8914 66.8548C30.2836 67.2072 30.0143 68.2697 29.971 68.9717C28.9192 69.0169 23.7862 68.9637 23.1862 69.1716C23.4204 75.7853 24.9425 82.4012 29.0348 87.7518C30.0914 89.1333 30.4167 90.1365 31.9191 91.221C33.6205 90.1075 35.3544 89.0106 36.4375 87.2204C36.887 86.4773 37.2578 85.6548 37.633 84.8686C40.9033 78.0174 45.5756 71.8617 48.7483 64.9326C50.6399 60.7874 54.219 59.0518 57.8942 56.7677C59.2881 55.9013 60.6726 54.969 62.0899 54.1352C63.1486 53.5265 64.2598 53.0155 65.3188 52.3914C69.0019 50.2259 72.5958 47.9119 76.0914 45.4551C76.7785 44.9687 78.3171 43.8705 79.1877 44.0992C80.4258 44.4245 80.3878 45.7915 80.0478 46.7789C78.5493 51.1294 75.8855 55.0273 73.7857 59.1041C72.5553 61.4933 71.1818 63.8244 69.8301 66.1448C68.1382 69.3029 66.2282 73.9245 62.9699 75.8501C60.2305 77.3275 57.5566 78.512 54.8721 80.1484C50.0855 83.0663 45.444 86.2567 40.4941 88.8877C39.2971 89.5239 34.2881 92.6887 33.9879 93.7575C35.4693 95.3931 38.5794 97.106 40.3837 98.3932C44.0086 100.979 48.8134 102.152 53.1382 102.954C54.134 103.139 55.6823 103.065 56.8011 103.203L56.7905 103.121C56.5702 101.34 56.8219 98.0156 57.0292 96.1949C58.4418 95.0253 58.6013 95.0293 59.9247 96.2817C60.36 97.988 60.1073 101.233 60.3937 103.134C60.769 103.415 61.4125 103.337 61.843 103.251C68.1751 101.992 74.0516 100.408 79.1532 96.2211C80.259 95.3136 81.4742 94.0907 82.65 93.2917C81.5028 92.4895 80.4193 91.5389 80.0722 90.115C79.9389 89.5684 79.936 88.4686 80.7174 88.4397C82.3592 88.3791 83.5149 90.0714 84.6848 91.0464C85.9661 89.8338 86.5963 88.5339 87.5944 87.1331C91.3881 81.8088 92.8339 76.0858 93.5767 69.5802C91.2254 68.9034 88.574 69.3503 86.3147 68.3229C85.7966 67.936 85.98 67.2407 86.3387 66.9033C87.5053 65.8058 89.5077 66.0233 91.0018 66.0314C91.9037 66.0363 92.7965 66.0744 93.7387 66.0291C93.4334 64.5669 93.3919 62.9414 93.0882 61.42C92.0163 56.0495 89.8142 50.7657 86.5506 46.3529C84.5905 43.9861 81.4782 40.433 78.9486 38.7043C75.2352 36.1667 68.6408 33.1543 64.3319 32.571C63.1815 32.3823 61.3682 32.2033 60.2132 32.1584C60.1197 32.3811 60.2801 34.018 60.3159 34.3958C60.2312 36.0643 60.61 37.8794 60.0573 39.5577C59.368 40.1656 57.8835 40.0863 57.1073 39.6578C56.7281 38.8147 56.6582 33.3107 56.9342 32.2766C55.0356 32.2877 52.287 32.731 50.3848 32.9894C49.1971 33.1659 48.0369 33.7957 46.932 34.148C43.2376 35.3256 39.7288 37.0266 36.673 39.4342C35.5209 40.342 34.5844 40.8787 33.7316 42.1593C34.9238 43.6815 36.7594 44.7883 37.8495 46.3628C37.7352 46.7744 37.032 47.8095 36.6106 47.9561C35.2921 47.7186 32.6906 45.1569 31.6617 44.1406ZM58.4682 64.1572C57.3986 64.2218 57.0646 64.3589 56.0431 64.7986C55.7124 65.3512 55.2884 65.9629 55.1922 66.5885L55.1786 66.6744C55.0046 67.8097 55.3963 69.176 55.8942 70.1953C56.5296 70.5815 57.4002 71.1709 58.162 71.0235C62.5408 70.6854 61.736 68.1202 61.4453 64.6983C60.2127 64.2364 59.7952 63.9918 58.4682 64.1572ZM44.0262 82.4467C45.551 81.1837 46.4381 80.9106 47.6749 79.9562C48.9335 79.4959 50.5235 78.7504 51.4541 77.7698C52.5239 77.6039 54.9397 75.9943 55.7655 75.1748C55.8288 75.112 56.1327 74.5509 56.1946 74.4316C54.6148 73.8753 53.8486 73.5984 52.7311 72.2294C52.2325 71.6186 51.1298 69.7048 50.4903 69.4901C50.279 71.1691 49.8313 70.7781 49.1568 72.1151C48.3345 73.7454 47.5351 75.3862 46.7031 77.0149C45.799 78.7847 44.3743 80.4843 44.0262 82.4467Z" fill="black"/>
<path d="M72.5025 52.918L72.6346 53.0748C72.15 54.7271 70.4296 57.4963 69.5346 59.0522C68.4247 60.9818 67.3051 62.8614 66.2909 64.8593C65.3393 63.9009 64.6555 63.0877 63.792 62.0535C62.5111 60.6386 62.0291 60.2144 60.3301 59.3654C63.5592 58.4204 65.5759 57.0432 68.4272 55.2641C69.977 54.2971 70.7624 53.6464 72.5025 52.918Z" fill="#717071"/>
<path d="M60.3161 34.3936C60.2804 34.0159 60.12 32.3789 60.2134 32.1562C61.3685 32.2012 63.1817 32.3802 64.3322 32.5688C62.9401 32.6204 61.8987 32.784 60.522 32.9534C60.273 33.4615 60.3943 33.8617 60.3161 34.3936Z" fill="black"/>
<path d="M58.2588 6.5587C58.6783 6.45776 59.439 6.42384 59.861 6.55188L59.9097 6.74222C59.3625 6.79176 58.6691 6.95099 58.2588 6.5587Z" fill="black"/>
<path d="M57.8998 18.0456C56.6004 18.1411 57.3494 17.23 56.1017 17.1957C55.9905 17.3709 55.9356 17.4422 55.8016 17.6006C55.5804 17.0575 55.6473 16.2069 55.6268 15.6242C55.5754 13.9746 56.6116 12.4791 58.3745 12.5619C60.3714 12.6554 61.0925 15.0607 60.9752 16.7339L60.819 16.8512C60.0026 16.8861 59.1854 16.902 58.3681 16.8986L57.8998 18.0456Z" fill="#B1B1B1"/>
<path d="M64.5848 9.26562C64.6743 9.67539 64.7612 10.0982 64.864 10.5035C64.8166 10.533 63.8944 11.1183 63.8888 11.1227L63.6748 10.7067L63.867 10.5845C64.0485 9.76747 64.469 10.3499 64.5848 9.26562Z" fill="black"/>
</g>
<defs>
<clipPath id="clip0_15479_17749">
<rect width="117" height="117" fill="white"/>
</clipPath>
</defs>
</svg>
