<svg width="1024" height="1024" viewBox="0 5.016 1024 1024" fill="none" xmlns="http://www.w3.org/2000/svg">
<path d="M0 155.468C4.23747 147.972 4.79338 142.369 14.5528 138.45C31.1905 131.769 48.501 125.96 65.404 119.957L157.524 87.2226L280.72 43.3815C303.083 35.4139 325.576 27.3954 348.012 19.6208C349.84 19.0888 353.644 18.0939 355.456 18.4646C369.245 21.2854 383.636 27.8933 396.785 32.9566L445.202 51.5911L665.85 136.505C675.635 133.553 687.155 128.956 696.905 125.401L744.595 108.326L914.95 47.6962L962.87 30.6447C970.98 27.7079 979.09 24.6864 987.27 21.9758C993.8 19.8124 1000.65 17.2322 1007.55 19.2383C1015.99 21.6902 1020.11 28.3852 1024 35.5532V868.655C1014.64 885.33 1010.21 884.94 993.045 891.06L966.605 900.46L878.79 931.815L738.125 982.06L702.115 994.97C691.955 998.71 681.855 1002.55 671.475 1005.7C666.205 1007.29 662.48 1006.9 657.255 1005.32C646.59 1002.1 635.94 997.625 625.54 993.56L578.125 975.295L437.489 921.59C410.728 911.355 382.073 899.605 355.06 890.535C329.433 897.975 296.812 910.99 271.061 920.175L109.512 977.77L58.0445 996.26C39.6949 1002.88 15.6293 1016.8 3.54556 995.075C2.20162 992.655 1.25465 989.985 0 987.875V155.468Z" fill="#000000"/>
<path d="M497.896 183.586C501.65 184.598 510.675 188.255 514.705 189.788L548.37 202.749L651.995 242.958L652 382.263C648.2 382.538 642.535 382.769 638.84 382.526C601.35 380.065 573.715 346.567 564.535 312.4C563.215 307.377 562.195 302.279 561.485 297.133C560.21 287.739 562.24 267.945 548.895 268.468C538.645 268.87 537.705 279.192 538.16 287.205C540.125 321.521 554.95 355.891 580.47 379.233C601.145 397.995 624.455 405.949 652 404.577L651.97 708.89C646.78 706.93 643.75 705.59 640.74 700.565C638.805 697.33 636.505 691.66 632.415 690.87C616.145 687.72 615.94 705.795 623.215 715.315C630.55 725.105 640.26 728.655 652 730.725L651.985 791.44C649.435 791.295 646.885 791.115 644.34 790.9C575.595 784.825 545.41 707.275 513.095 657.495C494.767 630.13 472.055 605 440.937 592.135C431.359 588.175 410.669 579.76 410.186 598.52C410.422 608.94 426.896 609.695 433.812 612.73C481.544 633.665 503.585 684.06 528.72 726.07C540.965 746.54 555.35 764.65 572.66 780.88C600.33 804.3 616.52 810.165 651.995 813.58L651.98 893.03C609.205 877.21 565.96 860.185 523.285 843.9C505.05 767.35 456.662 656.795 367.375 646.44C367.629 614.88 367.655 583.32 367.453 551.76C367.436 517.285 367.801 482.182 367.299 447.761C464.486 460.267 432.214 520.265 483.893 578.795C509.975 608.335 559.79 621.695 591.48 592.45C602.83 582.01 609.49 567.425 609.945 552.01C611.445 505.985 569.79 499.989 551.205 471.165C533.99 444.456 539.12 419.34 511.63 391.384C471.703 350.774 419.461 353.751 367.504 352.039L367.451 300.499C381.325 301.091 393.591 301.486 407.478 300.158C435.396 297.489 460.604 288.172 478.796 266.094C499.032 241.535 500.845 213.938 497.896 183.586Z" fill="#fbfbfb"/>
<path d="M920.75 155.997L921.11 156.09C922.395 157.435 922.005 166.665 922.005 169.168C922.01 190.793 922.015 212.418 922.02 234.043C915.815 235.211 909.265 237.964 903.34 240.218C830.2 268.039 764.405 334.523 751.735 413.722C744.14 459.425 755.085 506.27 782.15 543.875C816.145 590.71 865.645 616.53 921.985 625.44L922.03 805.76C903.475 811.8 883.535 819.45 864.96 826.045L749.105 867.18C724.855 875.835 700.95 884.79 676.515 892.925L676.57 875.125L676.5 812.18C706.965 806.285 736.595 796.675 764.72 783.57C786.985 773.165 808.41 757.78 816.915 733.76C822.27 718.625 822.245 700.995 815.23 686.4C808.865 673.175 797.42 663.085 783.5 658.425C758.715 650.06 733.32 660.025 713.99 675.84C701.465 686.09 691.285 697.325 676.515 704.72L676.5 398.176C682.295 396.135 691.81 390.209 696.565 386.35C748.065 344.527 764.85 270.637 772.615 208.852L920.75 155.997Z" fill="#fbfbfb"/>
<path d="M176.976 190.492L177.575 190.619C178.284 192.264 174.867 259.909 174.598 267.89C173.018 314.812 186.173 363.048 219.339 397.66C253.923 433.753 294.658 445.589 342.765 447.055C342.281 459.052 342.648 472.227 342.688 484.293L342.724 542.15C342.728 577.165 341.657 615.055 342.856 649.705C283.189 668.735 257.668 748.785 248.002 804.22C247.152 809.1 246.827 814.14 245.82 819L245.717 819.475C229.783 824.29 212.874 830.95 197.012 836.575L108.644 867.85L102.015 870.085L101.993 778.155C134.447 769.845 164.795 754.81 191.069 734.025C228.355 704.38 255.647 663.56 261.126 615.48C265.979 572.89 255.117 532.315 228.087 498.781C197.865 461.283 149.932 434.514 102.013 429.247L102.01 217.311C119.995 211.293 137.812 204.435 155.76 198.263C162.857 195.823 169.993 193.234 176.976 190.492Z" fill="#fbfbfb"/>
<path d="M991.285 62.0581C992.33 63.3316 991.87 88.0541 991.87 91.4221L991.86 149.358L991.855 324.716L991.99 853.24C956.155 865.53 920.415 878.095 884.77 890.93L677.05 963.995L677.015 917.275C703.33 908.5 730.545 898.535 756.775 889.325L911.355 835.045C920.305 831.69 943.45 825.52 948.025 819.45C951.8 814.45 950.48 778.35 950.475 770.52L950.445 692.195L950.45 307.849V196.534C950.455 179.21 951.55 150.063 949.29 133.906C944.345 126.152 935.665 128.382 928.065 130.434C918.99 132.884 910.03 136.86 901.13 140.058L850.22 158.042L677.05 218.781L677.02 172.508C690.74 168.646 706.33 162.569 719.905 157.723L787.53 133.776L991.285 62.0581Z" fill="#aeaeae"/>
<path d="M341.922 61.0562C343.084 62.9237 342.734 101.764 342.945 108.02C325.345 113.112 306.074 120.686 288.639 126.88L196.339 159.59L122.241 185.947C110.062 190.286 97.7901 194.537 85.7426 199.147C80.7661 201.051 78.2681 206.289 78.0341 211.27C77.4716 223.263 77.9186 235.583 77.9606 247.571L77.9801 317.673L77.9821 753.56L77.9681 844C77.9461 857.66 76.6661 876.015 78.8426 889.735C79.8986 896.39 88.5126 899.26 95.1836 897.03C103.98 894.085 113.182 890.66 122.208 887.405L173.551 869.035L342.768 808.915C342.236 823.775 342.603 839.98 342.764 854.875C328.676 859.5 314.198 865.005 300.133 869.97C293.28 872.8 281.322 876.5 274.034 879.055L223.979 896.9L37.3528 963.83L37.1094 169.875C48.8093 166.919 64.6876 160.396 76.3826 156.144L145.294 131.333L271.136 86.5217C294.516 78.1972 318.821 69.9007 341.922 61.0562Z" fill="#aeaeae"/>
<path d="M921.04 257.507L921.395 257.706C922.535 259.437 922.01 315.507 922.01 322.185C877.365 332.713 835.795 374.346 827.62 419.83C822.795 446.457 828.8 473.911 844.31 496.088C863.865 524.005 889.2 536.47 921.86 542.225C922.03 562.41 922.07 582.595 921.98 602.78C905.375 600.265 895.285 597.145 879.64 591.51C875.97 590.055 872.335 588.505 868.74 586.865C828.125 568.375 796.48 537.31 780.735 495.074C765.955 455.441 769.05 412.168 786.77 374.033C808.395 327.497 846.72 291.818 892.46 269.267C902.085 264.521 911.045 261.242 921.04 257.507Z" fill="#fbfbfb"/>
<path d="M102.178 451.514C110.65 452.819 119.033 454.648 127.28 456.988C167.65 468.718 204.016 495.451 224.271 532.685C241.551 564.05 245.399 601.07 234.938 635.32C220.2 684.615 185.874 715.625 142.19 739.185C130.259 745.21 114.748 751.065 102.021 754.97L101.996 690.735C195.783 670.345 215.423 560.575 124.203 520.635C117.359 517.64 109.34 515.995 102.026 514.385L102.178 451.514Z" fill="#fbfbfb"/>
<path d="M367.451 374.513C392.598 375.859 417.404 375.229 442.254 379.408C480.233 385.795 504.135 405.647 516.515 442.105C521.22 455.963 524.305 469.916 532.47 482.35C541.63 496.522 555.985 506.17 568.885 516.64C578.605 524.53 586.85 534.125 588.1 547.09C589.2 558.47 584.475 567.24 577.455 575.745C576.945 576.205 576.425 576.655 575.895 577.1C555.98 593.77 528.35 587.28 509.175 573C466.193 540.985 476.218 480.722 434.166 449.125C413.562 433.643 392.821 428.069 367.509 425.8L367.451 374.513Z" fill="#fbfbfb"/>
<path d="M277.252 154.969L278.121 155.075C281.336 161.793 259.275 214.56 255.923 224.041C253.621 230.498 251.781 237.11 250.417 243.828C238.871 301.68 268.707 353.342 326.45 368.977C331.858 370.441 337.07 371.49 342.562 372.59C343.038 389.541 342.742 407.981 342.554 425.001C326.698 425.089 314.273 423.81 298.847 419.997C276.293 414.518 252.342 400.065 236.219 383.58C180.093 326.193 199.812 252.667 200.508 182.319C224.168 175.262 253.233 163.35 277.252 154.969Z" fill="#fbfbfb"/>
<path d="M367.517 61.7329C385.192 69.0424 403.639 75.6944 421.56 82.5594L519.295 120.047L597.815 150.2C615.695 157.103 633.86 164.476 651.97 170.608C652.055 186.563 652.025 202.518 651.885 218.473C640.82 214.546 629.535 209.867 618.53 205.62L558.56 182.603L367.417 109.003C367.767 93.5704 367.51 77.2344 367.517 61.7329Z" fill="#aeaeae"/>
<path d="M367.438 808.65C399.418 821.325 432.498 833.525 464.688 845.805L651.975 917.225L651.96 963.845C557.335 927.065 462.512 890.785 367.501 855.01L367.438 808.65Z" fill="#aeaeae"/>
<path d="M367.462 133.173C402.05 147.134 439.377 160.815 474.364 174.113C478.833 206.772 481.364 232.335 456.721 257.971C431.352 280.897 399.17 279 367.449 278.465L367.462 133.173Z" fill="#fbfbfb"/>
<path d="M342.107 132.026C343.4 133.505 342.738 153.221 342.735 157.034L342.593 211.83L342.652 350.518C321.548 345.671 310.493 341.291 293.855 326.908C291.245 324.523 288.816 321.949 286.586 319.205C278.373 309.179 272.963 297.156 270.906 284.359C264.7 246.895 283.643 216.752 294.687 182.562C298.655 170.28 300.408 159.102 301.607 146.381C314.313 142.713 329.562 136.671 342.107 132.026Z" fill="#fbfbfb"/>
<path d="M367.508 668.9C434.489 671.745 485.113 778.365 498.576 834.255C482.149 828.8 463.583 821.305 447.35 815.035C420.808 804.65 394.168 794.52 367.434 784.64C367.8 746.06 367.825 707.48 367.508 668.9Z" fill="#fbfbfb"/>
<path d="M920.305 345.931L920.975 345.964C922.72 348.544 921.99 503.125 921.975 519.79C902.14 516.62 888.13 510.2 873.36 496.653C865.09 488.768 858.4 479.677 854 469.096C845.745 448.845 845.845 426.15 854.27 405.971C866.805 375.835 891.03 357.94 920.305 345.931Z" fill="#fbfbfb"/>
<path d="M761.865 677.68C767.85 676.735 775.53 678.45 780.935 680.935C799.185 689.315 803.585 713.925 794.645 730.745C779.285 759.625 736.475 771.895 707.59 781.61C697.19 784.825 687.31 787.7 676.51 789.305L676.5 728.31C713.665 716.56 722.34 683.235 761.865 677.68Z" fill="#fbfbfb"/>
<path d="M748.155 217.498C748.715 217.661 748.38 217.505 748.99 218.239C749.25 222.478 746.495 237.361 745.595 241.974C736.535 288.511 718.42 345.064 677.475 373.096L677.17 372.937C676.97 372.632 676.765 372.326 676.56 372.021C676.51 342.212 676.51 267.441 676.5 242.88C683.07 241.301 695.995 236.214 702.945 233.688C717.985 228.209 733.055 222.812 748.155 217.498Z" fill="#fbfbfb"/>
<path d="M341.605 673.395C341.926 673.49 342.149 673.79 342.408 674C343.261 681.69 342.691 701.9 342.693 710.505L342.746 785.06C320.767 791.575 292.365 802.265 270.78 810.385L270.139 810.175C268.199 805.06 278.671 767.795 280.825 761.47C292.671 726.705 307.607 691.43 341.605 673.395Z" fill="#fbfbfb"/>
<path d="M101.995 536.835C117.248 540.61 129.041 545.185 140.646 556.215C152.63 567.61 161.307 582.775 161.676 599.595C162.095 618.675 153.695 633.88 140.855 647.295C129.61 658.4 117.206 664.34 102.018 667.92C102.376 624.225 102.369 580.53 101.995 536.835Z" fill="#fbfbfb"/>
</svg>
