<svg width="1014.722" height="1014.722" viewBox="9.278 0.322 1014.722 1014.722" fill="none" xmlns="http://www.w3.org/2000/svg">
<g clip-path="url(#clip0_15505_17761)">
<path  d="M0 0Z"  fill="none"/>
<path d="M514.65 109.117C524.06 108.576 536.285 114.626 545.135 118.136C556.705 122.722 568.3 127.242 579.92 131.695L637.68 154.08C649.635 158.667 661.69 163.113 673.54 167.953C675.185 168.625 680.445 171.181 681.715 172.337C690.54 180.364 688.665 196.341 677.71 201.576C670.95 204.685 663.62 207.21 656.595 209.737C645.725 213.628 634.88 217.583 624.055 221.603L563.68 243.933C552.65 248.043 540.565 253.043 529.48 256.636C529.395 271.212 529.385 285.788 529.46 300.364C547.015 323.429 564.425 349.787 581.14 373.672L677.73 511.78C683.38 519.855 711.005 561.495 715.65 564.98C717.76 566.565 720.565 566.85 723.11 566.55C727.14 566.07 731.065 564.415 734.85 563.025C744.145 559.61 758.59 553.01 768.05 551.72C773.625 550.96 779.815 551.84 784.28 555.52C791.15 561.185 809.62 588.59 815.92 597.29L886.635 695.425L973.89 816.09L1000.76 853.385C1010.27 866.615 1027.62 883.645 1012.33 899.565C1009.56 902.45 1004.79 905.495 1000.69 905.755C989.335 906.48 977.82 906.3 966.435 906.29L903.02 906.32L673.59 906.435L231.704 906.51L95.1566 906.56L51.6806 906.58C44.0086 906.58 35.8545 906.79 28.2974 906.4C20.094 905.98 11.89 897.98 10.4959 890.025C9.27806 883.07 10.5046 877.87 14.4452 872.2C27.7459 853.045 41.6118 834.325 55.2396 815.42L138.76 699.75L207.049 605.005C217.62 590.375 227.698 575 238.901 560.88C241.349 557.795 244.071 554.895 247.723 553.255C264.749 545.61 297.548 568.685 309.703 565.855C312.769 565.14 314.539 563.1 316.425 560.74C322.978 552.535 328.513 543.345 334.552 534.745C348.852 514.68 362.992 494.501 376.971 474.211C417.125 417.081 456.901 359.686 496.294 302.029C497.02 288.539 496.499 270.282 496.503 256.522L496.561 171.007L496.494 144.529C496.445 129.241 494.845 112.585 514.65 109.117Z" fill="#000000"/>
<path d="M512.345 574.56L529.595 553.385C533.005 549.18 540.87 538.355 545.465 537.045C549.175 539 563.015 561.705 566.61 567.28L594.075 610.25C607.485 631.32 614.77 641.92 625.145 665.175C632.96 683.06 640.255 701.16 647.035 719.465C652.225 733.275 658.83 752.9 666.37 765.24C675.055 779.46 694.465 788.645 707.08 800.37C723.275 815.425 732.61 833.365 744.515 851.765C747.655 856.615 755.15 868.065 757.625 872.855C740.19 873.315 721.745 873.06 704.235 873.08L608.5 873.155L306.673 873.32L152.185 873.43L106.156 873.47C100.117 873.47 87.0833 873.77 81.5753 872.99C72.7498 873.695 62.9743 873.435 54.0508 873.345L195.238 677.56C202.632 667.31 256.482 590.78 260.447 588.275C266.775 584.28 308.595 604.74 320.446 602.81C327.627 601.64 334.734 596.995 341.18 593.81C363.027 583.005 384.331 571.325 405.648 559.515C415.927 553.815 426.301 546.44 437.304 542.32C440.931 560.435 441.667 609.34 454.188 620.345C456.836 622.675 460.127 623.895 463.662 623.53C467.539 623.125 471.069 621.055 474.076 618.69C480.679 613.495 486.127 606.235 491.498 599.81C498.519 591.455 505.47 583.04 512.345 574.56Z" fill="#ffffff"/>
<path d="M512.345 574.56L529.595 553.385C533.005 549.18 540.87 538.355 545.465 537.045C549.175 539 563.015 561.705 566.61 567.28L594.075 610.25C607.485 631.32 614.77 641.92 625.145 665.175C632.96 683.06 640.255 701.16 647.035 719.465C652.225 733.275 658.83 752.9 666.37 765.24C675.055 779.46 694.465 788.645 707.08 800.37C723.275 815.425 732.61 833.365 744.515 851.765C747.655 856.615 755.15 868.065 757.625 872.855C740.19 873.315 721.745 873.06 704.235 873.08L608.5 873.155L306.674 873.32L152.186 873.43L106.156 873.47C100.118 873.47 87.0837 873.77 81.5757 872.99C83.8842 871.525 107.707 867.75 111.594 867.105C157.763 859.735 204 852.805 250.299 846.315L349.578 833.04C395.715 826.415 445.37 814.765 474.403 774.675C506.23 730.73 509.51 663.905 511.96 611.315C512.265 604.755 513.025 579.13 512.345 574.56Z" fill="#aeaeae"/>
<path d="M640.335 546.575C642.1 546.45 645.21 546.25 646.875 547.04C663.535 554.93 677.425 573.45 689.935 586.03C696.57 592.695 704.615 603.065 713.55 603C729.99 602.89 750.35 590.695 765.57 587.26L766.34 587.09C771.695 590.32 783.2 607.86 787.68 613.965C802.825 634.665 817.86 655.455 832.775 676.32L971.365 868.1L974.655 872.61C938.405 872.915 902.15 873.015 865.895 872.915C843.11 872.94 818.315 873.49 795.745 872.84C789.54 866.585 781.53 851.055 776.24 842.75C766.57 827.57 754.29 807.42 742.95 793.665C737.995 787.625 732.505 782.04 726.55 776.985C718.635 770.385 697.39 755.57 693.425 748C674.01 710.915 662.445 669.15 640.515 633.06C639.105 630.175 633.525 622.005 633.635 619.07C634.49 596.675 636.575 574.105 638.24 551.73C638.395 549.65 639.14 548.2 640.335 546.575Z" fill="#aeaeae"/>
<path d="M513.15 336.433L513.925 335.415C515.32 335.842 516.525 337.5 517.365 338.713C532.475 360.446 547.515 382.384 562.755 404.02L605.285 464.764C617.945 482.744 631.13 501.05 643.35 519.29C635.98 517.68 626.1 515.345 619.335 520.19C607.9 528.38 609.44 549.445 607.06 562.15C606.535 564.94 606.47 567.93 606.03 570.655C597.155 559.07 589.775 545.89 581.485 533.875C573.15 521.8 564.895 504.285 548.745 502C532.29 499.675 522.61 513.035 513.265 523.985C499.238 539.52 484.858 558.695 470.935 574.905C467.941 557.61 467.116 536.71 461.317 520.12C460.092 516.615 454.915 513.06 451.352 511.86C447.768 510.66 443.927 510.435 440.227 511.21C422.119 514.9 382.551 542.02 363.884 551.02C372.692 537.245 382.856 523.67 392.241 510.18L446.352 432.243L489.756 369.781C496.77 359.686 505.71 345.924 513.15 336.433Z" fill="#ffffff"/>
<path d="M513.15 336.433L513.925 335.415C515.32 335.842 516.525 337.5 517.365 338.713C532.475 360.446 547.515 382.384 562.755 404.02L605.285 464.764C617.944 482.744 631.13 501.05 643.35 519.29C635.98 517.68 626.1 515.345 619.335 520.19C607.9 528.38 609.44 549.445 607.06 562.15C606.535 564.94 606.47 567.93 606.03 570.655C597.155 559.07 589.775 545.89 581.485 533.875C573.15 521.8 564.895 504.285 548.745 502C532.29 499.675 522.61 513.035 513.265 523.985C512.96 520.62 513.13 512.315 513.11 508.76C513.06 496.895 513.08 485.028 513.17 473.161L513.4 379.027C513.435 368.756 514.16 345.994 513.15 336.433Z" fill="#aeaeae"/>
<path d="M530.415 147.59C538.94 150.163 553.435 156.487 562.22 159.88L627.745 185.206C619.19 188.793 609.45 192.186 600.68 195.478C577.62 203.867 552.89 213.645 529.9 221.363C530.25 196.774 530.42 172.182 530.415 147.59Z" fill="#aeaeae"/>
</g>
<defs>
<clipPath id="clip0_15505_17761">
<rect width="1024" height="1024" fill="#ffffff"/>
</clipPath>
</defs>
</svg>
