<svg width="1024" height="1024" viewBox="0 0 1024 1024" fill="none" xmlns="http://www.w3.org/2000/svg">
<g clip-path="url(#clip0_15505_17718)">
<path d="M0 0H501.765H521.455H1024V1024H521.885H503.24H0V0Z" fill="#000000"/>
<path d="M0 0H501.765C471.784 5.21985 451.029 16.1714 433.119 41.4722C418.661 62.3105 413.067 88.036 417.567 112.996C421.413 134.874 430.797 150.201 445.936 165.839C417.114 171.31 398.34 175.317 370.145 185.163C283.456 216 208.866 273.69 157.223 349.84C92.775 444.541 68.779 561.045 90.557 673.505C111.847 785.445 176.555 884.415 270.555 948.815C325.381 986.32 388.154 1010.61 453.945 1019.77C463.982 1021.26 471.632 1022.14 481.74 1022.69C487.144 1022.99 498.521 1023.19 503.24 1024H0V0Z" fill="#ffffff"/>
<path d="M521.455 0H1024V1024H521.885C525.06 1023.4 537.06 1023.05 540.99 1022.8C552 1022.09 562.975 1020.94 573.885 1019.34C642.235 1008.96 700.78 984.98 757.6 945.855C850.92 880.52 914.565 780.89 934.62 668.755C954.915 556.3 929.745 440.385 864.64 346.474C807.4 263.964 723.285 203.887 626.67 176.505C610.955 172.011 594.57 168.752 578.505 165.826C593.015 151.309 603 133.558 606.585 113.256C611.06 88.1415 605.41 62.2765 590.87 41.3174C573.195 16.1229 550.97 5.07805 521.455 0Z" fill="#ffffff"/>
<path d="M119.244 674.046L118.755 674.146C118.621 673.493 118.488 672.839 118.357 672.185L118.848 672.087L118.849 672.086C118.718 671.433 118.589 670.779 118.462 670.124L118.46 670.125L117.97 670.221C117.842 669.565 117.715 668.909 117.591 668.252L118.082 668.159L118.084 668.158C117.96 667.502 117.836 666.846 117.715 666.188L117.714 666.189L117.222 666.28C117.1 665.622 116.981 664.964 116.862 664.305L117.354 664.216V664.215C117.236 663.557 117.121 662.898 117.006 662.238L117.005 662.239L116.513 662.325C116.398 661.665 116.285 661.004 116.173 660.343L116.665 660.26L116.667 660.259C116.555 659.598 116.445 658.937 116.337 658.275L116.335 658.276L115.842 658.357C115.733 657.695 115.626 657.031 115.521 656.367L116.015 656.289L116.016 656.288C115.91 655.625 115.805 654.962 115.703 654.298L115.209 654.375C115.108 653.716 115.008 653.056 114.91 652.396L115.405 652.323V652.322C115.307 651.663 115.212 651.004 115.117 650.344L115.116 650.345L114.621 650.416C114.526 649.755 114.433 649.093 114.342 648.432L114.837 648.363L114.838 648.362C114.746 647.701 114.656 647.04 114.567 646.378V646.379L114.071 646.444C113.983 645.782 113.896 645.118 113.811 644.454L114.307 644.39C114.222 643.727 114.14 643.063 114.058 642.398L114.057 642.399L113.56 642.461C113.478 641.796 113.397 641.13 113.318 640.464L113.815 640.404L113.816 640.403C113.738 639.738 113.66 639.072 113.585 638.406L113.584 638.407L113.087 638.463C113.011 637.796 112.938 637.128 112.865 636.46L113.362 636.405C113.29 635.738 113.22 635.07 113.151 634.401L113.15 634.402L112.653 634.453C112.585 633.79 112.518 633.125 112.453 632.461L112.95 632.412L112.952 632.411C112.887 631.749 112.824 631.085 112.762 630.422L112.76 630.423L112.263 630.47C112.201 629.805 112.14 629.14 112.081 628.475L112.579 628.431L112.58 628.43C112.521 627.765 112.464 627.1 112.408 626.435V626.436L111.91 626.478C111.855 625.811 111.8 625.145 111.748 624.478L112.247 624.438L112.248 624.438C112.196 623.771 112.146 623.104 112.097 622.437L112.095 622.438L111.597 622.474C111.548 621.805 111.5 621.137 111.454 620.468L111.953 620.434L111.954 620.433C111.908 619.764 111.863 619.095 111.82 618.426V618.427L111.321 618.459C111.279 617.789 111.239 617.117 111.199 616.446L111.698 616.417V616.416C111.659 615.746 111.623 615.075 111.587 614.404L111.585 614.405L111.086 614.432C111.068 614.096 111.05 613.759 111.033 613.423C111.016 613.087 111 612.752 110.983 612.416L111.482 612.392L111.483 612.391C111.451 611.719 111.419 611.048 111.39 610.377V610.378L110.89 610.4C110.86 609.729 110.833 609.057 110.807 608.386L111.307 608.366V608.365C111.281 607.695 111.257 607.026 111.234 606.356L111.233 606.357L110.733 606.374C110.711 605.704 110.69 605.033 110.671 604.363L111.17 604.35L111.172 604.349C111.153 603.68 111.134 603.011 111.118 602.343L111.117 602.344L110.617 602.355C110.601 601.686 110.587 601.017 110.574 600.349L111.073 600.339C111.06 599.671 111.051 599.003 111.042 598.336L111.041 598.337L110.541 598.345C110.532 597.677 110.524 597.009 110.518 596.342L111.018 596.338L111.019 596.337C111.012 595.671 111.008 595.005 111.005 594.339L111.004 594.34L110.504 594.342C110.501 593.674 110.5 593.006 110.5 592.339H111.001C111.001 591.667 111.002 590.995 111.006 590.324L110.506 590.321C110.51 589.649 110.515 588.977 110.522 588.306L111.022 588.311H111.023C111.031 587.64 111.039 586.97 111.05 586.3H111.049L110.549 586.292C110.559 585.621 110.571 584.951 110.585 584.281L111.085 584.291H111.086C111.1 583.622 111.114 582.953 111.131 582.285L110.631 582.271C110.648 581.602 110.667 580.934 110.688 580.266L111.188 580.28C111.208 579.613 111.23 578.945 111.254 578.278H111.253L110.753 578.261C110.777 577.593 110.802 576.926 110.829 576.259L111.329 576.278H111.33C111.357 575.612 111.385 574.947 111.415 574.281H111.414L110.915 574.259C110.945 573.592 110.977 572.926 111.011 572.261L111.51 572.285C111.544 571.614 111.58 570.944 111.617 570.273H111.616L111.117 570.246C111.154 569.575 111.193 568.905 111.233 568.234L111.732 568.265H111.734C111.775 567.595 111.817 566.926 111.86 566.258H111.858L111.359 566.225C111.403 565.555 111.449 564.886 111.496 564.218L111.995 564.253C112.042 563.585 112.09 562.918 112.141 562.251L111.643 562.214C111.693 561.546 111.745 560.879 111.799 560.212L112.297 560.252C112.35 559.586 112.407 558.92 112.464 558.255H112.463L111.965 558.213C112.022 557.547 112.08 556.881 112.141 556.216L112.638 556.261H112.64C112.7 555.597 112.761 554.933 112.824 554.27H112.823L112.326 554.222C112.39 553.558 112.455 552.894 112.521 552.23L113.018 552.279C113.085 551.612 113.155 550.945 113.226 550.278L112.728 550.226C112.798 549.558 112.871 548.89 112.945 548.223L113.441 548.278H113.443C113.517 547.612 113.593 546.946 113.67 546.28H113.668L113.172 546.223C113.249 545.557 113.328 544.891 113.408 544.226L113.904 544.285C113.985 543.621 114.067 542.957 114.15 542.294L113.654 542.23C113.738 541.566 113.824 540.903 113.911 540.239L114.406 540.305H114.407C114.494 539.642 114.584 538.98 114.674 538.318H114.672L114.177 538.25C114.267 537.588 114.36 536.926 114.453 536.265L114.947 536.335H114.949C115.043 535.674 115.137 535.014 115.233 534.354H115.232L114.738 534.281C114.835 533.621 114.933 532.961 115.033 532.302L115.527 532.377C115.628 531.713 115.731 531.05 115.835 530.388L115.341 530.311C115.445 529.647 115.55 528.984 115.657 528.321L116.151 528.401H116.152C116.259 527.74 116.369 527.079 116.479 526.419H116.478L115.984 526.336C116.095 525.675 116.207 525.014 116.321 524.354L116.813 524.438H116.814C116.928 523.779 117.042 523.119 117.159 522.46L116.668 522.374C116.785 521.715 116.903 521.056 117.023 520.397L117.516 520.487C117.636 519.83 117.758 519.173 117.882 518.517H117.881L117.39 518.425C117.513 517.768 117.638 517.111 117.765 516.455L118.256 516.55H118.257C118.383 515.894 118.511 515.239 118.641 514.585L118.15 514.488C118.28 513.833 118.412 513.178 118.545 512.524L119.034 512.624C119.168 511.967 119.304 511.31 119.441 510.653L118.952 510.552C119.089 509.895 119.228 509.238 119.368 508.582L119.857 508.687H119.858C119.999 508.031 120.141 507.377 120.284 506.723H120.283L119.795 506.615C119.939 505.961 120.084 505.307 120.23 504.653L120.719 504.763H120.72C120.867 504.11 121.013 503.457 121.163 502.805L120.677 502.693C120.827 502.041 120.979 501.389 121.132 500.738L121.618 500.853C121.771 500.202 121.927 499.552 122.083 498.902H122.082L121.597 498.785C121.753 498.135 121.911 497.486 122.07 496.837L122.557 496.956H122.558C122.717 496.308 122.877 495.66 123.04 495.014H123.039L122.555 494.892C122.718 494.243 122.882 493.595 123.048 492.948L123.532 493.072H123.533C123.7 492.423 123.867 491.773 124.037 491.125L123.554 490.999C123.724 490.35 123.896 489.702 124.069 489.054L124.553 489.183C124.726 488.536 124.902 487.89 125.078 487.244H125.076L124.594 487.112C124.77 486.466 124.948 485.82 125.128 485.175L125.61 485.309H125.611C125.791 484.664 125.972 484.02 126.154 483.377H126.153L125.672 483.24C125.855 482.596 126.04 481.952 126.226 481.31L126.705 481.448C126.891 480.806 127.08 480.165 127.269 479.524H127.268L126.788 479.384C126.977 478.742 127.168 478.101 127.36 477.461L127.839 477.604H127.84C128.032 476.965 128.226 476.327 128.421 475.688H128.42L127.941 475.542C128.137 474.902 128.334 474.263 128.533 473.624L129.011 473.772H129.012C129.211 473.133 129.411 472.493 129.613 471.854L129.137 471.704C129.339 471.065 129.543 470.425 129.749 469.787L130.225 469.941C130.43 469.304 130.638 468.667 130.847 468.031H130.846L130.37 467.875C130.579 467.238 130.79 466.603 131.002 465.968L131.476 466.126H131.478C131.689 465.491 131.902 464.857 132.117 464.224H132.115L131.643 464.063C131.858 463.429 132.074 462.796 132.292 462.163L132.765 462.326H132.766C132.983 461.694 133.202 461.063 133.423 460.433L132.951 460.268C133.172 459.636 133.395 459.006 133.619 458.376L134.09 458.544H134.091C134.315 457.915 134.541 457.287 134.768 456.659H134.767L134.297 456.488C134.525 455.858 134.754 455.229 134.985 454.601L135.454 454.773H135.455C135.686 454.144 135.919 453.516 136.153 452.889H136.152L135.684 452.714C135.918 452.086 136.154 451.459 136.392 450.832L136.859 451.009H136.86C137.097 450.383 137.335 449.758 137.575 449.134L137.108 448.954C137.349 448.329 137.591 447.704 137.835 447.08L138.301 447.263H138.302C138.545 446.639 138.791 446.017 139.037 445.396H139.035L138.57 445.211C138.817 444.589 139.065 443.967 139.314 443.347L139.779 443.533H139.78C140.03 442.913 140.28 442.293 140.532 441.675H140.531L140.068 441.486C140.321 440.867 140.575 440.249 140.831 439.631L141.293 439.821C141.548 439.204 141.806 438.588 142.064 437.973H142.063L141.603 437.779C141.862 437.161 142.123 436.543 142.386 435.927L142.846 436.123H142.847C143.109 435.507 143.373 434.891 143.639 434.276H143.638L143.179 434.078C143.444 433.463 143.711 432.848 143.979 432.234L144.438 432.436H144.438C144.707 431.822 144.977 431.21 145.248 430.599H145.247L144.79 430.396C145.062 429.783 145.335 429.172 145.609 428.562L146.065 428.766C146.34 428.156 146.615 427.547 146.893 426.938L146.438 426.731C146.715 426.122 146.995 425.514 147.275 424.906L147.729 425.116H147.73C148.011 424.509 148.292 423.903 148.575 423.298H148.574L148.121 423.086C148.405 422.48 148.689 421.875 148.976 421.271L149.428 421.485H149.429C149.715 420.881 150.002 420.278 150.291 419.676L149.84 419.459C150.13 418.855 150.423 418.251 150.716 417.648L151.165 417.867C151.458 417.265 151.753 416.664 152.049 416.063H152.048L151.6 415.843C151.896 415.242 152.193 414.641 152.492 414.042L152.939 414.265H152.94C153.239 413.666 153.539 413.069 153.841 412.472H153.84L153.394 412.246C153.695 411.648 153.999 411.051 154.304 410.455L154.749 410.683H154.75C155.054 410.087 155.36 409.493 155.667 408.899L155.223 408.669C155.53 408.075 155.84 407.481 156.15 406.889L156.593 407.121C156.903 406.529 157.215 405.938 157.528 405.348L157.086 405.113C157.399 404.522 157.715 403.932 158.031 403.343L158.472 403.579H158.473C158.789 402.99 159.107 402.401 159.427 401.813H159.426L158.986 401.575C159.306 400.986 159.627 400.398 159.95 399.811L160.389 400.052H160.39C160.712 399.465 161.035 398.879 161.36 398.295L160.923 398.052C161.249 397.466 161.577 396.882 161.905 396.299L162.34 396.543C162.668 395.96 162.999 395.379 163.33 394.798H163.329L162.895 394.55C163.226 393.968 163.559 393.388 163.894 392.808L164.327 393.057H164.328C164.662 392.478 164.997 391.9 165.334 391.322L165.332 391.321L164.9 391.069C165.237 390.491 165.576 389.914 165.916 389.338L166.347 389.592H166.348C166.687 389.016 167.028 388.441 167.37 387.867H167.369L166.94 387.61C167.283 387.036 167.627 386.462 167.973 385.89L168.4 386.147C168.746 385.574 169.094 385.003 169.442 384.432H169.441L169.015 384.171C169.364 383.599 169.714 383.028 170.065 382.458L170.491 382.721H170.492C170.844 382.151 171.197 381.582 171.551 381.015H171.55L171.125 380.75C171.479 380.182 171.835 379.614 172.192 379.048L172.616 379.314C172.973 378.749 173.331 378.184 173.69 377.62L173.269 377.352C173.629 376.787 173.991 376.223 174.354 375.66L174.773 375.932C175.136 375.369 175.5 374.808 175.865 374.248H175.864L175.445 373.976C175.811 373.415 176.178 372.855 176.546 372.296L176.964 372.571H176.965C177.333 372.013 177.702 371.456 178.072 370.9L178.071 370.899L177.655 370.622C178.026 370.065 178.399 369.509 178.772 368.954L179.188 369.233C179.561 368.678 179.936 368.124 180.312 367.571L179.899 367.29C180.276 366.736 180.655 366.183 181.034 365.631L181.446 365.915C181.826 365.364 182.207 364.813 182.589 364.264H182.588L182.178 363.979C182.56 363.429 182.943 362.88 183.328 362.332L183.737 362.619L183.739 362.62C184.124 362.073 184.509 361.527 184.896 360.981L184.896 360.98L184.487 360.691C184.875 360.146 185.265 359.601 185.655 359.057L186.061 359.349L186.062 359.35C186.452 358.806 186.842 358.263 187.234 357.722L186.83 357.428C187.223 356.886 187.617 356.345 188.013 355.806L188.416 356.101C188.811 355.561 189.209 355.024 189.606 354.486L189.204 354.188C189.603 353.65 190.003 353.113 190.404 352.577L190.805 352.877H190.806C191.206 352.341 191.608 351.807 192.012 351.273H192.011L191.612 350.972C192.016 350.438 192.422 349.904 192.828 349.372L193.225 349.676L193.226 349.677C193.632 349.145 194.038 348.614 194.447 348.084L194.052 347.778C194.461 347.248 194.872 346.719 195.283 346.191L195.677 346.499C196.088 345.972 196.502 345.446 196.916 344.921L196.915 344.92L196.522 344.61C196.937 344.085 197.353 343.56 197.77 343.036L198.16 343.348L198.161 343.349C198.578 342.825 198.996 342.303 199.415 341.781H199.414L199.024 341.468C199.444 340.946 199.865 340.426 200.287 339.906L200.675 340.221H200.676C201.097 339.702 201.518 339.183 201.942 338.667L201.557 338.351C201.981 337.833 202.408 337.316 202.835 336.801L203.221 337.119C203.647 336.604 204.076 336.091 204.505 335.578L204.121 335.257C204.551 334.743 204.983 334.231 205.415 333.72L205.797 334.043L205.798 334.044C206.23 333.533 206.663 333.024 207.098 332.516L207.097 332.515L206.717 332.189C207.152 331.681 207.588 331.173 208.025 330.666L208.403 330.992L208.404 330.993C208.841 330.487 209.279 329.982 209.719 329.478L209.342 329.148C209.782 328.644 210.223 328.14 210.666 327.638L211.041 327.968C211.483 327.466 211.927 326.966 212.371 326.467L212.37 326.466L211.997 326.134C212.442 325.634 212.888 325.134 213.336 324.636L213.708 324.971H213.709C214.156 324.473 214.604 323.978 215.054 323.482L215.053 323.481L214.682 323.146C215.132 322.65 215.584 322.155 216.036 321.661L216.404 321.999L216.405 322C216.857 321.507 217.309 321.014 217.764 320.523L217.396 320.184C217.851 319.692 218.307 319.203 218.765 318.714L219.13 319.055L219.131 319.056C219.588 318.567 220.046 318.08 220.505 317.594L220.504 317.593L220.141 317.25C220.6 316.763 221.061 316.277 221.523 315.793L221.886 316.138L221.887 316.139C222.348 315.655 222.811 315.172 223.275 314.69L223.274 314.689L222.914 314.343C223.379 313.861 223.844 313.379 224.312 312.899L224.67 313.248H224.671C225.137 312.769 225.605 312.29 226.073 311.813L225.716 311.463C226.185 310.985 226.656 310.509 227.128 310.034L227.483 310.386C227.954 309.911 228.427 309.439 228.9 308.967L228.899 308.966L228.547 308.612C229.021 308.14 229.496 307.668 229.973 307.197L230.323 307.553L230.324 307.554C230.8 307.084 231.277 306.616 231.755 306.148L231.754 306.147L231.405 305.79C231.884 305.322 232.364 304.854 232.845 304.389L233.192 304.748V304.749C233.673 304.284 234.155 303.819 234.638 303.356L234.291 302.995C234.774 302.532 235.259 302.07 235.745 301.609L236.089 301.972C236.574 301.511 237.061 301.053 237.549 300.595L237.548 300.594L237.206 300.229C237.694 299.771 238.184 299.314 238.674 298.857L239.014 299.224L239.015 299.225C239.504 298.769 239.995 298.315 240.487 297.861V297.86L240.148 297.493C240.641 297.04 241.135 296.587 241.63 296.136L241.967 296.505C242.461 296.055 242.956 295.606 243.452 295.158L243.451 295.157L243.116 294.786C243.613 294.338 244.111 293.89 244.61 293.444L244.943 293.817C245.442 293.372 245.943 292.928 246.443 292.485L246.442 292.484L246.111 292.109C246.613 291.666 247.116 291.223 247.619 290.782L247.948 291.159V291.16C248.451 290.719 248.956 290.28 249.461 289.842V289.841L249.134 289.463C249.64 289.024 250.146 288.587 250.654 288.15L250.98 288.529V288.53C251.488 288.095 251.996 287.66 252.506 287.227L252.183 286.846C252.693 286.412 253.204 285.979 253.717 285.548L254.039 285.931C254.551 285.5 255.065 285.071 255.579 284.643L255.578 284.642L255.258 284.258C255.772 283.829 256.288 283.402 256.805 282.977L257.122 283.362L257.123 283.363C257.639 282.938 258.156 282.514 258.674 282.092L258.673 282.091L258.356 281.703C258.875 281.28 259.394 280.858 259.915 280.438L260.229 280.826L260.23 280.827C260.75 280.407 261.27 279.987 261.792 279.569L261.48 279.18C262.003 278.762 262.528 278.344 263.053 277.929L263.363 278.321C263.888 277.906 264.413 277.493 264.939 277.08L264.631 276.687C265.158 276.274 265.687 275.862 266.216 275.451L266.522 275.846L266.523 275.847C267.052 275.437 267.581 275.028 268.111 274.621V274.62L267.807 274.224C268.338 273.816 268.871 273.409 269.404 273.004L269.707 273.402C270.24 272.998 270.774 272.594 271.309 272.191L271.009 271.792C271.543 271.39 272.079 270.989 272.616 270.59L272.914 270.991C273.45 270.592 273.988 270.195 274.526 269.799L274.229 269.396C274.768 269 275.309 268.604 275.85 268.21L276.144 268.614L276.145 268.615C276.685 268.221 277.227 267.829 277.77 267.438L277.769 267.437L277.476 267.031C278.019 266.64 278.563 266.25 279.108 265.861L279.398 266.268L279.399 266.269C279.944 265.88 280.489 265.492 281.035 265.106L280.747 264.698C281.294 264.312 281.842 263.927 282.392 263.544L282.678 263.953C283.226 263.57 283.777 263.189 284.327 262.809L284.043 262.397C284.594 262.017 285.146 261.637 285.699 261.259L285.981 261.671L285.982 261.672C286.534 261.295 287.088 260.919 287.642 260.545L287.641 260.543L287.36 260.129C287.914 259.754 288.47 259.381 289.026 259.009L289.304 259.425V259.426C289.859 259.054 290.416 258.683 290.974 258.314L290.697 257.897C291.255 257.528 291.815 257.16 292.375 256.793L292.648 257.212V257.213C293.208 256.847 293.769 256.482 294.33 256.118L294.329 256.117L294.058 255.698C294.62 255.334 295.183 254.971 295.747 254.61L296.017 255.031L296.018 255.032C296.581 254.672 297.145 254.312 297.71 253.954L297.709 253.953L297.441 253.531C298.007 253.173 298.575 252.816 299.143 252.46L299.408 252.884C299.975 252.529 300.543 252.175 301.112 251.822L300.85 251.397C301.419 251.045 301.99 250.693 302.562 250.343L302.823 250.769C303.393 250.42 303.964 250.074 304.535 249.728V249.727L304.276 249.299C304.848 248.952 305.421 248.607 305.995 248.264L306.252 248.692L306.253 248.694C306.826 248.351 307.4 248.008 307.976 247.668L307.975 247.667L307.72 247.237C308.296 246.897 308.872 246.557 309.45 246.219L309.703 246.65C310.28 246.313 310.858 245.976 311.437 245.642L311.187 245.209C311.766 244.874 312.346 244.539 312.928 244.207L313.177 244.642C313.757 244.31 314.339 243.98 314.922 243.65L314.921 243.649L314.676 243.214C315.259 242.884 315.844 242.556 316.429 242.229L316.672 242.666V242.667C317.256 242.341 317.842 242.016 318.428 241.692V241.691L318.187 241.253C318.773 240.929 319.362 240.607 319.95 240.286L320.189 240.725C320.775 240.405 321.362 240.087 321.95 239.771L321.713 239.33C322.301 239.013 322.891 238.697 323.481 238.383L323.717 238.824V238.825C324.306 238.511 324.897 238.199 325.488 237.888V237.887L325.256 237.444C325.848 237.133 326.441 236.822 327.035 236.514L327.266 236.958V236.959C327.859 236.651 328.453 236.343 329.048 236.038V236.037L328.82 235.593C329.416 235.287 330.013 234.983 330.61 234.68L330.836 235.126C331.433 234.824 332.03 234.522 332.629 234.223L332.405 233.775C333.005 233.475 333.605 233.177 334.206 232.88L334.428 233.328V233.329C335.028 233.032 335.629 232.737 336.231 232.443V232.442L336.012 231.993C336.614 231.699 337.217 231.407 337.82 231.116L338.037 231.566V231.567C338.639 231.278 339.241 230.989 339.844 230.702L339.629 230.251C340.233 229.964 340.837 229.678 341.442 229.394L341.654 229.846C342.259 229.562 342.865 229.281 343.472 229V228.999L343.262 228.545C343.869 228.264 344.477 227.984 345.086 227.706L345.293 228.16L345.294 228.162C345.902 227.884 346.51 227.607 347.12 227.332V227.331L346.915 226.875C347.525 226.6 348.137 226.326 348.749 226.054L348.952 226.51V226.511C349.564 226.239 350.176 225.967 350.789 225.698L350.588 225.24C351.202 224.971 351.816 224.703 352.432 224.437L352.631 224.896C353.246 224.629 353.861 224.365 354.478 224.102L354.281 223.642C354.896 223.379 355.512 223.117 356.129 222.857L356.323 223.318V223.319C356.938 223.06 357.554 222.803 358.17 222.547V222.546L357.979 222.084C358.596 221.828 359.214 221.574 359.833 221.32L360.022 221.782V221.783C360.641 221.53 361.259 221.277 361.879 221.027L361.692 220.564C362.313 220.314 362.935 220.066 363.557 219.818L363.741 220.282V220.283C364.362 220.036 364.985 219.791 365.607 219.547V219.546L365.426 219.08C366.049 218.836 366.674 218.593 367.299 218.352L367.479 218.818V218.819C368.103 218.578 368.728 218.339 369.354 218.101V218.1L369.177 217.633C369.804 217.395 370.431 217.157 371.06 216.922L371.234 217.39C371.862 217.155 372.491 216.922 373.12 216.69L372.947 216.221C373.574 215.99 374.203 215.76 374.831 215.532L375.001 216.003V216.004C375.628 215.776 376.256 215.551 376.885 215.326V215.324L376.717 214.854C377.346 214.629 377.977 214.405 378.607 214.184L378.772 214.655V214.656C379.403 214.435 380.033 214.215 380.665 213.996V213.995L380.502 213.522C381.134 213.304 381.768 213.087 382.401 212.871L382.562 213.345C383.195 213.129 383.829 212.916 384.464 212.704V212.703L384.306 212.229C384.941 212.016 385.577 211.805 386.214 211.596L386.37 212.07V212.072C387.006 211.863 387.643 211.655 388.28 211.449V211.447L388.126 210.972C388.764 210.765 389.403 210.56 390.043 210.356L390.194 210.833V210.834C390.833 210.631 391.473 210.429 392.113 210.229L391.965 209.752C392.602 209.553 393.239 209.355 393.878 209.159L394.024 209.638V209.639C394.662 209.443 395.3 209.249 395.939 209.057V209.055L395.795 208.576C396.435 208.383 397.076 208.193 397.717 208.003L397.858 208.482V208.483C398.499 208.294 399.14 208.105 399.782 207.919V207.918L399.643 207.438C400.285 207.252 400.928 207.066 401.572 206.883L401.708 207.363C402.351 207.18 402.996 207 403.641 206.819L403.507 206.338C404.152 206.158 404.798 205.978 405.444 205.801L405.577 206.283V206.285C406.223 206.108 406.869 205.933 407.517 205.759V205.757L407.387 205.274C408.035 205.1 408.684 204.928 409.333 204.757L409.46 205.24V205.241C410.108 205.071 410.757 204.9 411.407 204.732L411.282 204.249C411.928 204.082 412.575 203.917 413.223 203.754L413.345 204.238V204.239C413.991 204.076 414.638 203.915 415.286 203.755V203.754L415.166 203.269C415.814 203.108 416.464 202.949 417.113 202.792L417.231 203.278V203.279C417.88 203.122 418.53 202.967 419.18 202.813V202.812L419.065 202.325C419.716 202.171 420.368 202.019 421.021 201.868L421.133 202.355C421.785 202.205 422.437 202.056 423.09 201.908L422.979 201.42C423.633 201.272 424.287 201.126 424.942 200.981L425.05 201.47V201.472C425.704 201.327 426.359 201.184 427.015 201.043V201.042L426.909 200.553C427.565 200.411 428.222 200.272 428.88 200.134L428.982 200.623V200.624C429.639 200.486 430.296 200.349 430.953 200.214L430.853 199.725C431.506 199.591 432.16 199.458 432.814 199.327L432.912 199.817V199.818C433.566 199.688 434.22 199.56 434.875 199.433V199.431L434.779 198.94C435.435 198.813 436.091 198.687 436.748 198.562L436.841 199.054V199.055C437.497 198.93 438.153 198.808 438.811 198.687V198.686L438.72 198.194C439.378 198.073 440.036 197.953 440.695 197.835L440.783 198.327C441.441 198.209 442.1 198.094 442.76 197.979V197.979L442.675 197.486C443.335 197.372 443.996 197.258 444.657 197.146L444.74 197.64V197.641C445.401 197.529 446.062 197.42 446.724 197.312V197.311L446.644 196.816C447.306 196.708 447.969 196.601 448.633 196.496L448.711 196.99V196.991C449.374 196.886 450.036 196.781 450.7 196.68L450.626 196.186C451.285 196.085 451.944 195.985 452.604 195.888L452.677 196.383C453.336 196.285 453.995 196.19 454.655 196.096V196.095L454.585 195.6C455.246 195.505 455.907 195.412 456.568 195.32L456.637 195.815V195.816C457.298 195.725 457.96 195.635 458.622 195.547L458.556 195.051C459.219 194.963 459.883 194.876 460.547 194.791L460.61 195.287C461.273 195.202 461.937 195.121 462.602 195.039V195.037L462.541 194.541C463.206 194.459 463.872 194.379 464.538 194.301L464.597 194.797V194.799C465.262 194.72 465.927 194.643 466.594 194.567V194.566L466.538 194.07C467.205 193.995 467.873 193.921 468.541 193.849L468.595 194.346C469.262 194.274 469.931 194.204 470.6 194.136V194.135L470.548 193.638C471.212 193.569 471.876 193.503 472.541 193.438L472.59 193.936V193.937C473.252 193.872 473.915 193.809 474.578 193.747V193.746L474.532 193.248C475.196 193.186 475.861 193.127 476.526 193.068L476.57 193.566C477.235 193.508 477.9 193.451 478.565 193.396L478.524 192.897C479.191 192.842 479.857 192.788 480.524 192.736L480.563 193.235V193.236C481.23 193.184 481.897 193.135 482.564 193.086V193.084L482.528 192.585C483.196 192.536 483.865 192.489 484.534 192.443L484.568 192.942V192.943C485.237 192.898 485.906 192.853 486.575 192.811L486.543 192.312C487.213 192.27 487.885 192.229 488.556 192.19L488.585 192.689C489.255 192.65 489.926 192.614 490.597 192.578V192.577L490.57 192.078C490.906 192.06 491.243 192.042 491.579 192.025C491.915 192.008 492.25 191.992 492.586 191.976L492.61 192.475V192.477C493.282 192.444 493.952 192.412 494.623 192.383L494.602 191.883C495.273 191.854 495.944 191.827 496.614 191.801L496.634 192.301C497.304 192.275 497.973 192.252 498.643 192.229V192.229L498.626 191.729C499.296 191.706 499.965 191.685 500.635 191.666L500.649 192.166V192.168C501.318 192.149 501.986 192.13 502.654 192.114V192.113L502.643 191.614C503.311 191.598 503.979 191.584 504.647 191.571L504.657 192.071C505.325 192.059 505.992 192.049 506.658 192.04V192.039L506.651 191.539C507.319 191.53 507.986 191.522 508.652 191.516L508.657 192.016V192.018C509.323 192.012 509.989 192.008 510.654 192.005V192.003L510.652 191.503C511.32 191.5 511.987 191.499 512.654 191.5L512.653 192V192.001C513.325 192.002 513.996 192.003 514.667 192.007L514.671 191.507C515.343 191.511 516.014 191.517 516.686 191.524L516.68 192.024L516.679 192.025C517.349 192.033 518.019 192.042 518.688 192.053L518.689 192.051L518.697 191.551C519.368 191.561 520.038 191.574 520.708 191.588L520.697 192.088L520.696 192.089C521.365 192.103 522.034 192.118 522.702 192.135H522.703L522.716 191.635C523.385 191.652 524.053 191.671 524.722 191.691L524.706 192.191L524.705 192.192C525.372 192.213 526.039 192.235 526.706 192.259L526.707 192.258L526.726 191.758C527.393 191.782 528.06 191.808 528.727 191.835L528.706 192.334L528.705 192.336C529.371 192.363 530.036 192.391 530.701 192.422L530.702 192.421L530.726 191.921C531.392 191.951 532.057 191.984 532.723 192.018L532.696 192.517C533.367 192.551 534.037 192.587 534.707 192.624H534.708L534.735 192.124C535.406 192.161 536.076 192.201 536.746 192.241L536.716 192.74L536.715 192.742C537.384 192.783 538.053 192.824 538.721 192.868L538.722 192.867L538.755 192.368C539.424 192.412 540.093 192.458 540.761 192.505L540.726 193.004L540.725 193.005C541.392 193.052 542.059 193.1 542.726 193.15L542.764 192.652C543.431 192.703 544.098 192.755 544.765 192.809L544.725 193.307L544.724 193.308C545.389 193.361 546.055 193.418 546.72 193.475L546.721 193.474L546.763 192.976C547.428 193.033 548.094 193.091 548.759 193.151L548.714 193.649L548.713 193.651C549.377 193.712 550.04 193.772 550.703 193.836L550.704 193.835L550.752 193.338C551.416 193.402 552.079 193.466 552.742 193.533L552.691 194.031H552.69C553.358 194.099 554.025 194.169 554.692 194.239L554.693 194.238L554.746 193.741C555.414 193.812 556.081 193.884 556.748 193.958L556.692 194.455L556.691 194.457C557.358 194.531 558.023 194.606 558.688 194.684L558.689 194.682L558.747 194.186C559.413 194.263 560.078 194.342 560.743 194.423L560.683 194.919L560.682 194.92C561.346 195 562.01 195.081 562.673 195.165L562.736 194.669C563.4 194.753 564.064 194.839 564.728 194.926L564.662 195.422L564.661 195.423C565.323 195.51 565.985 195.599 566.646 195.689L566.647 195.688L566.715 195.192C567.377 195.283 568.038 195.375 568.699 195.469L568.63 195.964L568.629 195.965C569.289 196.058 569.949 196.153 570.608 196.25L570.609 196.249L570.682 195.755C571.342 195.852 572.001 195.951 572.66 196.051L572.586 196.544C573.249 196.645 573.911 196.749 574.572 196.853L574.573 196.852L574.65 196.358C575.313 196.463 575.977 196.568 576.639 196.676L576.559 197.169L576.558 197.171C577.219 197.278 577.879 197.387 578.539 197.497L578.54 197.496L578.623 197.003C579.284 197.114 579.945 197.226 580.604 197.34L580.52 197.832L580.519 197.833C581.178 197.947 581.836 198.062 582.494 198.179H582.495L582.583 197.687C583.242 197.804 583.901 197.923 584.559 198.043L584.468 198.535L584.467 198.536C585.124 198.656 585.78 198.779 586.437 198.902L586.438 198.9L586.53 198.409C587.187 198.533 587.843 198.658 588.499 198.785L588.404 199.275L588.403 199.277C589.058 199.404 589.713 199.531 590.366 199.661H590.367L590.465 199.17C591.12 199.3 591.774 199.432 592.428 199.565L592.327 200.055C592.984 200.189 593.64 200.326 594.296 200.463L594.297 200.462L594.399 199.973C595.056 200.11 595.712 200.249 596.367 200.39L596.263 200.879L596.262 200.88C596.917 201.02 597.571 201.163 598.225 201.307L598.226 201.305L598.333 200.816C598.987 200.96 599.641 201.106 600.294 201.253L600.185 201.74L600.184 201.741C600.836 201.888 601.488 202.036 602.14 202.186L602.253 201.698C602.905 201.848 603.556 202.001 604.207 202.154L604.093 202.641H604.092C604.742 202.794 605.391 202.95 606.04 203.106L606.041 203.105L606.158 202.619C606.808 202.776 607.458 202.934 608.106 203.094L607.986 203.579L607.985 203.58C608.633 203.74 609.281 203.901 609.928 204.063L609.929 204.062L610.051 203.577C610.699 203.74 611.346 203.905 611.993 204.071L611.868 204.556H611.867C612.517 204.723 613.165 204.89 613.813 205.061L613.94 204.577C614.589 204.747 615.237 204.919 615.885 205.093L615.756 205.576L615.755 205.577C616.401 205.75 617.047 205.925 617.692 206.102L617.693 206.101L617.825 205.618C618.471 205.795 619.118 205.973 619.763 206.152L619.628 206.634L619.627 206.636C620.271 206.815 620.915 206.995 621.558 207.178H621.559L621.695 206.696C622.339 206.879 622.983 207.064 623.625 207.25L623.485 207.729H623.484C624.126 207.915 624.767 208.103 625.407 208.292H625.408L625.55 207.812C626.191 208.002 626.832 208.192 627.472 208.385L627.328 208.863L627.327 208.864C627.966 209.056 628.604 209.25 629.242 209.445L629.243 209.444L629.39 208.966C630.029 209.162 630.668 209.359 631.307 209.558L631.157 210.035L631.156 210.036C631.796 210.235 632.435 210.436 633.073 210.639L633.074 210.638L633.226 210.161C633.865 210.364 634.503 210.568 635.141 210.773L634.987 211.249C635.624 211.454 636.259 211.663 636.895 211.871H636.896L637.052 211.396C637.688 211.604 638.324 211.815 638.959 212.027L638.801 212.501L638.8 212.503C639.434 212.715 640.067 212.928 640.7 213.143L640.701 213.141L640.861 212.667C641.495 212.882 642.128 213.099 642.761 213.317L642.598 213.79H642.597C643.228 214.008 643.86 214.226 644.49 214.447L644.655 213.977C645.286 214.198 645.916 214.42 646.546 214.645L646.378 215.115L646.377 215.116C647.006 215.34 647.633 215.566 648.261 215.793L648.262 215.792L648.433 215.322C649.062 215.55 649.691 215.78 650.319 216.011L650.146 216.479L650.146 216.481C650.774 216.712 651.401 216.945 652.028 217.179L652.029 217.178L652.204 216.709C652.832 216.943 653.46 217.179 654.086 217.417L653.908 217.885H653.907C654.533 218.122 655.158 218.36 655.782 218.601L655.963 218.134C656.588 218.374 657.212 218.617 657.835 218.86L657.653 219.326L657.652 219.327C658.275 219.571 658.897 219.816 659.519 220.062L659.52 220.061L659.703 219.596C660.325 219.842 660.947 220.09 661.567 220.34L661.381 220.804L661.38 220.806C661.999 221.055 662.618 221.305 663.236 221.558L663.237 221.557L663.427 221.094C664.046 221.346 664.664 221.601 665.281 221.856L665.09 222.318H665.089C665.706 222.574 666.321 222.831 666.937 223.089H666.938L667.131 222.628C667.749 222.887 668.366 223.149 668.982 223.411L668.787 223.871L668.786 223.872C669.402 224.134 670.017 224.399 670.631 224.664L670.632 224.662L670.83 224.203C671.445 224.469 672.059 224.736 672.673 225.005L672.473 225.463L672.472 225.464C673.084 225.732 673.697 226.001 674.308 226.272L674.309 226.271L674.511 225.814C675.123 226.086 675.734 226.359 676.345 226.634L676.139 227.09C676.748 227.364 677.357 227.64 677.965 227.917L678.173 227.462C678.782 227.739 679.39 228.018 679.997 228.299L679.787 228.753L679.786 228.754C680.393 229.034 680.998 229.317 681.603 229.6L681.604 229.598L681.816 229.146C682.422 229.429 683.027 229.714 683.631 230L683.416 230.452L683.415 230.453C684.019 230.739 684.622 231.026 685.224 231.315L685.225 231.314L685.441 230.864C686.045 231.154 686.649 231.446 687.251 231.739L687.031 232.188C687.633 232.481 688.234 232.777 688.834 233.072L688.835 233.071L689.056 232.623C689.656 232.919 690.256 233.217 690.855 233.516L690.633 233.963L690.632 233.964C691.23 234.262 691.827 234.562 692.424 234.863L692.425 234.862L692.65 234.416C693.248 234.718 693.845 235.021 694.44 235.326L694.213 235.771L694.212 235.772C694.807 236.077 695.401 236.382 695.994 236.689H695.995L696.226 236.245C696.82 236.553 697.413 236.862 698.005 237.173L697.772 237.615H697.771C698.363 237.925 698.954 238.238 699.544 238.551L699.545 238.55L699.779 238.108C700.37 238.422 700.96 238.736 701.549 239.053L701.312 239.493L701.311 239.495C701.9 239.812 702.489 240.129 703.076 240.448L703.077 240.447L703.315 240.008C703.904 240.328 704.492 240.649 705.079 240.972L704.838 241.41H704.837C705.423 241.733 706.008 242.057 706.593 242.382L706.594 242.381L706.837 241.944C707.422 242.27 708.006 242.597 708.589 242.926L708.344 243.361H708.343C708.925 243.689 709.507 244.02 710.088 244.351L710.089 244.35L710.337 243.915C710.918 244.246 711.499 244.579 712.078 244.913L711.829 245.347L711.828 245.348C712.407 245.681 712.985 246.017 713.562 246.354L713.563 246.353L713.815 245.92C714.393 246.257 714.97 246.596 715.546 246.936L715.292 247.366H715.291C715.866 247.706 716.441 248.046 717.015 248.389L717.272 247.959C717.847 248.302 718.42 248.646 718.992 248.991L718.733 249.419C719.306 249.764 719.877 250.113 720.448 250.461L720.449 250.46L720.71 250.033C721.282 250.382 721.853 250.732 722.423 251.084L722.16 251.51L722.159 251.511C722.728 251.862 723.296 252.214 723.863 252.567H723.864L724.129 252.143C724.697 252.497 725.264 252.853 725.83 253.21L725.563 253.633H725.562C726.128 253.989 726.692 254.348 727.256 254.707H727.257L727.526 254.286C728.09 254.646 728.654 255.008 729.216 255.37L728.945 255.79H728.944C729.506 256.152 730.066 256.516 730.626 256.881H730.627L730.9 256.462C731.461 256.827 732.021 257.194 732.579 257.562L732.304 257.979L732.302 257.98C732.86 258.348 733.417 258.717 733.973 259.088L733.975 259.087L734.252 258.671C734.809 259.042 735.364 259.414 735.919 259.788L735.64 260.202L735.639 260.203C736.193 260.577 736.747 260.951 737.3 261.327H737.301L737.582 260.914C738.136 261.291 738.689 261.669 739.24 262.049L738.957 262.46L738.956 262.461C739.507 262.84 740.057 263.221 740.605 263.603L740.606 263.602L740.892 263.191C741.441 263.574 741.99 263.957 742.537 264.342L742.25 264.751L742.249 264.752C742.796 265.136 743.342 265.522 743.887 265.909L743.888 265.908L744.177 265.5C744.722 265.887 745.267 266.277 745.811 266.667L745.52 267.073H745.519C746.061 267.463 746.604 267.854 747.145 268.246L747.438 267.842C747.98 268.235 748.521 268.629 749.061 269.024L748.765 269.427C749.304 269.822 749.841 270.219 750.378 270.617L750.379 270.616L750.677 270.215C751.215 270.613 751.751 271.013 752.287 271.414L751.987 271.814L751.985 271.815C752.521 272.216 753.055 272.618 753.589 273.021L753.59 273.021L753.892 272.621C754.425 273.025 754.958 273.431 755.49 273.837L755.187 274.234H755.186C755.717 274.64 756.247 275.048 756.776 275.456H756.777L757.083 275.06C757.613 275.469 758.142 275.879 758.67 276.291L758.362 276.686H758.361C758.888 277.097 759.414 277.509 759.938 277.923L759.94 277.922L760.25 277.529C760.776 277.943 761.3 278.36 761.823 278.776L761.512 279.167L761.51 279.168C762.033 279.584 762.554 280.002 763.075 280.421L763.077 280.42L763.391 280.03C763.912 280.45 764.433 280.87 764.952 281.292L764.637 281.681L764.636 281.682C765.154 282.103 765.672 282.524 766.188 282.948H766.189L766.507 282.562C767.024 282.987 767.541 283.413 768.056 283.84L767.736 284.224C768.251 284.65 768.764 285.08 769.276 285.509H769.277L769.599 285.125C770.112 285.555 770.624 285.987 771.135 286.419L770.812 286.8L770.81 286.801C771.32 287.233 771.829 287.666 772.338 288.101L772.34 288.1L772.664 287.719C773.173 288.154 773.681 288.59 774.188 289.027L773.86 289.406H773.859C774.365 289.843 774.87 290.281 775.374 290.72H775.375L775.704 290.343C776.208 290.783 776.712 291.224 777.214 291.666L776.884 292.042H776.883C777.384 292.484 777.884 292.928 778.384 293.372L778.385 293.371L778.718 292.997C779.218 293.442 779.716 293.888 780.214 294.335L779.88 294.707L779.878 294.708C780.375 295.155 780.871 295.603 781.366 296.052L781.368 296.051L781.704 295.681C782.2 296.13 782.694 296.582 783.188 297.034L782.85 297.402L782.848 297.403C783.34 297.855 783.833 298.308 784.323 298.762L784.664 298.395C785.155 298.849 785.645 299.305 786.134 299.762L785.792 300.127H785.791C786.279 300.584 786.767 301.042 787.253 301.501H787.254L787.597 301.137C788.083 301.596 788.569 302.058 789.054 302.52L788.708 302.881L788.706 302.882C789.19 303.343 789.672 303.806 790.153 304.27L790.155 304.269L790.503 303.909C790.985 304.373 791.466 304.839 791.945 305.306L791.597 305.664L791.596 305.665C792.075 306.131 792.553 306.598 793.029 307.066L793.381 306.71C793.858 307.179 794.335 307.65 794.81 308.121L794.457 308.476H794.456C794.93 308.946 795.403 309.419 795.875 309.893L795.877 309.892L796.23 309.539C796.703 310.013 797.174 310.488 797.645 310.964L797.289 311.314L797.287 311.315C797.757 311.791 798.225 312.268 798.692 312.746L798.694 312.745L799.052 312.396C799.52 312.874 799.987 313.353 800.452 313.834L800.093 314.183H800.092C800.557 314.663 801.02 315.144 801.482 315.626H801.483L801.845 315.28C802.308 315.763 802.77 316.248 803.23 316.733L802.867 317.077C803.327 317.562 803.786 318.049 804.244 318.536H804.245L804.609 318.193C805.068 318.681 805.525 319.17 805.98 319.66L805.614 320.001H805.613C806.069 320.49 806.523 320.981 806.976 321.473H806.977L807.345 321.135C807.798 321.627 808.25 322.12 808.701 322.614L808.332 322.951L808.33 322.952C808.78 323.446 809.23 323.94 809.678 324.437L810.05 324.101C810.498 324.597 810.946 325.096 811.392 325.595L811.018 325.928C811.463 326.426 811.907 326.925 812.35 327.426H812.351L812.726 327.095C813.169 327.596 813.611 328.098 814.052 328.602L813.676 328.931H813.674C814.114 329.434 814.554 329.937 814.992 330.442H814.993L815.371 330.114C815.81 330.62 816.248 331.127 816.684 331.635L816.304 331.961H816.303C816.738 332.468 817.173 332.976 817.605 333.485H817.606L817.987 333.162C818.421 333.672 818.854 334.183 819.285 334.695L818.902 335.018H818.901C819.332 335.529 819.76 336.043 820.188 336.557L820.19 336.556L820.574 336.236C821.002 336.75 821.429 337.265 821.854 337.781L821.469 338.1H821.467C821.892 338.615 822.316 339.132 822.738 339.649H822.74L823.128 339.333C823.551 339.851 823.972 340.37 824.393 340.891L824.004 341.205H824.003C824.423 341.725 824.841 342.246 825.259 342.768L825.65 342.455C826.068 342.978 826.485 343.502 826.9 344.026L826.509 344.337H826.508C826.923 344.861 827.336 345.386 827.748 345.912H827.749L828.143 345.604C828.555 346.13 828.968 346.658 829.378 347.188L828.982 347.494H828.98C829.39 348.023 829.799 348.552 830.206 349.083H830.208L830.604 348.778C831.012 349.309 831.418 349.842 831.823 350.375L831.426 350.678H831.424C831.828 351.21 832.233 351.743 832.635 352.278H832.636L833.035 351.978C833.437 352.512 833.837 353.048 834.236 353.584L833.834 353.883C834.233 354.418 834.629 354.955 835.025 355.493H835.027L835.43 355.197C835.826 355.736 836.222 356.276 836.616 356.816L836.212 357.11L836.21 357.111C836.603 357.651 836.996 358.192 837.387 358.734H837.389L837.794 358.441C838.185 358.984 838.575 359.528 838.964 360.073L838.557 360.363H838.556C838.944 360.908 839.331 361.453 839.717 361.999L840.126 361.711C840.512 362.258 840.897 362.806 841.28 363.354L840.871 363.641H840.869C841.252 364.189 841.633 364.739 842.014 365.289H842.016L842.427 365.005C842.807 365.556 843.187 366.108 843.565 366.661L843.152 366.942L843.15 366.943C843.528 367.495 843.904 368.048 844.278 368.602H844.28L844.694 368.321C845.069 368.875 845.442 369.43 845.813 369.985L845.398 370.264H845.396C845.768 370.819 846.139 371.374 846.508 371.931L846.925 371.655C847.294 372.213 847.662 372.772 848.028 373.332L847.61 373.605H847.608C847.974 374.165 848.339 374.725 848.702 375.286H848.704L849.124 375.015C849.488 375.576 849.85 376.139 850.211 376.702L849.79 376.972L849.788 376.973C850.149 377.535 850.508 378.099 850.865 378.664H850.867L851.29 378.396C851.648 378.962 852.005 379.529 852.36 380.097L851.938 380.361H851.936C852.291 380.928 852.646 381.496 852.998 382.064L853.424 381.802C853.777 382.371 854.128 382.942 854.478 383.514L854.051 383.774H854.05C854.399 384.344 854.745 384.915 855.091 385.486L855.094 385.485L855.521 385.227C855.868 385.798 856.212 386.371 856.556 386.944L856.127 387.202H856.125C856.468 387.775 856.81 388.348 857.15 388.923H857.152L857.582 388.669C857.923 389.244 858.263 389.821 858.601 390.398L858.168 390.65C858.506 391.227 858.842 391.805 859.177 392.384L859.61 392.133C859.946 392.712 860.279 393.293 860.611 393.874L860.178 394.122H860.176C860.508 394.702 860.838 395.284 861.167 395.866H861.169L861.604 395.62C861.934 396.203 862.262 396.787 862.589 397.372L862.152 397.616H862.15C862.477 398.2 862.802 398.785 863.126 399.371H863.127L863.564 399.129C863.888 399.715 864.211 400.303 864.532 400.892L864.092 401.131C864.411 401.717 864.729 402.303 865.046 402.891L865.487 402.653C865.804 403.242 866.12 403.831 866.435 404.421L865.993 404.656H865.991C866.305 405.246 866.618 405.836 866.929 406.427H866.931L867.373 406.194C867.684 406.786 867.994 407.379 868.303 407.973L867.859 408.203H867.857C868.166 408.796 868.473 409.39 868.778 409.984H868.779L869.225 409.757C869.53 410.352 869.835 410.949 870.138 411.546L869.69 411.771C869.993 412.368 870.293 412.965 870.593 413.563L871.041 413.34C871.341 413.939 871.639 414.539 871.937 415.14L871.488 415.361H871.486C871.783 415.961 872.078 416.562 872.372 417.164H872.374L872.823 416.944C873.117 417.546 873.41 418.148 873.7 418.751L873.25 418.969H873.248C873.538 419.569 873.826 420.171 874.112 420.773H874.114L874.565 420.559C874.853 421.162 875.139 421.767 875.423 422.372L874.969 422.584C875.253 423.189 875.534 423.794 875.815 424.4H875.817L876.271 424.189C876.552 424.796 876.832 425.404 877.11 426.013L876.655 426.221H876.653C876.931 426.829 877.208 427.437 877.483 428.047H877.485L877.94 427.841C878.216 428.451 878.49 429.062 878.763 429.674L878.306 429.877H878.304C878.576 430.488 878.847 431.1 879.116 431.713L879.575 431.512C879.845 432.125 880.112 432.739 880.379 433.354L879.921 433.554H879.919C880.185 434.168 880.449 434.783 880.712 435.399H880.715L881.175 435.203C881.437 435.818 881.698 436.433 881.958 437.05L881.497 437.244H881.495C881.754 437.859 882.012 438.474 882.268 439.09H882.27L882.731 438.898C882.988 439.515 883.243 440.133 883.496 440.752L883.033 440.941H883.031C883.284 441.559 883.537 442.177 883.787 442.797L884.252 442.61C884.502 443.23 884.751 443.852 884.998 444.474L884.533 444.658H884.531C884.778 445.279 885.024 445.901 885.268 446.523H885.271L885.735 446.341C885.98 446.964 886.223 447.589 886.464 448.214L885.998 448.394H885.996C886.237 449.018 886.477 449.643 886.715 450.269H886.716L887.184 450.091C887.422 450.717 887.658 451.345 887.894 451.973L887.425 452.147C887.66 452.775 887.893 453.403 888.125 454.032H888.126L888.595 453.858C888.826 454.485 889.056 455.113 889.284 455.741L888.814 455.911H888.812C889.039 456.538 889.266 457.166 889.49 457.794H889.492L889.963 457.626C890.188 458.255 890.411 458.885 890.633 459.516L890.161 459.681H890.16C890.382 460.31 890.602 460.941 890.82 461.572L891.294 461.409C891.513 462.041 891.73 462.674 891.945 463.308L891.473 463.469H891.472C891.687 464.101 891.9 464.735 892.112 465.369H892.114L892.588 465.21C892.801 465.845 893.012 466.481 893.222 467.117L892.747 467.273H892.744C892.953 467.909 893.161 468.546 893.367 469.183H893.37L893.846 469.029C894.052 469.667 894.258 470.306 894.461 470.945L893.984 471.097H893.982C894.186 471.735 894.389 472.374 894.589 473.014L895.066 472.865C895.265 473.502 895.463 474.139 895.659 474.777L895.181 474.924H895.179C895.374 475.561 895.568 476.199 895.761 476.838H895.763L896.242 476.693C896.435 477.333 896.626 477.973 896.815 478.614L896.336 478.756H896.334C896.524 479.396 896.712 480.037 896.898 480.679H896.9L897.381 480.539C897.567 481.181 897.752 481.824 897.936 482.468L897.454 482.604C897.637 483.247 897.819 483.891 897.999 484.535H898L898.481 484.4C898.662 485.045 898.841 485.692 899.019 486.338L898.536 486.47H898.534C898.711 487.115 898.886 487.761 899.06 488.408H899.062L899.546 488.278C899.72 488.926 899.892 489.575 900.063 490.224L899.58 490.352H899.578C899.749 490.999 899.918 491.648 900.086 492.297H900.088L900.571 492.172C900.738 492.817 900.903 493.464 901.066 494.111L900.582 494.233H900.581C900.744 494.879 900.905 495.526 901.065 496.174H901.067L901.553 496.054C901.713 496.702 901.872 497.351 902.029 498L901.543 498.118H901.541C901.698 498.767 901.854 499.416 902.008 500.065H902.01L902.496 499.95C902.65 500.601 902.803 501.252 902.954 501.904L902.467 502.018H902.466C902.617 502.669 902.765 503.32 902.913 503.973H902.914L903.402 503.863C903.55 504.516 903.696 505.17 903.841 505.824L903.353 505.933H903.351C903.495 506.586 903.637 507.241 903.778 507.896H903.781L904.27 507.79C904.411 508.446 904.551 509.103 904.689 509.76L904.2 509.862H904.198C904.336 510.518 904.474 511.175 904.608 511.832L905.1 511.732C905.234 512.385 905.366 513.039 905.497 513.692L905.007 513.79H905.005C905.136 514.443 905.264 515.097 905.392 515.752H905.394L905.885 515.656C906.012 516.311 906.138 516.967 906.263 517.623L905.771 517.717H905.769C905.893 518.372 906.017 519.028 906.138 519.685H906.14L906.631 519.595C906.752 520.252 906.872 520.911 906.99 521.569L906.498 521.656C906.616 522.314 906.731 522.973 906.846 523.633H906.848L907.34 523.547C907.455 524.207 907.568 524.867 907.68 525.528L907.187 525.611H907.185C907.296 526.272 907.406 526.933 907.515 527.595H907.517L908.011 527.514C908.119 528.176 908.226 528.839 908.331 529.502L907.837 529.58H907.836C907.941 530.243 908.045 530.906 908.147 531.57H908.148L908.643 531.494C908.744 532.152 908.842 532.811 908.94 533.471L908.446 533.545H908.444C908.542 534.203 908.638 534.862 908.732 535.521H908.735L909.229 535.451C909.324 536.111 909.418 536.772 909.51 537.434L909.014 537.502H909.012C909.103 538.163 909.194 538.824 909.282 539.486H909.283L909.779 539.42C909.868 540.083 909.955 540.746 910.04 541.41L909.544 541.474H909.542C909.627 542.137 909.71 542.8 909.792 543.464H909.794L910.29 543.402C910.372 544.067 910.453 544.733 910.531 545.398L910.034 545.457H910.032C910.111 546.122 910.188 546.788 910.264 547.454H910.266L910.763 547.397C910.838 548.064 910.912 548.732 910.984 549.4L910.487 549.454H910.486C910.558 550.121 910.628 550.789 910.697 551.457H910.698L911.196 551.406C911.265 552.069 911.331 552.733 911.396 553.397L910.898 553.446H910.896C910.961 554.109 911.025 554.771 911.087 555.435H911.089L911.587 555.388C911.649 556.052 911.709 556.717 911.768 557.382L911.27 557.426H911.269C911.327 558.09 911.384 558.754 911.439 559.419L911.938 559.378C911.994 560.044 912.048 560.71 912.101 561.377L911.602 561.416H911.6C911.652 562.082 911.702 562.749 911.751 563.416H911.754L912.252 563.38C912.301 564.048 912.349 564.716 912.395 565.385L911.896 565.419H911.894C911.939 566.087 911.985 566.755 912.027 567.424L912.526 567.393C912.569 568.062 912.61 568.733 912.649 569.404L912.15 569.434H912.148C912.188 570.103 912.224 570.774 912.26 571.444H912.263L912.763 571.418L912.815 572.426C912.833 572.762 912.849 573.099 912.865 573.436L912.366 573.46H912.363C912.396 574.131 912.428 574.802 912.457 575.473H912.459L912.959 575.45C912.988 576.121 913.016 576.792 913.042 577.463L912.541 577.482C912.567 578.152 912.591 578.822 912.613 579.491H912.615L913.114 579.475C913.137 580.145 913.158 580.814 913.178 581.483L912.678 581.498H912.676C912.695 582.167 912.713 582.835 912.729 583.503H912.731L913.231 583.491C913.248 584.16 913.262 584.829 913.274 585.497L912.773 585.506C912.786 586.173 912.796 586.84 912.806 587.507H912.808L913.308 587.5C913.317 588.167 913.325 588.835 913.331 589.502L912.831 589.506H912.828C912.834 590.172 912.839 590.838 912.842 591.503H912.845L913.345 591.501C913.348 592.169 913.349 592.836 913.349 593.503H912.849L912.847 593.502C912.846 594.174 912.846 594.845 912.842 595.516L912.843 595.517L913.343 595.52C913.339 596.191 913.333 596.863 913.326 597.534L912.826 597.529L912.824 597.528C912.817 598.199 912.808 598.869 912.798 599.538L912.8 599.539L913.3 599.547C913.289 600.217 913.277 600.887 913.264 601.557L912.764 601.547L912.762 601.546C912.748 602.215 912.734 602.883 912.717 603.551L912.718 603.552L913.218 603.564C913.201 604.233 913.182 604.902 913.162 605.57L912.662 605.556L912.66 605.555C912.64 606.222 912.617 606.889 912.594 607.556L912.597 607.557L913.096 607.574C913.072 608.242 913.047 608.909 913.021 609.575L912.521 609.555L912.519 609.554C912.492 610.22 912.463 610.885 912.433 611.551L912.435 611.552L912.935 611.574C912.904 612.24 912.872 612.906 912.839 613.571L912.34 613.546L912.339 613.545C912.305 614.216 912.269 614.886 912.232 615.556L912.233 615.557L912.732 615.585C912.695 616.256 912.657 616.926 912.616 617.596L912.117 617.565L912.115 617.564C912.075 618.233 912.033 618.902 911.989 619.57L911.991 619.571L912.49 619.604C912.447 620.272 912.402 620.941 912.354 621.609L911.855 621.575L911.854 621.574C911.808 622.241 911.759 622.908 911.709 623.574L911.71 623.575L912.208 623.613C912.158 624.281 912.106 624.948 912.053 625.614L911.554 625.574L911.552 625.573C911.498 626.239 911.443 626.904 911.386 627.569L911.389 627.57L911.887 627.612C911.83 628.278 911.771 628.944 911.711 629.608L911.213 629.563L911.211 629.562C911.151 630.226 911.09 630.89 911.026 631.553L911.028 631.554L911.525 631.602C911.462 632.265 911.398 632.929 911.331 633.592L910.833 633.542L910.832 633.541C910.765 634.208 910.695 634.875 910.625 635.542L910.627 635.543L911.124 635.596C911.053 636.263 910.981 636.931 910.907 637.598L910.41 637.542L910.408 637.541C910.334 638.207 910.259 638.873 910.182 639.538L910.185 639.539L910.681 639.597C910.604 640.263 910.525 640.928 910.444 641.593L909.948 641.533L909.946 641.532C909.866 642.197 909.786 642.861 909.702 643.524L910.198 643.587C910.115 644.251 910.029 644.914 909.942 645.577L909.447 645.513L909.444 645.512C909.358 646.174 909.269 646.836 909.179 647.497L909.182 647.498L909.677 647.565C909.587 648.227 909.495 648.889 909.401 649.55L908.906 649.48L908.904 649.479C908.811 650.14 908.717 650.8 908.62 651.459L908.621 651.46L909.116 651.532C909.02 652.192 908.921 652.852 908.821 653.511L908.326 653.436C908.226 654.099 908.122 654.761 908.019 655.423L908.021 655.424L908.515 655.501C908.411 656.164 908.305 656.827 908.198 657.489L907.704 657.409L907.702 657.408C907.595 658.07 907.486 658.73 907.376 659.391L907.378 659.392L907.871 659.474C907.761 660.135 907.649 660.795 907.535 661.455L907.042 661.371L907.041 661.37C906.927 662.029 906.813 662.688 906.696 663.346L906.697 663.347L907.189 663.435C907.073 664.093 906.953 664.751 906.833 665.409L906.342 665.319L906.34 665.318C906.22 665.975 906.098 666.632 905.975 667.288L905.977 667.289L906.468 667.382C906.344 668.039 906.219 668.695 906.093 669.351L905.603 669.256L905.601 669.255C905.474 669.91 905.346 670.564 905.217 671.218L905.218 671.219L905.708 671.316C905.578 671.971 905.447 672.626 905.314 673.279L904.823 673.179C904.689 673.836 904.553 674.492 904.416 675.148L904.418 675.149L904.907 675.251C904.77 675.908 904.632 676.564 904.491 677.22L904.002 677.115L904 677.114C903.86 677.769 903.719 678.423 903.575 679.077L903.577 679.078L904.065 679.186C903.922 679.84 903.777 680.493 903.63 681.146L903.143 681.037L903.14 681.036C902.993 681.689 902.846 682.341 902.696 682.992L902.697 682.993L903.185 683.105C903.035 683.758 902.884 684.41 902.73 685.061L902.243 684.945L902.242 684.944C902.089 685.595 901.934 686.244 901.778 686.894L901.779 686.895L902.266 687.012C902.109 687.662 901.952 688.311 901.792 688.96L901.307 688.84L901.304 688.839C901.144 689.487 900.984 690.134 900.821 690.781L900.824 690.782L901.309 690.904C901.146 691.552 900.981 692.2 900.815 692.847L900.331 692.723L900.33 692.722C900.163 693.371 899.996 694.02 899.826 694.668L900.311 694.795C900.141 695.444 899.969 696.092 899.796 696.739L899.312 696.609L899.312 696.608C899.139 697.255 898.963 697.901 898.787 698.547L898.789 698.548L899.271 698.68C899.095 699.326 898.917 699.972 898.737 700.617L898.256 700.482L898.254 700.481C898.075 701.126 897.894 701.769 897.712 702.412L897.714 702.413L898.194 702.55C898.012 703.194 897.827 703.837 897.642 704.479L897.161 704.341L897.16 704.34C896.975 704.981 896.787 705.622 896.599 706.263L896.601 706.264L897.08 706.405C896.891 707.046 896.701 707.687 896.509 708.327L896.029 708.184L896.027 708.183C895.836 708.822 895.642 709.46 895.447 710.098L895.449 710.099L895.928 710.245C895.732 710.885 895.535 711.524 895.336 712.162L894.858 712.014L894.856 712.013C894.657 712.652 894.458 713.291 894.256 713.93L894.257 713.931L894.734 714.081C894.532 714.72 894.328 715.359 894.122 715.997L893.646 715.844L893.645 715.843C893.439 716.48 893.232 717.116 893.023 717.752L893.025 717.753L893.501 717.908C893.292 718.545 893.082 719.18 892.87 719.815L892.396 719.657L892.394 719.656C892.182 720.291 891.969 720.925 891.755 721.558L891.757 721.559L892.23 721.719C892.016 722.352 891.8 722.986 891.582 723.618L891.108 723.455L891.107 723.454C890.89 724.086 890.671 724.717 890.45 725.347L890.451 725.348L890.923 725.513C890.702 726.144 890.48 726.774 890.256 727.403L889.784 727.236L889.783 727.235C889.559 727.864 889.333 728.492 889.106 729.119L889.108 729.12L889.579 729.29C889.351 729.92 889.122 730.549 888.892 731.177L888.422 731.005L888.42 731.004C888.189 731.633 887.957 732.26 887.723 732.888L887.725 732.889L888.193 733.062C887.959 733.69 887.724 734.318 887.486 734.944L887.019 734.768L887.017 734.767C886.78 735.392 886.542 736.017 886.302 736.642L886.303 736.643L886.77 736.821C886.529 737.446 886.287 738.071 886.044 738.694L885.578 738.513L885.577 738.512C885.334 739.135 885.089 739.757 884.843 740.378L884.845 740.379L885.31 740.562C885.063 741.185 884.815 741.806 884.565 742.427L884.102 742.24L884.1 742.239C883.85 742.859 883.601 743.478 883.349 744.097L883.35 744.098L883.812 744.286C883.56 744.905 883.306 745.524 883.051 746.142L882.589 745.95C882.334 746.567 882.076 747.183 881.818 747.798L882.28 747.992C882.021 748.61 881.76 749.227 881.498 749.844L881.038 749.647L881.036 749.646C880.774 750.263 880.51 750.878 880.245 751.492L880.247 751.493L880.706 751.691C880.441 752.306 880.174 752.921 879.905 753.534L879.447 753.334L879.445 753.333C879.177 753.946 878.908 754.558 878.637 755.169L878.639 755.17L879.096 755.373C878.824 755.985 878.552 756.597 878.277 757.207L877.821 757.002C877.547 757.611 877.271 758.219 876.994 758.827L876.995 758.828L877.45 759.035C877.173 759.644 876.894 760.253 876.613 760.86L876.16 760.65L876.158 760.649C875.878 761.256 875.596 761.862 875.313 762.467L875.315 762.468L875.769 762.68C875.485 763.285 875.2 763.89 874.914 764.494L874.463 764.28L874.46 764.279C874.174 764.883 873.888 765.486 873.6 766.088L874.051 766.305C873.761 766.909 873.47 767.513 873.177 768.115L872.727 767.896C872.434 768.497 872.139 769.098 871.844 769.698L871.845 769.699L872.294 769.92C871.998 770.521 871.701 771.121 871.402 771.721L870.954 771.497L870.952 771.496C870.654 772.095 870.354 772.692 870.053 773.289L870.055 773.29L870.501 773.516C870.199 774.113 869.896 774.71 869.592 775.306L869.146 775.078L869.145 775.077C868.84 775.672 868.536 776.267 868.229 776.86L868.229 776.861L868.674 777.091C868.366 777.685 868.057 778.279 867.747 778.871L867.305 778.639L867.304 778.638C866.994 779.23 866.682 779.821 866.369 780.411L866.37 780.412L866.812 780.646C866.498 781.237 866.184 781.827 865.868 782.416L865.428 782.18L865.426 782.179C865.11 782.768 864.792 783.356 864.473 783.943L864.475 783.944L864.914 784.183C864.594 784.771 864.274 785.359 863.951 785.946L863.513 785.705L863.512 785.704C863.189 786.291 862.866 786.876 862.541 787.461L862.979 787.704C862.653 788.289 862.326 788.875 861.998 789.458L861.562 789.212C861.235 789.795 860.904 790.376 860.573 790.957L860.574 790.958L861.009 791.205C860.678 791.787 860.346 792.367 860.012 792.947L859.578 792.698L859.576 792.697C859.243 793.276 858.908 793.854 858.571 794.432L858.573 794.433L859.006 794.685C858.669 795.263 858.331 795.84 857.991 796.416L857.561 796.162L857.559 796.161C857.219 796.737 856.879 797.312 856.537 797.886L856.538 797.887L856.968 798.143C856.625 798.717 856.282 799.291 855.937 799.863L855.509 799.604L855.508 799.604C855.162 800.177 854.815 800.749 854.467 801.32L854.468 801.321L854.896 801.581C854.547 802.153 854.196 802.724 853.845 803.294L853.42 803.031L853.418 803.03C853.067 803.6 852.715 804.168 852.361 804.735L852.362 804.736L852.787 805.001C852.433 805.569 852.077 806.137 851.72 806.703L851.297 806.437L851.296 806.436C850.94 807.001 850.582 807.565 850.223 808.129L850.224 808.13L850.646 808.398C850.286 808.963 849.924 809.526 849.562 810.089L849.142 809.818L849.141 809.817C848.779 810.379 848.415 810.94 848.05 811.5L848.052 811.501L848.471 811.773C848.106 812.334 847.739 812.894 847.371 813.452L846.953 813.178L846.951 813.177C846.584 813.734 846.215 814.291 845.845 814.847L845.847 814.849L846.263 815.126C845.892 815.683 845.52 816.239 845.146 816.794L844.731 816.515L844.729 816.514C844.356 817.068 843.982 817.623 843.606 818.176L844.021 818.458C843.644 819.011 843.266 819.564 842.887 820.115L842.475 819.832L842.474 819.831C842.095 820.382 841.715 820.932 841.333 821.481L841.334 821.482L841.745 821.768C841.363 822.317 840.979 822.866 840.595 823.414L840.186 823.126L840.184 823.125C839.799 823.672 839.414 824.218 839.027 824.763L839.029 824.765L839.437 825.054C839.049 825.599 838.661 826.145 838.271 826.688L837.864 826.396L837.863 826.396C837.474 826.939 837.083 827.481 836.69 828.022L836.692 828.023L837.097 828.316C836.704 828.858 836.31 829.399 835.915 829.938L835.511 829.643C835.116 830.182 834.719 830.72 834.321 831.257L834.323 831.258L834.725 831.555C834.326 832.093 833.927 832.63 833.526 833.166L833.126 832.866L833.124 832.864C832.724 833.4 832.322 833.934 831.919 834.468L831.921 834.47L832.319 834.771C831.916 835.305 831.511 835.838 831.104 836.37L830.707 836.067L830.706 836.066C830.3 836.598 829.894 837.128 829.485 837.657L829.882 837.964C829.473 838.494 829.063 839.023 828.651 839.551L828.258 839.243L828.256 839.242C827.845 839.769 827.433 840.295 827.02 840.82L827.021 840.821L827.414 841.131C827 841.657 826.585 842.181 826.168 842.705L825.776 842.394L825.775 842.393C825.359 842.916 824.941 843.437 824.522 843.958L824.524 843.96L824.914 844.273C824.495 844.795 824.074 845.316 823.652 845.835L823.265 845.52L823.264 845.519C822.842 846.037 822.42 846.555 821.996 847.072L822.384 847.39C821.959 847.907 821.533 848.424 821.106 848.939L820.722 848.62L820.721 848.619C820.294 849.134 819.866 849.648 819.437 850.161L819.438 850.162L819.821 850.482C819.392 850.996 818.96 851.508 818.528 852.02L818.146 851.696L818.145 851.695C817.713 852.206 817.281 852.715 816.847 853.223L816.849 853.225L817.229 853.55C816.794 854.059 816.358 854.567 815.921 855.073L815.542 854.746L815.541 854.745C815.104 855.251 814.667 855.757 814.228 856.261L814.229 856.262L814.605 856.59C814.166 857.094 813.725 857.598 813.283 858.101L812.907 857.77C812.466 858.271 812.021 858.771 811.577 859.271L811.579 859.272L811.953 859.604C811.508 860.105 811.062 860.604 810.615 861.102L810.243 860.768L810.241 860.766C809.794 861.263 809.348 861.761 808.898 862.256L808.899 862.257L809.271 862.592C808.821 863.088 808.37 863.583 807.918 864.076L807.549 863.738L807.548 863.737C807.096 864.23 806.644 864.722 806.19 865.213L806.558 865.554C806.103 866.045 805.647 866.535 805.19 867.023L804.825 866.683L804.824 866.682C804.368 867.17 803.911 867.657 803.452 868.143L803.453 868.144L803.816 868.487C803.357 868.974 802.896 869.46 802.435 869.944L802.072 869.599L802.071 869.598C801.61 870.081 801.147 870.563 800.684 871.045L800.686 871.047L801.046 871.394C800.582 871.876 800.116 872.357 799.649 872.837L799.291 872.488L799.289 872.486C798.823 872.966 798.357 873.445 797.889 873.922L798.246 874.273C797.777 874.751 797.306 875.227 796.835 875.702L796.48 875.35C796.01 875.824 795.537 876.296 795.063 876.769L795.064 876.77L795.418 877.124C794.945 877.597 794.47 878.068 793.994 878.538L793.643 878.183L793.641 878.181C793.165 878.651 792.689 879.119 792.211 879.587L792.213 879.589L792.562 879.946C792.084 880.414 791.605 880.881 791.124 881.347L790.776 880.987L790.775 880.986C790.295 881.452 789.814 881.915 789.331 882.378L789.332 882.379L789.679 882.74C789.196 883.204 788.711 883.665 788.226 884.126L787.882 883.764L787.881 883.763C787.396 884.223 786.909 884.682 786.422 885.14L786.424 885.142L786.767 885.506C786.279 885.964 785.79 886.422 785.3 886.878L784.959 886.512L784.957 886.51C784.468 886.965 783.978 887.42 783.486 887.873L783.487 887.875L783.826 888.242C783.334 888.696 782.841 889.148 782.347 889.6L782.01 889.23L782.009 889.229C781.515 889.679 781.02 890.129 780.524 890.577L780.525 890.578L780.86 890.949C780.364 891.398 779.867 891.845 779.368 892.291L779.035 891.918L779.034 891.917C778.536 892.363 778.037 892.807 777.536 893.25L777.868 893.625C777.367 894.069 776.865 894.511 776.362 894.952L776.032 894.576L776.031 894.575C775.529 895.016 775.025 895.455 774.521 895.893L774.521 895.895L774.85 896.272C774.344 896.711 773.837 897.149 773.329 897.585L773.004 897.205L773.003 897.204C772.496 897.64 771.987 898.074 771.478 898.508L771.479 898.509L771.803 898.89C771.293 899.323 770.782 899.756 770.27 900.188L769.947 899.805L769.946 899.804C769.435 900.234 768.922 900.664 768.408 901.092L768.41 901.094L768.729 901.478C768.216 901.906 767.701 902.333 767.185 902.759L766.866 902.373L766.864 902.371C766.349 902.796 765.833 903.22 765.315 903.643L765.317 903.645L765.634 904.032C765.116 904.455 764.596 904.877 764.076 905.298L763.762 904.909L763.76 904.907C763.24 905.327 762.721 905.748 762.199 906.165L762.513 906.557C761.99 906.975 761.466 907.391 760.941 907.807L760.631 907.415L760.63 907.414C760.106 907.829 759.581 908.243 759.055 908.655L759.056 908.656L759.364 909.05C758.838 909.463 758.31 909.875 757.781 910.285L757.475 909.89L757.474 909.889C756.945 910.299 756.415 910.707 755.885 911.114L755.887 911.116L756.191 911.513C755.66 911.921 755.128 912.327 754.595 912.732L754.292 912.334L754.291 912.333C753.759 912.738 753.226 913.142 752.691 913.544L752.992 913.944C752.458 914.346 751.923 914.747 751.387 915.146L751.088 914.745L751.087 914.744C750.551 915.143 750.014 915.54 749.476 915.937L749.478 915.938L749.774 916.341C749.236 916.738 748.696 917.133 748.155 917.527L747.86 917.123L747.858 917.121C747.319 917.515 746.778 917.907 746.236 918.298L746.238 918.3L746.53 918.706C745.988 919.097 745.444 919.487 744.899 919.876L744.608 919.47L744.607 919.468C744.063 919.856 743.519 920.244 742.973 920.63L743.262 921.039C742.715 921.425 742.168 921.811 741.619 922.194L741.332 921.784L741.331 921.783C740.783 922.166 740.234 922.548 739.684 922.929L739.685 922.93L739.969 923.341C739.418 923.722 738.866 924.101 738.313 924.479L738.031 924.067L738.029 924.065C737.478 924.443 736.925 924.819 736.371 925.193L736.373 925.195L736.653 925.609C736.1 925.984 735.545 926.357 734.989 926.729L734.711 926.314L734.71 926.312C734.155 926.684 733.601 927.056 733.044 927.425L733.319 927.842C732.762 928.211 732.203 928.58 731.644 928.946L731.37 928.527L731.369 928.526C730.81 928.892 730.25 929.257 729.689 929.62L729.69 929.622L729.962 930.042C729.4 930.406 728.838 930.769 728.274 931.13L728.005 930.709L728.003 930.706C727.44 931.067 726.876 931.427 726.312 931.785L726.312 931.787L726.581 932.209C726.016 932.567 725.448 932.925 724.881 933.28L724.615 932.857L724.614 932.855C724.047 933.211 723.481 933.566 722.912 933.919L723.176 934.344C722.606 934.697 722.036 935.048 721.465 935.398L721.203 934.973L721.202 934.972C720.633 935.321 720.062 935.667 719.491 936.014L719.492 936.016L719.752 936.443C719.18 936.79 718.608 937.135 718.034 937.479L717.777 937.05L717.775 937.047C717.203 937.39 716.629 937.733 716.055 938.073L716.056 938.075L716.311 938.506C715.735 938.847 715.159 939.186 714.582 939.524L714.329 939.093L714.328 939.092C713.752 939.429 713.175 939.767 712.597 940.102L712.847 940.534C712.268 940.87 711.687 941.204 711.106 941.536L710.858 941.103L710.857 941.102C710.277 941.434 709.695 941.763 709.113 942.093L709.114 942.095L709.36 942.53C708.778 942.86 708.194 943.189 707.609 943.516L707.365 943.079L707.363 943.076C706.779 943.403 706.194 943.728 705.608 944.052L705.61 944.055L705.853 944.492C705.266 944.816 704.678 945.139 704.09 945.46L703.851 945.021L703.85 945.02C703.264 945.339 702.677 945.658 702.09 945.975L702.091 945.976L702.328 946.416C701.74 946.733 701.151 947.049 700.562 947.363L700.326 946.923L700.325 946.921C699.736 947.235 699.146 947.547 698.555 947.858L698.556 947.86L698.788 948.303C698.196 948.614 697.604 948.925 697.011 949.233L696.779 948.79L696.778 948.788C696.185 949.096 695.592 949.403 694.997 949.709L694.998 949.711L695.227 950.155C694.631 950.461 694.036 950.766 693.438 951.069L693.212 950.623C692.615 950.926 692.017 951.226 691.419 951.525L691.42 951.526L691.645 951.974C691.046 952.274 690.445 952.573 689.845 952.87L689.623 952.422L689.622 952.42C689.022 952.717 688.422 953.012 687.82 953.306L687.821 953.308L688.04 953.757C687.439 954.051 686.836 954.344 686.233 954.635L686.017 954.185L686.016 954.182C685.414 954.472 684.813 954.761 684.21 955.048L684.211 955.05L684.427 955.501C683.824 955.788 683.219 956.074 682.614 956.358L682.4 955.905C681.796 956.189 681.191 956.471 680.585 956.752L680.586 956.754L680.796 957.207C680.189 957.489 679.582 957.769 678.974 958.048L678.766 957.593L678.765 957.591C678.157 957.869 677.548 958.146 676.938 958.421L676.939 958.423L677.146 958.879C676.536 959.154 675.925 959.429 675.313 959.701L675.109 959.244L675.108 959.242C674.497 959.515 673.886 959.786 673.273 960.056L673.274 960.057L673.476 960.515C672.862 960.784 672.248 961.053 671.633 961.319L671.434 960.86L671.433 960.859C670.819 961.126 670.204 961.39 669.588 961.653L669.589 961.655L669.785 962.115C669.17 962.378 668.555 962.639 667.938 962.899L667.744 962.438L667.743 962.437C667.128 962.696 666.513 962.954 665.896 963.21L665.897 963.212L666.09 963.674C665.473 963.93 664.855 964.185 664.236 964.438L664.047 963.977L664.046 963.975C663.428 964.228 662.81 964.48 662.19 964.73L662.191 964.731L662.379 965.195C661.759 965.446 661.137 965.695 660.516 965.942L660.331 965.478L660.33 965.476C659.709 965.723 659.087 965.969 658.465 966.213L658.466 966.215L658.648 966.681C658.025 966.925 657.401 967.169 656.776 967.41L656.596 966.943L656.595 966.941C655.971 967.183 655.346 967.423 654.721 967.661L654.722 967.663L654.899 968.13C654.273 968.368 653.646 968.605 653.018 968.841L652.842 968.373L652.841 968.372C652.214 968.607 651.586 968.84 650.957 969.072L650.958 969.074L651.132 969.543C650.505 969.774 649.878 970.004 649.25 970.232L649.079 969.763L649.078 969.761C648.451 969.989 647.824 970.215 647.195 970.439L647.196 970.441L647.365 970.912C646.736 971.137 646.106 971.361 645.476 971.583L645.31 971.111L645.309 971.109C644.679 971.331 644.049 971.553 643.418 971.771L643.582 972.245C642.95 972.464 642.318 972.682 641.685 972.897L641.522 972.424C640.89 972.639 640.256 972.852 639.622 973.064L639.623 973.066L639.781 973.541C639.147 973.754 638.511 973.965 637.875 974.175L637.718 973.7L637.717 973.697C637.081 973.907 636.445 974.115 635.809 974.321L635.81 974.324L635.964 974.8C635.326 975.007 634.687 975.211 634.048 975.415L633.896 974.938L633.895 974.938C633.256 975.141 632.617 975.343 631.978 975.543L631.979 975.544L632.128 976.021C631.491 976.221 630.854 976.418 630.216 976.614L630.068 976.137L630.067 976.135C629.43 976.331 628.793 976.525 628.154 976.718L628.155 976.72L628.3 977.198C627.66 977.391 627.02 977.583 626.379 977.773L626.237 977.294L626.236 977.292C625.596 977.482 624.956 977.671 624.314 977.857L624.455 978.339C623.813 978.526 623.17 978.711 622.526 978.895L622.389 978.414C621.746 978.598 621.102 978.778 620.458 978.958L620.459 978.96L620.594 979.441C619.949 979.622 619.303 979.801 618.656 979.979L618.524 979.496L618.523 979.494C617.878 979.671 617.232 979.847 616.585 980.021L616.586 980.023L616.716 980.507C616.068 980.681 615.42 980.854 614.771 981.025L614.644 980.542L614.643 980.54C613.995 980.711 613.346 980.882 612.697 981.05L612.822 981.534C612.177 981.701 611.531 981.867 610.884 982.03L610.762 981.545L610.761 981.544C610.115 981.708 609.468 981.869 608.82 982.029L608.821 982.031L608.941 982.517C608.293 982.677 607.644 982.837 606.995 982.994L606.877 982.508L606.876 982.506C606.227 982.663 605.579 982.819 604.929 982.974L604.93 982.976L605.045 983.462C604.394 983.616 603.743 983.769 603.091 983.92L602.978 983.434L602.977 983.433C602.326 983.584 601.674 983.733 601.021 983.881L601.022 983.882L601.133 984.369C600.48 984.517 599.825 984.664 599.171 984.809L599.063 984.32L599.062 984.318C598.409 984.463 597.754 984.606 597.1 984.747L597.101 984.75L597.206 985.238C596.55 985.38 595.893 985.521 595.236 985.659L595.134 985.17L595.133 985.168C594.477 985.306 593.82 985.443 593.163 985.578L593.164 985.58L593.265 986.069C592.612 986.204 591.959 986.337 591.305 986.468L591.206 985.978L591.205 985.976C590.552 986.106 589.898 986.235 589.244 986.362L589.245 986.365L589.341 986.855C588.686 986.983 588.03 987.111 587.374 987.235L587.28 986.744L587.279 986.741C586.624 986.866 585.967 986.989 585.311 987.11L585.312 987.112L585.402 987.604C584.745 987.726 584.087 987.846 583.429 987.964L583.34 987.472C582.682 987.59 582.023 987.705 581.363 987.82L581.364 987.822L581.45 988.314C580.79 988.43 580.13 988.543 579.469 988.655L579.386 988.162L579.385 988.16C578.725 988.272 578.064 988.383 577.402 988.491L577.403 988.493L577.484 988.986C576.822 989.095 576.159 989.202 575.496 989.308L575.417 988.814L575.416 988.812C574.753 988.918 574.09 989.023 573.427 989.125L573.504 989.62C572.846 989.721 572.187 989.821 571.527 989.919L571.453 989.425L571.452 989.423C570.794 989.521 570.134 989.617 569.475 989.712L569.476 989.714L569.547 990.209C568.887 990.304 568.226 990.397 567.564 990.489L567.495 989.994L567.494 989.991C566.833 990.083 566.172 990.174 565.511 990.263L565.512 990.265L565.578 990.76C564.916 990.848 564.252 990.936 563.589 991.021L563.524 990.525L563.523 990.523C562.861 990.609 562.197 990.691 561.533 990.773L561.534 990.776L561.596 991.272C560.931 991.355 560.265 991.436 559.6 991.515L559.541 991.018L559.54 991.015C558.875 991.094 558.209 991.171 557.543 991.247L557.544 991.25L557.601 991.746C556.934 991.822 556.266 991.896 555.599 991.969L555.544 991.472L555.543 991.471C554.876 991.543 554.208 991.613 553.54 991.683L553.541 991.685L553.593 992.182C552.929 992.25 552.265 992.317 551.601 992.383L551.552 991.885L551.551 991.883C550.889 991.948 550.226 992.012 549.563 992.074L549.564 992.076L549.61 992.574C548.947 992.636 548.282 992.697 547.617 992.756L547.573 992.258L547.572 992.256C546.908 992.315 546.243 992.372 545.578 992.428L545.579 992.429L545.621 992.928C544.955 992.983 544.289 993.037 543.622 993.09L543.582 992.591L543.581 992.589C542.915 992.641 542.249 992.692 541.582 992.741L541.583 992.744L541.619 993.242C540.951 993.291 540.283 993.339 539.614 993.385L539.58 992.887L539.579 992.884C538.911 992.93 538.242 992.976 537.573 993.019L537.574 993.02L537.606 993.519C536.937 993.561 536.266 993.602 535.595 993.642L535.565 993.143L535.564 993.142C534.895 993.181 534.224 993.218 533.554 993.254L533.555 993.256L533.581 993.756C533.245 993.774 532.909 993.791 532.573 993.809C532.238 993.826 531.902 993.843 531.566 993.859L531.542 993.36L531.541 993.357C530.87 993.39 530.199 993.423 529.528 993.452L529.529 993.454L529.551 993.953C528.879 993.983 528.208 994.011 527.537 994.037L527.518 993.537L527.517 993.536C526.846 993.562 526.176 993.586 525.507 993.609L525.508 993.611L525.524 994.111C524.854 994.134 524.184 994.155 523.515 994.175L523.5 993.675L523.499 993.673C522.83 993.692 522.161 993.71 521.493 993.727L521.494 993.729L521.506 994.229C520.837 994.245 520.168 994.259 519.5 994.272L519.489 993.772C518.822 993.785 518.154 993.796 517.487 993.806L517.488 993.807L517.495 994.307C516.827 994.316 516.16 994.325 515.493 994.331L515.488 993.831L515.487 993.829C514.821 993.836 514.155 993.84 513.489 993.843L513.49 993.846L513.492 994.346C512.825 994.349 512.157 994.35 511.49 994.35V993.849C510.818 993.848 510.146 993.847 509.475 993.844L509.472 994.345C508.8 994.341 508.127 994.336 507.456 994.329L507.462 993.829V993.827C506.791 993.82 506.121 993.811 505.451 993.801V993.804L505.443 994.304C504.773 994.294 504.102 994.281 503.432 994.268L503.442 993.769V993.766C502.773 993.752 502.104 993.738 501.436 993.722V993.723L501.423 994.223C500.754 994.206 500.085 994.187 499.416 994.167L499.432 993.668V993.666C498.764 993.646 498.096 993.623 497.429 993.6V993.603L497.412 994.103C496.744 994.079 496.076 994.054 495.409 994.027L495.43 993.527V993.524C494.763 993.498 494.097 993.47 493.432 993.44V993.442L493.409 993.942C492.743 993.912 492.077 993.88 491.411 993.847L491.437 993.348V993.347C490.766 993.313 490.095 993.277 489.425 993.24V993.242L489.397 993.741C488.726 993.704 488.055 993.666 487.385 993.626L487.415 993.127V993.124C486.746 993.084 486.077 993.042 485.408 992.999V993.001L485.376 993.5C484.707 993.456 484.038 993.411 483.369 993.364L483.403 992.866V992.864C482.736 992.817 482.068 992.77 481.401 992.72L481.364 993.219C480.697 993.169 480.029 993.117 479.362 993.063L479.402 992.565V992.563C478.736 992.51 478.071 992.455 477.405 992.398V992.4L477.363 992.898C476.697 992.842 476.031 992.784 475.366 992.724L475.411 992.226V992.224C474.747 992.164 474.083 992.103 473.42 992.04V992.041L473.372 992.539C472.708 992.476 472.044 992.41 471.381 992.344L471.431 991.847H471.43C470.762 991.78 470.095 991.71 469.429 991.64V991.641L469.376 992.138C468.708 992.067 468.04 991.996 467.373 991.922L467.428 991.425V991.423C466.762 991.349 466.096 991.274 465.431 991.197V991.199L465.373 991.696C464.707 991.619 464.04 991.54 463.375 991.46L463.436 990.964V990.963C462.771 990.883 462.107 990.801 461.443 990.718V990.719L461.381 991.215C460.716 991.131 460.052 991.046 459.389 990.959L459.454 990.463V990.462C458.791 990.375 458.129 990.286 457.468 990.196V990.198L457.4 990.693C456.738 990.603 456.076 990.512 455.414 990.419L455.484 989.924V989.921C454.823 989.828 454.163 989.734 453.503 989.638V989.64L453.431 990.134C452.77 990.037 452.11 989.94 451.451 989.84L451.524 989.345C450.861 989.244 450.199 989.141 449.537 989.037V989.039L449.46 989.533C448.796 989.429 448.133 989.324 447.471 989.217L447.551 988.724V988.721C446.889 988.614 446.228 988.506 445.567 988.396V988.397L445.485 988.891C444.824 988.78 444.162 988.668 443.502 988.555L443.587 988.062V988.061C442.927 987.947 442.268 987.833 441.609 987.717L441.522 988.209C440.863 988.092 440.204 987.974 439.546 987.854L439.636 987.362V987.36C438.978 987.24 438.321 987.118 437.665 986.995V986.997L437.573 987.489C436.916 987.366 436.259 987.241 435.603 987.114L435.697 986.623V986.62C435.042 986.494 434.387 986.367 433.733 986.237V986.239L433.636 986.729C432.981 986.6 432.326 986.469 431.672 986.336L431.771 985.846V985.845C431.114 985.711 430.458 985.575 429.802 985.438V985.44L429.699 985.93C429.042 985.793 428.386 985.654 427.729 985.514L427.834 985.024V985.022C427.179 984.882 426.524 984.741 425.87 984.598V984.6L425.764 985.088C425.109 984.944 424.454 984.799 423.801 984.652L423.91 984.165V984.163C423.257 984.017 422.605 983.869 421.953 983.72V983.721L421.841 984.208C421.188 984.058 420.536 983.906 419.885 983.753L419.999 983.266C419.348 983.113 418.698 982.957 418.049 982.801V982.803L417.933 983.289C417.282 983.133 416.632 982.975 415.983 982.815L416.103 982.33V982.328C415.454 982.169 414.807 982.008 414.16 981.846V981.848L414.038 982.333C413.39 982.17 412.742 982.006 412.095 981.84L412.219 981.355V981.354C411.569 981.187 410.919 981.02 410.271 980.851L410.146 981.335C409.497 981.165 408.848 980.993 408.2 980.82L408.329 980.337V980.336C407.682 980.163 407.036 979.988 406.39 979.812V979.813L406.258 980.296C405.611 980.12 404.966 979.942 404.32 979.763L404.454 979.28V979.278C403.809 979.099 403.165 978.92 402.521 978.737V978.738L402.386 979.22C401.742 979.037 401.098 978.853 400.455 978.667L400.594 978.186C399.952 978 399.311 977.813 398.67 977.624V977.625L398.528 978.104C397.887 977.916 397.246 977.725 396.605 977.533L396.749 977.055V977.053C396.11 976.861 395.471 976.667 394.833 976.473V976.475L394.687 976.953C394.047 976.758 393.407 976.561 392.769 976.362L392.917 975.885V975.883C392.277 975.684 391.638 975.483 390.999 975.281V975.283L390.848 975.76C390.208 975.557 389.57 975.353 388.932 975.147L389.085 974.672V974.671C388.448 974.466 387.811 974.258 387.175 974.05V974.052L387.019 974.526C386.382 974.318 385.746 974.108 385.11 973.896L385.269 973.422V973.419C384.634 973.208 384 972.995 383.367 972.78V972.783L383.206 973.257C382.572 973.042 381.939 972.825 381.307 972.607L381.469 972.135V972.133C380.837 971.915 380.206 971.697 379.575 971.477L379.41 971.949C378.779 971.728 378.148 971.505 377.519 971.281L377.686 970.81C377.056 970.586 376.428 970.36 375.801 970.133V970.135L375.631 970.604C375.001 970.377 374.372 970.148 373.743 969.917L373.915 969.448V969.445C373.286 969.214 372.658 968.983 372.03 968.749V968.751L371.855 969.219C371.227 968.985 370.6 968.749 369.974 968.512L370.15 968.044V968.043C369.524 967.806 368.899 967.568 368.274 967.328V967.329L368.095 967.796C367.469 967.556 366.845 967.314 366.221 967.07L366.403 966.604V966.603C365.78 966.359 365.158 966.114 364.536 965.868V965.87L364.352 966.335C363.729 966.089 363.107 965.841 362.486 965.592L362.673 965.128V965.125C362.053 964.876 361.433 964.626 360.814 964.374V964.376L360.626 964.839C360.007 964.586 359.388 964.332 358.771 964.076L358.961 963.614V963.613C358.344 963.358 357.728 963.102 357.112 962.844V962.845L356.919 963.306C356.301 963.046 355.683 962.786 355.066 962.523L355.262 962.063V962.062C354.645 961.799 354.03 961.536 353.415 961.271V961.272L353.217 961.731C352.601 961.466 351.987 961.199 351.373 960.931L351.573 960.473V960.471C350.96 960.203 350.348 959.934 349.736 959.663V959.664L349.533 960.121C348.921 959.85 348.31 959.577 347.699 959.303L347.903 958.846C347.293 958.572 346.685 958.296 346.076 958.019V958.02L345.869 958.475C345.26 958.197 344.651 957.919 344.044 957.639L344.253 957.185V957.183C343.646 956.903 343.04 956.621 342.435 956.338V956.34L342.223 956.793C341.617 956.51 341.012 956.225 340.407 955.938L340.621 955.486V955.484C340.017 955.198 339.414 954.912 338.812 954.623V954.624L338.596 955.075C337.991 954.785 337.387 954.493 336.784 954.2L337.003 953.751H337.002C336.4 953.458 335.8 953.163 335.199 952.867V952.869L334.979 953.317C334.377 953.022 333.776 952.725 333.177 952.426L333.4 951.978V951.976C332.802 951.677 332.204 951.377 331.606 951.076V951.078L331.381 951.524C330.783 951.223 330.186 950.92 329.59 950.615L329.817 950.17V950.168C329.222 949.864 328.627 949.558 328.033 949.251V949.253L327.804 949.697C327.209 949.39 326.615 949.08 326.022 948.77L326.255 948.327H326.254C325.662 948.017 325.071 947.704 324.48 947.391V947.393L324.246 947.834C323.655 947.521 323.065 947.206 322.476 946.89L322.712 946.449V946.447C322.123 946.131 321.534 945.814 320.946 945.495V945.496L320.708 945.936C320.119 945.616 319.531 945.295 318.943 944.973L319.185 944.534V944.533C318.598 944.211 318.012 943.888 317.427 943.562L317.185 944C316.599 943.675 316.014 943.348 315.431 943.02L315.675 942.583C315.092 942.255 314.51 941.925 313.929 941.594V941.595L313.682 942.029C313.1 941.698 312.519 941.366 311.938 941.032L312.188 940.599V940.597C311.608 940.263 311.03 939.928 310.452 939.592V939.594L310.2 940.025C309.622 939.689 309.044 939.35 308.468 939.011L308.722 938.58V938.578C308.146 938.239 307.571 937.899 306.997 937.557V937.558L306.74 937.987C306.166 937.645 305.592 937.3 305.02 936.955L305.277 936.527V936.526C304.704 936.181 304.132 935.834 303.561 935.485V935.486L303.3 935.914C302.728 935.565 302.157 935.215 301.587 934.863L301.849 934.438V934.436C301.279 934.084 300.71 933.732 300.143 933.378V933.38L299.878 933.805C299.31 933.45 298.742 933.094 298.176 932.737L298.442 932.314V932.312C297.877 931.956 297.311 931.6 296.747 931.24L296.479 931.662C295.914 931.302 295.351 930.941 294.788 930.578L295.059 930.158V930.157C294.496 929.795 293.935 929.431 293.375 929.066V929.067L293.103 929.486C292.542 929.121 291.981 928.755 291.422 928.387L291.697 927.969V927.967C291.139 927.599 290.582 927.23 290.026 926.86L290.025 926.862L289.748 927.278C289.191 926.907 288.634 926.535 288.079 926.161L288.358 925.746V925.745C287.803 925.372 287.249 924.997 286.696 924.621V924.622L286.415 925.035C285.861 924.658 285.308 924.281 284.756 923.901L285.039 923.489V923.488C284.488 923.109 283.937 922.728 283.388 922.347V922.348L283.103 922.759C282.553 922.377 282.004 921.993 281.456 921.608L281.743 921.199V921.197C281.196 920.813 280.65 920.427 280.104 920.04V920.042L279.814 920.449C279.269 920.062 278.724 919.673 278.18 919.283L278.471 918.877V918.875C277.928 918.485 277.385 918.095 276.844 917.703L276.551 918.108C276.009 917.716 275.468 917.321 274.928 916.926L275.223 916.522V916.521C274.683 916.127 274.146 915.73 273.608 915.332L273.607 915.334L273.311 915.735C272.772 915.337 272.235 914.937 271.698 914.536L271.998 914.136V914.134C271.462 913.733 270.928 913.331 270.395 912.928L270.394 912.93L270.093 913.329C269.558 912.925 269.024 912.521 268.492 912.114L268.796 911.717L268.797 911.715C268.265 911.309 267.734 910.903 267.204 910.494V910.495L266.898 910.891C266.368 910.482 265.839 910.072 265.311 909.66L265.618 909.265C265.091 908.853 264.565 908.44 264.039 908.026V908.028L263.729 908.421C263.203 908.007 262.678 907.592 262.154 907.175L262.466 906.783L262.467 906.781C261.943 906.365 261.421 905.947 260.899 905.528L260.898 905.53L260.586 905.92C260.064 905.501 259.543 905.08 259.023 904.658L259.339 904.271V904.269C258.82 903.847 258.301 903.425 257.784 903.001V903.002L257.467 903.389C256.949 902.964 256.433 902.538 255.917 902.111L256.236 901.726V901.725C255.721 901.298 255.207 900.87 254.694 900.44V900.442L254.373 900.825C253.86 900.395 253.347 899.964 252.836 899.532L253.158 899.15L253.159 899.148C252.649 898.717 252.139 898.284 251.631 897.85L251.63 897.852L251.305 898.231C250.795 897.797 250.287 897.36 249.78 896.923L250.107 896.545V896.543C249.601 896.106 249.095 895.669 248.591 895.229L248.263 895.607C247.758 895.168 247.254 894.727 246.751 894.284L247.082 893.909V893.908C246.58 893.466 246.079 893.023 245.579 892.578V892.579L245.247 892.953C244.747 892.508 244.247 892.062 243.749 891.615L244.083 891.243L244.084 891.241C243.586 890.794 243.089 890.347 242.594 889.897V889.898L242.258 890.27C241.762 889.82 241.266 889.368 240.772 888.916L241.11 888.548L241.111 888.546C240.618 888.094 240.126 887.642 239.635 887.188V887.188L239.295 887.556C238.803 887.101 238.313 886.645 237.824 886.188L238.165 885.822V885.821C237.677 885.365 237.19 884.906 236.704 884.447L236.703 884.449L236.359 884.812C235.873 884.353 235.387 883.893 234.902 883.431L235.247 883.068L235.248 883.066C234.764 882.605 234.281 882.142 233.8 881.679L233.799 881.681L233.451 882.041C232.969 881.577 232.488 881.11 232.008 880.644L232.356 880.285V880.283C231.877 879.817 231.399 879.35 230.922 878.882V878.883L230.571 879.239C230.094 878.77 229.617 878.3 229.142 877.828L229.493 877.473V877.472C229.019 877.001 228.545 876.529 228.073 876.056V876.057L227.719 876.41C227.246 875.936 226.774 875.461 226.304 874.985L226.659 874.634L226.66 874.632C226.19 874.156 225.722 873.679 225.254 873.201L225.253 873.203L224.896 873.553C224.427 873.074 223.96 872.595 223.494 872.114L223.854 871.766V871.765C223.388 871.284 222.924 870.803 222.461 870.32V870.321L222.101 870.668C221.637 870.185 221.174 869.699 220.713 869.214L221.076 868.87V868.869C220.615 868.384 220.156 867.898 219.697 867.41V867.411L219.333 867.754C218.874 867.266 218.417 866.777 217.961 866.287L218.327 865.946L218.328 865.944C217.872 865.455 217.417 864.964 216.964 864.472L216.963 864.474L216.596 864.812C216.142 864.32 215.689 863.827 215.237 863.332L215.606 862.995L215.607 862.993C215.157 862.499 214.707 862.005 214.259 861.509V861.51L213.888 861.846C213.439 861.349 212.991 860.851 212.545 860.352L212.918 860.019V860.018C212.472 859.519 212.028 859.019 211.585 858.519L211.584 858.521L211.21 858.852C210.766 858.35 210.323 857.848 209.882 857.345L210.259 857.015L210.26 857.014C209.819 856.511 209.379 856.006 208.94 855.501L208.939 855.503L208.562 855.83C208.123 855.324 207.685 854.817 207.249 854.31L207.628 853.984L207.629 853.982C207.193 853.475 206.758 852.968 206.324 852.458V852.459L205.943 852.782C205.51 852.272 205.077 851.761 204.646 851.249L205.027 850.926C204.596 850.414 204.168 849.9 203.739 849.386L203.738 849.388L203.354 849.708C202.926 849.194 202.498 848.678 202.072 848.162L202.458 847.844L202.459 847.842C202.034 847.327 201.61 846.81 201.188 846.293L201.187 846.294L200.799 846.61C200.375 846.092 199.953 845.572 199.532 845.052L199.921 844.737L199.922 844.735C199.502 844.216 199.082 843.696 198.664 843.174L198.273 843.487C197.855 842.965 197.438 842.441 197.022 841.916L197.415 841.605V841.604C197 841.08 196.586 840.555 196.174 840.028L196.173 840.029L195.779 840.338C195.366 839.811 194.954 839.283 194.544 838.754L194.938 838.447L194.939 838.445C194.529 837.917 194.12 837.387 193.713 836.856L193.712 836.858L193.315 837.163C192.907 836.632 192.501 836.099 192.096 835.565L192.493 835.263L192.494 835.262C192.089 834.729 191.685 834.196 191.283 833.661L191.282 833.662L190.883 833.962C190.481 833.427 190.08 832.892 189.681 832.355L190.082 832.057V832.056C189.683 831.52 189.286 830.982 188.89 830.444L188.889 830.445L188.486 830.742C188.089 830.203 187.693 829.663 187.299 829.122L187.703 828.828L187.704 828.826C187.31 828.286 186.918 827.745 186.526 827.202L186.525 827.204L186.12 827.497C185.729 826.954 185.338 826.41 184.949 825.865L185.355 825.574L185.356 825.573C184.968 825.029 184.58 824.484 184.194 823.938V823.938L183.785 824.227C183.399 823.68 183.015 823.131 182.631 822.582L183.04 822.295C182.657 821.747 182.275 821.197 181.895 820.646V820.647L181.483 820.932C181.102 820.38 180.722 819.829 180.344 819.275L180.757 818.993L180.758 818.992C180.38 818.44 180.004 817.887 179.629 817.333L179.628 817.334L179.214 817.614C178.839 817.06 178.466 816.505 178.094 815.949L178.509 815.672L178.51 815.671C178.138 815.115 177.767 814.559 177.397 814.002L176.98 814.278C176.611 813.721 176.243 813.161 175.876 812.602L176.295 812.328L176.296 812.327C175.93 811.768 175.565 811.208 175.201 810.646L175.2 810.647L174.78 810.919C174.416 810.357 174.054 809.794 173.692 809.23L174.113 808.961L174.114 808.959C173.753 808.396 173.393 807.832 173.035 807.267L173.034 807.269L172.612 807.536C172.254 806.97 171.896 806.404 171.54 805.836L171.964 805.569C171.609 805.002 171.254 804.435 170.901 803.866L170.477 804.129C170.124 803.559 169.772 802.988 169.422 802.417L169.848 802.156L169.849 802.155C169.499 801.585 169.152 801.014 168.806 800.442L168.805 800.444L168.377 800.703C168.03 800.131 167.686 799.558 167.342 798.984L167.771 798.728L167.771 798.726C167.428 798.153 167.087 797.579 166.746 797.004L166.744 797.006L166.314 797.261C165.973 796.685 165.633 796.108 165.295 795.53L165.727 795.277V795.276C165.389 794.7 165.053 794.122 164.718 793.543V793.544L164.285 793.795C163.95 793.215 163.615 792.635 163.282 792.054L163.717 791.805V791.804C163.385 791.223 163.054 790.641 162.725 790.059L162.724 790.061L162.289 790.307C161.959 789.723 161.631 789.139 161.304 788.554L161.74 788.31L161.741 788.309C161.415 787.724 161.089 787.14 160.766 786.554L160.765 786.555L160.326 786.796C160.002 786.209 159.68 785.622 159.358 785.033L159.798 784.794V784.793C159.478 784.207 159.16 783.62 158.843 783.032V783.033L158.402 783.271C158.085 782.682 157.769 782.092 157.454 781.502L157.896 781.267L157.896 781.266C157.582 780.676 157.269 780.086 156.958 779.494L156.957 779.495L156.515 779.729C156.203 779.136 155.893 778.543 155.584 777.949L156.027 777.719L156.028 777.718C155.72 777.124 155.412 776.531 155.106 775.936L154.662 776.165C154.356 775.569 154.051 774.972 153.748 774.375L154.194 774.149V774.148C153.892 773.552 153.59 772.954 153.29 772.355L152.844 772.58C152.544 771.981 152.245 771.381 151.947 770.78L152.396 770.559L152.396 770.558C152.099 769.957 151.804 769.356 151.51 768.754L151.509 768.755L151.06 768.975C150.766 768.373 150.474 767.77 150.183 767.167L150.633 766.949L150.634 766.948C150.344 766.347 150.055 765.745 149.768 765.143V765.144L149.316 765.358C149.029 764.755 148.742 764.15 148.458 763.545L148.91 763.332C148.626 762.727 148.345 762.121 148.063 761.515L148.062 761.516L147.609 761.727C147.328 761.12 147.048 760.511 146.77 759.902L147.224 759.694L147.225 759.693C146.946 759.085 146.67 758.477 146.395 757.867L146.394 757.868L145.938 758.073C145.662 757.463 145.388 756.852 145.115 756.24L145.572 756.036L145.573 756.035C145.301 755.424 145.029 754.812 144.76 754.199V754.2L144.302 754.401C144.032 753.788 143.764 753.173 143.497 752.558L143.956 752.358V752.357C143.69 751.743 143.425 751.128 143.162 750.512L143.161 750.513L142.701 750.709C142.438 750.094 142.177 749.478 141.917 748.861L142.378 748.667L142.379 748.666C142.12 748.051 141.862 747.435 141.605 746.818L141.604 746.819L141.143 747.012C140.886 746.394 140.631 745.776 140.378 745.157L140.841 744.968V744.967C140.588 744.349 140.335 743.73 140.085 743.11L139.621 743.299C139.371 742.678 139.122 742.057 138.874 741.435L139.339 741.25L139.34 741.249C139.093 740.628 138.847 740.006 138.603 739.383L138.602 739.384L138.136 739.566C137.891 738.943 137.649 738.318 137.407 737.692L137.873 737.513L137.874 737.512C137.633 736.887 137.393 736.262 137.154 735.636V735.637L136.687 735.814C136.448 735.188 136.211 734.561 135.976 733.933L136.444 733.757V733.756C136.209 733.128 135.976 732.5 135.744 731.871L135.743 731.872L135.274 732.045C135.043 731.418 134.813 730.79 134.585 730.162L135.055 729.991L135.056 729.99C134.828 729.363 134.603 728.736 134.378 728.107L134.376 728.108L133.905 728.276C133.68 727.647 133.456 727.017 133.234 726.386L133.706 726.221L133.707 726.22C133.485 725.59 133.265 724.959 133.046 724.327L133.045 724.328L132.572 724.491C132.353 723.859 132.136 723.226 131.92 722.593L132.394 722.431V722.43C132.178 721.797 131.964 721.163 131.752 720.529L131.751 720.53L131.277 720.688C131.065 720.053 130.853 719.417 130.644 718.78L131.118 718.624L131.119 718.623C130.91 717.987 130.702 717.35 130.495 716.713L130.494 716.714L130.019 716.868C129.812 716.23 129.607 715.591 129.403 714.951L129.88 714.8V714.799C129.677 714.16 129.474 713.521 129.273 712.881L128.797 713.03C128.598 712.393 128.4 711.756 128.204 711.117L128.682 710.971L128.683 710.97C128.487 710.332 128.293 709.694 128.101 709.055L128.1 709.056L127.62 709.2C127.427 708.561 127.236 707.92 127.046 707.279L127.525 707.137L127.526 707.136C127.337 706.495 127.148 705.855 126.962 705.213L126.961 705.214L126.48 705.354C126.294 704.711 126.109 704.068 125.925 703.424L126.405 703.286C126.222 702.643 126.042 701.999 125.861 701.354L125.86 701.355L125.379 701.49C125.198 700.845 125.019 700.198 124.842 699.552L125.323 699.42L125.325 699.419C125.148 698.773 124.973 698.127 124.799 697.479L124.797 697.48L124.313 697.61C124.139 696.962 123.967 696.313 123.796 695.664L124.279 695.536L124.28 695.535C124.109 694.887 123.938 694.239 123.771 693.59L123.287 693.715C123.12 693.069 122.955 692.423 122.791 691.775L123.276 691.652L123.277 691.651C123.114 691.005 122.952 690.358 122.792 689.711L122.79 689.712L122.305 689.832C122.144 689.184 121.986 688.534 121.828 687.884L122.314 687.767L122.315 687.766C122.158 687.116 122.002 686.467 121.848 685.816L121.847 685.817L121.36 685.933C121.206 685.282 121.053 684.63 120.902 683.978L121.39 683.865V683.864C121.239 683.213 121.09 682.56 120.942 681.907L120.941 681.908L120.454 682.019C120.306 681.365 120.159 680.71 120.015 680.056L120.503 679.948L120.504 679.947C120.359 679.293 120.217 678.639 120.075 677.983L120.074 677.984L119.585 678.09C119.443 677.434 119.303 676.777 119.165 676.119L119.654 676.017L119.655 676.016C119.517 675.36 119.379 674.703 119.244 674.046Z" fill="#aeaeae" stroke="#000000" stroke-dasharray="2 2"/>
<path d="M498.304 249.878C687.335 242.281 846.73 389.376 854.305 578.41C861.88 767.445 714.765 926.82 525.73 934.37C336.727 941.92 177.385 794.835 169.813 605.835C162.24 416.835 309.304 257.475 498.304 249.878Z" fill="#000000"/>
<path d="M499.002 279.702C501.075 280.877 498.461 330.008 499.793 336.834C500.175 338.768 500.985 340.592 502.17 342.169C504.395 345.09 507.755 346.932 511.42 347.239C527.585 348.632 524.52 326.772 524.5 316.317L524.46 279.874C537.315 279.976 553.42 281.981 566.01 284.228C624.21 294.732 678.28 321.401 722.04 361.184C770.1 404.997 803.365 462.652 817.245 526.185C821.095 544.34 822.775 561.045 823.745 579.495L788.05 579.48C782.885 579.475 769.925 579.155 765.55 580.17C763.39 580.68 761.42 581.79 759.865 583.375C757.62 585.68 756.385 588.785 756.44 592.005C756.635 607.97 776.465 604.595 787.45 604.56L823.81 604.49C820.005 679.495 794.16 743.065 745.185 799.915C736.835 791.6 728.23 782.45 719.25 774.83C715.79 771.895 708.055 770.865 704.615 774.68C694.39 786.01 704.07 793.785 712.305 801.73C717.685 806.975 723.145 812.245 728.12 817.595C722.835 823.185 707.11 836.06 700.905 840.8C650.035 879.63 588.4 901.78 524.45 904.205L524.495 891.875L524.56 863.605C524.58 855.83 525.795 847.23 520.875 840.825C515.01 833.185 501.14 837.685 500.085 846.895C499.292 853.83 499.665 861.02 499.693 867.99L499.732 904.44C424.997 900.34 355.585 873.51 300.674 821.855C239.72 765.615 203.651 687.43 200.428 604.555L237.235 604.6C244.058 604.595 257.883 605.99 263.19 601.345C267.912 597.215 268.425 590.96 265.359 585.595C260.505 577.1 246.635 579.5 237.86 579.5L200.411 579.485C201.349 528.865 218.727 473.616 245.08 430.569C256.058 412.636 265.115 401.057 278.266 385.137C285.321 392.047 292.31 399.024 299.234 406.065C306.011 412.876 320.899 430.979 329.611 409.889C332.661 402.506 320.149 392.462 315.143 387.31C308.995 380.984 301.707 374.389 295.447 367.368C307.178 357.204 314.711 349.778 327.616 340.266C377.492 303.562 437.139 282.484 499.002 279.702Z" fill="#f7f7f7"/>
<path d="M698.195 385.563C705.85 385.036 712.305 390.384 709.055 398.136C705.305 407.081 699.775 416.22 695.09 424.793L667.925 474.797L613.73 575.22C604.415 592.375 595.095 610.205 585.275 627.01C568.8 655.195 533.345 671.97 505.735 688.39L424.637 736.975C400.192 751.805 375.65 766.475 351.015 780.985C342.182 786.2 326.852 796.08 318.209 800.275C306.79 802.375 304.115 794.55 308.467 785.535C311.627 778.99 316.123 772.14 319.734 765.69L345.571 719.445L403.567 616.005L425.197 577.315C432.411 564.3 439.511 549.68 449.52 538.775C455.078 532.725 462.575 526.265 469.527 521.865C486.703 510.995 504.49 500.665 521.94 490.237L614.25 434.918L669.11 401.991C676.46 397.6 690.905 388.319 698.195 385.563Z" fill="#000000"/>
<path d="M445.745 602.87C446.835 604.08 448.259 611.045 449.039 613.095C458.003 636.68 475.97 650.44 499.907 656.295C492.026 661.43 483.615 665.895 475.621 670.86C453.613 684.52 430.779 697.315 408.75 710.845C397.287 717.58 385.444 725.055 373.984 731.5C385.29 709.77 398.539 686.975 410.569 665.545C422.032 645.125 433.708 622.715 445.745 602.87Z" fill="#f7f7f7"/>
<path d="M646.525 451.051C646.085 453.556 624.095 492.336 621.26 497.499L577.87 577.24C574.99 564.22 568.505 552.945 559.25 543.45C548.875 533.05 538.105 528.36 524.365 524.51L646.525 451.051Z" fill="#aeaeae"/>
<path d="M508.05 560.715C524.355 558.485 539.39 569.885 541.645 586.19C543.9 602.495 532.525 617.545 516.225 619.825C499.888 622.115 484.795 610.71 482.534 594.365C480.273 578.025 491.703 562.95 508.05 560.715Z" fill="#f7f7f7"/>
<path d="M510.325 37.2158C542.365 36.3735 570.375 61.5599 571.175 94.0979C571.33 100.381 570.645 104.988 569.49 111.18C556.59 90.1179 539.335 77.2609 514.085 75.9714C486.804 75.4819 468.462 88.3934 455.336 111.433C454.075 107.049 453.301 102.54 453.028 97.9864C451.144 65.1899 478.228 38.9367 510.325 37.2158Z" fill="#f7f7f7"/>
<path d="M510.46 113.173L511.15 113.147C524.865 112.743 535.8 121.98 537.235 135.463C538.06 143.217 537.525 152.901 537.43 160.801C530.025 160.418 521.975 160.438 514.515 160.327C505.46 160.298 496.402 160.521 487.359 160.996C485.389 140.791 484.131 116.365 510.46 113.173Z" fill="#f7f7f7"/>
</g>
<defs>
<clipPath id="clip0_15505_17718">
<rect width="1024" height="1024" fill="#ffffff"/>
</clipPath>
</defs>
</svg>
