<svg width="148" height="148" viewBox="0 0 148 148" fill="none" xmlns="http://www.w3.org/2000/svg">
<path d="M74.1757 14.8906C75.3213 15.1645 98.1931 24.608 98.4539 24.8227C98.992 25.2651 99.8122 25.8711 99.9218 26.6192C100.002 27.1674 99.7247 27.7144 99.3788 28.1188C98.8972 28.6822 98.2205 29.0926 97.5683 29.4293C96.4374 30.0131 95.1978 30.4062 94.0207 30.8881C90.0935 32.496 80.355 36.634 76.7085 36.8783C76.9819 38.687 76.8364 41.834 76.7985 43.7292C77.8877 44.8664 79.3586 47.1392 80.2971 48.4808C87.2049 58.3571 94.1632 68.1897 101.08 78.0595C101.947 79.2972 102.953 80.8933 104.001 81.9582C113.758 79.5061 110.635 75.9847 117.481 85.4384L123.742 94.0842L142.831 120.374C143.932 121.877 146.901 126.324 148 127.245V129.512C147.578 129.964 147.158 130.544 146.631 130.872C145.086 131.836 119.093 131.283 115.127 131.311L34.511 131.317L16.0288 131.312C12.9838 131.326 5.27123 131.683 2.92142 131.074C2.06802 130.853 1.10072 130.303 0.651843 129.52C0.356169 129.004 0.430597 128.434 0.589667 127.886C0.982501 126.534 9.3023 115.802 10.8694 113.625L22.6872 97.1569C26.2958 92.0447 29.8786 86.9679 33.634 81.9541C35.9212 78.9005 36.4656 78.7982 40.0717 80.2329C41.5302 80.8132 43.2833 81.3921 44.7869 81.8732C45.4916 81.0979 48.6719 76.3387 49.5516 75.0932C54.8659 67.5697 60.2192 60.0524 65.4638 52.4818C67.4766 49.5762 69.1189 46.7744 71.3899 44.016C71.7375 41.9845 71.387 39.4965 71.3529 37.2612C71.2543 30.792 70.7083 23.7304 71.8047 17.3588C72.0287 16.0567 73.1429 15.4878 74.1757 14.8906ZM7.76824 126.062C9.48551 126.034 11.0319 125.935 12.7429 125.815C13.9136 125.351 15.4046 124.315 16.6611 123.758C23.3487 120.793 30.257 115.698 37.3483 113.951C41.9191 112.825 46.4438 116.428 50.7936 113.33C53.6277 111.311 54.2817 108.437 54.9187 105.229C56.294 98.3843 58.8759 91.4415 61.9118 85.1564C62.1704 84.6212 62.9334 84.0675 63.3427 83.5813C62.975 81.9114 63.0737 80.1867 62.6846 78.5507C59.5 80.3773 49.6468 86.5969 46.7411 87.035C45.5137 87.2201 44.0869 86.8588 42.9061 86.5405C41.0914 86.0515 39.2876 85.4366 37.5099 84.8265C36.4116 86.8618 35.0472 88.5961 33.712 90.4657C31.3598 93.7596 29.1263 97.0137 26.5249 100.123C24.8981 102.068 23.4934 104.456 22.0157 106.528C18.3255 111.892 14.1368 116.886 10.657 122.396C9.82231 123.718 8.5942 124.783 7.76824 126.062ZM74.1958 75.135C73.4036 72.9688 74.3273 63.4343 73.969 60.3901C73.7189 58.2639 74.113 54.4377 74.0056 52.171C73.9669 51.3557 74.4375 50.3996 74.7719 49.6343L74.4222 49.2698C73.4041 49.3301 72.3539 51.5517 71.7503 52.364C70.0242 54.687 68.5205 57.1949 66.849 59.5531L57.721 72.3956C56.2883 74.4251 53.8713 77.7681 52.619 79.8314C55.3633 77.6724 56.7575 77.084 59.624 75.4267C67.6799 70.769 67.1168 76.6991 68.1913 82.4427C69.9803 80.7444 72.6344 77.1934 74.1958 75.135Z" fill="black"/>
<path d="M78.6917 77.4375C80.5729 79.9431 81.8094 82.2017 83.4938 84.6839C86.6577 89.3466 88.8264 92.758 91.0713 97.9394C92.8025 101.935 94.3427 106.761 96.3218 110.458C97.4462 112.559 101.588 115.068 103.574 117.329C105.79 119.854 107.721 123.95 109.677 126.057C106.429 126.282 102.057 126.164 98.7304 126.165L79.7166 126.185L22.1456 126.149C20.9681 126.137 13.2198 126.089 12.7432 125.814C13.9138 125.35 15.4048 124.313 16.6614 123.756C23.349 120.792 30.2573 115.697 37.3486 113.949C41.9194 112.823 46.4441 116.427 50.7939 113.328C53.628 111.309 54.282 108.435 54.9189 105.227C56.2943 98.3825 58.8762 91.4397 61.9121 85.1546C62.1706 84.6194 62.9336 84.0657 63.3429 83.5795C63.9627 85.5418 64.5014 88.8847 66.2101 90.0376C69.0879 90.8938 76.455 79.7516 78.6917 77.4375Z" fill="#B4B4B4"/>
<path d="M92.534 78.5273C97.025 80.6424 98.6273 84.7597 102.127 87.0099C104.791 87.1602 108.232 85.8376 110.743 84.874C113.434 87.764 115.538 91.3541 117.994 94.4103C121.289 98.5085 124.008 102.762 127.06 107.012L133.503 115.832C135.949 119.249 137.818 122.137 140.458 125.52C140.622 125.66 140.602 125.673 140.661 125.885C140.078 126.276 117.938 126.219 115.107 126.16C112.85 123.809 110.489 118.302 107.966 115.202C107.03 114.05 105.975 113 104.82 112.068C103.945 111.364 101.003 109.188 100.5 108.396C98.3352 104.992 97.2069 100.577 95.3902 96.9168C94.8665 95.8616 91.7294 89.9086 91.7285 89.4488C91.7244 87.0343 92.1571 80.9276 92.534 78.5273Z" fill="#B4B4B4"/>
<path d="M74.772 49.6328C76.3354 50.8207 82.987 60.9842 84.478 63.2624L84.4345 63.4143L83.8685 62.8918C83.4423 63.057 83.5774 62.944 83.3375 63.302C83.4548 63.7631 84.3544 64.5522 84.7647 64.7845L84.9254 64.5966C84.8799 64.2822 84.8254 63.9723 84.8162 63.6554C87.4546 67.2827 90.2731 71.0469 92.8546 74.6835C89.0796 74.0665 88.415 75.4301 87.6973 79.0481C87.5847 79.6155 87.5848 81.5666 87.3726 81.885C86.7997 80.9305 87.3654 80.2651 87.2598 79.5025C86.5929 78.1546 86.3765 77.5565 84.7818 77.3961C84.6276 77.3806 84.0522 76.598 83.9311 76.436C82.0354 74.0095 80.0669 70.9364 76.6306 73.0632C75.8756 73.5305 74.6169 74.9226 74.1959 75.1335C73.4037 72.9672 74.3274 63.4328 73.9691 60.3885C73.7189 58.2623 74.1131 54.4362 74.0057 52.1695C73.9669 51.3542 74.4375 50.3981 74.772 49.6328Z" fill="#B4B4B4"/>
<path d="M76.6235 21.4258L85.0726 24.5543C86.3623 25.0353 89.2811 26.0882 90.4186 26.7351L90.4246 26.9324C89.3894 27.1686 88.0627 27.78 87.0536 28.2052C84.2624 29.2413 79.3757 30.9419 76.6137 31.5373C76.5723 28.1669 76.5757 24.7961 76.6235 21.4258Z" fill="#B4B4B4"/>
<path d="M71.6739 22.2461C71.71 22.3513 71.7407 22.4583 71.7658 22.5667C71.9697 23.4279 72.0578 26.7998 71.5091 27.6375L71.4818 27.7078C71.3618 26.1156 71.2396 23.7525 71.6739 22.2461Z" fill="#333338"/>
</svg>
