<svg width="128" height="128" viewBox="0 0 128 128" fill="none" xmlns="http://www.w3.org/2000/svg">
<g clip-path="url(#clip0_15479_17772)">
<path d="M86.7959 92.2663C87.0073 92.2531 87.2749 92.2456 87.476 92.3196C87.8473 92.4563 88.6329 93.1552 88.764 93.5188C88.8638 93.7953 88.8311 94.084 88.7133 94.3493C87.8783 96.2273 79.7772 99.8545 77.6308 100.724C76.7877 100.754 76.0587 100.777 75.5498 99.9724C75.2284 99.4648 75.0858 98.6557 75.5687 98.1944C76.8567 96.9639 78.6865 96.439 80.2368 95.62C82.4236 94.4787 84.6024 93.3714 86.7959 92.2663Z" fill="black"/>
<path d="M66.8584 102.017C69.2881 101.659 70.2662 104.353 67.7096 105.671C66.295 106.401 64.762 106.902 63.4026 107.587C61.5186 108.536 60.2504 109.63 58.1549 110.307C56.885 110.673 56.47 109.836 55.8701 108.896C55.9977 108.466 56.2674 107.893 56.4509 107.47C59.8086 105.447 63.2839 103.626 66.8584 102.017Z" fill="black"/>
<path d="M98.0137 78.752C103.492 78.3274 98.2354 87.8558 95.074 89.635C94.9939 89.6432 94.7434 89.6623 94.686 89.6403C90.7132 88.0973 94.7014 85.4437 95.9134 83.5413C96.778 82.1842 96.5429 79.615 98.0137 78.752Z" fill="black"/>
<path d="M89.3782 65.7031C91.4003 66.172 101.301 71.4918 96.8668 74.0383C94.4662 73.1103 90.7471 70.069 88.4862 68.5565C87.5939 67.9596 88.6792 66.2885 89.3782 65.7031Z" fill="black"/>
<path d="M48.9157 113.16C50.2913 112.925 50.6373 113.26 51.7173 114.008C50.6957 116.504 46.7844 119.427 44.8241 121.872C44.1532 121.899 42.8637 121.749 42.5293 121.143C41.3158 118.945 47.3449 114.184 48.9157 113.16Z" fill="black"/>
<path d="M73.0856 59.1328C75.9106 59.4549 77.9629 60.6854 80.6509 61.5691C81.5101 61.8516 82.346 62.6089 82.9247 63.2899L82.0859 65.0971C81.4771 65.0557 80.5029 64.9391 79.565 64.5686C77.4496 63.7328 73.9505 62.9251 72.2536 61.3854C72.013 61.1671 72.1724 60.2349 72.3004 59.9576C72.5795 59.3531 72.5316 59.3988 73.0856 59.1328Z" fill="black"/>
<path d="M56.9253 53.2854C58.748 53.2195 59.2384 53.9515 60.7878 54.3363C61.9748 54.6312 68.9888 57.1139 65.4648 58.8532C65.4118 58.861 65.3586 58.8675 65.3053 58.8729C63.8789 59.0039 57.569 56.5962 56.488 55.6885C56.2264 55.4712 56.0725 55.1504 56.0666 54.8102C56.0545 54.1805 56.5215 53.7025 56.9253 53.2854Z" fill="black"/>
<path d="M43.1976 45.0175C44.8665 44.8371 45.2467 45.0462 46.3437 46.2607C47.786 47.8575 49.4334 49.1525 51.122 50.4764C50.6347 51.3275 50.5151 51.591 50.2166 52.524L50.1152 52.5514C49.7 52.6669 49.5132 52.6032 49.1094 52.4581C46.2732 51.4072 43.956 49.296 42.6465 46.5696C42.8722 46.0179 42.9071 45.4527 43.1976 45.0175Z" fill="black"/>
<path d="M48.9758 34.1403C49.0876 34.1223 49.1997 34.1069 49.3122 34.0943C50.4432 33.9704 50.81 34.3344 51.6382 35.0029C51.1553 36.0988 50.9468 36.4404 49.9392 37.1315C48.4583 38.1472 47.1075 39.3547 45.8242 40.6079C45.4998 40.9827 45.11 41.0898 44.641 41.026C43.8666 40.5537 43.8601 39.5184 44.1455 38.7463C44.9673 36.5227 46.9668 35.194 48.9758 34.1403Z" fill="black"/>
<path d="M61.6029 29.2894L62.8571 29.1797C63.2931 29.5412 63.8111 29.9094 64.0782 30.3979C64.1839 32.1104 59.4594 33.4171 58.1477 33.5466C57.6824 33.5392 56.4292 33.5667 56.1103 33.3049C53.1881 30.9048 60.4138 29.5373 61.6029 29.2894Z" fill="black"/>
<path d="M74.6582 25.6719C75.509 25.7115 76.536 26.679 77.1484 27.2344C77.2525 27.3287 77.1315 27.5649 77.0934 27.6868C75.9559 28.9211 72.822 29.6363 71.1867 29.9443C70.4897 30.0304 69.8425 29.9868 69.1426 29.9621C68.8787 29.398 68.6869 28.8495 68.4746 28.2664C68.7434 27.9474 68.9894 27.5881 69.2332 27.2471C70.5324 26.8521 73.5082 25.8318 74.6582 25.6719Z" fill="black"/>
<path d="M88.1738 22.1484C89.6433 22.2299 91.0797 24.1433 88.5362 25.0379C86.8623 25.6268 85.3289 26.2451 83.5557 26.6376C83.2658 26.5637 82.2413 26.3068 82.0721 26.1798C79.2566 24.0661 87.0679 22.3851 88.1738 22.1484Z" fill="black"/>
<path d="M95.1277 13.1328L96.6096 13.3047C98.4986 14.8401 98.5601 17.1611 97.3698 19.1283C96.9241 19.8652 96.5262 20.1183 95.8848 20.6429C95.8657 20.6566 95.8465 20.6701 95.8272 20.6837C91.7058 20.7931 94.6248 17.2983 95.0452 16.5466C94.7452 15.4242 94.7738 14.2393 95.1277 13.1328Z" fill="black"/>
<path d="M0 119.009L0.204158 119.038C0.853664 118.381 1.52822 116.265 2.11037 115.201C3.72816 112.263 5.79866 109.597 8.24579 107.303C23.3457 93.0369 47.4423 90.5978 65.6578 81.812C67.9288 80.7166 70.3927 79.4493 71.5574 77.0835C71.7689 76.6541 71.9989 76.1491 71.989 75.6598C71.9726 74.8515 71.3833 74.1386 70.8131 73.6246C68.6 71.6289 65.0491 70.4066 62.2918 69.3351C59.9011 68.4061 57.4895 67.4875 55.0559 66.6779C45.2884 63.4284 23.3481 57.1523 22.5438 44.6824C22.3528 41.722 24.0145 38.233 25.9433 36.0553C38.1525 22.2696 79.9915 20.1205 84.1259 14.5895C84.3343 14.3108 84.5274 13.9539 84.4995 13.5943C84.4682 13.1916 84.161 12.853 83.8532 12.6211C81.6106 10.9311 76.2534 9.70633 74.7514 8.1491C74.579 7.97043 74.5012 7.73735 74.4642 7.496C74.346 6.72722 74.7732 5.96265 75.0772 5.2814C75.4739 4.96478 76.0979 5.00018 76.5735 5.05758C77.9976 5.2295 79.3043 5.88643 80.5936 6.47193C83.303 7.7022 86.0301 8.94731 87.8914 11.3747C88.6439 12.3561 89.1508 13.523 88.9869 14.7808C88.7984 16.2271 87.8102 17.416 86.6752 18.2656C81.0601 22.4684 64.6128 24.8544 57.1391 26.4979C48.8004 28.3316 39.1959 31.1331 32.1096 35.9953C29.673 37.667 27.0631 39.795 26.5788 42.9099C26.2604 44.9576 26.7265 46.8518 27.9699 48.5131C33.9683 56.5279 50.8049 61.1974 60.185 64.4129C63.9553 65.7054 68.2719 67.034 71.5781 69.2895C73.8749 70.8563 76.068 73.7106 75.6385 76.6454C75.2494 79.3043 73.3536 81.5333 71.241 83.0658C69.4679 84.3519 67.3726 85.2924 65.386 86.1921C59.3816 88.9118 53.2111 90.8431 46.9436 92.8331C38.4251 95.5379 29.3474 98.4474 21.5145 102.782C15.6675 106.017 10.7989 109.235 6.787 114.724C5.4403 116.567 4.21311 120.666 3.25572 121.644C2.98782 121.918 2.71799 121.998 2.34224 121.946C2.00737 121.9 1.66416 121.783 1.33926 121.69C0.976591 121.306 0.482934 120.661 0 120.584V119.009Z" fill="black"/>
<path d="M95.1472 5.14062C95.3147 5.1431 95.4822 5.14707 95.6496 5.15252C96.1917 5.17115 96.7211 5.19766 97.2467 5.34631C99.5139 5.98741 104.003 8.31427 105.979 9.68077C107 10.387 107.974 11.246 108.819 12.1556C110.3 13.75 111.161 15.8574 111.056 18.0534C110.973 19.8021 110.261 21.6994 109.176 23.0729C104.621 28.8369 92.3133 32.3157 85.2833 34.1609C79.4921 35.681 68.9023 37.425 64.6017 41.4802C64.2399 41.8212 64.1714 42.0173 64.1533 42.5067C65.1161 44.9201 75.4119 48.1934 77.8937 48.933C79.6189 49.4472 82.3093 49.9907 84.1088 50.5555C97.0203 54.6462 111.437 58.3002 121.456 67.9609C123.975 70.3902 125.305 72.725 126.57 75.9052C126.974 76.9209 127.6 77 127.6 78.6669C127.6 81 127.4 83.5 127.3 84.6877C127.284 84.8731 124.995 91.2474 124.509 92.1661C123.753 93.5971 122.645 94.9883 121.643 96.2604C117.6 101.395 112.509 104.841 107.352 108.747C104.466 110.934 101.373 113.246 99.1742 116.165C98.1006 117.59 97.3707 119.392 96.4911 120.945C96.2709 121.334 95.9458 121.75 95.4872 121.851C94.9559 121.969 94.4191 121.697 93.9852 121.417C93.5593 121.141 93.2333 120.744 93.1369 120.238C92.9529 119.272 93.5037 118.187 93.9318 117.346C96.6113 112.08 101.215 108.868 105.753 105.38C108.161 103.529 110.557 101.596 112.861 99.6178C115.623 97.2471 118.314 94.6909 120.354 91.6558C121.696 89.6585 123.162 87.0684 123.331 84.6182C123.402 83.5871 123.271 82.5356 123.283 81.5009C123.297 80.3223 123.434 79.0917 123.192 77.9305C120.898 66.9177 100.302 59.2659 90.6122 56.3876C83.5686 54.2953 70.2124 51.5107 64.3794 47.7043C62.8426 46.7015 60.7768 44.9892 60.4089 43.1038C60.2202 42.137 60.5247 41.1687 60.9206 40.2927C61.4996 39.0113 62.3731 37.7524 63.5207 36.9182C67.4898 34.0328 74.6766 32.6162 79.4348 31.4481C86.1892 29.7898 102.739 25.9842 106.58 20.2929C107.228 19.3324 107.593 18.0362 107.342 16.8859C106.399 12.5564 98.8039 10.8882 95.5419 8.82301C94.9558 8.45195 94.4609 8.00699 94.3144 7.30107C94.1424 6.47218 94.7116 5.78449 95.1472 5.14062Z" fill="black"/>
</g>
<defs>
<clipPath id="clip0_15479_17772">
<rect width="128" height="128" fill="white"/>
</clipPath>
</defs>
</svg>
