<svg width="966.657" height="966.657" viewBox="34.403 104.856 966.657 966.657" fill="none" xmlns="http://www.w3.org/2000/svg">
<path d="M84.3425 312.362C75.8855 313.982 67.197 315.94 58.562 316.08C52.306 316.181 46.2753 315.016 41.7373 310.369C36.4393 304.944 34.4032 297.298 34.4518 289.889C34.5799 270.366 49.717 218.546 63.9555 205.149C66.6515 202.612 69.892 200.333 73.6405 199.811C79.7895 198.955 86.1765 199.991 92.344 200.251L119.126 201.124L226.915 204.865C242.688 205.364 258.231 205.235 273.963 205.527L412.351 207.531C434.89 207.905 457.431 208.113 479.972 208.155C492.551 208.292 511.345 209.447 523.505 208.224C611.205 199.408 698.59 185.698 785.74 172.46L848.835 162.345C871.395 158.822 895.695 152.369 913.625 171.444C925.74 184.333 920.565 203.615 920.49 220.057L920.43 305.153C920.48 343.586 920.075 382.73 920.55 421.094C920.935 440.453 921.12 459.815 921.105 479.179C921.15 488.398 921.535 499.871 921.075 508.88C920.42 514.505 920.675 522.125 920.745 527.895C921.07 553.935 919.26 581.31 920.42 607.23C921.155 608.075 921.1 608.015 922.175 608.345C925.5 616.53 931.73 627.295 936.155 634.965L954.685 667.125C982.975 717.31 1001.06 772.24 978.02 829C967.45 855.04 948.46 873.155 922.62 883.95C906.925 890.5 893.18 891.585 877.005 895.055C836 903.84 811.54 933.475 795.55 970.675C791.465 980.115 787.955 989.79 785.04 999.65C782.905 1006.96 781.565 1018.07 778.14 1024H771.305C766.22 1019.47 765.475 1015.57 760.865 1012.29C751.045 1005.3 735.705 1000.35 726.535 992.805C725.345 991.825 725.415 987.585 725.86 986.07C729.895 972.3 737.22 955.64 742.87 943.055C773.965 873.805 820.4 881.405 883.81 874.535C899.76 872.805 917.305 868.4 930.99 859.34C952.33 845.21 964 823.125 968.545 798.3C976.92 752.56 957.895 707.865 935.085 669.28C931.08 662.505 926.94 654.015 922.655 647.735C921.53 671.385 922.86 695.95 923.245 719.625C923.855 753.495 924.075 787.645 927.83 821.335C929.54 836.69 912.575 831.985 902.785 830.89L881.335 828.69C837.32 824.24 794.53 819.455 750.25 818.645C692.56 817.59 634.985 818.05 577.295 817.985C505.93 817.815 434.566 818.43 363.216 819.835C317.096 820.51 270.99 821.945 224.917 824.145C199.479 825.665 174.089 827.895 148.776 830.835C136.338 832.195 123.642 834.05 111.203 834.98C83.7845 837.03 87.0675 818.58 87.0305 799.925L87.0035 764.81L87.0245 656.445C87.373 541.745 86.479 427.042 84.3425 312.362Z" fill="#000000"/>
<path d="M562 483.643C580.47 483.469 598.945 483.52 617.42 483.796L617.36 606.935L617.32 643.865C617.31 650.855 617.165 657.925 617.565 664.88C617.815 669.005 621.41 671.755 625.305 672.175C636.885 673.425 633.92 654.805 633.88 647.19L633.87 615.49L634.005 508.465C648.76 522.45 672.265 522.34 690.385 516.075C697.005 513.295 702.395 510.355 707.955 505.71L707.72 607.37L707.61 643.885C707.615 650.96 707.595 658.06 707.95 665.125C708.225 670.655 710.605 673.63 716.13 674.37C721.85 673.15 724.01 670.38 724.23 664.57C724.5 657.55 724.395 650.525 724.385 643.5V605.73L724.38 483.567L745.485 483.665V614.705L745.48 652.39C745.485 673.795 744.285 703.165 758.175 720.825C761.845 725.49 767.64 729.86 772.995 724.845C780.105 718.19 770.24 710.735 767.43 704.785C761.38 690.245 762.04 672.415 762.03 657.105V621.535C762.005 583.19 761.605 543.795 762.15 505.505C783.795 523.4 816.385 524.92 841.965 515.545C849.82 512.36 854.31 509.355 860.95 504L861.07 620.865C861.145 631.6 861.145 642.33 861.065 653.065C861.045 659.615 860.995 666.175 861.325 672.72C861.51 676.295 861.925 676.725 864.04 679.625C866.865 681.03 869.455 681.65 872.555 680.64C874.29 680.075 876.085 678.71 876.805 676.985C878.525 672.885 877.51 504.82 877.625 483.629C885.915 483.606 894.2 483.676 902.49 483.837L903.97 667.18C904.18 702.825 904.94 738.46 906.245 774.08C906.56 775.745 906.685 784.785 906.845 787.22C907.425 795.975 908.1 804.675 908.79 813.42C895.21 812.21 881.095 810.39 867.515 808.72C781.385 798.145 696.395 800.145 609.75 799.93C506.095 799.15 402.431 800.19 298.811 803.04C258.061 804.18 217.35 806.43 176.723 809.79C163.106 810.955 149.503 812.285 135.917 813.77C126.995 814.76 114.337 816.675 105.754 816.515C104.202 798.15 105.531 778.885 105.09 760.415C104.998 756.545 105.019 752.22 105.433 748.39C106.237 660.295 105.166 571.795 105.116 483.672C112.845 483.56 120.575 483.58 128.303 483.734L128.284 655.925L128.226 713.87C128.235 722.29 128.237 730.85 128.241 739.27C128.241 741.28 128.96 743.93 130.363 745.45C131.952 747.15 134.727 748.045 137.023 747.945C142.439 747.715 144.443 743.555 144.525 738.69C144.683 729.285 144.562 719.925 144.522 710.545L144.537 660.5L144.511 493.442C149.284 496.564 154.115 499.598 159 502.54C159.738 549.045 158.951 597.785 158.971 644.445L158.944 680.645C158.939 695.41 157.549 711.56 167.685 723.66C178.957 736.935 196.642 739.69 213.145 739.42C219.35 739.32 226.44 738.525 226.47 730.68C226.504 722.12 214.693 722.675 208.993 722.7C194.038 722.775 177.436 717.64 175.982 700.14C175.147 692.115 175.358 684.72 175.377 676.635L175.422 641.225L175.396 511.82C198.439 521.37 224.182 524.49 248.343 517.265C260.289 513.425 266.646 508.95 276.747 501.59C276.13 548.205 276.588 595.435 276.53 642.125C276.491 653.345 276.519 664.565 276.613 675.785C276.675 682.73 277.014 690.795 276.661 697.595C276.666 705.43 274.778 729.97 279.039 735.5C280.254 737.075 282.011 738.095 284.009 738.24C286.449 738.42 289.178 737.515 290.934 735.795C292.583 734.175 293.183 731.92 293.306 729.675C293.801 720.65 293.301 711.305 293.269 702.255L293.187 650.87L293.281 483.65L311.891 483.773C311.043 528.785 311.615 575.535 311.637 620.66L311.626 663.89C311.63 677.03 311.651 691.025 313.394 704.06C314.439 711.87 316.669 718.4 322.075 724.29C332.71 735.965 348.763 738.3 363.746 739.005C369.886 739.295 378.504 739.415 378.465 730.925C378.45 722.575 368.277 722.93 362.6 722.685C345.742 721.945 331.096 718.13 329.36 698.635C328.55 689.54 328.541 681.045 328.512 671.885L328.462 632.82L328.538 509.6C347.488 521.72 368.837 523.145 389.728 515.07C394.526 512.82 398.252 510.77 402.606 507.685L402.564 639.23C402.565 658.565 403.335 682.625 402.572 701.295C402.461 709.095 400.224 725.475 412.256 723.78C415.33 723.345 417.37 720.685 418.979 718.34C419.39 710.155 419.095 699.515 419.095 691.135L419.043 638.5L419.002 483.657C431.257 483.545 443.513 483.567 455.768 483.723L455.689 632.915L455.617 677.22C455.603 685.225 455.518 693.135 455.77 701.19C455.938 706.515 458.982 711.06 464.807 710.855C468.837 710.715 472.373 706.66 472.437 702.665C472.546 695.815 472.505 688.88 472.501 681.99L472.481 640.385L472.534 507.62C494.181 523.77 522.91 522.785 545.485 509.115L545.505 617.655C545.51 638.875 546.225 660.945 544.485 682.01C542.875 698.115 539.4 716.325 521.545 721.785C516.095 723.45 501.44 728.435 509.615 737.505C516.995 745.695 539.23 732.475 545.25 726.24C551.38 719.9 556.77 710.495 558.085 701.37C563.7 671.465 562.015 639.98 562.03 609.59L562 483.643Z" fill="#efefef"/>
<path d="M105.433 748.39C106.386 759.685 105.678 782.3 105.65 794.275C161.843 793.57 217.864 788.23 273.894 784.225C284.117 783.495 294.381 782.265 304.673 781.54C396.269 774.7 488.045 770.525 579.885 769.02C655.275 767.595 731.485 770.2 806.84 772.13L870.805 774.305C879.4 774.545 897.89 775.15 906.245 774.08C906.56 775.745 906.685 784.785 906.845 787.22C907.425 795.975 908.1 804.675 908.79 813.42C895.21 812.21 881.095 810.39 867.515 808.72C781.385 798.145 696.395 800.145 609.75 799.93C506.095 799.15 402.431 800.19 298.811 803.04C258.061 804.18 217.35 806.43 176.723 809.79C163.106 810.955 149.503 812.285 135.917 813.77C126.995 814.76 114.337 816.675 105.754 816.515C104.202 798.15 105.531 778.885 105.09 760.415C104.998 756.545 105.019 752.22 105.433 748.39Z" fill="#d2d2d2"/>
<path d="M248.343 517.265C260.289 513.425 266.645 508.95 276.746 501.59C276.129 548.205 276.588 595.435 276.529 642.125C276.491 653.345 276.519 664.565 276.613 675.785C276.675 682.73 277.013 690.795 276.66 697.595C276.411 695.79 276.671 695.465 275.709 694.215C274.745 694.95 272.578 698.985 271.86 700.365C267.097 709.49 257.144 710.075 249.793 703.625C244.126 698.65 246.975 686.135 247.522 679C249.372 654.875 248.171 630.47 248.039 606.29C247.856 582.515 248.207 558.82 248.588 535.05C248.68 529.24 248.766 523.06 248.343 517.265Z" fill="#d2d2d2"/>
<path d="M690.385 516.075C697.005 513.295 702.395 510.355 707.955 505.71L707.72 607.37L707.61 643.885C707.615 650.96 707.595 658.06 707.95 665.125C708.225 670.655 710.605 673.63 716.13 674.37L715.26 674.855C714.55 678.21 714.81 684.425 714.595 688.095C713.28 710.48 708.335 722.99 687.305 732.515C688.215 722.225 680.865 722.07 672.83 721.06C674.35 719.265 680.05 716.275 682.71 713.095C687.005 707.955 689.175 699.3 689.97 692.81C693.555 663.6 692.51 632.96 691.95 603.63L690.385 516.075Z" fill="#d2d2d2"/>
<path d="M841.965 515.545C849.82 512.36 854.31 509.355 860.95 504L861.07 620.865C861.145 631.6 861.145 642.33 861.065 653.065C861.045 659.615 860.995 666.175 861.325 672.72C861.51 676.295 861.925 676.725 864.04 679.625C862.89 681.8 862.01 686.215 861.59 688.78C859.825 699.455 856.22 709.945 847.45 717.08C844.18 709.69 839.56 710.295 833.08 712.865C835.07 707.47 839.825 699.13 840.64 693.5C844.32 668.065 843.59 639.795 843.165 614.255C842.415 581.355 842.015 548.45 841.965 515.545Z" fill="#d2d2d2"/>
<path d="M389.728 515.07C394.525 512.82 398.252 510.77 402.605 507.685L402.564 639.23C402.565 658.565 403.335 682.625 402.571 701.295C398.387 704.625 390.82 717.325 383.957 711.915C378.594 707.685 385.342 700.045 386.75 695.585C387.927 691.745 388.724 687.755 389.251 683.78C393.938 648.42 391.566 612.21 391.065 576.645L390.657 537.1C390.525 530.31 390.491 521.715 389.728 515.07Z" fill="#d2d2d2"/>
<path d="M687.305 732.515C683.44 737.015 683.26 738.455 676.48 737.99C658.225 736.745 640.435 730.255 627.97 716.42C623.645 711.855 620.955 705.025 626.53 700.29C631.9 695.725 636.94 701.365 640.54 705.335C649.65 715.39 659.495 719.005 672.83 721.06C680.865 722.07 688.215 722.225 687.305 732.515Z" fill="#000000"/>
<path d="M833.08 712.865C839.56 710.295 844.18 709.69 847.45 717.08C848.2 724.395 843.465 726.085 836.37 730.4C830.59 733.92 803.515 745.525 803.785 729.625C803.895 723.115 812.86 721.52 817.96 719.81C822.57 718.265 828.505 716.05 833.08 712.865Z" fill="#000000"/>
<path d="M823.17 221.487C838.35 220.743 853.515 219.693 868.655 218.338C879.185 217.457 892.205 216.893 902.105 213.695C901.535 297.762 901.685 381.832 902.545 465.896C892.035 465.931 881.53 465.807 871.025 465.522C862.04 454.886 852.25 446.195 839.195 440.805C838.995 408.22 838.96 375.635 839.09 343.051C839.085 331.607 839.085 320.142 839.055 308.717C839.035 298.821 835.9 289.212 828.685 282.2C817.465 271.291 798.15 271.178 786.095 280.778C772.16 291.877 773.16 308 773.145 324.07L773.19 354.433C773.275 383.341 772.825 412.029 773.44 440.936C761.21 447.312 755.21 453.814 748.345 465.805L721.44 465.624C717.385 454.631 709.185 446.309 699.33 440.351C700.49 420.383 706.81 412.398 713.035 394.265C721.385 369.357 718.035 340.559 700.28 320.431C688.09 306.615 671.7 299.483 653.52 298.257C623.625 296.24 600.255 312.247 587.83 338.952C582.615 350.16 577.915 364.482 587.795 374.89C590.935 378.146 594.375 379.824 598.78 380.754C616.995 384.582 622.385 363.646 636.355 357.076C645.875 352.596 656.91 356.257 659.145 366.934C662.54 382.844 653.12 395.931 647.42 409.754C643.49 419.211 640.76 429.123 639.29 439.259C629.07 444.963 619.8 454.704 615.83 465.83C596.215 466.182 576.35 465.602 556.68 465.773C551.9 459.845 548.72 456.406 542.425 451.998L546.08 402.099C546.565 395.046 547.16 379.179 548.795 373.035C557.08 365.487 563.095 362.344 563.63 349.326C564.255 334.717 560.625 321.057 550.705 310.067C532.22 289.592 493.038 289.371 473.131 307.463C452.438 326.271 458.919 362.64 461.273 387.693C463.382 410.723 466.035 433.7 469.229 456.605L459.874 465.704C445.836 465.917 429.34 466.141 415.403 465.613C410.589 453.757 401.426 446.571 390.917 440.147C390.527 414.872 390.419 389.595 390.595 364.318C390.61 356.376 391.771 337.482 390.547 329.999C387.981 314.314 379.912 289.964 370.716 276.861C366.897 271.419 355.392 272.136 351.346 278.289C341.298 293.57 335.537 313.312 331.837 331.187C330.795 338.029 331.473 361.062 331.498 368.871C331.575 393.514 331.299 418.298 331.569 442.818C322.711 449.385 317.485 455.626 313.087 465.902C305.055 465.94 297.022 465.892 288.99 465.759C279.67 449.934 265.833 440.68 248.671 434.901C253.17 422.28 257.478 416.68 262.733 405.198C272.238 384.429 273.705 356.862 263.841 335.819C256.581 320.235 243.382 308.208 227.191 302.426C188.533 288.574 150.9 311.184 138.807 349.133C137.697 352.616 136.095 356.713 136.062 360.222C136.071 378.495 156.334 388.066 172.139 381.259C183.548 376.346 191.924 355.005 204.107 358.665C217.05 362.554 214.264 383.116 210.064 392.78C204.487 405.615 197.963 418.988 193.898 432.348C187.597 433.013 181.997 434.794 176.092 436.87C157.268 443.488 148.135 451.35 135.238 465.767C125.193 465.844 114.967 465.615 104.986 465.813C104.102 416.579 104.33 367.782 103.175 318.338C102.878 304.646 102.467 290.958 101.94 277.273C101.715 271.305 101.464 260.376 100.774 254.697C100.143 242.204 99.2365 230.726 96.1355 218.55C120.296 219.887 145.328 220.355 169.569 221.131C231.761 223.228 293.978 224.542 356.203 225.075C470.718 226.662 585.25 226.609 699.76 224.917C719.165 224.588 738.57 224.15 757.97 223.733C779.545 223.269 801.685 221.817 823.17 221.487Z" fill="#ffffff"/>
<path d="M96.1355 218.55C120.296 219.887 145.328 220.355 169.569 221.131C231.761 223.228 293.978 224.542 356.203 225.075C470.718 226.662 585.25 226.609 699.76 224.917C719.165 224.588 738.57 224.15 757.97 223.733C779.545 223.269 801.685 221.817 823.17 221.487C822.27 222.445 821.735 222.979 820.325 223.184C794.27 226.973 767.89 227.578 741.645 229.173C681.465 233.033 621.22 235.876 560.945 237.703C471.474 240.678 381.972 242.74 292.457 243.886L207.154 244.638C190.146 244.731 112.48 244.597 101.495 251.492C100.783 252.573 100.865 253.398 100.774 254.697C100.143 242.204 99.2365 230.726 96.1355 218.55Z" fill="#c3c3c3"/>
<path d="M505.655 313.131C527.79 311.092 546.1 321.947 545.39 346.391C545.755 356.835 531.815 359.227 530.645 368.916C527.5 394.949 526.825 421.89 524.31 447.97L517.2 448.219C507.41 448.319 496.24 448.466 486.543 448.031C484.618 437.2 483.089 419.646 481.874 408.084C480.022 386.442 476.469 364.529 477.306 342.784C478.008 324.552 489.054 316.123 505.655 313.131Z" fill="#686868"/>
<path d="M647.1 316.692C647.63 316.663 648.16 316.641 648.69 316.626C683.95 315.512 705.655 348.929 697.515 381.569C693.595 397.285 684.535 411.154 682.19 427.291C680.445 439.251 680.585 451.701 680.565 463.777C680.5 475.888 680.54 487.998 680.685 500.11C671.04 502.485 666.1 502.57 656.315 500.17C655.505 485.546 655.66 465.893 656.57 451.377C657.41 440.424 659.715 428.385 664.15 418.315C669.81 406.077 675.51 396.525 677.745 382.929C681.565 362.083 672.165 339.866 649.485 336.873C628.725 334.132 617.415 348.265 604.075 361.09C603.265 361.867 602.42 361.811 601.435 361.557L600.945 360.613C601.07 353.588 608.09 339.449 612.895 333.971C623.22 322.201 632 318.103 647.1 316.692Z" fill="#686868"/>
<path d="M199.686 317.164C222.782 314.65 244.279 329.167 250.208 351.649C253.926 365.746 252.559 381.642 246.75 395.011C240.674 408.993 232.246 421.733 228.949 436.895C224.092 458.397 225.475 480.668 225.214 502.525C218.483 502.52 214.212 502.315 207.635 501.655C207.287 487.817 206.909 468.258 208.301 454.775C209.666 444.628 212.574 434.889 216.406 425.435C224.332 405.884 236.442 386.304 230.773 364.372C228.479 355.496 223.661 348.522 215.63 343.872C210.615 340.941 204.811 339.647 199.027 340.171C177.471 342.127 172.384 362.281 161.919 364.612C160.147 365.007 158.096 364.755 156.637 363.6C155.42 362.638 154.915 361.794 154.719 360.251C154.043 354.928 162.696 341.572 166.006 337.236C174.95 325.524 185.175 319.165 199.686 317.164Z" fill="#686868"/>
<path d="M804.83 292.598C805.77 292.574 806.82 292.553 807.755 292.632C811.3 292.93 814.575 294.641 816.84 297.38C819.065 300.116 820 303.073 820.205 306.511C820.745 315.465 820.535 324.856 820.53 333.855L820.52 383.929L820.525 425.326C820.525 431.312 820.865 442.556 820.165 448.041C816.54 448.58 812.455 448.532 808.755 448.591C803.18 448.621 797.61 448.612 792.035 448.563L792.03 355.401C792.03 342.497 791.975 329.573 792.065 316.671C792.14 304.939 791.395 296.144 804.83 292.598Z" fill="#686868"/>
<path d="M349.922 330.484L372.427 330.496C373.182 337.336 372.892 346.818 372.889 353.953L372.881 391.643C372.909 427.318 373.595 465.392 372.717 500.93C363.418 502.045 358.911 501.56 349.727 499.688C348.901 465.489 349.518 428.784 349.509 394.456L349.503 355.135C349.504 347.633 349.236 337.759 349.922 330.484Z" fill="#c3c3c3"/>
<path d="M686.645 205.642L810.615 187.178L853.975 180.307C862.725 178.938 871.8 177.09 880.645 176.798C886.27 176.612 892.31 177.037 896.98 180.485C900.03 182.737 902.81 186.657 903.075 190.555C903.16 191.856 902.79 192.844 901.81 193.711C890.72 203.51 734.69 205.285 707.22 206.56C704.055 207.311 683.18 207.413 680.49 206.424C682.925 205.965 684.175 205.774 686.645 205.642Z" fill="#c3c3c3"/>
<path d="M707.22 206.56C704.055 207.311 683.18 207.413 680.49 206.424C682.925 205.965 684.175 205.774 686.645 205.642L687 206.294C693.565 207.098 700.895 206.186 707.22 206.56Z" fill="#686868"/>
<path d="M837.83 897.21L839.945 897.125C839.865 897.97 836.89 899.415 835.76 900.14C828.5 904.885 821.76 910.385 815.65 916.54C791.4 941.12 781.31 968.105 770.58 999.99L757.12 992.665C753.25 990.725 749.23 988.5 745.385 986.455C756.67 961.355 764.675 932.215 786.64 913.91C801.03 901.91 819.735 898.96 837.83 897.21Z" fill="#c3c3c3"/>
<path d="M75.213 220.333C82.7475 227.944 82.628 279.426 83.561 293.555C76.297 295.121 67.305 297.349 60.1225 298.278C54.8895 299.19 52.425 296.23 52.6635 291.468C53.5095 274.572 64.37 232.938 75.213 220.333Z" fill="#c3c3c3"/>
<path d="M487.643 466.447C498.397 466.058 512.14 466.474 523.16 466.471C523.645 470.482 524.8 496.059 524.06 498.632L522.87 499.209C509.23 502.58 499.696 500.56 487.044 495.2C486.914 485.83 486.568 475.734 487.643 466.447Z" fill="#c3c3c3"/>
<path d="M791.895 466.501L820.855 466.506C821.03 471.136 822.35 499.407 820.88 501.635C809.645 503.215 802.535 502.05 791.7 500.09C791.395 488.896 791.46 477.693 791.895 466.501Z" fill="#c3c3c3"/>
<path d="M187.885 452.091C189.265 451.818 188.655 451.669 189.796 452.271C188.362 468.133 188.588 480.809 188.619 496.75C179.009 492.511 174.223 489.804 165.236 484.455C159.859 481.203 154.535 477.863 149.268 474.436C160.48 462.853 172.387 456.315 187.885 452.091Z" fill="#c3c3c3"/>
<path d="M244.519 452.821C257.253 457.319 265.636 463.521 273.312 474.604C270.947 480.504 266.735 484.591 262.269 488.916C255.634 494.673 252.017 495.83 243.998 499.073C243.889 487.24 243.121 463.429 244.519 452.821Z" fill="#c3c3c3"/>
<path d="M839.54 460.782C847.43 465.156 854.09 471.439 858.92 479.055C856.655 482.92 854.07 485.789 851.03 489.038C846.88 492.803 844.38 494.272 839.42 496.847C838.875 486.407 839.13 471.328 839.54 460.782Z" fill="#c3c3c3"/>
<path d="M361.06 295.293C365.855 306.614 369.277 318.634 372.427 330.496L349.922 330.484C353.567 317.784 356.842 307.663 361.06 295.293Z" fill="#c3c3c3"/>
<path d="M391.258 460.779C391.835 461.23 392.401 461.695 392.955 462.174C399.299 467.709 401.328 472.618 401.865 480.76C400.081 484.845 398.832 486.6 396.065 489.908C394.688 491.434 392.558 493.158 390.961 494.537C390.444 486.342 390.573 469.1 391.258 460.779Z" fill="#c3c3c3"/>
<path d="M772.985 461.49C773.96 463.129 773.405 488.029 773.375 491.809C771.645 490.303 769.905 488.632 768.22 487.066C758.275 476.784 764.585 469.681 772.985 461.49Z" fill="#9b9b9b"/>
<path d="M699.15 461.809C701.96 463.833 705.335 469.227 705.9 472.723C706.905 478.981 705.655 481.599 702.59 486.501L698.995 491.11C698.955 481.586 698.725 471.262 699.15 461.809Z" fill="#9b9b9b"/>
<path d="M331.279 464.863C331.718 467.981 331.506 483.569 331.283 486.866L330.841 487.178L329.396 485.505C324.799 476.845 326.544 472.915 331.279 464.863Z" fill="#9b9b9b"/>
<path d="M637.59 464.88C638.05 467.57 638.15 484.791 637.185 487.037L636.365 486.283C631.61 477.98 632.44 472.583 637.59 464.88Z" fill="#9b9b9b"/>
<path d="M541.965 473.849C543.94 475.645 544.875 477.93 545.985 480.301C545.285 482.406 544.43 484.099 543.49 486.096L542.51 487.03C541.55 484.997 541.925 476.69 541.965 473.849Z" fill="#9b9b9b"/>
<path d="M921.075 508.88C921.665 516.67 921.44 527.095 921.455 535.105L921.495 581.07C921.5 589.585 921.25 600 922.175 608.345C921.1 608.015 921.155 608.075 920.42 607.23C919.26 581.31 921.07 553.935 920.745 527.895C920.675 522.125 920.42 514.505 921.075 508.88Z" fill="#000000" fill-opacity="0.964706"/>
</svg>
