<svg width="1019.96" height="1019.96" viewBox="0 3.49 1019.96 1019.96" fill="none" xmlns="http://www.w3.org/2000/svg">
<g clip-path="url(#clip0_15505_17754)">
<path  d="M0 0Z"  fill="none"/>
<path d="M361.711 206.096C370.333 205.581 389.543 213.739 398.695 216.951L458.351 237.332C521.125 258.672 584.435 278.415 648.215 296.542C657.235 299.056 707.225 311.199 712.055 315.766C713.455 317.088 714.73 318.751 715.545 320.499C721.72 333.751 726.88 347.55 732.86 360.908C747.135 392.618 762.045 424.038 777.58 455.147C814.055 527.795 854.195 598.55 897.84 667.13C921.13 703.675 948.43 744.545 975.025 778.8C978.54 769.255 991.31 728.52 995.82 722.905C997.62 720.665 1001.06 718.765 1003.92 718.475C1007.75 718.085 1011.83 719.18 1014.81 721.625C1017.8 724.08 1019.77 728.1 1019.86 731.98C1019.96 736.87 996.615 801.785 993.43 809.525C992.53 811.7 991.57 814.34 989.865 816.01C987.07 818.74 983.955 819.995 980.08 820.355C969.32 821.36 957.685 820.505 946.84 820.49L879.545 820.495L662.375 820.445L207.428 820.46L93.7131 820.48L58.9366 820.455C53.0216 820.475 47.1485 820.675 41.2315 820.515C35.5077 820.355 29.7638 817.75 27.574 812.115C23.6659 802.06 20.5998 791.655 16.9784 781.485L6.12301 751.05C4.22002 745.695 1.79931 739.695 0.580923 734.19C-0.773967 728.065 4.21644 721.275 9.84526 719.285C13.2162 718.12 16.9096 718.335 20.1239 719.88C22.4293 720.99 24.3811 722.72 25.7624 724.875C27.9376 728.33 31.2754 738.985 32.8399 743.56L43.5959 774.935C48.8838 768.8 60.1301 752.295 65.0881 745.16C80.0911 723.65 94.6021 701.795 108.611 679.625C175.491 574.41 235.573 465.029 288.49 352.145C303.107 321.223 317.416 290.157 331.417 258.952C335.718 249.38 339.952 239.779 344.118 230.148C348.323 220.574 350.941 209.275 361.711 206.096Z" fill="#000000"/>
<path d="M388.78 242.828C488.985 278.139 590.475 309.687 693.04 337.403C697.025 347.658 702.745 359.897 707.265 370.017C716.695 391.158 726.405 412.172 736.39 433.054C774.745 512.58 817.41 589.955 864.205 664.83C891.305 708.605 920.265 751.205 951.005 792.51L872.75 792.535L706.095 792.485C710.56 780.82 714.46 768.315 719.085 756.535C721.885 748.375 725.535 740.125 727.76 731.805C729.165 726.55 725.065 719.02 720.065 717.08C715.26 714.78 705.34 716.08 702.875 721.62C695.61 737.955 690.195 756.38 683.52 773C592.59 645.525 513.13 510.25 446.059 368.757C425.809 326.629 407.726 285.417 388.78 242.828Z" fill="#aeaeae"/>
<path d="M363.731 254.371C369.619 265.353 376.843 283.891 382.314 295.857C397.294 329.205 412.775 362.325 428.753 395.207C480.802 502.49 539.515 606.405 604.545 706.355C616.32 724.51 628.44 742.445 640.895 760.15C648.415 770.995 656.08 782.29 664.095 792.73L497.715 792.78C508.53 777.435 519.54 762.225 530.73 747.15C536.375 739.595 542.475 732.085 547.825 724.39C550.105 721.34 551.015 714.96 548.5 711.735C542.795 704.43 532.97 698.455 525.705 692.625C520.625 688.48 515.67 684.185 510.835 679.755C499.997 669.71 489.81 658.985 480.338 647.645C427.481 585.11 399.734 512.45 382.41 433.615C380.388 424.046 379.545 409.978 374.568 402.5C369.64 395.097 357.261 398.185 354.303 404.888C352.054 409.985 349.675 424.76 348.703 430.195C325.402 560.48 286.077 688.285 201.517 792.61L64.9873 792.65C74.2903 781.105 88.2513 760.13 96.6688 747.605C111.897 725.175 126.747 702.485 141.211 679.555C184.39 610.94 224.561 540.475 261.612 468.366C297.511 397.936 331.562 326.58 363.731 254.371Z" fill="#ffffff"/>
<path d="M349.694 551.86C350.249 554.58 350.059 568.37 350.055 571.98L350.055 614.07L350.238 792.185C312.817 792.845 274.629 792.5 237.158 792.535C237.054 790.985 242.176 784.445 243.548 782.52C254.478 767.375 264.669 751.705 274.084 735.57C307.916 678.095 331.441 615.78 349.694 551.86Z" fill="#aeaeae"/>
<path d="M395.669 561.755C397.8 563.82 407.947 584.88 410.674 589.84C432.258 629.11 458.885 664.845 491.271 695.905C500.28 704.54 509.995 711.975 519.265 720.245C510.2 731.945 501.26 743.75 492.448 755.64L472.777 781.94C465.516 773.225 456.925 757.265 451.986 747.085C424.185 689.785 407.103 624.185 395.669 561.755Z" fill="#ffffff"/>
</g>
<defs>
<clipPath id="clip0_15505_17754">
<rect width="1024" height="1024" fill="#ffffff"/>
</clipPath>
</defs>
</svg>
