<svg width="121" height="121" viewBox="0 0 121 121" fill="none" xmlns="http://www.w3.org/2000/svg">
<path d="M40.1514 2.06573C40.5466 2.04101 41.9062 2.00866 42.233 2.13671C48.7097 4.67731 55.2032 7.21116 61.7329 9.61453C63.1248 10.1268 64.5 10.8315 65.9096 11.365C68.6467 12.4011 71.374 13.3645 74.1664 14.2435C75.3304 14.6065 76.6422 15.6865 77.8589 15.8356C79.4135 16.0261 81.2186 15.2108 82.6152 14.707L87.8891 12.8532L97.4884 9.45229C101.051 8.22246 104.551 7.15181 108.007 5.60323C110.412 4.52522 115.03 3.65329 117.069 2.13858C119.165 1.98172 119.528 1.88337 121 3.41245V102.871C119.205 104.38 115.13 105.755 112.83 106.661C109.879 107.823 106.789 108.679 103.807 109.769C100.746 110.887 97.6536 111.949 94.6072 113.099C92.9505 113.724 91.3447 114.476 89.6954 115.117C88.4057 115.619 87.0747 116.03 85.7715 116.497C84.4682 116.965 79.6636 119.043 78.8444 118.961C77.3313 118.81 75.7895 118.111 74.366 117.598C72.4472 116.907 70.5094 116.241 68.6179 115.479C66.6948 114.703 64.8116 113.828 62.8788 113.077C61.2532 112.445 59.5951 111.924 57.9608 111.322L47.7427 107.484C45.962 106.83 43.2607 105.373 41.4247 105.475C39.5828 105.577 36.4482 106.897 34.5696 107.538L24.1998 111.186C22.5518 111.758 20.8723 112.253 19.224 112.828C17.3821 113.467 15.5596 114.429 13.7276 115.069C10.4102 116.227 7.07913 117.366 3.74215 118.466C1.94624 119.058 1.55203 118.49 0 117.719V17.1178C1.39595 16.7398 3.35692 15.4329 5.0475 14.9461C8.36131 13.9919 11.6078 12.5875 14.9618 11.7199C15.3811 11.6115 15.8846 11.4346 16.3076 11.3049C19.2847 9.72838 22.5347 9.07963 25.617 7.92421C30.0608 6.25842 34.3921 4.39502 38.9524 3.02736C39.4139 2.88898 39.8636 2.43788 40.1514 2.06573ZM43.3473 41.7049C45.2363 41.5309 46.4623 41.8149 48.1348 41.858C55.3901 42.0443 61.5305 44.4229 63.5477 51.9691C63.8438 53.0768 64.324 54.6315 64.9588 55.651C68.2061 59.6705 75.4563 63.0844 70.3713 69.095C66.8213 73.2914 61.7636 72.3241 57.9981 69.0014C56.1589 67.3686 54.7173 65.337 53.7833 63.0619C52.3898 59.7466 52.438 56.5973 49.2165 54.4656C47.1762 53.1153 44.8157 53.1956 43.2532 52.4593C43.2223 53.5197 43.1822 54.2966 43.4752 55.3231C43.5933 55.7369 43.8642 57.055 43.866 57.4254C43.8755 59.3295 44.3672 71.8643 43.4853 72.7126C43.241 73.4466 42.7431 75.8197 43.2375 76.1873C44.0537 76.7941 46.6175 77.1279 47.6693 77.5661C54.3461 80.3478 57.2065 87.5092 59.9879 93.6572C60.598 94.5551 61.3761 99.0132 62.1545 99.4595C63.8177 100.413 66.1083 101.319 67.8613 102.057C70.0999 102.999 74.3147 104.784 76.5743 105.121L76.677 105.136C77.2266 102.145 77.0581 99.3256 77.0152 96.2859C74.3781 95.6598 70.8601 94.8929 68.7135 93.2831C67.898 92.7478 67.296 92.0372 66.5903 91.3927C63.6598 88.7169 62.1257 85.044 60.2623 81.6345C58.9296 79.196 56.6148 77.1166 54.8612 74.961C54.1405 74.0879 52.995 73.3154 52.1171 72.6111C51.3309 72.0022 49.1356 71.1433 48.7244 70.3063C49.7668 68.7156 53.6043 70.4643 54.7249 71.346C56.0241 72.3683 58.0579 74.02 58.9452 75.4154C60.478 77.8261 62.2572 80.4585 63.7531 82.8735C66.0415 86.5685 67.9128 90.6739 72.1198 92.6476C73.4554 93.2915 75.0745 93.7537 76.5989 93.6652C77.6515 93.0866 76.7901 87.5327 76.7837 86.1876L75.1378 86.0778C73.5161 84.6398 72.0984 83.4339 74.2178 81.6482C75.56 82.5851 75.9094 83.2209 76.9916 84.0776C77.244 82.1625 77.0169 76.6576 77.0138 74.4148L77.0296 59.0602C77.0172 55.6674 76.9092 51.2382 77.0733 47.8811C70.1169 48.296 64.0016 41.5656 63.6178 34.921C63.5746 34.1112 63.6227 33.2992 63.7611 32.5002C64.024 32.1665 64.1931 31.8652 64.6037 31.79C65.497 32.0175 65.7503 33.4098 65.882 34.2413C66.5486 38.4486 68.2615 42.9392 72.6258 44.4566C74.405 45.0753 74.8701 45.0447 76.7533 44.9644C77.0202 41.5994 77.112 38.2229 77.0284 34.8483C76.9712 32.8101 76.8007 30.753 76.7341 28.7005C73.9674 27.0727 69.3532 25.8034 66.3843 24.6065C63.5477 23.4628 61.7502 22.6051 58.7707 21.6201C58.9218 22.9916 59.1763 24.1323 58.9964 25.5289C58.1043 32.4542 51.3294 35.8531 44.8864 35.47C44.4246 35.4426 43.8685 35.4453 43.4083 35.4536C43.1171 36.1842 43.4191 40.3019 43.3473 41.7049ZM80.0714 83.2183C83.5975 80.6037 86.3413 76.9918 91.3135 77.5598C95.1911 78.0028 96.9404 81.7657 96.3438 85.3143C95.9582 87.5552 94.7003 89.552 92.8456 90.8673C90.9946 92.1637 82.4414 95.4439 80.0342 95.8195C80.1063 97.6157 80.1216 99.4096 80.1484 101.207C80.1663 102.409 80.2967 103.727 80.2257 104.915C80.4727 105.079 80.6947 105.156 81.0023 105.052C83.9338 104.055 87.1687 103.145 90.0609 102.067C93.5537 100.765 96.8682 99.1053 100.499 98.0975C101.513 97.8161 102.692 97.0571 103.73 96.7656C105.46 96.2342 106.986 95.7561 108.648 95.0044C108.636 93.0661 108.539 90.9905 108.376 89.0545C108.14 86.2604 108.475 83.1852 108.321 80.4567C108.247 79.1314 108.737 74.8163 108.564 74.0978C107.301 73.4654 105.365 73.2459 103.912 72.5339C102.659 71.92 101.255 71.1525 100.049 70.5796C95.4397 68.4661 91.2059 64.3163 89.6831 59.4214C88.9131 56.9463 87.7075 53.1234 88.3234 50.5974C88.9129 48.1794 89.7271 44.6293 90.8907 42.4293C92.2666 39.828 94.2998 37.1621 96.3165 35.015C97.3959 33.9692 100.058 31.8446 101.331 31.0075C103.734 29.5844 106.599 28.7401 108.724 26.8859C108.824 26.7991 108.829 26.1536 108.806 26.0172C108.565 24.6391 108.994 19.4904 108.607 18.4682L108.357 18.4452C106.008 19.0883 103.799 20.0707 101.501 20.8711C99.5621 21.5465 97.5222 22.0572 95.6173 22.8073C94.9521 23.0692 91.7543 24.4826 91.5076 24.9298C90.7777 26.2526 90.3948 30.0009 89.8667 31.7826C89.2239 33.9511 88.2409 35.9929 87.368 38.0766C86.5598 40.006 85.5757 42.0738 84.2067 43.6662C83.6832 44.2751 80.3485 47.3795 80.2573 47.5743C79.8546 48.4348 80.1957 78.9434 80.0714 83.2183ZM11.8933 25.3978C12.1929 26.943 12.1105 29.7837 12.1388 31.4306C12.2348 37.03 11.9259 42.6773 12.2475 48.2862C12.2881 48.9942 12.0469 50.2373 12.109 50.4589C12.4674 50.6749 14.6432 51.2624 15.2814 51.4763C16.2838 51.8122 17.3519 52.2465 18.3069 52.5928C22.3477 54.0585 25.056 56.449 27.5173 59.8847C28.8787 61.5735 30.0399 63.4521 30.5318 65.6056C31.4399 69.6644 31.2175 74.831 29.0201 78.4649C27.1699 81.5248 25.027 84.9416 21.9173 86.847C20.3508 87.8069 18.628 89.1291 16.9812 89.9295C15.4839 90.6573 13.6254 91.2472 12.0495 91.8513L12.1043 100.088C12.1045 100.631 11.9128 102.145 12.1259 102.493L12.3251 102.515C12.7459 102.428 14.2307 102.188 14.4758 102.096C15.9263 101.555 17.2842 101.021 18.7548 100.419C21.3515 99.3559 27.1148 98.316 28.885 96.277C29.7674 94.1295 29.9287 91.2374 30.624 89.0409C31.1769 87.294 31.881 86.1329 32.6652 84.6603C34.3441 81.5068 36.4301 77.6925 40.2999 77.0159C40.2131 75.9431 40.1878 74.8932 40.1903 73.817C40.2059 66.743 39.9608 59.667 40.4498 52.603C27.073 52.0273 20.0397 43.4048 20.4833 30.4812C20.5271 29.2041 21.3759 23.0012 20.8701 22.3144C19.0945 23.2047 13.7775 25.2083 11.8933 25.3978ZM80.1374 20.2213C79.8992 21.8005 79.8847 22.4382 80.1949 24.0101C80.2745 24.4139 79.4413 24.8115 79.8925 25.7299C80.8577 26.1155 86.7854 23.27 88.2619 22.8165C94.4626 20.9118 100.265 18.1428 106.491 16.2626C107.578 15.9343 110.391 13.7928 111.198 15.5648C111.631 16.7746 111.742 18.5177 111.814 19.8078C111.968 26.4746 111.958 33.1871 111.938 39.852L111.956 63.5837L112.006 83.4645C112.005 86.6093 112.297 94.2714 111.342 96.9056C110.536 97.2846 108.358 98.3434 107.559 98.4282C104.048 99.5257 100.556 100.819 97.1259 102.156C94.5732 103.151 91.6445 103.88 89.1632 104.906C86.0367 106.198 83.3643 107.178 80.1073 108.159C80.1025 109.46 80.1139 110.624 80.3798 111.903C80.4229 112.11 79.8104 112.684 79.7675 113.116C80.9694 114.042 89.8017 110.248 91.5985 109.595L109.967 103.117C112.136 102.37 114.056 101.19 116.412 101.08C116.591 97.104 116.415 93.8656 116.373 89.9225L116.306 74.1971L116.274 22.6939C116.276 21.1759 116.687 7.75408 116.495 7.42526L116.409 7.36281C113.946 7.74776 112.091 8.58064 109.76 9.44608L100.296 13.0252C93.6259 15.483 86.7459 17.6877 80.1374 20.2213ZM43.2185 95.3995C43.0921 97.2945 43.1879 99.4395 43.3602 101.339C50.3531 103.307 57.0766 106.594 64.0177 108.737C66.3113 109.445 74.9831 113.789 76.9295 113.516C77.1062 112.301 77.0717 109.793 77.1 108.452C75.7378 107.534 73.5302 107.153 71.9416 106.456C70.3705 105.766 68.7751 105.039 67.1938 104.384C65.7611 103.775 64.0717 103.463 62.656 102.861C58.5554 101.118 54.2036 99.8177 50.1173 98.0855C48.0403 97.2049 45.1312 96.3507 43.2185 95.3995ZM43.3355 33.1126C46.7299 32.8185 50.8869 33.5615 53.3424 30.958C57.0148 27.8392 56.0366 24.8423 55.7835 20.5696C54.8113 20.0458 53.7116 19.6602 52.6805 19.2613C49.5117 18.0351 46.3162 16.7559 43.072 15.7444C42.9835 16.9993 43.0695 18.165 43.004 19.3371C42.851 22.0753 42.8999 24.6496 42.9467 27.386C42.9832 29.5295 42.7835 30.9682 43.3355 33.1126ZM43.3286 78.8083C43.2113 80.184 43.1343 81.3106 43.1085 82.6945C43.0489 83.611 43.0625 84.8084 43.0702 85.7382C43.0772 86.5958 42.7678 89.5055 43.2212 90.0916C43.3249 90.8432 43.1312 92.7221 43.6165 93.1745C44.1121 93.3124 44.7681 93.4489 45.2438 93.6216C47.872 94.5763 50.5743 95.4587 53.2383 96.309C54.4338 96.6907 57.6003 98.3412 58.6929 97.898L58.7734 97.6973C58.6314 97.047 58.4677 96.341 58.168 95.7091C56.1504 91.4547 54.2234 86.9354 51.4231 83.1286C50.8069 82.291 48.7628 81.0435 47.8928 80.5331C46.4862 79.7076 44.8467 79.3824 43.3286 78.8083ZM34.6468 38.8766C36.0536 40.0812 38.37 40.8915 40.196 41.0009C40.3856 39.614 40.4012 33.1242 40.2043 31.7267C39.9397 29.8491 40.5316 16.5239 40.1913 15.7728L40.0101 15.7394C39.1062 16.0786 36.3746 16.705 35.3702 16.8581C35.2069 17.9295 35.0698 18.9995 34.9207 20.0736C34.6026 22.3651 33.1261 24.5456 32.4955 26.6693C31.2693 30.7987 31.6016 35.6182 34.6468 38.8766ZM79.2896 86.8902C79.7359 88.9463 80.2322 91.3973 79.9596 93.499C81.0173 93.2228 82.0039 92.9797 82.9945 92.5058C86.3782 91.2596 92.7977 89.854 94.053 86.3688C95.6099 82.0464 93.5497 80.216 89.4791 80.1671C86.4701 80.5006 85.2974 82.49 83.0362 84.2194C82.0252 84.9928 79.9864 86.0241 79.2896 86.8902ZM103.464 59.1319C104.968 60.4019 106.874 60.842 108.8 61.2104C108.569 56.9079 108.204 52.6748 108.457 48.3586C108.522 47.2595 108.914 41.2303 108.528 40.6606L108.287 40.6682C102.257 43.3643 98.1932 48.7207 100.871 55.9726C101.298 57.1278 102.684 58.1449 103.464 59.1319ZM11.9022 52.8822C12.1709 54.1226 12.1343 59.313 12.008 60.5983L12.0615 60.6268C13.1251 61.1844 14.2227 61.2549 15.2749 61.7166C20.2809 63.9192 23.2046 70.2849 20.5499 75.3406C19.7167 76.9274 17.7557 78.8519 16.352 79.9792C15.2774 80.8421 13.4304 81.3297 12.0975 81.5224C12.0644 83.5046 12.2444 87.6424 12.1136 89.3267C13.0201 88.8374 13.5265 88.8227 14.5328 88.6123C14.8868 88.5383 14.8782 88.1272 14.9508 88.0867C15.4021 87.8356 16.3774 87.6754 16.8494 87.5385C17.7684 86.7293 19.4316 86.0063 20.147 85.3115C21.3144 84.1775 23.6211 82.4798 24.6196 81.3585C26.3739 79.3883 27.9328 75.7625 28.1521 73.1268C28.5021 67.8714 28.2247 63.9321 24.6031 59.7684C21.6779 56.4055 16.3471 53.3695 11.9022 52.8822ZM79.9947 29.2686C79.9972 32.8409 80.2169 36.4685 80.2152 40.0555C80.2147 41.0692 79.8941 43.3688 79.9458 44.0383C81.7564 43.5996 83.6789 40.2287 84.7605 38.7745C86.211 36.8239 88.619 27.9759 88.2456 25.9391C88.1597 25.8164 88.1145 25.7303 88.0021 25.633C87.1833 25.9967 86.666 26.0775 85.8526 26.3679C83.9139 27.0601 81.6512 28.0228 79.9947 29.2686ZM12.0605 63.0447L12.0633 79.0119C14.5515 78.2258 14.6404 78.5488 16.6626 76.8533C19.9287 73.416 19.8552 68.8034 16.6094 65.2858C15.5676 64.1567 13.3632 63.769 12.0605 63.0447ZM40.2235 93.1244C40.2079 91.767 40.2112 79.8503 40.0583 79.6481C38.468 80.8106 36.1907 82.425 35.2703 84.1777C33.7649 87.0444 32.6256 90.2747 31.8542 93.4207C31.7419 93.8786 31.4873 94.7529 31.6413 95.18C31.8148 95.3338 32.0036 95.5093 32.1808 95.6547C32.8981 95.7833 33.8156 95.1131 34.5513 94.8909C36.3536 94.3468 38.3888 93.4624 40.2235 93.1244ZM104.016 70.135C105.746 70.4535 106.934 70.969 108.693 71.0585C108.631 68.8102 108.654 66.1105 108.722 63.8596C106.253 63.955 103.015 61.9429 101.226 60.3623C99.2071 58.5793 97.4905 55.0926 97.4417 52.3273C97.3397 46.542 100.782 42.4006 105.381 39.3633C106.41 38.6832 107.679 38.2271 108.718 37.6011C108.715 36.6077 108.92 30.8758 108.728 30.4974L108.513 30.5316C105.744 31.4121 104.895 31.7978 102.425 33.2172C95.4604 37.2201 90.7734 44.5515 91.1221 52.6931C91.2608 55.9307 91.34 58.2631 93.1342 61.1267C94.9792 64.6932 97.2683 66.8588 100.897 68.7237C101.375 68.9705 103.509 69.9831 104.016 70.135ZM47.6648 44.1742C47.0812 44.1483 43.7023 44.0488 43.4177 44.1841C43.0277 45.3849 43.2828 49.112 43.2704 50.5889C45.8655 50.9331 49.3919 51.5356 51.3476 53.3726C53.908 55.7776 55.0862 59.0986 56.2964 62.2896C57.5445 65.1612 59.9291 69.1565 63.3505 69.548C64.9082 69.7264 66.6761 69.8359 67.9896 68.8785C69.5529 67.7392 69.5029 64.7953 69.1448 63.0181C66.913 60.3282 64.9568 60.0061 63.1277 57.4124C60.3619 53.4903 61.3541 49.1092 56.6904 46.2861C55.4324 45.5247 54.3721 44.8509 52.8238 44.5605C51.7764 44.3146 48.6956 44.067 47.6648 44.1742ZM43.1712 7.37192C42.8814 14.5766 42.6136 12.2807 48.0733 14.4478L68.7806 22.5737C69.815 22.9756 76.2652 26.225 76.7788 25.7169C76.3688 23.955 77.9629 21.0926 76.3004 19.6635C76.0959 19.4877 73.6608 18.6332 73.2537 18.4801L65.7778 15.7288C62.4429 14.5033 59.1094 13.2021 55.7407 12.0199C53.955 11.3932 51.9886 10.2799 50.2171 9.61924C47.9544 8.77547 45.4354 8.1631 43.1712 7.37192ZM32.6164 17.9775C31.7409 18.1235 24.5851 21.066 23.7972 21.564C23.7159 21.9468 24.0016 23.9088 24.0256 24.4557C24.1742 27.4135 24.1741 30.3671 24.0809 33.326C24.034 34.8121 23.6356 36.6991 23.9119 38.1308C25.1751 44.6764 30.0787 47.7181 35.731 50.0453C37.5099 50.4144 38.5796 50.1864 40.256 50.3757C40.2385 47.9102 40.1447 46.4352 40.4643 43.9653C36.5529 42.7109 32.4119 41.1964 30.4127 37.3034C29.1427 34.8303 28.9899 30.2197 29.7691 27.5133C30.2788 25.7427 33.5021 19.3887 32.9906 18.0162C32.8201 17.9802 32.7863 17.9549 32.6164 17.9775ZM40.2971 7.52522C34.9555 8.08197 30.2863 10.9044 25.282 12.5214C20.2215 14.1565 15.3711 16.0158 10.343 17.7227C8.63255 18.265 5.96402 19.5415 4.31933 19.7203C4.18098 22.0093 4.20838 24.6695 4.31227 26.9727C4.35183 27.8495 4.75369 28.1547 4.77571 28.8604C4.87443 32.0241 4.85657 35.2187 4.8586 38.3833L4.63265 90.8331C4.61081 95.0276 5.00484 99.3045 4.82098 103.518C4.77232 104.633 4.28251 105.677 4.27744 106.799C4.19879 108.962 4.43981 111.426 4.00379 113.526C9.36878 112.789 15.2504 109.678 20.4034 107.974C21.408 107.642 24.0571 107.087 24.7818 106.715C28.1233 105.002 31.7297 104.213 35.1799 102.869C37.0222 102.434 38.4891 101.442 40.2763 101.227C40.2853 100.414 40.4678 96.4063 40.3231 95.8232C39.2476 95.6592 35.9983 96.7834 34.9002 97.2763C34.15 97.6473 33.4736 98.1134 32.6618 98.3625C27.2857 100.012 22.135 102.337 16.7299 103.858C15.2384 104.278 10.5805 106.467 9.38933 105.623C8.81958 104.368 9.03552 92.0418 9.03192 89.503L9.03721 62.2906L9.06104 41.1711C9.04956 36.4087 8.99317 31.635 9.07128 26.8701C9.08324 26.1404 9.19505 24.5936 9.45708 23.9276C9.57065 23.6389 12.3635 22.5813 12.8259 22.3788C14.0803 21.83 15.5549 21.4846 16.8333 21.0338L31.1984 16.0429C34.2443 14.9718 36.8399 13.4293 40.1578 12.7899C40.172 11.8513 40.4804 8.05593 40.3601 7.55477L40.2971 7.52522Z" fill="black"/>
<path d="M43.1085 82.6953C43.5758 83.1102 43.6314 82.5952 43.7998 83.4238C44.0839 84.8231 44.0157 86.386 43.7113 87.777C43.4923 88.7771 43.1749 88.9623 43.2212 90.0924C42.7678 89.5063 43.0772 86.5966 43.0702 85.739C43.0625 84.8092 43.0489 83.6118 43.1085 82.6953Z" fill="black" fill-opacity="0.972549"/>
<path d="M47.6645 44.1741C48.6954 44.0669 51.7761 44.3145 52.8236 44.5604C51.333 44.5639 48.077 45.0635 46.9691 44.6502L46.8916 44.4676C47.1791 44.2123 47.2349 44.2692 47.6645 44.1741Z" fill="black" fill-opacity="0.141176"/>
</svg>
