<svg width="117" height="117" viewBox="0.836 0 117 117" fill="none" xmlns="http://www.w3.org/2000/svg">
<g clip-path="url(#clip0_15479_17760)">
<path d="M58.0466 0H63.3914L63.458 0.0529217C64.6584 0.993612 65.6867 0.994128 66.9306 1.60849C67.3662 1.82355 68.6335 2.84117 69.1003 3.15438C72.0176 5.04991 73.8802 7.65965 74.9954 10.9385C75.4112 12.161 75.8232 12.9773 75.9905 14.3162C76.5055 18.4404 74.6392 21.3248 71.9222 24.1231C79.0787 25.1544 89.8711 28.9032 88.1753 38.1001C87.6981 40.6871 83.9493 44.2359 81.5257 45.2806C80.4826 45.7303 80.4218 44.4992 80.0443 46.5011C82.4809 46.563 83.3516 47.0714 85.4925 47.7481C89.5822 48.9798 93.0416 51.0834 96.0148 54.1543C98.0859 56.2935 99.0539 58.5712 98.9602 61.6021C98.8152 66.294 94.5844 69.6041 90.889 71.8178C89.7189 72.5188 88.2868 72.5864 87.0912 73.2003C87.0414 73.3094 86.9991 73.4021 86.9641 73.4785C87.0134 73.6664 87.0532 73.8581 87.2812 73.9353C88.609 74.3912 90.0973 74.4842 91.4036 75.0298C93.8034 76.0318 96.6825 76.6629 99.0022 77.7925C107.363 81.8578 114.207 89.1407 111.991 99.0787C110.774 105.723 104.348 109.608 98.4357 111.64C96.6075 112.268 94.5676 112.732 92.6873 113.464C90.2204 114.425 87.2436 114.63 84.6242 115.052C82.1459 115.452 79.8064 116.23 77.2703 116.104C76.8204 116.08 76.7703 116.692 76.7616 117H52.9467H46.5418H40.4431L40.3141 116.24C39.841 116.032 36.9005 115.681 36.1836 115.56C27.8666 114.148 15.5949 112.217 9.18114 106.356C6.26119 103.676 4.51873 99.9502 4.33341 95.9912C4.19618 92.4935 6.0271 87.7002 8.37702 85.0298C10.9751 82.0773 12.529 81.1897 15.788 79.2612C19.9014 76.8272 23.8718 75.7961 28.4399 74.5265C28.9234 74.392 30.3815 74.3784 30.9424 74.3557C29.3247 73.5288 27.3894 72.7358 25.9143 71.9839C23.2388 70.6204 19.353 67.1593 18.5301 64.2282C17.931 62.0942 17.9021 59.3781 18.9872 57.3547C21.5569 52.5633 26.1471 49.7052 31.1695 47.9924C33.0839 47.3395 35.2871 46.8572 37.2672 46.2581L37.3585 45.9599C37.1587 45.3926 36.0006 45.1202 35.4101 44.8661C28.7715 42.0097 26.4444 34.5123 32.2041 29.3022C35.0046 26.7689 40.9067 24.585 44.7798 24.6119C43.7611 23.6766 41.8768 21.2398 41.3482 19.9964C38.5338 13.3771 45.9258 6.35609 51.2555 3.61057C52.327 3.05864 53.2986 2.3274 54.3904 1.78232C55.2376 1.35933 57.7546 0.763976 58.0466 0ZM89.9242 80.2011L89.8302 80.1844C88.5747 79.9569 87.1677 79.4946 85.9116 79.1748C77.6233 77.0649 68.8178 77.0282 60.3064 76.9932C53.2091 76.9641 46.0743 77.0416 39.0207 77.9461C37.5698 78.1409 36.2461 78.5621 34.8425 78.7857C29.4966 79.6372 24.4525 80.5876 19.5701 83.0884C18.5071 83.6327 16.7558 84.3762 15.7982 85.0801C13.8825 86.4884 10.4929 89.9961 10.0921 92.3602C10.082 92.4189 10.0728 92.4779 10.0644 92.5368C10.3464 92.6253 10.8009 92.609 11.0602 92.8059C13.0258 94.2987 14.3922 95.8444 16.6314 97.0646C18.2057 98.1553 19.8895 98.2931 21.6386 98.8236C24.0841 99.5654 26.5047 100.286 29.0324 100.758C30.1749 100.972 31.8576 100.877 32.9034 101.12C36.3464 101.922 39.3984 101.9 42.8813 101.901L51.5153 101.898C54.4828 101.901 58.2966 102.108 61.1898 101.797C64.5422 101.436 68.4176 100.283 71.8235 99.8611C72.6502 99.6142 73.4947 99.3019 74.3085 99.0187C77.4996 97.9077 81.8944 96.7948 84.7668 95.1121C87.7134 93.3859 90.9881 91.4156 91.9378 87.9878C92.6185 85.5309 91.4812 84.0289 90.4947 81.9642C90.2885 81.5143 90.0139 80.3524 89.9242 80.2011ZM82.9606 53.1766C82.6956 51.9699 81.2164 52.0525 80.1902 51.715C74.2576 49.7634 67.8964 49.5645 61.7039 49.5281C60.2062 49.5186 58.5949 49.3269 57.0328 49.3153C52.443 49.2588 47.8565 49.5959 43.3242 50.3226C42.109 50.5066 40.2285 50.6913 39.1028 51.0255C34.8409 52.2907 30.5967 53.0561 26.9231 55.7702C25.9566 56.4843 25.4531 56.6911 24.7324 57.6911C28.1375 59.8116 34.2913 61.8675 38.2284 62.8253C39.4884 63.0756 40.8849 62.9882 42.1409 63.1866C43.9968 63.48 45.7554 63.9541 47.653 63.9612C49.9698 63.97 52.3029 64.0119 54.618 63.9258C56.1112 63.8701 57.5884 63.2519 59.0707 63.1138C61.2336 63.0038 63.3321 63.0833 65.5027 62.8963C66.8967 61.7509 68.0581 62.0883 69.6314 61.7978C72.812 61.2106 77.631 59.1449 80.0812 57.0922C80.2724 56.932 82.5719 53.6723 82.9606 53.1766ZM74.5036 29.9594C65.0072 27.5652 45.9492 27.402 36.912 32.2919C35.9963 32.7873 34.9608 33.6702 34.5934 34.6952C35.2637 34.7741 36.0704 34.2819 36.4631 34.4277C38.0033 34.929 39.3303 35.5948 40.9315 36.0033C44.0389 36.796 47.8778 37.406 51.0575 37.8016C54.0506 38.1741 58.1627 37.9051 61.2002 37.8045C63.421 37.7308 67.5462 36.4434 69.6412 35.499C71.0172 34.7548 74.0466 31.5082 74.5036 29.9594ZM49.0396 18.7353C49.9782 18.1169 53.1423 17.1443 54.3066 16.8346C57.4934 15.9868 61.8618 14.1636 63.9006 11.4929C64.8045 10.3088 65.6004 8.77323 66.4971 7.60833L66.5568 7.53157C61.2687 2.20945 53.3932 7.71092 49.1074 11.5627C47.6781 12.8473 45.9797 15.2724 45.9448 17.2502C45.9277 18.1573 47.0693 19.431 47.7167 20.0496C47.8255 20.1533 47.9358 20.2554 48.0476 20.3558C48.2807 19.7326 48.4467 19.0709 49.0396 18.7353Z" fill="#000000"/>
<path d="M44.7344 116.332C45.6865 116.303 52.0768 116.188 52.5615 116.393C51.9124 116.513 51.2248 116.329 50.709 116.515L50.6875 116.655C51.358 116.632 52.1703 116.568 52.8182 116.69C52.9018 116.826 52.9344 116.846 52.9462 117.001H46.5412C46.5686 116.697 46.601 116.805 46.4562 116.565C46.0824 116.36 45.2171 116.373 44.7344 116.332Z" fill="#3f3f3f"/>
<path d="M40.3145 116.238C41.8035 116.308 43.2452 116.317 44.7352 116.329C45.2179 116.37 46.0832 116.357 46.4571 116.562C46.6018 116.802 46.5694 116.694 46.5421 116.998H40.4434L40.3145 116.238Z" fill="#767676"/>
<path d="M89.9243 80.2006C90.3729 80.0965 91.1583 80.4098 91.6135 80.5019C101.727 82.5475 114.476 94.3509 103.281 103.542C99.2525 106.849 91.1141 108.678 86.0218 109.639C72.016 112.283 57.4857 112.107 43.3115 111.289C40.7485 111.138 38.0768 110.704 35.5301 110.339C26.5492 108.704 6.30551 106.081 10.0064 92.5855L10.0645 92.5363C10.3465 92.6248 10.8011 92.6086 11.0603 92.8054C13.026 94.2982 14.3924 95.8439 16.6315 97.0642C18.2059 98.1549 19.8897 98.2927 21.6387 98.8232C24.0842 99.5649 26.5049 100.286 29.0326 100.758C30.175 100.971 31.8577 100.876 32.9035 101.12C36.3466 101.921 39.3985 101.9 42.8814 101.901L51.5154 101.898C54.4829 101.901 58.2968 102.107 61.19 101.796C64.5423 101.435 68.4177 100.283 71.8236 99.8606C72.6504 99.6137 73.4949 99.3014 74.3086 99.0182C77.4997 97.9073 81.8945 96.7943 84.767 95.1116C87.7136 93.3854 90.9882 91.4151 91.9379 87.9873C92.6187 85.5304 91.4813 84.0284 90.4948 81.9637C90.2886 81.5138 90.014 80.3519 89.9243 80.2006Z" fill="#b6b6b6"/>
<path d="M82.9602 53.1767C83.1528 52.9464 83.2402 52.7511 83.5673 52.7271C85.402 52.5929 90.3768 55.5092 91.7352 56.7586C92.9177 57.8463 94.1506 59.4661 94.198 61.1332C94.2365 62.4874 93.1751 63.7197 92.2824 64.6375C91.1734 65.7776 89.7816 66.8318 88.3539 67.5359C85.9274 68.7323 83.0783 69.3617 80.4387 69.9115C73.7728 71.3001 68.6865 71.8258 61.8628 71.897C52.0345 71.9997 32.1136 71.8727 24.9412 64.8267C23.9352 63.8384 23.3782 62.7518 23.3684 61.3217C23.3603 60.14 23.5281 58.8031 24.3993 57.9269C24.4958 57.8298 24.6117 57.7553 24.7319 57.6912C28.137 59.8117 34.2908 61.8677 38.2279 62.8255C39.4879 63.0757 40.8844 62.9883 42.1404 63.1868C43.9963 63.4802 45.755 63.9542 47.6526 63.9613C49.9694 63.9701 52.3024 64.012 54.6175 63.9259C56.1107 63.8702 57.588 63.252 59.0702 63.114C61.2331 63.0039 63.3316 63.0835 65.5023 62.8964C66.8962 61.751 68.0576 62.0884 69.631 61.798C72.8116 61.2108 77.6305 59.145 80.0808 57.0924C80.2719 56.9322 82.5715 53.6724 82.9602 53.1767Z" fill="#b6b6b6"/>
<path d="M74.5038 29.957C77.1763 30.435 80.8674 31.7565 82.487 34.0591C82.8852 34.6254 83.5014 35.7226 83.3552 36.4416C83.0705 37.8429 81.5224 39.0715 80.3724 39.8058C74.2512 43.7146 57.9392 44.0147 50.7302 43.4453C48.2231 43.2473 45.6968 42.8049 43.2438 42.2565C40.3616 41.6124 35.7825 40.0643 34.0897 37.4371C33.8093 37.0021 33.8593 36.289 33.9812 35.8055C34.0564 35.5071 34.2591 34.8917 34.5313 34.7224C34.5508 34.7102 34.5728 34.7026 34.5936 34.6928C35.2639 34.7717 36.0706 34.2795 36.4633 34.4253C38.0035 34.9266 39.3305 35.5925 40.9317 36.0009C44.0391 36.7936 47.878 37.4036 51.0576 37.7992C54.0507 38.1717 58.1629 37.9027 61.2004 37.8021C63.4211 37.7284 67.5464 36.441 69.6413 35.4966C71.0173 34.7524 74.0468 31.5058 74.5038 29.957Z" fill="#b6b6b6"/>
<path d="M66.5563 7.53125C67.9803 8.09147 69.827 11.3804 70.4144 12.7776C71.1259 14.4703 71.3621 15.6939 70.688 17.4703C70.0349 19.191 68.5847 20.578 66.8774 21.2366C61.6158 23.2659 54.584 23.2177 49.398 21.1574C49.0036 20.9991 48.6121 20.8339 48.2236 20.6616C48.4375 20.1255 48.7785 19.2032 49.0391 18.735C49.9777 18.1166 53.1419 17.144 54.3061 16.8343C57.4929 15.9865 61.8613 14.1633 63.9001 11.4925C64.804 10.3085 65.6 8.77291 66.4967 7.60801L66.5563 7.53125Z" fill="#b6b6b6"/>
</g>
<defs>
<clipPath id="clip0_15479_17760">
<rect width="117" height="117" fill="#ffffff"/>
</clipPath>
</defs>
</svg>
