<svg width="802.121" height="802.121" viewBox="110.904 110.701 802.121 802.121" fill="none" xmlns="http://www.w3.org/2000/svg">
<path d="M510.22 125.08C515.045 124.862 516.995 125.786 520.955 128.093C549.17 127.554 574.94 133.084 600.71 144.605C637.435 161.024 674.595 177.405 710.505 195.386C712.08 196.173 713.935 200.781 713.815 202.577C714.675 211.899 703.775 213.832 697.535 217.407C662.28 232.77 626.655 252.202 590.09 264.014C570.765 270.255 543.305 273.262 523.53 273.416L523.855 316.144C543.15 318.761 565.465 333.801 582.455 343.336L616.44 362.67C626.185 368.168 642.525 376.147 650.1 383.775C659.27 393.008 663.78 410.522 663.38 423.342C662.625 444.723 653.42 464.932 637.785 479.534C662.74 481.097 678.96 483.407 700.19 498.512C723.695 515.495 729 544.065 739.685 569.215C751.85 597.855 766.96 632.06 735.48 654.835C720.51 665.665 694.335 669.39 676.215 672.05C710.275 682.74 753.495 680.87 777.815 711.975C786.42 722.98 793.145 735.415 800.125 747.51C807.3 760.185 816.36 772.345 821.75 785.895C826.61 798.105 823.915 810.98 818.255 822.345C811.66 835.59 802.525 848.405 792.04 858.8C785.615 865.175 777.885 870.865 770.835 876.525L861.955 876.53C869.7 876.595 877.44 876.6 885.185 876.545C894.38 876.43 912.745 873.595 912.975 887.29C913.025 890.385 911.79 893.365 909.565 895.52C908.15 896.885 905.985 898.12 904.025 898.235C896.8 898.655 889.205 898.51 881.97 898.505L841.31 898.46L707.965 898.475L312.25 898.45L183.296 898.465L147.107 898.46C139.373 898.52 131.49 898.66 123.757 898.545C120.548 898.5 117.441 897.595 115.009 895.395C112.711 893.3 111.359 890.37 111.261 887.265C110.904 874.91 124.798 876.535 132.77 876.535L156.838 876.525L238.685 876.515C233.948 872.365 228.81 868.69 224.075 864.535C211.865 853.825 203.125 840.51 200.309 824.35C196.545 802.74 212.244 761.46 224.756 744.06C230.663 735.845 239.049 728.695 248.085 724.145C266.582 714.835 310.19 708.855 332.4 705.235C317.977 695.07 283.107 666.695 273.337 653.335C269.793 648.485 267.22 642.48 265.934 636.625C264.538 630.2 264.58 623.545 266.057 617.14C268.333 607.045 276.295 591.305 280.68 581.45C285.651 570.75 290.154 559.76 296.3 549.67C314.776 519.345 356.515 519.97 388.08 513.285C366.55 498.875 349.139 475.773 342.113 450.504C339.347 439.522 342.361 426.709 348.191 417.296C355.893 404.86 368.604 396.998 380.372 388.917L408.855 369.304L449.12 341.451C468.43 328.357 477.768 321.593 500.86 316.149C499.727 286.489 500.65 251.033 500.64 220.904L500.61 171.268C500.565 160.424 500.42 149.585 500.71 138.745C500.92 130.979 502.345 127.313 510.22 125.08Z" fill="#000000"/>
<path d="M227.035 833.13C216.291 815.63 227.347 794.025 233.317 776.93C241.58 753.27 253.881 742.565 278.468 737.515C299.9 733.115 321.768 729.665 343.404 725.935L496.659 701.005C522.57 696.745 548.51 692.635 574.47 688.68C586.28 686.8 603.11 683.155 614.635 682.96C620.98 682.85 638.115 686.91 645.24 688.425C658.3 691.145 671.335 694.01 684.33 697.025C698.29 700.33 714.2 704.415 728.215 706.875C730 715.34 730.95 725.295 732.395 733.415C738.755 773.465 724.07 784.76 689.1 796.095C648.595 809.23 614.425 810.785 572.585 812.795C561.21 813.34 545.48 813.6 534.33 815.185L533.52 815.305C522.35 822.555 524.59 835.69 536.215 836.72C548.64 837.335 561.72 835.585 574.135 835.11C616.405 833.49 652.075 830.945 692.765 818.3C750.77 800.275 762.64 777.715 753.135 719.195C764.595 728.9 768.275 739.05 775.925 751.655C783.37 763.915 791.02 776.115 797.96 788.655C799.005 790.695 801.725 797.06 801.5 799.155C799.925 813.695 785.765 833.34 775.955 842.895C754.585 863.705 732.315 876.28 702.32 876.52L412.619 876.53L335.177 876.525C324.152 876.54 312.537 876.525 301.553 876.525C276.647 876.525 239.142 854.73 227.035 833.13Z" fill="#d2d2d2"/>
<path d="M753.135 719.195C764.595 728.9 768.275 739.05 775.925 751.655C783.37 763.915 791.02 776.115 797.96 788.655C799.005 790.695 801.725 797.06 801.5 799.155C799.925 813.695 785.765 833.34 775.955 842.895C754.585 863.705 732.315 876.28 702.32 876.52L412.62 876.53L335.177 876.525C324.152 876.54 312.538 876.525 301.554 876.525C276.648 876.525 239.142 854.73 227.035 833.13C251.696 839.365 269.557 840.48 294.803 841.56C343.95 843.97 391.41 841.14 439.729 831.755C469.722 825.93 503.225 815.815 533.52 815.305C522.35 822.555 524.59 835.69 536.215 836.72C548.64 837.335 561.72 835.585 574.135 835.11C616.405 833.49 652.075 830.945 692.765 818.3C750.77 800.275 762.64 777.715 753.135 719.195Z" fill="#999999"/>
<path d="M287.863 627.785C287.901 626.905 287.983 626.03 288.108 625.155C289.585 614.585 308.972 574.535 315.101 563.09C316.888 559.75 322.168 553.51 325.439 551.2C329.278 548.495 335.863 545.795 340.56 544.845C358.434 541.235 376.696 538.01 394.668 534.965L486.653 519.7L554.635 508.55C567.465 506.365 588.02 502.395 600.46 501.305C613.92 500.135 642.025 501.93 655.59 503.785L661.095 504.835C676.325 508.965 691.955 516.795 699.385 531.15C705.255 542.485 711.13 558.33 715.685 570.5C719.355 580.305 728.97 602.505 730.87 611.63C731.685 615.57 731.64 619.635 730.74 623.555C728.465 630.57 724.525 636.475 717.46 639.37C703.045 645.645 688.955 647.31 673.655 649.855C659.685 652.215 645.69 654.455 631.68 656.575L516.225 675.015L428.089 689.16C402.322 693.23 379.932 700.35 354.665 690.08C335.579 682.56 320.753 666.07 305.087 653.17C296.274 645.915 288.773 639.775 287.863 627.785Z" fill="#cbcbcb"/>
<path d="M661.095 504.835C676.325 508.965 691.955 516.795 699.385 531.15C705.255 542.485 711.13 558.33 715.685 570.5C719.355 580.305 728.97 602.505 730.87 611.63C731.685 615.57 731.64 619.635 730.74 623.555C728.465 630.57 724.525 636.475 717.46 639.37C703.045 645.645 688.955 647.31 673.655 649.855C659.685 652.215 645.69 654.455 631.68 656.575L516.225 675.015L428.089 689.16C402.322 693.23 379.932 700.35 354.665 690.08C335.579 682.56 320.753 666.07 305.087 653.17C296.274 645.915 288.773 639.775 287.863 627.785C294.477 626.18 301.442 625.41 308.246 623.81C319.952 622.535 328.835 620.15 341.793 619.31C344.531 617.73 346.747 616.92 349.917 616.55C368.543 614.385 387.081 614.615 404.618 622.05C418.939 628.125 432.66 633.435 448.553 632.77C464.558 632.1 479.673 628.95 495.341 625.805C525.1 620.065 554.485 612.545 583.345 603.28C595.31 599.345 606.14 593.845 618.175 590.285C619.58 587.845 631.265 580.725 634.88 576.705C639.64 571.42 641.705 568.67 645.275 562.07C650.385 552.63 661.305 514.39 661.095 504.835Z" fill="#999999"/>
<path d="M661.095 504.835C676.325 508.965 691.955 516.795 699.385 531.15C705.255 542.485 711.13 558.33 715.685 570.5C719.355 580.305 728.97 602.505 730.87 611.63C731.685 615.57 731.64 619.635 730.74 623.555C728.465 630.57 724.525 636.475 717.46 639.37C715.97 638.335 711.975 636.595 710.155 635.665C703.815 632.43 696.16 629.12 690.44 624.91C674.93 620.175 665.895 611.94 647.895 610.515C621.855 608.45 603.975 620.665 579.94 627.71C554.215 635.255 528.89 641.94 502.575 646.985C471.216 653.31 440.156 661.025 409.328 648.105C400.485 644.395 392.895 640.685 383.143 638.91C378.066 638.015 372.907 637.67 367.755 637.875C356.354 638.305 345.073 642.08 338.531 630.745C338.469 628.595 338.528 626.32 338.544 624.155C339.607 622.125 340.399 621.16 341.793 619.31C344.531 617.73 346.747 616.92 349.918 616.55C368.543 614.385 387.081 614.615 404.618 622.05C418.939 628.125 432.66 633.435 448.553 632.77C464.558 632.1 479.673 628.95 495.341 625.805C525.1 620.065 554.485 612.545 583.345 603.28C595.31 599.345 606.14 593.845 618.175 590.285C619.58 587.845 631.265 580.725 634.88 576.705C639.64 571.42 641.705 568.67 645.275 562.07C650.385 552.63 661.305 514.39 661.095 504.835Z" fill="#000000"/>
<path d="M661.095 504.835C676.325 508.965 691.955 516.795 699.385 531.15C705.255 542.485 711.13 558.33 715.685 570.5C719.355 580.305 728.97 602.505 730.87 611.63C731.685 615.57 731.64 619.635 730.74 623.555C728.465 630.57 724.525 636.475 717.46 639.37C715.97 638.335 711.975 636.595 710.155 635.665C703.815 632.43 696.16 629.12 690.44 624.91C701.26 623.94 703.73 618.845 702.27 608.73C694.055 597.705 656.825 587.21 643.1 587.74C635.115 588.045 626.19 589.17 618.175 590.285C619.58 587.845 631.265 580.725 634.88 576.705C639.64 571.42 641.705 568.67 645.275 562.07C650.385 552.63 661.305 514.39 661.095 504.835Z" fill="#999999"/>
<path d="M702.27 608.73C709.18 612.14 724.62 619.53 730.74 623.555C728.465 630.57 724.525 636.475 717.46 639.37C715.97 638.335 711.975 636.595 710.155 635.665C703.815 632.43 696.16 629.12 690.44 624.91C701.26 623.94 703.73 618.845 702.27 608.73Z" fill="#545454"/>
<path d="M287.863 627.785C287.901 626.905 287.983 626.03 288.108 625.155C289.585 614.585 308.972 574.535 315.101 563.09C316.888 559.75 322.168 553.51 325.439 551.2C329.278 548.495 335.863 545.795 340.56 544.845C358.434 541.235 376.696 538.01 394.668 534.965L486.653 519.7L554.635 508.55C567.465 506.365 588.02 502.395 600.46 501.305C613.92 500.135 642.025 501.93 655.59 503.785C653.88 506.98 645.305 507.975 641.755 508.68C616.295 513.73 590.36 519.25 564.98 524.44L410.093 557.23C399.515 559.48 350.149 569.225 343.774 573.415C338.787 576.69 312.529 615.83 308.684 622.795C308.447 623.225 308.398 623.4 308.246 623.81C301.442 625.41 294.477 626.18 287.863 627.785Z" fill="#ffffff"/>
<path d="M363.685 442.163C365.597 422.976 381.426 415.415 395.947 405.495L422.846 386.988L458.821 362.33C466.624 357.023 475.424 350.79 483.627 346.199C489.233 343.093 495.207 340.702 501.41 339.084C519.53 334.462 533.435 341.458 549.105 350.708C569.77 361.434 591.11 375.242 612.215 386.665C621.86 391.855 635.795 397.614 638.66 409.101C645.5 436.508 630.39 462.102 605.59 473.998C592.565 480.244 586.14 480.629 572.065 482.925L536.12 488.821L472.63 499.203C459.501 501.385 443.647 504.72 430.515 504.935C409.37 505.28 385.599 486.343 375.18 469.074C381.573 470.801 424.729 487.521 414.901 459.386C414.629 458.609 412.175 456.447 411.412 455.767C406.759 453.523 397.899 451.639 392.627 450.342C382.891 447.941 373.238 445.214 363.685 442.163Z" fill="#cbcbcb"/>
<path d="M612.215 386.665C621.86 391.855 635.795 397.615 638.66 409.101C645.5 436.508 630.39 462.102 605.59 473.998C592.565 480.244 586.14 480.63 572.065 482.926L536.12 488.821L472.63 499.203C459.501 501.385 443.647 504.72 430.515 504.935C409.37 505.28 385.599 486.343 375.18 469.074C381.573 470.802 424.729 487.522 414.901 459.386C414.629 458.61 412.175 456.448 411.412 455.767C426.252 454.166 442.116 453.287 457.139 451.618C464.964 450.748 477.735 449.182 485.18 448.911C490.669 446.321 502.37 444.215 508.9 442.552C519.35 439.877 529.61 436.526 539.625 432.521C547.66 429.266 555.47 425.498 563.015 421.24C567.605 418.633 579.1 410.925 583.13 409.768C584.45 408.97 590.72 403.806 592.32 402.534L612.215 386.665Z" fill="#999999"/>
<path d="M583.13 409.768C587.705 410.419 589.38 410.978 592.355 414.452C599.215 422.38 592.835 429.288 585.765 433.934C559.18 451.395 528.48 461.732 497.505 468.124C491.701 469.322 485.503 469.214 482.382 463.479C479.414 458.024 481.044 453.116 485.179 448.911C490.668 446.321 502.37 444.215 508.9 442.552C519.35 439.877 529.61 436.526 539.625 432.521C547.66 429.266 555.47 425.498 563.015 421.24C567.605 418.633 579.1 410.925 583.13 409.768Z" fill="#000000"/>
<path d="M363.685 442.163C365.597 422.976 381.426 415.415 395.947 405.495L422.846 386.988L458.821 362.33C466.624 357.023 475.424 350.79 483.627 346.199C489.233 343.093 495.207 340.702 501.41 339.084C519.53 334.462 533.435 341.458 549.105 350.708C548.815 350.861 548.53 351.015 548.24 351.169C535.555 354.66 514.82 352.168 502.92 358.297C495.129 362.311 481.519 373.007 474.069 378.351C458.578 389.462 443.084 400.982 428.312 413.021C423.603 416.859 416.333 422.323 412.089 426.473C408.403 430.082 404.962 433.932 401.79 437.999C400.186 440.097 393.773 449.411 392.627 450.342C382.891 447.941 373.238 445.214 363.685 442.163Z" fill="#ffffff"/>
<path d="M523.755 150.082C528.99 150.432 534.22 150.872 539.445 151.402C571.135 154.318 597.705 168.156 626.23 181.301L673.885 203.29L624.52 225.764C608.875 232.786 596.59 238.167 580.12 243.06C565.53 247.394 554.825 247.962 540.5 250.695C534.01 251.389 530.13 251.53 523.61 251.202C523.57 217.674 523.275 183.555 523.755 150.082Z" fill="#cbcbcb"/>
<path d="M523.755 150.082C528.99 150.432 534.22 150.872 539.445 151.402C540.275 162.508 539.935 173.048 540.045 184.125C540.27 206.184 539.575 228.686 540.5 250.695C534.01 251.389 530.13 251.53 523.61 251.202C523.57 217.674 523.275 183.555 523.755 150.082Z" fill="#ffffff"/>
</svg>
