<svg width="1024" height="1024" viewBox="0.188 0 1024 1024" fill="none" xmlns="http://www.w3.org/2000/svg">
<path d="M501.165 0H522.8C554.26 7.47795 575.54 16.5028 593.465 45.6889C607.025 67.6695 611.225 94.1595 605.14 119.257C600.62 137.588 591.645 152.153 578.595 165.682C605.245 171.418 621.75 174.419 648.04 183.294C740.55 214.713 819.71 276.509 872.64 358.629C934.18 454.518 955.41 570.815 931.715 682.26C907.985 794.49 840.415 892.595 744.02 954.78C693.6 987.62 636.805 1009.42 577.36 1018.76C567.2 1020.29 556.98 1021.42 546.73 1022.14C542.665 1022.42 526.05 1023.22 523.315 1024H502.17C498.185 1022.82 481.093 1022.61 476.178 1022.17C467.091 1021.35 458.33 1020.44 449.24 1019.01C386.119 1009.55 325.926 986.04 273.094 950.23C177.769 885.93 112.076 786.22 90.6105 673.255C68.9665 561.115 92.8275 444.974 156.93 350.452C211.609 269.461 292.158 209.426 385.397 180.171C405.342 173.913 425.452 169.675 445.942 165.783C442.746 162.226 439.455 158.695 436.455 154.962C395.901 104.512 419.092 25.3971 480.693 5.149C487.613 2.87422 494.18 1.72624 501.165 0ZM500.145 249.745C310.998 256.328 163.025 415.037 169.684 604.18C176.343 793.325 335.111 941.235 524.25 934.5C713.285 927.77 861.09 769.11 854.435 580.075C847.78 391.037 689.18 243.165 500.145 249.745ZM455.113 112.017C469.123 88.4845 484.816 75.8805 513.365 76.059C541.135 79.0875 553.785 87.6735 569.655 110.914C576.5 74.8345 557.785 45.0342 521.095 37.8232C517.99 37.213 514.41 37.0025 511.265 37.2243C494.082 38.0452 479.143 44.4823 467.449 57.2455C457.294 68.3505 452.023 83.068 452.818 98.095C453.049 102.566 453.997 107.674 455.113 112.017ZM515.625 160.454C522.875 160.529 530.395 160.91 537.55 160.892C537.625 141.899 541.88 114.327 512.11 112.899C511.185 112.855 510.72 112.921 509.84 113.164C486.921 115.976 484.772 136.919 486.561 155.56C486.728 157.301 487.011 158.94 487.935 160.444C490.657 161.335 510.935 160.459 515.625 160.454Z" fill="#000000"/>
<path d="M500.71 192.137C722.04 185.942 906.49 360.327 912.715 581.655C918.94 802.985 744.58 987.46 523.255 993.715C301.884 999.97 117.365 825.57 111.139 604.2C104.913 382.829 279.338 198.333 500.71 192.137ZM524.25 934.5C713.285 927.77 861.09 769.11 854.435 580.075C847.78 391.037 689.18 243.166 500.145 249.745C310.998 256.328 163.025 415.037 169.683 604.18C176.342 793.325 335.11 941.235 524.25 934.5Z" fill="#aeaeae"/>
<path d="M500.145 249.745C689.18 243.166 847.78 391.037 854.435 580.075C861.09 769.11 713.285 927.77 524.25 934.5C335.11 941.235 176.342 793.325 169.683 604.18C163.025 415.037 310.998 256.328 500.145 249.745ZM516.805 346.889C505.69 347.626 499.534 343.913 499.463 331.839C499.361 314.455 500.455 297.215 499.723 279.808L496.618 279.716C428.221 283.934 364.667 307.972 312.024 352.456C307.457 356.315 299.371 363.345 295.288 367.498C301.609 374.035 329.786 399.466 329.891 406.824C329.934 409.828 327.573 414.616 325.508 416.727C323.668 418.609 321.273 419.503 318.656 419.403C315.614 419.286 312.89 417.905 310.411 416.241C304.423 412.222 299.389 406.106 294.309 401.01C288.977 395.66 283.349 390.437 278.277 384.848C241.337 426.761 216.189 477.731 205.401 532.545C202.509 547.075 200.089 565.06 200.008 579.87C210.39 579.995 220.773 579.96 231.154 579.765C242.732 579.48 266.965 575.27 266.983 592.24C267 608.08 243.971 604.455 233.17 604.315L200.064 604.03C201.13 619.015 201.996 632.14 204.664 646.985C217.496 718.18 254.471 782.78 309.364 829.905C363.781 877.035 428.596 900.465 499.967 904.585L499.914 867.995C499.879 863.27 499.504 850.015 500.31 846.105C500.705 844.085 501.7 842.235 503.17 840.795C511.645 832.62 522.885 837.815 524.095 849.14C524.84 856.105 524.27 862.455 524.14 869.41C524.055 878.65 524.03 887.885 524.06 897.125C524.14 899.57 524.18 901.92 524.445 904.355C592.46 900.335 649.09 880.84 703.785 838.675C710.845 833.235 722.18 823.915 728.125 817.48C719.725 808.65 710.325 800.79 702.94 791.215C696.695 783.12 704.195 769.785 713.395 772.67C725.005 776.31 735.865 792.34 745.195 800.155C751.365 793.715 762.005 779.11 767.405 771.385C804.73 717.97 818.95 668.365 824.16 604.535C812.97 602.89 798.365 604.625 786.79 604.265C778.135 603.995 765.385 606.855 758.795 599.39C756.515 596.785 756.735 592.365 757.015 589.11C757.89 582.435 763.985 580.085 769.83 579.8C778.305 579.385 786.655 579.61 795.04 579.775C804.725 579.94 814.41 579.955 824.095 579.82C822.165 562.955 821.92 548.25 818.475 530.91C803.77 458.441 763.965 393.48 706.075 347.469C654.2 306.172 590.55 282.418 524.305 279.633C523.555 298.222 524.985 317.956 523.78 336.487C523.47 341.3 520.86 344.388 516.805 346.889Z" fill="#000000"/>
<path d="M698.81 385.544C705.335 385.695 712.385 390.163 709.295 397.382C705.195 406.979 699.61 416.409 694.56 425.575C685.69 441.539 676.935 457.567 668.295 473.656L618.645 565.685C607.475 586.46 596.395 607.49 584.415 627.8C575.885 642.265 561.49 654.065 547.645 663.205C532.44 673.245 516.275 681.9 500.595 691.245L411.861 744.505C391.434 756.84 370.941 769.065 350.384 781.18C341.554 786.47 326.243 796.495 317.348 800.41C307.911 800.9 303.661 795.905 308.158 787.1C318.667 766.525 330.516 746.52 341.85 726.36L395.736 630.025L423.411 580.44C428.405 571.4 433.395 562.435 438.586 553.5C453.861 527.22 483.73 513.14 509.225 497.859L596.64 445.499L659.31 407.851C667.025 403.19 691.79 387.636 698.81 385.544ZM374.138 731.29C385.673 724.915 396.977 717.395 408.226 711.205C429.986 697.895 452.277 685.42 473.966 672.01C482.128 666.965 492.204 661.825 499.86 656.365C478.089 649.565 463.797 641.44 452.299 620.545C450.061 616.475 446.616 604.06 445.567 602.785C431.325 626.55 417.693 652.265 404.042 676.57L385.032 710.61C381.595 716.86 376.975 724.895 374.138 731.29ZM513.245 620.11C529.7 619.42 542.515 605.58 541.94 589.12C541.365 572.665 527.615 559.75 511.15 560.215C494.529 560.685 481.467 574.595 482.047 591.215C482.628 607.835 496.63 620.8 513.245 620.11Z" fill="#000000"/>
<path d="M645.935 451.491C645.13 456.381 625.22 490.284 621.31 497.411L577.93 577.07C574.505 562.945 568.755 553.635 558.995 543.145C548.52 532.75 538.175 528.595 524.415 524.5L645.935 451.491Z" fill="#aeaeae"/>
</svg>
