<svg width="164" height="164" viewBox="0 0 164 164" fill="none" xmlns="http://www.w3.org/2000/svg">
<path d="M7.03201 124.066C8.52057 122.061 9.87841 120.128 11.1686 117.991C12.3028 116.112 13.8335 114.403 14.9821 112.528C15.9875 110.886 16.8379 109.14 17.8521 107.502C25.4533 95.9511 32.0782 83.7543 38.5352 71.5363C39.348 69.9985 39.963 68.2971 40.7889 66.7785C45.6348 57.8673 49.3936 48.5276 53.7257 39.3852C54.1434 38.437 54.735 37.4587 55.1615 36.4896C55.5673 35.5673 56.5501 33.2868 57.5499 32.9883C61.4382 33.2213 66.1684 35.4564 69.8413 36.7343C80.4441 40.4296 91.2905 43.3252 101.94 46.899C104.884 47.8871 108.232 48.4969 111.249 49.3522C115.766 50.6332 115.162 53.0687 116.916 56.7849L123.632 70.8937C125.609 75.0879 127.887 79.0572 130.158 83.092C131.182 84.9121 132.019 86.9414 133.042 88.7784C138.752 99.0106 145.084 108.884 152.002 118.341C153.422 120.276 154.821 122.729 156.607 124.377C157.166 121.832 157.82 118.56 159.052 116.311C160.113 114.371 161.676 114.947 163.073 115.954C163.074 116.449 163.069 117.691 162.965 118.108C162.257 120.94 159.654 129.473 157.992 131.484C155.602 131.914 152.459 131.836 149.987 131.855C146.046 131.888 142.105 131.891 138.163 131.865L101.753 131.816L34.182 131.824L17.564 131.839C13.4116 131.852 9.48647 131.946 5.34076 131.591C4.18895 130.14 4.20455 130.068 3.46381 128.536C2.56156 126.67 1.23303 120.415 0 119.257V115.615C1.65012 115.476 2.71647 113.954 4.27037 116.679C5.55108 118.924 6.14254 121.632 7.03201 124.066ZM60.3294 65.102C60.4993 65.926 61.4443 69.4852 61.4861 69.8691C63.7324 80.1625 67.8236 89.9643 73.5615 98.8005C74.5958 100.385 75.9045 102.604 77.2296 103.959C79.8368 106.624 82.7449 109.188 85.4583 111.76C86.4568 112.706 88.0851 113.645 89.1963 114.576C86.2875 117.783 82.378 123.358 80.0011 127.083C83.3676 126.474 91.2207 126.91 94.9845 126.818C97.632 126.754 103.759 126.575 106.132 126.917C103.616 124.127 100.928 119.706 98.7709 116.539C89.3143 102.404 80.7058 87.7196 72.991 72.5634C71.9976 70.6341 57.5294 41.0654 58.1124 41.5932C56.7395 43.7344 54.7451 48.7348 53.5212 51.2446L43.0348 72.5104C41.5463 75.4998 40.1483 78.8109 38.5206 81.6926C35.6032 86.8576 32.5292 91.9256 29.7891 97.1978C28.978 98.7582 27.4101 100.377 26.5513 101.961C24.7057 105.348 22.8412 108.666 20.7244 111.899C18.574 115.183 16.3201 118.385 14.2364 121.727C13.2925 123.241 11.7507 124.786 10.9097 126.374L10.9627 126.617C11.4859 126.881 14.6112 126.522 15.5383 126.574C20.9254 126.877 26.309 126.84 31.7012 126.801C37.0792 122.833 44.5473 106.904 47.1628 100.17C50.5692 91.3998 53.4236 79.4815 55.5867 70.2252C56.1099 67.9866 55.9045 60.477 60.3294 65.102ZM75.5931 125.142C76.4248 124.286 78.2049 122.144 78.7866 121.127C79.7524 119.841 82.0509 116.311 82.9859 115.478C81.4332 114.194 79.4932 112.695 78.0433 111.337C74.0601 107.605 70.9817 103.227 67.78 98.8516C66.5132 97.1203 66.1473 95.3064 64.4192 93.1558C64.3356 94.7444 64.9834 96.8456 65.3084 98.4523C66.9299 106.467 71.0544 118.324 75.5931 125.142Z" fill="black"/>
<path d="M62.7363 39.4023C66.1882 40.1194 69.5401 41.4708 72.9107 42.4738C77.3998 43.8098 81.7776 45.5709 86.2556 46.9065C90.7217 48.2438 95.2 49.5401 99.6898 50.7955C100.92 51.1307 110.163 53.4232 110.642 54.0994C112.958 57.3708 114.724 62.5944 116.531 66.385C118.066 69.6024 119.706 72.7659 121.297 75.9423C127.569 88.5549 134.525 100.815 142.136 112.668C143.13 114.184 144.399 115.604 145.393 117.103C147.657 120.517 149.503 123.851 152.388 126.836L140.337 126.829C131.138 126.875 122.387 126.997 113.182 126.805C114.193 124.441 116.725 118.568 116.288 116.185C116.201 115.708 115.986 115.246 115.556 114.987C115.054 114.685 114.117 114.674 113.571 114.852C112.262 115.277 110.189 122.25 109.426 123.845C106.745 119.732 103.55 115.721 100.834 111.572C93.0933 99.7476 86.2258 87.5066 79.6402 75.0115C77.1911 70.3647 74.3949 65.8743 72.3795 60.9424C70.8928 57.377 68.5559 53.7315 67.2358 50.0931C66.1036 46.9724 63.3883 42.5078 62.7363 39.4023Z" fill="#B4B3B3"/>
<path d="M55.6861 89.9805C56.3658 90.7611 56.0342 122.532 56.3532 126.669C50.4769 126.871 44.5976 126.971 38.7177 126.97C38.306 126.98 38.4237 127.037 38.1455 126.83C38.163 126.709 44.1461 117.041 44.8203 115.878C48.224 110.006 50.638 103.794 53.0423 97.4678C53.9843 94.9892 55.0944 92.5756 55.6861 89.9805Z" fill="#B4B3B3"/>
</svg>
