<svg width="1152" height="896" viewBox="0 0 1152 896" fill="none" xmlns="http://www.w3.org/2000/svg">
<g clip-path="url(#clip0_15499_17955)">
<path d="M0 0H1152V473.07V482.662V896H0V529.255V520.859V0Z" fill="#313031"/>
<path d="M0 0H1152V473.07C1145.75 469.298 1137.61 461.455 1132.03 457.203C1106.5 437.719 1090.5 415.604 1059.17 405.743C1055.04 404.443 1003.57 357.476 1001.4 353.749C1008.7 341.987 1012.65 329.382 1004.64 316.731C1019.6 288.148 1033.55 259.55 1002.46 235.172C996.531 199.689 963.883 188.465 932.231 184.302C921.763 182.925 910.924 182.9 900.534 180.848C892.609 179.494 886.196 173.635 879.244 170.761C873.709 168.472 870.812 182.007 870.435 185.239C854.955 171.113 854.213 194.35 854.753 204.753C854.888 207.423 855.934 210.333 856.789 212.886C847.328 219.382 844.217 226.001 841.067 236.809C840.909 241.047 840.696 245.358 840.746 249.592C840.111 248.303 840.133 247.688 840.088 246.305C838.277 243.984 827.303 234.259 824.704 232.505C819.557 229.031 811.749 219.029 807.21 216.483C796.044 210.225 780.728 204.37 769.371 198.47C769.731 202.615 770.906 210.769 769.337 214.343C764.736 216.657 739.288 196.786 733.59 193.647L733.247 194.328C729.568 201.817 721.524 230.29 717.756 233.879C715.641 233.731 712.924 231.097 711.602 229.49C701.021 216.609 691.054 202.789 680.754 189.76C675.523 194.69 647.302 220.105 641.514 219.532C640.749 219.457 640.879 219.546 640.412 219.003C637.785 215.943 638.364 195.78 638.347 190.854C622.879 196.094 607.483 203.722 592.577 210.163C581.833 214.806 569.284 218.879 561.43 227.941C543.084 249.105 529.891 269.622 505.419 284.618C497.905 289.222 482.739 303.117 476.02 309.956C474.784 307.726 473.486 305.021 472.305 302.717C470.201 299.452 467.982 296.263 465.652 293.156C471.979 288.707 477.896 281.004 482.456 274.713C495.702 256.44 505.397 236.525 509.455 214.128C511.599 202.298 513.122 177.549 496.644 174.029C489.7 172.546 480.643 177.728 475.436 181.718C456.043 196.767 442.835 217.517 432.117 239.271C428.993 245.613 426.514 252.332 423.5 258.596C404.126 249.652 391.341 247.182 369.967 246.87C376.567 218.273 382.075 177.299 367.578 149.912C365.232 145.479 359.232 139.568 354.284 138.982C326.27 135.662 311.878 182.47 308.001 202.98C303.837 225.013 304.705 250.091 309.31 270.976C281.047 293.423 251.97 348.912 241.264 383.13C240.662 386.074 240.012 389.008 239.314 391.931C237.202 390.228 228.988 389.823 225.765 388.9C203.688 382.577 196.02 378.896 175.396 393.908C154.023 409.464 132.673 428.227 112.164 445.151C82.6881 468.795 52.4504 492.367 21.5697 514.145C16.0032 518.07 5.53316 526.993 0 529.255V520.859V0Z" fill="white"/>
<path d="M686.717 91.8739C686.711 80.1618 685.429 16.8785 687.403 11.8409C687.949 10.4408 688.376 10.1119 689.737 9.57471C694.299 10.9048 694.086 14.5503 694.136 18.4098C707.428 15.3733 714.994 15.5518 727.447 21.7615C735.047 25.5516 743.951 26.1947 752.214 24.8806C755.983 24.2819 761.012 22.8436 764.617 23.9678C765.388 24.6805 766.367 25.3019 766.007 26.5852C764.376 32.4659 754.312 42.5646 750.56 46.6494C755.972 51.9769 761.585 55.8462 766.592 60.7659C766.873 61.7974 767.149 63.2621 766.265 63.9601C756.388 71.7822 734.962 70.9886 724.826 66.2932C712.783 60.7102 705.105 60.8306 693.793 63.2492C693.501 71.5803 693.99 83.3228 694.046 91.8998C700.875 94.9551 710.578 97.0232 715.421 102.79C721.805 110.4 726.457 119.329 733.573 126.44C740.745 134.352 755.432 137.698 762.081 145.519C780.947 167.72 796.393 193.198 816.272 214.587C823.635 222.513 832.894 229.679 841.067 236.809C840.909 241.047 840.696 245.358 840.746 249.592C840.111 248.303 840.133 247.688 840.088 246.305C838.277 243.984 827.302 234.259 824.704 232.505C819.557 229.031 811.749 219.029 807.21 216.483C796.044 210.225 780.727 204.369 769.371 198.47C769.731 202.615 770.906 210.769 769.337 214.343C764.735 216.657 739.288 196.786 733.59 193.647L733.247 194.328C729.568 201.816 721.524 230.29 717.755 233.879C715.64 233.731 712.924 231.096 711.602 229.49C701.021 216.609 691.054 202.789 680.754 189.76C675.523 194.689 647.302 220.105 641.514 219.532C640.749 219.457 640.879 219.546 640.412 219.002C637.785 215.943 638.364 195.78 638.347 190.854C622.879 196.094 607.483 203.722 592.577 210.163C581.833 214.806 569.284 218.879 561.429 227.941C543.083 249.105 529.891 269.622 505.419 284.618C497.905 289.222 482.739 303.117 476.02 309.956C474.784 307.726 473.485 305.021 472.305 302.717C481.981 294.691 491.026 286.391 501.061 278.572C507.08 273.882 518.258 266.69 523.051 261.689C533.92 250.349 544.057 236.755 554.346 224.814C561.141 216.929 569.143 213.556 576.202 205.879C586.811 194.353 595.164 181.307 605.385 169.486C610.661 163.377 619.858 159.186 624.853 153.076C634.775 140.927 642.679 126.246 653.327 114.723C656.314 111.49 662.473 110.104 666.067 107.504C674.319 101.539 676.715 95.382 686.717 91.8739Z" fill="#C9C8C8"/>
<path d="M686.515 99.5308C687.707 99.4065 688.191 99.4037 689.339 99.5269C712.857 102.06 715.63 119.084 730.857 133.928C738.608 141.484 748.924 143.577 756.141 150.358C760.815 154.748 768.235 165.117 772.38 170.584C781.51 182.854 790.785 195.019 800.19 207.077C794.065 204.168 770.277 192.283 765.332 193.038C763.729 195.284 765.152 205.291 765.439 208.488C755.483 202.989 746.764 196.036 737.359 189.743C734.856 188.066 733.9 187.929 731.352 188.55C727.971 191.261 726.531 198.078 725.018 202.267C721.992 210.633 718.74 219.081 716.31 227.632C712.266 221.969 706.157 214.813 701.674 208.892C694.339 200.309 689.929 192.71 681.345 183.618C674.055 188.705 666.906 195.18 659.998 200.832C654.593 205.254 649.17 209.244 643.928 213.897C643.905 208.802 643.821 189.485 641.779 185.813C634.168 184.151 594.996 204.895 585.923 207.226L585.315 206.569C594.574 196.909 600.987 185.685 609.734 175.768C616.101 168.548 625.377 164.295 631.722 156.377C640.53 145.383 647.354 133.205 656.376 122.394C660.021 118.028 666.675 116.621 670.568 113.515C676.463 108.814 680.119 104.052 686.515 99.5308Z" fill="#FAFAFA"/>
<path d="M702.18 23.297C716.771 21.5911 720.793 27.9882 733.905 31.4588C738.973 32.8005 749.638 31.9614 755.224 31.5195C750.949 36.0687 746.595 41.5287 742.033 46.3965C744.778 50.214 751.939 57.1683 755.657 60.1393L756.506 60.848C755.635 61.8846 752.642 61.9599 751.134 62.2721C735.114 65.5906 727.245 58.4277 712.755 55.4346C707.383 54.3252 699.756 55.4747 694.119 56.4056L694.058 24.3141C696.398 23.8558 699.739 23.5698 702.18 23.297Z" fill="#FAFAFA"/>
<path d="M0 520.859C2.56498 519.291 7.30305 515.599 9.95844 513.723C19.8085 506.774 29.5361 499.654 39.1368 492.364C66.3677 472.255 93.0122 451.364 119.037 429.717C136.874 414.907 154.4 400.436 172.988 386.721C203.48 364.224 211.267 382.87 241.264 383.13C240.662 386.074 240.012 389.008 239.314 391.931C237.202 390.228 228.988 389.823 225.765 388.9C203.688 382.577 196.02 378.896 175.396 393.908C154.023 409.464 132.673 428.227 112.164 445.151C82.6881 468.795 52.4504 492.367 21.5697 514.145C16.0032 518.07 5.53316 526.993 0 529.255V520.859Z" fill="#C9C8C8"/>
<path d="M1001.4 353.749C1003.57 357.476 1055.04 404.443 1059.17 405.743C1090.5 415.604 1106.5 437.719 1132.03 457.203C1137.61 461.455 1145.75 469.298 1152 473.07V482.662V896H0V529.255C5.53316 526.993 16.0032 518.07 21.5697 514.145C52.4504 492.367 82.6881 468.795 112.164 445.151C132.673 428.227 154.023 409.464 175.396 393.908C196.02 378.896 203.688 382.577 225.765 388.9C228.988 389.823 237.202 390.228 239.314 391.931C237.639 410.83 239.101 421.299 248.355 438.172C200.974 438.243 177.944 445.092 152.6 487.072C145.523 498.794 135.343 508.376 149.951 518.753C146.857 524.344 144.463 529.161 142.169 535.177C136.137 535.9 130.566 536.647 126.523 541.769C117.6 553.076 101.047 606.119 102.92 620.164C103.606 625.304 106.572 628.741 110.202 632.144C110.414 634.439 110.694 638.511 111.326 640.637C117.146 660.211 142.118 668.828 159.4 674.627C146.811 720.282 156.501 775.532 161.489 822.436C158.582 826.93 153.289 833.831 154.396 839.118C156.007 841.093 157.527 841.199 159.93 840.485C178.277 851.262 231.464 860.469 253.486 863.439C258.668 864.137 269.073 863.045 274.29 863.872C282.445 865.172 290.835 867.658 299.028 869.311C315.872 872.675 332.844 875.358 349.904 877.354C389.687 881.764 435.018 883.733 474.725 884.408C523.046 885.341 571.387 884.576 619.656 882.107C643.759 881.039 667.823 879.244 691.819 876.713C704.706 875.363 720.461 873.659 733.213 871.004C738.652 869.621 742.247 868.653 747.861 868.119C790.943 865.863 828.456 857.826 868.877 843.832C870.885 843.601 872.392 842.96 873.63 841.379C875.306 836.801 857.891 804.386 853.948 800.944C838.727 787.648 828.669 777.107 821.706 756.555C826.206 757.55 830.638 758.535 835.245 758.923C860.861 761.083 863.387 733.061 864.742 714.19C880.391 716.446 888.334 716.654 903.831 716.749C908.314 750.716 911.07 769.947 951.823 769.57C973.271 769.373 989.691 767.022 1010.63 761.752C1010.3 771.561 1008.81 833.567 1010.55 837.842C1014.18 840.412 1017.31 838.533 1017.5 834.225C1017.83 826.339 1017.92 818.431 1018.06 810.54C1018.41 793.475 1018.58 776.404 1018.59 759.339C1022.78 757.455 1035.55 753.602 1035.03 748.078C1031.95 715.09 1027.22 682.096 1024.8 649.035C1023.21 627.324 1028.82 602.958 1031.5 581.399C1032.17 578.542 1032.5 575.532 1033.52 572.748C1044.24 543.605 1065.16 489.639 1040.33 463.204C1023.13 447.688 1000.28 439.309 980.938 426.978C972.945 421.879 964.508 409.437 958.157 402.359C959.192 382.431 959.484 384.709 971.359 368.461C981.967 368.896 986.687 367.192 995.046 360.802C997.155 358.658 999.377 356.031 1001.4 353.749Z" fill="white"/>
<path d="M1001.4 353.749C1003.57 357.476 1055.04 404.443 1059.17 405.743C1090.5 415.604 1106.51 437.719 1132.03 457.203C1137.61 461.455 1145.75 469.298 1152 473.07V482.662C1147.76 479.679 1141.87 474.608 1137.63 471.168C1125.44 461.228 1113.36 451.166 1101.37 440.982C1086.82 428.733 1081.24 422.098 1063.04 415.517C1045.26 409.09 1028.25 387.686 1013.65 375.909C1006.88 370.454 1003.24 365.421 995.046 360.802C997.155 358.658 999.377 356.031 1001.4 353.749Z" fill="#C9C8C8"/>
<path d="M877.275 767.736C877.405 767.731 877.54 767.725 877.675 767.725C877.894 767.725 878.114 767.731 878.333 767.731C879.959 767.719 881.196 767.894 882.732 768.411C888.644 770.408 900.315 774.362 903.111 780.06C906.272 786.511 917.005 836.25 915.351 841.104C914.952 841.402 914.524 841.756 914.046 841.931C912.51 842.493 911.83 842.347 910.35 841.779C907.797 839.085 907.504 835.592 906.902 832.088L905.479 824.151C905.007 828.133 905.024 832.172 904.557 836.165C904.332 838.061 904.095 840.429 902.284 841.503C901.092 842.212 900.164 841.863 898.926 841.526C897.767 840.373 897.52 840.125 897.227 838.443C896.457 833.927 897.149 828.848 897.362 824.275C897.852 813.695 898.836 802.89 898.544 792.31C898.454 789.161 897.7 786.191 896.912 783.148C892.463 779.694 887.057 777.444 882.479 774.132C880.088 772.405 877.77 770.819 877.275 767.736Z" fill="#313031"/>
<path d="M680.754 189.76C691.053 202.789 701.021 216.609 711.601 229.49C712.923 231.097 715.64 233.731 717.755 233.879C721.524 230.29 729.568 201.817 733.246 194.328L733.59 193.647C739.288 196.787 764.735 216.657 769.336 214.343C770.906 210.769 769.73 202.615 769.37 198.471C780.727 204.37 796.044 210.225 807.21 216.483C811.749 219.029 819.556 229.031 824.703 232.505C827.302 234.259 838.276 243.984 840.088 246.306C840.133 247.688 840.11 248.303 840.746 249.592C840.841 255.664 843.856 267.096 842.985 271.698C834.963 313.99 820.687 364.597 852.232 401.234C857.626 407.498 868.837 411.238 876.729 413.207C862.149 435.75 826.863 437.323 809.555 456.346C802.507 464.088 794.39 482.674 789.828 492.5C772.846 467.434 752.686 468.258 724.938 465.167C738.112 456.522 747.933 446.38 755.285 432.361C777.628 430.415 783.264 399.36 781.706 381.545C780.626 369.265 776.418 359.136 764.865 353.65C761.956 344.306 759.15 335.883 754.177 327.385C712.507 256.175 598.516 255.86 559.591 330.518C558.099 333.398 556.68 336.314 555.334 339.264C546.288 343.076 540.829 347.74 537.45 357.079C530.605 376.001 530.335 404.408 551.472 413.633C559.959 439.344 573.834 457.238 598.303 469.52C605.548 473.079 613.175 475.811 621.033 477.665C612.883 480.258 596.621 484.016 590.225 486.815C575.403 493.3 557.719 517.875 550.09 531.803C548.145 527.963 547.464 526.799 544.839 523.424C551.468 512.37 554.688 501.631 551.92 488.761C550.161 480.584 545.075 477.571 537.334 476.779C535.732 469.971 534.427 463.264 533.275 456.007C531.771 446.53 529.662 427.161 515.012 431.907C503.568 435.615 509.808 456.838 511.148 465.972C504.438 467.869 503.05 469.042 498.503 474.406C473.396 481.753 487.669 519.897 501.4 532.183C499.356 541.315 500.935 557.682 502.508 567.157C506.22 589.504 514.066 621.266 539.599 627.127C553.677 630.361 566.521 622.796 575.983 612.857C576.517 635.091 576.23 661.572 577.451 683.44C568.659 683.092 559.85 682.726 551.06 682.428C544.722 682.209 541.581 681.686 536.125 678.288C525.23 671.505 511.283 669.295 498.856 666.617C496.425 662.286 494.57 659.845 491.621 655.936C491.671 653.968 491.85 648.41 491.452 646.774C486.96 628.258 465.988 614.308 457.254 597.806C454.778 593.126 451.586 583.919 449.716 578.84L437.747 546.184C433.355 534.137 427.465 517.115 420.205 506.556C443.801 498.22 461.364 487.453 472.838 463.782C484.471 439.782 489.09 377.969 486.939 351.95C486.037 341.069 483.772 330.344 480.199 320.027C479.016 316.703 477.449 313.198 476.02 309.956C482.739 303.117 497.905 289.222 505.419 284.618C529.89 269.622 543.083 249.105 561.429 227.941C569.283 218.879 581.833 214.806 592.576 210.164C607.483 203.722 622.878 196.094 638.347 190.854C638.364 195.78 637.785 215.943 640.411 219.003C640.878 219.546 640.749 219.457 641.514 219.532C647.302 220.105 675.523 194.69 680.754 189.76Z" fill="#FAFAFA"/>
<path d="M766.147 263.023C767.126 263.069 767.914 263.2 768.881 263.333C770.074 264.259 772.183 266.621 772.875 267.851C776.329 273.984 792.799 294.526 791.842 300.689L790.335 300.908C785.762 297.758 768.189 269.072 766.147 263.023Z" fill="#C9C8C8"/>
<path d="M800.763 740.209C812.137 753.382 819 773.091 829.035 787.664C835.397 796.9 845.268 801.405 851.282 810.545C857.312 819.713 862.475 835.462 868.877 843.832C828.455 857.826 790.942 865.863 747.86 868.119C742.247 868.653 738.652 869.62 733.213 871.004C720.461 873.659 704.705 875.363 691.818 876.713C667.822 879.244 643.758 881.038 619.655 882.107C571.387 884.576 523.046 885.341 474.724 884.408C435.018 883.733 389.687 881.764 349.904 877.354C332.844 875.358 315.872 872.675 299.027 869.311C290.835 867.657 282.445 865.171 274.289 863.872C269.073 863.045 258.668 864.136 253.486 863.439C231.464 860.469 178.276 851.262 159.93 840.485C164.396 832.819 168.751 824.168 174.78 817.7C182.079 809.865 190.382 803.897 197.011 795.325C206.961 782.462 214.768 765.312 225.987 753.849C226.349 755.424 227.626 761.094 228.471 762.235C233.848 768.439 239.116 774.694 246.158 779.548C265.736 793.036 326.176 787.074 342.62 797.614C345.403 798.677 348.591 798.936 351.86 800.151C363.236 804.375 369.487 807.367 381.37 809.791C394.125 812.278 416.064 819.966 427.947 819.966C460.19 819.972 493.12 815.529 525.387 814.325C533.292 813.987 548.056 812.486 555.401 813.976C558.524 813.504 566.612 814.792 570.161 814.516C581.456 813.656 602.426 814.089 612.956 812.126C635.023 807.71 659.958 809.448 682.228 804.442C694.963 801.58 708.48 786.776 718.841 782.878C734.945 776.82 759.369 774.379 776.829 771.404C783.798 766.055 790.633 758.568 795.768 751.425C797.928 747.769 799.633 744.304 800.763 740.209Z" fill="#B3B2B2"/>
<path d="M795.769 751.425C800.854 755.891 783.495 770.385 780.244 773.102C790.082 784.481 806.22 812.671 811.074 826.93C798.992 815.247 790.616 790.561 776.908 775.779C767.357 777.613 757.777 779.306 748.17 780.858C724.624 784.593 720.568 784.661 701.398 799.448C683.825 813.009 657.292 811.788 636.429 813.695C633.094 814.032 615.594 815.107 613.282 813.875L612.956 812.126C635.023 807.71 659.959 809.448 682.228 804.442C694.963 801.579 708.48 786.775 718.841 782.878C734.945 776.82 759.369 774.379 776.829 771.403C783.799 766.054 790.633 758.568 795.769 751.425Z" fill="#313031"/>
<path d="M381.37 809.792C394.125 812.278 416.065 819.966 427.947 819.966C460.191 819.972 493.121 815.529 525.388 814.325C533.292 813.987 548.056 812.486 555.401 813.976C551.983 817.548 537.337 817.655 532.15 817.992L502.413 819.955C478.222 821.614 450.72 824.815 426.355 824.41C414.924 824.219 395.559 817.683 384.532 814.032C382.313 813.296 381.929 811.754 381.37 809.792Z" fill="#313031"/>
<path d="M243.133 782.968C238.701 779.587 229.241 770.413 227.439 764.716C227.068 763.546 227.737 763.169 228.471 762.235C233.848 768.439 239.116 774.694 246.158 779.548C265.736 793.036 326.176 787.074 342.62 797.614C334.245 799.83 300.725 793.795 289.778 793.846C277.863 793.896 256.685 789.273 245.818 784.16C238.348 795.117 232.952 810.371 222.476 818.301C224.587 812.435 239.125 787.9 243.133 782.968Z" fill="#313031"/>
<path d="M733.213 871.004C733.151 870.301 732.881 867.967 733.281 867.511C736.374 863.962 744.261 867.343 747.861 868.119C742.247 868.653 738.652 869.621 733.213 871.004Z" fill="#C9C8C8"/>
<path d="M687.752 813.144C689.923 813.796 691.976 814.775 693.934 815.911C707.569 823.836 707.979 839.332 716.974 850.61C720.332 854.817 727.892 856.487 729.36 862.106C728.831 862.168 728.454 862.241 727.898 862.168C726.159 861.949 724.185 860.582 722.661 859.733C709.02 852.145 707.513 838.061 699.75 826.024C696.724 821.339 691.476 817.391 687.752 813.144Z" fill="#383738"/>
<path d="M306.351 808.661C306.694 808.993 306.749 809.364 306.898 809.809C304.113 816.479 302.821 823.87 297.487 829.168C294.228 832.403 290.49 835.176 287.672 838.832L287.377 839.22C282.81 845.148 281.694 852.674 276.273 858.197C275.627 857.528 275.572 857.033 275.421 856.127C277.249 849.676 282.146 837.504 287.165 833.106C290.161 830.485 294.146 828.46 296.421 825.113C300.111 819.691 301.879 813.735 306.351 808.661Z" fill="#313031"/>
<path d="M414.128 841.205C414.675 842.538 414.733 843.674 414.658 845.109C414.361 850.84 409.787 869.514 405.716 873.249C405.548 872.838 405.425 872.422 405.343 871.983C404.167 865.695 410.597 846.751 414.128 841.205Z" fill="#313031"/>
<path d="M551.184 690.038C587.081 691.326 624.189 695.308 659.745 698.666C689.658 702.064 721.361 701.197 748.85 715.09C763.267 722.38 790.661 728.578 800.763 740.21C799.633 744.304 797.928 747.769 795.768 751.425C790.633 758.568 783.798 766.055 776.829 771.404C759.369 774.379 734.945 776.82 718.841 782.878C708.48 786.776 694.963 801.58 682.228 804.443C659.958 809.449 635.023 807.711 612.956 812.126C602.426 814.089 581.456 813.656 570.161 814.516C566.611 814.792 558.524 813.504 555.401 813.976C548.056 812.486 533.292 813.988 525.387 814.325C493.12 815.529 460.19 819.972 427.947 819.967C416.064 819.967 394.125 812.278 381.37 809.792C369.487 807.367 363.236 804.375 351.86 800.151C348.591 798.936 345.403 798.677 342.62 797.614C326.176 787.074 265.736 793.036 246.158 779.548C239.116 774.694 233.848 768.44 228.471 762.236C227.626 761.094 226.348 755.424 225.987 753.849C229.429 751.127 234.822 748.275 238.987 746.824C264.26 738.022 290.346 730.974 316.055 723.527C320.77 722.16 325.496 721.17 330.275 720.282C336.615 726.874 340.291 729.658 349.198 731.328C342.136 733.736 302.518 746.824 300.026 751.172C299.556 751.993 299.926 752.314 300.195 753.157C305.112 757.067 372.665 767.41 383.319 770.481C385.929 771.235 403.702 776.224 406.31 776.494C429.454 778.851 455.769 778.575 478.6 781.612C497.607 784.143 519.736 790.038 538.794 793.576C550.074 795.674 561.741 797.867 572.956 800.213C577.963 797.772 587.255 791.928 592.402 788.907L634.59 763.996L682.38 736.143C689.343 732.093 703.687 724.157 709.695 719.607C709.796 717.396 710.06 718.088 709.087 716.333C703.625 713.448 608.793 705.916 594.759 704.386C581.748 702.963 568.912 698.531 555.856 697.811C554.393 694.971 552.916 692.721 551.184 690.038Z" fill="#C9C8C8"/>
<path d="M670.899 765.638C674.831 765.025 683.505 765.768 686.959 767.809C688.022 768.439 688.028 768.67 688.253 769.795C684.152 769.795 679.714 769.621 675.726 768.647C673.436 768.085 672.137 767.652 670.899 765.638Z" fill="#757474"/>
<path d="M700.932 773.653C701.348 773.608 701.764 773.575 702.186 773.552C705.561 773.378 710.359 773.142 713.014 775.487C709.33 775.481 704.245 775.273 700.932 773.653Z" fill="#757474"/>
<path d="M348.577 146.874C368.489 145.757 369.077 186.878 368.6 200.365C367.869 221.054 363.558 240.864 358.323 260.825C357.717 263.134 357.357 265.965 359.811 267.048C364.197 265.536 366.02 258.864 367.266 254.898C377.183 254.687 388.002 255.48 397.592 257.771C427.057 264.809 453.692 284.448 467.913 311.35C483.754 341.316 480.304 376.343 476.895 408.757C474.525 431.305 472.079 454.974 457.859 473.562C439.372 498.028 409.451 499.389 383.979 512.059C380.409 513.836 374.029 517.465 372.766 521.494L373.378 522.15C376.371 521.611 385.416 517.503 389.104 516.024C392.317 542.468 391.944 572.006 380.375 596.569C378.301 600.866 375.928 605.017 373.275 608.982C370.647 612.936 358.585 627.644 358.503 629.939C359.541 629.377 360.155 629.129 361.234 628.685L361.657 629.326C359.559 640.306 357.39 664.806 354.535 673.519L353.676 673.721C349.887 670.903 351.947 663.985 348.991 658.355C344.161 649.153 337.437 643.275 330.333 635.986C335.604 619.714 339.946 613.695 347.392 599.347C358.237 578.446 361.396 544.16 360.433 520.845C366.613 509.85 384.318 497.011 396.453 493.718C414.29 489.024 434.725 487.238 448.066 472.791C467.228 452.039 467.386 413.942 466.713 387.382C480.24 363.415 474.707 339.255 458.949 318.019C437.281 290.749 401.382 290.094 371.968 304.509C338.085 321.114 311.222 355.665 298.743 390.794C290.042 415.29 290.193 441.135 307.151 462.075C321.57 480.196 341.771 494.207 352.416 515.143C357.657 525.449 355.43 528.082 355.383 538.678C355.291 559.169 351.653 579.937 342.803 598.554C336.226 611.294 332.139 618.724 327.338 632.634C323.077 628.353 313.939 619.461 311.037 614.528C307.439 608.42 310.711 607.79 304.005 600.905C303.118 592.733 301.627 584.571 300.116 576.494C316.289 547.551 318.11 524.77 310.694 493.279C320.805 499.452 329.686 508.259 339.168 514.202C330.041 496.154 302.499 479.807 286.564 467.599C279.999 462.57 273.493 456.907 267.792 450.907C255.225 437.681 245.91 420.973 246.493 402.278C247.448 371.597 277.491 319.109 296.336 295.411C301.024 289.517 306.267 284.415 311.717 279.242C313.008 281.95 314.923 286.409 318.193 286.643C320.691 284.064 315.033 257.54 313.94 252.049C309.115 227.805 319.914 153.776 348.577 146.874Z" fill="#FAFAFA"/>
<path d="M340.537 269.967C338.126 272.391 335.766 274.373 332.256 273.749C330.456 272.086 329.678 267.695 329.209 265.101C324.776 240.592 326.402 208.305 339.622 186.609C340.699 184.867 343.988 181.253 346.117 181.306C353.232 181.485 354.348 195.96 354.81 200.798C357.174 215.411 351.103 260.303 340.537 269.967Z" fill="#C9C8C8"/>
<path d="M354.81 200.798C357.174 215.411 351.103 260.303 340.538 269.967C340.026 267.559 345.638 248.717 346.743 244.758C349.714 234.114 351.331 209.756 354.81 200.798Z" fill="#2C2B2C"/>
<path d="M364.704 540.242C368.533 543.526 369.146 546.456 364.401 549.161L362.858 547.513C363.724 543.579 361.069 544.511 364.704 540.242Z" fill="#313031"/>
<path d="M361.837 527.731C363.593 528.123 363.555 528.034 364.766 529.307C365.731 531.462 365.48 532.396 365.345 534.751C363.136 534.34 364.068 534.8 362.399 533.409C361.443 531.343 361.727 530.022 361.837 527.731Z" fill="#313031"/>
<path d="M652.798 282.029C670.449 280.869 693.382 285.967 708.829 294.38C733.939 308.056 748.53 326.327 756.996 353.333C738.242 360.731 735.514 392.095 737.331 409.224C738.247 417.807 741.319 424.706 748.254 429.957C730.53 459.021 704.492 471.431 671.501 474.244C643.213 477.749 605.902 469.755 583.942 451.046C545.071 417.93 546.516 351.268 579.42 314.534C599.237 292.417 624.127 283.936 652.798 282.029Z" fill="#FAFAFA"/>
<path d="M615.206 334.357C634.961 333.453 689.355 336.681 705.054 351.278C712.755 358.595 715.837 369.548 715.933 379.923C716.248 414.382 704.379 429.011 670.325 430.339C645.975 430.515 599.76 429.491 579.425 413.859C563.293 401.456 565.79 359.243 579.633 345.251C589.095 335.688 602.454 334.909 615.206 334.357Z" fill="#313031"/>
<path d="M667.715 374.053C684.095 373.091 683.825 395.794 672.373 403.542C657.427 405.438 655.92 381.273 667.715 374.053Z" fill="#C9C8C8"/>
<path d="M602.448 367.838C617.203 367.104 617.186 390.743 606.043 397.88C590.94 398.265 590.867 375.608 602.448 367.838Z" fill="#C9C8C8"/>
<path d="M615.646 437.532C620.663 437.282 628.763 439.294 634.202 439.786C641.295 440.428 647.371 440.388 654.464 439.761C656.933 439.542 657.625 439.791 659.239 441.233C660.257 444.975 656.573 448.852 654.092 451.296C646.673 456.489 639.417 457.791 630.563 455.259C623.459 453.225 612.889 446.16 615.646 437.532Z" fill="#313031"/>
<path d="M877.686 223.984C889.15 223.268 896.411 229.721 908.055 232.778C927.135 237.789 955.946 230.264 968.53 247.362C952.391 271.108 961.74 275.787 965.723 300.347C966.493 305.074 963.051 318.896 962.246 324.743C975.37 331.174 971.809 325.102 980.792 318.489C985.736 314.849 996.058 315.361 999.214 322.157C1005.41 335.51 996.446 352.502 984.032 358.902C976.517 362.695 970.228 360.581 963.028 358.195C960.548 366.988 958.146 369.037 954.36 376.565C950.631 383.971 950.625 401.045 950.389 409.445C944.421 417.398 933.604 423.995 924.925 428.705C917.623 432.304 909.439 435.813 901.958 439.215C890.961 431.573 886.888 427.258 886.523 413.82C888.75 413.855 890.978 413.831 893.205 413.751C909.782 413.115 921.673 408.549 933.058 396.323C928.423 397.559 921.24 400.553 916.228 402.392C901.075 408.337 880.69 407.823 865.811 401.467C847.474 393.953 839.391 359.341 840.46 341.475C842.006 315.61 850.517 232.797 877.686 223.984Z" fill="#FAFAFA"/>
<path d="M862.757 352.37C864.433 352.376 867.341 353.683 868.86 354.396C878.552 358.969 888.497 359.721 898.993 357.868C903.487 357.075 910.361 350.313 913.612 354.68C913.956 357.132 914.119 356.128 912.825 358.464C911.424 359.438 909.945 360.296 908.398 361.032C896.805 366.509 880.222 365.848 868.382 361.396C863.634 359.613 860.119 357.502 862.757 352.37Z" fill="#313031"/>
<path d="M881.916 297.802C883.84 298.197 883.041 297.77 884.441 299.022C886.168 305.168 873.332 320.499 870.7 327.27C874.643 331.774 880.465 333.015 882.062 337.213C881.696 339.326 882.023 338.553 880.088 340.226C871.65 338.142 861.058 331.534 866.087 322.269C870.131 314.812 877.078 305.099 881.916 297.802Z" fill="#313031"/>
<path d="M917.139 290.239C929.891 289.112 927.979 307.67 919.817 313.76C906.266 316.067 909.439 297.313 917.139 290.239Z" fill="#313031"/>
<path d="M916.054 262.768C926.106 262.503 937.828 267.242 943.74 275.617C945.861 278.624 943.015 280.899 940.517 281.991C936.968 279.499 934.228 276.435 930.173 274.241C925.83 271.89 912.004 272.084 912.443 265.871C913.652 264.018 914.097 263.857 916.054 262.768Z" fill="#313031"/>
<path d="M863.128 282.318C875.593 281.107 872.466 299.252 865.103 305.398C853.397 307.86 855.923 289.217 863.128 282.318Z" fill="#313031"/>
<path d="M867.369 256.092C872.173 255.822 877.826 256.234 880.47 260.905C880.481 266.52 869.175 264.289 864.979 264.43C861.069 265.174 855.776 269.113 853.402 265.817C852.705 259.653 862.565 256.893 867.369 256.092Z" fill="#313031"/>
<path d="M985.607 324.053C986.541 323.972 987.475 323.931 988.414 323.93C990.906 323.909 992.312 324.01 994.118 325.772C994.63 327.211 994.596 327.107 994.157 328.581C985.703 332.021 987.61 324.899 979.92 336.714C978.655 338.989 978.171 340.322 975.91 341.213L974.954 340.411C973.705 333.108 979.881 327.304 985.607 324.053Z" fill="#313031"/>
<path d="M704.148 484.443C710.032 485.472 715.685 486.784 721.513 488.107C698.878 512.516 698.147 553.888 711.022 583.187C714.954 592.136 720.86 599.634 727.009 607.109C716.923 609.617 706.005 612.435 696.077 615.501C690.57 607.609 683.96 604.257 675.754 599.898C674.162 596.625 673.487 595.556 671.36 592.592C696.29 578.001 656.122 555.739 653.867 584.093C623.413 579.233 575.015 595.798 595.198 635.676C599.079 643.354 608.855 646.768 616.775 648.483C618.26 658.315 624.808 663.782 633.74 667.14C653.372 674.514 671.625 671.994 690.232 663.743C705.65 667.191 717.907 667.534 733.64 666.46C738.894 666.364 749.649 664.266 754.875 663.304C755.347 678.924 755.465 693.587 755.51 709.212C747.838 706.074 732.195 699.358 724.539 697.946C710.15 695.286 691.16 693.514 676.395 692.22C646.7 689.616 614.362 685.341 584.735 684.301C583.835 630.451 575.578 542.508 607.123 492.439C608.957 489.528 612.776 488.473 616.005 487.482L615.881 489.055C612.799 524.469 696.048 524.592 704.148 484.443Z" fill="#FAFAFA"/>
<path d="M979.819 436.142C994.787 441.974 1014.19 455.137 1028.36 463.415C1035.96 467.856 1042.22 476.737 1042.98 485.958C1046.63 532.227 1024.82 578.204 1000.69 616.631C972.124 662.129 918.58 621.901 883.778 606.676C875.025 602.845 858.944 593.582 851.215 587.929C851.952 575.02 854.078 567.742 860.957 556.94C865.019 551.965 867.218 549.835 872.449 546.132C877.484 547.36 885.735 550.716 890.91 552.633L923.265 564.665C935.466 569.21 949.973 573.648 961.352 579.312C965.47 581.359 972.934 590.752 977.007 594.549L977.485 594.988C975.325 586.534 972.878 582.085 966.032 576.348C968.912 575.78 974.43 575.442 975.696 572.827C978.739 566.561 981.805 569.368 986.952 567.377C990.293 566.33 990.248 560.998 991.784 559.673C999.422 553.078 1003.49 552.709 995.822 542.056L996.216 541.411C1003.88 528.953 989.258 525.221 980.483 522.597C983.779 516.599 988.887 504.949 990.957 498.618C983.132 505.074 978.565 512.7 974.565 521.911C966.156 522.304 961.099 523.84 953.505 526.783C958.382 520.929 969.885 502.098 974.695 494.816C971.095 490.2 965.644 484.875 961.454 480.57C967.219 479.057 976.484 476.843 981.63 474.195C981.411 461.515 980.556 448.806 979.819 436.142Z" fill="#FAFAFA"/>
<path d="M1023.28 470.334C1026.17 470.085 1029.94 470.173 1032.91 470.162C1016.71 474.392 1014.51 475.687 1001.31 486.284C999.517 487.879 997.391 489.569 995.523 491.116C995.94 490.427 996.367 489.742 996.8 489.06C1003.04 479.212 1011.91 472.894 1023.28 470.334Z" fill="#3C3B3B"/>
<path d="M193.45 605.073C205.057 568.637 210.43 529.19 227.74 495.089C231.498 487.686 243.718 473.555 253.079 474.451C275.713 476.617 285.865 503.572 286.475 523.347C284.258 517.922 283.256 516.255 279.435 511.794C285.921 535.082 293.568 574.672 296.13 599.758C290.962 597.693 285.511 595.708 279.832 596.608L279.753 597.204C284.948 601.226 295.363 602.761 301.173 608.886L301.63 609.376C305.009 630.333 338.474 644.552 344.321 669.199C327.093 669.688 315.804 679.261 310.575 695.623C311.858 696.27 313.041 696.923 314.388 697.429C314.298 698.801 314.114 700.657 314.165 701.99C312.165 702.069 310.24 702.333 308.371 701.732C292.093 699.774 284.787 689.982 274.402 678.221C256.302 657.196 242.342 642.116 235.473 614.843C233.085 605.354 222.195 541.595 220.28 539.773C216.043 544.371 221.321 582.338 222.801 589.813C211.878 597.018 205.689 600.292 193.45 605.073Z" fill="#FAFAFA"/>
<path d="M310.575 695.624C311.857 696.27 313.04 696.923 314.387 697.429C314.298 698.801 314.114 700.658 314.164 701.991C312.165 702.069 310.239 702.334 308.37 701.732C308.769 701.681 309.662 701.394 310.087 701.271C310.927 699.803 310.62 697.423 310.575 695.624Z" fill="#575656"/>
<path d="M282.863 609.252C285.786 608.988 294.374 608.92 295.976 611.659C293.561 612.914 286.438 613.032 283.334 613.217C280.274 613.634 273.428 615.99 271.261 615.197C272.683 611.929 279.743 610.062 282.863 609.252Z" fill="#313031"/>
<path d="M469.066 705.354C477.711 712.019 507.323 729.135 502.859 704.274C515.218 707.435 518.617 714.781 530.158 718.054C534.741 719.359 536.58 715.54 538.926 715.191C544.765 714.325 544.658 715.771 549.819 712.047L582.626 717.571C576.641 720.805 551.603 734.472 547.466 737.729C557.284 734.315 577.21 723.623 587.329 718.51C595.12 719.359 602.921 720.068 610.74 720.642C608.715 722.076 607.219 722.886 606.527 725.186C607.618 731.536 616.95 730.67 616.815 735.62C609.868 745.097 590.574 738.393 581.029 740.53C566.319 743.821 573.531 749.805 575.494 759.204L575.629 759.868L576.416 759.738C582.205 754.13 573.947 752.803 574.65 747.347C583.83 735.024 609.525 751.706 618.621 737.077C622.238 731.266 612.512 727.363 608.485 725.366C609.7 724.528 613.103 722.374 614.453 722.183C628.009 720.253 647.82 726.075 661.067 725.406C662.49 724.894 663.272 724.174 665.117 723.493C640.069 721.153 616.033 717.992 590.732 716.108C593.685 714.179 595.952 713.02 599.113 711.412C610.633 711.783 625.095 713.633 636.761 714.792L696.251 720.394C655.228 745.154 612.81 768.49 572.237 793.486C552.235 789.256 532.189 785.223 512.106 781.393C507.07 780.431 485.161 776.567 481.504 775.234L479.899 773.907C481.381 772.557 486.726 769.705 488.731 768.569C486.012 768.389 483.904 768.181 481.207 767.804C483.363 767.517 485.659 767.427 487.839 767.298C485.473 766.921 484.487 766.926 482.422 765.577C468.9 764.885 455.387 764.024 441.887 762.989C437.263 762.264 432.618 762.815 427.394 761.667L426.658 761.459C424.072 762.5 422.854 762.46 420.137 762.64L422.808 762.078C414.096 760.992 401.195 757.522 392.207 755.548C378.216 752.589 364.173 749.889 350.085 747.443C356.632 744.805 363.231 742.302 369.879 739.934C378.183 745.834 382.024 748.556 390.205 742.617C390.662 742.285 396.528 744.889 398.613 744.884C403.091 744.867 403.524 742.898 407.337 741.143C413.827 740.783 418.567 743.078 420.921 734.889C421.715 732.121 425.341 732.442 426.873 730.805C428.999 728.527 428.418 723.651 428.413 720.49C433.647 717.88 442.479 715.051 448.191 712.936C454.789 710.489 462.481 707.322 469.066 705.354Z" fill="#FAFAFA"/>
<path d="M599.113 711.412C610.633 711.783 625.095 713.633 636.761 714.792L696.251 720.394C655.228 745.154 612.81 768.49 572.236 793.486C552.234 789.256 532.189 785.223 512.105 781.393C507.069 780.431 485.161 776.567 481.503 775.234C485.651 772.636 488.647 771.308 493.087 769.446C497.351 770.459 502.327 771.128 506.755 772.09L568.822 784.937C576.731 779.694 586.991 774.452 595.293 769.351C609.525 760.565 624.42 752.646 638.656 743.933C643.235 741.132 669.29 727.813 669.74 724.928C668.52 723.876 666.765 723.78 665.116 723.493C640.068 721.153 616.033 717.992 590.731 716.108C593.685 714.179 595.951 713.02 599.113 711.412Z" fill="#FAFAFA"/>
<path d="M665.117 723.493C666.765 723.78 668.52 723.876 669.741 724.927C669.291 727.813 643.235 741.132 638.657 743.933C624.42 752.645 609.525 760.565 595.294 769.351C586.991 774.452 576.731 779.694 568.822 784.936L506.756 772.09C502.327 771.128 497.351 770.459 493.087 769.446C488.647 771.308 485.652 772.635 481.503 775.234L479.898 773.907C481.381 772.557 486.725 769.705 488.731 768.569C486.012 768.389 483.903 768.181 481.206 767.804C483.362 767.517 485.658 767.427 487.839 767.298C485.473 766.921 484.487 766.926 482.422 765.576C492.255 766.46 493.233 766.42 502.552 763.298L495.741 767.123C519.071 771.381 544.845 777.197 568.254 782.057L649.277 734.72C651.471 733.409 662.057 727.582 662.473 725.94L661.067 725.405C662.49 724.894 663.272 724.174 665.117 723.493Z" fill="#313031"/>
<path d="M422.808 762.078C427.323 759.57 438.971 753.416 443.75 753.028L443.755 753.557C438.656 757.685 433.484 759.277 427.394 761.668L426.657 761.46C424.072 762.5 422.854 762.461 420.137 762.641L422.808 762.078Z" fill="#181718"/>
<path d="M504.646 740.063C508.309 740.221 511.6 741.897 514.733 741.936C522.538 742.037 529.59 741.587 537.422 742.257C540.828 740.699 542.473 740.046 546.052 738.955L539.36 743.263C554.807 751.048 540.432 754.524 541.757 762.157C544.968 766.358 555.271 766.763 560.19 766.026C563.855 765.469 570.003 760.795 573.997 761.892C570.836 768.72 549.661 771.066 543.034 766.713C532.872 760.03 542.289 756.583 543.21 750.722C542.199 747.561 540.621 747.15 537.618 745.564C536.17 745.508 536.255 745.446 535.015 746.171C534.089 745.131 534.047 745.249 532.67 744.872C530.385 744.147 527.065 744.293 524.642 744.349C513.459 744.613 510.285 744.895 500.184 740.417L500.348 739.945L503.251 739.647C503.737 739.833 504.221 740.114 504.646 740.063Z" fill="#313031"/>
<path d="M446.471 721.17C452.948 720.501 457.025 722.132 462.726 724.753C457.716 724.624 450.119 721.519 445.677 724.562C443.727 728.702 448.035 730.215 447.437 734C446.902 737.386 442.993 739.152 442.715 743.011C442.578 744.923 442.924 746.014 444.2 747.415C453.752 752.303 462.036 741.402 470.756 740.48C477.659 739.754 484.256 743.978 491.206 743.444L498.483 741.02C497.663 741.92 496.823 742.774 495.887 743.556C487.768 750.334 478.261 740.93 469.061 743.382C461.907 745.289 456.096 752.297 448.209 751.262C445.431 750.902 443.374 749.468 441.677 747.291C436.21 740.266 444.213 739.293 444.671 733.393C444.921 730.17 442.168 728.021 442.532 724.86C443.608 723.111 444.801 722.29 446.471 721.17Z" fill="#181718"/>
<path d="M482.558 713.465C480.801 715.54 476.425 720.113 475.695 722.324C480.467 731.75 507.883 725.614 515.504 722.369C518.334 721.165 528.499 722.048 529.728 725.164C531.588 728.263 528.189 734.889 524.918 733.117C525.564 730.254 527.499 729.799 527.388 727.397C521.627 720.614 507.944 726.761 501.529 729.782L499.782 731.39C492.169 727.847 483.166 732.397 473.833 724.917L472.839 723.077C473.64 717.335 477.828 716.047 482.558 713.465Z" fill="#313031"/>
<path d="M532.67 744.873C534.047 745.249 534.09 745.131 535.016 746.172C527.371 749.895 520.075 753.889 512.184 757.061C510.918 756.937 511.556 756.875 510.301 757.595L511.257 757.117L511.407 756.628C518.418 752.584 525.405 748.439 532.67 744.873Z" fill="#181718"/>
<path d="M499.782 731.39L501.529 729.782C504.303 732.937 505.838 735.834 504.646 740.064C504.221 740.114 503.737 739.833 503.252 739.647C502.739 735.609 502.424 734.461 499.782 731.39Z" fill="#313031"/>
<path d="M472.839 723.077L473.833 724.916C469.694 724.118 464.306 725.732 460.907 724.393L461.368 723.662C464.768 723.229 469.113 723.375 472.839 723.077Z" fill="#575656"/>
<path d="M440.398 336.702C442.088 337.761 445.082 342.183 446.118 343.996C456.148 361.547 454.83 379.465 450.236 398.342C443.556 426.065 437.532 456.763 411.231 472.997C391.302 485.298 369.063 482.038 350.848 468.488C340.957 461.131 335.139 453.905 329.019 443.507C323.587 432.646 322.227 425.679 319.68 414.069C310.625 413.002 307.371 413.24 302.347 404.731C305.131 393.958 309.035 383.507 313.997 373.548C318.625 377.203 321.3 380.561 325.109 385.041C335.766 380.828 343.555 372.457 349.764 363.037C370.6 363.422 382.294 358.696 400.47 350.173C398.097 353.51 394.718 357.871 398.364 361.297C404.597 363.286 414.797 358.607 420.289 355.74C429.148 351.117 434.966 344.89 440.398 336.702Z" fill="#FAFAFA"/>
<path d="M377.586 386.894C390.935 386.935 386.283 405.723 376.934 411.588C364.093 412.789 367.898 393.5 377.586 386.894Z" fill="#313031"/>
<path d="M430.362 395.943C442.697 394.971 438.642 414.266 428.929 419.315C416.565 419.048 422.532 400.928 430.362 395.943Z" fill="#313031"/>
<path d="M367.726 364.334C374.835 365.426 383.922 373.656 390.567 377.11C392.913 378.33 399.266 381.221 400.037 383.284C399.71 384.892 398.663 385.456 397.358 386.55C394.859 386.967 392.913 386.713 390.603 385.63C386.18 383.554 366.829 371.959 365.496 368.485C365.571 366.444 366.294 365.995 367.726 364.334Z" fill="#313031"/>
<path d="M445.016 378.046C447.349 377.91 448.592 378.038 450.321 379.547C451.048 381.406 451.066 380.51 450.303 382.321C446.406 385.834 433.927 389.343 428.376 391.045C425.435 391.232 424.289 391.317 422.413 388.942C421.872 386.766 421.869 387.826 422.451 385.639C423.578 384.33 442.081 378.772 445.016 378.046Z" fill="#313031"/>
<path d="M385.019 447.928C390.832 447.587 402.801 449.446 404.598 456.122C402.451 459.634 397.335 456.57 394.597 455.293C389.064 454.169 373.324 456.415 372.543 452.425C375.08 448.258 380.636 448.384 385.019 447.928Z" fill="#313031"/>
<path d="M409.073 413.465C415.034 415.625 418.446 428.382 414.2 433.328C411.408 436.581 409.772 436.769 405.924 437.633C403.796 437.594 402.021 437.605 401.014 435.598L401.625 434.418C404.596 432.079 407.567 431.414 411.158 430.309C409.059 423.824 407.837 420.117 409.073 413.465Z" fill="#313031"/>
<path d="M1020.08 599.988C1020.43 601.664 1018.38 619.433 1017.92 622.987C1015.25 643.641 1018.09 662.185 1020.27 682.833L1027.37 747.274C1004.01 758.529 959.006 765.903 932.828 760.02C925.245 758.315 920.267 752.573 916.712 745.851C907.926 723.246 907.099 653.304 906.941 627.166C927.107 635.558 955.136 650.267 977.44 644.53C998.595 639.085 1009.94 617.081 1020.08 599.988Z" fill="#FAFAFA"/>
<path d="M1003.7 679.65L1006.15 679.267L1007.25 680.251C1007.15 681.056 1007.27 681.174 1006.67 681.793C1001.17 687.451 968.282 688.621 959.703 688.739C958.865 688.683 957.903 688.649 957.105 688.385C955.755 687.935 955.029 687.322 954.438 686.095C955.338 685.122 956.182 684.948 957.431 684.717C963.562 683.592 970.368 683.671 976.595 683.137C985.685 682.355 994.685 681.028 1003.7 679.65Z" fill="#313031"/>
<path d="M228.961 619.348C229.677 620.107 233.773 636.655 235.979 639.996C250.971 662.719 268.747 687.018 290.244 703.892C295.867 708.307 304.29 709.308 311.325 709.977C313.281 711.457 315.377 713.24 317.298 714.809C302.554 719.123 286.663 724.309 271.924 728.139C259.218 718.398 247.662 711.159 231.551 708.628C239.843 713.56 248.698 717.469 256.758 722.796C260.186 725.057 263.606 727.341 267.005 729.647C253.456 733.196 244.422 736.098 231.476 741.47C210.229 751.262 204.052 773.654 190.573 791.028C185.861 797.103 174.513 807.244 168.487 812.84C165.738 799.448 164.857 783.429 163.506 769.716C158.036 714.196 159.659 686.455 181.654 636.205C200.423 633.758 212.65 627.931 228.961 619.348Z" fill="#FAFAFA"/>
<path d="M850.843 441.631C850.866 442.794 838.407 461.194 836.59 465.204C839.712 468.299 844.465 471.746 848.031 474.497C843.649 478.174 838.283 481.649 833.451 485.657C835.678 498.183 840.252 523.18 844.802 534.571C835.549 535.017 831.887 536.071 823.545 539.874C822.257 523.59 821.869 509.709 819.732 493.269C816.103 510.36 817.037 526.643 817.937 544.035C813.522 547.936 810.113 552.143 807.925 557.616C803.762 557.174 798.638 556.178 794.897 557.775L794.953 558.514C796.759 559.696 804.274 561.817 807.334 563.029C797.248 564.542 791.68 566.252 784.283 573.299C809.978 568.237 810.906 567.849 836.77 574.711C838.761 580.24 839.577 580.921 844.206 584.166C844.189 584.976 844.189 585.786 844.195 586.602C844.234 591.169 844.476 591.849 847.654 594.971C860.968 602.48 872.089 608.914 885.853 616.075C858.088 619.697 811.097 629.568 784.823 619.68C745.212 604.769 786.432 523.837 795.589 498.803C809.1 461.848 816.79 456.354 850.843 441.631Z" fill="#FAFAFA"/>
<path d="M878.642 179.546C884.571 181.53 890.185 186.722 897.194 187.992C929.47 193.837 970.622 190.412 990.771 222.122C993.702 226.736 994.315 233.463 995.277 238.795C1000.22 245.376 1007.2 245.181 1011.7 259.073C1017.22 276.085 1006.97 296.836 999.152 312.058C995.046 310.407 994.169 310.078 989.792 309.391C979.611 309.689 976.169 312.977 969.199 319.709C973.93 293.958 969.171 292.516 966.066 268.097C965.217 261.437 978.683 248.805 970.431 240.472C948.792 218.614 907.499 238.248 884.971 213.847C882.934 211.621 873.895 196.068 873.946 194.246C874.952 194.474 875.965 194.688 876.977 194.888C877.495 194.255 878.232 181.959 878.642 179.546Z" fill="#575656"/>
<path d="M412.411 509.995C412.461 510.028 412.513 510.06 412.56 510.097C424.713 519.522 439.895 585.837 451.827 604.01C460.176 616.727 477.349 631.812 482.812 644.777C483.813 647.156 484.143 649.744 484.513 652.28C469.257 648.281 458.34 655.661 450.346 668.367C448.332 672.186 448.026 674.469 447.405 678.654C445.25 678.114 443.059 677.535 440.973 676.764C422.585 669.97 395.926 619.708 387.367 601.389C388.735 599.915 390.048 598.385 391.301 596.81C410.479 572.591 415.839 540.059 412.411 509.995Z" fill="#FAFAFA"/>
<path d="M433.397 600.236C435.865 600.129 437.512 599.814 439.771 600.759L439.74 601.445C437.193 603.177 426.954 606.833 421.526 609.955C420.074 610.793 419.407 611.13 417.859 611.783L417.357 611.237C419.021 606.299 428.786 601.855 433.397 600.236Z" fill="#313031"/>
<path d="M749.436 504.384C761.839 504.467 770.394 523.771 774.315 533.476C772.234 538.639 770.259 543.845 768.403 549.094C758.903 576.77 749.7 616.029 785.689 627.909C783.653 633.483 781.56 638.415 777.527 642.898C764.921 656.903 740.762 658.619 723.111 659.648C716.985 659.704 712.44 659.727 706.359 659.131C717.081 647.072 716.034 631.621 706.736 619.095C721.637 616.26 735.654 610.399 750.932 610.304C753.598 610.292 757.221 610.618 759.668 609.747L759.707 608.948C755.19 604.859 743.529 605.224 737.837 605.32C734.242 580.476 724.292 520.918 749.436 504.384Z" fill="#FAFAFA"/>
<path d="M859.59 627.914C861.03 627.796 861.998 627.385 863.173 628.274C864.039 635.755 862.279 648.281 861.812 656.099C861.013 669.941 860.136 683.778 859.191 697.609C858.336 709.938 857.678 722.509 854.927 734.59C853.673 740.097 851.867 746.222 846.709 749.293C840.111 753.219 831.831 751.093 824.912 749.349C817.959 747.589 814.185 745.097 810.467 738.91C809.736 732.717 811.406 724.944 812.019 718.707L816.041 677.501C818.235 678.237 820.434 678.991 822.656 679.627C825.103 680.319 826.757 680.684 829.013 679.407C829.519 678.018 829.671 678.024 829.074 676.691C825.576 674.514 820.727 673.665 816.823 672.208L820.069 631.368C833.394 631.452 846.416 629.675 859.59 627.914Z" fill="#FAFAFA"/>
<path d="M566.826 519.079C567.225 519.608 564.869 536.252 564.7 538.743C563.794 552.062 565.049 564.767 569.318 577.484C571.99 585.437 576.467 592.451 576.434 601.029C569.762 609.145 562.995 617.092 552.215 619.73C545.801 621.345 539.005 620.259 533.415 616.727C519.635 608.121 514.901 589.875 511.404 575.116C509.264 565.785 508.301 555.444 507.761 545.903C522.391 550.367 535.337 548.678 545.356 536.596C553.844 554.518 555.612 565.802 560.99 583.637C563.288 564.952 560.373 557.807 553.751 540.678C558.015 532.419 561.288 526.456 566.826 519.079Z" fill="#FAFAFA"/>
<path d="M430.888 262.725C441.337 234.072 460.376 199.121 487.798 183.676C492.61 180.965 500.027 181.806 501.368 187.817C508.537 219.944 484.215 266.287 461.028 287.31L455.482 282.545C452.713 279.566 449.188 276.534 446.137 273.778C448.644 268.634 452.239 260.289 454.716 255.118C457.494 249.321 469.893 228.94 470.438 224.109C458.104 238.939 450.036 252.437 442.815 270.529C439.287 268.239 434.181 265.118 430.888 262.725Z" fill="#FAFAFA"/>
<path d="M470.438 224.109C474.435 218.36 486.221 203.881 488.343 220.853C489.341 228.837 484.348 239.961 480.885 246.84C474.171 260.477 466.657 272.081 455.482 282.545C452.713 279.566 449.188 276.534 446.137 273.778C448.644 268.633 452.239 260.289 454.717 255.118C457.494 249.32 469.893 228.939 470.438 224.109Z" fill="#C9C8C8"/>
<path d="M408.675 302.283C419.668 301.827 432.471 303.248 440.36 311.732C439.38 334.063 427.825 348.468 405.892 353.307C409.617 347.594 415.677 335.697 417.947 329.431C415.569 330.948 411.473 334.441 408.814 336.37C400.58 342.343 394.175 345.585 384.886 349.473C365.676 356.724 345.529 358.301 325.572 353.191C331.056 347.313 335.885 340.694 341.74 334.742C360.73 315.442 381.641 304.627 408.675 302.283Z" fill="#575656"/>
<path d="M382.153 609.111C386.081 613.892 389.062 623.775 392.51 629.129C403.689 646.498 419.822 675.375 438.261 684.655C429.918 686.05 422.345 687.378 414.053 689.189L399.712 692.187C390.099 687.496 379.645 686.596 369.207 685.387C366.763 685.1 363.979 684.796 361.747 683.733C361.688 683.48 361.621 683.232 361.571 682.979C360.987 679.981 368.338 632.605 370.227 627.757C372.737 621.311 378.321 614.922 382.153 609.111Z" fill="#FAFAFA"/>
<path d="M199.928 463.015C207.553 462.214 218.275 466.477 225.087 469.97C207.022 483.491 188.773 529.559 180.439 551.195C179.746 552.997 179.627 553.69 178.213 554.264L175.757 552.93C166.995 547.817 156.938 544.825 148.354 539.437C157.397 517.11 171.282 487.115 188.651 469.814C191.763 466.714 195.946 464.752 199.928 463.015Z" fill="#757474"/>
<path d="M964.26 421.516C966.791 423.234 970.352 427.474 972.303 429.829C974.418 440.917 974.565 457.961 975.06 469.758C967.1 472.242 959.192 474.866 951.322 477.628C954.258 482.466 962.555 490.734 966.853 495.223C956.548 509.507 942.738 534.746 932.22 545.507C928.957 549.05 925.79 552.675 922.713 556.377C920.469 555.842 918.281 555.166 916.07 554.513C917.15 545.564 921.29 534.661 923.951 525.922C931.843 500.007 941.636 474.75 952.638 450.008C956.807 440.627 961.115 431.296 964.26 421.516Z" fill="#FAFAFA"/>
<path d="M131.279 576.809C140.071 583.62 155.126 589.588 165.864 592.575C160.428 606.918 155.177 625.304 152.006 640.423C149.903 650.452 150.978 656.752 156.766 664.969L156.41 665.419C153.597 665.166 149.038 662.697 146.365 661.623C123.179 651.965 112.384 642.133 119.603 615.878C123.163 602.935 125.957 589.526 131.279 576.809Z" fill="#757474"/>
<path d="M227.225 472.966C228.213 473.737 230.044 476.76 230.837 477.962C227.695 483.221 222.529 488.197 219.87 493.849C202.974 529.773 197.257 570.729 184.647 608.335C174.703 610.382 168.206 615.022 167.855 626.48C167.711 631.182 170.237 633.73 173.502 636.711C169.888 646.121 166.668 652.595 163.02 663.029L162.429 663.912L161.567 664.024C152.375 657.905 156.451 640.131 158.778 631.182C162.81 615.681 167.982 600.23 173.325 585.128C185.045 552.005 196.537 518.036 214.374 487.613C218.069 481.314 221.775 477.537 227.225 472.966Z" fill="#575656"/>
<path d="M352.227 690.848C374.539 692.8 395.222 693.874 412.293 710.174C415.698 713.425 422.14 720.259 422.28 725.248L421.098 726.249C420.009 726.396 419.793 726.604 418.927 725.844C416.889 724.05 415.106 721.294 413.367 719.179C409.057 713.943 404.623 709.376 399.177 705.281C396.879 703.554 393.745 700.837 390.694 701.282C389.681 702.081 389.635 702.052 389.391 703.312C392.202 706.642 396.316 709.471 399.598 712.379C403.544 715.866 406.907 719.888 410.082 724.078C412.055 726.682 414.611 729.703 414.141 733.156C413.475 733.927 413.417 734.293 412.371 734.506C410.625 734.861 408.852 733.961 407.54 732.864C405.298 730.997 403.442 727.976 401.606 725.653C396.515 719.213 391.469 714.263 384.55 709.752C382.456 708.526 381.146 707.975 378.72 708.425C378.621 708.74 378.364 709.044 378.422 709.37C379.019 712.694 399.978 727.116 401.301 736.076C400.825 737.561 400.859 737.572 399.541 738.393C391.871 738.1 383.303 725.141 377.35 720.321C374.942 718.375 371.582 715.816 368.347 716.181L367.678 717.109C368.011 722.419 382.292 730.007 384.284 736.492C384.652 737.69 384.443 737.904 383.894 738.944C381.085 740.024 378.467 738.23 376.246 736.593C370.299 732.2 365.569 727.239 358.085 725.709C354.341 724.945 350.442 724.59 346.772 723.516C339.298 721.333 335.897 716.463 332.394 709.876C333.138 707.812 334.079 705.826 335.202 703.942C339.04 697.474 344.917 692.693 352.227 690.848Z" fill="#FAFAFA"/>
<path d="M893.807 621.086C896.456 621.452 898.47 622.728 900.832 623.988C900.214 633.173 900.506 644.017 900.523 653.304C900.534 659.12 900.461 669.008 901.102 674.508C895.578 681.595 889.925 688.587 884.137 695.466L879.902 690.437C875.379 684.824 871.442 678.114 867.791 671.887C867.943 658.698 869.186 639.439 870.244 626.182C878.135 624.663 885.994 622.965 893.807 621.086Z" fill="#757474"/>
<path d="M668.885 605.169C676.136 605.146 684.759 612.379 689.833 617.239C700.998 627.408 702.41 648.635 688.235 657.05C671.602 666.927 640.372 668.822 625.629 653.889C624.397 652.64 623.958 651.572 624.138 649.935L625.162 649.586C627.131 650.008 627.62 650.874 629.01 652.404L629.538 652.989C634.792 656.364 662.81 664.441 662.833 654.761C659.852 652.59 638.645 656.217 631.755 646.796C631.428 644.884 631.237 645.722 632.221 644.175C637.003 641.076 642.391 643.174 648.18 643.5C655.942 644.423 665.73 642.021 670.792 635.699C673.526 632.29 674.803 629.529 677.958 628.117C681.581 626.497 671.433 616.873 669.841 615.72C668.441 614.702 665.904 612.081 665.865 608.6C666.86 606.209 666.41 607.042 668.885 605.169Z" fill="#FAFAFA"/>
<path d="M730.238 489.342C738.107 488.962 746.128 493.002 752.625 496.973C750.319 497.673 746.815 498.452 744.953 499.86C719.832 518.817 726.402 571.139 729.878 596.068C730.109 597.463 730.44 598.402 729.889 599.667C728.292 599.291 725.833 595.601 724.832 594.178C710.916 574.402 706.517 549.618 710.522 526.013C712.834 512.391 718.56 497.572 730.238 489.342Z" fill="#757474"/>
<path d="M869.585 430.291C870.322 431.616 866.784 447.642 866.362 451.243C862.998 480.211 863.145 508.455 864.27 537.485C858.195 537.266 856.766 537.177 851.135 534.965L847.614 520.127C844.717 510.828 842.242 497.632 840.155 487.916C845.133 484.431 853.897 478.664 857.846 474.408C854.499 471.007 848.846 466.599 844.998 463.439C851.023 453.862 860.895 436.394 869.585 430.291Z" fill="#FAFAFA"/>
<path d="M466.557 685.156C468.945 681.112 472.025 677.703 476.116 675.341C479.206 673.53 482.686 672.484 486.264 672.298C493.532 671.955 517.001 678.463 524.854 680.583L523.603 682.012L522.417 683.272C522.373 683.598 522.329 683.919 522.284 684.245C527.924 688.334 542.821 698.931 544.692 705.827C544.416 707.857 544.814 706.951 543.26 708.526C540.502 709.01 538.265 705.405 536.403 703.245C531.77 697.868 518.833 683.879 511.289 686.202C509.694 690.274 537.737 702.654 532.563 711.783C527.645 713.02 518.392 702.817 513.177 700.196C507.031 696.799 500.025 695.871 493.328 694.032C490.305 693.205 487.789 689.358 484.928 691.039C484.702 696.338 498.537 702.705 497.449 709.899C493.872 713.24 489.565 709.331 485.945 707.536C473.094 701.158 469.52 699.538 466.557 685.156Z" fill="#FAFAFA"/>
<path d="M757.266 359.963C781.268 358.773 778.146 410.52 760.163 423.812C736.47 432.256 739.609 371.056 757.266 359.963Z" fill="#C9C8C8"/>
<path d="M634.157 595.235C644.091 593.987 654.902 595.005 662.76 601.619C658.581 608.481 662.113 609.961 658.738 614.787C653.676 622.042 639.574 625.08 631.468 626.536C620.263 627.206 609.744 627.088 602.37 617.486C604.986 603.537 621.714 597.182 634.157 595.235Z" fill="#FAFAFA"/>
<path d="M653.788 598.008L654.43 598.458C653.665 601.642 641.357 609.404 637.408 615.816C627.266 617.796 621.214 620.332 611.561 623.325L610.526 622.937C610.605 622.61 629.235 605.759 629.764 605.596C636.559 603.509 646.92 599.656 653.788 598.008Z" fill="#181718"/>
<path d="M267.76 462.58C268.389 462.586 296.034 482.098 298.767 485.026C309.111 496.107 309.886 531.203 305.624 544.751C302.722 553.979 300.876 559.012 298.473 566.089L297.423 559.931C295.932 550.429 292.252 541.719 293.187 531.905C294.835 514.609 289.879 494.144 278.336 480.847C270.97 472.463 260.6 467.315 249.468 466.518C256.339 464.021 260.66 463.443 267.76 462.58Z" fill="#757474"/>
<path d="M891.872 480.17L902.852 480.987C903.015 490.833 904.039 502.187 904.573 512.174C905.198 525.13 905.737 538.09 906.182 551.053L895.658 546.87C889.74 544.665 883.783 542.583 877.781 540.626C878.068 536.229 879.812 528.351 880.774 523.805C883.867 509.114 887.574 494.556 891.872 480.17Z" fill="#757474"/>
<path d="M792.428 629.838L805.529 631.222C806.361 644.788 808.285 666.027 800.179 677.636C794.307 686.045 784.176 688.323 774.692 690.021C771.874 690.387 768.972 690.758 766.131 690.876C764.64 690.932 763.493 691.034 762.385 690.016C765.94 686.264 771.773 686.135 775.435 682.321C782.804 674.638 781.268 659.103 781.133 649.361C786.567 643.455 789.61 637.251 792.428 629.838Z" fill="#757474"/>
<path d="M241.525 445.712C245.37 445.547 249.398 445.641 253.26 445.67C256.492 449.342 259.153 452.85 262.608 456.636C248.848 459.614 241.314 460.453 236.593 472.783C236.222 473.751 235.679 474.021 234.736 474.192C226.304 463.386 216.141 453.763 200.903 456.565C185.171 459.458 175.398 475.877 166.998 488.209C164.033 492.55 155.321 509.586 153.032 510.83L151.823 510.444C151.189 509.563 150.195 507.763 150.402 506.829C152.544 497.155 170.289 475.258 175.915 468.204C192.045 447.981 217.209 446.974 241.525 445.712Z" fill="#757474"/>
<path d="M955.755 412.207C957.066 413.508 957.668 417.148 958.118 419.053C956.014 428.086 947.65 448.066 941.591 455.086C937.98 459.271 929.627 466.984 925.24 471.186C922.568 467.703 921.702 466.262 919.637 462.359C915.97 455.645 912.46 449.111 908.398 442.615C925.943 436.648 943.527 426.264 955.755 412.207Z" fill="#FAFAFA"/>
<path d="M713.048 472.026C724.028 471.79 755.905 475.802 766.086 480.163C776.38 484.573 781.909 492.195 785.852 502.39C784.665 505.649 779.62 520.026 777.808 521.916L777.229 521.192C771.908 511.673 763.037 504.662 758.278 494.583C754.183 485.918 733.005 482.861 724.68 481.458C717.75 480.29 708.801 477.912 700.808 476.379C705.099 474.717 708.638 473.415 713.048 472.026Z" fill="#757474"/>
<path d="M143.653 544.882C149.151 545.852 171.039 556.649 177.1 559.749C173.555 568.446 170.881 578.401 167.174 586.866C161.305 586.613 135.332 576.056 133.619 569.885C132.075 564.317 140.05 549.89 143.653 544.882Z" fill="#757474"/>
<path d="M807.604 681.14L807.739 681.292C808.526 684.262 803.79 724.213 803.081 730.682C795.133 725.22 786.128 721.643 777.223 718.099C772.431 716.165 767.616 714.286 762.778 712.464L762.896 698.593C763.695 698.576 764.488 698.56 765.281 698.515C782.123 697.564 796.084 694.099 807.604 681.14Z" fill="#FAFAFA"/>
<path d="M967.472 529.438C972.782 528.967 990.596 529.119 991.969 535.544C988.583 540.257 962.207 527.78 955.001 538.609C955.283 539.918 956.728 540.075 958.028 539.896C965.076 538.926 992.908 540.389 992.936 550.609C988.217 553.727 974.014 544.958 967.871 544.691C964.316 544.537 951.655 545.017 951.143 549.673C953.584 550.746 962.269 550.13 965.953 550.669C971.095 551.422 972.602 551.794 977.71 553.464C980.635 554.657 985.433 556.918 984.656 560.661C978.728 564.778 963.94 553.746 955.429 555.876C952.386 556.637 947.762 557.521 945.81 560.282C947.408 562.888 971.741 560.385 972.253 567.163C966.285 574.447 937.592 562.494 929.7 559.162C939.955 545.621 950.676 533.347 967.472 529.438Z" fill="#FAFAFA"/>
<path d="M545.931 494.945C550.882 524.832 507.362 552.59 494.024 505.374C493.897 504.932 493.774 504.489 493.656 504.045C492.991 501.508 492.944 501.388 494.196 499.263L495.961 499.183C500.88 502.993 500.001 508.126 507.045 510.083C514.292 512.096 514.856 506.057 519.956 505.807C521.196 509.567 522.512 516.951 526.568 517.744C527.118 516.458 525.439 508.413 525.098 506.387C526.624 504.23 529.5 501.009 531.285 498.891C537.591 500.091 541.199 499.26 545.931 494.945Z" fill="#FAFAFA"/>
<path d="M598.736 491.126L599.473 491.3C599.507 491.652 599.591 492.191 599.417 492.509C584.674 519.423 580.404 549.144 577.575 579.194L577.147 579.503L576.011 577.416C568.834 553.356 567.782 525.795 580.5 502.871C584.111 496.362 591.665 492.628 598.736 491.126Z" fill="#757474"/>
<path d="M695.059 480.097C700.864 484.172 697.017 490.658 693.09 494.527C682.735 504.727 668.897 508.653 654.615 508.57C642.69 508.5 632.329 507.198 623.577 498.501C621.625 495.315 620.578 488.998 623.262 486.104L624.235 486.114C630.85 496.929 649.918 497.38 661.225 496.259C674.792 494.914 686.278 490.908 695.059 480.097Z" fill="#757474"/>
<path d="M360.752 733.381C362.961 733.927 365.832 736.413 367.758 737.712C361.806 740.069 347.686 743.905 343.394 747.735C344.533 748.967 345.719 749.277 347.354 749.636C370.622 754.755 394.152 758.04 417.275 764.097C413.384 766.162 409.373 767.871 405.325 769.587L398.465 767.894C387.186 764.26 375.134 762.191 363.517 759.918L315.058 750.452C330.45 745.199 345.687 739.507 360.752 733.381Z" fill="#FAFAFA"/>
<path d="M937.542 468.526C937.333 470.642 930.325 486.097 929.07 489.634C922.765 507.327 917.055 525.226 911.948 543.301L911.323 533.353C910.699 515.657 909.67 497.977 908.235 480.327C910.468 477.759 914.029 471.631 915.913 468.544C918.743 472.832 920.07 475.013 923.822 478.55C929.97 475.755 932.614 473.021 937.542 468.526Z" fill="#FAFAFA"/>
<path d="M322.572 447.503C324.691 449.55 327.763 455.519 329.767 458.096C340.243 471.562 348.84 477.487 363.931 484.433C361.967 487.745 356.904 495.939 359.634 499.606L360.917 499.536C363.156 498.357 364.452 496.111 365.928 494.027C365.22 498.484 364.76 501.149 363.45 505.554C361.92 508.265 360.391 509.59 358.196 511.783C347.199 491.212 332.59 478.501 316.207 462.12C318.845 457.632 320.712 452.376 322.572 447.503Z" fill="#FAFAFA"/>
<path d="M459.368 396.428L459.898 397.145C460.937 417.561 458.79 450.777 444.95 466.804C436.508 476.58 422.472 482.07 409.766 483.038L409.378 482.38C411.393 481.306 414.889 479.644 416.639 478.392C436.468 464.219 447.358 441.499 452.514 418.228C454.173 410.743 456.527 403.576 459.368 396.428Z" fill="#575656"/>
<path d="M223.451 597.289L224.183 597.682C225.346 602.564 226.556 607.435 227.813 612.295C211.492 621.317 197.253 627.476 178.443 629.894L175.997 629.973C171.552 627.425 175.076 620.496 176.652 616.84C195.974 611.778 206.341 607.66 223.451 597.289Z" fill="#575656"/>
<path d="M314.388 697.429C319.427 683.733 328.402 675.324 343.143 673.547C347.184 677.377 349.817 680.116 353.483 684.312C338.748 686.118 328.634 697.699 325.806 711.85C320.713 708.554 318.147 706.569 314.165 701.99C314.114 700.657 314.298 698.801 314.388 697.429Z" fill="#FAFAFA"/>
<path d="M882.81 465.53C883.243 465.947 886.084 476.531 886.596 478.079C884.081 488.158 880.537 498.415 878.124 508.639C877.269 512.258 872.336 537.407 871.11 538.125L870.48 537.296C869.529 516.754 869.462 486.036 871.498 466.351C875.469 475.988 878.27 471.623 882.81 465.53Z" fill="#FAFAFA"/>
<path d="M446.343 315.369C459.885 325.923 467.596 344.074 467.386 361.103C467.29 368.937 464.768 375.661 461.778 382.773C461.109 383.917 461.141 383.84 460.081 384.651C459.319 382.364 460.896 375.131 460.853 372.339C460.605 355.867 454.057 341.941 444.375 329.522C445.324 324.734 445.789 320.207 446.343 315.369Z" fill="#575656"/>
<path d="M441.887 762.989C455.387 764.024 468.9 764.885 482.422 765.577C484.487 766.926 485.473 766.921 487.839 767.298C485.659 767.427 483.363 767.517 481.207 767.804C483.904 768.181 486.012 768.389 488.731 768.569C486.726 769.705 481.382 772.557 479.899 773.907C477.786 775.459 458.847 773.457 454.838 773.198C439.95 772.304 425.071 771.252 410.205 770.043C420.598 765.121 421.228 764.845 432.328 764.857C435.933 764.08 437.989 764.058 441.887 762.989Z" fill="#FAFAFA"/>
<path d="M441.887 762.989C455.387 764.024 468.9 764.885 482.422 765.577C484.487 766.926 485.473 766.921 487.839 767.298C485.659 767.427 483.363 767.517 481.207 767.804C465.143 767.101 448.468 765.785 432.328 764.857C435.933 764.08 437.989 764.058 441.887 762.989Z" fill="#181718"/>
<path d="M838.817 541.765C842.997 541.349 847.812 541.753 851.969 542.194C842.676 549.692 839.751 556.838 837.304 568.035C835.302 567.259 832.433 566.409 830.324 565.723C824.147 564.12 819.72 563.254 813.387 562.155C818.286 550.414 826.465 544.021 838.817 541.765Z" fill="#FAFAFA"/>
<path d="M895.623 447.712C898.391 447.517 902.261 447.721 905.124 447.793C907.706 452.962 909.753 457.228 912.932 462.062C910.333 466.536 908.01 470.603 905.068 474.876C899.612 474.836 896.22 474.621 890.797 474.025C890.201 469.631 888.435 462.638 887.405 458.103C889.751 453.94 892.344 451.115 895.623 447.712Z" fill="#757474"/>
<path d="M475.276 655.975C476.852 655.835 478.504 655.66 480.073 655.936C484.589 656.735 487.385 661.949 489.831 665.413C487.19 665.43 484.376 665.672 481.805 666.291C472.408 668.558 466.321 674.441 461.36 682.462C460.645 684.25 460.452 686.298 460.132 688.193C457.242 685.752 452.917 682.743 452.347 678.761C451.816 675.054 453.524 671.482 455.613 668.529C460.373 661.819 467.196 657.37 475.276 655.975Z" fill="#FAFAFA"/>
<path d="M404.519 510.842L405.084 511.055C405.242 511.384 405.4 511.714 405.558 512.043C409.604 533.54 404.299 557.964 395.235 577.276C395.051 576.753 397.172 554.729 397.309 552.009C398.016 539.088 397.273 526.128 395.095 513.371L404.519 510.842Z" fill="#575656"/>
<path d="M300.44 415.353C305.342 418.641 308.434 420.027 314.219 421.132C317.467 434.143 319.323 437.994 313.727 450.709C312.986 452.392 311.995 454.298 311.178 455.977C301.983 444.437 299.699 429.663 300.44 415.353Z" fill="#575656"/>
<path d="M630.878 479.602C652.905 483.153 666.788 482.542 688.838 479.516L683.185 483.956C671.805 490.743 644.682 495.115 632.549 486.135C630.726 484.784 630.929 481.816 630.878 479.602Z" fill="#757474"/>
<path d="M879.328 420.52C883.805 431.746 885.847 433.766 894.729 441.599C888.935 445.406 886.46 449.341 882.455 454.868L876.622 464.07C872.308 447.268 873.421 437.056 879.328 420.52Z" fill="#FAFAFA"/>
<path d="M873.647 694.206C878.192 695.697 878.743 701.574 882.534 703.273C886.522 702.395 889.194 698.104 891.737 695.157C895.191 695.247 898.655 695.573 902.098 695.82L902.582 703.678C902.863 706.04 902.829 708.56 902.936 710.945C896.169 710.799 879.89 711.401 874.181 708.577C872.089 704.96 873.36 698.301 873.647 694.206Z" fill="#757474"/>
<path d="M637.065 589.127C645.762 588.194 664.15 590.325 668.43 599.505C665.646 599.915 662.49 595.044 659.245 593.919C640.609 587.474 616.259 591.332 602.64 606.265C597.685 611.699 597.229 620.659 603.895 625.057C613.772 631.576 626.704 630.929 637.892 629.169C645.03 627.712 650.616 625.772 656.804 621.699C658.795 620.383 660.797 618.28 662.777 617.458L663.728 618.043L663.638 618.932C651.522 632.189 616.832 637.983 601.83 626.424C594.563 620.822 594.957 610.534 600.908 604.201C610.403 594.088 623.7 590.331 637.065 589.127Z" fill="#FAFAFA"/>
<path d="M135.78 543.758C136.258 543.889 135.972 543.757 136.46 544.416C128.528 557.548 128.839 562.916 124.675 577.18C121.943 586.54 118.161 596.771 115.643 606.423C114.301 611.575 113.48 619.399 111.977 624.022C108.974 617.925 109.067 613.673 111.114 606.67C116.745 587.423 121.741 564.958 131.488 547.435C132.345 545.893 134.352 544.626 135.78 543.758Z" fill="#757474"/>
<path d="M446.499 692.052C447.854 691.872 449.224 691.708 450.594 691.765C452.671 691.843 454.076 692.687 455.468 694.161C454.061 696.101 423.997 705.725 419.125 707.396C415.938 703.875 412.057 701.192 408.109 698.604C420.847 695.927 433.566 693.598 446.499 692.052Z" fill="#C9C8C8"/>
<path d="M863.117 189.165C864.23 189.672 869.9 193.225 871.419 194.096C871.329 203.207 875.295 209.663 880.892 216.573L880.796 217.443L878.642 217.912C874.704 218.352 872.893 219.014 869.248 220.45C861.328 212.736 860.518 199.314 863.117 189.165Z" fill="#575656"/>
<path d="M775.603 654.159C775.946 654.524 776.143 655.019 776.239 655.509C777.409 661.358 776.84 670.768 773.893 676.038C771.131 680.982 767.689 682.366 762.508 683.738C761.54 676.241 762.654 668.456 761.737 660.869C766.8 659.165 771.086 657.016 775.603 654.159Z" fill="#575656"/>
<path d="M551.573 349.133L551.901 349.439C552.412 350.697 549.471 361.826 549.048 364.779C547.864 373.562 547.537 382.44 548.071 391.287C548.334 395.124 549.208 399.719 549.213 403.329L548.488 403.386L546.576 401.448C537.61 387.472 539.239 360.807 551.573 349.133Z" fill="#B3B2B2"/>
<path d="M462.98 698.649C464.498 699.471 465.794 701.338 466.96 702.626C453.884 707.997 440.563 712.795 427.319 717.734C425.687 717.25 424.089 714.252 423.034 712.829C436.095 707.829 449.608 702.705 462.98 698.649Z" fill="#FAFAFA"/>
<path d="M322.534 359.181C328.987 360.217 333.1 362.067 341.115 363.031C338.051 367.086 336.537 369.359 332.764 372.763L327.232 376.913C323.753 373.104 321.218 370.71 317.037 367.741C318.957 364.305 320.224 362.385 322.534 359.181Z" fill="#575656"/>
<path d="M556.182 703.762C569.003 707.131 582.48 708.577 595.446 711.372L589.793 713.774C589.258 714.151 588.707 714.556 588.128 714.854C584.888 716.524 556.357 710.242 551.338 708.796C552.973 707.137 554.587 705.461 556.182 703.762Z" fill="#FAFAFA"/>
<path d="M540.425 527.538C542.158 532.842 539.302 536.794 534.508 538.97C525.975 542.84 517.74 543.019 509.032 540.051C508.327 538.825 507.796 536.886 508.087 535.402C510.337 534.857 513.989 536.08 516.607 536.339C526.384 537.308 533.155 533.178 540.425 527.538Z" fill="#757474"/>
<path d="M860.243 218.795C861.34 219.829 863.893 222.927 864.996 224.199C856.581 231.188 853.009 240.721 849.623 250.7L849.162 252.391L848.638 252.685C847.857 250.184 847.896 244.954 848.076 242.239C848.83 230.803 852.283 226.056 860.243 218.795Z" fill="#575656"/>
<path d="M525.147 482.576C530.091 482.445 538.277 482.759 542.643 485.244C545.596 486.924 544.885 490.811 542.693 493.018C536.369 494.859 520.056 493.162 525.147 482.576Z" fill="#FAFAFA"/>
<path d="M511.569 472.475C517.051 472.17 518.386 474.238 522.113 477.909C511.954 488.965 522.866 491.811 524.828 497.274L523.393 498.992C522.411 499.384 519.691 500.546 519.306 498.978C516.529 487.664 515.291 482.149 505.32 475.374L511.569 472.475Z" fill="#FAFAFA"/>
<path d="M861.643 543.736L863.634 544.234C863.606 545.653 858.594 549.287 856.609 551.804C850.573 559.444 848.284 567.5 845.691 576.618C844.903 576.235 843.75 574.863 843.587 574.087C841.269 562.916 851.844 547.53 861.643 543.736Z" fill="#FAFAFA"/>
<path d="M518.892 437.368C524.158 439.036 526.351 448.238 525.429 453.093C525.168 454.466 523.741 454.712 522.566 455.267C520.326 455.657 518.511 456.181 516.754 455.023C514.532 451.295 514.893 445.054 515.544 440.78C515.831 438.891 517.414 438.294 518.892 437.368Z" fill="#FAFAFA"/>
<path d="M667.513 622.498C669.515 623.302 668.868 622.633 669.718 624.349C669.088 627.138 666.686 629.422 664.363 631.031C657.073 636.07 653.203 638.05 644.478 636.998L640.164 636.413L640.192 636.003C649.98 634.04 659.407 628.005 667.513 622.498Z" fill="#B3B2B2"/>
<path d="M598.883 631.002C609.289 635.721 618.244 636.868 629.494 637.386L629.77 638.027L628.335 639.883C627.722 640.8 627.047 641.514 626.288 642.307C623.408 643.292 620.23 643.134 617.282 642.482C609.84 640.834 603.102 637.504 598.883 631.002Z" fill="#B3B2B2"/>
<path d="M701.1 622.537C701.696 622.762 702.225 622.981 702.72 623.398C706.899 626.913 708.384 633.269 708.508 638.472C708.671 645.446 705.949 651.318 701.184 656.257C700.138 656.617 699.531 656.74 698.428 656.594C698.383 654.457 702.006 649.265 702.647 647.015C705.409 637.319 703.159 631.115 701.1 622.537Z" fill="#757474"/>
<path d="M510.308 489.826L510.921 490.126C513.549 493.82 514.451 499.369 511.833 503.31C509.548 504.624 510.389 504.223 507.17 504.143C500.511 496.726 502.52 493.829 510.308 489.826Z" fill="#FAFAFA"/>
<path d="M498.392 480.753C503.537 480.449 505.132 482.411 508.668 485.685C505.932 487.072 504.211 487.792 501.938 489.868C501.122 490.891 500.884 491.395 499.647 491.827C497.001 491.278 494.845 489.285 492.597 487.61C494.819 484.126 495.334 483.551 498.392 480.753Z" fill="#FAFAFA"/>
<path d="M526.546 458.735C528.461 460.58 529.576 467.304 526.434 469.912C524.273 470.425 523.89 470.291 521.697 469.816C517.241 466.501 517.932 465.479 517.147 459.949C520.826 459.803 523.024 459.752 526.546 458.735Z" fill="#FAFAFA"/>
<path d="M524.854 680.583C534.76 684.003 543.084 689.082 548.758 698.362C549.521 699.611 549.477 700.027 549.193 701.163C547.545 700.955 542.662 693.536 540.755 691.692C536.037 687.13 529.872 683.587 523.603 682.012L524.854 680.583Z" fill="#FAFAFA"/>
<path d="M663.03 575.51C679.079 573.699 676.154 587.209 669.64 587.698C669.899 586.09 670.275 586.292 671.912 584.886C672.779 582.642 672.627 581.618 672.424 579.222C669.617 575.11 663.784 577.58 660.15 579.419L659.543 579.109C660.33 576.983 661.005 576.826 663.03 575.51Z" fill="#FAFAFA"/>
<path d="M866.959 693.722L867.696 694.093C869.31 696.343 868.855 705.68 869.007 708.909L866.852 708.009C864.805 704.735 866.486 697.344 866.959 693.722Z" fill="#757474"/>
</g>
<defs>
<clipPath id="clip0_15499_17955">
<rect width="1152" height="896" fill="white"/>
</clipPath>
</defs>
</svg>
