<svg width="928" height="1104" viewBox="0 0 928 1104" fill="none" xmlns="http://www.w3.org/2000/svg">
<g clip-path="url(#clip0_15499_17715)">
<path  d="M0 0Z"  fill="none"/>
<path d="M210.414 264.44C205.702 229.404 213.054 179.494 243.159 155.929C250.789 149.957 261.794 152.507 266.329 161.36C278.731 185.573 272.97 216.738 266.809 242.015C281.843 240.421 295.447 242.832 309.414 248.323C313.916 233.247 324.18 214.723 334.245 202.675C343.329 191.802 363.377 169.656 378.181 182.026C380.587 184.035 382.226 188.402 382.737 191.526C387.546 221.676 369.88 256.866 349.531 277.885C350.947 279.563 352.44 281.405 353.642 283.255C377.642 320.196 377.108 367.823 361.338 407.823C359.886 411.507 358.098 415.679 356.635 419.295C354.041 425.704 350.683 440.261 344.858 444.16C342.675 444.359 343.364 444.299 341.077 442.934C339.418 443.027 335.057 447.637 333.498 449.201C325.199 457.523 315.903 463.269 305.433 468.445C314.689 483.102 321.873 501.494 328.274 517.642C337.211 513.61 344.491 511.934 353.336 507.25C356.173 497.217 358.638 490.053 367.615 484.406C367.364 484.074 367.113 483.743 366.862 483.412C364.692 481.404 364.822 477.733 363.547 475.501C360.644 470.414 358.144 465.621 355.923 460.187C352.567 451.976 348.817 442.313 355.066 434.364C361.333 426.146 377.264 420.835 385.976 427.781C392.062 432.633 391.876 446.58 392.708 453.897L393.052 453.262C394.123 451.261 395.701 449.219 395.822 446.775C396.267 437.775 400.186 427.769 406.911 421.599C408.357 420.271 409.192 420.312 410.877 420.435C418.338 425.374 414.038 444.097 412.433 451.314C416.172 446.243 426.198 428.431 432.264 428.896C433.838 430.25 434.002 431.86 434.589 433.935C437.51 431.268 440.705 427.677 443.301 424.672C450.33 416.538 456.812 414.604 466.576 411.207C440.227 402.399 426.372 388.734 414.523 365.362C413.088 362.533 406.828 359.903 404.048 354.63C394.95 337.377 395.239 312.307 410.101 298.267C410.717 297.685 415.749 283.92 416.949 281.238C425.042 262.825 438.997 247.606 456.639 237.954C479.203 225.758 505.668 222.963 530.28 230.178C563.752 240.106 582.387 262.229 594.081 293.239C596.539 297.535 601.712 301.74 603.679 306.256C610.178 321.203 609.413 343.461 599.244 356.741C597.692 359.424 591.505 362.881 590.136 365.09C578.566 383.766 567.885 395.338 547.633 405.479C556.541 406.733 584.839 414.087 592.847 419.344C597.778 421.685 598.818 429.973 601.173 432.96C612.539 447.375 614.274 457.983 616.645 476.181L617.912 475.743C619.911 470.763 620.903 467.624 624.319 463.512C611.122 440.192 599.783 410.818 628.808 393.932C626.507 385.202 624.465 376.677 622.832 367.856C620.143 354.355 625.435 342.635 640.174 341.493C659.656 339.985 673.516 345.556 671.77 367.801C671.097 376.327 669.151 383.71 668.24 391.786C666.936 403.396 665.201 412.878 662.011 424.157C661.375 426.62 663.681 434.502 663.573 437.671C663.374 443.244 661.235 447.979 661.757 453.471L661.838 454.246C664.581 456.416 665.298 456.965 667.486 459.679C672.336 443.287 681.546 410.985 693.892 400.515C700.489 394.926 714.851 386.547 722.703 381.424C675.295 363.641 682.015 313.405 679.574 272.77C679.094 264.797 673.915 257.157 672.552 249.28C670.644 238.268 674.109 229.07 680.247 220.106C676.653 212.501 673.683 196.947 683.411 191.98C689.511 188.862 700.871 192.189 707.936 191.068C715.368 190.031 722.686 187.745 729.972 185.911C758.96 178.611 790.934 180.357 806.266 209.449C814.037 213.468 820.116 217.271 824.276 225.314C833.831 243.788 829.04 264.198 823.521 282.778C833.949 303.861 825.332 328.048 801.281 332.822C798.538 341.885 795.38 345.133 795.234 354.696C800.99 359.645 806.039 366.544 812.339 370.629C832.958 383.998 862.107 389.218 874.788 412.442C888.525 437.606 906.066 529.851 897.54 557.515C893.084 571.972 882.101 580.754 869.205 587.497C869.733 590.166 870.045 593.276 870.353 595.998C872.665 616.45 875.284 637.393 875.348 657.985C886.558 659.096 898.688 661.3 909.59 663.807C915.793 665.235 917.308 670.971 917.518 676.432C917.803 683.909 918.407 692.835 915.524 699.746C910.162 704.819 898.09 708.727 890.766 711.471C890.249 760.207 890.12 808.944 890.373 857.675C906.53 883.847 907.23 883.933 890.465 910.751C890.761 923.646 890.346 936.826 890.427 949.785C890.368 958.34 890.594 967.105 890.147 975.611C889.721 987.449 877.342 989.023 868.127 987.503C855.721 985.455 856.772 973.973 856.945 964.377C857.068 957.084 857.069 949.796 857.025 942.556C851.41 944.556 843.38 946.912 837.635 945.063C819.318 939.182 830.36 918.385 834.962 906.903C837.371 900.887 839.284 895.792 840.939 889.971C839.99 889.324 839.02 888.65 838.164 887.874C829.579 880.106 784.952 805.855 780.446 793.57C776.696 783.349 775.78 770.978 775.305 760.143L766.327 763.668L765.578 844.08C765.492 859.805 765.761 876.322 764.872 892.014C764.683 895.399 764.004 898.1 762.01 900.876C763.492 909.598 766.607 926.729 757.058 932.362C752.86 934.842 746.506 934.901 741.801 936.13C736.418 937.543 731.05 939.225 725.629 940.513C710.997 943.688 691.554 946.578 677.132 942.362C657.834 936.729 667.362 919.732 678.749 911.776C687.388 905.744 693.262 901.922 702.283 896.973C700.963 891.604 699.939 869.244 699.524 862.635L695.207 793.602C681.438 799.451 667.621 805.176 653.749 810.782C654.622 827.736 654.207 848.053 654.229 865.163L654.17 959.51L653.879 1034.07C653.825 1047.47 653.922 1060.86 653.469 1074.27C653.21 1082.09 650.198 1086.24 642.243 1088.12C632.09 1090.52 618.569 1088.14 618.192 1075.18C617.885 1064.72 617.998 1054.25 618.036 1043.73L618.095 986.215C618.03 927.673 617.491 868.155 618.16 809.661C609.904 808.383 601.454 806.826 593.214 805.397C594.345 824.916 598.026 862.376 588.757 879.254C591.678 886.235 594.162 896.93 593.321 904.304C590.697 928.541 556.121 936.912 536.114 933.856C495.388 927.629 518.268 896.288 539.129 882.084C526.642 864.252 522.032 814.216 520.897 792.449C517.134 791.899 513.521 791.204 509.792 790.487C509.889 807.947 509.431 851.552 501.738 866.43C508.57 888.461 507.76 902.353 482.499 909.129C465.879 913.582 447.061 917.129 430.174 912.439C420.804 909.835 414.121 902.024 418.349 892.132C423.98 878.952 437.678 870.672 450.243 865.362C440.318 845.148 440.723 801.333 440.858 778.498C407.982 772.935 375.14 767.167 342.334 761.205C343.227 800.81 341.667 841.18 342.238 880.817C342.498 898.881 311.097 896.116 310.371 883.879C309.684 872.295 310.043 857.223 310.034 845.428L310.07 755.474C290.935 752.251 268.925 748.925 250.24 744.763C249.202 770.557 246.569 797.694 244.308 823.434C243.144 836.684 241.658 852.657 238.57 865.492C237.787 868.742 236.299 870.241 234.056 872.543C246.009 881.755 275.687 891.108 271.31 910.029C267.789 925.252 233.443 921.64 222.12 920.023C210.813 918.783 199.962 916.304 188.921 913.754C170.947 909.603 176.765 885.06 181.48 872.327C180.871 871.863 180.274 871.384 179.69 870.888C177.197 868.732 175.525 866.128 175.083 862.872C173.214 849.072 173.575 833.585 173.409 819.569C173.105 793.807 172.946 769.016 171.047 743.319C162.88 776.649 152.227 809.316 139.177 841.051C134.524 852.43 129.831 864.926 123.355 875.4C121.237 878.823 118.603 879.588 114.999 880.801C117.275 892.687 127.012 901.668 132.32 912.509C136.532 921.107 140.634 933.247 129.422 938.696C118.224 944.146 105.213 940.071 94.2158 936.292C93.8903 946.691 94.204 957.402 94.2121 967.892C94.4955 978.948 90.0636 985.627 78.3838 986.123C55.755 987.093 59.7688 970.356 59.6567 954.178L59.3991 910.919C54.9699 905.539 50.5164 900.763 50.2555 893.448C49.8693 882.623 59.2326 872.322 59.4315 863.001C59.8211 844.722 59.5333 826.092 59.4918 807.801L59.404 711.223C52.3367 710.064 43.2206 709.385 36.8224 706.156C33.9563 704.706 32.8442 702.727 31.9853 699.682C29.9391 692.431 29.4514 677.806 33.6538 671.16C37.3966 665.235 71.7267 657.586 80.2333 655.592C80.3988 648.697 81.1759 641.829 82.5566 635.07C78.0685 626.213 80.0943 617.846 82.5857 608.688C69.0698 604.338 53.1427 596.483 46.4174 583.47C36.1906 563.676 49.3716 538.135 56.4238 519.258C57.9285 513.923 58.0686 508.436 59.7473 503.11C62.181 495.388 66.6307 490.896 73.7239 487.35C80.4958 468.44 94.0127 445.285 104.719 428.166C117.817 407.224 142.589 405 165.213 408.681C144.301 362.716 172.727 294.284 210.414 264.44Z" fill="#383838"/>
<path d="M617.061 487.199L618.759 487.68C623.458 509.683 629.542 546.701 649.191 559.294C656.035 563.698 664.356 565.175 672.299 563.401C678.653 562 683.552 559.067 688.714 555.24C688.229 579.719 687.34 604.187 686.047 628.639L632.399 620.342C624.024 619.07 610.875 616.666 602.877 616.051C601.045 609.62 600.501 607.065 596.626 601.534C596.744 586.807 597.332 571.153 583.654 562.296C602.16 548.97 611.726 533.065 615.396 510.518C616.603 502.805 617.158 495.005 617.061 487.199Z" fill="#fafafa"/>
<path d="M616.646 476.181L617.912 475.743C617.352 480.273 617.886 483.2 618.759 487.68L617.061 487.199C616.802 483.538 616.452 479.841 616.646 476.181Z" fill="#d0d0d0"/>
<path d="M290.797 605.971C292.461 605.723 309.733 609.286 313.319 608.618C314.191 608.451 323.341 612.591 324.649 612.472C331.165 611.879 332.009 611.205 337.678 614.979C342.195 617.598 351.246 616.979 356.635 616.687C359.654 618.768 363.208 621.814 365.623 624.358C374.345 633.539 378.299 625.054 387.46 626.466C390.304 626.908 395.57 633.161 399 633.9C413.553 638.476 431.337 636.649 446.58 635.986C449.589 638.228 449.435 637.555 452.618 638.606C457.154 640.099 461.073 638.439 465.485 639.705C469.524 640.961 474.524 643.328 478.451 644.665C496.864 650.923 519.513 655.451 536.44 643.139C539.437 640.956 547.876 641.021 549.175 635.393C550.204 630.929 547.79 628.423 550.226 624.552C551.966 621.555 546.604 618.251 545.23 615.496L545.645 614.855C550.646 615.054 571.62 618.714 578.087 619.658L661.392 632.423L903.599 669.882C896.927 673.273 886.456 677.262 879.348 680.173C863.725 686.625 848.064 692.981 832.36 699.234L690.746 757.173C675.387 763.706 659.155 770.245 643.667 776.617C635.125 774.557 624.827 772.881 616.064 771.274C597.898 767.948 579.704 764.784 561.484 761.787L434.832 740.036L198.174 699.336C147.428 690.464 95.6949 680.491 45.0068 672.232C52.3276 671.257 66.3023 667.133 73.9192 665.074L124.813 651.231L290.797 605.971Z" fill="#d0d0d0"/>
<path d="M502.985 664.664C510.972 664.729 507.865 668.233 511.942 668.982C517.334 666.13 520.996 665.462 523.444 672.249C526.414 672.922 530.364 663.818 535.99 675.181C541.086 673.92 540.66 666.901 548.431 677.192C549.8 676.389 552.758 674.518 554.111 674.48C559.603 674.329 559.376 678.216 562.443 681.3C563.122 681.984 565.849 682.496 566.49 683.375C568.268 685.795 567.401 694.145 567.266 697.294C561.602 701.504 540.455 711.713 532.99 715.649C524.009 720.441 514.994 725.168 505.947 729.831C501.603 732.095 493.733 737.314 489.046 736.796C471.348 733.292 453.475 728.656 435.716 725.158C428.455 723.724 419.319 721.912 412.396 719.632C412.304 715.196 412.15 710.765 411.933 706.334C415.894 703.374 439.483 692.399 445.635 689.547C460.94 682.448 477.278 673.623 492.541 666.885C493.502 667.149 494.47 667.386 495.443 667.602C498.487 668.243 500.297 666.421 502.985 664.664Z" fill="#383838"/>
<path d="M492.45 671.629C493.673 671.537 494.139 671.596 495.342 671.672C496.651 673.089 496.255 673.203 496.58 675.575C497.693 676.998 496.969 676.491 498.998 676.857C501.162 675.354 502.006 671.817 505.344 672.852C510.023 674.308 507.4 676.043 509.087 678.863C511.099 679.564 510.158 679.569 511.992 679.224C512.594 678.221 513.716 676.318 514.905 676.07C520.174 674.976 520.515 676.825 521.205 680.992C522.575 682.302 521.769 681.817 523.849 682.216C525.63 681.213 525.101 680.75 526.278 678.248C532.25 677.758 532.084 679.035 534.086 683.499C535.6 684.571 536.405 685.067 537.75 683.725C537.978 682.307 537.97 680.971 538.924 680.022C549.347 680.415 543.176 685.714 549.557 686.771C550.802 685.892 550.43 685.844 550.861 683.811C553.049 682.615 559.678 684.787 562.388 685.493C558.32 688.226 545.504 694.339 540.708 696.792L503.043 716.473L490.454 722.974C480.342 720.295 467.989 718.026 457.624 715.735C444.976 712.937 431.001 709.546 418.314 707.616C424.536 704.199 433.772 700.113 440.317 696.954C457.779 688.685 475.157 680.243 492.45 671.629Z" fill="#fafafa"/>
<path d="M487.144 680.971C493.8 679.688 522.416 687.58 530.888 689.343C532.856 689.758 533.102 690.248 533.843 691.612C527.949 692.539 496.44 685.095 488.99 682.766C487.336 682.248 487.607 682.146 487.144 680.971Z" fill="#d0d0d0"/>
<path d="M478.124 685.801C484.187 685.202 514.478 692.663 522.027 694.819C523.282 695.18 523.296 696.027 523.695 697.116C519.894 697.358 481.827 688.987 478.38 687.235L478.124 685.801Z" fill="#d0d0d0"/>
<path d="M416.566 709.978C431.543 713.336 446.546 716.57 461.573 719.697C470.09 721.508 481.448 724.317 489.849 725.535L491.628 725.352C491.861 727.033 491.722 730.866 491.988 731.804C490.396 732.246 490.509 732.284 488.925 731.853C482.604 730.02 472.196 728.225 465.45 726.785C449.314 723.4 433.203 719.896 417.119 716.274L416.566 709.978Z" fill="#fafafa"/>
<path d="M489.85 725.535L491.629 725.352C491.862 727.033 491.723 730.866 491.988 731.804C490.396 732.246 490.51 732.284 488.926 731.853L489.373 731.502C490.151 729.901 489.882 727.411 489.85 725.535Z" fill="#616161"/>
<path d="M419.117 713.412C428.237 714.576 479.308 725.222 485.109 728.225C478.906 727.945 422.1 715.94 419.117 713.412Z" fill="#383838"/>
<path d="M491.629 725.352C514.113 715.19 536.957 701.638 559.247 690.76C560.729 690.038 561.322 690.215 562.739 690.652C563.445 691.536 563.138 691.094 563.246 692.533C561.23 696.991 553.071 699.94 548.609 702.247L528.353 712.813C517.696 718.311 502.467 727.06 491.988 731.804C491.723 730.866 491.862 727.033 491.629 725.352Z" fill="#d0d0d0"/>
<path d="M560.33 692.722L560.734 693.525C557.717 696.382 538.542 705.185 533.552 707.649L533.42 707.595C534.773 705.029 556.763 694.431 560.33 692.722Z" fill="#383838"/>
<path d="M709.084 645.376C716.376 644.891 722.234 646.487 729.466 647.78C736.94 648.481 751.793 654.184 744.372 664.039C737.204 673.553 716.645 678.717 705.657 682.674C688.918 688.695 673.031 693.913 657.112 701.67C642.287 708.894 628.76 717.201 614.732 725.756C602.256 733.206 585.265 744.386 571.35 748.111C562.135 749.701 549.891 745.766 541.16 742.801C534.812 740.823 533.408 731.605 537.124 726.796C552.186 707.32 588.25 701.843 610.34 693.773C634.807 684.836 652.817 677.806 674.422 663.796C684.338 657.365 698.559 648.212 709.084 645.376Z" fill="#383838"/>
<path d="M710.771 649.678C714.996 649.7 728.394 652.374 732.861 653.209C719.89 657.452 708.659 665.004 697.245 672.136C675.586 685.855 653.318 696 629.014 704.053C610.561 710.598 590.606 714.668 573.474 724.414C566.225 728.538 560.195 734.117 561.359 743.06C511.281 736.316 559.182 714.129 578.491 708.447C606.935 700.113 633.379 691.687 659.618 677.575C674.126 669.769 696.156 653.597 710.771 649.678Z" fill="#d0d0d0"/>
<path d="M638.547 705.805L638.758 706.22C636.548 707.816 629.359 711.88 626.735 713.228C611.936 720.791 583.029 743.367 566.797 743.362C566.361 742.699 565.903 742.052 565.66 741.286C565.154 739.653 565.601 738.03 566.398 736.575C573.598 723.53 622.935 710.727 638.547 705.805Z" fill="#909090"/>
<path d="M735.012 657.192C736.989 657.004 739.123 656.68 740.676 657.877C743.952 667.634 699.223 679.801 690.821 682.809L684.575 684.862C694.421 678.281 725.139 659.78 735.012 657.192Z" fill="#909090"/>
<path d="M423.789 640.11C434.499 640.013 443.89 641.802 446.927 653.457C454.978 657.365 460.371 664.95 454.654 673.197C445.565 686.302 422.874 683.957 408.828 687.051C402.396 694.647 403.775 689.59 395.816 693.385C394.461 694.027 389.367 698.544 387.458 699.859C376.365 707.525 368.141 710.209 355.161 712.021C342.607 712.506 318.712 710.349 320.882 691.369C321.352 687.256 325.529 683.58 328.918 681.466C335.305 663.877 357.238 664.012 373.26 662.227L373.484 661.909C377.204 656.804 378.499 657.079 384.632 657.139C397.753 647.894 407.156 640.994 423.789 640.11Z" fill="#383838"/>
<path d="M386.497 669.612C387.806 669.575 387.504 669.596 388.818 669.909L388.786 670.691C382.439 676.184 340.892 675.326 342.714 684.787C352.075 693.574 371.934 689.655 382.416 685.342C385.268 684.167 394.663 678.334 397.027 678.502L398.415 680.351C384.529 688.857 358.773 699.471 344.114 689.698C322.406 675.224 380.096 671.111 386.497 669.612Z" fill="#fafafa"/>
<path d="M419.561 643.775C438.238 641.392 456.905 653.915 431.219 664.917C425.989 666.949 420.452 668.464 414.97 669.682C411.095 670.54 407.789 672.496 404.069 670.917L403.941 670.27C405.85 668.432 410.674 667.462 413.334 666.966C420.087 665.693 425.705 663.688 432.028 661.063C439.745 657.634 444.245 651.203 433.57 647.78C425.747 645.328 418.227 646.718 410.706 649.236C403.001 651.813 397.775 656.686 390.972 660.195L389.94 659.424C391.413 652.6 412.671 644.875 419.561 643.775Z" fill="#fafafa"/>
<path d="M397.728 683.952L398.08 684.108C398.362 684.615 398.831 685.057 398.352 685.585C383.235 702.231 358.983 713.783 336.404 706.705C327.712 703.983 322.153 698.808 325.273 689.773C327.403 686.933 328.332 686.334 331.132 684.399C329.265 688.792 325.396 693.655 328.967 698.226C335.526 706.619 351.971 705.778 360.969 704.253C375.595 701.778 386.172 692.302 397.728 683.952Z" fill="#fafafa"/>
<path d="M373.259 665.958C376.295 665.451 379.868 665.348 382.615 666.815C381.404 669.424 313.881 670.362 342.582 692.582L348.769 695.983C345.172 695.159 340.252 694.134 337.503 691.849C327.287 683.342 335.096 673.585 344.944 670.588C355.113 667.499 363.341 666.971 373.259 665.958Z" fill="#fafafa"/>
<path d="M331.075 691.784C335.267 692.684 335.369 697.315 346.329 699.067C357.321 700.819 373.371 693.256 378.064 694.005L376.96 694.851C368.667 699.051 360.531 702.075 351.093 702.075C344.144 702.08 330.947 701.299 331.075 691.784Z" fill="#fafafa"/>
<path d="M443.795 660.583C447.099 662.459 445.026 667.128 443.296 669.316C436.503 677.893 420.606 681.316 410.238 682.831C408.854 682.874 409.448 683.084 408.402 682.178L408.646 681.251C411.295 678.901 427.599 676.604 432.754 673.596C439.539 669.629 441.024 668.47 443.795 660.583Z" fill="#fafafa"/>
<path d="M378.388 661.155C391.398 658.61 411.243 675.246 403.325 688.081C402.912 687.919 401.949 687.682 401.983 687.553C402.752 684.545 400.407 675.747 398.589 673.397C393.575 666.917 386.636 663.845 379.351 662.341L378.705 662.217L378.388 661.155Z" fill="#fafafa"/>
<path d="M421.567 650.293C425.646 649.975 433.697 649.77 435.987 653.818L435.686 654.605L434.69 654.907C426.114 650.573 416.449 653.5 408.146 657.026C404.464 659.074 401.151 661.268 396.977 661.872L396.725 661.3C401.968 655.204 413.588 651.312 421.567 650.293Z" fill="#fafafa"/>
<path d="M446.406 657.979C448.949 658.136 453.014 660.508 453.375 663.063C454.872 673.672 443.614 678.06 436.057 680.221L434.492 680.216C435.006 679.251 440.323 676.663 441.737 675.72C450.66 669.801 452.718 667.3 446.406 657.979Z" fill="#fafafa"/>
<path d="M437.524 665.235L437.891 665.688C435.388 671.672 414.128 676.119 408.135 677.488C407.173 676.534 407.281 675.973 407.537 674.911C408.915 674.044 419.078 672.017 421.476 671.338C427.79 669.553 431.747 668.486 437.524 665.235Z" fill="#fafafa"/>
<path d="M391.932 673.235C393.389 672.95 393.638 673.214 394.621 674.001L394.501 675.02C390.868 678.497 381.727 682.599 376.816 684.119C376.281 684.259 375.379 684.297 374.793 684.345C376.465 682.173 389.081 674.917 391.932 673.235Z" fill="#fafafa"/>
<path d="M378.148 677.256C378.077 677.785 378.127 677.898 377.701 678.194C371.569 682.469 364.769 686.442 357.562 686.846L357.662 685.79C362.078 682.598 372.936 678.405 378.148 677.256Z" fill="#fafafa"/>
<path d="M418.606 660.551C419.843 660.46 420.68 660.503 421.908 660.535L422.086 660.95C419.236 662.125 408.804 664.195 404.841 665.246C403.699 665.543 402.965 665.624 401.809 665.791L401.485 665.047C405.48 662.179 413.828 661.117 418.606 660.551Z" fill="#fafafa"/>
<path d="M359.608 679.866L360.955 679.936C359.658 681.602 353.124 684.836 351.056 685.752C349.748 685.176 349.017 685.025 348.254 683.828L348.717 682.965C351.393 681.413 356.408 680.577 359.608 679.866Z" fill="#fafafa"/>
<path d="M421.479 656.217C425.196 655.915 427.165 655.392 430.444 657.187L430.564 657.953C428.8 658.68 427.785 658.152 425.8 657.667C421.942 657.581 417.18 657.915 413.259 658.087C416.52 657.085 418.1 656.761 421.479 656.217Z" fill="#d0d0d0"/>
<path d="M606.563 626.967C606.843 626.973 607.495 626.967 607.888 627.027C628.647 630.234 649.416 633.873 670.046 637.813C671.231 638.04 671.873 638.66 672.573 639.565C672.859 641.732 671.986 642.368 671.113 644.907C671.269 648.745 674.557 648.433 673.166 652.363C669.189 655.985 619.518 678.518 611.795 681.623C604.827 680.394 544.394 668.89 542.632 666.184C540.724 663.262 542.292 656.777 542.815 653.538C548.641 650.206 561.634 645.182 568.37 642.455C580.889 637.382 593.979 631.706 606.563 626.967Z" fill="#383838"/>
<path d="M606.514 631.221C610.351 631.091 623.732 633.63 628 634.374L667.238 641.231C655.323 646.924 643.133 652.427 631.077 657.813C624.32 660.826 617.863 664.168 610.982 667.004C603.943 665.004 593.661 663.252 586.251 661.726C574.411 659.295 562.162 656.637 550.252 654.885C556.191 651.899 564.781 648.643 571.081 646.045C582.926 641.182 594.739 636.239 606.514 631.221Z" fill="#d0d0d0"/>
<path d="M666.489 645.252C667.378 645.279 666.969 645.128 667.685 645.797C665.966 648.169 619.97 668.971 613.239 671.419C610.076 672.572 612.706 674.346 610.496 676.313C605.495 675.99 594.302 673.462 588.66 672.346C574.955 669.753 561.299 666.896 547.703 663.78L547.212 663.484C546.356 661.963 546.738 659.36 546.819 657.489C555.813 659.872 567.497 661.909 576.728 663.672L611.38 670.384C629.951 662.449 648.322 654.066 666.489 645.252Z" fill="#fafafa"/>
<path d="M550.307 662.082C559.641 661.899 588.273 668.524 599.062 670.788L598.803 672.001C584.964 669.219 563.289 665.834 550.307 662.082Z" fill="#383838"/>
<path d="M599.061 670.788C603.146 671.558 605.76 672.292 609.759 673.504C606.105 673.025 602.451 672.523 598.803 672L599.061 670.788Z" fill="#616161"/>
<path d="M666.829 648.902C668.252 649.22 667.777 648.816 668.473 649.888C667.325 651.899 619.588 673.656 614.566 676.022C613.472 676.356 614.027 676.372 612.911 675.92L612.776 674.621C614.641 671.737 621.086 670.389 624.282 668.896L666.829 648.902Z" fill="#fafafa"/>
<path d="M286.483 623.841C292.116 623.324 303.928 625.383 308.863 628.703C311.645 630.574 311.366 634.364 308.724 636.428C299.206 643.862 283.583 642.196 272.301 641.646C265.526 650.864 250.93 649.15 248.164 651.694C238.417 660.67 234.838 664.368 220.478 662.95C200.583 676.804 187.52 687.698 163.328 675.44C161.039 674.098 158.837 672.529 157.031 670.572C154.806 668.157 153.187 665.306 153.436 661.926C153.688 658.514 155.711 655.597 158.243 653.43C165.87 646.908 200.701 636.132 210.653 636.789C216.592 637.183 227.734 639.943 229.471 646.633C229.994 648.643 229.201 651.57 230.537 653.091C234.097 653.263 238.218 648.864 240.259 646.218C239.055 642.935 238.572 640.773 237.795 637.345C241.875 629.517 254.256 623.302 262.953 625.431C265.922 626.159 267.433 627.178 269.899 628.817C275.384 625.604 280.298 624.714 286.483 623.841Z" fill="#383838"/>
<path d="M205.373 640.552C213.041 640.088 231.791 642.487 224.672 654.459C222.9 655.667 223.831 655.484 221.808 655.139C220.152 653.85 220.087 653.462 219.078 651.538L220.227 649.829C220.61 638.261 183.81 651.053 178.546 653.193C169.781 656.767 153.919 660.492 170.813 669.009C179.569 672.712 181.599 670.842 190.405 671.753C191.458 671.866 192.29 672.594 192.788 673.634L192.395 674.496C180.338 683.79 138.284 664.438 167.25 652.427C177.186 648.309 194.894 642.255 205.373 640.552Z" fill="#d0d0d0"/>
<path d="M204.759 649.155C209.147 648.551 211.309 649.074 215.522 649.985C209.968 653.23 204.482 656.594 199.067 660.071C190.168 665.888 190.341 669.117 179.487 667.774C173.571 666.427 171.688 665.731 166.569 662.508C172.882 658.379 196.864 650.934 204.759 649.155Z" fill="#d0d0d0"/>
<path d="M285.056 627.652C292.561 626.477 299.468 628.913 306.661 630.902C293.595 635.355 287.29 633.274 275.013 636.449C281.283 636.827 294.672 636.255 300.658 634.843C304.117 633.474 305.771 632.924 309.377 632.029C298.377 640.401 286.5 638.654 272.919 638.39L272.231 631.641C275.489 632.633 276.689 633.237 279.826 632.115L280.039 631.361C278.474 629.997 276.634 630.035 274.484 629.727C278.083 628.876 281.409 628.288 285.056 627.652Z" fill="#fafafa"/>
<path d="M215.246 654.319C217.434 654.276 218.348 654.923 218.952 656.837C217.85 661.262 205.71 667.947 201.298 670.734C199.39 668.136 199.076 667.667 196.436 665.699C202.563 662.238 209.184 658.012 215.246 654.319Z" fill="#fafafa"/>
<path d="M248.704 641.323C250.069 645.975 241.782 653.781 238.079 655.931C233.338 658.686 230.915 659.263 225.623 659.829C226.098 656.503 233.565 656.594 236.882 654.621C242.932 651.031 243.422 645.36 248.704 641.323Z" fill="#fafafa"/>
<path d="M243.711 633.528C251.598 632.396 255.942 639.312 253.205 646.649L252.019 646.514C251.414 644.088 251.829 641.053 251.18 639.431C249.914 636.266 244.699 636.347 243.711 633.528Z" fill="#fafafa"/>
<path d="M254.824 628.666C262.597 627.814 265.788 636.978 263.743 643.485L262.609 643.743C260.888 642.018 262.674 637.878 261.639 635.479C260.145 632.013 256.981 631.415 254.824 628.666Z" fill="#fafafa"/>
<path d="M250.452 631.226C258.509 632.649 259.552 637.889 258.432 644.918L257.109 645.296C256.282 644.04 256.585 641.355 256.553 639.635C256.48 635.7 253.327 633.846 250.452 631.226Z" fill="#fafafa"/>
<path d="M264.176 628.865C269.282 631.285 269.853 635.571 268.937 640.756C268.645 640.805 268.879 640.8 268 640.595C267.202 635.587 266.49 633.328 264.176 628.865Z" fill="#fafafa"/>
<path d="M193.222 668.271C196.456 668.594 197.498 670.055 197.792 673.106L196.753 672.933C194.776 671.305 194.476 670.47 193.222 668.271Z" fill="#fafafa"/>
<path d="M322.541 635.69C328.092 635.07 336.093 634.962 339.309 640.563C341.572 644.503 340.169 648.147 339.069 652.207C340.446 654.277 341.485 656.082 341.515 658.648C341.529 660.551 340.772 662.379 339.418 663.71C337.903 665.182 333.589 667.424 331.637 668.303C311.786 677.235 291.719 685.672 271.951 694.766C269.799 695.757 265.012 695.499 262.558 695.423C257.666 694.059 256.419 692.755 252.135 690.178C250.238 689.041 247.623 689.224 245.349 687.661C244.071 685.084 245.723 681.165 246.599 678.421L245.581 676.497C242.26 670.33 245.011 666.799 251.156 664.616C275.19 656.066 298.659 644.304 322.541 635.69Z" fill="#383838"/>
<path d="M325.3 638.876C329.009 638.795 334.38 639.442 336.656 642.692C336.728 646.304 332.304 647.393 329.319 648.74C312.692 656.244 295.956 663.521 279.311 670.988C275.683 672.615 271.61 675.171 267.792 675.958C266.819 675.995 265.844 675.99 264.871 675.952C261.986 675.812 257.87 675.252 255.87 673.084C254.654 666.643 270.868 661.144 275.58 659.101C284.683 655.053 293.852 651.161 303.084 647.42C307.908 645.441 320.957 639.787 325.3 638.876Z" fill="#d0d0d0"/>
<path d="M264.034 666.863C264.402 666.858 264.77 666.858 265.138 666.869C268.425 666.95 271.467 668.103 271.015 671.92C269.32 673.995 270.189 673.321 267.581 674.378C264.425 674.227 260.323 673.957 260.451 669.985C261.39 668.19 262.207 667.952 264.034 666.863Z" fill="#383838"/>
<path d="M325.955 639.926C329.129 639.975 332.46 640.255 333.004 644.039C332.037 645.613 331.928 645.516 330.302 646.282C327.145 646.805 323.223 647.187 322.92 642.907C323.694 641.053 324.111 641.004 325.955 639.926Z" fill="#383838"/>
<path d="M278.759 675.397L278.146 675.278L278.185 674.874C287.697 670.184 327.786 651.452 335.848 650.26C335.781 650.33 305.616 663.672 302.276 665.187L301.593 666.61L302.226 667.041C304.351 666.481 306.594 665.268 308.284 665.349L308.763 665.176C312.297 663.915 319.175 660.055 322.095 660.847L322.443 661.834C320.255 666.06 289.183 677.65 283.365 680.928C282.673 681.316 280.885 681.364 280.038 681.359C279.96 678.426 279.953 678.092 278.759 675.397Z" fill="#616161"/>
<path d="M278.759 675.397L278.146 675.278L278.185 674.874C287.697 670.184 327.786 651.452 335.848 650.26C335.781 650.33 305.616 663.672 302.276 665.187L301.593 666.61L302.226 667.041C304.351 666.481 306.594 665.268 308.284 665.349C301.32 669.828 287.645 673.332 280.957 678.998C280.572 679.321 280.18 680.841 280.038 681.359C279.96 678.426 279.953 678.092 278.759 675.397Z" fill="#383838"/>
<path d="M278.759 675.397L278.146 675.278L278.185 674.874C287.697 670.184 327.786 651.452 335.848 650.26C335.781 650.33 305.616 663.672 302.276 665.187C298.815 666.782 280.908 675.208 278.759 675.397Z" fill="#a7a7a7"/>
<path d="M337.748 658.12C337.973 661.64 334.178 662.556 331.481 663.888C312.226 673.348 292.477 681.639 272.924 690.442C268.134 692.603 260.996 692.129 256.802 688.868C256.735 688.307 256.835 688.183 256.96 687.596C267.203 692.436 271.135 689.682 280.736 685.364C298.475 677.386 316.634 670.13 333.989 661.295C335.237 660.664 336.769 659.128 337.748 658.12Z" fill="#a7a7a7"/>
<path d="M275.191 682.68C276.052 682.523 275.604 682.529 276.549 682.998C274.534 688.475 263.956 687.51 259.274 686.459C258.077 685.504 257.173 684.54 257.384 683.046C263.927 682.496 265.711 684.13 275.191 682.68Z" fill="#fafafa"/>
<path d="M276.288 677.16L276.899 677.877C275.349 682.022 261.766 681.316 257.734 679.833C257.205 678.825 257.348 679.375 257.35 678.173C259.572 678.383 260.921 679.176 263.065 679.413C267.502 679.903 272.028 678.373 276.288 677.16Z" fill="#d0d0d0"/>
<path d="M253.746 666.75C254.089 669.348 250.832 670.658 248.887 672.178C249.715 674.383 251.478 672.238 252.967 675.423C250.725 675.111 250.426 675.186 248.676 673.898C247.056 670.324 251.136 668.373 253.746 666.75Z" fill="#d0d0d0"/>
<path d="M335.506 653.926L336.039 654.643C334.846 656.724 330.179 657.893 327.862 658.621C327.467 658.001 327.618 658.378 327.565 657.43C329.608 655.926 333.013 654.858 335.506 653.926Z" fill="#d0d0d0"/>
<path d="M690.373 700.889C698.937 699.951 743.38 707.228 725.575 722.91C721.167 726.796 714.392 726.333 708.966 725.4C691.219 735.998 669.803 745.96 650.823 756.768C646.7 758.86 642.583 760.488 637.814 760.024C632.478 759.555 621.835 757.442 618.397 752.957C610.038 742.068 632.247 735.184 639.328 732.483C640.228 732.138 643.262 732.51 644.324 732.64C654.692 727.308 669.728 721.271 678.938 714.905C680.932 713.53 672.191 704.673 690.373 700.889Z" fill="#383838"/>
<path d="M693.693 712.031C696.582 711.913 704.035 714.522 707.128 715.541C702.72 718.559 697.056 721.136 692.292 723.697C682.144 729.141 671.382 734.198 661.445 739.96L660.836 740.133C656.821 737.653 653.103 736.321 648.684 734.764C659.79 729.314 684.726 718.171 693.693 712.031Z" fill="#d0d0d0"/>
<path d="M640.175 735.75C646.292 737.259 652.069 739.319 657.819 741.895C652.123 745.087 646.254 747.83 640.331 750.574C634.004 748.682 627.699 746.72 621.41 744.693C627.527 741.459 633.891 738.656 640.175 735.75Z" fill="#d0d0d0"/>
<path d="M689.997 704.711C698.096 703.978 715.826 707.46 721.9 712.005L721.733 712.797C717.195 716.603 715.164 714.91 710.146 712.797C705.086 710.63 690.018 705.309 685.33 708.565L685.233 709.282L687.108 710.457L687.237 711.153C685.675 712.188 683.945 712.872 682.155 712.204C681.061 708.053 687.092 705.633 689.997 704.711Z" fill="#d0d0d0"/>
<path d="M724.686 715.331C725.247 715.983 725.215 716.533 725.382 717.368C724.81 718.856 724.406 719.303 723.021 720.144C718.71 722.743 713.089 722.365 708.471 721.093C693.726 729.594 677.699 738.408 662.184 745.351L661.65 744.462C662.297 743.249 663.386 742.64 664.555 741.982C674.881 736.149 685.858 731.217 696.372 725.691C699.633 723.983 707.048 719.147 710.082 718.204C710.572 718.053 712.076 718.328 712.636 718.355C717.918 718.64 720.321 718.403 724.686 715.331Z" fill="#d0d0d0"/>
<path d="M620.499 748.618C625.489 749.281 631.153 751.507 635.987 753.146C638.035 753.836 638.558 754.305 639.469 756.159C635.847 755.933 632.22 755.049 628.766 753.954C625.462 752.914 622.202 751.809 620.499 748.618Z" fill="#d0d0d0"/>
<path d="M659.65 745.566L659.532 746.418C656.282 750.585 645.704 755.34 640.492 756.267L640.314 755.383C641.381 753.129 656.46 747.027 659.65 745.566Z" fill="#d0d0d0"/>
<path d="M783.12 658.923C793.661 658.621 824.385 666.815 816.662 681.866C811.914 691.116 781.8 702.14 771.755 705.789C760.357 708.053 727.818 704.15 740.735 683.909C744.012 678.777 756.466 671.828 761.586 667.963C767.654 663.381 775.322 659.678 783.12 658.923Z" fill="#383838"/>
<path d="M778.895 663.198C780.582 662.998 782.274 662.896 783.972 662.88C790.708 662.82 812.388 666.993 813.488 677.407C813.73 679.671 812.049 682.469 810.276 684.038C808.293 684.577 809.241 684.647 807.339 683.774C804.849 680.685 805.275 681.208 807.576 678.216C808.045 674.27 803.723 672.944 800.829 671.51C779.984 661.198 768.553 673.256 751.702 685.806C740.988 694.598 754.186 695.838 761.338 697.115C765.703 697.892 772.843 694.668 774.584 699.218C769.982 705.649 745.057 701.956 742.239 693.725C739.668 686.205 752.575 678.593 757.199 675.434C764.42 670.502 770.973 665.715 778.895 663.198Z" fill="#d0d0d0"/>
<path d="M783.174 671.246C792.049 672.012 795.811 673.941 803.857 677.526C795.822 679.133 777.423 687.461 771.021 692.631C763.412 694.62 758.761 694.005 751.658 690.965C757.317 685.402 775.446 673.003 783.174 671.246Z" fill="#d0d0d0"/>
<path d="M800.268 682.416C802.994 682.637 803.673 684.087 803.156 686.582C800.214 690.221 789.188 694.167 784.014 697.218L783.292 697.649C782.009 694.404 781.902 693.784 779.342 691.24L800.268 682.416Z" fill="#d0d0d0"/>
<path d="M496.776 233.634C508.952 232.4 524.554 234.93 535.801 239.47C561.24 249.738 574.972 266.011 585.604 290.347C571.733 290.153 566.01 299.326 562.841 311.758C559.316 325.604 560.373 344.177 567.432 356.845C570.526 362.398 575.182 364.993 581.207 366.457C565.228 390.326 548.786 400.553 520.842 406.881C518.789 407.225 516.727 407.51 514.658 407.734C488.862 410.715 463.113 407.236 442.128 390.545C405.52 361.427 406.563 299.237 434.975 264.964C451.254 245.326 471.756 235.924 496.776 233.634Z" fill="#fafafa"/>
<path d="M477.865 298.347C492.317 297.76 523.266 298.281 534.088 308.263C543.171 316.573 546.658 328.896 547.38 340.85C549.552 376.849 521.983 382.162 492.696 383.593C476.195 384.326 448.367 383.384 435.832 372.092C419.862 357.707 414.044 311.195 440.221 303.103C452.071 299.44 465.522 298.821 477.865 298.347Z" fill="#383838"/>
<path d="M503.908 334.152C516.755 332.943 520.442 354.138 511.6 361.275C499.313 363.153 495.69 341.859 503.908 334.152Z" fill="#fafafa"/>
<path d="M449.39 334.077C460.872 334.421 464.596 354.424 455.912 361.724C444.557 361.351 440.739 340.592 449.39 334.077Z" fill="#fafafa"/>
<path d="M801.001 368.084C811.262 377.975 813.137 399.107 815.093 413.011C809.645 416.196 803.113 419.28 797.395 422.127C802.127 427.091 806.702 431.29 811.763 435.937C801.071 465.908 786.747 494.15 773.948 523.216C770.725 530.542 768.262 536.904 767.087 544.852C776.06 534.506 812.884 450.507 818.645 434.295C814.878 430.416 811.019 427.215 806.891 423.755C811.827 421.293 816.079 419.081 820.87 416.341C820.649 406.051 817.071 389.347 814.479 379.47C818.941 381.285 823.322 383.79 827.634 385.961C842.13 393.262 860.717 401.971 869.022 416.594C882.629 440.552 898.252 529.06 890.68 555.439C887.328 567.137 877.456 575.05 867.179 580.662C851.426 588.678 826.669 595.383 809.408 598.704C810.723 581.141 808.448 563.406 794.448 551.32C803.841 548.35 813.148 545.094 822.347 541.558C831.217 538.125 840.039 534.042 849.389 532.193C852.871 531.505 863.541 533.942 865.46 532.11C864.446 524.959 846.226 526.676 841.543 527.491C837.517 504.018 834.257 479.764 836.439 455.933C837.312 446.359 840.691 436.945 843.24 427.737C843.122 427.458 842.998 427.18 842.879 426.901C841.532 427.155 840.519 428.273 839.84 429.404C824.368 455.249 831.104 501.941 835.205 529.588C816.079 536.738 795.105 543.111 776.847 551.515C771.743 550.593 766.651 549.617 761.574 548.582C764.328 531.77 768.634 512.226 772.277 495.569C776.761 474.847 781.455 454.172 786.359 433.548C791.37 412.792 798.123 388.776 801.001 368.084Z" fill="#fafafa"/>
<path d="M250.97 160.099C254.372 159.94 257.873 161.313 259.586 164.479C271.241 186.119 266.018 215.186 260.79 238.121C259.643 243.15 252.816 258.132 255.325 261.329C261.093 261.383 262.841 254.002 264.286 249.716C280.779 248.018 292.666 249.027 308.301 255.421C330.418 264.454 348.032 281.92 357.255 303.964C369.115 332.435 367.787 373.875 356.184 402.212C356.473 387.787 356.053 375.939 352.956 361.805C364.082 344.331 363.799 323.644 352.159 306.404C343.152 293.278 329.31 284.259 313.666 281.323C294.872 277.854 275.085 284.961 259.84 295.664C233.855 313.906 214.439 344.235 208.695 375.376C208.629 375.761 208.567 376.147 208.509 376.534C204.092 404.932 209.724 423.192 229.822 444.112C241.124 455.875 261.219 472.014 258.109 489.913C257.023 496.157 256.061 502.508 255.05 508.754C246.53 501.469 234.979 490.127 227.025 482.065C227.067 474.316 224.994 467.628 222.62 460.403C229.886 464.865 237.496 471.071 245.362 474.194C240.127 466.539 227.897 458.874 220.571 452.696C215.438 448.368 210.28 443.746 204.87 439.772C197.025 433.996 188.147 429.097 181.695 421.682C144.906 379.397 175.269 304.103 212.323 272.09C213.745 274.061 214.525 275.36 216.924 275.846C218.997 274.245 217.375 266.364 217.014 263.56C213 232.301 220.118 176.101 250.97 160.099Z" fill="#fafafa"/>
<path d="M239.399 266.259C237.646 267.347 235.042 269.326 233.158 267.761C230.449 265.344 229.853 260.069 229.56 256.524C227.899 236.367 231.268 212.027 243.131 195.206C245.194 192.28 248.816 190.755 251.376 193.935C254.666 198.022 254.676 205.433 254.425 210.486C254.161 221.612 248.141 260.341 239.399 266.259Z" fill="#d0d0d0"/>
<path d="M239.399 266.258C239.04 263.166 245.045 244.804 246.214 240.139C247.565 234.752 251.595 213.028 254.425 210.485C254.16 221.611 248.141 260.341 239.399 266.258Z" fill="#383838"/>
<path d="M768.796 228.79C770.838 228.501 777.246 229.148 777.391 231.877C777.795 239.273 775.936 245.546 776.664 253.205C777.704 264.161 783.4 271.25 787.393 281.093C789.533 286.429 788.202 291.823 790.783 295.791C795.849 298.841 799.373 293.211 801.766 289.396C804.493 285.05 811.633 281.447 815.939 285.405C824.831 293.578 821.398 309.661 814.29 317.9C808.594 324.6 804.353 325.679 795.908 326.223C793.79 335.398 791.365 340.898 787.63 349.34C788.277 353.004 788.622 359.835 789.08 363.914C782.031 377.675 766.926 387.359 753.631 394.184C747.315 390.48 745.509 389.173 741.495 382.978C748.63 381.632 752.601 381.064 759.316 378.088C762.895 376.084 771.56 370.89 771.878 366.523C771.517 366.344 771.199 366.032 770.8 365.988C769.615 365.856 752.364 373.978 748.996 374.956C737.167 378.393 726.664 377.252 715.923 371.226C703.485 364.246 695.251 351.218 691.613 337.689C687.135 321.049 684.855 268.606 687.701 251.941C689.059 244.012 692.05 236.484 696.043 229.524C710.152 234.624 728.615 235.546 743.359 233.107C751.286 231.796 760.011 229.59 767.89 228.869L768.796 228.79Z" fill="#fafafa"/>
<path d="M717.437 289.029C728.609 291.484 714.824 311.405 714.576 317.796C716.855 322.72 722.455 320.435 725.591 323.48C726.049 325.344 726.049 324.394 725.246 326.402C711.014 328.453 705.7 321.906 711.558 308.591C714.738 301.368 716.397 296.878 717.437 289.029Z" fill="#383838"/>
<path d="M748.63 283.558C759.64 283.16 759.074 296.829 752.44 302.781C752.23 302.804 752.02 302.82 751.81 302.829C742.433 303.27 742.438 289.292 748.63 283.558Z" fill="#383838"/>
<path d="M749.158 333.55C750.592 333.442 750.5 333.487 751.853 334.039C754.337 339.135 742.147 343.166 738.633 344.165C732.026 346.042 726.206 345.753 719.583 344.342C717.481 343.64 716.091 343.095 715.331 340.872C716.22 339.016 718.57 338.938 720.343 339.243C732.21 341.29 738.822 339.705 749.158 333.55Z" fill="#383838"/>
<path d="M702.208 283.457C712.388 284.037 711.461 297.206 705.312 303.04C694.874 303.016 695.871 288.783 702.208 283.457Z" fill="#383838"/>
<path d="M744.739 256.16C747.735 256.049 750.247 255.988 753.205 256.591C757.894 257.547 767.831 261.557 766.198 267.53C764.576 268.494 765.465 268.234 763.369 268.052C760.028 266.042 758.125 264.91 754.337 263.824C749.842 262.536 743.252 264.392 740.007 261.191C739.533 258.064 742.141 256.94 744.739 256.16Z" fill="#383838"/>
<path d="M708.556 261.331C710.777 262.093 711.919 262.988 711.407 265.361C707.98 270.06 698.716 272.337 693.214 273.209C691.354 272.128 690.81 271.722 690.805 269.622C692.308 267.535 704.326 263.532 708.556 261.331Z" fill="#383838"/>
<path d="M751.885 326.543C757.748 326.307 763.067 331.284 761.413 337.405C760.685 337.322 760.373 337.151 759.667 336.908C757.511 333.76 754.752 330.965 751.971 328.253C751.944 327.683 751.912 327.113 751.885 326.543Z" fill="#383838"/>
<path d="M166.846 443.756C178.158 444.875 183.876 448.144 192.049 455.9C187.989 454.574 181.992 452.732 177.78 454.009C177.999 454.863 178.472 455.201 179.365 455.51C186.039 457.814 191.914 460.427 197.616 464.785C221.218 482.823 239.957 507.034 264.071 524.468C274.636 532.106 287.045 538.189 298.288 544.804C308.782 550.89 319.087 554.41 327.993 563.267C312.912 569.633 307.044 585.999 309.032 601.421C288.039 600.613 262.112 587.001 243.575 577.39C229.314 569.353 215.611 560.361 202.56 550.48C192.523 542.809 183.09 534.482 173.589 526.18C170.038 523.077 163.797 516.005 159.726 514.403C158.106 514.837 158.661 514.376 157.871 515.654C158.264 519.646 166.313 527.154 169.536 530.361C162.16 537.934 152.887 543.009 145.056 550.011C139.712 554.782 132.506 556.663 125.834 558.836C118.466 561.234 110.958 562.819 103.319 564.027C104.694 559.693 106.149 555.385 107.682 551.105C116.516 525.827 141.655 455.899 166.846 443.756Z" fill="#fafafa"/>
<path d="M39.1442 677.289C52.8934 679.046 68.8298 682.664 82.7223 685.229L158.485 698.717L480.234 754.019L584.463 771.9C602.203 774.989 625.129 779.759 642.568 781.878C642.713 789.964 642.821 798.05 642.886 806.141C630.237 803.327 610.535 800.583 597.122 798.19L485.014 778.53L171.538 723.276L88.9073 708.614C73.4773 705.865 53.7479 702.679 38.7145 699.029C38.6489 694.819 38.2421 680.685 39.1442 677.289Z" fill="#d0d0d0"/>
<path d="M331.212 316.945C338.526 323.656 344.689 342.758 343.984 352.452C342.492 372.976 337.247 400.675 327.553 418.931C324.764 424.256 321.142 429.102 316.825 433.285C291.556 457.99 260.883 449.596 238.3 426.152C227.777 413.769 224.727 404.744 219.323 389.98L213.307 388.821C214.399 382.197 215.001 376.528 216.397 369.796C231.084 366.354 240.198 357.799 246.932 344.514C264.062 344.402 272.739 341.361 287.504 334.272C285.753 337.17 283.681 339.454 286.668 342.238C293.094 344.43 305.13 338.624 310.777 335.625C318.904 331.31 325.58 324.106 331.212 316.945Z" fill="#fafafa"/>
<path d="M272.951 408.07C281.738 408.081 291.684 412.171 300.266 414.022C312.919 416.752 305.299 424.112 299.718 430.028C279.194 446.609 262.167 418.026 272.951 408.07Z" fill="#383838"/>
<path d="M273.905 413.299C281.138 414.732 288.987 418.086 292.601 425.171C293.456 426.846 293.803 428.078 293.159 429.858C279.619 433.651 274.997 425.148 273.905 413.299Z" fill="#a7a7a7"/>
<path d="M274.534 365.475C285.618 364.242 284.084 379.512 276.713 385.27C265.369 385.046 268.45 371.351 274.534 365.475Z" fill="#383838"/>
<path d="M324.536 372.285C334.391 374.28 331.599 387.109 324.252 391.568C314.613 390.021 317.12 376.911 324.536 372.285Z" fill="#383838"/>
<path d="M274.16 341.827C278.397 341.381 291.342 342.411 289.992 348.666C287.042 350.323 284.073 347.869 279.749 347.133L279.129 347.033C272.926 347.232 268.2 351.011 263.758 349.832L263.372 348.977C265.487 344.828 270.025 343.138 274.16 341.827Z" fill="#383838"/>
<path d="M305.855 385.097C311.385 386.783 315.859 397.53 311.803 402.5C309.119 405.788 307.563 405.959 303.786 406.852C302.196 406.284 300.488 405.711 300.228 403.88C301.703 401.874 305.379 401.171 308.33 398.989C310.069 393.765 303.132 391.562 305.855 385.097Z" fill="#383838"/>
<path d="M326.486 349.412C328.008 349.31 331.228 349.094 332.625 349.48C335.876 350.378 342.934 353.961 341.817 358.15C340.619 359.151 340.714 359.119 339.231 359.585C336.577 356.865 335.242 356.08 332.001 354.397C328.712 354.586 326.444 355.053 323.511 353.595L323.161 352.51C323.933 350.73 324.738 350.497 326.486 349.412Z" fill="#383838"/>
<path d="M727.709 385.288C728.221 386.852 726.857 397.113 726.674 399.385C722.616 449.924 729.455 502.079 732.624 552.593C726.076 555.014 703.533 562.641 701.383 567.245C691.753 587.902 721.603 580.775 727.499 579.304C726.108 589.805 730.01 589.179 730.312 599.492C730.662 611.556 730.813 623.674 731.142 635.744C719.517 633.506 705.021 631.544 693.203 629.922C693.052 611.895 694.722 591.368 695.105 573.002C695.762 536.702 695.816 500.391 695.272 464.088C695.218 458.465 696.086 441.621 694.334 437.627L693.628 437.564C688.288 445.026 689.263 528.984 689.209 544.615C685.157 549.17 681.422 552.685 675.64 555.03C669.372 557.633 662.318 557.596 656.083 554.922C645.504 550.426 640.977 540.642 636.989 530.625C631.729 516.888 627.747 498.208 624.745 483.77C641.187 493.5 656.826 487.723 667.179 472.666C671.371 484.951 676.27 501.276 681.551 513.501C681.999 514.541 682.769 514.485 683.551 514.591C687.258 510.944 681.163 501.105 682.187 498.138L684.92 498.461L685.545 497.873C685.313 493.617 680.646 492.022 679.342 488.8C676.68 482.2 674.104 474.08 672.212 467.25C678.695 449.565 684.084 421.51 696.878 407.095C699.379 404.281 711.046 396.726 714.985 394.037C710.496 401.349 707.78 407.388 705.209 415.449C707.667 417.849 710.167 420.198 712.716 422.498C708.389 426.185 705.059 428.801 701.313 433.134C702.019 445.445 721.873 534.187 728.824 538.217L729.471 537.626C730.323 532.052 721.296 502.164 719.41 494.975C717.351 487.073 715.443 479.13 713.697 471.152C710.895 458.436 709.138 447.198 706.842 434.472C711.229 430.886 715.934 426.498 720.197 422.673C717.669 419.304 714.198 416.497 711.019 413.698C715.74 403.072 719.814 394.002 727.709 385.288Z" fill="#fafafa"/>
<path d="M548.263 412.097C552.596 412.815 562.765 415.923 567.335 417.202C545.72 431.006 538.946 468.323 559.273 485.283C559.403 492.588 560.092 500.368 561.881 507.437C552.133 512.629 542.815 520.927 535.017 528.726C510.558 522.068 489.947 517.687 465.224 527.445L464.498 527.569C458.374 525.573 456.393 512.781 455.215 507.033C449.583 479.551 445.769 430.578 473.929 414.518C472.994 425.825 476.7 433.015 487.738 436.828C508.178 443.89 540.891 433.854 548.263 412.097Z" fill="#fafafa"/>
<path d="M186.235 554.232L191.105 550C203.38 559.563 220.1 572.269 233.701 579.702L230.356 592.031C228.32 597.799 225.243 610.434 223.408 616.86L112.908 646.821C105.129 642.552 92.4734 636.509 87.4039 629.695C86.3245 616.466 91.7545 601.227 95.5964 588.489C118.215 587.179 138.499 582.403 158.075 570.425C159.939 569.288 163.045 569.573 164.793 568.684C172.493 564.781 179.652 559.789 186.235 554.232Z" fill="#fafafa"/>
<path d="M186.235 554.232L191.105 550C203.38 559.563 220.1 572.269 233.701 579.702L230.356 592.031C224.963 588.031 220.039 584.823 214.648 580.516C204.159 572.139 195.675 563.676 186.235 554.232Z" fill="#d0d0d0"/>
<path d="M93.6787 717.217C101.74 717.956 110.059 719.88 118.035 721.325C134.415 724.295 150.777 727.476 167.253 729.864C156.975 767.927 146.506 805.44 131.205 841.881C128.126 849.174 121.686 868.613 115.323 872.834C109.227 876.877 100.519 874.893 93.8754 873.497C94.8681 844.824 94.2521 815.99 94.348 787.301C94.3831 776.832 95.2367 766.423 95.3612 755.965C95.518 742.85 94.7226 730.252 93.6787 717.217Z" fill="#fafafa"/>
<path d="M178.184 732.074C199.777 736.138 221.409 739.998 243.077 743.653C241.926 754.757 241.603 766.051 240.855 777.199C239.011 804.685 237.049 833.579 232.617 860.759C232.375 862.338 231.962 863.928 230.96 865.217C228.113 868.888 221.689 869.826 217.343 870.311C208.725 871.27 191.57 871.858 184.522 865.723C182.147 863.659 182.005 860.791 181.659 857.842C179.596 840.269 180.62 821.666 180.461 803.952C180.045 779.986 179.285 756.019 178.184 732.074Z" fill="#fafafa"/>
<path d="M844.852 730.958L845.369 731.432C845.833 734.354 845.353 737.578 845.186 740.526C844.695 749.367 843.235 760.267 844.205 768.924C845.563 780.961 854.805 789.872 856.465 799.678C857.958 808.524 857.133 818.647 857.166 827.671L857.23 882.882C853.647 883.793 849.233 884.866 845.595 883.912C839.991 882.435 828.243 861.169 824.454 855.207C813.767 838.452 791.295 805.51 786.051 787.549C783.254 777.98 782.651 767.442 781.481 757.555C802.65 748.796 823.775 739.928 844.852 730.958Z" fill="#d0d0d0"/>
<path d="M758.26 767.054C758.821 767.188 758.875 767.442 759.23 767.884C759.726 774.261 759.15 780.929 759.02 787.333L758.611 819.138C758.331 841.859 759.171 864.791 758.25 887.475C758.137 890.267 757.943 893.016 756.951 895.652C755.367 897.27 753.771 898.364 751.643 899.151C739.118 903.787 721.27 900.143 709.613 894.591C708.676 893.14 708.487 891.302 708.304 889.626C706.708 874.872 706.444 859.767 705.55 844.948C704.45 826.868 702.834 808.756 702.16 790.659C721.022 783.306 739.722 775.204 758.26 767.054Z" fill="#d0d0d0"/>
<path d="M908.724 674.362L909.306 674.594C911.019 677.914 910.098 690.792 909.861 695.272C901.502 699.531 890.568 703.843 881.838 707.482L838.838 725.373L714.162 777.544C693.538 786.174 668.036 795.867 648.248 805.235L647.741 804.799C647.148 802.804 647.084 785.689 646.879 781.5C671.232 770.552 699.983 759.636 724.924 749.335L908.724 674.362Z" fill="#d0d0d0"/>
<path d="M130.902 425.475C146.42 424.924 150.905 434.307 150.111 448.029C145.008 455.649 139.27 462.671 134.743 470.843C119.633 498.112 105.037 533.761 96.1611 563.746C87.3672 564.657 85.7483 575.158 85.3667 582.587C85.2331 585.185 86.679 586.613 88.4908 588.311C87.0557 592.942 85.6577 597.583 84.2975 602.235C82.8543 601.75 81.4203 601.233 79.996 600.688C67.6469 595.95 56.5104 589.196 50.9814 576.786C46.7711 560.884 55.2272 538.172 62.3311 523.673C64.6656 525.721 67.1333 527.614 69.7184 529.336C76.1077 533.505 86.652 539.737 94.5772 538.82C101.022 538.092 114.27 514.562 111.745 510.448C108.406 505.006 85.7046 493.758 79.7201 490.33C89.6166 468.23 104.549 431.18 130.902 425.475Z" fill="#d0d0d0"/>
<path d="M755.717 188.897C777.041 188.872 791.921 195.404 801.837 214.676C830.275 227.024 824.255 254.517 818.139 279.124C805.701 277.732 803.48 278.613 795.192 287.957C794.179 284.021 792.756 278.609 791.166 275.021C787.259 266.22 782.786 261.107 782.371 251.109C782.086 244.112 783.039 238.288 783.6 231.349C778.647 215.555 751.653 225.951 740.428 227.49C727.505 229.26 716.694 228.165 705.399 221.093C702.704 219.405 700.058 216.669 697.31 214.7L696.744 215.035C696.313 218.572 703.319 224.157 705.927 226.479C696.302 224.243 683.158 219.515 683.061 207.676C683.029 203.947 683.099 201.07 685.707 198.184C690.169 195.848 702.192 198.672 707.867 197.654C724.8 194.617 738.192 189.631 755.717 188.897Z" fill="#616161"/>
<path d="M625.268 810.551C632.366 811.122 639.479 812.718 646.604 813.451C646.065 836.706 646.475 860.064 646.48 883.33L646.307 1007.25L646.227 1054.9C646.216 1061.56 646.981 1069.46 645.936 1076.02C645.731 1077.3 644.734 1078.27 643.882 1079.17C641.791 1080.14 639.603 1080.78 637.297 1080.96C634.198 1081.2 629.774 1081.26 627.397 1078.98C625.818 1077.47 625.899 1074.73 625.775 1072.69C624.379 1049.64 625.619 1026.05 625.576 1002.92L625.414 865.093C625.339 846.911 625.754 828.728 625.268 810.551Z" fill="#d0d0d0"/>
<path d="M66.9229 711.805C73.3272 713.212 79.9542 714.344 86.4195 715.519C86.8581 770.617 86.8603 825.725 86.4259 880.823L86.4852 940.756C86.4906 946.524 87.2596 972.566 85.3357 975.698C81.3198 978.366 73.6517 979.752 69.3205 976.706C67.5275 975.444 67.4769 973.315 67.3847 971.251C66.9369 961.159 67.1697 950.993 67.174 940.885L67.1724 886.343L66.9229 711.805Z" fill="#d0d0d0"/>
<path d="M882.683 714.824L883.007 715.109C884.117 718.624 883.141 758.294 883.13 765.474L883.098 921.301C883.109 929.123 884.284 971.881 882.511 976.404C882.047 977.59 880.409 978.738 879.283 979.245C875.424 980.97 870.531 980.247 866.667 978.932C866.473 978.749 866.273 978.565 866.085 978.377C865.179 977.46 864.748 976.619 864.657 975.342C863.988 966.253 864.484 956.787 864.49 947.656L864.452 896.272L864.382 722.198C870.563 719.966 876.615 717.336 882.683 714.824Z" fill="#d0d0d0"/>
<path d="M862.738 590.192C863.153 593.529 863.406 597.243 863.708 600.618C865.702 618.978 867.712 638.368 868.38 656.858L802.202 646.756C790.088 644.843 774.432 641.829 762.55 640.552C762.135 633.706 761.93 626.849 761.941 619.986C761.612 617.976 761.65 614.24 761.606 612.078C768.09 611.582 771.442 608.429 774.713 603.259C779.956 603.222 783.405 602.602 788.406 601.2C790.039 602.154 795.132 604.796 796.652 605.292C810.372 609.787 850.472 595.696 862.738 590.192Z" fill="#fafafa"/>
<path d="M862.738 590.192C863.153 593.529 863.406 597.243 863.708 600.618C860.221 600.467 852.822 603.022 849.023 604.17C834.526 608.553 817.696 613.933 802.52 613.89C796.409 613.873 788.369 610.677 782.123 611.065C773.964 611.577 771.07 615.803 762.959 613.809C761.871 614.903 762.065 618.078 761.941 619.986C761.612 617.976 761.65 614.24 761.606 612.078C768.09 611.582 771.442 608.429 774.713 603.259C779.956 603.222 783.405 602.602 788.406 601.2C790.039 602.154 795.132 604.796 796.652 605.292C810.372 609.787 850.472 595.696 862.738 590.192Z" fill="#d0d0d0"/>
<path d="M527.949 793.322C529.429 794.244 530.426 795.705 531.548 797.015C535.118 801.176 538.776 803.699 544.152 804.896C552.23 806.637 560.669 805.106 567.627 800.643C573.663 802.033 579.833 803.036 585.923 804.19C587.653 822.027 590.913 857.029 584.403 873.723C583.487 874.882 582.544 875.917 581.369 876.818C574.6 882.003 563.709 882.559 555.598 881.588C550.84 881.017 545.585 879.497 542.627 875.443C535.615 865.826 526.171 805.758 527.949 793.322Z" fill="#fafafa"/>
<path d="M298.413 286.988C334.724 281.689 368.667 321.701 349.78 355.488C348.985 336.57 346.276 326.2 335.164 311.11C333.828 309.294 334.815 307.292 333.402 305.002C332.999 304.892 332.595 304.781 332.191 304.67C329.608 307.191 324.732 315.805 322.601 318.141C312.933 328.741 305.691 332.361 292.578 336.071C295.55 332.362 304.556 319.782 302.995 315.044C288.352 329.538 275.929 335.49 254.876 337.817C250.29 338.324 238.658 336.988 235.486 339.389L235.44 340.411C236.807 342.185 238.404 342.504 240.55 343.329C235.058 354.436 228.836 358.942 217.871 363.64C227.398 328.263 261.038 291.391 298.413 286.988Z" fill="#616161"/>
<path d="M447.351 780.266C448.674 781.177 449.701 782.784 450.734 784.04C454.542 788.659 458.856 791.495 464.739 792.789C473.905 794.805 482.215 792.077 489.91 787.15C494.243 788.023 498.537 788.783 502.921 789.365C502.852 811.79 502.812 835.067 498.166 857.083C497.581 858.932 496.981 860.684 495.699 862.182C492.215 866.257 484.905 867.292 479.825 867.54C472.664 867.896 462.222 866.92 456.789 861.648C446.732 851.891 447.266 794.956 447.351 780.266Z" fill="#fafafa"/>
<path d="M315.251 250.951C322.948 230.865 333.756 210.312 350.264 195.655C355.339 191.148 363.483 183.808 370.776 186.337C376.651 188.374 376.263 196.469 376.296 201.609C376.385 215.781 372.072 229.453 365.965 242.118C360.62 253.333 353.507 263.615 344.898 272.571L340.364 267.857C337.346 265.021 335.299 263.232 332.012 260.728C335.145 250.565 342.656 236.172 348.447 227.049C351.439 222.335 355.518 217.26 358.198 212.458L358.429 212.035C347.231 216.793 332.972 245.72 328.375 257.219L328.098 257.921C323.359 254.936 320.509 253.195 315.251 250.951Z" fill="#fafafa"/>
<path d="M358.428 212.035C370.649 220.09 356.447 241.169 351.717 250.663C348.757 256.603 344.289 262.512 340.363 267.857C337.345 265.021 335.299 263.232 332.011 260.728C335.144 250.565 342.655 236.172 348.446 227.049C351.438 222.335 355.517 217.26 358.197 212.458L358.428 212.035Z" fill="#d0d0d0"/>
<path d="M583.697 436.161C614.781 432.68 611.3 495.615 608.051 515.179C604.957 509.342 603.184 506.74 598.075 502.661C587.249 495.504 577.656 496.142 566.549 501.98C564.792 480.693 559.366 446.215 583.697 436.161Z" fill="#fafafa"/>
<path d="M569.341 511.66C574.525 511.209 577.511 511.069 582.496 512.955C588.488 515.178 593.344 519.716 595.963 525.55C600.544 535.826 596.011 543.44 588.391 550.21C578.939 558.614 567.934 565.175 556.294 570.053L551.223 571.821C551.832 556.609 545.381 545.359 529.299 543.666C539.512 532.946 555.313 516.301 569.341 511.66Z" fill="#fafafa"/>
<path d="M750.785 554.237C760.152 553.369 772.191 557.062 781.589 559.353C791.635 569.708 799.918 593.211 779.531 596.796C770.364 598.408 768.284 589.723 761.008 600.925L761.79 600.931C764.457 600.947 765.659 600.553 767.389 602.311L767.055 603.346C764.382 605.248 759.214 606.413 756.309 604.488C750.069 600.348 759.462 591.017 758.443 586.861L757.338 586.699C749.427 589.648 751.022 598.693 747.746 601.621L746.668 601.453C744.168 599.211 743.532 597.47 743.03 594.192C743.063 594.063 743.095 593.939 743.122 593.815L743.289 593.184C744.917 586.839 750.801 580.888 750.489 576.888L749.605 576.737C742.718 580.597 740.368 587.184 737.927 594.149C724.136 579.12 742.696 574.791 743.952 566.732C740.643 565.396 704.019 584.198 706.654 571.832C712.027 565.131 742.06 556.275 750.785 554.237Z" fill="#fafafa"/>
<path d="M317.513 756.822C323.387 758.008 329.29 759.049 335.216 759.943L335.24 842.07C335.251 853.05 336.241 870.812 335.005 881.135C334.832 882.58 334.174 883.4 333.176 884.408C331.877 884.968 330.575 885.518 329.188 885.809C324.641 886.779 321.187 885.744 317.36 883.373C316.928 841.213 317.298 798.982 317.513 756.822Z" fill="#d0d0d0"/>
<path d="M749.001 430.104C751.486 430.055 754.143 429.691 755.964 431.364C760.092 443.289 761.569 505.113 761.321 520.297C761.272 523.196 756.692 543.989 755.813 548.081C752.37 548.124 750.456 548.275 747.045 548.717C744.291 549.499 741.176 550.189 738.369 550.873C735.486 515.317 740.179 464.893 749.001 430.104Z" fill="#616161"/>
<path d="M361.754 575.401C365.543 574.97 371.072 574.749 375.976 575.147C390.059 576.296 406.04 590.085 408.388 604.127C408.552 605.114 407.509 605.734 406.762 606.305C401.175 606.354 398.733 595.788 395.208 592.3C392.62 589.734 384.395 581.762 380.787 582.554L380.116 583.735C381.547 586.29 384.283 588.247 386.984 591.066C391.865 596.16 400.677 606.1 399.615 613.814C399.452 614.99 397.603 615.771 396.562 616.246C393.807 615.351 389.594 605.75 387.328 602.801C384.871 599.599 377.165 590.802 372.658 591.228L372.198 591.95C372.516 594.365 372.219 593.476 373.988 595.497C374.951 596.354 375.898 597.227 376.827 598.122C380.997 602.138 393.356 615.318 387.477 620.984C381.707 621.987 370.726 597.616 364.336 601.707C363.749 605.804 379.767 616.24 376.901 623.189L375.739 623.442C370.012 622.024 364.497 614.925 359.521 611.69C358.263 610.871 354.694 610.844 353.083 610.974C342.74 611.814 338.598 609.507 330.815 603.195C331.433 592.004 334.925 583.023 344.298 576.398C350.012 576.226 356.021 575.762 361.754 575.401Z" fill="#fafafa"/>
<path d="M708.082 901.178C711.542 901.242 715.972 903.587 719.324 904.639C730.571 908.169 744.804 907.539 756.002 904.153C756.854 909.544 758.341 918.757 755.458 923.684C753.216 927.506 727.122 932.88 721.706 934.131C709.322 936.966 694.055 938.384 681.439 936.179C678.906 935.737 675.839 934.783 674.411 932.454C673.463 930.907 673.517 929.107 674.061 927.43C677.176 917.797 699.363 905.868 708.082 901.178Z" fill="#616161"/>
<path d="M423.692 524.738C436.577 524.45 448.153 531.725 445.952 546.076C443.761 560.361 439.466 574.096 433.224 587.131C430.564 584.215 429.872 583.676 426.621 581.536C425.446 580.969 424.253 580.447 423.044 579.956C414.852 576.668 408.665 577.972 400.936 581.244C400.358 570.145 403.946 546.577 408.328 535.854C409.053 534.081 414.679 528.231 416.666 525.518C418.919 525.187 421.409 524.979 423.692 524.738Z" fill="#fafafa"/>
<path d="M305.107 481.76C308.582 485.695 319.481 514.042 322.566 521.095C319.776 522.905 309.204 529.467 311.064 533.436C313.755 533.585 319.427 529.478 322.181 527.951C328.78 524.293 335.365 521.616 342.378 518.905C342.051 520.395 341.845 521.882 341.662 523.395C340.689 530.939 342.8 538.558 347.518 544.523C352.653 550.987 358.155 553.288 366.07 554.135L366.075 554.582C363.437 558.512 351.866 565.196 347.261 567.843C344.853 566.221 337.009 562.539 335.659 561.099C323.24 547.86 307.212 542.529 291.559 533.218C301.134 515.289 303.687 501.847 305.107 481.76Z" fill="#fafafa"/>
<path d="M232.937 880.839C241.212 883.248 257.929 893.927 262.792 900.682C264.178 902.606 265.138 904.816 264.659 907.226C264.32 908.929 263.229 910.277 261.813 911.237C252.146 917.781 225.39 913.479 213.985 911.409C206.944 910.444 190.426 909.479 185.784 903.943C181.81 899.205 183.869 889.938 184.568 884.267C187.718 886.138 190.976 887.502 194.541 888.37C208.14 891.69 221.31 887.971 232.937 880.839Z" fill="#616161"/>
<path d="M541.409 888.763C545.176 890.919 549.207 892.574 553.394 893.685C564.889 896.731 575.323 895.55 585.551 889.518C586.747 895.453 587.734 902.299 585.524 908.121C582.49 916.099 574.525 920.029 567.174 923.155C557.641 926.535 546.992 928.077 536.924 926.794C532.001 926.169 525.428 924.907 522.363 920.6C520.658 918.207 520.437 915.28 521.096 912.482C523.401 902.676 533.393 894.019 541.409 888.763Z" fill="#fafafa"/>
<path d="M644.189 395.287C647.283 395.063 651.961 394.545 653.922 397.467C653.168 401.625 646.097 403.188 642.449 404.582C638.66 406.031 624.805 414.189 624.46 417.805C626.05 418.803 636.499 414.644 639.409 413.822C643.139 412.771 653.459 413.214 651.303 419.598C646.916 419.633 629.612 423.098 629.725 427.96C634.963 431.277 654.353 414.939 656.089 431.705C654.245 433.402 643.43 429.951 635.082 437.955L635.249 438.678C639.027 439.512 645.564 436.769 650.457 436.194L651.238 436.106C660.459 438.504 658.621 450.134 650.457 449.486L649.94 448.792C651.082 447.377 651.055 447.298 651.788 445.585L651.378 444.645C648.819 444.195 643.289 446.739 644.718 449.819C647.676 456.19 651.475 453.159 655.436 454.181C656.191 456.057 655.824 458.66 655.544 460.641C653.852 472.385 643.149 473.451 633.363 471.302C627.295 449.637 606.369 427.852 622.795 406.669C628.588 399.193 635.163 396.637 644.189 395.287Z" fill="#fafafa"/>
<path d="M451.348 872.122C452.966 872.144 463.653 879.992 468.225 881.302C478.125 884.143 488.934 881.577 497.699 876.639C498.286 882.235 499.3 888.413 496.209 893.507C492.114 900.245 481.752 902.029 474.652 903.84C462.191 906.881 446.73 909.317 434.178 906.212C430.697 905.35 426.534 903.738 424.748 900.417C423.72 898.504 423.687 896.358 424.36 894.321C427.771 884.008 442.275 876.639 451.348 872.122Z" fill="#fafafa"/>
<path d="M321.46 437.287C326.424 439.35 330.663 438.254 335.599 437.028C326.437 448.535 317.166 454.731 304.168 461.474C292.466 467.545 278.846 471.348 270.252 481.766C275.298 480.58 279.098 478.727 283.772 476.623C283.46 492.104 282.443 500.258 279.339 515.351L277.077 524.966C269.422 520.449 265.055 516.98 258.242 511.44C260.738 500.39 261.996 492.758 262.881 481.561C268.795 474.611 284.519 458.79 292.626 454.539C305.501 447.787 309.504 449.911 321.46 437.287Z" fill="#fafafa"/>
<path d="M387.741 482.504C389.98 483.044 390.286 483.188 390.698 485.471C388.783 491.003 380.794 494.352 375.717 497.533C375.123 500.228 378.941 502.039 377.851 508.046C376.659 514.616 370.333 517.481 370.31 521.504C371.739 522.604 370.92 522.238 372.958 522.331C375.175 521.071 376.648 519.404 378.476 517.613L386.226 517.553C386.164 522.675 389.302 531.342 395.467 529.373C395.788 526.346 389.578 520.855 390.897 516.825L391.825 516.499C396.042 517.257 399.81 521.864 403.797 524.654L405.16 523.931C408.746 517.363 391.606 514.827 397.107 506.016C402.787 506.97 411.948 513.694 412.307 519.744C412.538 523.662 403.116 531.522 399.689 533.261C390.575 537.889 379.324 538.308 369.325 538.436C355.58 528.072 356.457 514.798 362.451 499.655C366.672 488.99 377.751 486.093 387.741 482.504Z" fill="#fafafa"/>
<path d="M109.691 891.728C110.223 891.631 110.68 891.755 111.209 891.836C116.455 901.215 128.881 914.627 129.531 925.177C129.664 927.338 129.161 929.457 127.602 931.036C124.563 934.114 119.307 934.131 115.275 934.125C107.607 933.257 101.16 931.166 94.1685 927.926C94.058 916.53 94.5565 905.124 93.9346 893.739C99.2762 893.636 104.473 892.817 109.691 891.728Z" fill="#616161"/>
<path d="M583.843 570.22C588.887 575.562 589.485 584.856 590.423 591.858C588.784 590.575 587.125 589.233 585.238 588.327C580.329 585.988 574.687 585.729 569.583 587.616C560.131 591.028 554.375 599.685 550.344 608.348C546.976 607.459 543.01 607.054 539.555 606.159C536.122 605.27 532.952 604.219 529.493 603.329C523.904 602.515 517.767 602.645 512.086 602.585C517.628 598.036 518.45 596.181 521.277 589.643C530.065 588.473 531.669 585.325 536.37 584.586C550.112 582.425 573.803 581.082 583.843 570.22Z" fill="#fafafa"/>
<path d="M74.9499 494.229C76.7202 494.86 78.3337 495.833 79.9601 496.764C89.2821 502.1 98.8375 507.06 108.04 512.601C105.661 519.002 100.81 528.163 96.0374 533.012C88.8462 535.429 79.4719 528.665 73.4178 525.488C59.0898 517.968 63.3865 501.957 74.9499 494.229Z" fill="#d0d0d0"/>
<path d="M488.043 527.954C498.704 526.033 519.971 530.593 530.608 533.142C526.349 537.784 522.963 540.955 520.311 546.696L511.132 548.647C501.436 549.585 479.092 545.332 469.24 542.464C468.891 539.343 468.762 535.366 468.573 532.17C475.822 529.978 480.387 528.77 488.043 527.954Z" fill="#616161"/>
<path d="M784.753 415.073C784.914 415.813 768.154 489.083 766.236 496.369L765.567 483.27C764.791 465.465 763.175 447.707 760.723 430.055C762.943 425.643 765.158 420.281 767.308 415.698C770.121 419.204 771.937 421.43 775.198 424.616C779.105 422.009 781.778 418.653 784.753 415.073Z" fill="#fafafa"/>
<path d="M855.151 889.679C855.619 889.668 855.991 889.814 856.444 889.949C858.524 896.321 857.344 925.791 857.371 934.713C850.861 937.44 844.803 939.731 837.701 937.834C836.817 937.063 835.723 936.206 835.136 935.176C831.525 928.864 845.445 899.215 847.768 890.962L848.01 890.089L855.151 889.679Z" fill="#616161"/>
<path d="M591.053 302.816C604.838 303.763 604.719 343.867 592.335 354.368C577.343 347.897 578.313 312.323 591.053 302.816Z" fill="#d0d0d0"/>
<path d="M520.603 552.695C530.654 553.261 541.759 562.129 537.155 573.325C534.862 578.894 528.882 581.099 523.662 583.163C522.878 579.551 522.304 578.646 520.001 575.843C517.108 574.118 514.772 573.827 511.55 573.352C506.253 567.967 501.108 566.231 494.201 563.299C502.214 558.118 511.163 554.232 520.603 552.695Z" fill="#fafafa"/>
<path d="M145.521 557.412C147.552 559.461 150.465 563.789 153.364 566.867C137.347 575.487 116.043 581.724 97.9471 582.376C95.868 582.446 92.2756 582.198 90.1113 582.107C91.4198 577.374 92.4378 574.333 94.131 569.757C112.731 569.956 128.764 564.937 145.521 557.412Z" fill="#d0d0d0"/>
<path d="M642.637 353.795C643.624 353.732 644.615 353.726 645.601 353.774C650.263 354.032 655.657 354.556 658.885 358.159C659.177 363.491 656.293 383.553 655.744 390.908C654.563 391.386 653.777 390.785 652.198 390.29C648.064 389.463 644.922 389.774 640.821 390.356C639.625 383.444 637.157 376.35 635.858 369.401C634.354 361.329 633.131 355.495 642.637 353.795Z" fill="#fafafa"/>
<path d="M436.682 455.012C447.699 455.212 446.816 463.305 440.562 469.269C435.322 474.267 429.72 479.134 424.326 483.95C422.205 482.008 417.832 478.964 414.679 480.027C409.008 481.94 411.416 491.035 410.454 493.495C402.587 489.572 399.288 492.034 396.64 499.318C392.427 500.518 392.251 496.033 387.001 501.462C385.949 508.406 390.537 507.127 391.508 509.938L390.596 510.269C388.454 509.213 386.781 508.145 385.688 505.898C384.913 504.3 384.825 502.455 385.446 500.791C387.251 495.831 424.985 463.734 431.187 458.248C432.532 457.059 434.986 455.788 436.682 455.012Z" fill="#d0d0d0"/>
<path d="M436.892 458.006C438.517 457.465 440.306 457.855 441.558 459.023C442.809 460.192 443.321 461.951 442.892 463.609C442.463 465.267 441.162 466.556 439.501 466.971C437.066 467.579 434.587 466.154 433.885 463.744C433.184 461.334 434.512 458.8 436.892 458.006Z" fill="#383838"/>
<path d="M793.774 366.979C796.937 370.683 792.012 389.612 790.497 393.904C787.512 402.327 781.39 410.746 775.65 417.597L770.655 410.439C767.443 405.659 764.021 401.019 760.41 396.534C774.438 388.645 785.297 381.001 793.774 366.979Z" fill="#fafafa"/>
<path d="M398.814 540.211L399.042 540.41C399.461 541.747 398.506 544.944 398.204 546.453C396.295 555.995 394.684 565.978 394.374 575.714C384.138 569.18 377.673 568.679 365.893 568.792L358.588 569.385C367.174 563.17 377.488 553.245 382.596 544.011C389.654 543.316 392.232 542.798 398.814 540.211Z" fill="#fafafa"/>
<path d="M579.978 295.964C583.96 295.858 586.569 296.751 590.158 298.212C574.395 307.406 574.497 331.632 579.595 346.952C581.261 351.941 584.063 354.744 588.094 357.9L588.024 358.648C564.544 369.376 558.454 309.712 579.978 295.964Z" fill="#d0d0d0"/>
<path d="M574.864 420.545C584.144 420.171 588.24 423.012 593.586 430.249C572.207 429.714 562.663 442.223 559.538 462.532C558.983 468.139 558.88 472.123 558.837 477.749C548.167 459.343 552.074 427.399 574.864 420.545Z" fill="#616161"/>
<path d="M444.489 472.233C445.166 473.082 444.998 479.902 445.085 481.478C445.852 495.384 448.979 508.891 452.504 522.269C448.037 516.982 445.491 514.9 439.357 511.818C433.161 509.597 430.325 509.481 423.818 508.934C430.081 500.577 432.897 497.446 427.715 487.195C433.588 482.668 438.336 476.908 444.489 472.233Z" fill="#fafafa"/>
<path d="M455.183 529.136C458.229 531.958 459.001 532.559 462.694 534.087C462.851 542.092 463.059 554.593 464 562.307C454.728 567.315 452.491 576.053 451.405 585.95C451.203 587.794 451.436 590.78 450.529 592.133L449.309 592.198L438.609 590.462C444.155 580.209 450.241 562.792 451.915 551.385C453.344 541.645 451.166 539.063 455.183 529.136Z" fill="#fafafa"/>
<path d="M237.184 581.907C244.034 585.481 251.031 589.249 258.054 592.419C257.353 595.492 255.012 605.168 255.121 607.922C250.707 609.814 233.444 614.095 228.052 615.55C230.132 608.44 232.08 601.804 233.748 594.591L237.184 581.907Z" fill="#d0d0d0"/>
<path d="M233.748 594.591C237.549 596.613 252.965 605.13 255.121 607.922C250.707 609.814 233.444 614.095 228.052 615.55C230.132 608.44 232.08 601.804 233.748 594.591Z" fill="#fafafa"/>
<path d="M143.179 414.216C150.742 413.159 162.192 414.878 169.507 416.835C171.963 420.132 174.464 423.394 177.012 426.621C168.356 427.792 160.622 431.123 154.862 437.815C153.427 432.185 151.774 429.651 147.842 425.59C138.078 418.541 128.078 418.833 118.3 425.714C115.614 427.604 113.243 429.644 110.467 431.422L109.926 431.763C121.178 419.447 125.913 416.09 143.179 414.216Z" fill="#d0d0d0"/>
<path d="M347.888 369.689C348.251 370.055 348.664 370.66 348.732 371.17C351.284 390.133 351.939 419.49 343.635 436.631C342.315 432.335 341.346 429.231 339.606 425.052C338.305 427.109 337.365 428.172 335.806 429.983C332.847 431.885 329.306 432.47 325.906 433.196C340.36 412.578 343.697 394.197 347.888 369.689Z" fill="#616161"/>
<path d="M328.826 566.425C330.892 566.393 339 570.42 341.488 571.525C328.036 579.902 326.255 590.818 325.319 605.389C320.125 603.836 316.638 602.57 311.623 600.575C310.843 585.783 315.505 573.746 328.826 566.425Z" fill="#fafafa"/>
<path d="M739.765 416.228C741.118 417.872 743.268 426.832 743.176 428.981C742.67 436.329 740.552 446.641 739.183 453.72C738.251 458.51 734.899 490.401 733.681 491.731C732.797 482.936 729.019 426.303 731.245 421.214C732.328 421.7 733.088 422.001 734.209 422.398C736.052 421.231 738.288 418.083 739.765 416.228Z" fill="#fafafa"/>
<path d="M176.1 433.026C183.196 432.249 186.987 434.843 192.945 438.804C210.63 450.559 216.392 456.021 220.744 476.603L214.563 470.752C212.501 468.709 204.995 463.274 203.918 461.786C192.059 445.393 182.93 437.34 162.01 438.242C167.644 435.095 169.682 434.196 176.1 433.026Z" fill="#d0d0d0"/>
<path d="M173.868 535.119C177.704 538.162 182.471 542.615 186.216 545.941C177.96 553.671 171.712 557.887 161.941 563.212C161.145 563.455 160.072 563.649 159.236 563.827C155.146 562.77 152.136 557.019 149.937 553.525C158.4 546.631 164.7 543.396 173.868 535.119Z" fill="#d0d0d0"/>
<path d="M374.936 436.178C378.637 436.671 379.784 438.97 380.144 442.485C381.306 453.801 381.455 466 381.855 477.308C379.632 476.073 376.511 473.868 374.309 472.403C370.275 461.601 367.123 453.798 361.767 443.519C365.852 439.292 369.272 437.574 374.936 436.178Z" fill="#fafafa"/>
<path d="M515.728 606.666C525.491 605.028 549.567 608.079 538.451 622.978C529.844 634.52 469.884 630.385 462.798 622.704L462.954 621.534C463.743 621.146 463.798 620.876 464.654 621.086C475.625 623.722 486.79 626.272 498.084 627.108C505.026 627.76 510.666 627.334 517.548 626.817C544.027 624.827 546.027 607.852 516.904 609.771C507.388 610.397 478.308 616.828 470.289 613.173C472.261 611.906 476.682 611.879 479.072 611.874C491.571 611.82 503.298 607.782 515.728 606.666Z" fill="#fafafa"/>
<path d="M297.361 471.673L298.327 471.883C298.56 472.465 298.803 473.046 298.88 473.677C300.827 489.6 294.867 516.819 285.786 530.109C283.266 528.346 282.64 528.497 283.314 525.593C287.144 509.086 290.523 491.791 289.781 474.78L297.361 471.673Z" fill="#d0d0d0"/>
<path d="M540.541 410.609C542.029 411.041 541.425 410.633 542.363 411.925C542.18 414.741 539.814 417.389 537.945 419.385C525.012 433.223 495.253 439.05 480.872 425.342C479.957 423.464 478.624 420.111 479.242 418.049C481.317 418.123 485.528 422.322 488.343 423.404C508.558 431.176 525.392 423.505 540.541 410.609Z" fill="#616161"/>
<path d="M737.501 614.58C743.591 615.89 749.858 616.612 756.04 617.27C756.115 624.703 756.25 632.132 756.449 639.56C750.494 638.891 743.672 637.484 737.738 636.385C737.566 629.118 737.485 621.846 737.501 614.58Z" fill="#d0d0d0"/>
<path d="M641.085 345.145C647.779 344.771 654.785 345.175 660.804 348.396C663.235 349.695 668.419 353.561 666.732 356.708C661.586 358.349 659.349 351.471 651.6 350.517C637.965 348.84 629.472 350.829 631.757 366.622C632.943 373.834 634.937 381.89 636.758 389.022C637.011 390.008 636.941 389.379 636.559 390.694C635.287 391.628 633.686 392.332 632.301 391.385C630.097 386.402 627.898 372.493 626.583 366.627C623.894 354.63 628.459 347.096 641.085 345.145Z" fill="#d0d0d0"/>
<path d="M409.381 424.164C414.335 429.953 409.176 453.223 407.039 459.952C406.386 462.008 396.109 477.333 394.369 479.612L393.482 479.272C393.068 477.777 393.339 477.35 393.792 475.868L393.95 475.371C396.051 471.399 399.101 466.058 400.533 461.938C398.975 459.994 396.639 457.824 394.835 456.033C396.544 454.032 398.161 451.922 399.788 449.85C401.727 449.165 402.359 449.32 403.026 447.488C401.428 446.607 399.892 446.093 400.156 444.039C401.198 435.937 403.109 429.578 409.381 424.164Z" fill="#d0d0d0"/>
<path d="M404.144 435.948C405.03 436.052 405.405 436.165 406.271 436.376C407.342 438.722 404.848 444.989 403.174 446.588L401.912 444.938C402.197 440.687 405.932 440.825 404.144 435.948Z" fill="#383838"/>
<path d="M409.231 426.203C410.119 428.311 409.237 430.587 408.413 432.562C407.38 430.581 408.559 428.197 409.231 426.203Z" fill="#a7a7a7"/>
<path d="M351.938 515.278L352.562 515.529C353.025 529.943 358.053 542.625 373.987 544.749C371.533 547.423 370.398 548.949 367.328 550.922C350.098 549.644 341.838 535.101 345.587 519.009C347.256 517.849 350.101 516.333 351.938 515.278Z" fill="#fafafa"/>
<path d="M750.516 399.985C752.72 399.953 754.957 400.384 757.15 400.713C759.548 402.95 762.571 406.977 764.705 409.639C763.164 413.244 759.467 422.17 757.506 425.012C754.746 425.344 750.279 425.312 747.363 425.373C746.005 420.108 744.728 415.102 743.079 409.914C745.31 406.094 747.32 403.05 750.516 399.985Z" fill="#616161"/>
<path d="M228.632 423.904C230.511 425.081 233.714 430.077 235.589 432.084C243.755 440.827 252.97 446.865 263.974 451.213C262.522 453.881 260.711 456.62 259.072 459.203C257.83 460.691 256.655 461.58 255.187 462.804C246.136 450.632 235.098 441.63 226.271 430.153L228.632 423.904Z" fill="#d0d0d0"/>
<path d="M374.58 428.168C375.239 428.146 375.898 428.153 376.557 428.189C379.535 428.323 382.527 429.284 384.546 431.769C389.078 437.347 391.534 474.493 387.632 477.893C386.098 477.689 385.12 475.517 385.116 474.162C385.094 466.678 384.808 459.277 384.385 451.806C384.328 447.092 384.119 439.405 381.305 435.667C373.208 424.915 360.283 441.816 355.746 445.453L355.024 445.043C354.28 434.68 366.071 429.577 374.58 428.168Z" fill="#d0d0d0"/>
<path d="M463.61 570.129C469.784 579.131 475.284 576.668 477.469 579.223C476.741 582.452 477.741 583.083 477.649 586.15C476.888 587.627 471.856 590.015 469.725 591.346L465.788 594.904C462.716 594.144 460.414 593.751 457.285 593.265C457.732 584.328 458.102 577.309 463.61 570.129Z" fill="#fafafa"/>
<path d="M469.641 547.817C479.812 550.782 490.332 552.388 500.925 552.593C498 554.313 495.091 556.059 492.2 557.838C488.686 560.339 487.544 562.048 485.134 565.477C470.526 562.587 468.386 562.857 469.641 547.817Z" fill="#616161"/>
<path d="M429.551 433.853L430.092 434.541C430.987 443.9 426.74 451.9 421.342 459.147C421.915 456.433 423.024 452.806 421.775 450.362L420.909 450.75C418.328 455.224 417.911 459.116 418.777 464.036C413.7 468.577 408.599 473.089 403.473 477.574L396.117 484.625C406.642 466.58 416.394 450.087 429.551 433.853Z" fill="#fafafa"/>
<path d="M783.837 554.431C791.058 554.178 794.453 557.714 797.956 563.816C802.494 571.719 805.9 583.465 804.165 592.586C803.863 594.176 802.122 595.033 800.829 595.729C798.49 596.403 797.337 596.952 794.944 596.532C794.211 595.077 798.204 588.651 797.655 583.643C796.183 570.36 793.731 563.175 783.837 554.431Z" fill="#fafafa"/>
<path d="M487.983 587.066L488.959 587.335C489.145 590.273 489.336 591.551 489.922 594.419C484.73 598.807 464.645 611.76 457.798 609.583L457.413 608.688C458.537 604.688 462.386 602.036 465.574 599.249C467.866 597.206 472.677 597.782 477.181 595.766C483.121 593.098 483.481 593.244 488.637 588.904C482.217 590.408 475.213 595.265 469.874 595.626C477.728 590.527 478.761 589.341 487.983 587.066Z" fill="#d0d0d0"/>
<path d="M535.572 628.094C536.633 628.461 536.594 628.536 537.433 629.313C538.454 632.078 538.083 633.717 536.736 636.331C532.226 645.091 521.319 647.091 512.352 647.43C495.347 648.077 479.836 640.94 464.147 635.485C462.639 633.992 462.992 634.827 462.558 633.102L463.381 632.498C467.846 632.439 486.391 641.107 493.672 642.142C508.842 644.293 531.901 648.713 535.572 628.094Z" fill="#fafafa"/>
<path d="M855.485 726.268L856.897 726.958C857.495 730.424 857.468 781.414 856.854 783.118L856.094 782.541C854.617 779.182 852.71 775.571 851.944 771.975C850.479 765.118 851.874 737.076 853.125 729.594C853.443 727.686 854.046 727.389 855.485 726.268Z" fill="#fafafa"/>
<path d="M734.925 382.973C739.08 386.949 740.594 390.812 747.385 396.645C743.472 401.276 741.327 404.133 737.959 409.061C736.38 411.174 734.564 414.041 733.055 416.278C731.643 407.179 731.966 391.538 734.925 382.973Z" fill="#fafafa"/>
<path d="M187.688 874.726C202.52 878.769 216.278 876.974 231.078 874.235C229.04 876.257 227.112 877.815 224.659 879.303C216.008 883.486 206.778 884.779 197.286 883.389C194.055 882.914 189.636 882.009 187.785 878.984C186.88 877.507 187.385 876.3 187.688 874.726Z" fill="#fafafa"/>
<path d="M529.368 411.441C529.696 411.462 529.979 411.685 530.277 411.826C529.489 413.765 523.644 416.876 521.676 417.67C510.967 421.993 499.685 422.736 488.938 418.475C487.193 417.253 485.474 415.732 483.831 414.354C501.709 416.061 511.972 415.034 529.368 411.441Z" fill="#616161"/>
<path d="M580.669 601.583C590.946 601.103 592.848 606.429 596.27 614.893L586.747 613.399C580.89 612.526 575.042 611.561 569.217 610.505C572.747 605.578 575.112 603.799 580.669 601.583Z" fill="#fafafa"/>
<path d="M572.887 591.481C580.06 591.028 580.944 591.599 586.629 596.257C576.519 596.316 571.938 598.478 565.779 606.472C565.035 607.658 564.264 608.839 563.477 609.998C560.939 609.728 558.126 609.243 555.577 608.86C560.169 600.224 563.93 595.141 572.887 591.481Z" fill="#616161"/>
<path d="M517.161 613.146C520.631 612.801 533.344 613.383 534.299 617.194L533.495 618.251C531.29 618.919 523.596 615.787 520.604 615.944C508.34 616.574 497.06 618.806 484.611 619.728C481.72 619.874 466.033 620.17 465.593 617.248C468.877 615.529 478.153 617.162 482.307 617.022C494.045 616.628 505.419 614.052 517.161 613.146Z" fill="#fafafa"/>
<path d="M461.409 627.011C466.478 626.488 486.564 633.625 492.91 635.28C498.016 636.617 503.237 637.468 508.503 637.83C523.335 638.892 525.947 631.194 530.556 631.188L530.972 632.676C520.466 648.099 483.312 636.11 469.277 631.291C466.103 630.202 462.947 630.029 461.409 627.011Z" fill="#fafafa"/>
<path d="M661.171 465.091C669.017 473.217 641.016 491.076 629.677 479.954L627.834 473.119C639.539 480.986 654.505 477.68 661.171 465.091Z" fill="#fafafa"/>
<path d="M580.021 503.107C593.171 502.089 604.456 511.888 604.418 525.448C604.418 526.983 604.191 527.534 603.141 528.47C601.712 527.439 601.664 526.103 600.996 524.134C595.31 509.644 584.15 505.722 569.637 506.155C574.115 504.342 575.295 503.92 580.021 503.107Z" fill="#616161"/>
<path d="M392.036 622.973C394.446 622.919 402.113 627.965 407.447 628.914C414.311 630.143 442.627 628.881 444.964 630.698L445.053 632.396C434.733 633 394.077 636.822 392.036 622.973Z" fill="#fafafa"/>
<path d="M456.166 421.448L456.853 421.629C457.158 422.635 454.685 427.386 454.074 428.34C449.385 435.671 449.073 445.839 446.489 452.65L445.577 452.869C445.35 452.602 444.876 452.071 444.755 451.784C439.611 439.504 445.811 428.074 456.166 421.448Z" fill="#616161"/>
<path d="M501.059 572.781C503.739 573.045 505.414 574.543 507.59 576.085C503.65 582.209 502.323 586.015 499.257 592.516C498.147 593.508 496.57 594.009 495.123 593.572C490.541 589.017 497.267 576.764 501.059 572.781Z" fill="#d0d0d0"/>
<path d="M402.852 496.411C411.042 496.659 423.236 505.177 417.112 514.556C416.792 514.631 415.988 514.634 415.622 514.649C414.767 513.341 412.278 509.444 411.222 508.419C408.963 506.224 402.9 503.79 401.855 500.548C401.397 499.128 402.235 497.693 402.852 496.411Z" fill="#fafafa"/>
<path d="M684.812 224.431C686.386 225.183 688.892 226.993 690.433 228.028C686.154 234.51 682.878 243.289 681.6 250.926L680.867 254.849C679.429 254.012 678.836 247.914 678.679 246.164C677.941 238.119 680.916 231.206 684.812 224.431Z" fill="#616161"/>
<path d="M512.686 578.247C523.204 581.476 515.389 590.484 511.55 596.672C509.792 597.325 508.824 596.882 507.354 595.842C504.293 590.964 509.399 582.112 512.686 578.247Z" fill="#d0d0d0"/>
<path d="M662.593 364.356C664.646 364.765 666.176 364.816 667.691 366.176C668.44 369.348 665.961 384.404 665.373 388.594C663.611 388.291 661.229 388.076 659.402 387.853C660.647 380.166 661.019 371.933 662.593 364.356Z" fill="#d0d0d0"/>
<path d="M403.687 616.429C405.538 617.237 407.868 618.741 410.192 619.749C419.925 623.97 428.925 624.056 439.321 623.701C440.874 623.647 443.556 623.674 444.663 624.768L444.533 627.021C434.07 626.946 411.517 627.7 403.153 619.016C402.665 618.515 403.418 617.167 403.687 616.429Z" fill="#fafafa"/>
<path d="M408.768 309.797C409.255 311.534 407.779 325.726 407.987 329.485C408.224 334.608 408.786 339.711 409.669 344.764C410.074 347.01 411.392 352.469 411.469 354.342L410.66 353.79C403.186 340.105 401.752 324 408.768 309.797Z" fill="#d0d0d0"/>
<path d="M423.379 514.725C424.185 514.712 424.991 514.713 425.797 514.73C433.368 514.897 448.686 519.168 448.18 528.761L447.374 529.242C439.058 520.494 432.241 519.628 420.528 519.208L423.379 514.725Z" fill="#616161"/>
<path d="M88.9761 639.415C93.296 641.468 100.951 646.137 105.657 648.67C104.415 649.091 102.269 649.511 100.92 649.824C96.6227 651.198 91.9379 652.347 87.5518 653.506C87.9101 648.492 88.2275 644.412 88.9761 639.415Z" fill="#fafafa"/>
<path d="M410.193 592.979C420.124 594.203 439.115 604.99 450.633 609.114L450.846 610.37C449.294 610.903 449.005 611.275 447.359 610.704C435.403 606.558 424.608 599.923 412.331 596.526C411.056 596.171 410.593 594.101 410.193 592.979Z" fill="#fafafa"/>
<path d="M214.006 395.019C215.541 396.492 222.941 414.364 224.384 417.591L222.69 423.538C222.536 423.899 222.262 424.039 221.911 424.341C216.671 419.311 213.685 402.423 214.006 395.019Z" fill="#616161"/>
<path d="M490.288 568.01C498.93 568.646 493.995 573.212 491.226 577.713C490.077 579.584 489.071 581.018 487.555 582.646C485.535 583.212 484.411 583.46 482.538 582.716C479.149 578.36 486.887 570.614 490.288 568.01Z" fill="#d0d0d0"/>
<path d="M413.114 600.386C416.346 600.915 444.584 612.618 447.293 614.596L447.521 616.208C439.712 615.345 422.777 606.984 414.995 603.497C413.352 602.758 413.429 601.809 413.114 600.386Z" fill="#fafafa"/>
<path d="M415.778 484.867C423.604 486.614 426.807 494.458 422.602 501.465L421.463 501.744C417.433 498.432 413.565 489.941 415.778 484.867Z" fill="#fafafa"/>
<path d="M528.695 548.847C540.962 547.973 549.412 561.606 545.284 572.625L544.098 573.164C540.288 569.191 548.032 559.746 528.695 548.847Z" fill="#616161"/>
<path d="M361.528 451.165C363.089 452.883 368.061 465.575 368.844 468.089C367.83 469.448 366.659 469.542 364.982 470.028C363.342 469.077 358.438 456.344 357.565 453.699C358.381 452.429 360.092 451.847 361.528 451.165Z" fill="#d0d0d0"/>
<path d="M412.31 607.351C418.285 607.642 431.249 615.636 438.125 616.984C439.592 617.27 444.113 618.979 445.364 619.75L445.455 621.113C444.528 621.005 443.603 620.882 442.68 620.741C437.73 619.992 414.165 611.982 411.896 608.871L412.31 607.351Z" fill="#fafafa"/>
<path d="M431.6 596.753C433.532 596.678 454.031 600.09 457.47 600.672C457.379 601.966 456.252 602.748 455.188 603.912C454.69 604.424 453.865 605.486 453.288 605.518C447.781 605.874 436.256 599.298 431.6 596.753Z" fill="#d0d0d0"/>
<path d="M890.831 871.551C893.375 875.297 895.169 879.205 896.668 883.469C895.584 887.308 894.086 890.855 892.394 894.456C891.974 895.426 892.001 895.685 891.122 896.331C888.999 892.935 890.54 876.419 890.831 871.551Z" fill="#616161"/>
<path d="M459.247 870.629C464.099 870.359 470.768 873.184 476.288 873.319C480.24 873.416 490.752 870.807 493.03 871.675L492.406 872.721C489.77 874.262 486.91 875.378 483.93 876.041C474.672 878.084 467.057 875.561 459.247 870.629Z" fill="#616161"/>
<path d="M268.433 454.219C270.332 458.121 265.055 472.418 261.341 474.066L260.63 473.142C259.782 471.142 258.41 468.886 257.324 466.963C263.002 463.335 265.253 460.014 268.433 454.219Z" fill="#fafafa"/>
<path d="M94.1553 880.084C97.8797 881.103 106.769 880.575 109.008 883.043C109.031 884.445 109.028 884.968 108.197 886.175C103.567 887.275 98.9311 887.631 94.1887 887.83L94.1553 880.084Z" fill="#fafafa"/>
<path d="M264.429 595.82C269.372 597.788 274.336 599.696 279.321 601.556L274.178 603.071C270.108 604.187 266.081 605.464 262.107 606.887C262.668 603.135 263.567 599.513 264.429 595.82Z" fill="#fafafa"/>
<path d="M737.27 600.709C738.126 601.038 739.42 601.885 740.013 602.558C744.178 607.286 751.648 608.456 756.137 611.652C750.343 612.197 743.618 610.86 737.83 609.901C737.604 606.839 737.415 603.777 737.27 600.709Z" fill="#616161"/>
<path d="M461.71 613.313L463.43 613.308C463.71 615.087 459.094 619.636 458.574 624.709C458 630.31 458.26 630.66 459.301 636.477C450.694 632.892 455.041 617.232 461.71 613.313Z" fill="#fafafa"/>
<path d="M659.575 396.171L662.032 396.472C667.432 400.395 658.195 408.314 653.448 409.599C652.467 409.364 651.508 409.063 650.538 408.778L650.252 408.078C651.211 407.458 652.165 406.82 653.103 406.165C657.91 402.808 658.6 401.713 659.575 396.171Z" fill="#d0d0d0"/>
<path d="M453.973 611.685C456.815 615.556 452.715 617.593 451.772 623.032C451.122 626.779 452.274 632.93 451.103 634.822C444.874 628.919 449.25 617.41 453.973 611.685Z" fill="#fafafa"/>
<path d="M455.637 780.676C463.147 782.358 470.696 783.7 478.273 785.037L478.277 785.797C474.216 786.988 470.074 787.398 465.879 786.659C461.897 785.959 457.995 784.05 455.637 780.676Z" fill="#616161"/>
<path d="M404.438 611.82C411.042 611.61 422.1 617.469 428.62 620.353C419.664 620.246 411.089 617.981 404.438 611.82Z" fill="#fafafa"/>
<path d="M581.148 884.618L581.503 884.682L581.784 885.194C581.115 885.685 580.523 886.105 579.784 886.488C571.146 890.946 561.003 890.623 551.912 887.836L550.053 886.882C550.505 886.267 554.154 887.065 555.065 887.2C564.183 888.531 572.428 887.335 581.148 884.618Z" fill="#616161"/>
<path d="M507.046 620.11C510.708 619.76 524.859 619.081 527.011 621.614C526.12 622.897 526.123 622.547 524.241 623.156C521.225 623.307 506.287 621.938 503.691 620.903C504.776 620.1 505.682 620.202 507.046 620.11Z" fill="#fafafa"/>
<path d="M468.602 565.805C471.72 566.581 479.656 567.676 480.807 570.544L479.57 572.748L478.361 573.778C473.42 573.53 469.339 570.856 468.602 565.805Z" fill="#616161"/>
<path d="M436.771 440.203C437.916 441.803 437.67 447.297 438.073 450.38C434.953 451.516 433.217 452.498 430.286 454.099L429.868 454.2C430.095 451.132 434.462 443.038 436.771 440.203Z" fill="#fafafa"/>
<path d="M577.861 566.016C578.518 566.371 578.227 566.215 578.674 567.099C576.821 572.01 561.823 575.627 556.994 577.05L556.423 577.013C556.805 575.983 575.096 567.396 577.861 566.016Z" fill="#6e6e6e"/>
<path d="M411.021 582.807C415.696 582.543 422.508 584.419 426.149 587.33L426.16 588.09L424.898 587.993C421.287 587.265 410.921 585.627 408.252 584.225L408.466 583.594L411.021 582.807Z" fill="#616161"/>
<path d="M371.066 475.251C373.693 475.379 377.301 478.086 379.222 479.831C378.507 480.408 377.007 480.574 375.982 480.8C372.688 482.351 369.977 482.307 368.605 478.37C368.972 476.196 368.691 476.967 371.066 475.251Z" fill="#d0d0d0"/>
<path d="M540.417 625.62C547.493 626.358 547.779 633.28 542.697 637.705C541.101 637.625 541.662 637.964 540.713 637.102C540.74 635.156 542.255 633.21 543.338 631.431C541.452 629.28 540.412 628.412 540.417 625.62Z" fill="#fafafa"/>
<path d="M274.359 453.84C276.496 454.334 280.752 454.73 283.09 455.011L279.123 458.051L273.612 462.683L274.359 453.84Z" fill="#d0d0d0"/>
<path d="M482.017 605.41C484.206 605.162 490.874 605.41 492.439 606.795L489.842 607.356C485.722 607.663 481.604 607.998 477.489 608.359C478.856 607.361 480.567 606.337 482.017 605.41Z" fill="#d0d0d0"/>
<path d="M513.075 633.436C515.447 633.199 518.395 632.617 520.52 633.339L519.616 633.253L519.051 633.986C515.033 634.822 513.319 635.161 509.139 634.87C506.569 634.611 504.206 634.051 501.689 633.506L513.075 633.436Z" fill="#d0d0d0"/>
<path d="M501.689 633.506L513.075 633.436L508.943 634.191C509.063 634.821 508.922 634.627 509.139 634.87C506.569 634.611 504.206 634.051 501.689 633.506Z" fill="#909090"/>
<path d="M538.644 795.214C543.985 796.4 549.504 797.376 554.736 798.977C552.737 799.371 550.797 799.246 548.787 799.074C545.246 798.772 541.048 798.044 538.644 795.214Z" fill="#616161"/>
<path d="M58.9756 885.534C59.0031 885.664 59.036 885.793 59.0581 885.922C59.5054 888.569 60.2965 896.784 58.9567 898.795C58.6727 898.321 58.4141 897.836 58.1823 897.334C56.2719 893.318 57.5265 889.437 58.9756 885.534Z" fill="#616161"/>
<path d="M392.839 458.981C394.419 460.275 395.04 460.613 396.067 462.32C396.401 464.349 395.617 465.248 394.59 467.144L393.657 468.075C392.916 466 392.932 461.382 392.839 458.981Z" fill="#d0d0d0"/>
<path d="M397.995 620.865C401.183 621.539 403.741 623.571 406.536 625.383C402.969 625.221 400.061 623.76 397.995 620.865Z" fill="#d0d0d0"/>
</g>
<defs>
<clipPath id="clip0_15499_17715">
<rect width="928" height="1104" fill="#ffffff"/>
</clipPath>
</defs>
</svg>
