<svg width="1152" height="896" viewBox="0 0 1152 896" fill="none" xmlns="http://www.w3.org/2000/svg">
<g clip-path="url(#clip0_15501_18341)">
<path d="M0 0H1152V896H0V0Z" fill="#f7f7f7"/>
<path d="M228.191 215.911C218.098 185.238 213.95 150.764 228.117 119.976C230.653 114.463 235.912 107.516 242.035 105.642C245.307 104.608 248.863 104.989 251.841 106.695C271.808 117.926 267.226 177.557 264.527 196.994C267.877 196.432 271.232 195.889 274.589 195.365C277.534 165.827 286.084 132.631 308.357 111.59C314.784 105.518 327.625 102.688 332.514 110.987C345.403 132.869 330.429 176.895 320.705 196.81C335.798 200.848 352.071 202.903 356.749 220.031C376.471 231.837 384.552 248.247 376.309 270.696C378.747 271.666 381.65 272.743 383.997 273.808C391.462 268.61 391.272 273.013 400.859 269.68C405.736 271.085 405.56 270.384 409.688 271.115C414.253 271.924 419.937 273.434 424.468 274.62C430.455 271.841 432.583 272.211 439.33 272.189C451.423 253.369 470.541 240.166 492.425 235.519C536.27 226.267 582.958 248.787 595.84 293.258C601.043 292.041 611.938 291.94 617.648 291.774C618.88 288.722 620.438 286.008 623.762 284.817C632.987 281.514 647.41 281.853 656.151 286.384C659.807 286.045 663.452 285.67 667.12 285.536C670.405 282.438 672.21 280.987 676.84 280.446C688.787 279.052 701.202 279.204 713.194 278.41C719.252 273.573 720.298 275.564 727.38 274.43C754.797 270.042 760.557 314.932 742.45 327.848C736.752 331.909 720.895 332.557 714.313 328.016C702.625 328.621 686.796 330.129 675.225 328.985C673.707 328.834 671.108 327.119 669.808 326.155C668.194 335.384 666.861 339.508 662.203 347.726C664.6 352.8 663.728 353.519 664.577 358.77C664.819 360.267 667.418 361.628 667.384 364.868C667.176 383.556 663.463 412.087 658.317 429.67C653.322 446.717 634.14 455.605 619.476 462.311C610.105 466.599 595.688 472.167 585.597 474.57C586.007 481.827 586.142 485.981 585.079 493.369C584.55 497.032 582.767 505.205 582.84 508.436C583.335 530.21 584.432 551.962 585.456 573.716C585.867 582.513 586.328 591.31 586.26 600.118C586.21 606.67 584.708 607.283 578.982 609.657C578.436 633.534 576.057 657.601 574.746 681.466C574.493 686.084 571.77 690.381 571.382 694.965C571.157 699.656 572.985 705.967 572.721 710.81C571.731 729.045 570.342 747.392 569.262 765.616C580.365 771.837 592.341 771.978 598.129 782.13C603.062 782.574 610.234 784.796 614.172 787.895C615.398 788.857 617.052 790.685 616.967 792.372C616.905 793.655 616.455 794.532 615.589 795.46C606.516 805.185 557.334 808.757 543.019 809.308C520.591 810.174 435.767 810.051 421.531 795.871C420.109 794.454 419.761 793.323 419.76 791.36C422.405 784.47 437.504 783.159 443.303 780.701C443.805 780.488 444.202 777.518 444.366 776.68C446.054 764.975 444.187 765.386 443.893 754.823C443.608 738.326 442.746 721.531 444.27 705.107C444.534 702.255 447.871 692.969 447.304 690.961C442.709 674.644 442.888 657.056 442.076 640.036C437.818 640.041 436.213 640.356 432.117 641.414C421.981 638.089 416.904 639.974 411.589 629.09C405.406 616.435 406.384 606.923 406.862 593.616C406.984 590.202 401.473 580.741 400.87 576.922C399.518 568.974 399.544 560.172 398.732 552.293C396.028 526.023 398.421 502.516 407.834 477.79C416.428 455.218 423.118 434.797 441.902 418.496C445.788 415.124 449.351 410.108 454.291 407.694C459.756 404.794 471.788 404.4 476.139 400.352C476.684 398.74 476.481 398.402 476.094 396.768C474.679 394.776 469.916 393.601 466.547 391.621C451.292 382.653 441.831 372.096 433.696 356.576C434.322 376.479 431.875 413.131 417.569 427.915C404.146 441.787 373.188 445.205 354.787 447.348C354.771 453.983 354.743 458.676 353.83 465.314C352.318 476.304 348.625 488.754 347.792 499.66C346.085 522.007 346.206 543.575 344.088 566.033C341.332 592.688 337.491 619.219 332.573 645.559C330.603 655.863 327.973 666.246 325.942 676.489C322.242 695.14 327.243 709.28 308.988 720.974L305.901 735.412C308.354 741.914 313.253 751.037 317.738 756.409C332.958 759.446 341.016 761.19 342.674 778.8C342.546 786.039 339.539 789.521 332.334 790.567C319.518 792.423 300.144 792.671 287.988 788.115C279.868 785.072 267.532 776.826 260.317 772.101C255.952 768.569 254.266 767.191 251.485 762.376C251.253 752.955 253.801 744.035 258.287 735.851C263.2 726.88 261.971 723.488 262.853 713.724C260.015 709.668 257.067 705.005 256.747 699.915C256.022 688.39 259.55 675.195 260.864 663.507C262.409 649.761 262.002 639.445 260.699 625.71C242.002 668.485 231.355 670.403 186.151 659.671C172.955 656.538 168.584 656.173 161.741 643.512L153.61 641.807C141.254 646.538 140.556 657.297 131.059 666.151C121.345 675.212 101.03 675.375 96.603 661.499C90.7125 643.033 113.764 588.351 131.543 582.496L132.22 582.276C143.547 583.75 151.493 588.402 160.697 594.842C163.789 597.002 165.067 597.828 168.85 598.25C180.36 592.536 187.153 593.768 198.909 598.717C199.461 594.341 203.18 572.13 203.195 569.475C203.276 554.613 199.373 551.393 204.277 534.139C188.85 530.653 177.712 528.256 171.683 512.192C171.188 510.871 167.45 508.191 166.964 505.941C164.136 492.877 169.3 477.527 170.654 464.443C171.166 459.497 175.693 453.34 179.675 450.99C180.463 450.523 181.262 450.077 182.072 449.65C183.418 441.021 185.197 434.112 187.579 425.7C181.035 412.702 195.839 386.928 207.804 380.327C212.527 377.721 224.06 378.871 226.998 375.133C226.714 373.084 219.645 368.918 217.673 367.448C189.418 346.398 186.979 319.485 194.477 287.487C201.193 258.828 206.032 237.058 228.191 215.911Z" fill="#323232"/>
<path d="M518.857 774.97C517.982 780.971 516.539 792.985 520.304 798.447C521.913 800.781 527.525 801.473 530.408 801.923C540.659 803.79 549.464 801.608 559.462 800.64C571.568 799.471 585.928 800.303 596.83 794.003C600.345 791.967 598.843 785.252 598.129 782.13C603.062 782.574 610.234 784.796 614.172 787.895C615.398 788.857 617.052 790.685 616.967 792.372C616.905 793.655 616.455 794.532 615.589 795.46C606.516 805.185 557.334 808.757 543.019 809.308C520.591 810.174 435.767 810.05 421.531 795.871C420.109 794.453 419.761 793.323 419.76 791.36C422.405 784.47 437.504 783.159 443.303 780.701C443.805 780.488 444.202 777.518 444.366 776.68C444.258 787.738 442.595 795.342 456.026 797.62C469.359 799.881 478.769 795.815 491.36 793.514C502.822 791.427 512.082 790.218 508.55 775.718C512.211 774.857 515.133 774.981 518.857 774.97Z" fill="#d5d5d5"/>
<path d="M493.48 763.687C496.113 745.047 497.531 725.012 499.93 706.22C500.639 703.65 498.93 695.235 499.668 693.345C504.944 679.824 505.003 664.924 507.951 650.964C509.338 662.539 510.771 674.638 513.051 686.05C513.748 689.543 516.232 692.563 516.509 696.118C516.94 701.664 514.719 707.772 514.607 713.47C514.369 725.496 515.77 737.988 516.541 750.013C516.797 754.001 519.49 772.68 518.857 774.97C515.133 774.981 512.211 774.857 508.55 775.718C503.891 768.034 501.375 767.607 493.48 763.687Z" fill="#f7f7f7"/>
<path d="M347.443 457.805L347.726 458.145C348.303 465.509 342.067 487.188 341.253 496.21C339.458 516.117 339.889 536.005 338.112 555.821C335.518 583.345 331.816 610.753 327.014 637.977C324.702 650.458 321.686 663.017 319.155 675.47C317.319 684.503 317.619 694.009 315.207 702.941C313.294 710.022 310.543 712.491 304.419 715.962C292.451 716.153 280.554 713.554 269.169 710.073C266.106 707.064 263.542 702.986 263.44 698.655C263.251 687.377 266.308 676.308 267.585 665.053C270.314 642.043 267.286 619.078 263.744 596.354C262.088 585.735 259.954 583.328 250.293 578.609C246.56 576.781 241.633 573.547 237.553 572.934L236.985 573.445C238.875 578.553 250.618 585.538 255.443 589.11C256.854 594.217 259.295 605.725 258.494 610.663C254.543 624.044 247.04 643.865 236.173 653.152C223.706 663.81 204.051 655.25 189.943 653.247C180.329 651.886 174.828 650.632 168.641 642.746C172.021 639.99 174.014 637.172 175.796 633.224C179.951 623.848 180.185 613.206 176.448 603.661L176.228 603.11C182.791 593.958 212.904 613.324 219.675 613.914L220.288 613.262C218.895 608.003 209.656 603.02 205.062 600.995C206.27 594.015 210.504 575.307 210.145 569.255C209.236 553.896 207.432 551.567 210.805 535.491C226.381 538.251 250.763 542.568 265.845 536.157C273.38 532.954 276.562 526.929 279.212 519.665C311.803 504.61 329.727 489.197 347.443 457.805Z" fill="#f7f7f7"/>
<path d="M320.359 112.501C322.472 112.416 324.403 112.514 325.998 114.029C330.758 118.551 330.887 130.76 330.545 136.575C329.062 161.759 318.57 185.445 307.955 207.957C305.588 212.977 300.424 220.419 300.982 225.845L301.675 226.309C306.888 223.756 314.547 208.806 317.291 203.197C327.899 205.984 340.848 208.241 348.508 215.988C320.445 234.814 302.456 295.409 303.466 328.209C304.21 352.381 313.798 364.935 330.535 380.314C319.095 374.792 315.688 377.148 305.639 373.766C296.918 370.829 285.185 360.713 276.665 356.355L275.953 355.997C279.904 361.139 282.966 364.156 287.82 368.306C292.007 371.542 294.696 373.243 299.188 375.979C289.883 379.426 287.193 380.423 279.006 386.019L270.852 383.806C267.133 368.69 258.444 359.19 240.894 363.51C237.546 364.334 234.537 366.871 232.137 369.309C230.707 368.404 229.285 367.486 227.871 366.556C207.238 352.945 194.455 334.227 198.2 308.744C205.7 257.714 216.509 213.036 274.468 202.307C274.486 205.708 273.934 219.313 278.329 219.201C280.197 215.07 281.113 194.757 282.035 188.693C285.76 164.197 295.939 123.429 320.359 112.501Z" fill="#f7f7f7"/>
<path d="M457.767 377.298C422.151 344.677 424.216 285.513 463.078 256.352C497.005 230.894 547.955 235.969 575.145 268.893C599.962 298.802 598.297 346.238 571.607 374.137C566.921 379.006 561.578 383.198 555.737 386.596C550.349 389.942 544.413 392.314 538.202 393.602C519.293 385.807 498.886 383.868 479.178 390.031C470.806 386.466 464.827 383.064 457.767 377.298Z" fill="#f7f7f7"/>
<path d="M457.767 377.298C478.094 366.13 504.874 368.461 526.754 374.143C534.363 376.119 550.091 381.671 555.737 386.596C550.348 389.942 544.413 392.314 538.202 393.602C519.292 385.807 498.885 383.868 479.178 390.031C470.805 386.466 464.827 383.064 457.767 377.298Z" fill="#d5d5d5"/>
<path d="M558.488 290.375C588.758 292.012 592.144 345.592 561.321 352.695C531.281 353.49 526.954 295.335 558.488 290.375Z" fill="#323232"/>
<path d="M558.087 296.001C582.131 296.964 583.521 340.662 561.77 346.896C537.814 347.947 536.397 300.529 558.087 296.001Z" fill="#b7b7b7"/>
<path d="M399.803 343.827C437.907 341.457 426.384 366.522 424.591 392.266C424.112 399.14 419.639 415.59 415.352 420.324C398.247 439.206 362.919 438.933 339.44 441.955C334.515 442.587 324.926 442.087 321.701 444.449L321.766 445.391C324.89 448.02 327.204 447.663 331.308 447.817C322.571 463.024 315.275 471.352 301.694 482.535C295.628 487.153 291.148 489.741 284.56 493.351C285.599 488.154 286.429 480.296 287.138 474.911C290.298 452.325 291.79 429.537 291.602 406.732C307.924 386.016 324.671 388.587 347.652 389.8C357.962 390.347 368.289 390.538 378.614 390.374C381.643 390.337 387.787 390.595 390.169 388.988L390.193 387.926C388.129 385.775 383.741 385.061 380.861 384.47C384.393 370.052 383.279 346.055 399.803 343.827Z" fill="#f7f7f7"/>
<path d="M632.56 357.271C638.483 356.823 644.434 357.34 650.183 358.802C652.922 359.502 660.657 362.312 660.662 364.694C660.572 384.295 656.95 405.51 652.68 424.739C647.038 450.117 606.403 459.37 585.349 467.633C581.592 469.107 565.645 472.989 564.863 476.221C567.642 478.066 571.512 476.717 574.549 476.03C571.388 493.27 564.672 508.305 554.989 522.767C550.887 528.082 547.417 532.611 542.823 537.499C542.739 512.579 541.081 467.975 536.464 444.388C539.502 437.592 547.995 425.67 554.864 422.47C563.822 418.458 577.187 418.901 586.311 416.513C594.023 414.495 620.23 410.978 625.551 407.51L625.697 406.617C623.706 405.283 620.37 404.735 617.929 404.145C620.207 394.385 622.311 384.583 624.223 374.745C625.005 370.885 626.322 362.606 627.649 359.442C629.202 357.792 630.321 357.786 632.56 357.271Z" fill="#f7f7f7"/>
<path d="M447.787 611.114C483.591 619.253 536.314 617.914 572.226 611.344C570.808 634.9 569.863 664.773 567.017 687.738C566.376 688.148 565.717 688.52 565.031 688.851C553.593 694.521 532.894 693.734 520.767 689.65C519.325 684.83 518.914 680.611 518.257 675.651C517.231 667.523 515.242 646.515 511.87 639.113C510.499 636.104 489.692 629.849 485.605 632.982L486.087 634.068C490.066 637.313 497.473 639.389 502.449 641.054C499.98 652.545 497.929 677.771 494.682 687.142C491.9 688.064 489.038 688.722 486.134 689.116C477.865 690.162 460.936 690.055 453.649 685.184C450.694 683.21 450.324 665.161 450.055 660.925C449.005 644.333 448.249 627.729 447.787 611.114Z" fill="#f7f7f7"/>
<path d="M521.478 431.971C524.522 433.223 527.146 435.63 528.472 438.669C535.653 455.127 540.036 556.641 532.939 573.39C530.935 578.125 526.445 580.87 521.83 582.67C502.132 590.37 476.217 588.132 455.698 585.927C447.841 585.077 439.189 584.515 431.907 581.242C428.445 579.684 426.229 577.676 424.014 574.599C441.056 577.068 478.903 583.064 494.753 574.29C503.07 569.683 502.032 519.062 496.429 513.568C488.219 505.52 452.842 507.465 440.789 505.926C437.281 505.517 426.55 505.746 423.469 506.062C423.632 497.547 424.841 487.497 425.893 478.966C433.847 481.87 439.83 482.431 448.229 482.85C448.216 486.668 447.677 490.503 450.05 493.444C453.538 495.625 463.078 496.539 465.779 492.438C466.832 490.839 467.043 485.801 467.205 483.712C475.503 484.314 491.297 486.105 497.428 480.247C503.424 474.518 504.685 461.433 507.409 453.099C506.734 466.002 507.354 479.443 507.614 492.409C508.298 515.404 508.536 538.411 508.328 561.415C508.226 567.855 507.83 573.266 506.5 579.537C506.332 580.336 506.559 580.707 506.973 581.298C511.215 576.292 512.078 564.953 512.013 558.595C511.659 523.726 512.767 486.641 509.919 451.978C509.743 449.784 509.512 447.594 509.225 445.411C513.535 439.327 515.176 438.877 522.374 435.884L522.992 434.81C522.466 433.634 522.542 433.68 521.559 432.864L521.478 431.971Z" fill="#787878"/>
<path d="M575.837 522.936C577.575 525.557 579.218 592.569 579.353 602.097C549.517 613.178 479.35 610.382 447.45 604.291L440.349 602.379C440.163 598.694 440.414 594.043 440.514 590.286C464.015 593.947 507.861 598.121 529.859 585.792C538.039 581.202 539.92 573.991 541.89 565.549C558.53 552.062 566.201 541.551 575.837 522.936Z" fill="#f7f7f7"/>
<path d="M448.683 477.081C443.902 477.052 427.852 476.294 426.492 471.298C423.427 460.036 430.424 432.579 443.001 429.289C458.658 425.193 507.737 426.277 521.478 431.971L521.558 432.864C498.998 429.552 503.17 464.939 493.579 475.479C489.52 479.941 473.606 478.592 467.453 478.446C467.481 477.302 467.659 472.082 467.392 471.434C465.58 467.042 454.68 467.277 451.213 468.321C448.631 470.601 448.984 473.417 448.683 477.081Z" fill="#787878"/>
<path d="M363.705 259.229C370.617 274.691 364.871 287.993 366.801 303.459C367.446 308.629 376.044 313.83 376.038 318.777C376.036 320.407 370.837 323.945 369.126 325.583L368.732 325.964L367.079 339.249C360.594 336.117 347.483 334.679 344.894 343.392C345.273 345.382 344.945 344.644 346.45 346.176C349.101 345.893 351.892 342.468 354.407 341.576C357.3 340.551 362.936 342.925 365.725 343.961C363.213 351.579 360.737 355.506 354.849 360.757C348.604 364.863 344.986 365.784 337.514 366.458C337.684 349.018 329.184 340.665 323.957 325.009C321.346 317.188 321.075 310.723 320.868 302.673C328.838 293.798 330.257 289.233 333.533 278.119C335.372 276.664 342.465 270.79 344.112 270.221L344.474 273.136C350.461 277.519 361.001 263.232 363.705 259.229Z" fill="#f7f7f7"/>
<path d="M354.934 289.417C363.807 291.96 361.835 306.658 355.447 311.522C347.263 307.789 348.244 294.619 354.934 289.417Z" fill="#323232"/>
<path d="M346.902 276.139C350.924 276.294 352.219 278.188 355.489 280.157C358.43 281.928 361.351 283.728 364.511 285.09C365.357 285.455 365.065 286.349 365.038 287.093C363.913 288.933 363.348 289.055 361.391 290.175C356.933 288.737 353.015 284.708 349.099 282.215C348.298 281.706 344.783 280.243 343.661 279.718L343.426 278.93C344.368 277.269 345.13 277.093 346.902 276.139Z" fill="#323232"/>
<path d="M280.239 395.159L281.242 395.33C292.401 405.096 278.381 495.026 274.863 511.428C273.575 517.433 271.83 522.42 267.869 527.121L267.208 527.077C260.197 526.579 252.502 525.835 247.796 520.389C247.816 514.19 250.247 499.981 251.245 492.878C254.076 472.912 257.04 452.964 260.135 433.038C261.459 424.44 264.691 413.966 263.242 405.502C264.035 403.419 265.808 402.133 267.501 400.571C271.374 401.234 276.293 403.25 279.778 403.173L280.238 402.346L279.641 400.912C277.008 398.511 272.672 398.754 269.043 398.536C272.685 397.568 276.802 396.606 280.239 395.159Z" fill="#5b5b5b"/>
<path d="M599.203 327.388C603.225 327.438 607.348 327.379 611.382 327.37C615.37 335.849 618.801 339.888 626.271 345.282L625.174 352.921C619.273 357.847 619.352 364.899 617.839 372.175C615.657 382.948 613.362 393.697 610.96 404.423C601.437 407.038 578.031 411.468 568.322 412.323C560.675 406.447 551.37 405.548 542.089 404.107C540.509 402.799 541.058 403.581 540.339 401.7C540.688 400.898 540.996 399.989 541.945 399.702C553.092 396.327 561.363 392.21 570.415 384.424C587.34 370.096 597.73 349.514 599.203 327.388Z" fill="#f7f7f7"/>
<path d="M493.163 519.588C496.139 522.631 496.132 567.326 491.891 569.261C475.977 576.522 436.123 572.433 419.37 565.993C415.779 564.609 416.619 545.935 416.665 542.467L416.799 532.562C435.155 535.39 464.926 537.208 483.508 537.033C483.313 547.025 482.665 557.599 485.568 567.197C488.142 554.293 483.877 527.741 493.163 519.588Z" fill="#787878"/>
<path d="M243.144 111.994C266.673 109.714 259.553 185.815 257.446 199.294C250.726 201.871 246.262 204.18 240.058 207.59C237.891 208.887 235.468 210.56 233.326 211.963C225.573 186.492 218.942 130.106 243.144 111.994Z" fill="#f7f7f7"/>
<path d="M564.328 703.667L565.487 703.728C566.578 705.714 563.107 757.393 562.669 763.974C551.066 768.659 536.222 768.957 524.235 765.616C523.466 759.53 523.238 750.773 522.829 744.501C521.965 731.266 521.281 717.869 521.509 704.611C536.072 708.11 550.034 708.611 564.328 703.667Z" fill="#f7f7f7"/>
<path d="M259.636 412.144C259.698 414.892 257.055 428.406 256.421 432.375C253.509 450.751 250.818 469.162 248.35 487.603C247.093 496.757 245.63 505.863 244.925 515.078C243.94 527.937 253.764 528.396 263.415 530.223C245.429 535.736 190.075 531.234 179.549 514.906C194.475 518.527 200.541 520.059 215.869 521.905C222.429 522.541 225.83 522.519 231.897 520.413C233.185 519.132 234.298 517.684 235.203 516.108C240.175 507.335 244.592 473.464 241.454 462.738C232.998 454.453 200.109 451.426 187.985 450.193C189.867 443.041 191.297 436.181 192.806 428.957C197.275 430.642 200.609 431.583 205.33 432.166C205.207 434.918 204.755 438.309 205.729 440.79C208.952 444.543 214.953 445.49 219.112 442.866C221.96 441.069 222.268 437.617 222.943 434.593C249.063 437.926 250.167 435.717 259.636 412.144Z" fill="#787878"/>
<path d="M222.015 383.83C237.36 382.953 263.602 387.282 278.187 392.904C247.311 393.937 256.868 427.09 239.323 430.019L223.814 428.944C225.751 416.609 220.061 418.031 209.537 417.849C208.206 420.884 207.635 423.504 206.822 426.705C190.917 423.972 188.573 421.557 195.623 405.995C202.019 391.877 206.094 385.047 222.015 383.83Z" fill="#787878"/>
<path d="M452.015 699.859C467.758 704.848 477.4 705.5 493.475 701.653C492.086 719.77 489.22 739.045 487.495 757.404L487.131 759.592C483.1 766.128 457.516 763.203 450.75 760.835C450.222 754.513 450.361 744.175 450.356 737.752C450.347 725.968 449.763 711.316 452.015 699.859Z" fill="#f7f7f7"/>
<path d="M236.165 468.197L237.207 468.761C237.732 469.738 238.012 471.123 237.806 472.418C236.677 480.512 234.921 510.324 229.183 515.032C223.878 519.385 178.799 511.636 173.55 504.717C170.727 500.997 173.558 486.044 174.388 481.031L175.808 474.338C188.637 478.261 211.898 481.502 225.192 482.658C222.901 493.283 221.683 502.618 222.77 513.478C227.259 500.604 225.57 476.2 236.165 468.197Z" fill="#787878"/>
<path d="M636.165 288.421C647.652 288.74 646.431 303.207 650.526 306.079L651.696 305.553C653.53 301.254 647.764 293.04 648.524 289.718C655.127 290.709 655.262 302.176 659.172 306.863L659.875 306.715C661.045 301.954 659.425 297.362 658.215 292.663C668.301 305.395 665.224 322.585 660.814 337.181C660.094 339.579 658.041 343.699 655.735 344.861C654.953 345.255 653.485 344.443 652.579 344.107C644.552 342.258 640.66 342.464 632.751 343.219C626.344 337.289 622.204 334.349 617.26 326.965C619.049 326.926 624.404 326.853 625.804 326.515C634.72 324.367 631.885 306.407 630.315 300.174C629.511 296.961 626.67 294.101 624.674 291.789L624.989 290.81C633.499 284.932 637.274 301.433 641.442 305.855L642.336 305.855C644.322 300.885 638.978 292.355 636.165 288.421Z" fill="#f7f7f7"/>
<path d="M720.9 284.285C731.121 283.178 733.596 295.108 733.81 302.928C734.006 310.119 731.891 316.127 726.97 321.275C717.205 321.063 702.872 322.041 692.86 322.472L685.024 322.867C693.011 310.326 693.484 297.508 682.926 286.353C695.503 285.523 708.25 285.08 720.9 284.285Z" fill="#b7b7b7"/>
<path d="M398.797 276.024C409.328 275.754 405.305 284.679 411.932 289.7L412.742 289.405C413.836 284.518 410.645 281.202 410.011 277.085C415.561 275.068 418.494 288.795 421.284 289.993C423.699 287.185 420.882 280.986 419.672 278.122C430.342 287.475 427.302 298.31 425.169 310.505C424.232 315.859 424.216 321.164 422.764 326.536C420.709 325.647 418.263 324.919 416.112 324.212C407.03 322.736 403.922 322.524 395.08 324.603C389.309 320.795 387.407 317.832 383.986 311.923C387.579 311.723 391.692 312.193 393.076 308.067C395.424 301.071 394.2 292.734 391.744 285.921C390.789 283.27 388.96 282.316 386.752 280.682C386.383 277.773 389.329 276.998 391.645 276.687C396.537 278.903 398.547 286.057 402.661 289.426L403.46 289.339C404.7 284.795 401.043 279.629 398.797 276.024Z" fill="#f7f7f7"/>
<path d="M267.298 732.268C280.686 736.03 285.45 737.375 299.396 737.543C301.678 742.791 313.778 766.73 319.368 765.565L320.474 763.788C326.039 763.265 336.478 768.316 335.705 774.885C334.288 776.561 333.899 776.145 331.284 776.584C307.028 779.486 300.044 769.148 280.303 758.028C273.543 754.22 267.25 752.1 259.822 750.199C261.885 743.674 264.201 738.331 267.298 732.268Z" fill="#f7f7f7"/>
<path d="M563.383 770.616C565.239 770.453 586.176 780.532 589.562 781.714C591.553 782.405 592.526 787.057 592.987 789.138C583.076 792.907 576.366 793.137 565.892 793.368C561.694 793.463 555.799 793.283 552.022 794.656C543.313 796.731 533.608 795.888 524.968 793.868C524.474 785.797 524.76 781.157 525.579 773.31C543.278 774.014 544.728 776.038 563.383 770.616Z" fill="#5b5b5b"/>
<path d="M428.053 510.885C433.718 510.546 443.83 511.213 449.751 511.519C464.19 512.268 478.758 512.651 492.891 515.766C490.8 516.884 489.048 518.141 487.107 519.48C485.019 523.927 484.45 526.898 483.354 531.66L482.202 532.337C461.58 532.787 438.123 530.261 417.752 527.71C415.109 527.379 418.765 516.605 419.894 515.102C422.307 511.889 424.43 511.476 428.053 510.885Z" fill="#787878"/>
<path d="M348.455 223.022C364.259 229.221 363.99 243.386 357.652 256.916C355.937 260.579 353.097 263.764 350.535 266.901L350.685 264.775C350.856 262.165 351.701 252.118 350.131 250.33C347.99 251.85 345.161 258.453 343.129 260.948C341.267 263.234 339.75 264.755 337.638 266.844C332.002 272.489 325.194 276.014 317.56 278.066C320.392 271.873 322.18 265.94 324.69 260.032C329.784 248.04 338.684 231.773 348.455 223.022Z" fill="#5b5b5b"/>
<path d="M132.142 588.654C133.285 589.054 133.065 589.037 134.086 589.785C135.941 593.581 134.017 602.024 132.54 605.731C126.895 619.893 118.64 655.672 104.902 662.775C91.6952 654.878 119.402 596.383 132.142 588.654Z" fill="#929292"/>
<path d="M486.743 767.258C487.802 767.483 497.732 772.928 499.188 774.3C503.078 777.973 502.851 778.204 503.254 783.148C498.781 784.987 472.697 791.157 467.791 791.427C465.253 791.416 462.716 791.32 460.184 791.152C446.642 790.24 450.976 778.401 452.039 768.231C465.025 770.914 474.098 770.976 486.743 767.258Z" fill="#5b5b5b"/>
<path d="M382.043 320.955C384.425 323.713 386.592 325.658 389.279 328.131C388.165 332.39 387.715 336.774 387.502 341.157C375.726 354.9 379.98 366.024 373.693 383.573C368.264 383.698 362.558 383.618 357.106 383.622L349.684 383.348C353.456 378.138 354.578 374.294 355.862 368.09C370.353 356.507 372.553 346.59 374.727 328.961C378.74 326.077 379.764 325.286 382.043 320.955Z" fill="#f7f7f7"/>
<path d="M183.251 455.646C194.783 455.077 225.504 459.922 236.259 464.187C229.22 467.328 228.952 469.3 225.936 476.276C225.438 477.273 225.588 476.944 224.64 477.717C218.021 478.21 182.912 471.594 175.549 469.66C177.266 463.238 178.082 459.993 183.251 455.646Z" fill="#787878"/>
<path d="M146.889 593.79C152.948 597.12 155.736 598.734 160.717 603.594C161.831 615.389 159.767 623.567 154.671 634.034C137.712 639.912 139.592 644.704 129.778 657.894C126.643 661.454 124.407 662.967 120.381 665.346C130.73 651.133 145.833 611.485 146.889 593.79Z" fill="#f7f7f7"/>
<path d="M418.741 468.329C421.39 475.15 418.042 499.741 416.933 508.056C416.202 513.542 410.531 516.621 410.986 527.32C411.484 539.014 408.921 552.725 411.71 564.542C412.341 567.202 421.457 578.514 421.116 582.035L419.489 581.928C417.322 581.635 409.129 580.775 408.397 578.407C406.536 572.394 406.845 564.986 406.017 558.689C401.473 524.128 406.032 500.615 418.741 468.329Z" fill="#f7f7f7"/>
<path d="M337.765 448.295L344.829 448.368C333.93 475.304 313.326 496.301 287.403 509.23L280.868 512.161C281.517 508.148 282.252 504.15 283.073 500.17C307.476 489.23 324.333 470.864 337.765 448.295Z" fill="#5b5b5b"/>
<path d="M314.794 289.032C314.964 289.325 315.134 289.618 315.305 289.911C314.431 304.731 314.152 318.323 320.284 332.234C324.024 340.717 335.567 361.996 330.179 370.96L329.507 370.21C312.757 357.26 308.282 335.932 310.29 315.859C311.172 307.042 311.949 297.452 314.794 289.032Z" fill="#5b5b5b"/>
<path d="M413.114 595.579C421.455 597.019 425.156 596.642 433.424 596.006C432.962 605.787 434.147 603.701 439.797 610.433C440.778 611.603 440.907 614.775 440.33 616.592L439.693 616.468L438.422 614.522C437.505 614.174 422.157 615.372 419.223 615.388L418.813 616.103C420.305 620.394 425.946 628.634 424.222 632.538L422.777 633.078C421.444 632.673 420.563 632.206 419.733 631.025C411.328 619.101 411.924 608.605 413.114 595.579Z" fill="#f7f7f7"/>
<path d="M426.96 598.779C431.282 602.812 426.676 609.949 423.096 613.037L422.431 612.542C422.238 611.209 426.156 602.834 426.96 598.779Z" fill="#323232"/>
<path d="M578.52 486.375C581.394 499.746 568.389 528.457 559.761 539.257C555.051 545.151 548.648 551.848 543.21 557.132C542.307 554.609 542.642 548.348 542.69 545.388C562.764 526.603 568.901 510.949 578.52 486.375Z" fill="#5b5b5b"/>
<path d="M675.675 290.487C685.699 288.38 688.129 312.853 681.3 317.669C678.156 319.888 678.454 319.44 674.719 319.402C672.975 319.375 672.446 319.327 670.731 319.022C669.808 307.098 670.933 301.275 663.801 290.903C667.828 290.888 671.665 290.69 675.675 290.487Z" fill="#b7b7b7"/>
<path d="M494.099 405.086C509.629 404.534 519.066 406.384 534.332 408.66C530.834 410.964 528.391 412.525 525.217 415.321C522.359 418.126 519.911 421.257 517.379 424.357C513.832 423.555 509.445 422.986 505.794 422.416C503.467 413.178 502.288 410.145 494.099 405.086Z" fill="#f7f7f7"/>
<path d="M607.157 298.344C612.675 298.112 618.199 298.02 623.723 298.07C626.198 303.696 628.633 315.187 624.741 320.527C619.33 320.624 613.637 320.959 608.203 321.206C611.708 309.992 610.352 308.643 607.157 298.344Z" fill="#b7b7b7"/>
<path d="M493.214 392.263C507.121 390.785 521.699 393.309 534.948 397.333C534.974 399.335 535.28 401.271 534.294 402.889C532.168 403.607 528.722 402.327 526.075 401.746C515.436 399.766 503.514 399.111 492.692 399.493C489.589 399.602 485.963 400.355 482.964 399.621C482.19 397.501 482.719 395.489 484.105 393.82C486.572 392.626 490.364 392.527 493.214 392.263Z" fill="#5b5b5b"/>
<path d="M269.615 715.647C280.934 719.224 290.757 720.552 302.497 721.047L299.989 731.323C293.729 733.781 275.426 728.572 268.45 726.435C268.914 722.948 269.241 719.168 269.615 715.647Z" fill="#f7f7f7"/>
<path d="M543.985 411.356C549.754 411.567 552.546 412.125 558.051 413.836C547.494 418.502 540.892 425.215 534.848 434.931C534.328 436.12 534.758 435.775 533.745 436.221C530.725 431.338 527.928 428.601 522.965 425.934C528.497 419.579 535.461 412.9 543.985 411.356Z" fill="#5b5b5b"/>
<path d="M258.492 754.373C278.552 757.82 290.591 771.719 309.379 779.413C319.795 783.677 332.899 779.644 335.999 780.73C336.395 782.327 336.401 781.483 335.479 783.294C306.046 790.454 297.279 775.802 273.282 763.378C270.774 762.078 261.265 759.204 258.082 758.158C257.449 756.476 257.84 756.566 258.492 754.373Z" fill="#f7f7f7"/>
<path d="M730.288 280.31C732.257 280.313 734.434 280.504 736.419 280.627C749.109 290.272 749.987 312.404 738.45 323.376C736.633 323.901 734.518 324.404 732.701 323.909C733.286 322.313 734.867 320.97 735.632 319.44C742.646 305.37 740.503 291.716 730.288 280.31Z" fill="#b7b7b7"/>
<path d="M399.853 329.73C408.585 329.027 415.875 329.219 423.648 333.592C423.621 336.185 424.12 341.363 422.041 342.831L420.028 341.814C411.204 338.447 403.219 338.978 394.131 339.927C394.128 337.182 393.781 334.057 394.991 331.751C396.537 330.21 397.699 330.198 399.853 329.73Z" fill="#f7f7f7"/>
<path d="M139.633 590.741C147.567 594.285 137.573 617.925 135.263 623.921C130.421 636.486 124.719 656.87 114.168 665.25L111.93 665.397L111.367 664.873C122.528 651.211 126.057 638.19 131.988 622.003C135.916 611.282 139.566 602.384 139.633 590.741Z" fill="#f7f7f7"/>
<path d="M166.511 604.077C167.472 604.392 170.205 605.292 170.842 605.984C177.871 613.661 173.114 629.737 167.597 636.959C165.376 637.971 162.494 636.661 159.985 635.935C165.268 623.381 166.529 617.796 166.511 604.077Z" fill="#f7f7f7"/>
<path d="M302.791 381.503C309.511 380.92 313.318 381.192 319.711 382.997C310.024 385.419 303.954 387.853 296.197 393.964C294.788 394.956 291.439 397.978 289.974 399.224C288.008 395.199 286.771 393.449 284.151 389.75C290.754 384.974 294.806 383.183 302.791 381.503Z" fill="#5b5b5b"/>
<path d="M563.878 694.757L564.902 695.168L564.874 696.957C561.24 704.719 531.968 701.642 524.935 700.089C523.066 699.235 523.263 698.672 522.947 696.923C524.101 695.455 527.772 696.332 529.791 696.681C542.152 698.813 551.729 697.401 563.878 694.757Z" fill="#787878"/>
<path d="M453.436 690.859C460.99 693.137 468.628 694.251 476.559 694.566C480.184 694.712 491.103 692.282 492.949 693.7L492.972 696.326C483.372 699.932 464.473 700.646 455.056 695.196C453.454 694.273 453.644 692.536 453.436 690.859Z" fill="#787878"/>
<path d="M476.732 407.337C484.725 406.921 492.64 407.134 497.444 414.905C498.773 417.053 500.211 419.394 499.661 421.942C496.118 422.259 494.696 416.582 488.994 412.509C471.141 405.464 470.085 419.693 464.639 420.261C463.504 414.083 471.681 409.06 476.732 407.337Z" fill="#5b5b5b"/>
<path d="M453.669 472.484C457.618 472.477 459.103 472.575 462.998 473.192L461.521 489.773C457.944 490.075 456.585 489.892 452.992 489.475C452.755 483.882 453.291 478.085 453.669 472.484Z" fill="#787878"/>
<path d="M379.708 286.865C380.668 286.797 383.741 286.525 384.478 286.822C391.302 289.584 389.407 300.955 387.854 305.68C386.315 305.856 384.99 305.842 383.44 305.857C380.112 303.547 382.802 298.545 382.153 294.336C381.617 290.862 381.136 289.973 379.708 286.865Z" fill="#929292"/>
<path d="M244.435 368.529C245.106 368.471 245.778 368.421 246.45 368.377C251.472 368.057 256.001 368.801 259.934 372.286C262.003 374.121 265.957 380.164 263.376 382.607C259.698 382.008 259.582 376.54 255.546 373.38C240.649 366.548 241.529 376.33 234.259 378.451L233.672 378.052C233.69 372.918 240.344 369.878 244.435 368.529Z" fill="#5b5b5b"/>
<path d="M261.284 764.271C269.181 764.322 290.798 779.019 298 784.109C288.324 783.429 268.289 770.841 261.284 764.271Z" fill="#787878"/>
<path d="M212.984 422.243C215.303 422.634 217.723 422.972 220.055 423.328C218.806 428.268 217.69 433.709 216.566 438.717L209.506 437.907C210.568 432.316 211.427 427.721 212.984 422.243Z" fill="#787878"/>
<path d="M597.324 299.783C607.354 299.919 605.61 311.971 603.439 318.477C602.19 319.447 601.177 319.886 599.794 319.132C599.113 312.128 598.061 306.339 597.324 299.783Z" fill="#929292"/>
<path d="M367.344 238.254C373.261 243.195 373.492 255.608 372.252 262.549C366.258 252.837 366.408 248.819 367.344 238.254Z" fill="#5b5b5b"/>
<path d="M348.539 370.833C349.377 374.495 345.174 379.992 342.048 381.792C340.109 381.842 340.777 381.888 338.859 380.266C336.577 378.194 335.853 377.874 336.331 374.758C338.517 372.011 344.538 371.741 348.539 370.833Z" fill="#f7f7f7"/>
<path d="M637.576 348.302C638.353 348.237 639.129 348.197 639.911 348.183C643.871 348.11 657.961 348.841 657.77 354.576L656.848 355.05L654.643 354.251C643.14 350.619 640.316 352.751 631.856 350.799L631.535 350.155C633.571 348.727 635.158 348.677 637.576 348.302Z" fill="#787878"/>
<path d="M477.909 415.204C481.761 415.151 489.456 416.259 490.644 420.58C489.372 421.637 488.364 421.228 486.328 421.202C482.99 421.062 474.948 421.603 472.892 419.183C473.72 416.987 475.749 416.225 477.909 415.204Z" fill="#f7f7f7"/>
<path d="M372.746 287.134C379.234 290.225 378.476 298.447 376.231 304.09L374.928 304.46L373.609 303.46C371.534 299.755 372.123 291.297 372.746 287.134Z" fill="#929292"/>
<path d="M424.69 619C426.624 619.016 427.621 618.825 429.268 619.697C430.82 623.021 434.63 631.846 434.091 635.153C432.597 635.536 432.5 635.44 431.012 635.266C429.174 633.877 426.474 623.162 424.69 619Z" fill="#f7f7f7"/>
<path d="M411.341 586.765C414.792 587.305 431.578 588.21 432.761 589.014L432.869 590.364C428.265 591.034 412.951 592.547 411.341 586.765Z" fill="#f7f7f7"/>
<path d="M460.127 412.139C460.736 412.098 460.684 412.186 461.326 412.433C459.296 419.769 459.017 421.107 451.562 421.453C450.599 421.303 451.067 421.435 450.207 420.724C450.899 417.035 457.023 413.724 460.127 412.139Z" fill="#787878"/>
<path d="M433.756 617.919L435.252 618.178C438.445 620.434 442.5 630.102 440.765 634.416L439.396 633.595C437.816 630.142 433.042 621.137 433.756 617.919Z" fill="#f7f7f7"/>
<path d="M326.067 281.957L326.456 282.296C326.674 285.121 322.938 291.1 321.401 293.782C320.715 290.466 320.71 286.826 320.593 283.418C322.35 282.772 324.239 282.39 326.067 281.957Z" fill="#5b5b5b"/>
<path d="M431.758 277.897C433.895 277.932 433.854 277.564 435.185 278.6C435.484 280.999 433.138 284.112 431.781 286.467C430.502 285.117 428.521 281.978 428.479 279.93C429.393 278.264 429.354 278.745 431.758 277.897Z" fill="#929292"/>
<path d="M245.797 376.323C249.126 376.172 252.787 376.767 254.947 379.582L254.648 380.317L253.143 380.424C250.129 379.778 245.368 379.807 243.106 378.612L243.287 377.784L245.797 376.323Z" fill="#f7f7f7"/>
<path d="M373.658 276.506C377.965 277.482 379.979 277.44 381.123 281.801C378.913 281.878 375.877 282.327 374.155 281.279C373.135 279.264 373.531 278.957 373.658 276.506Z" fill="#f7f7f7"/>
<path d="M868.106 228.05C861.401 223.277 857.733 217.81 856.209 209.567C855.258 204.437 855.905 196.918 859.241 192.802C860.259 191.547 862.852 189.036 864.433 188.999C870.035 188.869 879.001 192.311 884.587 191.469C895.741 189.788 906.553 187.126 917.836 186.039C937.231 184.171 958.584 186.032 974.221 198.791C979.666 203.235 981.236 208.399 985.196 213.755C986.152 215.053 991.237 219.6 992.835 220.987C1000.64 227.767 1003.54 237.378 1004.6 247.459C1007.84 278.534 987.941 314.088 968.529 337.364C968.546 338.122 968.585 338.878 968.636 339.634C969.159 347.382 972.309 351.024 977.304 356.603C979.723 359.305 982.108 364.834 983.649 366.109C991.918 372.954 1002.54 377.225 1010.79 384.569C1013.87 387.257 1016.46 390.449 1018.46 394.01C1028.76 411.992 1042.57 458.86 1044.91 480.495C1046.96 499.365 1030.81 521.678 1018.41 535.658C1019.32 548.509 1024.28 574.903 1022.87 588.306C1022.6 590.876 1016.38 592.744 1013.75 593.582C1013.33 613.296 1011.44 633.382 1011.01 653.276C1010.25 687.682 1012.61 721.626 1013.52 755.992C1013.62 759.603 1013.27 761.51 1011.15 764.469C1011.73 770.223 1012.18 775.319 1012.45 781.089C1018.43 781.466 1036.97 785.707 1037.41 793.076C1036.64 795.578 1035.24 796.81 1032.92 798.003C1001.66 814.089 884.328 811.524 851.113 800.618C847.563 799.454 841.831 797.131 840.105 793.582C839.553 792.446 839.581 791.259 840.161 790.134C842.506 785.55 852.131 783.48 856.653 782.276C862.683 772.231 869.298 772.473 879.794 768.524C884.131 766.893 886.505 765.672 890.499 763.456C889.655 757.089 889.526 748.545 889.211 741.993L887.383 707.829C884.919 670.212 883.119 632.555 881.971 594.876C871.486 591.467 872.527 589.701 872.831 579.498C873.326 562.933 874.839 546.356 875.323 529.809C865.693 536.115 854.533 544 844.239 548.943C841.286 550.158 833.833 548.809 831.335 550.94C826.751 554.857 825.699 557.372 820.102 560.776C820.8 572.777 810.911 576.691 800.893 573.35C793.749 570.965 789.57 566.764 783.405 563.012L781.453 557.883C775.631 563.046 763.582 572.034 758.283 561.397C756.123 554.911 767.176 546.662 770.647 543.007C782.071 530.968 792.511 524.936 808.059 519.409C810.101 516.802 815.636 508.893 817.515 507.07C828.787 496.114 846.112 484.863 855.286 472.373C856.299 470.996 859.893 455.37 860.518 452.834C863.06 442.692 865.67 432.566 868.342 422.458C874.423 399.363 877.044 392.102 898.824 380.807C905.962 377.105 910.063 369.64 912.065 361.961C870.609 373.363 866.947 352.622 861.665 317.087C837.877 308.417 857.216 295.528 861.513 281.54C862.098 279.636 860.923 271.999 860.658 269.62C858.971 254.193 861.322 241.841 868.106 228.05Z" fill="#323232"/>
<path d="M1012.45 781.089C1018.43 781.466 1036.97 785.707 1037.41 793.075C1036.64 795.578 1035.24 796.81 1032.92 798.003C1001.66 814.089 884.329 811.524 851.114 800.618C847.564 799.454 841.832 797.131 840.105 793.582C839.554 792.445 839.582 791.259 840.162 790.134C842.507 785.55 852.132 783.48 856.654 782.276C853.364 793.992 862.071 796.017 871.47 797.457C882.675 799.173 893.554 798.734 904.81 798.109C911.076 802.84 922.72 801.827 930.387 801.338C944.415 800.449 943.611 796.675 944.657 784.818C951.554 791.214 963.535 790.578 972.068 791.956C973.626 792.204 975.989 794.155 977.159 794.555C979.78 795.455 984.921 796.09 987.694 796.242C993.921 796.585 1004.56 797.148 1009.62 792.822C1012.48 790.381 1012.27 784.627 1012.45 781.089Z" fill="#d5d5d5"/>
<path d="M964.536 371.472C983.16 371.649 990.428 377.944 1005.25 388.727C1007.18 390.134 1011.2 394.381 1012.21 396.538C1024.24 422.253 1033.55 451.433 1038.07 479.514C1040.49 495.556 1027.06 514.541 1017.24 526.19C1015.95 512.999 1014.98 499.416 1015.39 486.088C1016.02 465.774 1017.6 444.907 1016.06 424.594C1015.8 421.17 1015.87 421.492 1013.85 419.888L1015.22 419.797L1014.77 418.961L1014.18 419.06C1012.45 422.762 1011.94 438.363 1011.71 443.585C1010.88 462.929 1007.92 484.598 1009.01 503.859C1010.54 530.799 1014.1 558.211 1017.04 584.993C1007.8 589.015 997.875 589.898 987.941 591.169C985.956 585.657 982.08 566.865 978.801 564.435L977.771 564.823C975.201 568.963 972.9 585.994 971.387 592.176C951.812 595.787 921.791 593.863 902.115 591.563C895.86 591.186 885.527 588.902 879.705 586.849C879.581 567.18 881.674 543.811 882.641 523.824C903.42 507.062 905.529 500.579 913.388 474.815C915.075 469.291 920.458 448.183 918.023 443.784L917.139 444.128C913.629 449.752 906.615 477.227 903.358 485.128C900.793 491.34 898.369 498.945 893.739 504.534C883.693 516.674 855.253 536.223 841.573 542.77C829.063 535.628 823.838 526.478 820.221 513.013C829.727 505.705 853.656 486.27 860.608 477.208C864.99 471.492 873.394 425.781 877.213 416.348C884.959 397.2 882.821 396.857 901.575 387.133C922.579 376.24 941.378 372.647 964.536 371.472Z" fill="#f7f7f7"/>
<path d="M894.836 395.515C907.605 394.707 918.472 415.516 917.342 426.426C913.978 421.254 912.06 412.118 906.845 405.815C903.133 401.324 896.81 398.331 894.836 395.515Z" fill="#323232"/>
<path d="M979.048 584.779C981.484 587.136 981.934 594.358 983.897 596.619C988.684 599.083 1001.42 596.147 1006.95 595.235C1004.32 628.831 1003.17 663.226 1004.55 696.878C1005.4 717.531 1006.04 738.19 1006.91 758.844C999.787 761.493 977.36 763.816 969.598 757.483C969.193 757.151 968.496 753 968.406 752.117C965.801 726.992 962.449 701.951 959.524 676.86C958.123 664.705 955.879 652.308 954.748 640.176C954.332 635.738 956.514 626.064 957.69 621.609C961.971 619.826 973.625 615.731 975.482 611.58L974.841 610.737C969.896 609.702 960.137 613.634 955.817 616.187C951.536 618.713 951.283 620.22 950.265 624.618C946.974 643.697 943.987 663.608 942.48 682.901C940.376 709.736 940.837 737.797 939.004 764.491C924.71 767.641 910.896 766.87 897.187 761.707C895.708 746.177 895.517 726.862 894.617 710.877C892.311 672.771 890.336 634.647 888.677 596.507C912.707 600.438 935.73 602.086 960.086 600.354C976.252 599.206 976.191 600.573 979.048 584.779Z" fill="#f7f7f7"/>
<path d="M920.638 192.592C934.678 190.357 954.152 193.732 966.471 201.555C977.423 208.509 975.893 217.024 986.091 224.133C999.146 233.235 998.888 251.324 997.043 265.472C993.713 291.052 979.605 310.38 965.576 331.159C950.591 329.395 948.864 326.214 943.734 313.211C946.913 310.132 949.016 307.98 951.294 304.193C959.074 289.35 952.633 262.908 931.348 272.51C927.158 274.4 926.432 278.503 923.147 281.686L922.455 281.511C921.004 277.673 921.51 271.813 920.278 268.4C917.73 261.317 911.829 255.802 911.306 247.75C910.946 242.212 915.969 231.615 913.089 226.831C905.822 214.77 884.796 228.362 873.607 223.53C869.096 221.58 866.841 218.884 864.956 214.918C861.367 207.346 862.149 202.933 864.816 195.531C883.912 201.592 900.793 194.68 920.638 192.592Z" fill="#5b5b5b"/>
<path d="M899.246 227.974C905.333 227.429 910.148 227.777 907.74 235.036C902.149 251.891 907.892 256.537 915.255 270.535C916.96 273.777 915.418 285.912 919.598 287.674C928.811 291.555 929.425 277.882 936.473 276.225C942.75 275.001 947.936 280.139 948.752 286.063C949.731 293.182 947.756 302.177 942.323 307.106C939.01 310.116 931.084 310.125 928.901 313.303L929.548 314.362C932.805 316.509 934.639 316.125 938.492 316.009C944.348 330.698 946.671 333.49 962.449 336.742C962.393 339.066 962.59 342.279 962.674 344.675C945.563 344.744 934.678 348.663 920.582 357.704L919.08 358.575C916.453 358.258 915.767 354.413 913.776 354.899C884.678 361.993 878.878 362.834 870.626 332.504C877.815 332.228 887.113 331.166 891.76 324.649C892.395 323.759 892.041 323.511 891.726 322.55C890.848 322.01 890.28 321.387 889.234 321.855C881.449 325.336 878.035 326.91 869.518 327.53C868.838 323.676 869.018 318.239 867.932 314.532C866.548 309.797 858.814 311.061 856.598 305.91C856.688 300.263 866.43 289.606 867.583 283.171C868.433 278.443 867.904 273.636 867.313 268.924C865.435 253.788 867.842 243.612 874.423 229.979C882.844 231.414 890.91 229.46 899.246 227.974Z" fill="#f7f7f7"/>
<path d="M878.023 271.358C887.563 272.709 886.849 285.42 881.674 291.587C872.865 291.239 872.949 277.194 878.023 271.358Z" fill="#323232"/>
<path d="M875.953 250.953C881.364 250.5 894.274 252.589 891.231 260.063C889.453 260.684 890.353 260.673 888.441 259.834C880.543 255.114 874.783 259.027 871.065 255.604L871.054 254.295C872.269 252.4 873.861 251.951 875.953 250.953Z" fill="#323232"/>
<path d="M889.318 314.885C895.539 316.388 901.946 321.387 898.048 328.225C896.94 327.064 896.079 324.728 894.69 322.967C892.749 320.513 890.077 318.73 888.604 316.343L889.318 314.885Z" fill="#323232"/>
<path d="M894.898 768.816C897.407 768.451 910.671 772.388 915.756 772.636C923.67 773.024 929.216 772.591 937.074 772.146C937.434 779.244 937.614 786.348 937.609 793.458C928.997 795.32 915.784 795.944 907.762 791.866C905.383 791.09 897.531 791.776 894.662 791.872C883.552 792.26 872.454 792.052 861.913 788.098C862.042 787.681 862.177 787.265 862.312 786.855C865.44 777.428 875.717 777.484 883.755 773.94C887.659 772.219 891.084 770.751 894.898 768.816Z" fill="#5b5b5b"/>
<path d="M808.493 525.869L809.713 526.153L810.388 528.124C813.403 537.002 818.128 542.52 824.991 548.426C819.613 555.986 815.259 554.944 808.965 560.573C807.716 561.688 807.621 562.444 807.677 563.811C809.258 564.621 811.755 563.602 814.23 563.332L814.506 564.114C812.959 567.005 809.781 569.103 806.372 568.901C798.294 568.423 803.7 558.821 800.134 555.198C796.337 555.611 799.284 562.579 796.517 565.115C790.178 562.192 795.983 552.288 792.793 548.67L791.528 549.105C790.729 551.489 789.705 558.178 788.304 559.291C784.62 554.508 788.856 546.859 786.561 542.813L785.526 543.195C783.653 545.182 783.056 547.733 782.173 550.351C778.59 553.124 769.292 561.396 764.814 560.07C763.397 555.682 777.673 544.709 780.784 541.371C788.304 533.294 798.474 529.837 808.493 525.869Z" fill="#f7f7f7"/>
<path d="M967.759 764.902C967.984 764.913 977.018 766.82 978.216 767.056C988.251 769.07 994.601 768.277 1004.41 766.685C1005.64 773.046 1005.75 780.904 1005.78 787.361C999.984 789.369 996.862 789.358 990.776 789.521C983.981 789.11 981.129 789.504 975.667 785.398C969.306 784.959 954.602 784.318 950.355 779.976C944.466 773.952 963.917 767.41 967.759 764.902Z" fill="#5b5b5b"/>
<path d="M951.272 668.035C952.363 672.225 954.141 689.453 954.776 694.47C957.662 716.446 960.244 738.455 962.533 760.492C958.601 762.916 953.465 764.345 948.853 766.994C946.254 769.103 946.057 770.583 943.903 772.945L943.464 772.422C943.391 768.614 946.254 763.006 946.322 758.703C946.62 739.878 947.694 720.923 948.336 702.097C948.611 693.936 949.539 675.622 951.272 668.035Z" fill="#f7f7f7"/>
<path d="M956.037 359.058C962.033 358.516 965.847 358.692 971.792 359.482L975.859 366.351C957.128 365.882 948.882 366.555 930.769 370.48C925.043 372.192 919.39 373.938 913.579 375.355C927.777 365.4 938.897 361.17 956.037 359.058Z" fill="#f7f7f7"/>
<path d="M959.968 350.09C961.993 349.974 965.588 349.633 965.88 352.127C962.421 353.453 952.324 353.236 947.931 354.037C941.304 355.246 935.859 357.381 929.571 359.645L921.893 363.197C932.327 354.542 946.699 350.999 959.968 350.09Z" fill="#f7f7f7"/>
<path d="M814.984 520.034C816.756 521.256 819.163 528.511 820.665 530.954C823.742 535.941 828.146 540.214 832.05 544.593C823.388 544.038 814.815 528.42 814.984 520.034Z" fill="#f7f7f7"/>
<path d="M717.458 574.391C721.232 574.784 721.665 575.352 724.646 577.456C734.119 584.138 770.018 594.015 776.104 600.506C776.233 601.242 776.453 601.58 776.098 602.277C774.636 605.168 730.254 622.082 724.41 624.382L724.472 642.088C738.574 642.465 769.691 653.248 749.846 670.436C765.855 676.32 783.101 688.874 761.591 703.053C770.192 706.636 779.209 710.377 783.619 719.207C788.49 728.972 781.498 735.524 773.252 739.265C790.363 744.766 800.156 750.593 805.646 768.383C813.668 768.299 827.859 771.629 829.378 782.501C830.486 790.387 815.49 790.398 809.601 790.561C809.893 793.666 810.765 796.478 808.06 798.773C801.101 804.673 786.583 803.278 778.112 803.149C774.405 802.84 767.306 802.446 764.235 799.96C763.678 799.662 761.991 795.005 761.546 795.038C726.424 797.603 689.462 799.105 654.947 790.944C650.194 789.819 644.659 786.54 640.356 783.98C635.721 783.918 623.177 785.443 620.82 783.508C620.798 781.669 620.533 782.49 621.737 780.994C625.691 779.042 632.188 778.991 636.739 778.71C636.334 777.844 635.951 776.961 635.597 776.072C629.173 759.665 653.147 746.251 665.134 741.683C638.134 725.664 661.613 710.574 679.641 703.52C675.557 701.237 671.726 698.829 669.69 694.386C668.453 691.658 668.385 688.536 669.516 685.763C672.576 678.136 682.065 673.912 689.091 670.875C668.993 654.322 699.491 644.507 712.243 642.111C712.131 633.157 711.467 580.347 713.278 576.545C714.887 574.936 715.163 574.987 717.458 574.391Z" fill="#323232"/>
<path d="M761.412 743.708C765.973 742.932 779.074 747.679 783.13 749.946C792.9 755.396 796.748 760.239 799.977 770.476C798.047 772.894 794.92 775.859 792.67 778.12C779.26 776.522 774.141 779.172 764.77 788.418C762.188 788.559 759.488 788.84 756.906 789.082C731.301 791.506 705.572 791.759 679.928 788.925C668.503 787.727 630.597 784.324 643.298 763.417C647.86 755.919 665.382 746.639 673.881 745.581C679.928 744.833 691.74 747.634 698.952 747.989C719.865 748.939 740.818 747.505 761.412 743.708Z" fill="#b7b7b7"/>
<path d="M752.22 769.351L753.362 769.626C752.951 770.819 753.176 770.594 751.961 771.488C740.486 779.931 730.766 780.386 717.188 778.862L715.551 778.237C717.604 777.45 727.043 777.326 730.159 776.865C738.99 775.56 744.171 772.95 752.22 769.351Z" fill="#323232"/>
<path d="M653.36 764.868C654.311 764.868 681.322 772.883 682.987 773.76C682.11 773.89 681.227 773.968 680.343 773.996C670.972 774.356 660.363 771.403 653.36 764.868Z" fill="#323232"/>
<path d="M779.67 760.599L780.221 761.324L779.799 762.258C775.654 765.368 766.277 766.718 761.254 767.23L760.877 766.493C762.671 764.356 776.07 761.476 779.67 760.599Z" fill="#323232"/>
<path d="M690.992 707.126C692.612 706.884 704.959 708.605 707.614 709.021C722.672 711.406 738.557 708.678 753.07 707.339C758.751 706.816 778.202 716.367 778.917 723.37C780.098 734.917 756.422 738.41 749.054 739.715C726.745 742.87 687.623 744.979 666.006 735.013C663.897 733.989 659.594 730.563 659.459 728.167C658.756 715.208 682.532 708.886 690.992 707.126Z" fill="#b7b7b7"/>
<path d="M669.088 719.146C671.889 719.275 676.35 722.723 679.129 723.111C692.544 724.967 697.669 724.427 709.52 731.205C703.805 731.835 700.419 728.646 695.059 727.757C686.992 726.424 673.177 728.173 669.088 719.146Z" fill="#323232"/>
<path d="M697.523 674.43C704.813 675.543 714.381 677.388 721.75 676.91C735.638 675.808 744.058 671.876 757.26 680.195C778.258 693.435 754.24 700.174 743.209 702.384C727.009 705.219 700.195 703.801 684.31 698.599C681.762 697.777 675.49 694.92 674.854 692.113C672.57 681.939 691.51 676.291 697.523 674.43Z" fill="#c9c9c9"/>
<path d="M754.082 686.124L754.925 686.23L755.398 687.018C750.245 695.123 733.123 695.494 724.64 695.477C723.054 695.382 723.099 695.669 722.312 694.808C730.783 690.37 739.361 694.617 754.082 686.124Z" fill="#323232"/>
<path d="M690.824 656.667C703.103 645.199 735.098 645.221 748.092 655.852C751.911 661.752 749.082 665.374 742.754 667.416C729.495 671.674 711.726 671.859 698.22 668.496C692.061 666.955 686.273 662.984 690.824 656.667Z" fill="#d5d5d5"/>
<path d="M748.092 655.852C751.911 661.752 749.082 665.374 742.754 667.416C729.495 671.674 711.726 671.859 698.22 668.496C692.061 666.955 686.273 662.984 690.824 656.667C692.972 657.736 693.9 657.905 696.195 658.45C704.357 660.97 709.369 660.891 716.721 662.55C723.533 663.113 742.174 659.204 748.092 655.852Z" fill="#b7b7b7"/>
<path d="M696.195 658.45C704.357 660.97 709.369 660.891 716.72 662.55C712.147 664.795 698.968 663.855 695.947 659.744L696.195 658.45Z" fill="#323232"/>
<path d="M724.416 583.356C738.118 588.66 754.251 595.759 767.908 601.485L755.86 606.125C745.403 610.585 734.878 614.899 724.298 619.067L724.416 583.356Z" fill="#b7b7b7"/>
<path d="M784.097 783.081C790.442 782.692 801.585 786.118 803.942 792.53C803.272 797.823 794.396 797.3 790.042 797.581C784.716 797.676 771.047 798.773 768.116 794.408C768.566 788.469 778.731 784.014 784.097 783.081Z" fill="#b7b7b7"/>
<path d="M808.026 774.109C813.189 774.317 819.827 776.275 822.864 780.78C823.106 782.738 823.297 781.832 822.133 783.57C819.939 784.97 817.341 784.841 814.635 785.038L806.057 785.207C803.874 783.367 801.259 781.596 798.913 779.931C802.474 776.095 802.901 775.111 808.026 774.109Z" fill="#b7b7b7"/>
<path d="M717.451 579.464C718.498 579.919 718.346 579.88 719.28 580.549C719.572 582.428 719.656 602.125 719.516 604.69C718.993 614.533 720.5 633.983 719.308 642.842L717.356 641.605C716 634.686 716.81 587.271 717.451 579.464Z" fill="#f7f7f7"/>
<path d="M260.317 772.101C267.532 776.826 279.868 785.071 287.988 788.114C300.144 792.67 319.518 792.423 332.334 790.567C339.54 789.521 342.546 786.039 342.674 778.8C348.193 779.936 361.936 781.865 364.664 786.444C364.726 787.614 364.974 788.165 364.167 789.099C356.282 798.222 300.287 800.618 286.514 801.186C263.974 802.114 159.274 802.851 145.777 789.391C144.822 788.441 144.909 788.148 144.889 786.877C150.266 775.183 222.86 773.192 237.649 772.647C241.712 772.5 258.395 773.007 260.317 772.101Z" fill="#d5d5d5"/>
</g>
<defs>
<clipPath id="clip0_15501_18341">
<rect width="1152" height="896" fill="#ffffff"/>
</clipPath>
</defs>
</svg>
