<svg width="956.819" height="699.866" viewBox="90.581 103.733 956.819 699.866" fill="none" xmlns="http://www.w3.org/2000/svg">
<path d="M243.714 105.318C244.713 105.271 245.714 105.308 246.707 105.428C272.674 108.37 266.213 180.01 264.239 197.243C267.749 196.647 271.39 196.149 274.921 195.619C276.958 167.452 288.494 124.46 314.08 108.154C321.018 103.733 331.93 106.753 334.357 115.121C342.12 141.895 330.254 172.602 320.429 197.204C336.413 201.577 350.571 202.917 356.424 220.338C377.208 233.726 382.94 246.669 375.952 270.996L383.865 273.981C393.752 267.386 413.396 272.25 424.08 274.88C429.403 272.795 433.6 272.762 439.23 272.347C451.363 256.322 463.557 244.884 483.286 238.398C506.546 230.827 531.852 232.719 553.728 243.665C574.335 254.188 588.499 271.85 595.536 293.721C601.993 292.261 610.768 292.354 617.619 292.076C625.258 277.372 645.621 284.671 658.592 286.259C660.679 286.515 664.723 286.122 666.934 285.953C678.128 276.222 696.392 281.47 710.038 278.875C715.973 277.748 720.338 275.938 726.818 274.813C755.37 269.858 760.506 319.403 739.35 328.972C730.429 332.98 719.139 328.488 709.959 327.893C696.6 327.027 682.543 332.399 669.487 325.953C667.789 334.46 665.792 339.959 661.944 347.645C662.181 348.189 662.394 348.74 662.586 349.3C663.553 352.147 666.816 366.86 666.731 369.247C666.158 385.701 662.237 421.249 655.391 435.243C645.958 454.526 604.266 468.322 585.079 474.373C586.288 490.766 582.598 496.499 582.542 513.305C582.441 542.627 586.35 574.97 585.259 604.33C585.186 606.327 580.449 608.656 578.633 609.663C578.228 623.403 576.872 637.549 576.163 651.341C575.657 661.246 574.864 671.387 574.245 681.303C574.014 684.999 571.23 691.09 571.061 695.027C570.853 699.836 572.361 706.721 572.091 711.378C571.056 729.467 570.009 747.78 568.626 765.835C577.277 771.027 586.654 771.758 594.247 777.945C598.399 781.331 600.626 790.932 595.614 794.133C585.782 800.421 570.308 798.812 559.361 800.078C549.088 801.259 540.273 802.992 529.837 801.675C512.72 800.382 519.47 784.166 519.344 773.018C519.298 768.833 517.821 762.517 517.535 757.865C516.563 741.987 515 725.884 515.361 709.972C515.46 705.731 516.669 699.223 517.313 694.858C511.322 685.499 510.895 662.584 507.895 649.592C505.733 656.386 504.572 668.547 503.502 675.864C503.324 681.196 499.748 689.082 499.624 693.936C499.026 717.25 495.195 740.845 493.202 764.03C502.278 768.423 516.668 779.604 506.045 787.58C500.956 794.391 448.628 802.716 446.303 792.642C444.007 782.704 443.697 713.33 445.256 702.575C445.551 700.359 447.883 694.195 447.639 692.755C445.684 681.584 443.866 671.044 443.359 659.648C443.15 654.963 443.472 643.973 441.954 640.052C437.191 638.19 423.802 643.393 416.164 634.782C404.747 621.918 408.004 608.785 406.901 593.222C406.625 588.43 401.85 580.932 401.477 576.73C399.668 556.367 395.956 529.49 399.711 509.632C404.564 483.967 414.642 457.342 427.7 434.931C430.63 429.903 437.847 422.955 441.955 418.754C437.452 417.174 431.168 414.955 426.644 413.874C424.058 417.222 421.853 421.725 419.473 425.009C407.687 441.28 372.976 444.364 354.287 446.988C354.259 453.111 354.049 459.977 353.165 466.017C351.574 476.895 348.007 489.377 347.223 500.246C345.321 526.593 345.466 551.642 342.299 578.002C339.666 599.673 336.406 621.266 332.524 642.746C329.051 661.083 324.289 678.316 323.011 697.058C322.186 709.162 317.882 713.976 308.601 721.018C307.421 724.877 306.318 731.463 305.498 735.592C308.159 742.645 312.672 750.79 317.426 756.69C324.658 758.101 330.834 759.204 336.8 764.047C341.675 766.668 344.107 783.789 339.817 786.826C330.199 793.638 301.472 791.574 290.765 788.441C281.157 785.634 262.065 773.395 255.178 766.769C246.215 758.147 258.27 737.814 261.673 729.056C262.817 725.912 263.063 717.413 263.275 713.583C259.328 708.211 256.321 701.321 257.132 694.628C260.202 669.289 264.015 650.581 260.807 624.725C254.315 636.987 250.116 652.359 237.184 660.329C221.275 670.127 198.114 660.627 181.038 657.983C171.156 656.454 166.807 651.301 161.908 643.191C138.188 637.409 142.022 662.759 126.232 669.148C97.3046 680.853 90.5811 656.06 99.6705 633.635C105.796 618.521 114.899 591.922 128.629 584.031C138.463 578.373 157.552 594.797 165.878 597.671C182.197 595.668 181.527 592.648 199.27 599.071C200.126 591.225 203.554 577.203 203.466 570.189C203.28 555.368 201.193 549.237 204.644 533.871L196.97 531.871C179.288 527.161 178.595 523.684 168.745 507.383C163.596 498.862 169.826 473.447 171.662 463.361C172.837 456.907 176.61 453.208 182.118 450.128C183.723 443.496 187.368 432.633 187.51 426.228C187.563 423.87 186.429 421.564 186.278 419.204C185.893 413.238 188.868 405.976 191.392 400.719C205.836 370.631 220.173 382.938 227.23 375.447C227.305 374.299 227.134 373.644 226.043 372.935C197.332 354.276 186.652 331.652 193.105 297.663C197.922 272.289 206.249 232.638 228.571 216.307C226.488 209.631 224.701 203.024 222.979 196.257C217.248 173.731 216.701 113.94 243.714 105.318ZM426.564 412.843C432.406 414.932 437.369 415.52 442.87 417.813C448.424 411.639 450.257 409.151 458.153 406.295L458.877 406.042C464.901 403.974 476.42 404.543 476.369 397.115C475.195 395.188 468.155 392.267 465.637 390.993C454.406 385.309 445.465 375.132 438.497 364.877C437.22 362.996 435.779 359.947 433.851 358.993C434.16 373.719 431.677 398.946 426.564 412.843Z" fill="#323232"/>
<path d="M347.446 457.805L347.776 458.208C347.373 470.467 341.887 487.063 340.913 500.63C339.593 518.999 339.755 537.449 338.139 555.621C335.542 583.255 331.827 610.77 327.003 638.106C324.698 650.536 321.687 663.068 319.161 675.47C317.299 684.61 317.636 694.065 315.167 703.076C313.228 710.152 310.424 712.564 304.42 715.956C292.584 716.153 280.404 713.549 269.15 710.062C266.066 707.03 263.56 703.003 263.445 698.644C263.225 687.377 266.312 676.303 267.584 665.053C270.298 642.049 267.3 619.072 263.744 596.354C262.147 586.151 260.207 583.435 250.816 578.884C246.948 577.006 241.787 573.569 237.558 572.939L236.984 573.445C238.864 578.547 250.625 585.544 255.443 589.11C256.856 594.228 259.293 605.719 258.493 610.669C246.273 650.744 235.309 666.786 193.866 654.018C182.428 650.497 177.433 653.99 168.645 642.757C172.072 639.94 174.144 636.97 175.93 632.926C179.962 623.606 180.143 613.065 176.435 603.61L176.235 603.11C182.801 593.958 212.909 613.324 219.676 613.914L220.288 613.268C218.897 608.003 209.658 603.025 205.067 600.995C206.281 593.891 210.498 575.403 210.141 569.255C209.252 553.944 207.436 551.506 210.804 535.493C226.409 538.238 250.727 542.578 265.845 536.158C273.377 532.96 276.562 526.925 279.213 519.666C311.737 504.637 329.769 489.181 347.446 457.805Z" fill="#ffffff"/>
<path d="M320.37 112.506C324.261 112.334 327.715 114.008 328.635 118.114C336.318 152.381 317.088 188.672 302.505 218.672C301.475 220.791 300.252 223.811 301.045 226.006L302.073 226.029C307.738 222.64 314.259 209.301 317.29 203.201C327.934 205.992 340.808 208.229 348.524 215.985C320.447 234.644 302.32 295.843 303.479 328.518C304.333 352.583 313.87 364.976 330.515 380.301C319.098 374.798 315.658 377.14 305.639 373.765C296.913 370.825 285.189 360.717 276.668 356.355L275.956 355.997C279.9 361.14 282.97 364.158 287.82 368.306C292.008 371.542 294.695 373.243 299.188 375.978C289.883 379.425 287.193 380.422 279.006 386.018L270.852 383.806C270.297 381.548 269.773 379.191 268.94 377.027C262.771 360.992 243.965 357.587 232.118 369.312C230.287 368.157 228.473 366.977 226.674 365.773C206.896 352.446 194.623 333.73 198.156 309.258C205.541 258.087 216.355 213.053 274.465 202.312C274.484 205.713 273.936 219.313 278.327 219.202C280.201 215.075 281.157 194.268 282.112 188.137C285.907 163.773 296.046 123.341 320.37 112.506Z" fill="#ffffff"/>
<path d="M457.766 377.299C422.403 344.898 424.145 286.239 462.409 256.86C496.275 230.857 547.785 235.725 575.151 268.888C599.962 298.794 598.297 346.24 571.601 374.137C566.916 379.005 561.578 383.198 555.737 386.595C550.349 389.942 544.413 392.313 538.202 393.601C519.288 385.805 498.89 383.87 479.178 390.031C470.809 386.47 464.824 383.059 457.766 377.299Z" fill="#ffffff"/>
<path d="M457.766 377.299C482.296 363.813 517.089 369.578 542.072 379.276C546.235 380.892 552.338 383.693 555.737 386.595C550.349 389.942 544.413 392.313 538.202 393.601C519.288 385.805 498.89 383.87 479.178 390.03C470.809 386.469 464.824 383.059 457.766 377.299Z" fill="#cbcbcb"/>
<path d="M558.488 290.375C588.757 292.014 592.144 345.592 561.32 352.695C531.278 353.487 526.955 295.335 558.488 290.375Z" fill="#323232"/>
<path d="M558.085 296C582.131 296.965 583.521 340.65 561.779 346.895C537.805 347.949 536.401 300.532 558.085 296Z" fill="#cbcbcb"/>
<path d="M399.82 343.825C402.411 343.634 404.805 343.859 407.218 343.92C428.298 344.463 428.66 356.193 426.705 374.18C425.488 385.373 423.469 408.881 416.64 418.525C402.193 438.924 361.739 439.122 339.334 441.966C335.151 442.409 324.599 442.174 321.802 444.474L321.925 445.506C324.982 448.047 327.281 447.656 331.307 447.817C322.568 463.025 315.275 471.351 301.693 482.534C295.628 487.153 291.147 489.74 284.559 493.351C285.599 488.157 286.429 480.293 287.138 474.911C290.303 452.326 291.796 429.538 291.601 406.733C307.924 386.016 324.668 388.588 347.651 389.801C357.962 390.348 368.289 390.539 378.613 390.375C381.642 390.337 387.789 390.595 390.169 388.988L390.193 387.926C388.128 385.774 383.742 385.06 380.86 384.469C384.4 370.029 383.269 346.057 399.82 343.825Z" fill="#ffffff"/>
<path d="M632.554 357.273C638.477 356.823 644.428 357.34 650.182 358.802C652.916 359.5 660.673 362.319 660.668 364.69C660.369 384.352 657.034 407.267 652.258 426.467C646.521 449.516 605.362 460.016 585.771 467.509C581.884 468.994 565.774 472.947 564.924 476.167C567.641 478.092 571.539 476.716 574.549 476.031C571.393 493.263 564.671 508.307 554.991 522.762C550.909 528.073 547.405 532.617 542.823 537.498C542.739 512.579 541.081 467.975 536.464 444.388C539.502 437.593 547.995 425.668 554.864 422.47C563.822 418.458 577.187 418.903 586.311 416.514C594.028 414.492 620.218 410.983 625.551 407.511L625.697 406.616C623.706 405.282 620.376 404.735 617.929 404.146C620.19 394.461 622.277 384.735 624.178 374.973C624.971 371.079 626.316 362.619 627.649 359.442C629.207 357.794 630.315 357.788 632.554 357.273Z" fill="#ffffff"/>
<path d="M447.789 611.114C483.779 619.275 536.132 617.886 572.231 611.356C570.763 635.693 569.874 663.721 567.045 687.71C555.995 694.819 532.822 693.756 520.746 689.645C519.362 684.836 518.911 680.583 518.257 675.651C517.229 667.517 515.243 646.515 511.869 639.113C510.496 636.104 489.694 629.849 485.606 632.982L486.085 634.068C490.066 637.308 497.465 639.383 502.44 641.048C500.069 652.23 497.851 678.165 494.673 687.142C491.905 688.075 489.051 688.739 486.154 689.116C477.874 690.156 460.939 690.055 453.647 685.19C450.69 683.216 450.316 665.116 450.054 660.993C449.006 644.383 448.251 627.757 447.789 611.114Z" fill="#ffffff"/>
<path d="M521.479 431.972C524.52 433.224 527.146 435.631 528.472 438.669C535.651 455.128 540.035 556.64 532.938 573.389C530.934 578.12 526.444 580.87 521.83 582.67C502.131 590.37 476.216 588.131 455.698 585.927C447.843 585.077 439.19 584.515 431.909 581.241C428.444 579.683 426.234 577.67 424.013 574.599C441.109 577.09 478.649 583.008 494.657 574.357C503.142 569.778 502.025 519.184 496.429 513.568C488.443 505.553 452.668 507.443 440.789 505.925C437.28 505.516 426.561 505.745 423.469 506.064C423.633 497.547 424.837 487.495 425.905 478.971C433.765 481.843 439.936 482.452 448.229 482.851C448.215 486.669 447.675 490.502 450.049 493.443C453.537 495.625 463.08 496.541 465.78 492.437C466.832 490.838 467.043 485.802 467.206 483.713C475.503 484.315 491.3 486.106 497.428 480.248C503.426 474.514 504.678 461.444 507.409 453.108C506.761 465.098 507.296 476.864 507.54 488.871C508.028 508.084 508.339 527.3 508.473 546.518C508.528 552.112 508.448 557.705 508.234 563.293C508.047 567.562 506.433 578.063 507.185 580.775L507.422 580.859L508.217 579.903L506.964 580.105L508.282 579.796C514.441 564.148 512.174 530.729 511.847 512.685C511.469 491.848 511.922 465.817 509.226 445.41C513.536 439.326 515.179 438.876 522.376 435.884L522.994 434.81C522.467 433.634 522.543 433.68 521.559 432.865L521.479 431.972Z" fill="#787878"/>
<path d="M575.842 522.94C577.597 525.597 579.223 592.547 579.358 602.12C548.517 613.099 480.08 610.5 447.422 604.285L440.349 602.378C440.164 598.694 440.415 594.043 440.515 590.286C464.02 593.947 507.858 598.126 529.859 585.792C538.036 581.207 539.919 573.997 541.888 565.554C558.539 552.028 566.122 541.647 575.842 522.94Z" fill="#ffffff"/>
<path d="M448.683 477.08C443.899 477.051 427.861 476.294 426.49 471.295C423.432 460.141 430.386 432.78 442.78 429.383C458.329 425.122 507.788 426.294 521.479 431.972L521.559 432.865C498.997 429.546 503.171 464.945 493.578 475.478C489.516 479.938 473.608 478.591 467.454 478.444C467.482 477.301 467.66 472.082 467.392 471.434C465.581 467.041 454.68 467.276 451.213 468.321C448.631 470.601 448.985 473.417 448.683 477.08Z" fill="#787878"/>
<path d="M363.701 259.248C370.604 274.295 364.88 288.317 366.799 303.459C367.456 308.641 376.038 313.823 376.038 318.777C376.038 320.406 370.838 323.945 369.126 325.583L368.732 325.964L367.08 339.247C360.595 336.12 347.481 334.677 344.893 343.393C345.274 345.382 344.946 344.645 346.45 346.177C354.228 345.346 348.702 337.636 365.724 343.961C363.215 351.576 360.735 355.509 354.849 360.757C348.604 364.863 344.987 365.784 337.515 366.459C337.684 349.018 329.185 340.665 323.957 325.009C321.346 317.188 321.076 310.722 320.869 302.672C328.838 293.805 330.261 289.225 333.534 278.119C335.371 276.665 342.466 270.79 344.112 270.221L344.474 273.136C350.456 277.517 360.995 263.246 363.701 259.248Z" fill="#ffffff"/>
<path d="M354.934 289.416C363.806 291.959 361.835 306.658 355.447 311.522C347.263 307.789 348.244 294.619 354.934 289.416Z" fill="#323232"/>
<path d="M346.906 276.139C350.922 276.292 352.224 278.191 355.489 280.157C358.43 281.927 361.349 283.728 364.509 285.088C365.36 285.455 365.066 286.344 365.038 287.093C363.912 288.934 363.346 289.056 361.388 290.177C356.927 288.73 353.018 284.712 349.099 282.216C348.301 281.707 344.782 280.242 343.662 279.718L343.426 278.93C344.368 277.269 345.133 277.092 346.906 276.139Z" fill="#323232"/>
<path d="M280.243 395.159L281.243 395.332C292.399 405.101 278.379 495.025 274.863 511.428C273.575 517.437 271.83 522.418 267.869 527.12L267.208 527.076C260.2 526.579 252.502 525.833 247.797 520.39C247.818 514.189 250.248 499.982 251.246 492.878C254.077 472.912 257.041 452.964 260.137 433.038C261.461 424.439 264.691 413.968 263.243 405.502C264.035 403.421 265.805 402.138 267.496 400.577C270.386 401.033 278.457 404.149 280.243 402.606L279.926 401.292C276.928 398.377 273.278 398.771 269.064 398.531C272.705 397.564 276.807 396.606 280.243 395.159Z" fill="#5b5b5b"/>
<path d="M599.203 327.388C603.225 327.438 607.348 327.379 611.376 327.37C615.375 335.853 618.795 339.883 626.271 345.282L625.174 352.923C619.217 357.929 619.408 364.666 617.872 372.018C615.673 382.841 613.367 393.642 610.959 404.421C601.464 407.034 578.003 411.47 568.322 412.322C560.675 406.446 551.368 405.547 542.089 404.106C540.509 402.799 541.058 403.581 540.339 401.7C540.69 400.898 540.996 399.991 541.946 399.704C553.089 396.328 561.367 392.206 570.414 384.424C587.34 370.097 597.729 349.515 599.203 327.388Z" fill="#f3f3f3"/>
<path d="M493.163 519.592C494.18 520.574 494.773 523.181 494.738 525.014C494.94 531.536 496.479 566.066 491.901 569.25C481.724 576.331 430.988 572.433 419.06 565.661C415.864 563.844 416.619 546.187 416.66 542.915L416.802 532.561C435.189 535.39 464.894 537.21 483.508 537.034C483.312 547.026 482.663 557.601 485.568 567.202C488.142 554.304 483.881 527.732 493.163 519.592Z" fill="#787878"/>
<path d="M243.179 111.992C266.613 109.833 259.619 185.752 257.446 199.293C250.717 201.878 246.28 204.169 240.068 207.584C237.914 208.874 235.464 210.563 233.328 211.956C225.74 186.582 218.78 129.798 243.179 111.992Z" fill="#ffffff"/>
<path d="M564.323 703.667L565.487 703.717C566.595 705.725 563.096 757.511 562.708 763.945C551.126 768.743 536.252 768.873 524.238 765.633C523.478 759.8 523.256 751.121 522.86 745.097C521.976 731.655 521.288 718.082 521.502 704.623C536.112 708.087 549.979 708.639 564.323 703.667Z" fill="#ffffff"/>
<path d="M259.636 412.144C259.699 414.927 257.126 427.968 256.494 431.916C253.578 450.276 250.886 468.67 248.419 487.095C247.138 496.415 245.645 505.699 244.924 515.077C243.94 527.872 253.613 528.336 263.237 530.219C245.575 536.031 190.059 530.96 179.58 514.971C194.968 518.54 200.561 520.043 216.425 521.984C223.579 522.279 225.244 522.727 231.899 520.412C233.188 519.131 234.299 517.684 235.204 516.108C240.176 507.337 244.595 473.46 241.453 462.735C232.998 454.461 200.249 451.445 187.985 450.192C189.863 443.177 191.305 436.053 192.811 428.948C197.211 430.639 200.671 431.587 205.329 432.169C205.206 434.92 204.755 438.31 205.729 440.791C208.951 444.543 214.953 445.489 219.112 442.866C221.96 441.07 222.269 437.618 222.944 434.594C249.059 437.928 250.171 435.716 259.636 412.144Z" fill="#787878"/>
<path d="M222.349 383.823C237.462 382.955 263.824 387.368 278.181 392.903C276.382 393.057 274.237 393.006 272.534 393.294C259 395.576 254.566 408.55 250.039 419.666C247.667 425.49 245.611 429.11 238.985 429.997L223.815 428.943C225.753 416.609 220.057 418.029 209.536 417.849C208.206 420.884 207.634 423.504 206.821 426.705C190.544 423.961 188.681 421.237 195.742 405.714C202.25 391.412 206.359 384.96 222.349 383.823Z" fill="#787878"/>
<path d="M452 699.87C467.975 704.859 477.203 705.483 493.477 701.67C492.074 719.837 489.23 739.13 487.488 757.528L487.141 759.592C483.203 766.117 457.472 763.186 450.75 760.846C450.249 755.976 450.343 744.94 450.36 739.884C450.402 727.453 449.654 711.963 452 699.87Z" fill="#ffffff"/>
<path d="M236.167 468.199L237.205 468.762C237.729 469.735 238.011 471.12 237.804 472.419C236.683 480.479 234.91 510.366 229.181 515.031C223.83 519.388 178.815 511.622 173.543 504.73C170.716 501.034 173.562 485.945 174.37 481.03L175.804 474.337C188.666 478.265 211.865 481.499 225.19 482.661C222.899 493.292 221.685 502.617 222.766 513.483C227.265 500.609 225.566 476.201 236.167 468.199Z" fill="#787878"/>
<path d="M636.216 288.443C648.641 288.705 645.542 304.934 651.189 305.882L651.966 305.052C652.59 300.979 649.221 294.331 648.045 289.815L648.647 289.311C654.795 290.409 656.145 303.638 658.558 306.83L659.34 306.757C661.714 302.884 659.318 296.933 658.226 292.674C666.833 303.6 665.528 315.951 663.098 329.124C662.237 333.792 660.038 341.579 656.072 344.729C655.2 345.424 653.586 344.481 652.556 344.102C644.535 342.256 640.654 342.463 632.751 343.223C626.349 337.294 622.204 334.349 617.265 326.969C620.218 326.894 626.844 327.177 628.718 325.11C633.876 319.43 632.025 304.754 629.64 298.074C628.864 295.897 624.735 293.185 624.819 291.046C625.348 290.582 625.883 290.096 626.586 289.976C637.459 288.118 636.536 303.517 641.329 306.304L642.566 305.684C644.721 301.396 638.657 291.892 636.216 288.443Z" fill="#f3f3f3"/>
<path d="M720.9 284.286C730.648 282.813 733.596 294.963 733.793 302.352C733.995 309.859 732.161 315.837 726.992 321.253C716.518 321.18 703.508 322.046 692.859 322.485L685.018 322.876C693.068 310.253 693.439 297.61 682.943 286.357L720.9 284.286Z" fill="#b5b5b5"/>
<path d="M398.822 276.028C409.295 275.739 405.332 284.701 411.932 289.701L412.743 289.406C413.874 284.349 410.507 281.173 410.061 277.172C415.839 274.261 417.036 288.35 421.748 290.006L422.471 289.339C422.757 285.81 421.319 283.675 421.011 279.958C422.401 280.447 423.775 282.356 424.481 283.644C429.543 292.87 426.558 300.914 425.146 310.524C424.352 315.938 424.167 321.36 422.767 326.535C420.706 325.645 418.259 324.918 416.104 324.21C407.028 322.736 403.917 322.525 395.082 324.605C389.311 320.796 387.408 317.833 383.986 311.923C387.579 311.724 391.693 312.194 393.077 308.068C395.423 301.071 394.201 292.735 391.745 285.92C390.791 283.272 388.959 282.317 386.751 280.686C386.373 277.792 389.347 277.017 391.644 276.666C396.564 278.582 400.184 289.561 403.527 289.386C404.637 284.814 401.069 279.667 398.822 276.028Z" fill="#f3f3f3"/>
<path d="M267.287 732.268C280.684 736.03 285.442 737.375 299.395 737.543C301.678 742.774 313.795 766.741 319.366 765.565L320.474 763.81C326.005 763.209 336.517 768.349 335.699 774.896C334.289 776.55 333.858 776.145 331.276 776.589C306.892 779.475 299.963 769.052 280.09 757.905C273.428 754.17 267.132 752.049 259.8 750.216C261.847 743.731 264.24 738.286 267.287 732.268Z" fill="#f3f3f3"/>
<path d="M433.851 358.993C435.779 359.947 437.22 362.996 438.497 364.877C445.465 375.132 454.406 385.308 465.637 390.993C468.155 392.267 475.195 395.188 476.369 397.115C476.419 404.543 464.901 403.974 458.877 406.042L458.153 406.294C450.257 409.151 448.424 411.639 442.87 417.813C437.368 415.519 432.406 414.932 426.564 412.843C431.677 398.946 434.16 373.718 433.851 358.993Z" fill="#f6f6f6" fill-opacity="0.968627"/>
<path d="M563.383 770.611C565.65 770.464 582.829 779.346 586.665 780.24C591.086 781.269 592.059 784.931 592.993 789.099C582.722 793.148 575.325 793.188 564.491 793.452C560.221 793.554 556.105 793.452 551.992 794.639C543.484 796.67 533.404 795.966 524.955 793.857C524.473 785.853 524.761 781.106 525.549 773.311C543.231 773.997 544.728 776.072 563.383 770.611Z" fill="#5b5b5b"/>
<path d="M428.051 510.886C433.713 510.546 443.832 511.213 449.751 511.52C464.186 512.269 478.762 512.65 492.889 515.767C490.8 516.884 489.047 518.141 487.107 519.48C485.02 523.926 484.45 526.896 483.355 531.657L482.202 532.336C461.577 532.785 438.126 530.261 417.752 527.711C415.113 527.381 418.765 516.606 419.894 515.104C422.31 511.891 424.427 511.477 428.051 510.886Z" fill="#787878"/>
<path d="M348.474 223.042C364.368 229.154 363.93 243.619 357.572 257.065C355.878 260.65 353.055 263.805 350.54 266.884L350.603 266.009C350.802 263.201 351.753 252.187 350.131 250.321C347.993 251.85 345.236 258.314 343.241 260.799C341.387 263.107 339.844 264.651 337.735 266.751C332.001 272.476 325.342 275.931 317.609 278.077C325.698 259.715 332.204 237.342 348.474 223.042Z" fill="#5b5b5b"/>
<path d="M132.156 588.654C133.293 589.042 133.075 589.037 134.09 589.779C135.865 593.441 134.151 601.54 132.737 605.101C127.052 619.427 118.73 655.553 104.902 662.781C91.6757 654.918 119.383 596.377 132.156 588.654Z" fill="#929292"/>
<path d="M486.75 767.258C486.853 767.281 486.956 767.303 487.059 767.326C492.405 770.954 505.666 774.672 502.607 782.957C499.879 785.049 472.201 791.174 467.726 791.438C467.014 791.444 466.303 791.438 465.591 791.427C446.447 791.123 450.314 784.475 452.045 768.22C465.022 770.931 474.113 770.971 486.75 767.258Z" fill="#5b5b5b"/>
<path d="M382.04 320.955C384.423 323.711 386.594 325.66 389.278 328.132C388.162 332.41 387.713 336.754 387.502 341.155C375.724 354.906 379.981 366.018 373.692 383.573C368.25 383.695 362.544 383.618 357.081 383.622L349.687 383.348C353.458 378.123 354.575 374.306 355.863 368.09C370.352 356.506 372.554 346.59 374.726 328.961C378.548 326.21 379.887 325.2 382.04 320.955Z" fill="#f3f3f3"/>
<path d="M183.264 455.646C194.728 455.068 225.533 459.935 236.256 464.188C229.219 467.328 228.95 469.302 225.935 476.277C225.745 476.674 225.202 477.255 224.893 477.629C219.257 478.543 182.593 471.459 175.53 469.689C177.273 463.209 177.998 460.073 183.264 455.646Z" fill="#787878"/>
<path d="M146.901 593.801C152.97 597.12 155.732 598.728 160.718 603.588C161.818 615.394 159.784 623.555 154.668 634.028C137.687 639.974 139.642 644.603 129.808 657.871C126.627 661.46 124.41 662.956 120.349 665.386C129.137 653.338 133.38 639.164 138.871 625.479C143.237 614.601 146.15 605.585 146.901 593.801Z" fill="#f3f3f3"/>
<path d="M418.719 468.435C422.142 476.788 417.268 499.466 416.66 509.249C416.603 510.165 412.447 516.409 412.246 517.723C410.086 531.862 410.039 547.595 411.166 561.878C412.03 568.738 422.377 578.21 420.866 582.04L418.847 581.91C416.766 581.59 409.077 580.634 408.388 578.418C406.576 572.574 406.857 565.43 406.06 559.308C401.514 524.42 405.785 501.01 418.719 468.435Z" fill="#ffffff"/>
<path d="M337.755 448.297L344.831 448.369C333.901 475.258 313.381 496.307 287.449 509.198L280.874 512.159C281.516 508.146 282.25 504.148 283.075 500.169C307.356 489.292 324.444 470.812 337.755 448.297Z" fill="#5b5b5b"/>
<path d="M315.02 288.672C315.557 289.845 315.147 296.311 315.019 297.91C314.192 309.044 315.401 319.365 319.356 329.837C322.624 338.49 336.062 362.082 330.124 370.954L329.509 370.211C322.827 364.973 319.092 360.325 315.552 352.515C312.886 346.64 311.134 340.392 310.355 333.987C309.005 322.953 311.03 299.175 315.02 288.672Z" fill="#5b5b5b"/>
<path d="M413.11 595.579C421.471 597.013 425.139 596.642 433.425 596.006C432.923 606.653 434.603 603.515 440.07 610.968C440.818 611.986 440.848 614.967 440.324 616.592L439.695 616.463L438.421 614.522C437.494 614.168 422.16 615.372 419.224 615.394C417.884 618.004 427.396 629.427 423.723 632.836C416.42 632.791 413.864 618.302 412.769 612.649C411.766 607.475 412.583 600.866 413.11 595.579Z" fill="#f3f3f3"/>
<path d="M426.958 598.779C431.283 602.806 426.68 609.949 423.096 613.037L422.432 612.537C422.24 611.237 426.16 602.795 426.958 598.779Z" fill="#323232"/>
<path d="M578.509 486.363C581.563 499.234 568.519 528.064 560.118 538.772C555.346 544.854 548.787 551.72 543.211 557.129C542.31 554.611 542.644 548.345 542.692 545.388C562.417 526.927 569.199 510.722 578.509 486.363Z" fill="#5b5b5b"/>
<path d="M675.681 290.488C686.002 288.86 688.05 312.834 681.114 317.831C678.364 319.811 678.071 319.393 674.809 319.404C673.341 319.379 672.233 319.236 670.787 319.065C669.038 307.549 672.058 303.091 663.84 290.909C667.856 290.894 671.681 290.693 675.681 290.488Z" fill="#b5b5b5"/>
<path d="M494.111 405.087C509.619 404.531 519.086 406.387 534.331 408.66C530.831 410.965 528.391 412.525 525.216 415.322C522.358 418.126 519.91 421.257 517.378 424.357C513.831 423.555 509.444 422.985 505.794 422.415C503.468 413.183 502.288 410.152 494.111 405.087Z" fill="#ffffff"/>
<path d="M607.185 298.35C612.697 298.113 618.21 298.021 623.728 298.078C626.197 303.697 628.633 315.198 624.741 320.527C619.329 320.624 613.637 320.96 608.203 321.206C611.713 309.701 610.357 309.441 607.399 299.111L607.185 298.35Z" fill="#b5b5b5"/>
<path d="M493.229 392.264C507.12 390.784 521.714 393.316 534.948 397.334C534.974 399.333 535.279 401.272 534.294 402.887C532.169 403.606 528.723 402.326 526.076 401.746C515.44 399.762 503.51 399.112 492.691 399.492C489.59 399.601 485.96 400.357 482.966 399.616C482.354 397.96 482.749 396.921 483.056 395.093C485.378 392.31 489.368 392.622 493.229 392.264Z" fill="#5b5b5b"/>
<path d="M269.612 715.658C281.105 719.235 290.617 720.54 302.506 721.052L299.991 731.34C293.645 733.747 275.48 728.584 268.448 726.441C268.91 722.948 269.238 719.185 269.612 715.658Z" fill="#f3f3f3"/>
<path d="M543.985 411.358C549.753 411.567 552.544 412.126 558.048 413.837C547.501 418.488 540.883 425.228 534.848 434.93C534.327 436.119 534.758 435.775 533.746 436.219C530.725 431.338 527.929 428.601 522.967 425.934C528.497 419.579 535.462 412.901 543.985 411.358Z" fill="#5b5b5b"/>
<path d="M258.529 754.4C277.837 757.443 290.961 771.859 309.162 779.34C319.767 783.699 332.861 779.66 335.995 780.735C336.399 782.327 336.402 781.483 335.471 783.3C306.496 790.42 297.197 775.858 273.643 763.591C270.859 762.14 261.448 759.26 258.093 758.169C257.439 756.481 257.821 756.639 258.529 754.4Z" fill="#f3f3f3"/>
<path d="M730.727 280.315C731.323 280.293 731.925 280.288 732.521 280.3C748.299 280.692 751.016 312.035 738.141 323.574C736.414 323.878 734.653 324.36 732.971 324.006C732.668 321.002 735.744 320.575 736.853 317.599C741.184 305.914 741.026 292.823 732.527 282.996C731.621 281.948 731.301 281.526 730.727 280.315Z" fill="#b5b5b5"/>
<path d="M399.857 329.73C408.588 329.028 415.878 329.218 423.649 333.593C423.622 336.186 424.122 341.362 422.042 342.829L420.031 341.819C411.109 338.461 403.309 338.95 394.129 339.929C394.127 337.183 393.781 334.057 394.991 331.751C396.537 330.209 397.703 330.198 399.857 329.73Z" fill="#f3f3f3"/>
<path d="M139.637 590.747C146.021 593.587 140.872 608.881 138.897 613.729C133.004 628.201 126.28 655.801 114.155 665.245L111.931 665.402L111.374 664.868C115.106 660.52 118.303 655.739 120.898 650.627C127.109 638.511 139.549 603.689 139.637 590.747Z" fill="#f3f3f3"/>
<path d="M166.511 604.077C167.474 604.398 170.202 605.286 170.841 605.984C177.868 613.656 173.113 629.748 167.595 636.959C165.371 637.965 162.488 636.672 159.979 635.952C165.266 623.381 166.529 617.812 166.511 604.077Z" fill="#f3f3f3"/>
<path d="M302.79 381.504C309.503 380.921 313.32 381.193 319.706 382.997C310.018 385.42 303.957 387.855 296.196 393.96C294.743 394.991 291.475 397.945 289.975 399.223C288.009 395.199 286.771 393.448 284.152 389.751C290.753 384.976 294.807 383.184 302.79 381.504Z" fill="#5b5b5b"/>
<path d="M563.906 694.757L564.924 695.174C564.952 696.27 564.947 698.143 563.743 698.633C551.828 703.47 537.833 702.795 525.49 700.264L524.002 699.645C522.998 698.391 523.02 698.503 522.85 696.912C524.272 695.5 528.451 696.417 530.646 696.788C542.64 698.824 552.135 697.288 563.906 694.757Z" fill="#787878"/>
<path d="M453.39 690.848C460.888 693.132 467.498 693.959 475.308 694.555C479.323 694.858 491.06 692.333 492.947 693.644L493.003 696.31C483.389 699.949 464.48 700.629 455.033 695.207C453.421 694.279 453.604 692.53 453.39 690.848Z" fill="#787878"/>
<path d="M476.723 407.339C485.198 406.819 493.23 407.335 497.939 415.713C498.952 417.516 500.278 419.804 499.722 421.871C499.039 421.968 498.072 422.208 497.499 421.584C493.424 417.154 494.111 416.163 488.998 412.51C470.236 405.774 470.35 419.659 464.634 420.261C464.288 418.93 464.982 417.355 465.613 416.111C468.451 410.524 471.333 409.217 476.723 407.339Z" fill="#5b5b5b"/>
<path d="M453.669 472.485C457.617 472.478 459.103 472.576 462.997 473.193L461.519 489.774C457.944 490.075 456.585 489.892 452.993 489.474C452.756 483.882 453.292 478.086 453.669 472.485Z" fill="#787878"/>
<path d="M379.712 286.865C380.674 286.796 383.738 286.524 384.477 286.824C391.298 289.579 389.406 300.95 387.858 305.68C386.318 305.855 384.992 305.841 383.441 305.856C380.114 303.546 382.802 298.541 382.152 294.334C381.617 290.866 381.134 289.969 379.712 286.865Z" fill="#929292"/>
<path d="M244.467 368.526C244.933 368.486 245.399 368.45 245.865 368.418C251.124 368.052 255.776 368.6 259.933 372.287C262.037 374.153 265.95 380.173 263.373 382.606C259.701 382.006 259.579 376.536 255.543 373.377C240.89 366.901 242.218 375.559 234.262 378.425L233.653 378.059C233.367 373.162 240.629 369.777 244.467 368.526Z" fill="#5b5b5b"/>
<path d="M261.269 764.266C269.657 764.604 290.391 778.755 297.957 784.11C288.033 783.39 268.683 770.959 261.269 764.266Z" fill="#787878"/>
<path d="M212.984 422.244C215.302 422.635 217.722 422.972 220.053 423.328C218.805 428.27 217.689 433.709 216.564 438.718L209.506 437.907C210.568 432.318 211.428 427.72 212.984 422.244Z" fill="#787878"/>
<path d="M597.358 299.804C598.911 299.819 599.119 299.845 600.643 300.147C606.943 304.539 605.52 312.235 603.439 318.477C602.184 319.448 601.172 319.884 599.794 319.133C599.141 312.453 597.954 305.91 597.358 299.804Z" fill="#929292"/>
<path d="M367.357 238.248C373.239 243.067 373.399 255.484 372.389 262.317C372.143 262.105 371.896 261.917 371.73 261.632C366.114 251.96 366.418 248.465 367.357 238.248Z" fill="#5b5b5b"/>
<path d="M348.54 370.833C349.374 374.496 345.176 379.991 342.048 381.792C340.109 381.841 340.777 381.887 338.857 380.263C336.575 378.192 335.854 377.873 336.332 374.758C338.518 372.011 344.54 371.74 348.54 370.833Z" fill="#f3f3f3"/>
<path d="M637.605 348.3C642.009 347.945 657.242 348.326 657.866 354.414L657.073 355.048L654.626 354.253C644.349 350.774 637.504 352.447 631.676 350.68L631.744 349.954C633.758 348.725 635.271 348.677 637.605 348.3Z" fill="#787878"/>
<path d="M477.91 415.205C481.803 415.151 489.411 416.253 490.656 420.593C489.372 421.64 488.526 421.239 486.499 421.208C483.407 421.099 474.893 421.536 472.891 419.183C473.719 416.986 475.747 416.226 477.91 415.205Z" fill="#f3f3f3"/>
<path d="M372.752 287.14C379.236 290.216 378.474 298.46 376.227 304.09L374.928 304.46L373.609 303.46C371.536 299.754 372.121 291.3 372.752 287.14Z" fill="#929292"/>
<path d="M424.689 619.01C426.613 619.027 427.62 618.842 429.266 619.702C430.82 623.021 434.627 631.846 434.095 635.153C432.498 635.536 432.609 635.547 430.995 635.271C429.19 633.887 426.476 623.161 424.689 619.01Z" fill="#f3f3f3"/>
<path d="M411.403 586.793C414.86 587.322 431.548 588.188 432.76 589.015L432.869 590.365C428.458 591.006 412.693 592.524 411.403 586.793Z" fill="#f3f3f3"/>
<path d="M461.24 411.788L461.341 411.938C461.476 412.74 459.15 417.903 458.583 420.76C456.031 421.071 453.28 421.206 450.702 421.387L450.229 420.491C451.936 416.065 457.125 413.591 461.24 411.788Z" fill="#787878"/>
<path d="M433.759 617.919L435.254 618.178C438.448 620.434 442.506 630.091 440.759 634.411L439.393 633.595C437.815 630.142 433.04 621.137 433.759 617.919Z" fill="#f3f3f3"/>
<path d="M326.058 281.959L326.452 282.299C326.671 285.122 322.95 291.066 321.405 293.782C320.718 290.464 320.712 286.829 320.595 283.42C322.349 282.776 324.233 282.393 326.058 281.959Z" fill="#5b5b5b"/>
<path d="M431.742 277.892C433.873 277.934 433.855 277.567 435.178 278.604C435.612 280.73 432.996 284.381 431.781 286.465C430.501 285.109 428.519 281.982 428.488 279.931C429.409 278.272 429.37 278.748 431.742 277.892Z" fill="#929292"/>
<path d="M245.801 376.323C249.13 376.173 252.786 376.767 254.946 379.582L254.648 380.318L253.144 380.424C250.131 379.779 245.368 379.805 243.107 378.61L243.286 377.785L245.801 376.323Z" fill="#f3f3f3"/>
<path d="M373.661 276.504C377.968 277.481 379.981 277.44 381.119 281.802C378.911 281.879 375.877 282.325 374.155 281.279C373.135 279.264 373.531 278.956 373.661 276.504Z" fill="#f3f3f3"/>
<path d="M927.371 185.862C941.799 184.983 961.363 189.211 972.726 198.385C978.733 201.479 980.983 210.038 984.701 213.828C996.142 225.49 1002.12 228.572 1003.9 246.501C1007.16 279.175 988.346 312.312 968.49 336.839C968.321 346.14 970.408 349.99 976.691 356.733C979.177 359.397 981.382 364.955 983.891 366.952C995.428 376.139 1011.39 380.977 1018.41 395.046C1030.38 420.521 1039.89 450.333 1044.19 478.203C1047.4 499.006 1030.65 520.47 1017.99 535.54C1018.96 548.818 1023.46 574.329 1022.3 587.935C1022.09 590.517 1015.86 592.446 1013.3 593.334C1011.56 623.657 1009.81 653.462 1010.48 683.902C1010.95 700.303 1011.54 716.705 1012.27 733.1C1012.78 745.497 1014.16 754.086 1011.09 766.077C1010.83 772.158 1013.83 787.007 1009.76 792.063C1005.34 797.558 985.821 796.073 979.222 794.645C977.327 794.234 973.772 791.743 971.629 791.478C960.637 790.128 953.224 790.826 944.016 783.829C943.847 786.956 943.813 796.822 940.967 798.306C933.705 802.092 923.209 801.439 915.266 800.635C910.839 800.185 906.041 798.295 901.502 798.138C890.162 797.851 879.002 798.588 867.802 796.394C864.529 795.753 859.579 794.431 857.796 791.422C856.524 789.285 855.906 785.758 856.794 783.345C860.248 773.935 871.869 771.989 880.133 768.755C884.683 766.972 886.815 765.937 890.921 763.732C890.297 756.982 890.077 750.193 889.796 743.421C888.266 730.569 887.934 709.207 887.209 695.517L882.321 594.572C877.939 593.003 873.202 591.872 873.247 586.27C873.399 567.101 874.963 547.908 875.97 528.758C866.762 534.659 854.668 543.725 844.847 547.977C843.109 548.73 835.684 548.979 830.042 550.918C826.217 556.058 825.255 557.019 819.804 560.443C819.371 572.94 810.967 576.432 800.027 572.49C793.789 570.24 789.739 566.252 784.125 563.097L781.622 557.45C776.368 561.603 765.759 570.645 759.561 562.613C755.443 557.276 763.312 550.923 766.755 547.303C771.367 542.458 777.049 537.813 781.92 533.172C789.671 525.79 800.488 524.3 809.004 518.483C812.509 516.085 814.927 509.215 818.55 506.566C830.537 495.407 844.549 486.119 855.09 473.598C857.987 468.243 859.095 459.357 860.827 453.913C866.16 437.178 869.861 404.212 882.422 391.939C895.416 379.243 907.605 382.92 912.285 361.479C870.457 373.163 867.724 352.011 861.952 316.686C840.302 306.94 854.499 299.435 860.754 284.743C862.751 280.048 861.581 275.067 861.165 270.031C859.837 254.005 861.834 242.532 868.511 227.944C867.549 227.199 866.604 226.426 865.687 225.626C860.175 220.779 856.845 213.91 856.468 206.577C856.221 201.935 856.519 196.008 859.933 192.426C865.963 185.978 874.659 192.807 882.152 191.896C897.688 190.007 911.616 186.464 927.371 185.862ZM948.397 767.866C953.314 764.306 958.213 763.912 962.606 760.768C962.078 749.479 954.287 676.46 951.244 669.104C948.774 678.53 948.279 693.115 947.863 702.997C947.081 721.733 946.271 740.547 945.742 759.294C945.641 762.911 943.082 769.047 943.211 773.091L943.723 773.373C945.9 771.179 946.761 769.576 948.397 767.866Z" fill="#323232"/>
<path d="M964.536 371.473C983.222 371.709 990.332 377.845 1005.26 388.726C1007.19 390.134 1011.2 394.377 1012.21 396.531C1024.24 422.248 1033.55 451.429 1038.07 479.511C1040.5 495.573 1027.06 514.541 1017.24 526.207C1016.16 514.833 1015.36 502.763 1015.31 491.49C1015.24 479.727 1019.19 423.45 1014.23 418.739C1012.57 421.534 1012.27 435.298 1011.98 439.651C1010.03 467.849 1007.29 496.01 1010.48 524.196C1012.78 544.636 1014.81 564.739 1017.04 584.987C1007.79 589.02 997.886 589.898 987.941 591.163C985.95 585.651 982.08 566.865 978.801 564.435L977.771 564.817C975.201 568.963 972.9 585.994 971.387 592.175C951.795 595.786 921.808 593.863 902.115 591.557C895.871 591.186 885.516 588.902 879.705 586.86C879.576 567.197 881.663 543.798 882.641 523.825C903.42 507.059 905.529 500.583 913.388 474.815C915.075 469.289 920.458 448.187 918.023 443.783L917.139 444.127C913.629 449.76 906.615 477.219 903.358 485.128C900.787 491.358 898.374 498.916 893.739 504.533C883.828 516.553 855.169 536.279 841.545 542.781C828.99 535.283 823.832 526.775 820.243 512.975C825.879 508.669 859.365 481.185 861.081 476.49C867.296 459.494 871.369 434.815 877.056 416.864C882.27 400.412 885.516 394.432 901.89 386.976C922.449 376.313 941.856 372.621 964.536 371.473Z" fill="#ffffff"/>
<path d="M894.847 395.518C907.616 394.721 918.472 415.517 917.342 426.428C913.832 421.01 912.071 412.111 906.778 405.73C903.128 401.335 896.833 398.34 894.847 395.518Z" fill="#323232"/>
<path d="M979.048 584.785C981.495 587.147 981.956 594.386 983.891 596.63C988.684 599.06 1001.42 596.146 1006.94 595.241C1004.31 628.949 1003.2 663.383 1004.57 697.147C1005.4 717.711 1006.07 738.28 1006.91 758.844C1001.04 761.015 975.921 764.075 969.604 757.483C968.591 756.425 967.444 743.444 967.151 740.699C964.536 717.75 961.785 694.813 958.905 671.893C956.323 651.791 952.358 641.807 957.69 621.609C961.971 619.826 973.626 615.731 975.487 611.58L974.841 610.737C969.896 609.702 960.142 613.633 955.817 616.187C951.536 618.712 951.289 620.214 950.265 624.613C947.025 643.382 943.993 663.428 942.519 682.4C940.421 709.443 940.787 737.527 939.026 764.48C924.761 767.652 910.873 766.864 897.193 761.707C895.686 746.43 895.511 726.857 894.622 711.068C892.316 672.9 890.336 634.709 888.677 596.506C912.718 600.432 935.724 602.092 960.086 600.354C976.252 599.201 976.191 600.579 979.048 584.785Z" fill="#ffffff"/>
<path d="M920.807 192.592C935.364 190.738 953.274 193.308 965.998 201.248C976.641 207.891 976.596 217.412 986.254 224.264C999.191 233.44 998.882 251.288 997.071 265.384C993.78 290.968 979.633 310.423 965.554 331.143C950.602 329.438 948.842 326.139 943.734 313.213C947.053 309.915 948.673 308.374 951.154 304.426C959.451 289.833 952.476 262.746 931.342 272.499C927.135 274.442 926.443 278.492 923.141 281.685L922.455 281.511C920.976 277.577 921.504 271.413 920.143 267.963C917.477 261.222 912.572 256.505 911.407 248.915C910.451 242.652 916.284 231.653 912.954 226.604C905.304 215.006 885.769 227.943 874.558 223.788C869.501 221.913 866.436 218.42 864.332 213.943C861.266 207.41 862.492 201.88 864.754 195.567C884.992 201.528 900.079 194.719 920.807 192.592Z" fill="#5b5b5b"/>
<path d="M899.246 227.973C905.333 227.43 910.142 227.776 907.74 235.035C902.149 251.891 907.886 256.537 915.255 270.535C916.959 273.778 915.418 285.917 919.597 287.676C928.806 291.551 929.424 277.882 936.472 276.225C942.744 275.001 947.942 280.14 948.752 286.064C949.731 293.213 947.756 302.141 942.323 307.108C938.998 310.151 931.056 310.119 928.89 313.299C930.352 316.555 935.539 316.096 938.492 316.009C944.348 330.704 946.671 333.489 962.454 336.743C962.404 339.085 962.601 342.26 962.685 344.671C945.534 344.759 934.706 348.648 920.571 357.708C918.765 358.766 919.671 358.64 917.837 358.424C916.639 356.983 915.958 355.97 914.918 354.403C885.679 360.984 879.553 365.348 870.626 332.51C878.996 332.177 885.808 331.427 891.563 324.856C892.041 322.857 892.198 323.727 891.405 322.118C888.879 321.133 881.432 325.593 877.956 326.337C874.778 327.017 872.719 327.296 869.439 327.501C868.944 323.664 868.944 318.149 867.926 314.532C866.621 309.876 858.819 311.025 856.592 305.955C856.676 300.278 866.391 289.64 867.583 283.163C868.455 278.423 867.898 273.777 867.319 269.043C865.446 253.858 867.803 243.664 874.418 229.986C882.737 231.416 891.011 229.441 899.246 227.973Z" fill="#ffffff"/>
<path d="M878.023 271.36C887.563 272.706 886.849 285.422 881.674 291.588C872.865 291.238 872.955 277.196 878.023 271.36Z" fill="#323232"/>
<path d="M875.953 250.956C881.364 250.502 894.274 252.583 891.225 260.063C889.453 260.684 890.353 260.674 888.441 259.835C880.549 255.115 874.789 259.027 871.065 255.604L871.054 254.298C872.269 252.4 873.861 251.954 875.953 250.956Z" fill="#323232"/>
<path d="M889.329 314.891C895.551 316.382 901.941 321.399 898.048 328.225C896.94 327.064 896.079 324.728 894.69 322.966C892.749 320.514 890.072 318.728 888.604 316.343L889.329 314.891Z" fill="#323232"/>
<path d="M894.921 768.805C898.296 768.31 906.93 771.741 911.003 772.18C919.884 773.136 928.215 772.664 937.086 772.163C937.395 779.424 937.732 786.298 937.541 793.581C928.451 795.162 916.088 796.096 907.763 791.888C905.434 790.983 892.929 792.108 889.161 792.052C879.666 791.905 870.868 791.607 861.851 788.131C865.609 776.668 874.665 778.114 884.441 773.682C888.075 772.039 891.371 770.622 894.921 768.805Z" fill="#5b5b5b"/>
<path d="M808.509 525.864L809.708 526.159L810.388 528.124C813.431 537.035 818.106 542.503 824.996 548.433C817.903 557.67 816.514 553.772 808.543 560.446C807.564 561.263 807.497 562.776 807.536 563.996C809.556 566.167 811.215 562.731 814.168 563.153L814.343 564.159C812.897 567.529 809.741 569.002 806.124 568.873C799.116 568.631 802.839 558.169 800.376 555.199L799.386 555.287C797.248 557.859 798.396 560.654 797.074 564.958L795.696 565.279C791.387 562.05 795.279 551.477 792.793 548.678L791.528 549.105C790.746 551.462 789.694 558.184 788.316 559.29C784.524 554.366 788.794 547.366 786.628 542.867L785.683 543.092C783.636 545.104 783.084 547.581 782.168 550.321C778.59 553.143 769.348 561.369 764.809 560.094C764.567 559.25 764.19 558.678 764.606 558.078C769.854 550.583 783.113 538.697 790.341 533.796C793.778 531.466 805.32 527.128 808.509 525.864Z" fill="#f3f3f3"/>
<path d="M967.837 764.918C968.406 764.963 977.079 766.87 978.255 767.095C988.2 768.985 994.736 768.226 1004.43 766.707C1005.63 772.77 1005.76 781.213 1005.8 787.378C999.731 789.414 996.784 789.363 990.456 789.526C983.166 789.042 980.944 788.171 973.856 785.589C969.519 784.008 948.133 785.24 949.646 776.708C950.552 771.595 962.387 768.378 967.095 765.397L967.837 764.918Z" fill="#5b5b5b"/>
<path d="M956.042 359.058C962.038 358.517 965.852 358.694 971.803 359.481L975.87 366.348C957.15 365.889 948.915 366.547 930.808 370.472C925.071 372.185 919.406 373.937 913.579 375.342C927.838 365.396 938.846 361.178 956.042 359.058Z" fill="#ffffff"/>
<path d="M959.996 350.09L960.514 350.069C963.157 349.985 964.193 349.857 965.97 351.528L965.751 352.234C961.667 353.485 953.066 353.177 948.358 353.968C941.76 355.075 935.837 357.386 929.582 359.64L921.651 363.255C932.788 354.547 946.108 351.036 959.996 350.09Z" fill="#f3f3f3"/>
<path d="M814.995 520.054C816.958 521.408 819.439 529.56 821.503 532.369C824.692 536.715 828.456 540.624 832.061 544.599C823.382 544.012 814.815 528.458 814.995 520.054Z" fill="#f3f3f3"/>
<path d="M715.736 574.897C716.304 574.891 718.965 574.897 719.314 575.094C733.371 583.176 748.98 588.424 763.903 594.768C767.694 596.383 776.076 597.946 775.018 602.575C772.211 605.444 730.828 621.283 724.039 624.14C723.808 629.838 723.971 636.441 723.982 642.212C737.91 643.888 769.174 652.033 749.261 670.605C757.339 673.749 772.042 679.846 770.805 691.191C770.197 696.799 765.264 699.982 761.051 703.07C768.6 706.783 777.611 710.005 782.173 717.503C788.754 728.319 781.087 734.456 772.717 739.467C790.566 745.682 799.239 750.323 805.404 768.912C811.609 768.839 815.912 769.188 821.273 772.664C824.664 774.75 831.814 782.107 828.09 786.101C824.473 789.982 814.258 789.971 809.213 790.33C809.477 793.087 810.309 797.344 807.638 798.97C800.01 803.599 786.898 802.806 778.416 802.648C772.121 802.12 763.965 802.243 762.801 795.944C763.408 795.646 761.648 794.504 761.636 794.504C728.263 797.395 694.254 797.699 661.151 792.097C653.169 790.747 646.594 786.095 638.809 784.003C633.78 782.653 626.096 785.375 622.142 782.9L622.193 781.916C625.944 779.205 632.374 779.261 637.054 778.929C628.515 759.333 651.566 748.028 665.803 741.605C638.269 724.68 662.811 711.046 680.513 703.458C656.831 690.156 673.982 678.086 689.833 670.937C670.568 653.158 698.861 645.255 712.575 642.437C711.523 622.093 712.721 599.077 713.138 578.558C713.171 576.933 714.488 575.757 715.736 574.897Z" fill="#323232"/>
<path d="M761.411 743.708C766.102 742.915 779.614 747.876 783.754 750.272C793.164 755.722 796.972 760.548 799.954 770.582C797.884 773.001 794.953 775.808 792.669 778.119C779.203 776.516 774.186 779.171 764.753 788.412C734.096 791.157 711.056 792.164 679.927 788.958C670.562 787.974 655.532 786.129 648.045 781.488C625.275 767.101 660.87 747.268 673.841 745.603C680.389 744.76 691.554 747.628 698.951 747.988C719.865 748.939 740.824 747.505 761.411 743.708Z" fill="#b5b5b5"/>
<path d="M752.22 769.351L753.362 769.626C752.951 770.824 753.176 770.594 751.961 771.488C740.486 779.931 730.777 780.392 717.193 778.856L715.556 778.237C717.592 777.45 727.048 777.326 730.159 776.865C738.996 775.555 744.165 772.956 752.22 769.351Z" fill="#323232"/>
<path d="M653.366 764.868C654.328 764.868 681.328 772.883 682.993 773.766C682.116 773.89 681.233 773.968 680.344 773.996C670.984 774.356 660.353 771.403 653.366 764.868Z" fill="#323232"/>
<path d="M779.67 760.599L780.221 761.324L779.799 762.258C775.654 765.368 766.277 766.718 761.254 767.23L760.894 766.578C762.536 764.339 776.081 761.476 779.67 760.599Z" fill="#323232"/>
<path d="M691.026 707.12C693.056 706.974 701.044 708.121 703.254 708.498C720.208 711.378 736.307 709.218 753.069 707.345C755.809 707.036 768.201 712.306 770.827 714.168C794.351 730.845 761.496 737.51 749.025 739.72C726.694 742.865 687.645 744.98 665.994 735.013C663.879 733.983 659.604 730.575 659.464 728.168C658.727 715.22 682.543 708.881 691.026 707.12Z" fill="#b5b5b5"/>
<path d="M669.094 719.146C671.906 719.292 676.35 722.728 679.129 723.111C692.55 724.961 697.68 724.433 709.532 731.21C703.873 731.829 700.672 728.786 695.452 727.83C687.319 726.334 673.239 728.325 669.094 719.146Z" fill="#323232"/>
<path d="M697.534 674.43C705.336 675.763 717.795 677.833 725.383 676.792C737.409 674.745 744.739 672.995 756.146 679.61C778.528 692.586 756.051 699.808 743.209 702.384C726.992 705.219 700.2 703.796 684.309 698.599C681.756 697.777 675.489 694.92 674.854 692.108C672.57 681.95 691.521 676.28 697.534 674.43Z" fill="#c9c9c9"/>
<path d="M754.088 686.124L755.213 686.422L755.348 687.282C748.502 695.314 734.361 695.494 724.641 695.477C723.049 695.382 723.099 695.674 722.312 694.808C730.738 690.393 739.367 694.594 754.088 686.124Z" fill="#323232"/>
<path d="M690.829 656.656C703.53 645.221 734.754 645.148 748.08 655.835C752.119 662.011 748.721 665.605 742.241 667.59C728.938 671.668 711.174 671.887 697.703 668.338C691.628 666.735 686.424 662.764 690.829 656.656Z" fill="#cbcbcb"/>
<path d="M748.08 655.835C752.119 662.011 748.721 665.605 742.241 667.59C728.938 671.668 711.174 671.888 697.703 668.338C691.628 666.735 686.424 662.764 690.829 656.656C692.916 657.775 693.45 657.894 695.773 658.445C703.89 660.717 709.397 660.903 716.721 662.551C723.229 663.119 742.421 659.215 748.08 655.835Z" fill="#b5b5b5"/>
<path d="M695.773 658.445C703.89 660.717 709.397 660.903 716.721 662.551C712.204 664.879 697.112 664.221 695.773 658.445Z" fill="#323232"/>
<path d="M724.421 583.351C738.191 588.671 754.138 595.725 767.908 601.467L755.859 606.125C745.408 610.607 734.889 614.916 724.297 619.061L724.421 583.351Z" fill="#b5b5b5"/>
<path d="M784.142 783.075C790.498 782.731 801.551 786.112 803.948 792.524C803.306 797.817 794.441 797.299 790.082 797.586C784.749 797.676 771.036 798.784 768.111 794.408C768.578 788.446 778.759 784.014 784.142 783.075Z" fill="#cbcbcb"/>
<path d="M807.997 774.109C813.189 774.34 819.776 776.252 822.864 780.758C823.129 782.737 823.314 781.821 822.139 783.576C819.934 784.97 817.341 784.847 814.635 785.055L806.062 785.207C803.908 783.401 801.225 781.579 798.913 779.925C802.446 776.129 802.918 775.116 807.997 774.109Z" fill="#cbcbcb"/>
<path d="M717.458 579.464L719.066 580.223C719.572 581.264 719.966 633.449 719.263 637.628L717.323 638.871C717.137 637.875 717.013 624.922 717.047 623.358C717.368 609.544 716.389 593.025 717.458 579.464Z" fill="#f3f3f3"/>
</svg>
