<svg width="1145" height="1371" viewBox="0 0 1145 1371" fill="none" xmlns="http://www.w3.org/2000/svg">
<g clip-path="url(#clip0_15479_18153)">
<path d="M242.423 0H250.996C254.771 1.61544 261.179 3.81327 263.849 7.03099C293.397 42.6374 290.371 103.554 284.865 145.052C312.687 139.875 329.131 140.141 356.985 146.689C361.209 137.1 364.481 127.083 368.767 117.543C378.205 96.5337 388.831 75.7062 402.761 57.2913C412.749 44.0884 424.879 32.0557 440.289 25.5345C445.26 23.4307 450.788 22.7625 455.798 24.9616C462.014 27.3996 468.175 38.3036 469.981 44.4746C480.144 79.2094 466.097 127.044 450.743 157.911C445.686 167.842 439.997 177.439 433.709 186.641C459.617 215.032 463.505 223.375 468.424 261.703C472.35 292.299 475.215 298.322 460.283 326.948C462.479 326.969 465.397 327.085 467.523 326.883C475.382 312.365 479.11 311.137 489.391 300.099C493.245 295.961 498.743 275.416 503.936 269.95C523.521 235.201 556.593 210.151 594.696 198.937C635.053 186.903 675.409 191.443 712.324 211.522C747.605 230.805 773.692 263.4 784.78 302.037C785.316 303.855 785.825 305.677 786.327 307.504C801.962 320.015 806.522 328.352 808.959 349.206C811.51 371.012 809.033 400.448 794.684 418.14C790.03 423.877 783.93 426.511 777.368 429.659C761.15 457.2 753.551 473.162 723.352 491.864C715.772 496.556 702.407 502.395 695.899 507.164L695.303 507.593L696.16 508.014C704.021 511.823 716.516 513.442 725.642 516.641C757.782 527.907 778.7 545.149 800.476 570.365C806.575 544.449 813.901 512.085 838.234 497.617C841.334 495.776 844.742 494.122 847.99 492.555C849.63 484.791 850.481 481.364 855.978 475.308C844.314 469.417 835.656 464.908 831.089 452.429C833.406 443.849 834.785 442.065 841.655 436.17C818.682 393.956 819.753 372.872 821.186 325.326C821.4 318.314 822.438 298.667 821.461 293.073C817.617 271.02 804.553 260.296 812.066 235.419C815.628 223.619 820.175 218.137 827.493 208.211C820.925 195.888 815.16 172.285 831.752 163.907C841.381 159.044 858.228 166.188 868.868 164.746C920.433 157.507 987.378 136.171 1025.68 185.286C1028.69 189.15 1031.68 194.618 1035.23 198.204C1049.15 208.753 1058.83 214.304 1065.92 231.809C1078.17 262.064 1067.59 295.484 1058.96 325.244C1061.8 335.039 1063.6 343.8 1062.39 353.973C1058.97 382.766 1041.33 393.166 1015.88 399.139C1011.99 407.421 1006.32 416.731 1003.39 424.833C1019.12 433.012 1026.17 444.106 1039.85 453.537C1044.78 456.926 1057.58 461.349 1063.72 464.232C1092.47 477.759 1129.04 493.259 1139.69 525.944C1142.23 533.736 1142.78 543.832 1145 549.953V578.079C1143.29 582.668 1142.23 594.003 1141.3 599.496C1139.62 608.878 1137.53 618.182 1135.04 627.38C1133.05 634.837 1130.69 642.188 1127.96 649.405C1124.48 658.599 1118.52 670.257 1118.24 679.629C1117.75 695.562 1119.28 712.592 1120.34 728.518C1122 756.44 1124.2 784.328 1126.93 812.164C1129.52 838.077 1135.71 874.454 1131.77 900.308C1130.89 906.145 1123.84 910.691 1118.56 913.154C1113.9 915.296 1109.09 917.084 1104.17 918.503C1104.42 1001.29 1103.82 1084.08 1102.35 1166.86C1101.65 1194.5 1103.47 1222.8 1099.94 1250.29C1099.27 1255.49 1096.41 1259.61 1093.47 1263.82C1095.1 1272.81 1095.77 1281.22 1096.21 1290.35L1096.94 1290.61C1107.87 1294.58 1141.69 1299.26 1137.4 1317.05C1135.84 1323.54 1120.27 1330.23 1114.24 1331.76C1009.08 1358.51 892.23 1363.13 784.579 1367.51L724.189 1369.78C718.002 1370 700.459 1369.33 696.086 1371H525.124C521.988 1369.71 451.238 1368.27 441.537 1367.91C358.309 1364.85 275.514 1360.21 192.843 1349.67C158.489 1345.28 122.917 1341.73 90.1611 1329.88C83.7825 1327.57 72.6044 1323.48 69.7285 1316.7C68.8841 1314.71 68.9839 1312.65 69.9588 1310.72C74.7183 1301.31 98.8202 1294.18 108.568 1290.85C108.738 1290.68 114.126 1252.1 114.797 1247.77C110.304 1243.93 106.596 1239.93 106.057 1233.73C102.611 1194.12 104.814 1153.94 105.027 1114.27C105.201 1069.47 105.848 1024.68 106.968 979.897C107.382 958.395 107.291 925.164 108.974 904.345C107.858 903.22 106.763 902.068 105.688 900.904C96.8931 891.311 98.6715 879.542 99.2548 867.439C66.2107 865.256 15.5117 857.531 3.91559 820.337C2.24705 814.989 2.00003 809.011 0 803.755V771.944C1.39679 769.44 5.80569 730.252 5.79892 724.903C5.77722 707.765 2.97596 689.952 8.46892 672.372C11.4349 662.883 14.6858 659.576 24.3843 656.714C27.4489 631.073 32.2881 603.617 36.4951 578.004C39.5073 559.243 43.3709 541.362 48.57 523.127C61.4756 477.863 111.343 473.444 151.616 469.403C147.791 464.167 143.692 459.62 139.888 454.156C87.6005 379.045 132.787 258.781 187.918 197.733C176.487 150.66 179.644 101.225 196.971 55.988C206.093 32.5823 218.59 10.5019 242.423 0ZM345.334 1235.71C363.368 1251.86 378.641 1253.85 398.134 1266.99C407.646 1264.39 445.211 1261.59 455.453 1263.96L455.768 1263.62C458.216 1260.98 460.759 1257.5 463.284 1254.6C469.413 1247.56 475.97 1243.45 483.715 1238.42C481.3 1227.95 478.698 1208.86 478.36 1198.29C477.341 1166.51 465.891 1104.87 485.906 1078.69C481.665 1071.62 476.767 1060.95 475.565 1052.21C469.829 1010.47 468.291 960.738 475.787 919.373C477.113 912.056 482.42 903.976 484.991 897.623C486.673 893.466 487.561 882.126 488.07 877.333C474.868 849.839 479.166 828.632 477.328 799.15C446.48 810.075 431.006 812.03 403.749 792.121C403.796 811.641 404.879 835.132 400.81 854.043C399.59 859.713 394.083 868.309 392.304 875.599L392.165 876.155C390.434 883.264 391.684 892.79 389.881 900.181C388.666 905.148 383.176 912.15 382.814 916.662C382.151 924.93 381.714 933.498 381.177 941.806C380.232 956.272 379.111 970.726 377.813 985.165C372.973 1037.45 367.677 1089.7 361.924 1141.89L356.945 1187.49C355.243 1203.05 354.493 1222.7 345.334 1235.71ZM751.006 812.458C750.939 839.664 750.457 854.271 738.398 879.803C738.793 884.442 739.469 898.32 741.056 901.781C746.694 914.065 749.64 920.96 751.207 934.677C755.298 970.498 752.211 1006.33 749.178 1042.08C747.598 1060.68 746.46 1067.1 737.467 1083.48C741.967 1090.55 744.545 1097.96 745.83 1106.23C750.591 1136.88 741.994 1210.93 735.572 1241.04C746.158 1247.05 754.247 1252.2 761.921 1261.88C780.401 1261.93 800.67 1265.74 818.193 1266.13C823.992 1264.7 854.94 1248.58 860.444 1245.43C857.645 1234.01 856.822 1215.76 856.085 1203.79L852.791 1150.47L839.7 918.503C830.862 914.574 823.014 910.115 821.929 899.277C820.918 889.162 822.184 878.498 822.733 868.302L825.625 814.473C807.459 815.002 778.828 808.629 762.503 800.656C759.215 804.438 754.602 808.836 751.006 812.458ZM584.869 1085.15C597.535 1107.23 592.598 1134.29 591.21 1158.44C589.246 1192.64 583.953 1225.85 578.993 1259.65L583.848 1260.71L640.38 1260.62C639.057 1248.31 636.064 1233.6 634.497 1220.43C631.282 1192.68 629.502 1164.79 629.166 1136.85C628.846 1116 627.06 1104.24 638.003 1085.81C636.528 1083.16 635.191 1080.42 633.997 1077.62C628.136 1063.7 627.502 1049.35 626.384 1034.55C624.646 1011.55 617.929 983.873 626.946 961.882C615.843 962.451 610.102 962.036 599.221 960.43C604.466 979.749 601.105 1004.93 599.225 1024.88C597.332 1044.95 594.901 1067.43 584.869 1085.15ZM405.001 528.326C425.824 542.691 425.271 549.003 437.402 569.721C438.975 572.408 447.383 581.45 450.351 585.278C458.124 573.016 463.251 567.178 473.356 557.175C473.285 555.896 473.225 554.617 473.176 553.337C471.844 517.422 509.264 488.782 543.063 505.509C547.658 507.783 551.686 511.946 555.381 515.511C561.716 513.465 568.693 511.533 575.117 509.616C527.826 489.935 504.21 463.496 487.408 415.814C476.828 409.533 471.883 403.954 466.846 392.608L463.655 394.16C464.889 396.145 466.421 400.892 467.319 403.265C480.107 437.057 477.282 486.859 442.711 506.922C438.095 509.601 431.551 513.352 426.093 511.979C425.546 511.04 425.004 510.098 424.468 509.153C417.815 509.209 408.643 523.11 405.001 528.326ZM191.202 211.417C134.351 285.542 89.4339 412.006 180.752 481.1C197.311 493.628 215.942 504.383 233.549 515.361C253.806 528.101 273.754 540.87 294.707 552.522C296.724 553.643 300.824 557.095 301.266 559.304C295.758 563.325 258.928 541.667 251.682 537.572C255.241 547.423 260.289 564.208 263.975 573.057C283.193 581.508 288.517 588.407 287.376 608.464C286.928 616.327 290.517 626.531 288.326 635.199C286.41 651.892 284.796 669.237 266.441 675.211C264.96 675.679 263.465 676.101 261.958 676.483C256.834 686.738 252.211 697.182 246.987 707.37C223.321 753.521 181.389 789.302 132.219 805.643C123.709 808.549 114.887 810.436 105.935 811.28C104.793 819.628 103.839 827.815 104.22 836.27C104.746 847.972 109.947 859.251 110.083 870.766C110.158 877.032 108.291 885.721 112.327 891.056C123.795 906.232 194.352 919.172 214.289 921.368C243.845 924.628 272.531 923.644 302.101 921.408C304.171 913.027 306.065 904.606 307.783 896.144C270.183 897.925 237.299 899.096 199.699 893.433C181.266 890.387 140.525 884.79 127.168 871.589L126.475 870.913C150.839 875.412 176.643 883.492 200.871 886.109C236.963 890.005 274.658 891.672 310.795 888.184L311.031 887.481C316.364 871.904 321.926 861.581 324.548 844.45C328.524 818.47 330.437 792.87 332.382 766.669C337.05 710.249 340.87 653.477 336.613 596.909C336.092 589.987 334.096 567.868 330.883 562.814C323.996 551.981 305.949 537.659 296.047 529.253C281.57 516.961 268.318 507.102 255.788 492.84C220.13 452.257 211.506 404.116 226.35 352.798C241.658 299.88 269.808 248.107 319.201 220.035C347.114 204.17 377.814 197.214 408.902 206.755C421.701 210.683 433.313 215.208 443.465 224.283C444.66 225.351 449.873 230.614 450.607 230.476C449.725 222.751 438.225 208.957 433.089 203.353C399.377 166.568 331.659 142.907 282.816 158.307C281.211 163.184 274.444 185.375 267.658 183.04C262.367 175.554 273.496 150.885 274.349 140.862C276.347 117.352 282.696 10.1109 242.468 13.362C216.665 30.2937 203.979 66.3644 197.944 95.4197C193.444 118.138 192.249 141.387 194.395 164.448C195.541 176.323 197.478 188.11 200.194 199.728C201.193 204.185 205.203 216.551 203.519 219.918C197.954 223.17 193.233 215.536 191.202 211.417ZM1091.7 932.842C1059.82 936.979 1022.2 944.932 989.842 939.115C983.863 938.037 979.531 935.313 976.323 930.078L975.922 929.837C973.036 928.103 967.384 925.72 965.228 924.086C957.722 918.376 953.015 903.153 950.872 894.39C947.062 878.806 944.833 862.03 942.449 846.117C923.767 846.184 910.59 844.859 892.236 841.88C890.783 854.565 889.444 867.519 887.402 880.111C883.324 905.275 880.9 922.071 851.659 921.201C853.105 942.897 852.958 967.86 854.063 990.32C856.38 1031.72 858.951 1073.11 861.763 1114.48C863.102 1138.08 864.649 1161.66 866.39 1185.23C867.542 1201.27 869.43 1222.35 869.189 1238.35C885.42 1247.62 939.73 1256.65 953.658 1242.56C956.43 1234.85 956.671 1196.72 956.945 1186.91C958.171 1153.6 958.881 1120.28 959.061 1086.95C959.282 1063.62 959.825 1045.17 956.122 1021.82C951.97 995.669 950.986 967.385 946.553 941.378C938.384 936.203 916.623 925.144 912.505 917.265L912.833 916.2C919.576 914.654 932.579 922.151 939.275 924.595C955.225 930.426 957.541 939.229 958.713 955.148C959.068 959.968 959.972 966.448 960.555 971.442L966.233 1018.3L985.035 1178.94L990.07 1221.23C990.974 1228.83 991.51 1248.24 997.971 1253.07C1002.42 1256.38 1010.95 1258.33 1016.32 1259.12C1035.01 1261.54 1055.27 1261.51 1073.78 1258.03C1082.26 1256.44 1089.1 1253.86 1088.93 1244.24C1090.35 1221.48 1090.84 1198.71 1091.17 1175.91C1091.73 1148.86 1092 1121.8 1092 1094.74C1092 1089.89 1092.23 1055.36 1091.61 1052.26C1090.38 1041.4 1089.91 956.092 1092.07 946.987C1092.14 943.48 1092.65 935.828 1091.7 932.842ZM267.298 963.67C274.026 958.549 303.11 946.077 310.89 948.949C313.398 956.935 282.461 965.899 276.707 968.865C270.275 996.726 266.336 1025.71 261.428 1054C257.137 1078.72 251.417 1105.4 249.333 1130.26C247.858 1147.86 249.958 1169.25 249.879 1187.37C249.836 1197.1 248.471 1217.06 253.171 1225.71C255.976 1230.16 262.974 1232.47 267.909 1233.04C289.39 1235.46 318.017 1237.57 337.042 1226.21C342.361 1223.03 344.636 1197.76 345.523 1190.88C347.77 1172.53 349.814 1154.16 351.655 1135.77C356.996 1086.85 361.746 1037.86 365.902 988.82C367.359 971.462 368.612 945.783 370.814 929.04C359.436 923.852 317.593 937.274 304.08 938.66C290.719 940.025 273.579 941.645 260.109 941.056C236.606 940.019 202.611 938.352 179.953 933.07C160.878 928.625 139.365 921.087 119.81 916.127C118.638 926.094 119.115 945.428 118.942 956.239C118.366 984.71 117.961 1013.19 117.728 1041.66C116.786 1085.54 116.174 1129.43 115.893 1173.32C115.854 1189.45 115.153 1221.29 117.919 1235.75C138.595 1253.32 192.987 1251.53 216.681 1240.39C222.632 1223.62 228.206 1185 231.564 1165.47L255.183 1025.78C257.348 1012.83 263.276 974.187 267.298 963.67ZM653.676 503.949C705.722 495.706 740.996 475.151 765.074 426.548C741.351 403.329 748.067 349.464 760.621 321.257C763.742 314.254 768.201 310.882 774.884 307.686C771.107 296.801 766.882 285.163 761.184 275.082C736.583 231.561 678.556 197.154 627.839 204.429C584.718 209.789 552.402 225.789 525.125 260.67C476.51 322.839 477.954 427.977 543.186 478.437C568.7 498.174 598.765 505.518 630.445 505.358C638.212 505.356 645.951 504.385 653.676 503.949ZM856.547 437.297C888.62 445.218 890.669 453.213 915.565 465.727C922.984 452.772 934.722 427.801 953.926 438.571C956.798 440.183 959.959 442.858 960.601 446.374C961.793 456.489 954.582 469.543 951.589 479.11C964.505 470.718 983.91 457.925 992.179 444.485C997.503 437.182 994.73 430.598 991.389 423.145C1001.58 407.336 1001.57 403.591 1008.26 387.771C1020.54 387.398 1030.08 386.352 1038.82 376.847C1048.2 366.64 1051.7 356.965 1051.82 343.326C1051.99 323.306 1032.14 312.921 1019.93 330.303C1009.27 345.469 1000.23 344.802 999.257 325.189C999.123 322.492 997.811 318.158 997 315.48C990.351 298.621 980.214 282.701 979.953 264C979.819 254.293 989.334 235.523 984.425 227.726C980.883 222.103 945.958 231.579 939.978 232.642C910.489 237.887 881.168 236.209 855.603 219.264C834.256 245.851 835.187 258.515 834.042 290.907C833.078 318.071 829.147 345.566 832.623 372.974C834.518 392.293 843.477 422.933 856.547 437.297ZM355.002 286.799C334.937 305.785 310.253 312.574 284.537 318.944C280.84 330.771 268.719 370.17 251.32 367.441C248.122 366.94 239.736 357.012 237.746 353.907C233.886 368.195 227.277 396.908 232.325 411.884C234.201 417.448 244.943 413.27 249.117 411.78C252.181 421.757 255.074 431.907 259.004 441.526C260.346 444.81 267.335 452.654 267.272 455.319C267.166 459.723 261.482 474.849 259.286 478.756C270.524 493.166 283.643 506.005 298.294 516.929C310.07 527.122 321.956 538.176 333.656 548.146C335.73 545.428 337.989 542.321 340.127 539.703C334.801 526.77 332.629 521.171 332.807 506.749C324.895 503.992 301.842 496.803 302.062 486.567C305.901 483.991 322.489 492.537 327.068 494.343C347.851 502.538 370.596 499.339 389.512 487.956C412.659 474.121 429.275 451.566 435.622 425.361C440.635 404.332 440.324 380.861 441.457 358.952C443.097 327.249 449.933 285.303 424.522 260.916C422.899 259.358 419.071 256.2 417.08 255.42C403.416 278.732 391.781 293.581 363.818 301.622C349.414 305.764 349.671 296.886 355.002 286.799ZM1022.45 529.071C1028.57 535.238 1034.88 540.969 1041.03 547.036C1033.06 567.786 1013.43 599.248 1007.78 619.255C1011.62 624.034 1015.53 628.758 1019.52 633.424C1026.51 615.193 1050.88 550.254 1062.96 541.332L1064.4 541.191L1065.18 542.415C1063.22 549.232 1058.7 559.72 1055.94 566.615C1048.79 584.215 1041.93 601.931 1035.35 619.755C1033.43 625.037 1029.32 635.455 1027.94 640.618C1033.62 647.526 1051.23 666.244 1047.29 675.358C1043.49 676.202 1028.72 658.64 1025.61 655.201C1011.77 639.936 998.011 624.521 984.774 608.737C975.198 596.844 967.572 585.199 957.421 573.239C948.06 580.089 938.84 587.138 929.773 594.381C916.703 604.535 906.351 614.053 894.587 625.54C915.076 660.403 974.261 746.499 1014.36 757.176C1026.01 760.276 1038.61 757.893 1048.87 751.794C1088.35 728.324 1116.52 658.388 1126.97 615.888C1133.84 587.954 1139.7 544.768 1124.04 519.293C1111.66 499.148 1084.5 486.749 1063.99 476.769C1056.37 473.056 1048.39 468.755 1040.33 466.083C1041.18 477.044 1047.11 509.552 1042.75 519.039C1041.08 522.674 1027.2 527.248 1022.45 529.071ZM958.01 875.699C964.063 915.886 972.587 924.702 1014.48 922.319C1031.5 921.348 1048.57 920.478 1065.49 917.372C1087 913.75 1104.87 909.459 1122.17 895.682C1121.52 890.079 1121.72 884.944 1121.38 879.401C1118.59 833.96 1112.55 788.827 1110.09 743.332C1109.74 736.919 1108.43 702.591 1106.67 699.572C1083.18 741.358 1046.34 792.402 992.528 759.807C974.054 748.621 961.907 734.536 948.16 718.356C947.692 777.755 946.975 815.604 958.01 875.699ZM197.228 710.162C174.836 691.947 168.634 665.832 169.95 637.901C154.999 641.371 143.518 646.346 129.525 652.646C120.046 656.913 100.452 667.83 90.5159 669.326C87.936 666.435 92.0131 662.206 94.492 660.465C114.399 646.489 138.382 637.791 160.994 629.235C165.331 627.594 170.995 627.987 175.427 626.406C182.789 623.464 189.078 620.195 196.623 617.64C202.508 606.325 207.025 597.571 215.163 587.581C206.658 560.505 193.566 515.937 156.921 520.956C119.106 538.339 81.4986 610.193 68.0733 647.919C60.0887 670.357 47.8868 709.713 58.2522 732.769C63.0895 743.526 74.1906 754.559 85.6353 758.288C109.102 765.932 136.578 758.428 158.017 748.132C173.301 740.795 192.823 727.273 203.824 714.681C201.44 712.813 199.972 711.554 197.228 710.162ZM389.857 580.758C387.241 569.517 385.013 558.594 379.551 548.308C372.95 554.047 365.26 558.816 356.561 560.353C362.979 547.427 373.602 543.36 383.996 533.811C389.569 528.691 394.303 523.321 399.539 517.933C389.67 515.994 378.307 513.672 370.098 507.374C367.988 513.864 365.829 520.716 362.194 526.507C354.108 539.389 345.812 546.684 338.59 560.521C350.203 634.183 346.616 690.554 339.93 764.721C335.433 814.607 337.962 839.423 319.179 887.033C344.753 885.112 355.342 879.214 378.426 874.655C381.483 870.538 383.438 868.021 385.793 863.523C395.113 838.392 393.104 803.595 390.511 776.884C389.194 763.322 383.751 757.424 385.049 741.157C385.605 734.59 386.657 728.069 388.194 721.663C390.926 710.142 403.635 670.679 397.932 659.587C388.47 641.186 389.896 625.796 384.847 606.328C381.424 594.284 384.346 591.194 389.857 580.758ZM835.689 799.638C884.489 777.112 877.981 714.741 825.21 701.459C824.634 705.175 824.058 709.606 823.309 713.221C830.004 723.959 834.692 732.715 835.14 745.876C835.91 768.436 822.793 789.081 804.781 802.035C816.365 803.24 824.648 803.595 835.689 799.638ZM952.593 490.957C953.484 504.879 954.655 507.162 962.128 518.701L968.308 527.569C971.79 523.671 975.339 519.015 979.062 515.396C990.432 504.345 1006.6 462.228 1002.67 447.658C983.642 468.832 976.223 474.388 952.593 490.957ZM426.083 618.505C420.18 621.007 399.109 627.379 400.45 635.4C404.518 640.137 413.79 638.755 419.529 638.166C427.12 622.806 435.01 608.389 443.247 593.346C433.666 580.787 431.678 578.888 415.498 579.15C408.928 581.497 390.145 590.837 393.424 598.758C396.309 605.729 415.057 588.606 425.037 595.562C424.543 601.862 399.438 601.761 396.638 616.001C399.552 627.358 420.383 608.676 426.083 618.505ZM178.166 637.893C177.76 660.044 178.508 679.562 194.548 697.804C198.745 702.577 204.885 705.63 211.269 706.246C215.84 703.193 220.435 699.156 224.356 695.294C204.464 681.202 200.203 669.015 195.161 644.737C194.219 640.205 194.983 634.43 193.133 630.472L192.048 629.883C186.471 632.401 183.248 634.59 178.166 637.893ZM438.773 699.264C410.619 701.546 393.259 723.912 395.892 751.7C397.039 765.149 403.561 777.567 413.982 786.149C420.352 791.337 425.398 793.332 433.151 795.414C442.597 796.84 447.66 796.767 457.183 796.285C440.638 785.005 432.955 775.88 429.022 755.67C424.682 733.371 430.759 715.129 446.571 698.862L438.773 699.264ZM947.919 550.467C950.745 553.498 953.604 556.7 956.604 559.54C961.546 564.217 964.853 564.729 968.918 570.046C971.174 564.684 972.58 559.959 974.281 554.432C976.384 547.099 980.609 533.117 981.6 525.759C975.52 532.174 973.511 534.371 965.871 538.98C962.992 535.282 957.294 527.535 954.2 524.545L947.919 550.467ZM799.692 701.225C804.272 703.059 808.557 704.786 813.044 706.868C814.731 705.335 814.932 702.115 815.039 699.819C815.528 689.209 812.013 679.81 802.585 674.354C801.855 683.693 801.085 691.947 799.692 701.225ZM239.285 1202.55C238.721 1201.11 237.96 1199.66 237.28 1198.26C234.384 1214.95 232.189 1242.36 218.865 1252.44C226.952 1263.43 233.447 1267.88 245.001 1274.29C245.345 1264.08 246.47 1247.27 248.497 1237.25C238.544 1226.26 239.739 1217.11 239.285 1202.55ZM863.571 574.038C864.596 587.254 867.2 601.187 869.37 614.324C874.345 644.235 880.311 673.972 887.275 703.481L890.147 701.975C891.105 682.588 892.799 662.995 892.745 643.61C886.19 633.737 880.056 627.136 887.355 615.153C882.822 604.982 880.713 601.757 884.811 590.857C876.273 585.238 870.957 581.169 863.571 574.038ZM634.649 970.478C630.77 989.925 636.408 1042.28 640.042 1062.98C640.679 1066.61 643.56 1074.19 645.853 1077.33C647.694 1079.86 650.424 1082.72 653.737 1083.14C657.085 1083.59 659.955 1082.35 662.705 1080.67C670.133 1069.23 678.282 1057.25 692.497 1054.29C709.753 1050.7 720.366 1062.5 730.811 1073.68C742.958 1051.64 744.806 946.773 737.996 919.306C737.393 916.87 736.503 914.835 734.548 913.121C732.76 912.485 732.76 912.371 730.798 912.565C704.249 917.713 685.922 940.815 663.667 954.719C652.517 961.682 644.607 961.153 634.649 970.478ZM379.795 900.703C380.073 896.298 381.265 884.804 379.391 881.43L378.371 881.042C353.108 888.941 341.485 890.635 315.574 895.314C314.195 900.542 310.592 913.636 311.472 918.65C312.698 919.387 312.073 919.3 313.347 919.333C335.566 916.013 359.967 911.936 379.795 900.703ZM591.544 970.377C577.366 958.361 558.765 946.941 543.503 935.768C528.107 924.501 512.043 908.013 492.376 907.678C478.597 930.278 480.111 1026.32 487.021 1054.88C488.154 1059.56 489.599 1064.53 493.387 1067.84C494.896 1067.76 495.914 1066.97 496.856 1065.73C503.572 1056.9 510.706 1050.37 522.349 1049.43C531.642 1048.67 541.661 1052.65 548.812 1058.86C555.825 1064.94 558.14 1073.25 563.673 1080.77C568.065 1081.17 572.924 1081.91 576.661 1078.96C586.17 1071.48 589.53 1014.63 590.594 999.812C591.294 990.059 591.897 980.151 591.544 970.377ZM959.296 1253.39C960.93 1261.72 961.967 1271.77 962.985 1280.31C972.587 1274.37 979.558 1270.51 988.035 1262.87C980.676 1249.63 980.341 1232.33 978.741 1217.45L973.404 1168.66C972.909 1164.15 972.065 1152.29 970.377 1148.88L969.072 1150.48C968.496 1178.99 968.683 1217.65 964.097 1246.14C963.722 1248.46 960.93 1251.52 959.296 1253.39ZM892.584 599.769C894.011 602.739 895.102 605.464 897.218 607.977L897.807 608.101C910.583 594.673 933.095 579.389 947.404 566.57C947.491 566.123 947.585 565.676 947.672 565.229C946.312 563.303 946.393 563.398 944.337 562.214L943.192 562.177C919 576.597 913.63 580.653 892.584 599.769ZM713.087 526.2C730.47 532.01 749.861 551.296 763.065 563.938C764.967 560.751 766.989 558.097 769.186 555.119C753.805 540.355 733.824 530.941 713.522 525.062L713.087 526.2ZM770.465 571.902C789.427 600.394 800.951 628.652 802.317 663.412C818.186 669.432 819.72 676.242 825.116 691.478C837.209 694.33 846.537 697.014 856.708 704.813L858.268 706.139L858.864 705.61C857.558 697.777 850.414 682.434 847.052 674.756C833.754 644.414 807.359 585.748 780.234 566.302C778.975 565.412 777.683 564.569 776.357 563.776C774.375 566.472 772.406 569.181 770.465 571.902ZM508.759 552.518C514.055 545.793 526.486 540.589 529.424 534.026C528.851 531.027 527.143 531.206 524.296 530.769C516.468 534.419 500.994 541.785 505.203 552.802L506.575 553.963C508.263 553.448 507.544 553.889 508.759 552.518ZM494.03 585.46C491.763 583.12 479.764 570.483 477.746 569.519C450.061 598.181 433.168 632.569 417.991 668.955C413.407 679.944 408.246 691.739 404.332 702.919C408.01 699.739 410.284 697.764 414.658 695.568C426.191 690.447 435.184 688.03 447.746 687.937C452.312 675.947 455.065 671.489 466.015 664.833C471.734 630.225 477.364 615.665 494.03 585.46ZM786.923 796.572C812.809 791.98 828.88 762.726 824.293 738.298C822.813 730.084 818.072 722.821 811.156 718.148C803.154 712.686 795.996 712.244 786.662 711.856C775.225 713.074 765.925 718.048 758.733 727.085C751.013 736.792 747.518 749.197 749.038 761.508C750.209 772.473 755.8 782.488 764.519 789.235C771.924 794.912 777.95 795.803 786.923 796.572ZM259.312 646.268C257.027 645.424 256.602 645.456 255.356 643.535C256.295 635.802 271.685 645.829 277.176 642.876C284.134 629.679 259.489 627.276 253.716 622.984C254.744 615.395 273.087 622.38 278.675 622.159C284.715 615.159 269.16 607.241 263.905 606.126C259.32 605.153 248.456 604.016 246.007 600.388C248.48 595.463 255.938 596.281 260.634 597.016C265.073 597.856 269.433 599.166 273.845 600.124C274.596 600.288 276.297 600.497 276.561 599.619C279.081 591.252 267.534 586.548 261.381 584.546C256.173 582.853 252.034 583.121 246.812 583.232C216.754 590.543 218.246 602.277 204.15 626.335C204.575 640.573 208.686 683.204 230.135 683.371C239.452 683.438 248.555 668.798 257.016 662.701C262.837 663.386 272.136 665.029 273.806 657.079C272.667 649.591 265.529 647.966 259.312 646.268ZM466.813 693.393C466.587 689.938 466.403 680.459 464.598 678.076C462.159 681.477 455.434 690.26 456.502 694.537L458.157 694.852C460.916 694.39 464.105 693.935 466.813 693.393ZM482.381 789.57C494.87 784.529 502.909 778.297 508.319 765.404C513.181 753.508 513.204 740.179 508.381 728.27C501.3 711.086 485.374 701.258 466.768 703.628C414.648 717.787 438.439 796.639 482.381 789.57ZM623.154 559.97C555.85 566.977 506.901 627.101 513.701 694.41C520.501 761.722 580.487 810.845 647.833 804.258C715.478 797.637 764.873 737.341 758.044 669.735C751.214 602.132 690.756 552.932 623.154 559.97ZM808.015 581.301C817.055 592.866 825.023 605.226 831.826 618.229C832.094 604.888 832.127 575.542 836.754 563.917L837.598 563.249C840.403 565.67 841.481 601.649 840.926 607.105C838.281 633.023 844.715 642.704 855.355 666.624C876.119 713.302 902.447 786.879 836.406 811.22C836.325 821.127 835.971 829.12 835.301 838.968C834.598 859.573 833.212 881.999 833.018 902.423C841.039 906.366 853.139 913.208 862.312 910.303C866.142 909.098 868.218 906.226 869.905 902.751C880.532 880.934 891.252 757.35 887.368 731.109C886.183 723.122 882.668 715.45 880.652 707.632C874.392 683.331 867.394 658.506 863.27 633.762C860.966 619.965 858.864 606.022 857.351 592.117C856.125 580.872 856.299 567.377 852.851 556.614C849.664 546.669 839.968 539.981 837.39 529.808C836.098 524.681 840.155 511.971 838.682 510.724C817.577 531.759 815.722 554.932 808.015 581.301ZM546.879 1311.25C553.971 1297.86 558.717 1281.51 556.062 1266.35C555.31 1261.88 548.908 1257.5 545.407 1254.71C533.174 1245.22 518.829 1241.25 503.134 1243.48C479.384 1247.36 448.973 1281.64 450.284 1305.23C451.055 1319.11 493.324 1319.13 503.517 1318.77C515.011 1318.37 536.241 1316.25 546.879 1311.25ZM1014 444.475C1009.46 475.865 1000.76 501.423 991.275 531.451C986.146 547.666 981.607 564.828 975.928 580.775C982.142 588.65 993.753 604.025 1000.66 610.381C1002.52 606.312 1004.74 601.824 1006.44 597.753C1012.82 585.065 1024.5 563.336 1029.2 550.605C1002.2 524.985 1000.16 527.814 1035.31 513.166C1029.94 481.914 1039.53 467.954 1014 444.475ZM368.225 150.077C375.434 152.905 384.247 156.13 391.133 159.355C397.905 141.93 406.887 119.719 416.52 103.582C420.864 95.8508 426.093 89.364 432.345 83.1283C435.066 82.0444 435.401 81.7157 438.164 82.1475C440.051 83.1825 441.266 84.1819 441.738 86.4868C446.154 108.085 436.611 133.101 425.851 151.477C421.454 158.985 417.476 165.031 414.398 172.566C417.699 175.25 421.029 177.901 424.385 180.515C429.033 170.525 437.085 158.783 441.965 147.561C446.26 137.682 451.715 127.156 454.754 116.177C459.954 95.8475 464.802 67.3383 458.83 46.856C451.744 22.5536 428.971 45.9455 421.187 54.7472C396.21 82.991 381.517 115.366 368.225 150.077ZM703.043 1246.08C672.282 1250.73 672.939 1265.92 648.413 1271.36C647.514 1282.16 646.044 1291.71 653.67 1300.92C664.53 1314.04 693.944 1317.51 710.436 1318.82C712.09 1318.94 713.743 1319.03 715.404 1319.08C731.099 1319.9 760.655 1321.62 770.839 1307.98C767.893 1283.37 751.569 1260.78 728.863 1250.03C720.091 1245.88 712.572 1245.59 703.043 1246.08ZM895.129 583.304C900.251 579.317 905.996 575.296 910.925 571.369C920.131 564.804 928.481 559.373 937.956 553.262C938.518 539.057 942.536 526.933 943.406 513.215C944.25 499.875 940.795 486.933 942.971 473.224C944.357 464.484 954.287 454.006 949.667 447.664C942.074 443.172 933.476 452.808 930.008 458.818C924.611 468.166 925.555 479.79 923.741 490.163L922.843 489.5C918.183 486.026 914.614 482.275 910.496 478.225C895.075 463.046 868.687 445.414 846.57 445.829C843.939 448.318 843.979 447.572 842.988 450.598C845.452 465.126 893.308 475.096 886.197 485.746C879.427 488.061 865.881 476.362 859.955 486.422C858.85 488.302 859.152 489.253 859.487 491.133C863.678 497.017 871.807 496.177 873.454 501.846L873.012 503.492C866.852 506.951 855.208 495.898 850.715 506.272C850.996 513.565 862.172 513.697 858.348 520.444C853.239 521.985 851.157 518.07 847.929 522.482C847.3 526.801 848.097 528.818 850.588 532.409C866.129 554.774 868.144 570.59 895.129 583.304ZM573.281 1227.02C575.529 1208.49 588.714 1109.7 579.172 1098.23C578.322 1097.22 577.078 1096.53 575.762 1096.48C571.234 1096.3 565.287 1101.43 562.253 1104.55C552.288 1114.79 545.692 1126.65 529.739 1127C521.249 1127.19 511.386 1123.66 505.288 1117.67C497.819 1110.34 497.33 1099.21 491.371 1090.9C479.073 1115.14 489.548 1204.2 493.386 1234.01C526.899 1229.49 542.58 1235.89 566.625 1260.28C570.094 1247.59 571.434 1240.08 573.281 1227.02ZM731.354 1095.63C727.838 1107.25 723.915 1119.53 712.525 1125.69C704.784 1129.88 694.031 1131.4 685.554 1128.78C670.367 1124.09 656.179 1092.82 646.29 1097.46C643.188 1098.92 641.124 1102.75 640.135 1105.87C636.293 1117.98 644.275 1208.34 646.315 1227.23C647.856 1240.31 648.778 1249.17 652.105 1261.7C673.093 1244.1 688.614 1232.92 717.453 1235.46C720.419 1235.75 723.386 1236.07 726.345 1236.44C729.532 1212.13 743.534 1110.93 732.137 1096.55C731.889 1096.24 731.622 1095.93 731.354 1095.63Z" fill="#303030"/>
<path d="M578.993 1259.65L583.849 1260.71C589.509 1261.57 599.715 1261.31 605.776 1261.29L640.624 1261.17C637.936 1275 633.521 1293.47 641.906 1306.25C650.269 1318.99 676.448 1325.24 691.339 1327.79C713.925 1331.65 751.522 1335.74 771.463 1322.77C776.049 1319.78 780.181 1314.15 780.777 1308.74C782.397 1293.94 769.628 1273.89 761.921 1261.88C780.402 1261.93 800.67 1265.74 818.193 1266.13C808.732 1273.59 802.163 1279.23 800.483 1291.81C797.121 1317.01 828.405 1318.2 846.296 1319.07C871.004 1320.24 895.725 1317.19 919.402 1310.05C926.975 1312.2 930.129 1312.79 937.97 1312.77C942.925 1335.06 956.805 1337.62 977.603 1339.44C1008.01 1342.09 1037.18 1336.16 1065.17 1324.37C1068.16 1323.1 1073.64 1323.23 1076.97 1322.65C1095.85 1320.99 1095.87 1304.44 1096.21 1290.35L1096.94 1290.61C1107.87 1294.58 1141.69 1299.26 1137.4 1317.05C1135.84 1323.54 1120.27 1330.23 1114.24 1331.76C1009.08 1358.51 892.23 1363.13 784.58 1367.51L724.19 1369.78C718.002 1370 700.459 1369.33 696.087 1371H525.125C521.989 1369.71 451.239 1368.27 441.538 1367.91C358.309 1364.85 275.515 1360.21 192.844 1349.67C158.49 1345.28 122.918 1341.73 90.1615 1329.88C83.783 1327.57 72.6048 1323.48 69.7289 1316.7C68.8846 1314.71 68.9843 1312.65 69.9593 1310.72C74.7187 1301.31 98.8206 1294.18 108.569 1290.85C109.601 1292.79 109.653 1300.79 110.131 1303.48C113.52 1322.53 131.755 1326.16 147.622 1323.22C158.972 1328.12 174.849 1333.53 188.209 1334.8C209.537 1336.84 248.402 1340.98 266.645 1327.79C273.163 1323.08 273.8 1317.8 274.511 1310.83C278.256 1310.58 287.888 1308.98 291.148 1309.49C323.981 1314.71 356.227 1319.88 389.478 1313.66C419.168 1308.11 413.328 1284.71 398.134 1266.99C407.647 1264.39 445.212 1261.59 455.453 1263.96C452.263 1273.62 440.792 1284.89 439.684 1296.91C439.06 1303.7 438.183 1309.81 442.756 1315.79C449.714 1324.88 462.104 1327.19 472.732 1328.85C505.42 1332.28 543.308 1330.42 570.901 1310.78C588.74 1298.09 576.292 1275.24 578.993 1259.65Z" fill="#dbdbdb"/>
<path d="M460.282 326.948C462.478 326.968 465.397 327.085 467.522 326.883C461.86 351.06 461.166 367.821 466.846 392.608L463.654 394.16C449.991 381.369 450.031 349.947 455.338 333.517C455.791 332.116 459.159 328.247 460.282 326.948Z" fill="#636363"/>
<path d="M242.462 195.352C236.145 200.874 228.666 205.717 224.993 194.15C222.816 187.297 221.982 179.085 221.222 171.885C217.767 139.141 218.449 103.859 232.092 73.3251C234.37 68.2307 239.749 61.0087 245.873 65.5595C252.856 70.5884 253.872 79.6773 255.135 87.4655C259.72 112.3 257.464 174.993 242.462 195.352Z" fill="#dbdbdb"/>
<path d="M255.136 87.4648C259.72 112.299 257.464 174.993 242.463 195.351C241.112 192.279 240.93 190.04 241.376 186.65C243.155 173.075 247.209 159.798 249.493 146.322C252.167 130.542 251.915 114.216 254.358 98.3853C254.935 94.6418 255.32 91.2572 255.136 87.4648Z" fill="#303030"/>
<path d="M227.544 773.416C228.941 773.905 229.02 774.092 230.303 774.922C231.637 777.205 232.04 779.715 231.428 782.467C226.941 802.597 215.304 825.311 202.571 841.397C198.598 846.411 192.579 850.903 187.842 854.498L187.383 854.572C184.866 853.373 185.735 854.257 184.432 852.108C183.958 845.876 194.344 836.718 198.85 831.824C214.084 815.282 215.903 791.953 227.544 773.416Z" fill="#303030"/>
<path d="M589.928 294.177C616.967 292.86 672.938 294.568 697.653 304.447C702.708 306.479 707.375 309.381 711.433 313.022C743.526 341.363 741.323 410.252 698.182 427.45C682.212 433.815 669.838 434.844 653.018 435.611C622.93 436.914 597.809 434.401 566.631 431.616C506.457 426.239 492.028 360.793 523.51 317.065C536.287 299.316 568.514 295.563 589.928 294.177ZM671.492 392.66C679.781 385.92 683.712 380.086 684.998 369.252C686.491 356.714 681.007 342.819 666.242 343.39C653.138 354.936 645.358 376.364 662.867 389.877C665.134 391.628 668.631 392.155 671.492 392.66ZM570.142 388.991C578.221 381.513 581.77 375.3 582.396 364.126C583.105 351.478 577.751 339.139 562.872 340.81C558.594 344.795 556.379 346.88 553.866 352.177C547.051 366.536 550.256 388.865 570.142 388.991Z" fill="#303030"/>
<path d="M590.448 448.232C599.269 449.418 603.626 453.955 611.941 455.962C618.811 457.62 639.501 447.102 642.714 454.962C642.262 457.619 641.407 458.236 639.613 460.416C639.153 460.694 638.69 460.964 638.223 461.227C625.368 468.407 583.228 471.764 590.448 448.232Z" fill="#303030"/>
<path d="M705.969 599.218C709.217 598.796 711.54 598.287 714.205 600.179C715.163 602.622 714.922 604.061 714.205 606.594C710.221 620.739 699.849 633.396 692.832 646.17C683.692 662.816 675.831 681.611 663.71 696.298C649.288 713.777 585.814 747.162 563.585 759.459C560.485 760.503 559.187 761.193 556.343 759.285C555.272 757.016 555.345 755.201 556.033 752.738C559.442 740.521 569.862 729.843 576.166 718.731C586.299 700.884 597.571 678.745 610.175 662.768C616.5 654.748 640.764 639.793 650.411 633.628C668.741 621.856 687.261 610.385 705.969 599.218Z" fill="#303030"/>
<path d="M613.634 675.285C614.282 676.028 614.301 675.841 614.473 676.624C618.687 695.763 624.097 699.646 643.756 700.456C629.261 710.691 604.601 724.75 588.898 734.336C582.248 738.138 576.162 742.469 569.861 746.814C585.46 723.257 598.343 699.023 613.634 675.285Z" fill="#dbdbdb"/>
<path d="M635.139 661.722C643.355 660.078 651.351 665.4 653.004 673.611C654.657 681.825 649.341 689.825 641.127 691.485C632.902 693.152 624.887 687.823 623.233 679.603C621.578 671.375 626.91 663.369 635.139 661.722Z" fill="#dbdbdb"/>
<path d="M909.345 403.389C912.137 403.086 916.108 402.602 918.759 403.07C933.497 405.65 928.575 421.808 918.625 427.492C910.711 432.012 904.309 432.905 895.457 430.844C893.643 430.12 891.072 429.026 889.511 427.898C856.454 403.994 893.589 404.587 909.345 403.389Z" fill="#303030"/>
<path d="M880.056 330.914C893.455 337.383 873.18 360.636 874.144 370.484C875.001 379.275 890.268 376.071 890.911 383.225C889.504 385.197 889.196 385.201 886.913 386.268C847.581 384.688 871.017 351.156 880.056 330.914Z" fill="#303030"/>
<path d="M928.87 311.896C944.799 317.501 943.574 339.117 931.24 347.063C912.384 343.941 918.558 321.537 928.87 311.896Z" fill="#303030"/>
<path d="M854.471 310.975C871.814 313.374 867.656 333.494 859.045 343.761C841.167 341.92 846.59 320.969 854.471 310.975Z" fill="#303030"/>
<path d="M926.338 277.905C936.844 276.775 958.398 279.295 959.496 295.053C959.604 296.52 958.747 296.856 957.709 297.64C954.99 297.447 955.76 297.439 953.176 295.711C948.529 292.485 946.915 291.983 942.181 289.762C935.324 286.548 919.401 291.189 915.571 285.65C916.194 281.092 922.595 279.194 926.338 277.905Z" fill="#303030"/>
<path d="M850.487 275.938C858.087 274.777 868.64 275.982 872.015 283.98C871.74 286.474 872.262 285.456 870.387 287.135C865.232 288.711 860.859 286.59 855.603 284.972L854.799 285.031C849.429 285.381 840.859 293.036 836.392 289.87C836.125 283.122 845.445 278.44 850.487 275.938Z" fill="#303030"/>
<path d="M338.893 426.699C351.736 428.488 367.138 439.212 379.728 438.619C397.641 437.776 399.874 445.926 385.503 456.46C382.335 458.457 379.27 460.188 375.67 461.312C367.053 464.059 357.692 463.212 349.709 458.963C336.851 452.187 331.045 440.214 338.893 426.699Z" fill="#303030"/>
<path d="M337.25 343.1C354.105 346.32 355.064 372.732 340.007 382.048C325.946 384.601 324.956 361.289 329.898 352.867C332.836 347.859 333.067 347.135 337.25 343.1Z" fill="#303030"/>
<path d="M416.953 345.268C419.584 345.306 422.857 346.844 424.487 348.819C433.024 359.162 427.788 375.041 419.443 383.071C400.476 377.038 406.46 356.33 416.953 345.268Z" fill="#303030"/>
<path d="M392.613 376.125C405.292 379.156 413.779 398.297 407.8 409.834C404.439 416.319 399.048 418.149 392.61 420.035C389.372 419.861 386.652 420.187 384.471 417.501C385.832 412.412 396.293 409.548 399.92 404.648C403.016 400.465 395.273 389.659 394.041 384.455C393.21 380.945 393.003 379.667 392.613 376.125Z" fill="#303030"/>
<path d="M335.62 306.01C341.458 305.606 355.496 307.409 356.389 314.686C352.116 320.963 339.592 313.539 327.268 318.396L326.475 318.712C322.466 321.694 316.264 327.204 311.061 325.832C308.316 317.174 329.547 308.321 335.62 306.01Z" fill="#303030"/>
<path d="M418.035 307.302C425.769 306.465 436.751 308.521 438.835 317.328C438.171 319.753 438.842 318.83 436.784 320.217C434.25 320.368 433.379 319.528 431.052 318.199C424.255 315.898 413.696 320.427 409.128 316.085L409.269 314.462C411.848 310.79 414.256 309.631 418.035 307.302Z" fill="#303030"/>
<path d="M1091.1 799.578C1093.15 799.745 1093.85 800.314 1094.78 802.048C1092.16 813.569 1026.99 818.63 1016.13 818.329C1013.28 817.713 1010.51 816.629 1011.5 813.248C1012.56 812.257 1013.57 811.494 1015.07 811.307C1034.56 808.81 1054.19 806.875 1073.45 802.798C1079.32 801.56 1085.14 800.214 1091.1 799.578Z" fill="#303030"/>
<path d="M938.759 164.96C965.723 161.235 1003.39 169.167 1018.97 193.025C1021.08 196.258 1026.43 204.578 1028.97 206.708C1037.9 214.209 1048.77 218.097 1053.61 229.835C1067.31 258.34 1059.86 288.017 1050.8 316.131C1032.03 308.509 1024.62 312.228 1009.77 324.986C1003.67 302.471 987.331 281.167 990.358 260.475C991.596 251.212 1000.72 226.48 991.235 221.222C973.444 211.363 946.031 222.868 927.041 224.516C906.826 226.27 884.254 225.44 866.852 214.102C861.903 210.859 857.638 201.117 851.746 201.859C848.605 205.818 851.953 212.144 853.681 216.151C851.906 215.48 849.596 214.615 847.956 213.714C840.269 209.557 834.564 202.498 832.12 194.111C829.636 185.336 831.47 179.924 835.789 172.378C847.152 173.939 860.986 175.713 872.443 174.473C894.974 172.038 915.959 166.885 938.759 164.96Z" fill="#636363"/>
<path d="M488.51 812.189C503.403 819.058 515.209 820.618 530.136 826C538.445 829.247 545.684 835.245 553.463 839.429C585.105 856.452 621.204 863.247 656.743 857.39C688.353 852.181 714.065 838.759 740.474 821.562C739.148 839.047 738.318 848.807 734.26 865.684C717.862 864.352 713.831 865.958 700.439 875.391C690.649 883.705 685.239 890.286 677.325 900.026C664.42 915.677 648.917 944.048 628.384 949.711C568.105 966.333 559.121 877.325 511.707 862.651C505.06 860.59 499.709 861.674 493.214 863.622C489.456 846.397 488.261 829.836 488.51 812.189Z" fill="#dbdbdb"/>
<path d="M379.461 213.162C391.81 212.397 403.181 216.165 414.525 220.352C415.113 255.55 394.745 281.34 361.585 291.438C364.587 285.393 374.954 264.173 367.64 258.827C364.578 259.93 356.47 271.61 352.511 275.483C332.971 294.6 310.436 305.713 283.188 308.006C275.68 308.637 263.007 308.622 256.241 309.947C255.047 311.531 255.501 311.411 255.657 314.029C261.052 318.47 268.526 318.424 275.26 318.831C269.665 337.247 265.633 342.612 255.186 358.28C249.295 351.186 247.355 349.132 239.676 343.809C262.252 280.768 306.141 217.254 379.461 213.162Z" fill="#636363"/>
<path d="M624.516 519.759C636.841 519.031 648.713 518.975 661 520.537C700.7 525.689 736.731 546.387 761.184 578.082C790.767 616.277 795.086 654.314 789.28 700.549C783.401 701.962 777.549 703.508 771.73 705.182C783.522 615.83 745.603 554.907 654.898 537.661C645.615 537.059 638.433 536.739 629.162 537.326C590.563 539.49 554.45 557.057 528.924 586.084C500.508 618.558 491.576 656.293 494.399 698.333C488.606 695.636 482.975 694.457 476.766 693.206C473.915 652.279 486.286 611.742 511.505 579.378C540.647 542.625 578.768 525.137 624.516 519.759Z" fill="#dbdbdb"/>
<path d="M17.82 722.004C26.0784 723.249 36.7692 725.666 45.1822 727.319C55.9783 759.017 69.7116 765.925 101.547 771.857C92.8292 783.746 89.6935 796.197 96.8769 809.673C92.7026 825.445 92.1442 836.738 95.1627 852.711C95.5122 854.579 95.5712 853.688 94.9812 855.489C92.4308 856.908 90.0008 856.299 87.2341 855.837C64.5284 852.008 31.9677 845.441 18.2696 825.398C15.2554 820.946 13.1961 815.919 12.2214 810.63C8.42011 790.668 13.8264 742.341 17.82 722.004Z" fill="#636363"/>
<path d="M125.709 1252.72C157.205 1261.8 176.254 1260.92 207.75 1254.58C220.292 1273 225.267 1273.23 244.261 1285.24C255.347 1292.25 261.729 1297.66 264.56 1310.58C263.414 1315.48 262.912 1317.08 259.422 1320.67C236.759 1329.26 197.906 1325.47 174.163 1320.47C166.375 1318.83 156.324 1314.81 149.111 1313.42C136.04 1310.91 133.692 1313.06 121.254 1307.52C118.38 1285.68 120.803 1273.7 125.709 1252.72Z" fill="#636363"/>
<path d="M329.824 1240.68C341.241 1239.02 339.728 1248.22 347.841 1252.68C362.481 1260.75 380.68 1264.91 392.426 1277.46C402.922 1288.67 402.461 1299.59 385.795 1302.44C365.406 1306.43 344.703 1306.15 324.238 1303.44C312.244 1302.48 300.362 1299.26 288.322 1298.43C282.602 1298.03 276.887 1297.86 271.156 1297.7C266.164 1291.55 259.818 1284.75 254.419 1278.89C254.692 1267.2 256.348 1253.52 258.053 1242.03C286.977 1247.03 300.923 1245.48 329.824 1240.68Z" fill="#636363"/>
<path d="M81.4382 497.525C96.3245 496.615 109.402 498.43 119.074 510.743C124.562 543.553 108.79 547.533 94.1349 571.435C79.9925 594.502 68.1287 622.705 58.0941 647.834C56.1361 652.564 54.2292 657.315 52.3738 662.087L34.959 657.154C37.1845 627.863 43.1933 598.478 49.3474 569.744C55.1135 542.823 54.9008 512.877 81.4382 497.525Z" fill="#636363"/>
<path d="M999.686 1265.18C1029.7 1274.7 1052.3 1271.26 1082.73 1266.93C1085.43 1280.18 1085.23 1292.1 1084.64 1305.55C1082.37 1307.95 1079.76 1310.48 1077.4 1312.85C1073.66 1312.12 1070.08 1311.24 1066.38 1310.34C1052.3 1317.17 1050.63 1318.91 1035.05 1322.8C1010.06 1328.25 975.333 1334.45 951.957 1320.24C950.31 1319.24 948.087 1315.62 948.241 1313.61C949.6 1295.94 970.224 1288.04 982.926 1279.29C988.992 1275.1 994.536 1270.89 999.083 1265.85L999.686 1265.18Z" fill="#636363"/>
<path d="M871.144 1250.38C873.562 1250.65 880.217 1254.4 884.831 1255.25C909.278 1259.81 926.459 1261.63 951.013 1256.49C952.359 1267.61 952.881 1275.92 952.875 1287.11C949.212 1292.15 944.431 1297.27 940.26 1301.97C919.395 1299.44 915.384 1300.33 895.082 1305.11C871.406 1308.65 847.702 1309.97 824.005 1305.08C818.682 1303.98 806.824 1299.16 809.803 1291.96C816.7 1275.28 836.339 1269.63 851.016 1261.9C858.235 1258.12 864.489 1254.39 871.144 1250.38Z" fill="#636363"/>
<path d="M901.684 657.145C913.931 673.918 925.461 689.489 938.19 705.89L939.034 809.398C935.123 814.131 926.425 823.449 921.798 827.252L916.274 832.219C914.64 830.646 912.96 828.57 911.467 826.823C896.26 808.059 895.443 805.127 896.428 781.436C898.148 740.024 899.923 698.533 901.684 657.145Z" fill="#919191"/>
<path d="M911.467 826.824C919.709 826.208 915.143 822.138 921.799 827.253L916.274 832.22C914.641 830.647 912.96 828.571 911.467 826.824Z" fill="#919191"/>
<path d="M521.607 758.014C524.567 760.009 535.672 772.808 539.469 776.457C563.563 799.606 600.534 812.479 633.767 811.468C676.97 810.149 708.702 795.054 738.519 764.367C740.996 770.666 746.326 780.547 741.445 786.304C740.688 786.993 739.925 787.67 739.161 788.346C706.392 817.225 663.483 831.899 619.887 829.141C577.682 826.37 542.373 807.364 514.757 775.834C519.064 769.454 519.788 765.404 521.607 758.014Z" fill="#dbdbdb"/>
<path d="M242.949 690.146L243.44 690.756C243.514 693.079 240.63 697.43 239.531 699.699C215.493 749.284 160.299 796.727 103.242 800.857C101.454 795.294 102.978 787.395 103.828 781.584C140.514 769.669 180.281 752.471 208.377 725.312C215.139 718.725 221.788 712.017 228.321 705.202C232.376 700.898 238.165 694.156 242.36 690.635L242.949 690.146Z" fill="#636363"/>
<path d="M452.121 394.082C461.907 402.226 465.398 435.265 464.466 447.441C462.552 472.439 455.884 483.791 437.419 499.711C437.649 493.087 437.839 486.463 437.991 479.836C429.57 490.541 425.512 497.821 413.174 503.656C402.259 506.785 394.311 506.612 383.646 502.981C433.27 479.885 443.372 443.164 452.121 394.082Z" fill="#636363"/>
<path d="M175.566 502.245C193.19 501.077 203.136 508.754 218.435 516.867C240.635 528.639 247.44 549.068 253.615 572.016C245.707 573.431 239.168 574.784 231.46 576.91C229.188 577.948 226.203 579.706 223.945 580.942C222.339 577.743 221.073 574.53 219.942 571.135C208.045 535.421 197.49 508.985 155.173 511.05C162.836 505.918 166.622 504.032 175.566 502.245Z" fill="#636363"/>
<path d="M637.864 544.542C681.463 542.034 735.78 572.692 752.011 613.957C747.531 608.925 743.473 600.921 740.012 597.15C725.475 581.319 703.834 567.169 683.632 560.519C644.617 547.674 608.296 554.114 572.557 571.615C540.302 589.86 517.847 618.48 506.898 653.673C504.977 659.846 504.953 666.532 502.8 673.028C501.248 670.063 503.593 660.25 504.219 656.756C508.545 632.881 516.984 611.057 532.961 592.439C560.098 560.815 597.434 547.769 637.864 544.542Z" fill="#636363"/>
<path d="M519.451 1060.47C523.93 1060.19 527.163 1059.93 531.551 1061.25C539.172 1063.56 545.563 1068.8 549.314 1075.83C558.189 1092.34 551.358 1107.48 535.508 1115.85C532.293 1116.53 528.848 1116.39 525.656 1115.92C502.496 1112.51 493.38 1078.19 512.273 1064.06C514.369 1062.49 517.066 1061.47 519.451 1060.47Z" fill="#dbdbdb"/>
<path d="M510.337 787.588C513.798 788.933 532.161 804.926 536.759 808.421C551.865 819.888 571.305 827.915 589.659 832.781C632.581 844.168 677.826 836.323 716.468 815.202C727.001 809.445 734.407 800.97 744.397 794.791C746.955 793.204 750.376 791.604 753.376 792.435L754.066 793.673C753.751 795.835 753.189 796.357 751.97 798.131C742.562 807.303 732.15 815.383 720.935 822.224C683.645 844.911 637.737 853.681 595.085 843.225C563.705 835.533 527.414 815.597 510.337 787.588Z" fill="#636363"/>
<path d="M692.591 1064.71C697.761 1064.31 702.167 1064.54 707.035 1066.29C726.419 1073.24 725.12 1102.18 711.233 1113.7C707.697 1116.64 704.504 1117.85 700.292 1119.49C664.032 1119.37 661.741 1079.84 692.591 1064.71Z" fill="#dbdbdb"/>
<path d="M432.344 83.1276C435.065 82.0438 435.4 81.7151 438.164 82.1469C440.05 83.1818 441.266 84.1813 441.737 86.4862C446.153 108.084 436.611 133.1 425.85 151.477C421.454 158.984 417.476 165.03 414.398 172.565C412.359 172.368 400.606 164.376 398.263 162.711C406.327 137.856 410.456 127.462 421.98 104.458C419.303 104.382 418.999 104.44 416.52 103.581C420.863 95.8502 426.092 89.3634 432.344 83.1276Z" fill="#dbdbdb"/>
<path d="M432.345 83.1289C430.11 90.8261 425.932 97.4936 421.98 104.46C419.304 104.383 418.999 104.441 416.521 103.583C420.864 95.8515 426.093 89.3647 432.345 83.1289Z" fill="#000000"/>
<path d="M119.81 916.127C118.831 913.583 118.533 913.429 119.354 911.301C121.219 910.323 122.827 910.049 124.83 910.906C134.168 914.889 142.47 917.928 152.316 920.545C208.405 935.668 267.121 938.366 324.361 928.445C333.632 926.798 342.843 924.816 351.974 922.514C357.398 921.088 366.697 918.236 371.911 917.339C371.747 920.505 371.655 926.249 370.814 929.041C359.436 923.852 317.593 937.275 304.08 938.66C290.719 940.026 273.579 941.646 260.109 941.057C236.606 940.019 202.612 938.352 179.953 933.07C160.878 928.625 139.365 921.088 119.81 916.127Z" fill="#dbdbdb"/>
<path d="M719.642 875.586C732.331 873.872 729.92 893.138 729.981 901.674C697.967 910.082 683.786 929.254 656.574 946.291C653.468 947.871 650.336 949.398 647.18 950.87C675.362 926.135 686.899 892.221 719.642 875.586Z" fill="#919191"/>
<path d="M501.47 871.436C526.616 872.915 541.743 901.62 554.525 920.023C556.777 923.263 567.794 937.428 568.399 940.327L567.816 940.816L565.922 939.952C536.59 919.728 533.432 908.382 495.991 896.533C496.784 886.029 497.739 881.116 501.47 871.436Z" fill="#919191"/>
<path d="M422.417 222.533C457.2 236.587 468.626 280.874 456 313.74L455.278 314.811L454.681 314.428C450.892 284.593 446.085 264.271 419.966 246.461C421.754 237.693 422.177 231.337 422.417 222.533Z" fill="#636363"/>
<path d="M24.8441 667.309C32.5827 667.325 42.4004 669.231 50.0649 670.638C45.9708 685.352 44.5815 696.819 43.7507 712.056C43.5931 714.948 43.3303 715.47 41.5476 716.902C32.8066 715.061 24.1665 713.461 16.5728 708.722C15.9943 706.385 15.5747 704.009 15.317 701.619C14.1758 690.165 17.3104 676.321 24.8441 667.309Z" fill="#636363"/>
<path d="M777.897 317.158C781.513 317.564 783.709 319.051 786.903 320.766C770.525 338.85 770.478 376.431 773.545 399.456C774.187 404.268 778.988 410.74 779.933 416.286C778.814 418.351 779.109 417.714 776.431 418.904C753.732 415.579 759.068 370.081 760.601 353.5C761.813 340.345 766.976 325.379 777.897 317.158Z" fill="#dbdbdb"/>
<path d="M147.127 480.931C151.478 480.28 158.676 481.059 163.208 481.491C166.986 484.654 171.123 487.834 174.996 490.917C162.341 494.948 149.896 501.072 140.342 510.762C137.344 513.804 133.189 521.647 130.016 523.229C128.376 516.971 129.626 513.387 125.916 506.255C120.574 495.984 110.035 493.406 99.793 489.981C117.706 485.272 128.409 482.721 147.127 480.931Z" fill="#636363"/>
<path d="M518.618 510.946C536.046 510.542 545.687 516.916 553.247 532.592C551.066 533.79 548.135 535.059 545.832 536.136C542.342 532.081 535.79 522.725 530.723 521.607C513.12 517.722 497.989 532.6 493.066 547.669C494.13 560.928 509.268 568.87 503.263 575.98C488.491 579.474 461.34 527.894 518.618 510.946Z" fill="#dbdbdb"/>
<path d="M790.418 328.975C793.612 330.994 796.531 337.302 797.254 340.921C801.419 361.762 799.19 390.037 788.255 408.251C785.858 407.336 782.898 400.552 782.269 397.977C777.086 376.684 779.497 348.122 790.418 328.975Z" fill="#dbdbdb"/>
<path d="M976.323 930.078L977.006 930.151C986.36 931.223 994.683 933.639 1004.45 934.101C1034.07 935.507 1063.88 928.993 1092.61 922.814C1092.64 925.298 1092.96 930.5 1092.14 932.515L1091.7 932.843C1059.82 936.98 1022.2 944.933 989.842 939.115C983.863 938.037 979.531 935.313 976.323 930.078Z" fill="#dbdbdb"/>
<path d="M556.063 1266.35L556.672 1265.04C560.73 1266.4 565.574 1269.7 569.91 1271.53C571.255 1290.04 567.855 1306.72 546.88 1311.25C553.972 1297.86 558.718 1281.51 556.063 1266.35Z" fill="#dbdbdb"/>
<path d="M231.136 422.742L242.489 424.725C244.744 433.199 253.139 450.866 256.962 459.067C256.098 462.157 254.825 465.77 253.822 468.872L253.207 470.021L252.257 470.271C241.526 457.541 235.775 438.452 231.136 422.742Z" fill="#636363"/>
<path d="M484.303 321.188L484.877 321.562C485 326.083 483.08 339.798 482.506 344.946C481.405 355.12 481.067 365.362 481.497 375.586C481.667 379.506 483.864 395.76 483.012 397.574C481.162 396.696 481.974 397.33 480.79 395.288C479.236 391.879 477.916 388.368 476.838 384.781C470.275 362.258 473.061 341.486 484.303 321.188Z" fill="#dbdbdb"/>
<path d="M397.08 537.543C402.598 542.637 407.682 561.864 410.061 569.755L400.41 575.133C398.288 573.662 388.977 547.962 387.136 543.36C390.052 541.488 394.016 539.33 397.08 537.543Z" fill="#636363"/>
<path d="M834.939 216.723C836.084 217.252 840.946 220.49 842.271 221.341C830.634 237.435 828.351 248.183 825.19 267.558C824.802 268.782 825.023 268.325 824.052 269.297C821.601 267.304 820.999 257.985 820.992 254.879C820.945 238.192 823.342 228.59 834.939 216.723Z" fill="#636363"/>
<path d="M341.445 509.402C348.515 509.621 355.587 509.747 362.66 509.781C359.84 514.931 357.82 518.652 354.417 523.496L346.104 533.146C343.208 524.042 342.547 518.717 341.445 509.402Z" fill="#dbdbdb"/>
<path d="M499.835 793.252L500.856 793.259C505.138 796.197 514.204 807.852 517.82 812.25C514.267 810.999 510.589 809.8 507.009 808.595C500.13 805.703 493.369 802.537 486.741 799.109C491.612 797.161 495.152 795.602 499.835 793.252Z" fill="#dbdbdb"/>
<path d="M1092.07 946.988C1093.66 954.66 1092.75 982.803 1092.81 992.135C1092.86 1000.81 1093.54 1048.64 1091.61 1052.26C1090.38 1041.41 1089.91 956.093 1092.07 946.988Z" fill="#919191"/>
<path d="M939.215 822.828C940.668 825.325 941.184 832.053 941.565 835.239L929.225 835.48C927.986 835.427 928.569 835.628 927.504 834.751C928.468 831.27 936.142 825.426 939.215 822.828Z" fill="#919191"/>
<path d="M893.883 819.119C896.22 820.753 903.659 831.062 903.659 833.626L892.424 832.541C892.792 827.762 893.107 823.832 893.883 819.119Z" fill="#636363"/>
<path d="M412.045 645.418C414.098 645.676 413.29 645.233 414.628 646.633C415.07 650.758 412.353 654.193 409.009 656.3C406.117 653.634 403.516 651.789 405.34 647.814C407.484 646.071 409.309 645.983 412.045 645.418Z" fill="#dbdbdb"/>
<path d="M415.128 552.74C419.151 555.688 423.08 564.753 424.438 569.621C417.062 567.77 416.193 559.056 415.128 552.74Z" fill="#dbdbdb"/>
<path d="M583.241 510.592C586.834 512.071 592.481 512.488 595.512 514.335L595.024 514.973C590.874 516.122 587.339 517.85 583.739 516.035C582.515 513.269 582.923 514.007 583.241 510.592Z" fill="#dbdbdb"/>
<path d="M527.291 547.512L527.881 548.128C526.551 550.758 518.133 558.03 515.392 560.574L514.75 559.912L514.893 558.705C517.942 553.974 522.772 550.785 527.291 547.512Z" fill="#919191"/>
<path d="M683.706 509.557C684.389 509.592 684.777 509.836 685.46 510.101C685.895 512.104 686.009 511.165 685.092 513.013C682.688 514.686 683.632 514.209 680.11 514.041C678.63 513.451 677.767 513.294 676.829 512.015C678.182 510.49 681.322 510.17 683.706 509.557Z" fill="#636363"/>
<path d="M698.765 519.641C705.112 520.898 707.818 522.035 713.522 525.062L713.087 526.2C706.224 524.533 704.409 523.835 698.765 519.641Z" fill="#636363"/>
<path d="M969.072 1150.48C967.732 1148.02 969.159 1135.83 969.5 1132.29C969.976 1136 971.67 1146.05 970.377 1148.88L969.072 1150.48Z" fill="#dbdbdb"/>
<path d="M238.695 1187.57C239.776 1193.18 240.153 1196.83 239.285 1202.55C238.721 1201.11 237.961 1199.66 237.28 1198.26C237.63 1194.19 237.861 1191.56 238.695 1187.57Z" fill="#dbdbdb"/>
<path d="M566.824 521.283C567.938 521.297 568.846 521.423 569.946 521.543L570.464 522.379C568.789 524.156 566.89 524.602 564.563 525.493C562.618 525.869 563.365 526.126 562.071 525.303C563.127 523.511 565.058 522.475 566.824 521.283Z" fill="#dbdbdb"/>
<path d="M887.274 703.481L890.147 701.975C890.288 706.326 890.087 708.187 889.531 712.538C888.694 709.774 887.428 706.272 887.274 703.481Z" fill="#dbdbdb"/>
</g>
<defs>
<clipPath id="clip0_15479_18153">
<rect width="1145" height="1371" fill="#ffffff"/>
</clipPath>
</defs>
</svg>
