<svg width="1188" height="1403" viewBox="0 0 1188 1403" fill="none" xmlns="http://www.w3.org/2000/svg">
<g clip-path="url(#clip0_15479_18438)">
<path d="M269.627 406.246C270.508 406.194 271.39 406.166 272.272 406.16C305.526 406.118 314.591 473.438 314.318 498.602C314.262 503.829 314.142 509.265 314 514.505C346.182 525.56 364.478 543.33 377.291 574.749C387.163 598.959 392.185 619.082 393.275 645.179C398.486 653.012 402.203 658.647 407.004 666.839C422.329 641.787 436.149 609.802 456.244 589.206C457.371 581.217 456.674 573.012 460.779 565.808C465.232 558.967 471.345 555.258 476.363 548.697C485.019 537.458 505.857 478.309 524.606 505.033C530.98 514.118 518.455 531.155 515.783 541.006L515.552 541.885C527.863 548.176 525.73 550.167 532.745 560.399C538.215 565.976 543.18 570.734 540.737 579.977C536.506 595.991 521.874 614.504 508.454 623.672C508.565 626.866 508.568 630.48 507.933 633.634C495.208 696.95 458.624 753.721 415.539 800.798C405.742 811.506 396.876 822.261 385.793 831.455C385.094 844.183 385.144 856.35 384.19 869.256C382.577 891.089 380.522 913.319 379.308 935.111C378.154 955.861 384.084 967.398 377.905 988.662C400.469 991.471 435.16 1000.37 450.825 1018.9C474.863 1047.34 459.062 1096.75 450.347 1129.06C447.574 1139.34 440.271 1140.14 439.059 1154.93C462.993 1157.32 485.338 1159.97 494.076 1185.49C503.189 1184.02 511.025 1182.79 521.559 1185.93C530.686 1188.65 549.347 1199.29 547.654 1211.99C547.527 1212.94 546.786 1213.02 545.87 1213.48C537.906 1212.33 530.726 1200.62 522.359 1196.97C502.96 1188.53 492.247 1197.81 475.702 1206C468.883 1208.74 461.829 1211.9 454.656 1213.79C430.932 1220.08 405.728 1229.99 381.04 1229.94C374.351 1229.93 367.883 1227.24 362.224 1224.39C352.403 1225.8 333.622 1231.34 325.195 1236.13C305.061 1246.84 304.185 1259.53 289.391 1273.92C286.251 1276.98 274.887 1283.18 270.519 1285.73C262.892 1290.18 257.007 1294.23 249.768 1299.45C266.84 1314.18 281.552 1339.07 250.212 1347.49C218.669 1355.96 178.777 1348.8 150.326 1333.91C130.356 1342.94 110.597 1352.45 90.1305 1360.33C86.6898 1361.66 83.1827 1362.91 80.632 1359.53C81.6281 1349.38 134.491 1330.85 144.912 1325.59L145.56 1325.26C143.584 1306.28 150.347 1271.52 156.953 1253.4C154.775 1250.2 151.906 1245.97 151.775 1242.11C151.019 1219.77 156.168 1197.52 159.307 1175.48C164.017 1142.42 168.303 1109.3 168.682 1075.88C168.836 1062.25 165.84 1051.46 163.369 1038.36C138.704 1037.36 102.614 1038.08 85.8951 1016.72C68.9027 995.013 77.2077 962.774 76.8316 937.358C76.6281 923.588 71.4534 908.544 78.3053 895.857C81.1205 890.555 84.2062 887.815 88.8246 884.204C89.4241 873.463 91.163 859.09 92.44 848.088C95.4128 822.494 95.8197 795.996 108.129 772.882C118.166 754.036 140.228 750.364 159.925 744.959C154.685 737.218 150.517 728.806 147.535 719.941C134.495 681.399 141.089 618.443 158.686 583.033C140.014 564.973 132.877 557.409 116.738 533.327C100.15 508.576 77.8627 432.012 135.423 443.688C166.707 450.035 189.16 498.625 203.911 526.408C219.606 515.874 232.454 512.972 250.331 508.963C243.548 483.585 240.497 458.899 247.531 432.995C251.289 419.155 255.492 411.206 269.627 406.246ZM166.355 590.448C141.792 645.481 137.344 741.52 202.461 767.464C218.771 773.965 292.185 793.372 297.199 806.121C293.382 809.416 257.68 793.818 250.56 791.386C264.601 823.816 265.143 855.329 252.832 888.685C249.879 896.686 243.125 909.983 238.076 916.292C232.367 923.424 226.755 928.411 221.52 936.509C227.76 945.503 238.611 953.991 235.701 965.863C231.925 981.27 220.972 994.334 206.741 1001.18C188.471 1010.39 181.524 1001.8 169.096 989.539C164.269 1011.09 172.759 1033.8 176.439 1054.45C178.054 1063.87 178.838 1073.4 178.782 1082.96C178.394 1114.73 173.373 1144.24 169.095 1175.38C166.399 1195.02 159.227 1226.12 161.865 1244.37C170.174 1254.32 183.634 1257.24 196.022 1258.36C205.591 1259.23 220.18 1261.53 228.289 1255.12C241.824 1244.44 266.784 1154.12 273.105 1131.25C278.647 1111.2 282.689 1090.24 290.562 1070.92C302.898 1063.52 318.498 1052.98 331.846 1048.37C323.964 1063.43 312.872 1066.03 300.07 1075.95C317.576 1079.92 347.254 1079.94 366.863 1083.12C368.068 1079.25 368.413 1076.36 371.844 1074.28L373.052 1074.59C379.082 1086.19 357.942 1138.25 373.956 1142.39C388.122 1146.05 423.834 1139.88 437.333 1132.93C449.205 1113.65 455.493 1064.46 451.487 1042.11C446.487 1014.21 406.303 1003.95 382.916 999.054C377.585 997.945 366.569 998.972 362.869 996.026C361.991 991.368 370.646 984.791 371.426 978.023C372.842 965.74 369.207 951.833 370.06 940.057C373.722 889.486 376.692 838.442 349.542 792.872C344.787 797.791 343.331 799.874 336.996 802.497L335.468 802.258C335.078 799.976 336.489 798.277 338.048 796.195C349.034 781.5 359.415 773.65 367.476 756.427C360.642 755.968 355.239 755.543 348.483 753.892C340.255 775.424 329.071 783.446 321.904 805.717C327.609 826.221 331.813 843.293 333.651 864.708C336.04 892.562 333.747 919.307 332.856 947.127C339.745 945.579 353.416 942.037 359.89 943.263L360.877 944.202C357.754 950.203 338.349 952.799 331.786 953.971C332.391 977.304 331.171 998.349 322.482 1020.33C329.743 1017.43 334.676 1015.6 341.424 1011.41C347.893 1007.39 351.051 999.137 357.474 997.917L358.31 998.65C357.692 1014.14 330.074 1023.3 318.187 1027.26C302.197 1032.59 234.248 1037.56 225.833 1021.89L226.042 1021.06C230.352 1019.31 236.516 1021.96 240.837 1022.7C263.557 1026.59 292.895 1027.61 315.032 1021.79C323.949 994.115 325.239 984.887 325.481 955.539C305.193 958.362 281.84 958.924 261.456 958.382C255.718 974.653 249.356 990.299 236.814 1002.72C233.045 1006.45 225.271 1014.67 219.591 1014.79C216.326 1010.34 230.238 998.321 233.506 994.869C245.526 982.175 250.658 967.22 257.593 951.826C269.653 951.655 281.073 951.943 293.188 951.374C303.931 950.874 315.384 949.216 325.858 948.805C327.517 911.614 329.619 875.285 323.17 838.326C321.912 831.126 320.816 823.583 318.216 816.726C315.812 810.444 312.218 804.676 307.63 799.757C298.62 789.892 281.751 779.281 269.79 772.547C224.688 747.165 210.872 710.501 212.707 660.259C214.559 609.533 249.237 534.651 308.26 534.894C321.425 535.016 339.097 542.631 349.136 551.056L351.421 550.007C325.849 526.087 302.833 516.651 267.033 517.963C245.647 518.894 224.812 525.025 206.33 535.823C207.365 540.605 208.38 544.878 206.719 549.645L205.469 550.551C197.929 548.044 192.897 524.594 188.939 517.228C176.519 494.114 161.141 465.069 135.775 454.503C130.224 452.398 125.391 452.434 119.825 452.54C95.2216 466.465 113.611 507.43 124.015 525.493C130.315 536.29 137.617 546.472 145.823 555.904C151.699 562.7 157.609 568.472 164.523 574.162C168.286 577.258 176.775 583.978 177.541 588.773C175.123 591.595 169.943 590.585 166.355 590.448ZM284.361 599.157C282.07 604.512 279.941 608.766 277.293 613.908C282.269 614.371 285.042 614.206 288.986 617.332L289.04 618.551C285.264 621.828 282.007 620.547 277.021 620.786L276.354 621.293C271.656 624.932 264.787 635.109 262.34 634.922L260.67 633.161C257.899 633.341 247.985 641.634 245.06 643.786C246.371 659.043 247.005 668.503 238.713 682.3C235.638 680.799 228.307 677.315 225.552 679.045C219.392 682.912 222.37 699.882 225.001 705.192C229.638 714.556 237.348 714.851 246.141 713.316C258.261 728.326 270.091 736.958 265.03 757.708C277.672 766.703 304.393 782.548 313.722 792.153L316.332 794.749C318.798 793.338 323.877 782.226 324.018 778.972L323.423 778.445C320.387 780.295 321.319 780.343 318.328 780.199C313.196 776.719 313.507 765.162 313.404 759.387C308.984 758.421 306.101 758.167 302.862 754.941L302.516 753.269C304.081 751.31 307.073 750.015 309.404 750.173C356.501 753.468 381.06 716.536 375.142 672.547C372.914 655.98 362.907 613.781 353.346 600.931C347.86 601.54 346.719 601.447 341.138 600.016C336.465 601.859 332.284 605.64 328.183 606.769L327.272 606.239C326.801 603.53 327.752 600.715 329.362 598.548C334.286 591.925 344.309 594.053 351.012 595.438C343.442 580.882 330.587 570.291 315.121 564.92C313.3 571.778 303.212 617.115 288.085 606.912C286.942 606.142 285.178 601.3 284.553 599.663L284.361 599.157ZM424.492 1146.32C403.51 1150.54 393.63 1154.31 371.619 1152.44C369.7 1165.02 357.411 1219.12 377.93 1219.42C396.863 1219.68 424.248 1213.3 442.074 1206.88C454.643 1203.38 475.272 1198.45 484.144 1188.86C481.349 1166.4 443.708 1164.08 426.502 1165.43C420.481 1165.89 412.31 1174.28 406.481 1170.35C408.123 1163.88 423.051 1159.02 428.889 1156.82C429.083 1153.54 429.714 1149.61 428.506 1146.72C426.654 1145.64 427.133 1146.01 424.492 1146.32ZM217.412 1283.72C218.617 1278.59 219.814 1272.96 221.166 1267.91C198.655 1268.35 186.178 1267.04 165.005 1258.84C161.802 1271.99 150.755 1308.6 157.335 1323.63C164.296 1339.53 264.216 1351.63 257.87 1325.23C249.675 1311.58 234.419 1297.78 218.847 1292.65C211.178 1290.12 199.068 1295.85 195.053 1289.89C198.071 1285.2 212.062 1283.89 217.412 1283.72ZM277.526 508.443C274.923 495.684 267.225 462.399 272.043 451.591L272.959 451.56C274.769 454.64 274.861 458.503 275.171 462.108C276.531 477.308 280.648 493.733 283.659 508.798C291.153 509.649 297.191 510.195 304.53 512.015C304.112 489.275 302.767 415.85 270.332 415.043C255.816 428.943 254.166 439.932 253.318 460.283C252.687 475.41 255.041 494.32 259.986 508.458C265.424 508.354 272.208 508.039 277.526 508.443ZM513.442 601.77C507.462 597.901 504.312 591.19 499.242 590.147C496.593 591.725 495.251 601.868 490.72 604.827C488.37 602.408 490.591 588.549 490.663 584.456C487.888 582.528 485.032 580.985 483.389 578.148L483.47 576.595C487.61 572.949 506.065 576.33 506.975 567.225C503.497 558.95 492.196 558.973 484.678 559.132C480.115 560.637 478.126 561.361 474.494 564.842C453.665 584.802 468.332 608.402 490.571 618.378C492.302 619.137 494.053 619.85 495.821 620.518C501.278 617.971 517.136 609.851 515.685 602.645C514.401 601.915 514.771 601.892 513.442 601.77ZM369.332 581.38C367.989 608.777 364.446 609.66 383.11 633.138C384.429 624.343 374.28 589.652 369.332 581.38ZM508.736 584.822C513.478 581.752 515.487 580.474 518.633 575.605C524.194 566.999 526.002 552.924 512.569 551.058C511.927 550.966 511.283 550.886 510.638 550.814C505.519 559.256 516.584 561.108 513.828 570.044C512.641 573.893 503.574 579.685 504.62 583.643C506.457 584.786 506.627 584.648 508.736 584.822ZM452.179 609.701C464.032 626.861 474.235 637.055 495.91 639.167C497.967 635.996 502.01 631.119 496.99 628.746C488.898 624.922 480.18 622.754 472.895 617.369C466.24 612.803 461.583 605.173 456.627 601.163C455.212 603.896 453.666 607.05 452.179 609.701ZM189.383 905.866C197.407 894.097 214.799 870.558 224.447 860.858C228.091 839.278 227.692 794.112 196.498 793.975C171.709 807.964 151.926 842.491 137.843 866.276C125.206 887.623 110.712 916.217 125.233 939.995C135.923 957.499 156.468 977.105 176.256 983.36C184.412 980.921 187.792 979.051 194.568 973.762C208.671 959.876 221.84 945.497 202.884 927.822C192.784 918.402 184.52 910.052 170.674 907.805C168.243 907.407 163.32 905.414 162.567 902.824C167.804 898.173 183.657 903.132 189.383 905.866ZM288.475 1111.07C277.919 1146.31 269.192 1182.03 256.291 1216.62C249.449 1234.97 246.665 1252.14 231.328 1265.95C229.967 1271.67 228.565 1278.26 226.966 1283.85C230.883 1286.74 236.814 1290.87 240.283 1294.04C263.038 1275.11 282.568 1272.89 297.662 1245.31C307.765 1226.84 338.322 1220.23 357.419 1214.95C354.741 1194.22 359.47 1168.06 363.38 1147.75C355.934 1136.78 358.66 1125.4 359.463 1112.95C359.486 1112.6 355.196 1112.01 354.846 1111.97C340.247 1110.08 304.619 1111.05 288.475 1111.07ZM190.707 995.814C193.113 995.595 197.727 995.293 199.875 994.389C214.104 988.374 239.984 966.069 220.619 951.196C210.138 972.844 204.674 979.27 183.15 990.279C185.697 992.265 187.944 994.115 190.707 995.814ZM493.722 551.289C496.849 551.411 496.508 551.74 499.082 549.537C504.507 544.895 525.306 510.87 512.293 507.312C508.247 512.697 486.162 544.519 487.637 549.739C490.139 550.962 490.89 550.912 493.722 551.289ZM446.261 618.464C434.438 636.309 421.619 659.9 411.071 678.74C417.535 702.116 418.196 725.552 400.513 744.569C393.318 752.303 385.407 749.186 378.271 755.687C375.129 758.503 369.919 770.875 367.802 774.335C376.845 785.398 381.71 806.224 384.647 820.268C388.339 815.774 395.17 808.416 398.199 804.333C405.355 797.236 412.037 789.111 418.739 781.548C453.476 742.349 480.028 697.957 495.765 647.772C470.9 641.383 464.32 637.578 446.261 618.464Z" fill="#3A393A"/>
<path d="M191.547 565.972C190.093 568.09 188.026 570.855 185.201 570.566C179.076 569.937 173.111 563.945 169.107 559.792C157.397 547.642 147.173 533.87 139.535 518.812C136.146 512.201 127.778 492.568 134.287 484.676C134.969 483.849 137.184 483.478 138.309 483.678C147.864 485.374 156.284 494.656 161.79 501.575C172.883 510.358 195.341 551.561 191.547 565.972Z" fill="#EBEBEB"/>
<path d="M161.79 501.574C172.883 510.357 195.34 551.56 191.547 565.971C189.376 563.199 187.889 559.322 186.616 556.035C180.045 539.063 171.38 523.236 163.182 507.042C162.392 505.484 162.007 503.303 161.79 501.574Z" fill="#3A393A"/>
<path d="M348.314 691.163C349.831 691.129 349.735 691.143 351.158 691.698C354.668 696.945 352.233 707.495 349.622 712.859C340.86 730.869 328.371 730.582 312.879 722.772C307.634 718.257 294.709 699.37 305.902 698.699C322.53 697.712 331.795 697.706 348.314 691.163Z" fill="#3A393A"/>
<path d="M322.612 708.694C327.562 708.413 342.157 707.789 340.227 716.038C338.518 718.134 334.048 720.353 331.385 720.922C326.998 720.634 311.048 717.045 313.884 710.571C316.325 708.831 319.477 708.968 322.612 708.694Z" fill="#BEBDBD"/>
<path d="M284.381 640.4C298.879 640.592 306.833 656.937 297.475 667.808C280.352 670.035 279.163 651.932 284.381 640.4Z" fill="#3A393A"/>
<path d="M343.061 623.135C355.115 623.281 361.308 640.139 351.95 649.677C350.259 649.797 345.839 647.607 344.68 646.36C337.206 638.316 336.611 630.947 343.061 623.135Z" fill="#3A393A"/>
<path d="M331.836 649.533C351.064 654.905 360.482 666.801 341.214 681.427C339.598 681.233 339.01 681.027 337.467 680.585C333.687 676.026 342.129 669.405 345.42 666.228C338.63 661.083 330.413 659.51 331.836 649.533Z" fill="#3A393A"/>
<path d="M303.749 544.213C326.68 544.81 348.364 552.437 358.417 574.997C359.938 578.41 361.66 585.659 360.248 589.117L359.085 589.549C352.478 584.131 348.735 575.637 339.926 569.369C328.534 561.263 317.516 558.669 305.997 551.61C309.63 570.399 304.317 584.284 292.389 599.012C291.444 594.724 287.726 577.994 282.83 577.154L281.471 579.639C271.917 612.599 257.584 633.684 223.618 643.979C231.054 614.234 234.721 593.502 256.539 569.122C268.315 555.962 285.748 545.149 303.749 544.213Z" fill="#676767"/>
<path d="M87.194 935.551C98.5423 939.003 103.999 939.949 115.559 941.538C123.584 954.726 125.99 958.562 137.106 969.023C135.527 982.628 133.568 997.083 136.732 1010.78C137.89 1015.79 143.497 1024.79 143.588 1028.35C139.456 1028.07 135.329 1027.72 131.208 1027.3C75.055 1021.04 82.3516 978.387 87.194 935.551Z" fill="#929292"/>
<path d="M204.162 778.871C242.938 780.755 253.068 804.568 253.581 840.979C254.053 874.464 240.293 903.196 216.941 927.104C213.015 926.412 210.308 921.994 207.593 918.698C231.367 889.693 247.385 827.579 219.589 794.58C212.922 786.66 202.399 785.009 192.36 784.954L204.162 778.871Z" fill="#929292"/>
<path d="M129.402 769.471C144.734 768.676 150.652 770.519 162.988 779.576C159.301 793.291 154.379 819.316 148.781 831.003C144.88 831.291 140.774 830.989 136.853 830.818C125.469 829.708 115.188 827.818 103.958 825.838C105.913 811.342 107.671 792.414 114.812 779.733C118.515 773.157 122.616 771.197 129.402 769.471Z" fill="#929292"/>
<path d="M378.565 642.328C388.106 648.574 402.079 676.385 405.13 687.833C410.544 708.145 404.815 724.566 394.517 742.206C394.612 730.903 393 723.422 390.082 712.804L386.868 730.444C380.699 749.201 370.553 748.666 353.545 747.413C360.193 743.398 365.486 738.706 369.964 732.376C391.888 701.377 383.861 675.37 378.565 642.328Z" fill="#676767"/>
<path d="M296.511 1085.93C316.778 1088.52 342.531 1091.04 363.16 1092.88C362.726 1095.58 360.562 1110.24 359.738 1111.73C358.109 1111.83 356.478 1111.91 354.845 1111.97C340.246 1110.08 304.619 1111.05 288.475 1111.07C291.028 1102.65 293.708 1094.27 296.511 1085.93Z" fill="#EBEBEB"/>
<path d="M102.93 833.469C114.952 835.997 130.998 837.86 143.366 839.593C135.992 850.897 129.209 861.083 123.157 873.175C121.011 878.203 119.008 882.464 116.568 887.355C110.593 886.581 104.019 886.15 97.9775 885.622C99.4259 868.222 101.078 850.835 102.93 833.469Z" fill="#929292"/>
<path d="M91.815 894.227C98.4826 894.125 106.259 894.31 112.813 895.563C111.111 903.873 110.232 909.21 110.155 917.924C110.117 922.178 111.42 928.967 110.712 932.118C108.509 933.125 107.643 932.536 104.933 932.159C98.4106 930.803 89.3492 929.768 85.8832 923.438C81.8321 916.046 83.601 898.098 91.815 894.227Z" fill="#929292"/>
<path d="M144.474 975.852C148.839 978.29 156.129 983.243 160.66 986.073C158.749 1002.38 159.155 1011.72 159.821 1028.11C139.791 1019.69 142.168 993.423 144.474 975.852Z" fill="#929292"/>
<path d="M182.789 770.814C186.106 770.986 190.973 771.047 192.673 774.123C191.004 776.631 184.564 779.672 181.495 784.262C176.25 792.113 175 798.128 168.568 805.41C166.701 807.308 164.691 809.65 162.886 811.658C165.599 795.346 167.089 779.775 182.789 770.814Z" fill="#929292"/>
<path d="M161.66 754.475C168.221 753.386 174.099 760.648 178.838 764.868L166.876 773.746C164.523 771.506 161.958 769.779 159.323 767.875C150.047 763.607 145.404 762.771 135.384 761.894C145.166 758.332 151.204 756.133 161.66 754.475Z" fill="#929292"/>
<path d="M362.631 781.412C369.967 784.899 378.438 831.538 376.088 837.059L375.111 834.758C370.354 815.59 365.438 804.855 356.172 787.721L362.631 781.412Z" fill="#929292"/>
<path d="M234.695 649.515C235.503 649.398 236.066 649.551 236.916 649.651C238.672 652.985 237.276 665.122 236.967 669.442L224.548 669.063C223.107 669.141 223.19 669.072 221.899 668.374C220.385 664.619 221.312 657.172 221.596 652.764C225.973 651.724 230.34 650.641 234.695 649.515Z" fill="#676767"/>
<path d="M232.327 723.477C232.703 723.49 233.078 723.511 233.453 723.545C248.308 724.799 258.67 736.897 257.179 751.865C248.071 747.899 235.851 732.204 232.327 723.477Z" fill="#676767"/>
<path d="M530.589 570.359C540.23 579.893 526.359 590.89 518.178 594.95C516.289 594.336 516.101 594.029 515.412 592.505C516.451 589.473 524.316 581.485 526.43 578.143C528.062 575.562 529.25 573.093 530.589 570.359Z" fill="#EBEBEB"/>
<path d="M219 878.102C219.821 885.836 206.586 910.375 199.28 914.547C197.286 907.915 214.652 884.815 219 878.102Z" fill="#EBEBEB"/>
<path d="M351.421 550.008C356.195 554.34 360.379 561.274 363.265 567.022C358.846 562.182 353.468 555.433 349.136 551.057L351.421 550.008Z" fill="#BEBDBD"/>
<path d="M693.61 585.423C715.657 584.09 739.102 589.692 758.552 599.878C785.861 614.156 806.922 638.034 817.678 666.914C820.871 675.529 822.81 685.057 825.591 693.922C827.085 698.704 834.066 708.754 834.929 712.803C838.293 728.621 834.224 750.179 826.256 764.244C819.377 776.376 814.602 774.636 806.271 781.836C803.667 784.09 795.213 796.078 791.644 799.976C776.132 816.945 755.956 826.495 734.134 832.407C755.003 841.833 787.642 852.315 796.179 875.641C800.132 886.486 808.634 894.09 814.664 904.03C839.376 944.77 850.571 998.027 839.074 1044.74C837.06 1052.95 832.511 1062.31 831.36 1070.32C828.64 1089.27 828.688 1108.8 816.472 1124.84C808.23 1135.87 791.541 1137.98 778.544 1139.51C778.284 1162.45 779.722 1170.22 786.663 1191.73C789.314 1200.12 791.637 1208.61 793.61 1217.19C800.516 1247.41 803.38 1281.41 801.544 1312.3C800.961 1322.07 802.051 1333.24 797.686 1342.06C794.11 1349.29 786.601 1353.9 778.688 1356.39C754.003 1363.89 719.939 1366.44 696.042 1356.14C674.903 1347.04 686.539 1317.23 694.24 1303.3C690.026 1259.79 691.534 1223.71 693.98 1180.34C695.5 1153.37 692.513 1129.03 696.371 1101.33C687.594 1100.7 681.755 1100.35 672.972 1099.22C671.638 1120.08 670.995 1147.03 670.525 1168.41C670.449 1171.88 677.011 1189.61 677.937 1195.21C683.163 1226.85 685.943 1259.9 683.271 1291.92C682.666 1302.32 679.989 1325.1 670.023 1329.6C640.774 1342.8 600.397 1345.38 569.591 1339.69C532.522 1332.84 544.403 1304.71 562.01 1285.37C568.615 1278.12 574.727 1273.99 583.204 1268.93C582.139 1242.89 583.855 1214.68 586.218 1188.68C586.899 1181.19 590.384 1171 590.936 1163.65C591.803 1152.12 592.36 1140.49 593.187 1128.93C595.285 1099.64 599.555 1075.35 608.218 1047.42C595.358 1021.25 591.093 996.499 588.047 967.816C579.826 973.392 563.726 980.757 553.925 980.174C505.342 977.311 485.709 918.259 486.658 878.148C479.36 866.996 473.328 855.747 469.306 842.957C465.831 831.9 467.115 825.625 473.764 816.377C484.238 812.081 484.081 811.985 491.104 803.347C494.032 802.463 497.579 801.662 500.594 800.908C495.618 787.111 483.747 750.406 513.481 761.113C516.634 762.25 520.989 769.649 522.344 772.711C527.975 785.453 532.844 799.62 536.492 813.082C558.083 822.659 555.162 843.683 550.935 862.995C555.597 871.729 560.21 880.484 564.772 889.274C573.278 878.662 598.525 854.473 609.817 846.615C614.786 843.156 633.278 834.469 639.745 831.386C608.407 815.363 584.05 799.997 572.362 764.442C570.671 759.304 568.732 753.886 566.796 748.816C565.936 746.562 561.807 743.356 560.183 741.267C555.743 735.8 553.391 725.045 553.018 718.119C552.255 703.952 556.582 681.327 566.567 670.613C569.434 667.536 576.857 664.363 579.448 660.318C586.932 648.628 593.587 636.549 603.179 626.339C627.84 600.088 658.022 587.18 693.61 585.423ZM813.245 687.545C801.132 634.989 755.668 596.121 700.872 595.212C697.597 595.157 692.465 595.115 689.355 595.592C654.43 599.592 626.285 612.746 604.167 640.828C582.489 668.351 570.672 701.787 574.888 737.081C578.202 764.826 593.074 788.337 614.747 805.443C642.329 827.214 679.915 832.017 713.985 827.529C715.835 827.283 717.685 827.002 719.528 826.687C748.412 819.939 774.906 806.724 793.096 782.459C784.361 779.096 778.345 774.54 774.509 765.751C765.013 744.028 772.536 700.903 795.446 689.648C799.879 687.483 808.176 687.394 813.245 687.545ZM747.618 1027.67C757.456 1000.1 755.127 984.154 754.942 956.629C745.261 952.703 738.471 944.572 734.518 935.097C727.557 918.416 727.646 899.625 734.772 883.019C739.821 871.072 747.645 861.111 759.922 856.22C760.58 855.959 761.245 855.706 761.909 855.459C752.55 850.136 746.638 847.177 736.478 843.327C733.929 846.917 730.339 852.411 726.941 855.034C705.236 871.818 643.368 882.635 639.999 842.594C584.867 878.95 587.194 1004.41 623.298 1053.38C641.383 1077.91 656.898 1088.16 686.292 1092.02C689.725 1059.02 710.964 1039.99 742.192 1030.41C743.987 1029.86 747.241 1029.64 747.618 1027.67ZM701.187 1203.41C701.043 1216.36 700.242 1229.62 700.296 1242.46C700.365 1260.1 701.646 1278.13 702.365 1295.75C719.795 1284.59 732.319 1280.94 752.879 1284C769.089 1287.46 783.162 1295.87 792.897 1309.5C792.863 1280.96 790.301 1200.62 770.357 1180.55C764.533 1174.7 757.888 1173.49 750.016 1173.57C749.399 1173.57 748.789 1173.58 748.173 1173.6C727.043 1180.67 727.489 1223.86 701.187 1203.41ZM596.189 1190.51C592.023 1218.17 593.261 1238.65 592.802 1265.43C606.412 1265.25 621.599 1267.44 633.085 1275.35C640.08 1280.31 659.997 1298.93 668.451 1296.83C670.217 1296.39 671.028 1295.12 671.83 1293.58C679.814 1278.31 673.007 1202.19 666.75 1185.17C664.505 1179.07 660.838 1172.11 654.664 1169.27C653.071 1168.54 651.865 1168.47 650.142 1168.59L649.278 1169.05C633.529 1177.54 616.451 1213.05 596.189 1190.51ZM739.074 1168.26C751.119 1163.87 758.621 1164.14 770.713 1169.16C770.035 1159.3 769.055 1148.39 768.665 1138.61C748.611 1134.09 754.496 1130.81 757.97 1114.86C755.305 1113.45 750.447 1111.04 748.166 1109.36C741.554 1093.74 747.803 1081.56 755.757 1067.85L745.144 1068.19C723.707 1072.57 708.675 1084.88 704.996 1107.42C703.174 1118.58 700.125 1170.04 705.722 1176.74C714.773 1180.86 730.387 1171.61 739.074 1168.26ZM792.103 1320.34C773.625 1303.28 764.307 1290.81 737.861 1291.9C736.204 1291.96 734.546 1292.05 732.888 1292.14C722.59 1294.62 718.014 1296.61 709.491 1302.7C696.658 1311.87 683.282 1338.12 702.42 1347.81C715.273 1354.32 740.033 1353.74 754.304 1352.11C775.351 1349.12 792.336 1345.76 792.103 1320.34ZM775.297 882.293C766.856 888.65 760.95 895.583 759.71 906.462C757.326 927.281 769.172 954.69 776.167 974.385C783.148 963.952 784.607 961.958 795.878 956.012C808.902 951.237 813.793 951.381 827.242 955.115C820.206 933.042 805.421 896.124 784.484 883.533C781.723 881.875 778.421 882.122 775.297 882.293ZM673.277 1305.62C657.698 1305.98 652.619 1303.3 641.147 1292.8C626.22 1279.14 615.657 1275.41 596.052 1275.19C577.975 1280.4 567.713 1290.12 557.967 1306.01C553.865 1312.69 552.085 1324.25 560.974 1326.98C578.677 1332.4 613.079 1334.32 630.843 1330.48C649.86 1328.16 667.889 1327.18 673.277 1305.62ZM567.951 899.207C578.185 923.349 585.819 933.124 577.17 958.389L573.787 965.295C579.24 962.87 583.343 959.273 588.247 955.957C588.385 936.536 595.722 891.343 589.725 876.799C581.944 884.499 575.426 891.24 567.951 899.207ZM525.33 811.862L526.685 811.355C526.9 807.471 515.369 774.992 510.381 771.122C507.233 768.676 508.581 768.388 504.176 767.539C501.194 784.994 509.651 797.914 515.582 814.212L525.33 811.862ZM808.682 975.865C772.645 977.838 776.119 1009.64 775.961 1036.81C775.851 1056.39 786.279 1061.45 803.64 1065.11C809.032 1065.76 818.076 1065.51 822.179 1062.22C829.544 1054.43 832.634 1036.64 833.525 1026.02C834.484 1014.54 836.629 993.54 829.956 984.093C826.153 978.701 815.143 975.913 808.682 975.865ZM600.852 1158.48C623.145 1166.76 629.501 1160.1 651.094 1159.19C654.525 1159.48 657.904 1159.83 661.347 1159.9C662.243 1142.38 663.195 1126.92 663.416 1109.36C643.51 1106.39 632.17 1102.66 619.172 1085.78C616.484 1082.28 612.376 1074.93 610.407 1072.53C604.2 1096.29 600.928 1133.84 600.852 1158.48ZM494.733 886.801C498.613 911.004 503.844 934.214 520.207 953.58C538.551 974.461 564.629 954.95 565.297 930.72C565.47 925.376 564.944 920.026 563.733 914.82C562.096 907.702 550.783 877.463 545.854 873.223C530.057 891.658 517.096 895.446 494.733 886.801ZM506.515 842.724C501.058 828.749 492.666 830.256 508.125 816.63C504.959 812.595 503.504 809.581 498.593 808.841C493.127 814.294 491.576 816.411 491.342 824.755C491.127 832.448 495.934 849.732 506.515 842.724Z" fill="#3A393A"/>
<path d="M641.971 650.418C668.812 651.6 693.514 656.177 719.829 662.339C763.328 672.522 765.315 728.697 738.937 757.024C728.551 768.177 710.882 769.218 696.522 769.266C667.684 767.225 616.654 761.902 593.583 744.255C573.642 729.005 582.29 681.521 598.748 665.725C612.303 652.716 624.317 651.228 641.971 650.418ZM701.818 732.931C705.963 728.793 708.491 726.347 710.882 720.88C715.938 709.344 714.794 693.8 698.625 693.951C691.548 700.575 687.697 706.967 687.218 716.928C686.724 727.012 691.493 733.026 701.818 732.931ZM626.458 722.113C634.682 714.064 642.812 697.671 634.255 686.607C631.828 683.466 628.074 683.404 624.361 683.086C614.008 693.629 603.353 721.887 626.458 722.113Z" fill="#3A393A"/>
<path d="M635.845 772.473C641.931 773.836 646.437 778.207 651.876 778.905C656.81 779.542 667.054 776.789 672.053 778.926C673.51 779.549 673.348 780.241 673.688 781.598C672.954 784.427 671.733 785.468 669.838 787.701C663.559 791.572 655.017 792.456 647.97 790.75C636.944 788.092 632.949 782.968 635.845 772.473Z" fill="#3A393A"/>
<path d="M773.563 1060.5C774.632 1061.48 775.721 1062.43 776.831 1063.35C791.281 1075.37 803.681 1075.62 821.529 1073.98C821.851 1092.31 817.418 1114.63 801.626 1125.8C803.757 1121.42 813.54 1110.66 808.785 1106.37C803.613 1107.36 797.186 1121.37 793.041 1124.92C789.965 1127.56 785.32 1129.11 781.552 1130.27C785.574 1125.21 787.41 1122.78 790.712 1117.17C792.137 1113.45 793.548 1110.73 792.61 1106.82C786.759 1104.64 775.721 1134.09 765.431 1129.07C760.58 1120.3 783.093 1089.64 772.563 1084.38C766.794 1086.59 764.294 1101.4 757.703 1104.65L756.504 1104.18C749.42 1089.78 764.903 1070.4 773.563 1060.5Z" fill="#EBEBEB"/>
<path d="M526.708 820.974C538.724 820.138 543.723 829.078 544.732 839.765C546.418 857.638 535.742 880.903 515.843 882.547C507.171 883.26 498.686 877.101 492.562 871.682C489.95 868.38 487.73 864.784 485.949 860.968C485.978 860.502 486.006 860.036 486.035 859.57C488.231 858.94 497.093 856.597 498.495 856.207C507.463 853.713 509.16 850.432 513.623 845.972C514.506 845.088 525.716 845.102 529.847 840.526C530.305 838.306 530.464 839.313 529.497 837.388C526.086 835.511 520.255 836.888 516.321 837.47C515.194 836.82 514.089 836.134 513.007 835.408C499.032 825.989 519.681 821.693 526.708 820.974Z" fill="#EBEBEB"/>
<path d="M763.623 863.16C774.311 862.975 777.647 864.907 784.485 872.826C771.988 874.566 764.459 877.101 758.025 889.008C748.982 905.737 749.879 922.617 754.983 940.421C755.648 942.401 755.627 942.332 755.689 944.422L754.737 945.333C754.572 945.313 753.606 945.223 753.394 945.086C736.17 934.153 734.327 907.621 740.335 890.665C745.104 877.19 752.298 868.805 763.623 863.16Z" fill="#929292"/>
<path d="M814.513 706.357C831.319 706.59 827.88 730.944 824.858 741.371C822.262 750.331 818.685 757.874 812.437 764.745L811.115 765.677C801.503 766.177 800.002 753.215 800.112 745.748C800.352 730.314 803.503 717.579 814.513 706.357Z" fill="#EBEBEB"/>
<path d="M746.796 1037.3C758.566 1037.78 752.133 1051.08 749.961 1058C725.619 1061.82 715.76 1068.82 700.824 1088.27C699.536 1089.72 699.529 1089.71 697.899 1090.78L696.713 1090.39C694.617 1085.83 698.604 1073.22 701.119 1069.1C711.43 1052.21 727.784 1041.91 746.796 1037.3Z" fill="#929292"/>
<path d="M802.16 694.684C805.531 694.827 812.471 694.745 813.567 698.335C811.56 699.767 804.414 704.747 803.243 706.425C794.398 719.058 791.219 736.794 792.479 751.907C793.295 761.682 795.583 766.272 803.064 772.445L803.797 773.041L803.606 773.863C765.609 775.658 777.112 708.131 802.16 694.684Z" fill="#EBEBEB"/>
<path d="M754.942 956.629C776.352 962.527 763.999 1013.25 758.93 1028.78C758.566 1029.88 758.162 1030.96 757.717 1032.04C753.442 1029.56 748.913 1029.77 747.618 1027.67C757.457 1000.1 755.127 984.155 754.942 956.629Z" fill="#EBEBEB"/>
<path d="M723.892 840.52C726.05 840.759 725.146 840.341 726.722 841.725C726.708 842.801 726.968 843.767 726.153 844.575C707.62 862.846 674.55 868.778 652.237 854.317C649.99 851.823 647.944 847.713 649.121 844.404C651.46 843.897 658.418 848.178 662.539 849.316C683.806 855.2 704.976 850.795 723.892 840.52Z" fill="#929292"/>
<path d="M600.212 1167.01C612.488 1172.03 621.405 1170.88 634.454 1169.23L625.652 1180.53C609.789 1196.8 595.682 1190.53 600.212 1167.01Z" fill="#929292"/>
<path d="M615.163 1059.42C616.716 1060.37 620.638 1065.49 622.064 1067.21C631.226 1078.25 640.615 1088.18 654.535 1092.85C658.844 1094.3 662.158 1095.78 663.948 1099.97C646.999 1105.12 625.46 1084.76 618.64 1070.7C616.92 1067.16 616.038 1063.24 615.163 1059.42Z" fill="#929292"/>
<path d="M651.3 833.449C663.113 834.258 675.371 839.574 688.396 839.032C693.178 838.834 709.169 837.327 711.799 838.224L711.888 839.101L709.586 840.834C695.569 846.137 659.46 850.411 651.3 833.449Z" fill="#929292"/>
<path d="M805.647 960.494C814.081 960.124 829.661 960.912 830.599 971.88L829.825 972.66C823.741 972.099 817.945 967.646 810.354 967.105C797.323 967.351 794.398 969.591 782.963 975.545C791.068 966.563 794.48 964.543 805.647 960.494Z" fill="#929292"/>
<path d="M480.988 821.783L481.619 822.071C484.421 825.366 483.217 829.538 484.768 834.107C486.328 838.697 490.293 844.424 491.208 848.651C490.064 850.843 489.836 850.391 487.157 851.816C475.053 842.499 471.208 835.019 480.988 821.783Z" fill="#EBEBEB"/>
<path d="M724.652 1183.86L725.378 1184.31C725.762 1186.17 724.454 1189.06 723.57 1190.82C719.932 1198.08 716.444 1203.81 708.168 1199.3C706.147 1195.91 703.742 1192.97 705.236 1189.03C709.182 1184.95 716.04 1187.06 723.762 1184.2L724.652 1183.86Z" fill="#929292"/>
<path d="M573.222 936.318C577.339 941.956 571.422 956.336 566.765 961.124C560.131 967.947 554.748 970.393 545.485 971.017L545.099 969.907C549.119 967.605 555.586 965.214 558.675 962.371C566.56 955.11 569.557 946.101 573.222 936.318Z" fill="#929292"/>
<path d="M571.803 679.418C572.151 682.337 567.824 699.383 567.044 704.227C566.07 710.276 565.358 723.806 563.842 728.505C559.64 715.304 563.611 690.56 571.803 679.418Z" fill="#EBEBEB"/>
<path d="M613.118 854.912C612.923 858.228 604.564 872.395 602.859 876.957C601.445 880.739 600.184 884.342 598.938 888.398C595.373 875.279 602.345 862.27 613.118 854.912Z" fill="#929292"/>
<path d="M765.581 1037.69C767.198 1040.09 767.02 1048.96 767.13 1052.43L761.539 1060.85L760.073 1059.61C758.333 1053.65 763.183 1043.58 765.581 1037.69Z" fill="#EBEBEB"/>
<path d="M565.014 276.611C570.531 278.795 576.589 283.213 581.804 285.964C587.918 289.188 595.566 293.539 601.289 296.771C610.799 302.143 621.907 314.63 623.658 325.187C629.43 359.983 553.964 377.378 538.643 402.731C536.681 405.978 535.3 411.395 536.524 414.494C541.847 427.967 572.484 441.542 584.985 448.72C604.61 459.987 632.473 474.937 638.904 498.022C648.944 534.058 609.335 554.051 587.453 574.412C575.157 585.855 569.774 590.718 561.503 605.381C560.339 606.186 560.302 606.149 559.006 606.744C555.304 604.948 556.915 599.456 557.539 596.022C563.106 565.368 615.883 546.884 626.978 523.132C648.21 477.678 559.106 453.554 535.929 430.314C528.897 423.295 527.078 418.895 524.097 409.805C537.583 368.341 595.867 370.86 615.09 326.816C605.088 300.706 568.413 294.804 564.39 281.968C563.732 279.866 564.081 278.545 565.014 276.611Z" fill="#BEBDBD"/>
<path d="M559.609 264.926C561.9 265.04 563.432 264.822 565.21 266.187C566.245 271.003 557.618 275.265 556.367 280.533C553.671 291.895 582.937 303.754 588.373 314.101C602.604 341.194 485.668 375.372 474.938 410.141C465.376 441.126 548.975 466.956 562.436 493.388C565.833 500.155 566.338 508.01 563.836 515.156C559.733 527.039 549.629 534.264 538.809 539.561C536.071 540.158 534.249 540.616 531.957 539.238C530.828 532.645 551.504 521.055 555.369 508.687C544.571 466.741 476.675 462.272 465.055 423.037C453.029 382.425 533.274 355.989 557.804 339.741C562.592 337.423 583.384 324.752 578.489 317.588C568.516 302.992 553.102 303.619 546.795 283.88C549.373 274.092 552.515 271.691 559.609 264.926Z" fill="#BEBDBD"/>
<path d="M432.365 1292.94C435.844 1292.77 444.511 1292.75 444.932 1297.38C439.542 1301.09 424.021 1305.22 417.511 1307.54C401.166 1313.06 390.547 1321.38 385.939 1338.57C379.422 1362.88 344.782 1363.15 330.29 1381.39C326.185 1386.55 324.733 1389.43 321.929 1395.17C319.634 1398.46 317.311 1399.44 313.809 1397.23C310.981 1392.42 313.741 1388.2 315.942 1383.78C322.786 1368.93 343.177 1359.2 357.469 1352.81C379.952 1342.74 373.024 1334.21 383.625 1318.18C391.34 1306.5 417.872 1294.8 432.365 1292.94Z" fill="#BEBDBD"/>
<path d="M562.928 1038.08C566.33 1037.91 570.956 1037.49 573.694 1039.63L573.814 1041.04C570.612 1044.4 558.758 1045.71 553.889 1047.5C535.014 1054.47 520.732 1062.69 506.062 1076.27C504.35 1077.86 482.803 1086.57 477.903 1089.05C477.353 1089.37 476.797 1089.7 476.236 1090.02C473.838 1091.38 470.94 1092.7 468.193 1091.94L467.52 1090.55C468.94 1081.75 490.189 1075.99 495.945 1071.44C515.62 1055.89 537.102 1041.62 562.928 1038.08Z" fill="#BEBDBD"/>
<path d="M572.248 1067.11C574.754 1068.14 575.728 1068.51 575.979 1071.16C575.487 1071.8 574.975 1072.43 574.443 1073.04C569.425 1078.8 545.118 1100.48 537.919 1106.12C534.738 1108.62 524.07 1110.41 519.483 1110.75C518.074 1111.16 518.074 1111.06 516.596 1110.83L516.451 1109.81C519.341 1106.73 528.158 1102.97 532.127 1099.81C547.782 1087.37 553.958 1077.05 572.248 1067.11Z" fill="#BEBDBD"/>
<path d="M307.317 1289.45C310.267 1289.07 313.035 1288.19 315.305 1290.4L314.904 1291.91C309.486 1297.29 298.027 1301.28 290.654 1303.96C287.506 1305.06 287.082 1305.38 284.104 1304.21C282.472 1297.86 302.918 1290.88 307.317 1289.45Z" fill="#BEBDBD"/>
<path d="M909.896 447.707C904.73 436.599 902.291 419.089 916.192 413.324C927.702 408.548 942.076 417.131 953.36 418.206C993.241 422.008 1050.42 414.297 1068.01 460.705C1068.87 463.041 1069.69 465.392 1070.47 467.757C1081.9 474.292 1087.75 480.385 1091.22 493.646C1097.97 519.525 1089.01 542.253 1076.35 564.241C1075.69 565.416 1074.96 566.557 1074.19 567.66C1074.61 597.925 1064.81 616.762 1032.86 618.85C1028.05 627.028 1025.17 630.99 1022.52 640.088C1026.56 645.683 1040.17 662.364 1045.36 665.763C1095.67 698.745 1128.72 705.87 1117.47 775.814C1112.9 803.998 1105.45 831.64 1095.23 858.295C1085.97 882.923 1081.23 876.367 1083.71 905.188C1085.9 931.747 1087.95 958.314 1089.87 984.894C1090.5 993.334 1091.08 1002.06 1091.52 1010.48C1092.55 1030.2 1093.78 1033.22 1074.11 1039.56C1075.6 1095.74 1075.04 1152.93 1076.11 1209.36C1076.79 1244.85 1079.84 1294.05 1077.53 1328.48C1075.59 1330.64 1073.63 1332.88 1071.64 1334.98C1073.8 1341.78 1075.51 1346.87 1078.22 1353.47C1096.78 1356.04 1108.9 1359.77 1122.1 1373.61C1107.19 1386.22 1097.8 1388.25 1079.07 1391.02C1070.26 1396.35 1066.95 1398.8 1056.53 1400.58C1054.33 1400.95 1047.84 1402.2 1045.86 1403H1036.96C1034.85 1402.12 1030.36 1401.49 1027.87 1401.09C1018.08 1399.52 1008.26 1396.2 1002.05 1388C993.035 1376.08 995.906 1350.82 998.379 1336.49C997.153 1335.69 995.954 1334.84 994.789 1333.95C992.357 1332.07 990.98 1330.53 990.432 1327.38C987.766 1312.21 986.533 1295.62 984.718 1280.28L971.666 1172.55L969.775 1176.62C971.152 1222.41 969.864 1269.13 969.419 1314.95C969.371 1319.56 965.774 1323.87 965.315 1328.43C964.452 1338.45 969.953 1357.13 962.136 1365.07C955.764 1371.56 933.395 1375.78 925.797 1368.6C925.263 1368.09 907.258 1374.26 905.333 1374.36C883.827 1380.38 795.131 1384.06 835.978 1341.49C839.842 1337.47 856.196 1331.04 862.752 1328.06C869.83 1324.77 876.797 1321.26 883.662 1317.54C880.949 1307.04 880.202 1285.26 879.716 1274.07C879.01 1255.01 878.181 1235.95 877.236 1216.9C875.023 1180.01 873.07 1143.12 871.371 1106.21C870.289 1084.26 868.542 1056.87 869.172 1034.99C861.779 1031.19 859.354 1030.52 854.695 1023.48C853.394 1006.79 856.949 976.605 858.854 959.047C860.615 942.852 862.787 919.759 865.609 904.037C850.208 903.037 833.32 902.228 822.337 889.767C813.705 879.978 811.3 865.297 812.286 852.664C814.856 819.768 858.032 716.687 883.183 695.615C893.507 686.969 906.285 682.185 917.603 675.111C923.783 671.25 928.723 666.617 933.957 661.642C915.966 655.127 902.243 646.014 894.001 628.11C879.504 596.625 886.752 558.362 893.597 525.817C895.522 516.656 896.974 506.142 899.194 497.359C890.993 475.631 892.391 464.616 909.896 447.707ZM878.976 1037.63C879.134 1089.82 882.655 1144.46 885.656 1196.65C887.937 1235.55 889.897 1274.47 891.534 1313.41C906.895 1324.34 933.32 1323.51 951.243 1320.48C954.038 1320 956.819 1319.48 959.594 1318.92C959.128 1300.14 959.998 1278.22 960.17 1259.19L960.238 1165.17C960.211 1132.83 960.286 1097.98 954.997 1066.07C950.667 1062.96 937.89 1054.76 937.191 1049.65C941.507 1046.36 960.279 1058.67 964.479 1061.84C966.226 1069.14 966.939 1078.68 968.446 1084.61C976.195 1137.72 983.224 1190.93 989.527 1244.23L995.481 1296.58C996.399 1304.81 997.728 1320.03 999.688 1327.62C1019.76 1332.54 1050.87 1337.99 1068.36 1324.81C1068.95 1299.1 1067.84 1274.39 1067.34 1248.73C1066.26 1195.76 1065.53 1142.79 1065.13 1089.8C1065.1 1075.03 1064.4 1056.91 1064.74 1042.72C1035.35 1048.08 986.081 1056.4 957.457 1040.22C939.911 1030.3 936.567 996.355 933.594 993.129C923.934 1026.8 918.535 1046.36 878.976 1037.63ZM957.217 673.141C957.648 674.458 962.355 678.761 963.678 680.053C977.791 675.252 1004.36 663.805 1012.79 650.728C1015.05 647.212 1013.64 638.997 1012.41 634.823C1018.37 625.447 1021.56 619.169 1025.24 608.846C1031.87 609.077 1038.77 609.642 1045.23 607.1C1057.74 602.932 1069.61 582.789 1063.35 570.458C1054.17 552.402 1041.76 564.594 1030.75 571.466C1029.02 572.544 1027 571.897 1025.4 571.165C1021.93 560.743 1024.81 553.988 1023.69 544.365C1022.37 532.926 1017.99 519.488 1019.96 507.622C1022.03 500.731 1030.63 492.036 1029.53 484.594C1028.38 476.835 1013.47 476.682 1007.13 477.271C975.29 480.229 957.696 479.336 930.559 461.223C929.469 462.186 928.407 463.175 927.373 464.189C909.854 481.275 908.395 496.373 904.113 519.851C897.611 555.492 884.053 607.604 912.28 637.299C930.511 656.483 955.223 655.588 978.462 649.096C979.148 648.905 979.764 649.888 980.209 650.36C980.429 652.763 980.038 653.048 978.73 655.252C975.092 666.798 966.295 666.778 957.217 673.141ZM1027.4 726.25C1031.2 731.649 1034.03 735.581 1037.17 741.404C1023.46 767.786 1005.94 786.638 991.788 811.753C1004.49 812.527 1009.38 813.116 1021.65 817.384C1025.26 806.368 1044.61 749.214 1054.7 745.494C1057.9 749.467 1044.12 776.815 1042.08 782.179C1033.83 803.779 1028.68 827.591 1018.98 848.444C1022.67 849.732 1031.74 853.144 1032.84 857.186C1029.2 862.515 1018.25 856.631 1013.08 856.186C1002.61 855.288 989.301 855.261 978.983 857.768C977.599 868.448 976.921 868.14 966.665 871.257C965.76 872.627 964 875.264 962.657 876.093C948.571 884.718 927.325 890.569 911.841 895.295C940.699 906.948 1012.56 924.041 1044.28 914.306C1061.29 909.086 1081.07 869.277 1088.12 850.225C1099.85 818.528 1117.08 759.359 1105.56 725.469C1100.05 709.268 1061.66 686.51 1045.34 678.42C1045.64 701.15 1053.97 719.612 1027.4 726.25ZM913.273 687.784C883.58 703.767 870.508 721.133 857.895 752.084C845.597 782.247 810.69 845.69 825.352 876.415C842.295 911.915 929.298 882.409 954.983 871.017C948.701 852.294 949.79 839.395 954.305 820.329C950.325 820.234 946.858 820.069 942.891 820.514C922.495 822.063 902.154 824.31 881.908 827.249C870.364 829.002 851.16 833.352 840.287 833.209C839.643 830.667 841.048 829.413 842.5 827.242C842.26 820.912 839.595 821.487 843.774 814.842C849.255 806.121 856.908 799.353 864.198 792.174C866.808 791.489 869.932 790.81 872.358 789.721C875.407 775.054 876.633 747.953 883.422 736.677L884.361 736.273C886.67 744.329 882.08 782.48 880.004 791.763C892.096 794.934 899.153 798.593 907.58 808.279C901.976 784.145 897.837 755.037 898.105 730.251C902.88 725.572 906.025 723.188 910.718 718.961C893.802 704.925 916.952 691.771 913.273 687.784ZM933.059 676.072C923.201 688.058 917.713 695.142 911.149 709.549C926.256 720.729 914.828 725.202 905.038 734.122C905.785 761.277 907.614 775.602 913.129 802.271L915.788 814.37C919.953 813.876 924.119 813.356 928.277 812.808C927.202 805.06 927.037 789.728 926.962 781.603C926.599 754.16 927.942 726.723 930.977 699.451C931.436 695.505 934.711 677.929 933.059 676.072ZM966.85 810.163C972.968 811.424 980.381 814.513 984.491 808.91C999.249 786.214 1014.7 765.052 1029.24 741.856C1013.79 722.462 1014.16 721.681 1038.11 714.988C1038.27 699.855 1040.84 672.725 1030.35 661.956C1029.92 661.521 1029.48 661.094 1029.04 660.676C1008.73 711.905 984.526 758.099 966.85 810.163ZM990.151 713.488C993.151 710.474 999.112 705.26 1001.56 702.52C1006.89 696.587 1025.59 661.449 1020.16 656.135C1006.66 670.354 989.411 678.87 971.193 685.483C975.236 690.942 979.442 696.402 983.039 702.157L990.151 713.488ZM945.967 697.677C949.996 691.84 951.852 689.072 957.142 684.452C950.455 678.124 947.468 670.013 944.926 667.687C940.37 680.68 939.698 692.429 939.794 706.123L945.967 697.677ZM971.132 725.36C971.748 741.144 971.467 759.976 972.372 775.068C973.872 771.368 975.955 766.635 977.257 762.963C983.553 748.885 990.651 733.69 996.495 719.461C985.814 722.681 986.129 721.14 979.915 712.241L971.132 725.36ZM965.02 819.254C960.505 826.543 958.841 833.394 958.635 841.991C958.512 847.088 957.087 866.037 966.213 863.365C967.932 861.947 969.953 860.885 970.077 858.617C970.351 853.61 969.672 847.876 969.33 842.854C968.699 833.517 969.96 828.393 972.091 819.747C970.241 818.877 967.185 819.213 965.02 819.254ZM953.243 1022.13C959.361 1030.83 967.583 1036.18 978.058 1037.68C1007.78 1041.9 1055.83 1038.43 1083.05 1026.44C1081.42 1012.37 1075.65 903.393 1073.3 900.673C1063.83 913.648 1056.46 923.554 1039.3 925.739C1008.91 929.617 967.165 921.574 937.622 914.313C936.937 953.34 937.424 986.025 953.243 1022.13ZM976.304 849.15C986.876 847.156 997.18 845.875 1007.98 846.629L1009.81 846.588C1013.83 842.265 1016.08 832.551 1017.58 826.735C1005.57 819.953 998.489 820.85 984.937 821.419C974.215 827.461 976.119 838.525 976.304 849.15ZM945.227 710.98C942.747 713.577 939.267 717.447 936.636 719.681C936.067 728.71 933.82 757.427 935.581 765.093C936.177 763.929 936.143 764.237 936.369 762.997C940.24 748.631 946.159 734.588 949.948 720.66C949.269 719.345 945.542 711.378 945.227 710.98ZM884.08 817.767C876.475 807.882 869.24 807.06 857.696 807.252C860.656 814.267 876.749 818.672 884.08 817.767ZM863.006 1019.99C928.976 1064.6 932.326 961.356 929.757 921.759C919.515 918.704 910.156 912.114 899.269 910.743C891.13 909.716 883.347 911.305 875.42 912.963L873.159 913.662C871.412 925.828 870.385 941.366 869.227 953.806L863.006 1019.99ZM900.071 815.829C899.598 805.998 878.647 798.367 870.056 798.045C870.193 799.086 870.021 800.333 870.94 800.675C877.88 803.292 881.778 805.656 887.163 810.944C892.261 815.952 892.959 817.418 900.071 815.829Z" fill="#3A393A"/>
<path d="M1078.22 1353.47C1096.78 1356.04 1108.9 1359.77 1122.1 1373.61C1107.19 1386.22 1097.8 1388.25 1079.07 1391.03C1079.23 1390.15 1079.13 1390.42 1079.42 1389.71L1080.35 1387.48C1085.97 1373.89 1081.98 1366.82 1078.22 1353.47Z" fill="#EBEBEB"/>
<path d="M969.549 1156.71C970.741 1161.76 971.707 1167.35 971.666 1172.55L969.775 1176.62C968.699 1173.06 969.398 1160.99 969.549 1156.71Z" fill="#BEBDBD"/>
<path d="M935.266 542.273L937.308 543.591C943.296 552.921 924.366 564.399 923.523 573.372C923.215 576.652 931.217 580.336 934.841 583.313L935.458 583.825C934.334 585.559 933.005 587.355 931.799 589.052C899.044 581.797 924.379 555.886 935.266 542.273Z" fill="#3A393A"/>
<path d="M968.679 600.715C971.029 600.832 969.994 600.472 971.906 601.799C973.495 607.13 967.055 610.688 962.773 612.493C949.496 618.089 938.52 615.7 925.564 610.574C923.406 608.691 920.933 606.422 921.248 603.287L922.529 602.353C929.38 602.014 934.073 604.4 940.315 606.643C949.687 610.013 960.32 604.862 968.679 600.715Z" fill="#3A393A"/>
<path d="M973.372 536.041C988.507 538.914 980.682 556.447 973.516 563.913C967.343 560.208 964.068 557.443 965.541 549.056C966.487 543.639 969.679 539.841 973.372 536.041Z" fill="#3A393A"/>
<path d="M917.02 527.416C932.189 527.833 926.742 544.547 919.905 552.037C903.434 549.711 910.539 536.346 917.02 527.416Z" fill="#3A393A"/>
<path d="M970.454 508.463C978.401 508.193 991.309 509.728 997.407 515.303C999.777 517.462 1001.11 520.54 1001.04 523.748C1001 526.358 1000.84 526.232 999.421 527.518C994.659 523.918 988.685 518.718 982.923 517.057C978.381 515.748 971.44 516.889 968.81 512.404C969.255 509.497 968.707 510.751 970.454 508.463Z" fill="#3A393A"/>
<path d="M918.015 498.087C921.036 498.021 924.208 498.594 927.223 499.013C930.402 501.16 936.218 506.553 931.868 510.163C929.991 510.042 929.682 509.635 928.072 508.643C921.79 503.931 917.213 508.679 910.567 505.589L910.143 504.254C912.081 500.619 914.267 499.689 918.015 498.087Z" fill="#3A393A"/>
<path d="M919.878 420.485C931.313 420.403 939.74 425.799 950.099 426.952C986.972 431.056 1058.68 422.856 1062.79 475.956C1065.49 476.908 1068.86 478.069 1071.25 479.594C1086.64 489.392 1086.21 513.801 1082.22 529.29C1079.44 540.057 1074.14 550.224 1069.26 560.017C1064.4 556.904 1061.83 554.83 1056.35 552.673C1046.8 551.295 1042.08 553.914 1033.8 558.063C1032.61 544.114 1027.82 526.223 1028.51 513.542C1029.31 499.027 1039.11 499.177 1037.2 480.423C1018.01 451.077 962.02 496.149 926.414 439.593C926.325 444.963 926.133 448.453 925.489 453.777C916.178 443.898 907.416 432.217 919.878 420.485Z" fill="#676767"/>
<path d="M889.465 1323.66C895.953 1325.23 902.921 1328.51 909.752 1329.94C924.132 1332.95 941.658 1331.69 956.374 1331.05C956.436 1339.39 956.326 1348.35 957.032 1356.59C943.775 1360.96 937.773 1358.33 924.509 1359.53C920.344 1359.92 907.895 1363.71 902.818 1365.05C887.855 1367.64 855.62 1369.34 841.897 1364.96C814.849 1356.34 883.251 1326.79 889.465 1323.66Z" fill="#676767"/>
<path d="M1007.31 1338.92C1030.61 1344.19 1039.39 1343.13 1062.74 1339.34C1069.15 1352.83 1078.24 1372.94 1068.36 1386.43C1052.64 1394.5 1021.36 1395.73 1009.22 1380.46C1002.33 1371.78 1005.78 1349.66 1007.31 1338.92Z" fill="#676767"/>
<path d="M954.998 726.141L963.815 726.826C967.152 743.945 965.98 773.375 964.418 791.29C963.993 796.154 960.732 805.443 958.971 810.382C954.244 810.752 949.51 811.033 944.769 811.239C941.61 811.492 938.267 811.65 935.088 811.841C937.458 791.228 940.281 772.964 946.139 752.913C948.873 743.569 951.99 735.314 954.998 726.141Z" fill="#929292"/>
<path d="M873.735 903.469L899.427 898.352C909.019 904.195 919.179 909.059 929.751 912.861L929.758 921.76C919.515 918.705 910.156 912.114 899.27 910.744C891.13 909.717 883.348 911.306 875.421 912.964L873.934 912.567C872.879 910.395 873.564 906.161 873.735 903.469Z" fill="#EBEBEB"/>
<path d="M962.389 689.621C968.336 692.807 973.187 700.966 976.468 706.693C972.748 713.31 971.707 715.003 965.808 719.675C962.334 719.27 958.374 718.544 954.873 717.989C948.42 703.206 951.119 699.945 962.389 689.621Z" fill="#929292"/>
<path d="M952.359 662.058C959.032 661.693 964.609 660.92 970.912 658.415C973.612 657.342 975.921 656.007 978.73 655.254C975.092 666.8 966.295 666.78 957.217 673.142C954.456 670.589 953.428 665.702 952.359 662.058Z" fill="#EBEBEB"/>
<path d="M914.459 454.672L921.659 459.412C913.76 465.781 910.971 467.874 906.71 476.976C905.99 478.75 905.552 480.412 903.757 481.019C898.605 474.648 910.581 459.745 914.459 454.672Z" fill="#676767"/>
<path d="M852.209 817.18C855.915 817.296 860.286 817.481 863.355 819.714L863.328 820.715L861.739 821.537C858.368 822.359 853.49 823.791 850.619 821.571C850.482 819.029 850.557 819.79 852.209 817.18Z" fill="#EBEBEB"/>
<path d="M582.408 0H595.91C603.723 3.06771 610.849 6.32869 616.547 12.7009C633.437 31.59 648.208 54.3373 663.454 74.6563C708.456 134.634 750.242 196.808 794.432 257.372C819.946 227.997 845.179 198.381 870.131 168.526C878.682 158.29 887.232 147.724 895.899 137.665C903.819 128.481 915.308 113.287 926.496 108.639C949.215 99.2033 963.034 119.565 976.065 134.052C990.959 150.874 1005.52 167.991 1019.74 185.392C1057.64 231.554 1096 277.333 1134.82 322.722L1168.88 362.793C1174.38 369.261 1182.2 379.061 1188 384.615V404.821C1146.27 354.608 1103.17 306.843 1062.03 256.033C1036.62 266.373 1019.33 245.915 993.905 241.965C978.271 250.244 979.004 265.631 968.864 278.565C965.041 283.445 959.334 286.729 953.065 287.094C930.189 287.301 915.068 260.385 898.913 247.508C888.588 238.298 877.366 244.389 866.589 249.714C850.002 257.912 830.559 268.783 813.629 254.508C809.56 259.564 806.326 263.4 801.893 268.183C804.867 271.557 809.758 278.894 812.615 282.818C820.001 293.062 827.524 303.205 835.19 313.244C851.455 334.349 868.816 354.404 884.93 375.59C887.294 378.695 895.303 388.853 892.843 392.589C883.47 393.943 859.478 360.985 853.147 353.331C825.372 319.945 798.844 285.55 773.598 250.217C766.959 240.84 760.409 231.403 753.942 221.908C750.9 217.511 747.344 211.806 743.802 207.91C703.291 223.142 689.061 190.402 656.267 182.5L655.453 182.814C629.911 192.847 626.837 258.36 588.422 243.197C572.997 237.109 554.839 218.472 542.904 207.061C536.094 200.551 522.861 180.616 512.14 185.456C506.89 187.825 501.237 192.75 496.304 195.931C473.738 210.076 448.812 233.505 421.304 218.044C416.168 223.248 410.19 231.599 405.657 237.605C396.656 249.721 387.594 261.792 378.47 273.817C355.916 303.078 331.534 329.905 306.191 356.734C302.783 360.341 297.16 368.289 291.623 364.281C290.443 358.6 299.485 348.929 303.246 344.748C325.176 320.368 345.781 295.906 365.924 270.062C357.536 270.43 348.945 272.966 340.564 271.026C331.69 268.97 320.689 265.349 312.532 261.137C274.735 241.629 283.002 286.195 249.818 296.304C224.318 289.89 217.157 273.132 195.633 258.93C176.504 268.651 141.595 294.501 121.109 281.236C115.198 289.108 106.582 297.17 99.9119 304.853C69.759 339.584 37.9957 372.926 8.43035 408.177C5.69719 411.429 2.42966 415.055 0 418.508V398.573C6.2111 389.755 25.0057 369.294 32.983 360.341C54.9835 335.931 76.8535 311.404 98.5924 286.761C139.465 239.958 178.352 190.557 221.028 145.332C229.362 136.501 238.545 130.284 251.07 130.269C260.552 130.257 269.569 139.935 276.6 145.64C288.326 156.3 298.955 169.852 309.697 181.599C324.061 197.308 338.333 212.903 352.713 228.562C360.825 237.395 368.29 246.868 376.556 255.482C384.209 244.956 393.323 233.978 401.307 223.251C432.635 180.531 464.451 138.17 496.746 96.1767C518.84 67.0998 540.595 35.0418 565.782 8.69689C569.609 4.69412 577.077 2.21034 582.408 0ZM596.958 235.886C622.41 227.84 626.514 188.91 643.745 176.399C670.381 157.059 707.847 218.646 736.642 198.505C730.003 188.111 721.645 176.649 714.52 166.489C697.625 142.461 680.488 118.601 663.116 94.9135C647.433 73.3677 631.876 51.5263 615.082 30.8467C610.028 24.6233 601.816 13.6333 593.866 12.0427C581.198 9.50793 571.175 20.3857 564.13 29.2227C554.688 41.0654 545.448 52.9446 536.225 64.8956L462.427 162.006C450.721 177.568 438.655 194.755 426.482 209.801C456.623 224.794 488.106 179.616 519.262 173.407C545.263 183.807 568.964 229.436 596.958 235.886ZM960.094 271.897C954.524 224.442 946.632 169.59 946.968 122.008C946.358 120.724 946.276 120.242 944.871 119.685C940.342 117.89 933.991 118.705 929.812 120.929C916.555 127.987 861.889 198.988 847.714 215.96C838.855 226.568 829.428 236.521 820.343 246.899C839.78 265.151 878.154 223.848 897.255 233.508C910.567 240.243 927.983 266.786 942.953 274.348C948.269 277.034 958.649 281.175 960.094 271.897ZM251.222 286.359C253.182 274.367 251.696 241.243 252.086 227.593C252.508 210.221 253.365 192.862 254.657 175.534C255.399 165.289 256.696 154.6 257.057 144.454C245.488 139.951 237.037 146.873 229.524 154.884C200.137 186.217 172.711 219.426 144.759 252.033C138.824 258.956 131.822 266.5 126.752 273.951C130.452 274.079 139.843 274.61 143.425 273.947C163.399 270.249 180.768 247.783 200.915 251.373C212.184 253.381 242.474 293.648 251.222 286.359Z" fill="#3A393A"/>
<path d="M257.056 144.455C283.729 170.167 308.461 198.562 333.287 226.051C343.276 237.111 354.246 250.292 364.496 260.756C366.329 262.979 367.94 264.362 368.269 267.127C367.491 268.959 367.508 268.819 365.923 270.063C357.535 270.431 348.944 272.967 340.564 271.027C331.689 268.971 320.689 265.349 312.531 261.138C274.734 241.63 283.002 286.196 249.817 296.304C224.318 289.891 217.157 273.133 195.632 258.931C176.503 268.651 141.594 294.501 121.108 281.237C122.888 278.651 124.453 276.061 126.752 273.952C130.451 274.08 139.842 274.611 143.424 273.948C163.399 270.25 180.767 247.784 200.915 251.374C212.184 253.382 242.473 293.649 251.221 286.359C253.182 274.368 251.695 241.244 252.086 227.594C252.507 210.222 253.364 192.863 254.656 175.535C255.398 165.29 256.695 154.601 257.056 144.455Z" fill="#EBEBEB"/>
<path d="M251.221 286.358C264.101 283.735 275.851 247.55 288.627 246.276C314.63 243.685 335.751 270.32 364.496 260.755C366.329 262.978 367.94 264.361 368.269 267.126C367.491 268.958 367.508 268.818 365.923 270.062C357.535 270.43 348.944 272.966 340.564 271.025C331.689 268.97 320.689 265.348 312.531 261.137C274.734 241.629 283.002 286.195 249.817 296.303C224.318 289.89 217.157 273.132 195.632 258.93C176.503 268.65 141.594 294.5 121.108 281.236C122.888 278.65 124.453 276.06 126.752 273.951C130.451 274.079 139.842 274.61 143.424 273.946C163.399 270.249 180.767 247.783 200.915 251.373C212.184 253.381 242.473 293.648 251.221 286.358Z" fill="#929292"/>
<path d="M946.967 122.008C954.031 124.222 1022.85 209.928 1031.18 220.001C1039.18 229.603 1047.3 239.101 1055.55 248.492C1057.87 251.019 1060.02 253.238 1062.03 256.033C1036.62 266.373 1019.33 245.916 993.905 241.965C978.27 250.244 979.003 265.632 968.864 278.566C965.041 283.445 959.334 286.729 953.065 287.094C930.189 287.301 915.068 260.385 898.913 247.509C888.588 238.298 877.366 244.389 866.589 249.714C850.002 257.912 830.558 268.783 813.629 254.508C815.808 251.441 817.425 249.288 820.343 246.899C839.78 265.152 878.154 223.848 897.255 233.509C910.567 240.243 927.982 266.786 942.952 274.348C948.269 277.034 958.649 281.175 960.094 271.897C954.524 224.443 946.631 169.591 946.967 122.008Z" fill="#EBEBEB"/>
<path d="M960.094 271.896L960.779 272.272C969.371 263.904 973.982 238.783 987.17 233.748C1008.09 225.76 1035.14 257.039 1055.55 248.49C1057.87 251.018 1060.02 253.237 1062.03 256.032C1036.62 266.372 1019.33 245.915 993.905 241.964C978.27 250.243 979.003 265.631 968.864 278.564C965.041 283.444 959.334 286.728 953.065 287.093C930.189 287.3 915.068 260.384 898.913 247.507C888.588 238.297 877.366 244.388 866.589 249.713C850.002 257.911 830.558 268.782 813.629 254.507C815.808 251.44 817.425 249.286 820.343 246.898C839.78 265.15 878.154 223.847 897.255 233.507C910.567 240.242 927.982 266.785 942.952 274.347C948.269 277.033 958.649 281.174 960.094 271.896Z" fill="#929292"/>
<path d="M596.958 235.886C622.41 227.839 626.514 188.91 643.745 176.399C670.381 157.058 707.847 218.646 736.642 198.504C738.225 199.929 743.562 206.069 743.802 207.91C703.291 223.142 689.061 190.402 656.267 182.499L655.453 182.814C629.911 192.847 626.837 258.36 588.422 243.197C572.997 237.109 554.839 218.472 542.905 207.061C536.094 200.551 522.861 180.616 512.14 185.455C506.89 187.825 501.237 192.75 496.305 195.931C473.738 210.076 448.812 233.505 421.304 218.044C421.511 216.124 425.194 211.565 426.482 209.801C456.623 224.794 488.106 179.615 519.262 173.407C545.263 183.807 568.964 229.435 596.958 235.886Z" fill="#929292"/>
</g>
<defs>
<clipPath id="clip0_15479_18438">
<rect width="1188" height="1403" fill="white"/>
</clipPath>
</defs>
</svg>
