<svg width="1173" height="1386" viewBox="0 0 1173 1386" fill="none" xmlns="http://www.w3.org/2000/svg">
<g clip-path="url(#clip0_15479_18031)">
<path d="M224.909 0H229.27C272.328 18.0995 266.196 101.378 258.891 138.949C289.491 136.483 296.775 135.578 327.22 143.341C339.183 100.192 361.14 54.1326 399.704 28.7218C410.234 21.7836 427.645 23.6044 433.282 35.991C444.724 61.1366 439.564 94.0646 431.055 119.438C423.137 143.094 411.161 165.193 395.662 184.742C432.599 229.835 445.846 278.716 440.022 336.805C438.332 352.672 435.565 368.405 431.742 383.896C429.667 392.005 426.32 401.921 424.573 409.722C436.283 408.782 459.64 405.614 469.241 411.484C471.001 414.195 467.802 423.647 466.757 426.734C458.889 449.98 452.624 473.722 445.193 497.098C468.95 505.755 465.175 522.108 469.412 542.746C486.195 536.463 492.178 523.278 504.319 511.353C521.508 494.468 544.415 476.996 565.967 465.909C570.684 463.482 582.73 460.402 588.16 458.899C551.944 448.37 522.135 423.868 506.798 388.945C502.624 379.438 494.811 372.091 489.245 363.481C478.723 346.402 480.652 322.433 485.569 303.851C489.98 287.521 498.072 284.028 506.762 271.692C508.66 268.997 512.677 255.965 515.061 251.09C528.055 224.503 549.114 202.696 575.233 188.78C611.127 169.551 653.24 165.538 692.117 177.644C728.208 188.796 756.602 211.263 775.134 244.593C780.874 255.848 784.299 268.177 789.518 279.664C792.3 285.78 797.687 291.081 800.875 297.078C812.558 319.047 810.23 349.979 798.452 371.516C793.863 379.919 784.265 385.393 778.004 392.428C772.745 398.361 768.203 405.628 763.12 411.767C751.079 427.143 735.403 439.152 718.021 447.986L708.227 452.842C722.928 455.417 737.027 461.118 750.483 464.487C772.542 470.008 780.204 471.182 790.465 492.737C792.117 496.206 799.075 503.043 800.997 507.154C821.269 551.583 806.439 614.36 766.755 643.205C767.642 649.383 767.885 655.793 768.244 662.038C775.987 654.601 804.849 630.746 808.233 623.904C833.453 572.92 823.76 503.106 858.781 455.928C865.665 446.66 894.891 431.765 905.755 423.407C833.047 392.289 847.234 321.051 841.873 257.03C840.858 244.928 831.625 233.733 830.881 220.047C830.515 212.13 832.011 204.237 835.253 197.004C837.588 191.742 840.167 187.938 843.328 183.204C838.448 171.543 833.209 147.772 849.318 140.856C858.869 136.756 876.528 142.02 887.08 139.752C925.871 131.661 962.347 117.698 1001.25 136.381C1016.55 143.732 1024.42 152.325 1032.44 167.59C1078.95 190.096 1069.09 235.581 1058.01 276.387C1074.96 307.657 1060.23 343.3 1024.96 351.325C1020.09 365.036 1016.05 368.53 1015.99 383.658C1022.59 389.963 1035.64 403.702 1043 408.125C1066.44 422.237 1093.09 430.591 1115.49 446.986C1122.13 451.793 1127.75 457.858 1132.05 464.836C1154.22 501.291 1163.12 580.369 1169.69 622.483C1170.86 629.967 1171.55 647.066 1173 651.964V654.951C1171.29 660.552 1171.53 668.224 1170.29 674.248C1164.67 701.595 1150.6 716.138 1126.05 727.623C1130.61 763.654 1133.65 793.993 1135.03 830.104C1140.81 831.174 1153.85 832.967 1156.93 838.002C1161.44 845.379 1160.73 863.225 1159.18 871.569C1158.31 876.212 1156.42 879.921 1152.39 882.147C1146.11 885.619 1133.14 890.789 1126.24 892.468C1125.23 1001.05 1125.17 1109.63 1126.07 1218.2C1135.14 1221.78 1146.14 1225.36 1153.01 1232.33C1142.95 1243.12 1136.86 1241.34 1126.2 1248.92C1124.39 1254.83 1123.34 1258.29 1117.53 1261.51C1109.08 1266.2 1095.66 1264.37 1087.47 1260.05C1062.33 1273.85 1038.49 1282.6 1012.35 1293.75L879.114 1350.57C868.724 1355.15 858.3 1359.66 847.836 1364.09C841.805 1366.6 831.564 1370.43 826.292 1373.42C821.066 1382.33 816.876 1382.62 807.333 1386H800.259C791.833 1382.56 787.961 1383.71 781.93 1375.39C768.102 1372.28 748.845 1369.53 734.245 1366.69L620.583 1344.03L511.589 1322.17C488.763 1317.56 469.064 1312.92 445.936 1309.21C431.229 1314.28 401.598 1334.83 386.594 1338.56C384.182 1337.37 381.744 1336.24 379.285 1335.16C370.204 1331.18 286.003 1296.84 281.643 1298.54C273.985 1298.98 242.841 1292.36 233.396 1290.14C196.183 1281.39 154.541 1274.18 118.92 1260.58C115.581 1272.4 106.605 1275.64 95.3853 1275.17C80.9329 1274.55 74.2286 1266.27 75.1025 1252.49C69.6564 1248.27 58.0469 1246.06 51.3322 1243.36C19.2269 1230.45 64.5726 1217.49 75.1322 1214.26C74.4533 1206.02 73.9978 1196.45 74.2232 1188.22C75.6994 1134.35 75.1397 1080.32 75.1045 1026.41C75.0754 981.854 75.5384 937.161 75.0246 892.637C66.3283 891.344 54.1512 889.876 46.307 886.505C35.8156 881.991 38.1046 850.048 42.2547 842.286C45.2511 836.676 69.6158 831.174 76.6883 829.225C74.4987 817.875 75.1498 799.698 76.425 788.423C42.8777 784.755 10.3601 775.531 2.8065 737.937C1.66316 732.245 1.77692 724.307 0 719.062V712.937C1.38783 709.161 5.04814 669.858 5.08847 664.869C5.2521 644.621 -2.50588 624.32 17.6736 609.393C20.701 584.401 24.9026 559.128 29.754 534.348C33.4821 515.306 36.4442 486.441 50.3571 472.162C70.8335 451.146 101.545 444.945 129.881 443.408C74.345 367.838 109.117 242.52 172.44 182.107C161.457 136.002 164.242 90.4324 182.701 46.3025C188.961 31.3361 197.622 15.6114 211.401 6.21398C214.06 4.40005 221.621 1.30423 224.909 0ZM553.351 1108.7C539.686 1079.66 538.744 1008.06 539.447 974.24C527.763 972.772 510.493 969.036 498.514 966.816C495.07 971.987 487.735 978.944 483.103 983.085C477.534 981.204 468.313 976.683 462.578 974.159C452.813 969.983 442.99 965.943 433.112 962.032L432.962 1080.76C433.054 1091.94 432.261 1114.97 433.282 1124.95C434.991 1125.9 437.239 1125.81 439.35 1126C437.411 1126.05 434.759 1125.83 433.345 1126.9C430.99 1142.1 439.257 1161.29 408.794 1159.68C403.676 1159.41 398.498 1156.29 395.587 1152.42C390.929 1146.83 393.265 1133.66 391.283 1131.09C393.576 1128.2 391.085 967.236 392.656 949.139C376.09 945.931 359.144 943.353 342.752 939.996C340.6 954.547 339.128 970.789 337.494 985.495L328.709 1064.52C326.278 1086.26 324.059 1109.52 318.793 1130.77C317.279 1136.88 315.89 1139.63 311.973 1144.55L320.243 1150.37C335.737 1160.18 362.333 1170.68 366.735 1189.69C367.938 1194.88 366.971 1201.74 363.693 1206.14C358.274 1213.41 348.228 1215.34 339.793 1216.45C313.863 1219.88 287.405 1214.33 262.038 1209.33C253.03 1207.55 240.998 1205.35 232.391 1202.66C241.35 1214.77 251.552 1231.73 234.647 1243.43C219.096 1254.19 193.377 1251.09 175.484 1248.31C155.03 1244.89 136.718 1234.63 118.445 1225.43C118.516 1235.14 119.351 1251.58 118.92 1260.58C154.541 1274.18 196.183 1281.39 233.396 1290.14C242.841 1292.36 273.985 1298.98 281.643 1298.54C286.003 1296.84 370.204 1331.18 379.285 1335.16C381.744 1336.24 384.182 1337.37 386.594 1338.56C401.598 1334.83 431.229 1314.28 445.936 1309.21C469.064 1312.92 488.763 1317.56 511.589 1322.17L620.583 1344.03L734.245 1366.69C748.845 1369.53 768.102 1372.28 781.93 1375.39C780.705 1348.93 781.213 1323.56 781.226 1297.12L781.145 1157.5C780.59 1120.31 781.233 1082.95 781.057 1045.75C781.009 1036.25 780.854 1026.01 781.781 1016.61C777.361 1015.47 770.166 1014.49 765.482 1013.7C765.855 1046.4 775.067 1098.07 759.33 1128.66C763.12 1139.44 765.218 1146.44 766.416 1157.96C766.261 1201.11 717.75 1212.19 682.607 1209.18C647.886 1206.2 637.329 1183.89 659.796 1156.56C668.386 1146.11 674.421 1140.6 685.396 1132.55C668.152 1109.59 659.33 1024.98 658.443 994.002C652.847 993.156 648.387 992.431 642.83 991.166C641.385 1027.61 643.417 1076.41 630.692 1110.6C640.17 1140.88 639.592 1160.69 606.044 1171.58C593.804 1175.43 581.795 1178.61 568.86 1180.11C549.545 1182.11 516.297 1184.2 505.164 1164.61C498.207 1152.36 511.243 1142.27 513.931 1133.41C515.543 1132.64 523.972 1125.18 525.947 1123.53C533.657 1117.09 543.807 1111.87 553.351 1108.7ZM827.402 1168.56C837.351 1169.53 848.892 1170.85 858.3 1174.23C868.528 1166.95 878.302 1161.45 889.145 1155.2C886.58 1137.57 885.706 1112.89 884.535 1094.63L878.335 996.445C861.718 1002.6 842.99 1010.86 826.44 1017.69C827.395 1059.01 826.434 1100.84 827.029 1142.2C827.151 1150.7 826.596 1160.18 827.402 1168.56ZM763.093 394.287C751.377 388.714 745.508 384.131 741.312 371.328C733.643 347.947 733.934 318.651 744.608 296.224C751.864 280.986 759.783 275.307 776.542 275.488C764.623 240.378 742.198 212.7 708.646 195.752C688.571 185.614 660.23 180.11 637.684 182.329C597.747 185.787 566.349 200.937 540.831 232.112C497.235 285.373 490.766 380.93 548.753 426.44C579.217 450.349 619.546 459.064 657.32 454.974C661.785 454.485 666.223 453.765 670.614 452.815C702.216 445.67 723.544 437.285 746.977 413.088C752.764 407.11 757.766 399.863 763.093 394.287ZM175.505 195.888C115.174 259.009 82.1506 385.187 153.668 452.926C183.616 481.292 214.459 489.403 247.33 511.961C226.335 505.638 216.081 500.755 196.16 492.666C206.92 515.995 210.782 545.658 206.994 571.056C211.884 569.175 217.563 566.705 222.408 565.054C232.994 531.513 240.131 517.135 276.647 511.163C272.586 507.029 265.385 499.054 261.058 495.766C216.601 461.983 188.219 440.973 181.934 381.455C176.87 304.326 242.261 199.807 324.603 194.933C349.592 193.543 374.113 202.11 392.798 218.759C408.511 232.724 419.48 254.661 420.503 275.744C421.079 289.941 417.704 304.02 410.755 316.414C414.11 328.447 416.593 337.974 418.414 350.359C419.761 359.513 420.507 369.739 422.069 378.666C436.156 335.928 432.088 267.836 411.561 226.981C394.441 193.26 364.661 167.691 328.734 155.867C305.536 148.281 279.495 145.968 255.868 153.009C254.279 158.606 250.784 173.59 242.354 170.959C239.107 166.127 247.992 142.169 249.183 135.01C253.771 107.427 260.408 19.6322 223.83 12.364C181.447 36.9577 174.924 108.766 177.974 152.742C178.325 158.152 179.028 163.534 180.08 168.854C181.535 176.277 187.463 194.094 184.625 199.633C181.296 200.952 178.303 197.864 175.505 195.888ZM669.851 646.909C675.922 647.234 682.844 647.711 688.875 647.705C705.54 647.928 717.96 648.117 734.157 642.915C774.322 630.014 763.222 574.909 722.691 574.905C702.216 575.679 676.599 582.966 657.769 590.985C681.051 604.421 679.853 625.003 669.851 646.909ZM188.907 1175.41C190.291 1174.17 190.156 1173.6 190.272 1171.73C190.347 1170.52 190.159 1169.9 189.69 1168.82C185.936 1167.05 173.148 1170.99 168.121 1171.37C153.126 1172.5 139.809 1169.91 125.468 1165.76C125.558 1168.22 125.553 1170.72 125.86 1173.16C134.471 1181.5 144.324 1182.6 155.881 1182.42C167.524 1182.25 178.186 1179.91 188.907 1175.41ZM337.544 146.797C344.327 149.809 350.878 153.194 357.766 156.119C367.167 136.21 381.138 89.5912 401.871 78.5195C406.82 82.3492 409.516 86.0849 410.05 92.6116C411.771 113.684 390.567 153.021 379.885 170.029C380.898 171.783 385.165 175.495 386.894 177.101C413.507 147.711 432.604 94.6114 427.073 55.2049C426.097 48.2501 425.637 39.3765 417.441 37.3216C405.242 34.2626 395.726 45.9687 387.897 53.4337C362.366 78.8328 346.992 112.484 337.544 146.797ZM995.832 687.058C983.276 682.903 963.092 677.408 950.083 678.281C938.251 680.642 886.052 695.024 883.019 706.914C888.773 719.055 929.993 697.703 940.065 695.403L939.754 696.181C933.75 710.981 910.1 719.813 929.709 737.72C935.144 723.725 937.466 716.774 951.111 709.553C947.016 722.168 942.387 724.422 938.569 733.721C937.479 743.195 938.759 744.217 945.683 750.585C946.949 743.141 950.347 725.606 960.757 726.54C964.094 733.741 950.732 740.955 953.453 748.988C955.931 756.338 971.045 755.214 974.646 749.902C971.593 747.452 967.16 749.794 966.057 745.28C966.584 743.73 968.669 740.332 970.239 740.109C981.232 738.519 999.006 746.383 1006.61 733.957C1016.11 718.426 1006.34 699.544 995.832 687.058ZM226.272 660.192C228.835 657.25 232.06 653.328 234.852 650.772C203.805 644.305 189.55 621.335 194.453 590.159C180.056 597.092 166.073 604.852 152.573 613.4C142.648 619.633 131.953 627.298 121.836 632.754L120.438 631.967C117.474 619.672 156.876 599.707 165.704 594.599C170.576 565.566 172.844 496.08 134.111 490.065C132.128 489.774 130.137 489.545 128.14 489.38C91.9231 512.993 81.2849 587.819 80.719 627.97C78.9579 753.035 165.913 721.356 226.272 660.192ZM741.197 711.976C744.378 711.218 747.546 710.433 750.754 709.797C790.926 709.784 756.162 743.08 760.21 754.443C761.672 755.614 762.436 756.169 764.501 755.911C769.523 755.289 772.643 749.354 776.15 746.254C788.401 735.399 801.728 725.295 799.461 706.901C798.378 698.549 794.026 690.97 787.352 685.826C781.158 681.103 776.705 680.656 769.415 681.035C751.918 684.669 734.753 688.784 724.668 705.175C720.038 712.694 701.742 748.352 708.064 754.659C717.5 754.45 733.365 720.192 741.197 711.976ZM540.015 494.713C524.755 506.594 511.28 519.262 498.306 533.624C496.082 536.086 493.78 538.773 491.319 540.975C514.29 548.086 522.627 555.086 527.05 579.799C527.847 587.419 527.281 592.727 525.88 600.352C536.022 592.476 541.368 587.246 550.529 578.204C549.167 567.719 548.705 557.136 549.147 546.572C538.096 533.048 537.039 524.078 538.764 506.65C538.978 504.486 540.164 496.107 540.015 494.713ZM632.615 989.988L618.022 987.809C606.651 996.445 593.822 1002.46 579.178 1000.43C571.175 999.328 562.232 995.822 556.502 989.995C554.128 987.579 551.783 984.344 549.099 982.314C549.141 1005.66 548.171 1087.89 563.458 1102.91C571.818 1111.11 586.361 1112.24 597.395 1111.86C605.358 1111.58 614.973 1110.05 620.75 1104.02C623.82 1100.82 625.422 1096.95 626.469 1092.71C628.942 1070.24 630.92 1047.92 631.868 1025.32C632.357 1013.68 631.321 1001.51 632.615 989.988ZM724.857 564.201C750.03 558.804 766.775 562.042 778.58 587.079C781.443 595.577 782.296 600.493 783.297 609.428C798.561 585.554 802.919 553.565 797.132 526.001C793.498 508.679 783.717 496.528 765.232 496.077C736.844 507.62 729.561 536.773 724.857 564.201ZM728.505 1192.89C738.875 1188.6 750.436 1181.84 754.856 1170.89C758.301 1162.35 756.622 1152.69 754.219 1144.13C734.286 1153.12 723.429 1154.31 702.385 1147.88C697.85 1146.5 692.801 1144.2 688.192 1143.45C676.604 1151.71 661.394 1164.56 658.937 1179.42C658.291 1183.32 658.861 1187.09 661.353 1190.25C666.384 1196.62 677.578 1198.23 685.132 1198.86C698.852 1199.99 715.801 1198.51 728.505 1192.89ZM299.587 1147.89C288.476 1150.53 277.072 1152.52 265.625 1151.46C258.96 1150.84 246.394 1147.42 240.506 1150C239.864 1151.13 239.582 1151.33 240.018 1152.65C240.793 1155 243.145 1156.99 245.337 1157.97C261.212 1163.06 278.792 1163.96 294.045 1156.11C297.317 1154.43 301.221 1152.53 303.5 1149.58L303.49 1148.34C301.831 1147.61 301.341 1147.73 299.587 1147.89ZM403.96 746.762C405.712 744.792 406.908 743.479 408.425 741.307L401.565 735.913C402.156 730.492 404.717 731.44 405.909 727.806C408.039 721.302 400.493 718.609 407.107 714.149C409.587 712.47 412.154 710.812 414.78 709.242C410.03 704.018 409.648 700.681 406.803 694.387C381.588 693.46 379.76 699.883 353.227 691.078C354.001 705.371 354.183 724.408 355.476 738.045C367.738 740.664 392.18 746.389 403.96 746.762ZM677.558 699.896C720.979 701.622 721.493 683.349 758.754 672.621C758.003 664.608 757.935 654.203 757.489 645.839C753.4 646.731 747.897 648.936 743.843 650.285C729.263 655.145 714.677 658.557 699.184 658.108C695.711 658.008 690.791 657.782 687.433 658.052L686.283 658.154L683.108 659.431C688.591 664.967 685.193 667.429 680.793 671.543C681.389 675.318 682.174 678.978 682.946 682.72C693.437 691.789 687.183 694.753 677.558 699.896ZM296.094 644.396C296.483 670.306 293.869 699.977 293.872 727.312C298.047 727.548 301.983 727.691 306.115 728.374C319.124 730.783 332.031 732.746 344.875 735.067C343.268 721.647 342.345 708.153 342.109 694.638C341.725 679.33 341.977 658.547 341.861 642.838C341.535 642.502 341.208 642.166 340.881 641.83L338.202 641.887C324.691 642.452 309.417 642.864 296.094 644.396ZM554.422 1118.57C541.428 1125.1 518.685 1137.45 514.282 1152.32C513.479 1155.02 513.594 1157.74 515.024 1160.22C517.996 1165.38 524.896 1167.87 530.433 1169.09C549.199 1173.19 569.335 1169.9 587.812 1165.81C599.033 1162.82 616.115 1160.25 622.428 1149.1C626.435 1142.03 625.078 1133.05 624.089 1125.36C609.442 1131.69 593.059 1136.99 577.39 1130.86C570.396 1128.11 561.133 1118.78 554.422 1118.57ZM409.254 609.896C406.915 619.292 405.195 627.029 401.057 635.861C391.398 637.373 382.441 638.66 372.665 639.047C371.058 645.521 370.032 651.806 366.018 657.184L364.628 657.922C361.696 654.865 364.642 643.441 365.684 639.606L352.135 640.979C352.124 644.55 352.527 657.376 352.286 660.007L352.001 676.75C389.341 696.492 414.06 678.091 432.917 643.531C436.782 636.446 448.094 610.237 446.529 602.947C432.574 613.915 426.049 614.473 409.254 609.896ZM311.011 418.134C302.005 449.369 293.103 479.091 285.555 510.732C296.36 511.519 311.407 513.897 318.864 522.443C327.643 532.505 318.253 539.967 310.371 544.992C312.415 560.314 312.293 595.523 290.597 598.84C288.969 599.089 284.129 598.515 282.251 598.347C273.714 612.506 268.781 619.061 264.367 635.371C291.078 633.256 318.533 632.563 345.315 630.724C357.36 629.897 371.013 629.558 382.937 628.133L394.363 627.357C399.954 610.474 403.107 597.826 407.532 580.808C399.219 572.813 398.136 567.187 394.348 556.351C398.287 540.68 392.165 533.39 403.373 521.985C403.546 515.046 403.212 508.763 408.677 503.404C414.604 497.593 426.681 496.872 434.574 496.925C443.096 470.997 451.213 444.937 458.923 418.756C452.548 419.479 446.32 419.398 439.924 419.664C400.145 421.324 360.475 421.617 320.721 419.119C317.558 418.92 314.117 418.681 311.011 418.134ZM930.603 462.438C933.933 457.965 939.469 450.112 942.989 446.289C938.102 441.676 928.179 428.909 924.93 426.67C921.289 439.259 920.781 460.568 922.446 473.85C925.188 470.112 928.064 466.294 930.603 462.438ZM914.094 429.577C904.015 441.124 894.512 456.192 889.828 470.818C894.519 475.164 899.101 479.619 903.589 484.178C897.111 490.349 890.559 496.434 883.926 502.432C890.654 551.894 903.413 597.287 917.011 645.062C918.02 648.594 918.324 652.39 917.262 655.927L916.395 656.684C914.798 655.703 913.871 654.594 913.255 652.703C902.648 620.153 892.834 586.826 884.86 553.526C881.435 539.226 875.181 515.4 875.229 501.204C879.276 494.43 884.637 488.926 891.155 484.433C887.662 481.05 884.197 477.642 880.752 474.21C884.657 461.681 887.662 454.589 894.722 443.18C861.014 463.092 856.71 471.698 846.496 508.755C837.054 543.019 833.053 585.512 822.833 618.315C830.068 618.471 843.186 619.69 848.574 624.985C849.23 626.994 849.23 625.984 848.344 628.109C842.32 631.066 834.779 624.051 826.298 626.852C810.92 631.929 793.66 655.26 782.14 663.833C805.613 672.529 813.039 681.231 819.421 705.75C820.193 711.218 820.667 716.044 821.134 721.519C835.889 711.699 843.964 704.18 857.014 691.822C856.54 666.593 853.819 517.341 862.95 506.777C863.573 506.051 863.634 506.069 864.331 505.621L865.36 506.311C866.125 510.593 866.382 517.823 866.138 522.23C865.428 534.725 865.793 547.088 865.969 559.597C866.666 607.872 866.592 656.155 865.746 704.43C865.286 727.616 864.006 750.87 863.573 774.028C880.88 772.194 901.349 772.56 918.494 775.903C918.561 767.816 919.123 750.815 918.115 743.466C916.355 730.668 913.343 730.479 913.816 715.827C897.863 719.563 862.388 726.364 874.477 696.945C886.938 688.892 907.4 681.279 921.769 676.428C919.38 609.163 908.198 540.654 910.52 472.969C910.974 459.902 915.644 442.203 914.094 429.577ZM1007.64 811.324C968.25 797.241 914.642 778.806 872.887 782.048C863.174 782.603 855.498 784.904 846.706 789.086C833.04 795.569 735.761 857.987 730.218 865.451C729.866 865.925 729.852 866.094 729.703 866.595C731.098 866.629 731.22 866.352 732.309 866.27C776.319 863.178 827.97 878.317 867.566 894.369L878.477 898.958C894.783 888.759 913.925 874.669 930.203 863.401C955.186 846.123 983.208 828.866 1007.64 811.324ZM714.054 564.775C708.294 551.45 705.655 539.555 706.853 524.947C708.518 504.665 718.386 481.433 736.926 471.248C728.783 468.67 716.627 465.305 709.005 462.398C696.7 494.616 657.212 507.991 625.089 502.856C603.089 499.34 592.936 487.93 594.991 465.681C575.889 477.897 568.772 491.526 563.666 513.73C558.868 534.593 558.519 569.73 562.552 590.676C564.083 592.446 585.204 594.151 587.363 593.407C607.725 586.383 618.862 583.369 641.314 588.387C667.768 574.527 684.564 570.397 714.054 564.775ZM233.629 1131.71C244.542 1142.37 258.603 1141.74 273.188 1141.79C285.698 1141.82 297.767 1141 307.549 1132.61C311.333 1121.98 314.329 1095.8 316.023 1083.67C321.2 1046.6 324.403 1008.96 328.631 971.784C320.781 965.057 308.497 968.853 298.479 967.743C278.559 965.524 258.488 962.411 238.939 957.944C233.62 992.865 224.605 1102.24 233.629 1131.71ZM734.665 1008.06C723.673 1016.53 711.719 1021.32 697.647 1019.42C690.479 1018.45 679.447 1014.95 674.926 1008.96C672.924 1006.31 671.541 1001.84 668.893 999.95C668.801 1024.37 676.789 1110.35 693.674 1126.38C701.654 1133.95 716.281 1133.53 726.536 1132.9C735.436 1132.35 745.143 1129.37 751.106 1122.37C752.338 1120.95 753.441 1119.42 754.409 1117.8C760.345 1092.25 758.781 1064.08 756.744 1038.15C756.06 1029.44 754.795 1020.58 754.544 1011.88C747.925 1010.63 741.244 1009.5 734.665 1008.06ZM416.439 557.521C421.848 557.719 430.311 558.287 434.677 561.951L434.656 563.141C429.476 567.192 415.763 565.301 408.119 566.787C410.794 569.913 413.532 572.978 416.165 576.134C418.844 579.346 421.4 583.796 424.235 586.722C450.498 587.529 457.431 554.79 458.122 534.281C458.688 517.498 449.465 503.488 430.983 505.807C425.573 506.397 414.383 507.573 412.342 513.531C415.67 521.329 441.471 517.084 446.315 523.545C440.278 529.455 409.373 521.943 404.891 534.902C406.205 544.057 435.142 533.846 441.112 542.601C440.926 545.211 441.445 544.176 439.683 545.895C433.501 547.953 400.689 542.072 404.657 555.155C408.04 557.96 412.163 557.541 416.439 557.521ZM528.923 624.743C535.823 626.311 555.85 632.017 561.644 629.09C562.995 622.926 544.309 619.271 545.681 610.219C546.586 604.249 554.606 595.399 552.21 591.419C532.208 610.658 499.056 629.354 471.163 628.092C463.934 627.765 458.357 626.94 451.3 625.642C444.876 643.73 438.573 656.159 426.841 671.399C432.576 669.708 436.651 668.216 442.157 666.072C460.683 658.416 478.93 650.101 496.861 641.143C507.814 635.629 517.651 630.091 528.923 624.743ZM1024.17 403.711C1022.88 422.035 1014.27 450.462 1009.99 468.672C1003.41 496.715 996.664 524.79 990.072 552.839C984.555 576.408 979.33 600.046 974.395 623.745C971.546 637.886 968.493 656.675 964.967 670.341C971.823 671.56 980.345 673.017 987.053 674.836C1017.22 662.627 1045.15 653.694 1075.1 642.159C1073.51 633.272 1072.33 622.296 1071.29 612.598C1067.34 575.829 1062.06 525.496 1082.82 492.64C1083.67 491.299 1084.62 490.398 1086.06 489.83L1087.15 490.277C1087.59 492.935 1083.35 504.349 1082.25 507.93C1079.15 518.145 1077.2 528.679 1076.47 539.331C1074.48 569.096 1078.01 598.797 1082.84 628.098C1083.42 631.662 1084.18 635.566 1084.54 639.14C1093.79 637.708 1114.11 635.508 1120.54 644.457L1120.76 646.112C1117.89 649.304 1101.6 644.548 1095.22 646.093C1080.7 649.608 1067.88 655.692 1053.99 660.935C1041.03 665.534 1027.64 669.87 1014.57 674.234C1030.11 688.506 1036.23 706.082 1037.12 727.061C1037.36 732.78 1037.31 738.512 1036.96 744.224C1064.45 738.58 1095.15 731.223 1120.48 718.859C1136.42 710.724 1151.9 699.118 1157.7 681.427C1169.41 645.772 1145.91 514.333 1127.86 479.481C1113.11 451.005 1072.82 434.136 1045.15 421.037C1048.38 436.702 1053.55 458.796 1054.08 474.636C1046.29 479.373 1041.32 482.298 1032.82 485.966C1038.27 490.316 1045.74 496.051 1050.43 501.052C1044.81 519.296 985.604 652.012 975.756 661.051L974.923 660.576C974.138 647.517 997.646 602.461 1004.13 588.599C1010.41 574.952 1016.62 561.269 1022.74 547.55C1028.99 533.332 1034.76 518.906 1040.04 504.297C1032.46 497.034 1025.18 490.911 1017.82 483.302C1027.49 479.506 1035.92 475.145 1045.2 470.51C1042.54 450.107 1040.11 417.701 1024.17 403.711ZM1019.39 811.581C1047.94 818.593 1094.67 824.02 1124.2 827.939C1124.27 807.798 1121.7 785.317 1119.9 765.102C1119.58 761.495 1118.45 749.746 1117.63 746.917C1104.6 747.723 1088.78 754.72 1076.15 758.294C1063.65 761.833 1050.62 764.107 1037.82 766.07C1022.97 768.343 1010.18 762.273 995.392 762.422C985.083 762.517 978.308 768.729 968.818 763.985L966.767 764.52C965.17 767.044 965.86 783.34 965.833 787.787C982.924 793.032 999.812 798.926 1016.46 805.464L1019.39 811.581ZM233.467 643.063C238.799 641.296 247.277 638.508 246.595 631.528C242.515 626.172 228.646 620.137 224.559 612.8C222.052 608.298 221.202 603.644 219.798 599.241C218.541 595.294 217.634 579.387 216.41 577.902C210.006 581.736 207.854 583.218 202.832 588.672C199.33 612.066 204.475 638.938 231.984 642.86C232.477 642.933 232.972 643 233.467 643.063ZM572.139 832.575C609.633 835.417 689.803 840.479 718.183 865.174C748.486 842.036 781.944 821.753 813.736 800.706C823.158 794.466 835.747 787.807 844.37 781.547C820.518 769.176 803.515 765.318 777.334 759.004C759.492 773.446 762.247 763.139 751.871 757.84C745.461 754.565 738.557 759.755 726.502 753.055C723.456 757.759 719.185 761.535 714.616 764.736C733.284 769.074 794.134 775.334 805.871 789.309L805.234 789.932C795.677 790.71 765.949 779.862 754.754 777.392C738.631 773.839 722.163 772.357 706.216 768.479C703.387 767.795 703.489 766.638 702.047 763.931L700.774 762.171C691.549 761.028 587.867 822.721 572.139 832.575ZM218.651 1188.56C220.949 1190.56 223.206 1192.65 225.614 1194.51C224.031 1177.02 225.186 1161.39 231.994 1144.97C229.599 1142.23 226.938 1139.44 225.272 1136.18C223.212 1132.14 221.998 1127.9 221.463 1123.4C220.931 1118.93 222.045 1096.6 220.254 1094.85C216.052 1113.41 216.303 1143.89 205.724 1159.2C203.774 1162.03 201.238 1164.12 198.628 1166.29C203.665 1176.4 209.989 1181.55 218.651 1188.56ZM978.321 465.247L985.848 477.075C991.608 470.455 996.644 463.807 1001.58 456.558C1008.04 447.06 1019.01 412.913 1013.48 402.429C999.304 424.256 986.234 433.23 963.674 445.723C968.669 452.145 973.556 458.654 978.321 465.247ZM855.309 708.403C838.556 723.359 816.585 744.007 792.976 744.332L786.072 751.188C793.322 753.198 800.862 754.883 807.996 757.089C827.564 763.051 835.416 765.677 853.332 776.742C853.454 769.034 856.297 710.833 855.309 708.403ZM932.565 475.055C929.526 478.904 927.645 480.992 924.166 484.472L922.974 484.483L920.592 482.145C915.989 485.621 922.297 574.163 923.245 584.808C926.704 582.329 928.992 545.13 930.142 538.529C932.606 524.343 943.206 487.412 932.565 475.055ZM487.576 614.817C504.185 603.668 508.836 583.317 498.245 565.447C491.668 554.351 478.235 552.268 466.158 551.685C462.922 563.873 461.263 568.6 455.917 580.012C457.804 594.793 457.559 601.205 454.224 615.948C465.218 617.874 476.994 619.618 487.576 614.817ZM986.207 487.354C980.223 482.341 978.511 480.384 973.407 474.748C971.878 477.943 964.595 492.776 964.716 495.46C965.975 523.33 971.079 551.221 971.878 579.253C971.993 583.127 972.148 587.441 972.521 591.293C975.519 582.778 977.191 572.101 979.492 563.215C985.767 534.532 993.151 501.626 1000.58 473.346C995.019 480.527 993.456 481.966 986.207 487.354ZM1024.05 740.123C1027.01 738.079 1028.44 736.854 1029.01 733.003C1031.09 718.974 1024.48 699.761 1016.45 688.398C1012.83 683.295 1008.55 679.817 1002.41 678.964C1001.27 678.795 1000.11 678.68 998.952 678.632C1017.13 695.037 1023.39 718.25 1014.93 741.287C1017.34 742.126 1021.55 740.84 1024.05 740.123ZM119.262 1150.42C131.787 1162.2 152.675 1162.51 169.011 1162.03C177.322 1161.78 190.177 1160.65 196.104 1153.92C207.13 1141.41 225.666 981.278 228.797 955.975L228.254 955.318C204.283 951.461 180.549 946.243 157.166 939.705C144.536 936.193 132.55 931.469 119.731 928.722C117.785 933.96 118.464 1126.21 119.262 1150.42ZM445.451 591.119C432.365 596.102 428.04 596.378 414.824 591.293L411 603.227C421.045 605.072 430.132 607.336 438.745 599.848C441.118 596.899 443.283 594.229 445.451 591.119ZM620.763 595.878C609.471 596.475 603.608 597.48 592.965 601.407C609.272 607.552 624.085 612.934 624.732 632.903C624.87 637.167 626.766 638.364 630.243 640.059C633.501 640.255 637.108 640.601 640.331 640.123C659.309 637.31 660.463 616.532 648.687 604.784C640.916 597.031 633.413 595.901 622.871 595.874L620.763 595.878ZM164.586 774.515C175.926 776.119 188.153 778.826 199.315 781.567C235.529 790.453 272.952 797.214 308.861 807.061C311.049 807.697 313.297 807.467 315.42 806.743C357.018 792.551 399.745 779.733 441.336 765.745C406.143 757.691 370.816 750.227 335.37 743.358C326.384 741.659 306.085 737.253 297.91 737.138C253.279 748.914 208.833 761.373 164.586 774.515ZM192.371 380.08C195.34 380.372 199.06 380.618 201.927 381.195C214.321 404.263 214.314 411.619 235.399 432.003C253.034 449.189 264.925 454.794 288.014 461.141C291.837 447.637 298.988 420.023 305.121 408.156C326.783 409.502 357.558 409.052 378.17 411.328C388.849 381.561 392.923 356.57 394.569 324.838C396.088 295.563 392.574 270.799 370.398 248.914C362.114 260.641 352.988 273.589 340.522 281.056C332.214 286.032 309.322 299.861 300.332 294.049C297.803 289.769 300.314 286.897 302.723 283.145L301.831 283.474C293.284 286.683 283.98 292.162 275.394 295.929C263.285 301.244 253.301 302.487 240.479 303.973C237.569 309.073 235.224 314.39 232.31 319.281C223.083 334.769 210.629 344.032 193.591 349.593C192.956 359.745 192.549 369.91 192.371 380.08ZM530.655 634.878C524.496 637.132 501.779 649.346 493.788 653.122C469.139 664.858 443.907 675.327 418.19 684.486C447.378 690.645 476.572 696.803 505.739 703.07C522.885 706.752 541.96 712.572 559.113 715.347C562.949 713.242 567.165 710.812 571.064 708.931C597.844 695.423 627.081 685.238 654.943 674.058C661.17 671.559 668.935 668.327 675.304 666.407C656.4 663.114 624.846 657.789 607.552 651.867C600.198 657.898 598.152 656.995 589.167 658.924C587.298 659.325 583.856 662.487 581.4 663.15C565.17 667.526 562.219 652.817 559.79 641.256C550.4 638.822 540.264 635.863 530.655 634.878ZM289.705 644.437C279.755 644.765 269.808 645.146 259.862 645.582C258.754 644.741 256.023 642.551 254.946 642.005C249.85 648.092 245.124 654.386 240.038 660.69C219.206 686.53 192.146 707.368 160.937 718.994C157.091 720.422 144.039 723.759 141.875 725.89C125.207 742.281 112.363 751.817 90.608 761.237C87.4762 784.295 86.2402 802.581 86.7052 826.105C100.484 823.012 114.165 819.493 127.728 815.554C133.084 814.451 150.483 811.507 153.461 807.697C152.35 803.569 145.87 802.114 148.613 796.483C150.009 793.62 157.032 789.079 157.269 786.014C154.747 779.93 149.164 777.635 149.64 772.215C153.573 766.07 220.899 748.223 232.303 745.151C247.564 741.03 270.985 733.815 286.351 730.398C287.774 702.19 289.611 672.67 289.705 644.437ZM491.67 837.109C463.822 850.414 436.558 864.633 408.94 878.364C385.17 890.173 360.683 900.974 338.483 915.701C353.95 921.703 368.839 929.128 384.339 935.117C412.802 946.107 441.916 955.792 469.831 968.143C473.554 969.449 476.958 971.269 480.446 973.09C506.442 946.446 533.705 924.918 566.286 906.815C583.033 897.509 600.624 889.253 616.959 879.284C586.874 873.776 557.071 866.223 528.766 854.481C516.208 849.277 504.448 841.731 491.67 837.109ZM271.194 572.231C276.916 571.399 279.112 571.032 284.955 571.112C289.569 571.175 297.624 574.19 299.744 573.373C301.762 569.584 298.094 564.286 294.599 562.552C289.866 560.204 270.979 559.998 268.083 556.927C267.953 554.539 267.629 555.554 268.842 553.715C278.526 548.724 297.187 558.689 302.432 556.472C306.996 538.117 271.32 544.83 264.311 540.3L263.93 539.153C270.179 526.807 305.144 541.745 312.274 531.318C309.998 520.143 284.845 520.808 275.825 521.273C263.074 523.852 250.625 528.215 243.47 540.194C230.873 561.288 215.463 599.666 241.082 617.376C250.287 623.741 260.401 614.079 265.547 606.958C269.17 601.943 272.411 593.988 277.435 590.784C282.022 587.859 297.457 592.898 297.332 583.206C293.197 576.541 273.281 580.346 268.872 575.275C269.337 573.185 269.106 573.89 271.194 572.231ZM962.665 418.547C952.309 422.502 946.732 424.01 935.821 426.068C941.006 434.553 944.113 437.805 953.379 441.938C975.377 432.838 992.204 417.932 1005.8 398.658C1005.65 389.777 1005.3 383.987 1004.17 375.032C1010.61 362.029 1012.77 355.43 1016.45 341.265C1030.1 340.42 1034.11 338.998 1043.21 329.445C1052.74 319.432 1060.59 292.667 1049.11 282.693C1029.67 268.558 1026.71 293.166 1013.55 297.439C1005.19 300.154 1005.97 277.828 1004.43 275.005C989.868 248.384 983.736 230.784 988.792 200.08C989.239 197.374 980.677 195.85 978.287 195.856C977.705 195.86 977.123 195.872 976.541 195.895C963.295 196.572 951.139 200.219 938.292 202.486C915.36 206.534 889.361 204.179 867.127 197.486C848.553 228.272 852.912 260.259 854.144 294.467C855.309 326.757 854.645 360.946 874.877 388.244C890.052 408.722 915.515 422.555 941.385 415.745C946.434 414.449 951.396 412.838 956.242 410.923C961.393 408.862 977.184 400.222 980.765 400.755C981.618 407.711 967.891 415.899 962.665 418.547ZM744.073 938.826C756.236 932.444 768.169 925.764 780.163 919.064C761.557 914.875 742.422 912.276 723.659 908.717C711.936 906.497 684.266 899.851 674.527 900.034C661.93 906.395 648.648 912.283 636.544 919.518C658.416 923.504 680.266 927.612 702.094 931.841C715.929 934.467 730.022 937.702 744.073 938.826Z" fill="#363636"/>
<path d="M642.829 991.166C648.386 992.432 652.846 993.156 658.443 994.002C659.33 1024.98 668.152 1109.59 685.396 1132.55C674.421 1140.6 668.386 1146.11 659.796 1156.56C637.329 1183.89 647.886 1206.2 682.607 1209.18C717.75 1212.19 766.261 1201.11 766.416 1157.96C770.775 1158.01 777.699 1158.95 781.145 1157.5L781.226 1297.12C781.212 1323.56 780.705 1348.93 781.93 1375.39C768.102 1372.28 748.845 1369.53 734.245 1366.69L620.583 1344.03L511.589 1322.18C488.762 1317.56 469.064 1312.92 445.935 1309.21C431.229 1314.28 401.598 1334.83 386.594 1338.56C384.181 1337.38 381.744 1336.24 379.285 1335.16C370.204 1331.18 286.003 1296.84 281.642 1298.54C273.984 1298.98 242.841 1292.36 233.396 1290.14C196.183 1281.39 154.541 1274.18 118.92 1260.58C119.351 1251.58 118.515 1235.14 118.444 1225.43C136.718 1234.63 155.03 1244.89 175.483 1248.31C193.377 1251.09 219.096 1254.19 234.646 1243.43C251.552 1231.73 241.349 1214.77 232.391 1202.66C240.998 1205.35 253.03 1207.55 262.038 1209.33C287.405 1214.33 313.863 1219.88 339.793 1216.45C348.228 1215.34 358.274 1213.41 363.693 1206.14C366.971 1201.74 367.938 1194.88 366.735 1189.69C362.333 1170.68 335.736 1160.18 320.242 1150.37C344.952 1144.42 366.765 1135.9 391.283 1131.09C393.265 1133.66 390.929 1146.83 395.586 1152.42C398.498 1156.29 403.676 1159.41 408.793 1159.68C439.257 1161.29 430.99 1142.1 433.345 1126.9C434.759 1125.83 437.41 1126.05 439.35 1126C453.553 1127.44 467.713 1128.99 481.904 1130.51C492.034 1131.6 504.013 1131.67 513.931 1133.41C511.242 1142.27 498.207 1152.36 505.163 1164.61C516.297 1184.2 549.545 1182.11 568.859 1180.11C581.795 1178.61 593.804 1175.43 606.043 1171.58C639.592 1160.69 640.169 1140.88 630.691 1110.6C643.417 1076.41 641.385 1027.61 642.829 991.166ZM263.902 1281.45C305.107 1297.97 346.278 1315.2 388.071 1330.13C415.41 1316.52 442.273 1301.97 468.611 1286.51C484.294 1277.39 499.731 1267.3 515.736 1258.83C482.831 1252.27 451.473 1242.4 419.407 1232.73C409.941 1229.88 400.979 1224.97 391.311 1222.94C351.003 1246.84 308.3 1266.46 263.902 1281.45ZM571.78 1294.15C589.026 1300.11 606.524 1305.32 623.771 1311.29C637.477 1316.02 651.256 1321.8 665.19 1325.73C673.581 1324.02 721.791 1298.18 730.719 1292.44C714.772 1287.33 651.013 1265.5 639.465 1266.18C625.712 1272.03 611.913 1277.77 598.069 1283.41C589.337 1286.95 580.326 1290.2 571.78 1294.15Z" fill="#e0e0e0"/>
<path d="M390.772 1214.01C422.092 1225.53 450.23 1235.08 482.482 1243.63C490.591 1245.77 498.763 1247.68 506.986 1249.33C512.107 1250.32 526.396 1251.32 528.602 1256.08C527 1262.42 499.83 1278.23 493.402 1282.07C483.245 1288.11 472.993 1294 462.65 1299.73C458.926 1301.79 449.026 1306.9 445.935 1309.21C431.229 1314.28 401.598 1334.83 386.594 1338.56C384.181 1337.37 381.744 1336.24 379.285 1335.15C370.204 1331.18 286.003 1296.84 281.642 1298.54C278.469 1292.88 250.949 1289.54 249.309 1281.47C252.203 1276.19 269.04 1271.55 275.268 1269.21C289.057 1264.12 302.692 1258.62 316.152 1252.71C341.742 1241.24 366.656 1228.32 390.772 1214.01ZM263.902 1281.45C305.107 1297.97 346.278 1315.2 388.071 1330.13C415.41 1316.52 442.273 1301.97 468.611 1286.51C484.294 1277.39 499.731 1267.3 515.736 1258.83C482.831 1252.27 451.473 1242.4 419.407 1232.73C409.941 1229.88 400.979 1224.97 391.311 1222.93C351.003 1246.84 308.3 1266.46 263.902 1281.45Z" fill="#363636"/>
<path d="M301.579 1279.1C306.398 1278.81 310.757 1279.51 315.433 1280.67C328.331 1283.9 387.614 1304.01 395.705 1310.91L395.792 1312.62C393.158 1313 390.533 1313.13 387.899 1312.67C373.747 1310.17 358.863 1303.83 345.359 1298.95C332.401 1294.27 318.734 1289.93 306.306 1283.97C303.639 1282.69 302.538 1281.89 301.579 1279.1Z" fill="#e0e0e0"/>
<path d="M326.925 1269.77C329.075 1269.81 331.22 1270.01 333.341 1270.37C343.648 1272.16 409.303 1293.55 413.253 1300.3C413.746 1301.13 413.372 1301.53 413.122 1302.39C411.965 1302.93 411.283 1302.9 410.022 1302.95C409.233 1302.77 408.447 1302.58 407.663 1302.38C389.405 1297.83 371.307 1290.37 353.538 1284.15C345.059 1281.18 335.715 1278.98 327.619 1275.17C325.851 1274.34 324.653 1273.75 323.646 1272.07C324.701 1270.25 325.005 1270.4 326.925 1269.77Z" fill="#e0e0e0"/>
<path d="M384.442 1238.98C385.4 1238.95 386.323 1238.99 387.278 1239.08C405.658 1240.94 424.679 1249.84 442.23 1255.5C451.692 1258.55 461.601 1260.6 470.893 1264.13C472.594 1264.77 473.876 1265.1 475.039 1266.55L473.995 1268.66C472.221 1269.21 470.325 1269.84 468.447 1269.75C459.242 1269.31 388.406 1247.35 384.233 1242.05C383.655 1241.32 384.263 1239.86 384.442 1238.98Z" fill="#e0e0e0"/>
<path d="M344.066 1257.91C359.76 1261.25 423.303 1280.05 433.429 1288.97C434.079 1290.71 433.316 1291.46 432.606 1293.13C422.154 1291.19 411.299 1286.63 401.224 1283.23C383.219 1277.16 360.625 1270.3 343.692 1262C343.058 1260.37 343.6 1259.56 344.066 1257.91Z" fill="#e0e0e0"/>
<path d="M366.939 1248.87C371.874 1250.22 376.974 1251.01 381.935 1252.4C392.61 1255.41 449.559 1272.26 454.862 1277.67C455.013 1279.45 454.461 1279.95 453.583 1281.47C433.493 1276.17 413.596 1270.17 393.928 1263.47C385.789 1260.74 377.206 1258.3 369.416 1254.7C367.838 1253.97 365.851 1253.31 365.246 1251.64L366.939 1248.87Z" fill="#e0e0e0"/>
<path d="M639.039 1259.53C642.384 1259.35 645.373 1259.93 648.601 1260.73C667.31 1265.39 685.444 1272.13 703.881 1277.71C715.868 1281.33 730.861 1282.96 741.515 1289.46C742.916 1290.32 743.268 1290.39 743.606 1291.96C739.768 1297.62 674.855 1330.54 665.879 1332.46C639.118 1323.98 612.481 1315.11 585.973 1305.87C579.008 1303.45 567.513 1300.73 561.493 1296.88C559.92 1295.88 559.566 1295.29 559.244 1293.5C569.622 1287.02 582.481 1283.53 593.769 1278.83C608.912 1272.52 623.654 1265.25 639.039 1259.53ZM571.78 1294.15C589.026 1300.11 606.524 1305.32 623.771 1311.29C637.477 1316.02 651.257 1321.8 665.19 1325.73C673.581 1324.02 721.791 1298.18 730.719 1292.44C714.772 1287.33 651.013 1265.5 639.465 1266.18C625.712 1272.03 611.913 1277.77 598.07 1283.41C589.337 1286.95 580.326 1290.2 571.78 1294.15Z" fill="#363636"/>
<path d="M975.858 1161.6C983.148 1148.86 980.312 1110.99 980.21 1095.11C980.271 1064.87 980.021 1034.64 979.472 1004.41C979.188 989.495 978.437 974.086 979.736 959.136C980.021 955.813 980.434 954.047 983.391 952.389L984.515 952.707C986.173 956.321 988.657 981.246 989.246 986.693C993.023 1024.55 996.367 1062.45 999.284 1100.38C1001.11 1122.77 1002.58 1154.84 1008.31 1175.75C996.049 1189.73 973.509 1211.08 974.078 1230.7C974.741 1253.59 1010.4 1251.48 1025.16 1250.94C1051.84 1249.97 1063.18 1236.06 1083.7 1224.51C1083.03 1236.59 1081.16 1249.36 1087.47 1260.05C1062.33 1273.86 1038.49 1282.6 1012.35 1293.75L879.114 1350.57C868.724 1355.15 858.301 1359.66 847.836 1364.09C841.806 1366.61 831.565 1370.43 826.292 1373.42C826.4 1354.11 825.778 1171.92 827.402 1168.57C837.352 1169.53 848.892 1170.85 858.301 1174.23C849.813 1180.49 838.029 1188.75 836.1 1199.93C835.301 1204.74 836.418 1209.67 839.207 1213.66C854.984 1235.9 927.862 1219.37 948.932 1211.13C955.2 1208.68 964.446 1210.31 970.206 1205.31C982.762 1195.63 978.146 1174.84 975.858 1161.6Z" fill="#e0e0e0"/>
<path d="M75.1326 1214.26C75.9008 1218.92 76.0294 1248.76 75.1028 1252.49C69.6568 1248.27 58.0472 1246.06 51.3325 1243.36C19.2272 1230.45 64.5729 1217.49 75.1326 1214.26Z" fill="#e0e0e0"/>
<path d="M1126.07 1218.21C1135.14 1221.78 1146.14 1225.36 1153.01 1232.33C1142.95 1243.12 1136.86 1241.34 1126.2 1248.92C1124.7 1245.34 1125.77 1223.16 1126.07 1218.21Z" fill="#e0e0e0"/>
<path d="M588.683 266.25C588.847 266.222 589.012 266.194 589.175 266.166C618.824 265.17 672.729 266.051 696.3 285.443C721.574 306.239 721.5 364.899 694.276 385.076C679.148 396.289 663.426 398.751 645.464 399.605C637.158 400.33 620.635 400.015 612.072 399.693C587.158 398.674 558.086 398.471 537.502 382.211C511.635 361.776 513.318 309.732 532.833 285.778C544.425 271.55 571.099 267.843 588.683 266.25ZM658.074 358.509C665.803 351.01 668.288 343.934 668.865 333.212C669.393 323.386 664.54 310.676 653.036 310.407C645.351 317.238 642.798 323.025 642.07 333.25C641.307 343.959 644.122 359.592 658.074 358.509ZM569.368 354.992C581.197 342.205 585.985 309.945 562.133 309.048C554.819 317.7 552.747 328.127 553.431 339.323C554.021 348.988 558.689 356.276 569.368 354.992Z" fill="#363636"/>
<path d="M209.742 186.101C204.786 180.19 202.525 172.315 201.303 164.228C196.671 133.585 198.001 95.3824 214.857 68.5585C216.076 66.7269 219.009 63.825 221.426 63.8184C233.072 63.7869 235.013 84.2166 235.007 91.709C235.086 110.519 232.61 170.489 218.01 182.482C215.252 183.877 212.591 184.934 209.742 186.101Z" fill="#e0e0e0"/>
<path d="M218.01 182.482C218.289 170.314 223.771 154.258 226.243 141.87C228.234 131.893 228.875 97.2977 235.007 91.709C235.086 110.519 232.61 170.489 218.01 182.482Z" fill="#363636"/>
<path d="M946.543 350.65C948.364 350.728 948.336 350.915 950.056 351.638C957.359 359.525 940.864 401.464 904.131 381.233C898.797 376.979 889.341 365.085 891.209 357.843C891.67 357.297 892.13 356.752 892.59 356.207C895.683 355.623 902.127 356.244 905.146 356.391C920.301 357.126 932.166 354.247 946.543 350.65Z" fill="#363636"/>
<path d="M940.607 360.126L942.861 360.121L943.673 361.005C944.147 366.238 934.231 376.037 929.357 377.92C921.073 381.121 915.394 378.933 907.833 375.77C903.806 372.411 901.687 368.576 899 364.15C916.944 364.576 923.435 364.297 940.607 360.126Z" fill="#686868"/>
<path d="M898.641 285.074C916.666 293.775 894.479 315.961 894.485 329.147C894.485 334.055 907.468 333.638 911.705 337.478C912.632 340.064 912.531 338.968 911.59 341.9C899.494 344.134 885.165 343.719 886.674 327.311C887.588 317.285 893.084 309.398 896.015 299.964C897.518 295.142 898.046 290.08 898.641 285.074Z" fill="#363636"/>
<path d="M946.982 275.742C949.954 276.423 952.681 277.921 954.854 280.066C963.173 288.339 956.749 300.677 949.852 307.493C934.108 302.535 937.31 285.51 946.982 275.742Z" fill="#363636"/>
<path d="M874.904 276.6C892.983 279.262 889.369 295.461 881.233 306.383C862.795 308.292 868.42 286.239 874.904 276.6Z" fill="#363636"/>
<path d="M940.87 243.079C951.037 242.254 968.114 244.037 972.046 255.36C971.769 257.698 972.297 256.801 970.523 258.199C968.215 258.428 966.841 257.305 964.73 256.136C952.079 250.206 945.507 255.938 933.547 252.314C932.071 251.866 932.03 251.005 931.746 249.998C933.438 246.61 937.56 244.684 940.87 243.079Z" fill="#363636"/>
<path d="M873.766 243.032C879.14 242.738 888.955 246.041 890.39 251.667L889.192 252.926C883.621 254.768 879.154 253.166 873.421 251.947C872.338 252.4 871.248 252.846 870.158 253.285C866.91 254.627 861.657 257.06 859.092 253.546C860.073 247.908 868.845 244.443 873.766 243.032Z" fill="#363636"/>
<path d="M1034.13 833.839C1030.21 830.158 1025.96 828.574 1022.43 825.299C1023.18 824.121 1023.29 824.108 1024.63 823.85C1031.73 822.483 1126.99 838.049 1140.98 841.649C1108.32 855.868 1073.87 868.997 1040.78 882.309L904.043 938.013L845.86 961.692C836.478 965.516 822.799 970.612 814.047 974.91C761.834 965.036 709.526 955.737 657.113 947.007C621.866 940.869 580.368 932.734 545.145 928.01C571.518 913.365 596.993 897.245 624.075 883.791C625.782 882.945 628.184 881.212 629.241 879.669C629.314 878.438 629.634 877.253 628.612 876.441C621.594 870.838 603.429 869.484 595.251 867.833C580.428 864.821 565.892 860.537 551.8 855.042L554.168 853.709C564.6 854.663 572.927 856.389 583.062 857.668C620.133 861.992 656.967 868.158 693.424 876.144C702.907 890.173 709.513 887.046 725.209 891.587C730.144 890.037 734.022 888.758 738.801 886.823C776.035 895.309 813.093 904.581 849.941 914.617C862.774 918.028 875.797 922.671 888.597 925.669C907.048 915.01 924.524 902.733 942.773 891.729C953.034 885.537 963.579 879.581 973.78 873.267C990.051 861.607 1022.35 849.229 1034.13 833.839ZM636.544 919.517C658.417 923.503 680.266 927.611 702.094 931.841C715.929 934.467 730.022 937.701 744.073 938.825C756.237 932.443 768.17 925.763 780.164 919.064C761.557 914.874 742.422 912.276 723.659 908.716C711.936 906.496 684.266 899.85 674.527 900.033C661.93 906.395 648.648 912.282 636.544 919.517Z" fill="#e0e0e0"/>
<path d="M674.002 894.627C674.357 894.586 674.711 894.532 675.068 894.498C686.682 893.389 747.457 907.77 764.331 911.153C772.298 912.751 781.523 913.475 789.192 915.897C790.018 916.161 790.539 916.662 791.182 917.204L791.06 918.388C784.718 925.474 753.515 940.971 743.822 943.881C727.51 941.973 711.143 938.799 694.967 935.95C672.197 931.937 646.98 928.661 625.545 920.012C635.695 910.497 660.999 900.488 674.002 894.627ZM636.543 919.518C658.416 923.504 680.265 927.612 702.094 931.842C715.929 934.468 730.021 937.703 744.073 938.826C756.236 932.444 768.169 925.765 780.163 919.065C761.556 914.876 742.421 912.277 723.659 908.717C711.935 906.497 684.265 899.852 674.527 900.034C661.93 906.396 648.648 912.284 636.543 919.518Z" fill="#363636"/>
<path d="M269.728 313.924C276.665 316.283 283.756 321.874 290.556 325.116C295.007 327.238 307.988 330.468 308.818 335.152C306.397 338.292 300.441 337.459 296.763 337.396C297.662 346.456 299.539 348.924 296.273 357.897C284.631 376.601 266.344 356.765 284.487 332.439C276.369 327.479 268.785 324.786 269.728 313.924Z" fill="#363636"/>
<path d="M337.327 360.955C346.718 362.485 349.951 372.656 352.595 380.52C349.039 391.299 348.296 393.146 337.024 396.125C333.968 395.827 329.85 395.132 329.563 391.612C331.633 389.327 337.962 386.576 341.041 384.707C347.963 380.504 337.428 372.143 336.712 366.321C336.574 365.199 337.09 362.287 337.327 360.955Z" fill="#363636"/>
<path d="M379.707 323.384C381.515 323.277 383.764 323.822 385.039 325.168C385.162 332.772 362.06 340.796 356.201 342.413C353.255 342.212 352.616 342.362 351.898 339.42C354.67 333.804 372.123 327.786 378.875 323.872L379.707 323.384Z" fill="#363636"/>
<path d="M362.4 351.284C368.346 351.111 374.315 351.678 378.118 356.791C378.425 361.857 372.788 361.224 369.058 361.359C364.356 361.634 354.104 362.703 352.219 357.39C353.897 353.705 358.438 352.779 362.4 351.284Z" fill="#363636"/>
<path d="M1080.7 912.256C1081.46 912.188 1082.1 912.357 1082.85 912.492C1085.62 921.013 1083.54 974.348 1083.53 987.085L1083.56 1170.76L1081.64 1171.4C1065.04 1176.79 1038.42 1179.66 1022.51 1171.05C1018.37 1168.81 1015.85 1166.34 1014.45 1161.84C1008.35 1110.95 1005.38 1059.5 1000.7 1008.45C998.85 988.337 997.239 968.149 994.288 948.164C1023.52 937.296 1051.4 922.948 1080.7 912.256Z" fill="#e0e0e0"/>
<path d="M433.092 877.729C443.044 878.162 527.035 902.423 531.542 908.25C532.192 909.09 531.666 909.963 531.467 910.91C525.403 911.289 519.809 909.739 514.045 908.027C501.88 904.42 490.024 899.716 477.892 895.94C464.223 891.683 449.002 888.279 435.94 882.581C434.276 881.85 433.23 881.376 432.351 879.759L433.092 877.729Z" fill="#e0e0e0"/>
<path d="M416.523 887.379C433.806 889.558 450.109 896.251 466.684 901.462C480.554 905.827 495.44 909.59 508.843 915.214C512.104 916.581 512.577 917.968 513.856 921.095C498.902 921.129 442.897 901.083 425.986 894.363C421.717 892.671 418.416 891.812 416.523 887.379Z" fill="#e0e0e0"/>
<path d="M454.637 869.039C468.372 868.031 510.254 884.34 525.396 889.01C533.113 891.385 541.705 892.813 549.169 895.737C551.698 896.725 552.426 898.62 553.533 900.962C537.195 900.968 479.507 882.019 462.736 875.204C459.262 873.797 456.177 872.714 454.637 869.039Z" fill="#e0e0e0"/>
<path d="M472.926 861.038C476.973 860.727 480.784 861.032 484.758 861.81C496.984 864.206 508.634 868.591 520.528 872.178C535.641 876.739 551.339 880.624 565.983 886.552C568.702 887.655 569.563 888.332 570.667 890.978C565.854 890.897 561.194 890.207 556.496 889.178C537.344 884.989 518.562 878.14 499.914 872.137C492.413 869.721 483.832 867.874 476.7 864.564C474.946 863.745 473.953 862.642 472.926 861.038Z" fill="#e0e0e0"/>
<path d="M398.275 896.805C410.072 898.733 489.855 927.008 496.55 933.086L496.625 934.92C496.129 934.94 495.632 934.954 495.135 934.954C488.615 934.899 422.938 910.962 413.628 907.179C409.272 905.406 401.842 903.085 398.749 899.633C397.877 898.659 398.231 898.05 398.275 896.805Z" fill="#e0e0e0"/>
<path d="M828.457 813.591C841.054 811.29 921.519 831.315 932.741 838.821C933.296 840.898 932.789 841.095 932.065 843.558C925.885 842.292 916.091 838.401 909.214 836.655C892.089 832.155 875.052 827.356 857.881 823.039C851.268 821.381 831.869 820.569 828.099 815.283L828.457 813.591Z" fill="#e0e0e0"/>
<path d="M842.028 802.871C867.052 803.155 913.004 815.432 937.98 822.781C943.537 824.412 948.6 826.727 951.219 832.087C945.818 831.708 941.567 830.889 936.484 828.967C916.537 821.448 895.852 817.929 875.215 813.253C868.582 811.75 848.54 808.888 843.436 806.891C841.791 804.773 842.245 805.734 842.028 802.871Z" fill="#e0e0e0"/>
<path d="M809.322 825.192C828.498 823.825 896.57 838.301 912.591 847.843C915.041 849.305 916.51 850.618 917.234 853.352C916.131 853.805 914.635 854.198 913.464 853.812C880.643 843.058 846.854 835.073 813.004 828.305C811.272 827.96 810.283 826.532 809.322 825.192Z" fill="#e0e0e0"/>
<path d="M795.155 835.113C825.323 837.421 855.031 843.857 883.445 854.252C888.021 855.924 896.495 858.57 898.681 863.246L897.977 864.004C880.853 862.339 853.501 851.396 835.293 846.984C827.97 845.211 799.893 840.933 795.805 839.045C794.479 838.436 794.377 838.165 793.896 836.88L795.155 835.113Z" fill="#e0e0e0"/>
<path d="M774.701 847.24C791.257 846.509 870.802 860.822 881.226 871.156C882.593 872.51 882.572 873.187 882.484 875.048C868.974 874.378 852.763 867.272 839.531 863.421C828.911 860.328 818.196 858.007 807.353 855.841C802.764 854.921 777.801 851.469 775.859 850.319C775.046 849.839 774.925 848.133 774.701 847.24Z" fill="#e0e0e0"/>
<path d="M855.322 795.434C881.361 791.692 931.943 805.213 957.149 814.356C961.278 815.859 964.513 817.307 966.206 821.388C965.292 821.374 964.385 821.327 963.471 821.239C956.594 820.664 942.82 816.19 935.612 814.018C919.949 809.247 904.165 804.733 888.069 801.613C878.234 799.711 867.675 799.718 857.908 797.62C856.987 797.424 855.904 796.118 855.322 795.434Z" fill="#e0e0e0"/>
<path d="M156.74 832.913C171.681 838.983 190.651 842.347 206.52 846.292C239.384 854.461 272.496 863.069 305.763 869.37C310.247 870.216 313.996 870.669 318.515 869.701C333.065 866.595 444.28 829.123 451.606 823.743C453.168 822.599 454.575 820.867 454.828 818.897C455.364 814.722 449.225 811.358 446.986 808.225C442.98 802.628 446.997 800.956 449.095 796.273C449.785 794.73 449.762 792.003 450.07 790.277C451.156 788.998 450.797 788.768 452.885 789.127C461.017 790.5 469.482 792.213 477.581 793.722C496.696 797.43 515.885 800.76 535.133 803.711C539.135 804.286 554.381 806.553 557.673 805.829C586.85 799.393 618.405 785.607 647.232 778.65C619.396 797.079 587.688 811.229 560.106 830.043C558.446 831.174 556.762 834.611 555.828 836.445C551.459 839.166 543.593 841.859 543.288 847.517C544.106 850.048 544.827 850.285 547.056 852.018L545.999 852.985C527.525 845.331 509.323 837.034 491.424 828.115C486.872 830.429 477.87 835.688 473.382 836.906C450.568 843.105 428.171 850.326 405.765 857.858C398.839 860.186 385.921 863.435 380.238 867.387C378.407 872.963 391.07 875.941 394.933 877.152C382.577 882.275 367.042 890.336 354.749 896.332C344.392 895.425 332.926 892.975 322.581 891.04C307.613 888.197 292.629 885.45 277.63 882.776L139.253 858.467C111.619 853.561 84.2072 847.774 56.4092 844.106C89.5504 837.623 124.039 824.927 157.827 818.775C157.781 824.487 157.584 827.269 156.74 832.913Z" fill="#e0e0e0"/>
<path d="M650.238 799.285C657.187 800.821 665.007 801.011 672.114 802.046C685.362 803.982 741.535 812.82 748.73 821.253C750.003 822.748 749.962 823.479 749.779 825.367C729.04 819.52 708.112 814.37 687.021 809.937C676.861 807.873 659.948 806.581 651.122 803.061C649.76 801.342 650.158 802.026 650.238 799.285Z" fill="#e0e0e0"/>
<path d="M670.021 788.423C671.228 788.301 672.359 788.342 673.547 788.491C692.598 790.846 757.685 799.082 769.219 812.929C755.871 813.281 737.061 805.965 723.883 802.703C706.704 798.453 689.485 796.145 672.38 792.024C670.887 791.665 670.376 789.581 670.021 788.423Z" fill="#e0e0e0"/>
<path d="M632.67 812.191C638.774 812.963 647.354 813.315 653.064 813.931C665.662 815.298 726.083 824.048 731.437 835.512L729.751 836.284C705.032 832.338 679.46 821.28 653.982 818.627C648.698 818.072 634.032 816.841 630.3 814.445L630.113 813.193L632.67 812.191Z" fill="#e0e0e0"/>
<path d="M689.728 776.939C705.269 776.648 769.787 788.911 785.423 798.778C787.02 799.793 786.912 801.363 786.939 802.872L693.207 781.398C690.534 780.762 690.337 780.837 689.193 778.976L689.728 776.939Z" fill="#e0e0e0"/>
<path d="M966.422 959.622C967.762 959.386 967.586 959.474 968.703 960.001C969.732 962.478 969.84 965.409 969.955 968.068C970.517 980.94 969.962 994.097 969.976 1007.02C970.213 1030.36 970.301 1053.71 970.226 1077.05C970.226 1101.89 972.345 1127.95 969.414 1152.6C966.497 1155.33 963.573 1157.19 959.816 1158.52C941.074 1165.17 917.891 1160.41 900.482 1152.08C898.229 1150.26 897.789 1144.88 897.45 1142.14C895.887 1129.58 896.056 1116.77 895.325 1104.14C893.897 1080.36 892.34 1056.57 890.661 1032.8C889.714 1019.28 889.226 1005.53 887.527 992.087C913.993 981.678 940.295 970.85 966.422 959.622Z" fill="#e0e0e0"/>
<path d="M952.553 137.019C984.609 136.793 1010.84 144.259 1025.18 174.887C1034.89 179.779 1041.64 182.241 1048.2 191.7C1064.28 214.882 1056.06 245.87 1049.8 270.655C1032.15 267.933 1027.9 271.106 1015.58 282.825C1014.32 277.213 1012.56 270.717 1010.22 265.524C1004.25 252.337 996.57 242.776 996.211 227.76C995.988 218.431 997.253 210.527 998.485 201.263C993.531 175.784 951.504 191.741 935.144 193.57C918.934 196.236 906.54 195.639 891.277 189.726C879.906 185.322 878.044 180.655 869.096 174.833L868.372 175.171L867.824 176.805C869.015 182.699 876.582 188.387 881.077 191.857C866.457 188.207 837.155 179.295 851.363 151.52C853.204 147.916 868.406 150.403 873.3 150.302C901.031 149.725 924.355 138.463 952.553 137.019Z" fill="#686868"/>
<path d="M323.372 204.652C377.331 197.824 427.731 252.067 404.412 305.997C404.226 303.257 403.961 300.522 403.617 297.797C400.312 272.946 392.363 258.39 376.343 239.913C373.763 236.936 375.6 233.094 371.379 229.856C367.385 230.901 357.193 250.574 352.729 256.187C348.04 261.965 342.663 267.15 336.717 271.625C329.497 276.972 320.818 279.874 312.418 282.814C321.521 269.468 323.026 264.233 326.902 248.78C323.089 252.59 319.616 255.99 316.143 260.139C298.041 280.219 267.461 290.461 241.019 293.489C236.451 294.013 223.348 294.641 220.519 297.115C219.569 301.981 226.559 302.089 230.234 302.716C222.303 320.175 213.589 330.887 195.618 338.252C210.466 278.139 257.636 211.828 323.372 204.652Z" fill="#686868"/>
<path d="M1148.77 846.678L1149.84 847.679C1151.58 855.455 1150.51 864.497 1150.19 872.422C1116.21 888.718 1080.85 902.07 1046.02 916.391L896.901 978.368L847.937 998.671C838.597 1002.54 829.032 1006.14 819.949 1010.56C819.712 1010.36 819.441 1010.2 819.238 1009.96C816.808 1007.13 818.006 986.063 818.182 981.204C846.394 968.717 875.282 957.456 903.805 945.694C985.252 912.174 1066.91 879.169 1148.77 846.678Z" fill="#e0e0e0"/>
<path d="M482.446 674.844C498.094 674.781 558.918 689.717 575.86 694.427C570.663 697.304 565.894 699.625 560.274 701.554C550.293 703.983 526.666 696.952 515.915 694.712C499.591 691.301 481.932 688.018 466.067 683.125C471.623 678.828 475.707 676.578 482.446 674.844Z" fill="#e0e0e0"/>
<path d="M790.648 1017.78C799.46 1019.47 808.476 1020.33 817.397 1021.2C816.578 1032.29 817.005 1043.62 817.005 1054.74L817.018 1110.22L817.005 1286.52L816.903 1336.59C816.903 1346.43 817.492 1356.74 816.47 1366.52C816.213 1368.98 815.549 1370.68 814.148 1372.71C811.305 1374.41 809.133 1375.12 805.816 1375.27C801.931 1375.44 796.076 1375.52 793.172 1372.57C790.58 1369.93 790.363 1330.25 790.269 1323.43C790.133 1314.26 790.627 1305.1 790.607 1295.93C790.418 1259.7 790.411 1223.47 790.58 1187.24L790.648 1017.78Z" fill="#e0e0e0"/>
<path d="M795.921 1029.87C798.716 1030.63 800.842 1030.39 803.651 1030.51L803.786 1031.99C803.393 1032.35 803.021 1032.72 802.602 1033.04C801.119 1034.2 799.908 1034.26 798.1 1034.05C796.469 1032.52 796.462 1031.97 795.921 1029.87Z" fill="#e0e0e0"/>
<path d="M84.6547 893.658C92.8996 894.917 101.132 896.71 109.335 898.247L109.226 1161.04C109.227 1175.2 110.832 1252.47 107.981 1261.43C104.333 1263.57 101.054 1264.47 96.8687 1264.77C93.7538 1265 89.9823 1264.92 87.574 1262.64C84.9417 1260.15 84.8199 1251.17 84.6683 1247.57C84.1302 1234.8 84.6737 1221.81 84.6778 1209.02L84.6886 1131.44L84.6547 893.658Z" fill="#e0e0e0"/>
<path d="M100.243 899.641L101.635 900.331L102.034 901.617C101.147 903.045 100.211 904.425 99.2414 905.799L98.0893 905.515L97.7441 904.101C98.1739 901.921 98.601 901.129 100.243 899.641Z" fill="#e0e0e0"/>
<path d="M90.1146 898.424C91.9638 898.769 93.6898 898.945 94.8634 900.454L94.0803 901.625C92.4525 901.598 90.9085 901.496 89.2915 901.3L88.8516 900.231L90.1146 898.424Z" fill="#e0e0e0"/>
<path d="M535.745 934.555C572.272 939.096 608.694 946.79 644.985 953.01C700.883 962.579 756.791 971.424 812.45 982.361L812.443 1011.99C804.124 1010.43 795.718 1009.21 787.358 1007.87C777.72 1006.64 767.98 1004.43 758.402 1002.7L697.945 991.781L506.186 957.869C516.271 950.438 526.033 942.459 535.745 934.555Z" fill="#e0e0e0"/>
<path d="M1115.94 896.629C1117.31 899.072 1116.2 967.431 1116.2 977.251L1116.22 1170.91L1116.25 1222.03C1116.25 1230.24 1117.21 1239.67 1115.66 1247.7C1115.2 1250.07 1114.49 1251.64 1112.33 1252.91C1107.33 1255.86 1100.66 1254.07 1095.43 1252.75C1092.94 1249.94 1092.93 1245.48 1092.74 1241.89C1092.06 1229.51 1092.64 1217.01 1092.68 1204.6L1092.7 1136.23L1092.43 906.557C1100.35 903.444 1108.18 900.128 1115.94 896.629Z" fill="#e0e0e0"/>
<path d="M1105.7 906.043L1111.49 908.371L1111.82 909.691C1109.8 909.84 1107.96 910.029 1105.97 909.609C1105.02 907.985 1105.27 907.904 1105.7 906.043Z" fill="#e0e0e0"/>
<path d="M48.873 850.049C83.7258 855.747 118.281 862.873 153.065 868.984L344.238 902.545C337.421 907.127 330.486 911.519 324.628 917.332C330.747 920.926 337.228 923.903 343.605 927.003C348.255 929.25 353.217 931.07 357.988 933.067L181.588 901.618C137.447 893.781 93.2424 886.58 49.3383 877.464C48.8885 868.335 48.9204 859.192 48.873 850.049Z" fill="#e0e0e0"/>
<path d="M72.7751 480.043C84.9383 477.926 101.89 482.143 98.4214 498.006C95.7511 510.91 88.9128 522.53 85.6503 535.3C78.4127 563.624 72.9369 594.049 70.1584 623.161C65.9383 621.982 61.2922 620.962 57.004 619.931C47.014 617.217 36.8614 614.161 26.8975 611.283C30.6199 589.433 41.2321 503.669 52.0315 489.297C56.9394 482.766 65.1666 481.071 72.7751 480.043Z" fill="#e0e0e0"/>
<path d="M673.272 684.926C675.347 685.711 676.194 687.545 676.347 689.582C669.424 697.662 598.181 718.046 581.966 733.909C600.602 727.737 619.078 718.493 637.516 711.61C648.096 707.665 662.675 699.456 674.156 701.757L674.675 704.349C667.142 711.38 605.986 732.664 592.132 738.484C580.719 743.269 569.003 747.837 556.273 754.456C573.143 751.295 584.088 746.605 600.074 740.765L640.783 725.836C647.888 723.163 665.703 714.02 672.337 717.816L672.305 719.068C665.86 725.7 580.113 755.708 565.755 762.063C553.481 758.652 544.447 756.703 531.851 754.672C504.531 748.507 475.32 744.799 447.769 739.134C436.336 736.786 425.573 736.556 414.329 732.57L414.051 731.412C414.74 730.384 415.48 729.368 415.937 728.218C416.105 727.792 416.41 726.837 416.594 726.54C419.715 721.43 522.661 745.787 536.778 744.474C538.75 744.284 539.445 744.115 540.742 742.619L540.437 741.394C537.414 738.951 531.578 738.275 527.724 737.821C490.475 733.429 452.315 722.357 415.1 718.94C419.363 716.063 421.38 714.859 424.819 711.13C447.293 716.673 473.008 720.848 495.803 724.8L558.94 736.109C565.755 732.468 571.917 728.482 578.998 725.071C609.781 710.243 641.763 697.953 673.272 684.926Z" fill="#e0e0e0"/>
<path d="M947.971 494.803C951.572 494.965 953.982 494.705 956.662 496.93C962.26 509.784 965.61 606.95 965.021 628.377C964.845 634.653 958.551 661.959 956.642 669.328C951.132 669.293 948.208 669.457 942.739 670.13C939.037 670.845 934.441 672.557 930.779 673.8C930.116 665.442 928.681 642.567 928.748 635.224C928.945 612.684 937.859 506.727 947.971 494.803Z" fill="#686868"/>
<path d="M314.238 828.114C323.873 823.844 337.713 819.493 347.977 815.892C378.158 805.308 407.732 796.273 437.642 784.633L441.792 793.126C434.044 797.234 419.22 801.931 410.646 804.563C396.023 808.955 381.434 813.463 366.879 818.071C358.515 820.718 348.323 823.661 340.44 827.147C340.188 829.109 340.101 828.135 340.982 830.124C359.433 827.492 426.764 802.005 435.211 803.088C436.712 804.685 436.226 803.758 436.594 806.025C435.162 809.186 432.106 810.729 428.874 811.866C400.449 821.909 371.488 830.849 342.749 839.965C335.016 841.853 324.65 847.957 316.884 848.58C305.478 849.5 288.623 843.964 277.678 841.162C264.614 837.84 251.516 834.652 238.387 831.593L192.38 820.9C186.555 819.574 165.583 816.386 163.499 810.817C170.856 805.105 282.538 837.819 307.171 836.723C293.275 831.397 278.924 827.81 264.513 824.149C241.797 818.491 219.03 813.023 196.219 807.758C184.722 805.064 171.11 802.222 159.896 798.96C162.027 797.275 164.142 795.569 166.243 793.843C187.44 797.099 217.797 805.998 239.623 810.715C262.521 815.676 292.548 821.421 314.238 828.114Z" fill="#e0e0e0"/>
<path d="M340.983 830.124C337.821 830.53 333.312 831.437 330.388 830.578L330.593 829.813C333.62 828.243 337.045 827.816 340.44 827.146C340.188 829.109 340.101 828.135 340.983 830.124Z" fill="#686868"/>
<path d="M194.975 1180.81C201.358 1183.46 223.259 1205.89 227.488 1212.02C230.603 1216.53 233.722 1222.41 232.473 1228.04C231.691 1231.56 229.194 1234.22 226.126 1235.98C209.37 1245.63 177.588 1238.32 159.567 1233.36C145.596 1228.83 130.919 1222.88 120.437 1212.33C120.319 1202.19 120.961 1192.47 122.188 1182.41C126.484 1184.71 130.972 1186.76 135.613 1188.26C155.864 1194.77 176.499 1190.22 194.975 1180.81Z" fill="#686868"/>
<path d="M15.9236 668.297C35.2054 675.921 43.1582 677.522 63.7955 678.855C62.8526 699.753 53.7449 738.924 65.0237 757.894C68.8587 760.33 74.3027 762.902 78.659 765.521C78.7382 770.65 78.7233 773.107 77.9733 778.142C32.8074 775.259 8.15321 755.938 11.0027 709.302C11.8545 695.354 13.1285 682.07 15.9236 668.297Z" fill="#e0e0e0"/>
<path d="M896.482 1161.97C904.462 1162 911.054 1166.02 918.507 1168.25C933.939 1172.88 951.571 1169.22 967.092 1166.48C968.858 1175.98 969.339 1184.82 966.835 1194.23C966.665 1194.34 966.496 1194.46 966.32 1194.57C966.029 1194.74 965.731 1194.91 965.433 1195.09C953.541 1202.29 932.112 1206.08 918.412 1209.66C898.661 1213.33 877.191 1216.2 857.264 1212.18C853.779 1211.49 849.575 1210.14 847.626 1206.93C846.448 1204.99 846.36 1202.79 846.942 1200.64C850.766 1186.4 883.872 1168.83 896.482 1161.97Z" fill="#686868"/>
<path d="M1017.5 1179.61C1039.52 1187.01 1061.04 1185.79 1083.38 1180.93C1083.41 1191.2 1083.74 1201.75 1082.87 1211.97C1071.86 1220.47 1061.49 1228.66 1048.57 1234.13C1042.05 1236.94 1034.83 1238.59 1027.83 1239.63C1017.36 1241.19 997.504 1242.98 988.549 1235.94C986.105 1234.01 984.758 1231.34 984.549 1228.25C983.581 1213.79 1007.9 1189.94 1017.5 1179.61Z" fill="#686868"/>
<path d="M402.213 951.84C409.269 954.324 416.471 956.489 423.591 958.79C423.707 981.665 425.535 1139.8 422.171 1147.4C421.954 1147.89 421.481 1148.22 421.135 1148.63C417.764 1149.47 414.366 1150.24 410.867 1150.14C408.469 1150.07 405.614 1149.68 403.922 1147.79C398.066 1141.24 401.648 973.699 402.213 951.84Z" fill="#e0e0e0"/>
<path d="M307.933 1157.79C308.859 1157.72 309.73 1157.66 310.654 1157.78C322.174 1159.27 348.153 1177.51 355.025 1187.12C356.872 1189.69 358.103 1192.86 357.481 1196.07C356.993 1198.59 355.174 1200.47 353.058 1201.79C337.045 1211.76 299.959 1206.22 281.732 1202.49C274.849 1201.46 267.982 1200.33 261.132 1199.11C254.607 1197.92 240.085 1195.6 236.351 1189.41C232.029 1182.25 235.301 1170.32 236.751 1162.68C240.842 1164.91 245.167 1166.68 249.648 1167.96C269.956 1173.72 290.056 1167.93 307.933 1157.79Z" fill="#686868"/>
<path d="M118.399 900.047C154.636 906.429 197.439 913.034 232.993 920.607C232.486 925.493 230.197 953.152 228.254 955.318C204.283 951.46 180.549 946.242 157.167 939.705C144.536 936.193 132.551 931.469 119.731 928.721C118.543 927.178 118.487 903.911 118.399 900.047Z" fill="#e0e0e0"/>
<path d="M889.572 904.757C894.587 904.208 908.483 895.356 913.6 892.311C933.899 880.089 954.131 867.731 974.281 855.259C982.39 850.278 1008.46 832.255 1017.05 833.988L1017.58 835.051C1013.38 843.395 924.058 890.227 911.13 901.149C908.185 903.64 890.6 913.798 886.323 915.882C878.857 913.182 868.183 910.313 860.392 907.924C829.297 898.442 797.857 890.132 766.133 883.033C755.905 880.65 745.414 878.844 735.342 876.414C732.405 878.715 728.587 880.813 725.325 882.742C718.583 881.463 713.987 880.644 707.435 878.485C705.79 875.818 702.724 871.826 700.809 869.179C677.443 861.918 637.963 855.949 613.826 852.612C595.102 849.878 576.352 847.327 557.578 844.958C560.256 843.266 563.268 841.554 566.012 839.923C602.491 840.079 665.65 849.262 700.03 862.256C706.027 864.523 712.505 870.465 717.019 874.972C726.969 874.059 741.136 872.509 751.14 873.125C790.567 875.548 833.27 889.692 870.173 903.247C875.358 905.149 877.95 906.855 882.674 904.655C884.996 905.677 887.27 906.218 889.572 904.757Z" fill="#686868"/>
<path d="M242.437 921.947L299.976 932.18C309.493 933.892 322.372 936.585 331.818 937.614C331.454 944.443 330.143 965.693 328.631 971.784C320.78 965.057 308.497 968.853 298.479 967.743C278.559 965.524 258.488 962.411 238.938 957.944C239.71 947.224 241.083 932.613 242.437 921.947Z" fill="#e0e0e0"/>
<path d="M142.834 467.215L146.208 467.524C160.694 468.752 175.871 479.175 183.858 491.016C199.593 514.348 201.551 549.995 196.648 577.139C193.606 579.459 180.478 587.948 177.295 586.545C179.437 550.566 180.406 494.721 137.677 480.38C135.22 479.555 126.255 482.139 121.737 480.634L121.539 479.653C127.021 473.568 135.385 470.249 142.834 467.215Z" fill="#e0e0e0"/>
<path d="M668.553 728.902C671.302 730.384 672.064 733.152 670.689 735.785C669.913 737.267 667.265 738.242 665.792 738.79C649.484 744.86 632.974 750.396 616.698 756.568C600.203 762.598 584.164 770.036 567.408 774.956C566.403 775.281 564.5 775.978 563.419 775.653C551.379 772.025 539.406 769.487 527.04 767.207C489.893 760.696 452.683 754.551 415.416 748.772L414.934 748.149C414.582 745.672 417.644 741.686 419.188 739.25C433.554 741.233 450.52 744.908 465.207 747.236C499.759 752.711 532.929 758.869 566.767 767.931L668.553 728.902Z" fill="#e0e0e0"/>
<path d="M669.938 675.382C672.055 675.073 672.279 675.332 673.375 676.74C672.27 679.904 667.373 682.097 664.331 683.382C644.188 691.91 624.376 697.994 604.907 708.246C590.097 716.05 574.134 720.983 560.522 731.486C549.809 728.624 533.823 726.147 522.644 724.15C499.739 720.117 476.865 715.907 454.025 711.529C446.668 710.047 426.88 706.216 420.704 702.859C420.011 698.034 420.124 697.188 416.501 693.811L417.322 693.29C426.742 693.696 459.4 700.829 470.207 703.326C499.051 709.999 529.828 715.765 558.372 722.81C597.324 702.86 629.593 691.206 669.938 675.382Z" fill="#e0e0e0"/>
<path d="M21.0521 619.764C30.5501 621.395 40.0045 624.703 49.3868 627.059C56.2629 628.786 62.7882 629.84 69.7735 630.981C67.791 641.361 67.2885 662.213 63.1545 671.6C25.9268 667.539 0.0357913 663.229 21.0521 619.764Z" fill="#e0e0e0"/>
<path d="M435.973 816.238C438.339 816.062 440.006 815.839 441.538 817.856C438.664 822.146 328.269 858.042 314.185 863.199C267.904 851.396 221.503 841.157 175.147 829.672C171.058 829.097 167.222 828.928 166.075 824.373L167.343 823.432C170.155 822.918 175.362 822.952 178.129 823.669C222.314 835.052 269.217 842.057 312.73 855.301C330.058 850.956 347.975 844.378 365.08 838.788L435.973 816.238Z" fill="#e0e0e0"/>
<path d="M438.869 774.211C439.58 774.434 439.625 774.678 440.254 775.307C440.212 778.116 438.759 780.105 437.384 782.65C396.38 797.011 358.587 805.342 316.667 822.383C267.459 811.04 217.669 800.97 168.583 788.558C166.861 788.051 167.189 788.051 165.73 786.805C165.039 784.674 165.008 785.716 165.941 783.584C170.276 781.127 175.261 783.875 179.957 785.032L203.607 790.588L280.961 807.771C285.755 808.861 311.489 815.351 315.099 814.376C328.371 810.803 343.942 804.827 357.351 800.388C384.467 791.489 411.641 782.765 438.869 774.211Z" fill="#e0e0e0"/>
<path d="M783.765 296.205C797.823 297.923 798.764 318.19 798.818 329.095C798.906 346.123 795.657 362.299 783.318 374.741C761.923 362.257 765.598 324.339 775.947 305.917C778.201 301.901 780.523 299.415 783.765 296.205Z" fill="#e0e0e0"/>
<path d="M401.871 78.5195C406.82 82.3493 409.516 86.085 410.05 92.6117C411.771 113.685 390.567 153.021 379.885 170.029C377.755 169.713 367.74 162.051 365.344 160.317C370.957 141.582 376.553 124.631 385.682 107.216C390.695 97.6549 397.176 88.051 401.871 78.5195Z" fill="#e0e0e0"/>
<path d="M1004.91 748.189C1006.99 749.197 1009.08 750.185 1011.19 751.16C1026.3 758.09 1032.5 756.811 1048.55 753.068C1071.93 747.607 1094.14 740.244 1116.64 731.967C1117.14 737.185 1117.44 741.678 1117.63 746.916C1104.6 747.722 1088.78 754.719 1076.15 758.293C1063.65 761.832 1050.62 764.106 1037.82 766.069C1022.97 768.343 1010.18 762.272 995.392 762.421C985.083 762.516 978.308 768.728 968.818 763.984C977.34 760.343 979.316 758.536 985.049 751.254C992.833 751.288 997.511 750.456 1004.91 748.189Z" fill="#e0e0e0"/>
<path d="M769.023 284.318C773.673 284.849 779.06 286.526 783.44 288.116C757.509 302.904 755.905 343.417 765.55 368.841C766.985 372.611 775.013 378.208 776.042 380.763L774.702 382.163C742.415 391.785 742.314 333.815 748.033 315.836C752.609 301.443 755.675 292.249 769.023 284.318Z" fill="#e0e0e0"/>
<path d="M672.27 755.951C673.773 756.107 673.106 756.019 674.589 757.075L674.808 758.408C673.776 761.717 671.298 763.247 668.07 764.16C655.068 767.849 642.206 771.929 629.336 776.051C612.305 781.654 595.194 787.021 578.011 792.137C574.859 793.058 558.962 797.687 556.361 797.673C544.153 797.619 527.329 793.572 515.088 791.745C493.661 788.544 472.008 785.498 450.862 781.424C449.385 781.12 450.089 781.377 448.875 780.287C448.818 777.641 451.013 773.953 453.791 774.257C464.812 775.489 475.881 777.925 486.806 779.942C507.093 783.617 527.419 787.069 547.781 790.303C552.886 791.068 560.733 791.961 565.672 790.391C600.763 779.265 637.572 767.964 672.27 755.951Z" fill="#e0e0e0"/>
<path d="M102.358 715.908C103.575 716.023 112.003 719.657 113.642 720.327C119.298 722.628 123.362 723.535 129.404 724.699C115.626 737.828 109.126 742.884 91.6348 750.152C71.4624 756.703 69.316 753.637 66.998 733.761C81.0616 729.464 90.5424 724.266 102.358 715.908Z" fill="#e0e0e0"/>
<path d="M221.157 431.508C225.51 434.751 229.963 441.949 234.69 445.818C250.639 458.873 266.699 465.256 285.66 471.869C283.464 479.222 281.405 487.739 279.399 495.235L278.668 497.007L277.44 497.342C257.865 478.201 237.242 464.355 217.415 444.518C218.737 440.386 219.957 435.717 221.157 431.508Z" fill="#e0e0e0"/>
<path d="M748.277 475.874C749.231 475.812 750.185 475.775 751.14 475.764C761.929 475.598 768.711 480.672 776.035 487.738C747.234 488.228 733.812 505.471 723.463 530.649C721.175 537.112 719.287 545.904 717.337 552.796C714.332 522.259 715.381 488.604 748.277 475.874Z" fill="#686868"/>
<path d="M710.779 704.531L712.511 704.633C712.877 705.939 712.39 707.482 711.848 708.687C705.093 723.717 700.077 736.799 696.314 752.858C693.072 753.995 689.545 755.464 686.317 756.73C684.131 754.192 681.274 751.376 678.919 748.94C672.644 742.829 676.056 740.697 681.213 735.791C679.183 726.201 676.774 726.695 683.88 718.763C682.323 715.955 680.882 714.195 678.939 711.691C691.15 709.648 698.886 708.632 710.779 704.531Z" fill="#e0e0e0"/>
<path d="M114.753 454.294C127.823 453.54 132.155 454.232 144.616 457.561C124.476 464.108 117.202 470.506 105.963 487.695C103.562 483.797 103.178 482.537 99.8922 479.243C84.4882 471.305 77.7264 471.705 61.0176 475.089C77.9348 463.465 94.5403 457.263 114.753 454.294Z" fill="#e0e0e0"/>
<path d="M404.337 330.752C411.25 341.336 413.533 395.686 414.357 410.729C409.017 410.678 405.479 410.853 400.154 411.338L389.229 411.415C393.65 397.947 396.658 387.475 398.849 373.394C400.989 359.641 401.859 344.174 404.337 330.752Z" fill="#686868"/>
<path d="M697.309 461.289C699.644 462.965 699.137 462.11 699.976 464.534C699.197 467.576 695.827 470.885 693.674 473.151C672.581 495.344 628.775 505.283 605.005 481.963C603.845 478.945 602.515 475.083 602.788 471.871C604.466 471.85 613.6 477.581 616.226 478.752C645.642 491.874 674.387 481.347 697.309 461.289Z" fill="#686868"/>
<path d="M949.42 450.666C960.466 450.37 963.85 457.137 969.414 465.259C966.592 472.305 962.916 482.374 958.774 488.424C953.088 488.529 949.108 488.291 943.463 487.857C941.73 480.216 939.531 472.097 937.602 464.458C941.778 458.333 944.228 455.832 949.42 450.666Z" fill="#686868"/>
<path d="M444.868 758.051C456.778 759.465 476.972 763.905 488.953 765.921C497.536 767.356 547.193 775.24 549.947 777.724C550.922 780.221 550.524 781.528 550.22 784.235C544.359 784.83 472.754 771.43 462.889 769.427C458.805 768.595 452.438 761.272 444.868 758.051Z" fill="#e0e0e0"/>
<path d="M882.674 904.655C898.621 893.597 999.412 823.011 1009.88 821.82L1010.91 822.497C1010.32 827.6 998.58 832.939 994.451 835.978C971.085 853.175 945.696 867.576 921.343 883.304C913.119 888.623 896.651 898.49 889.571 904.757C887.27 906.219 884.995 905.677 882.674 904.655Z" fill="#e0e0e0"/>
<path d="M664.603 745.916C666.776 746.735 667.967 747.994 669.092 749.922C667.59 752.359 568.953 784.16 559.938 786.745C558.063 785.263 556.322 782.163 556.474 779.74C558.641 775.375 564.645 778.17 567.804 779.382C578.764 775.7 590.577 770.949 601.625 766.997C622.469 759.539 643.467 752.508 664.603 745.916Z" fill="#e0e0e0"/>
<path d="M929.053 747.553C940.228 756.547 943.605 759.396 957.379 763.213C957.359 769.439 957.549 778.86 956.878 784.842C947.084 782.649 938.725 779.881 928.437 777.966C928.308 768.404 928.071 757.054 929.053 747.553Z" fill="#686868"/>
<path d="M73.2815 672.639C74.4531 674.492 77.1782 682.246 78.1332 684.845C82.3704 696.383 86.9256 702.393 95.0683 711.157L84.2994 718.405C79.1384 721.139 73.6341 723.095 68.1807 725.193C68.2978 707.557 70.0055 689.968 73.2815 672.639Z" fill="#e0e0e0"/>
<path d="M680.523 461.826L682.073 461.993L681.85 463.077C667.004 476.657 634.6 481.079 616.88 471.136C613.982 468.921 611.462 466.553 608.771 464.098C639.924 466.72 649.758 466.146 680.523 461.826Z" fill="#686868"/>
<path d="M702.047 763.932C707.82 765.001 708.89 764.75 714.616 764.737C733.284 769.075 794.134 775.335 805.871 789.31L805.234 789.933C795.677 790.711 765.949 779.862 754.754 777.392C738.631 773.839 722.163 772.357 706.216 768.479C703.387 767.796 703.489 766.639 702.047 763.932Z" fill="#e0e0e0"/>
<path d="M587.593 609.898C591.093 609.987 594.532 609.387 596.778 612.298C596.299 617.222 585.059 626.331 582.158 632.895C578.984 640.074 581.54 652.203 579.863 654.743C559.356 654.387 570.247 626.985 577.562 617.699C580.834 613.546 582.997 612.258 587.593 609.898Z" fill="#e0e0e0"/>
<path d="M606.337 617.283C627.391 618.642 603.315 642.563 597.647 649.336C597.085 649.443 596.521 649.541 595.955 649.63C592.749 650.122 591.756 650.05 589.211 648.223C583.298 639.281 598.855 622.118 606.337 617.283Z" fill="#e0e0e0"/>
<path d="M567.812 473.961L569.082 474.51C570.497 476.6 567.389 481.608 566.079 483.826C556.974 499.242 554.286 513.366 551.329 530.844L550.345 530.914C539.37 507.247 549.094 489.046 567.812 473.961Z" fill="#686868"/>
<path d="M744.967 569.785C749.096 570.896 752.805 572.218 756.48 574.439C765.151 579.608 771.351 588.074 773.659 597.897C776.407 609.863 773.51 619.789 767.141 629.881C765.78 631.482 765.861 631.518 763.905 632.561L763.113 632.048C763.188 628.258 765.354 624.573 766.241 620.84C772.17 595.939 761.584 585.773 744.967 569.785Z" fill="#686868"/>
<path d="M755.627 736.197C743.708 762.699 721.473 747.776 740.75 725.525C744.865 720.774 744.811 719.068 751.843 718.182L751.106 719.271C741.839 724.841 750.232 731.663 755.627 736.197Z" fill="#e0e0e0"/>
<path d="M499.284 552.814C514.637 557.097 523.061 580.245 518.684 594.447C516.768 600.662 514.772 603.36 510.699 608.265C508.978 609.519 505.353 611.378 503.363 612.475C515.522 587.403 514.994 576.408 499.284 552.814Z" fill="#686868"/>
<path d="M557.188 977.664C558.301 977.772 559.413 977.887 560.524 978.016C567.466 978.801 599.53 982.205 603.306 986.956L601.938 988.154C593.448 990.658 584.852 992.384 576.028 990.617C567.582 988.932 561.914 984.817 557.188 977.664Z" fill="#686868"/>
<path d="M849.9 189.795C852.709 191.529 855.491 193.295 858.253 195.093C850.543 208.781 848.107 216.152 845.196 231.393C845.034 233.047 845.203 233.136 844.12 234.326C842.726 233.372 842.868 233.134 842.245 231.143C837.365 215.514 843.213 203.27 849.9 189.795Z" fill="#686868"/>
<path d="M194.629 390.783C198.499 393.653 211.347 419.905 212.105 426.27C212.295 427.872 211.628 431.797 211.286 433.575L210.141 434.025C200.028 424.23 194.99 404.618 194.629 390.783Z" fill="#686868"/>
<path d="M677.998 997.764C683.948 998.901 716.884 1004.37 719.835 1007.31L718.691 1008.25C709.601 1010.96 700.091 1011.83 690.96 1008.71C685.288 1006.77 680.611 1003.22 677.998 997.764Z" fill="#686868"/>
<path d="M570.615 601.246C572.935 601.348 573.857 601.475 576.132 601.945C578.19 603.725 577.573 602.644 578.086 605.283C576.685 611.136 570.36 616.627 564.063 616.297C559.958 615.06 556.334 614.151 555.38 609.588C556.904 602.745 564.857 601.769 570.615 601.246Z" fill="#e0e0e0"/>
<path d="M499.788 296.193C501.354 302.902 496.573 321.306 496.628 330.284C496.664 336.13 499.346 356.086 498.175 359.594L497.365 359.084C497.006 358.148 496.67 357.203 496.358 356.25C489.529 336.038 490.288 315.369 499.788 296.193Z" fill="#e0e0e0"/>
<path d="M775.392 671.49C803.231 673.382 822.677 708.024 806.081 731.291L805.025 732.137L803.948 731.955C803.102 729.376 811.888 711.354 806.25 697.974C799.745 682.531 789.802 678.518 775.392 671.49Z" fill="#e0e0e0"/>
<path d="M655.615 598.738C672.778 605.369 672.655 630.763 660.768 643.148C658.403 643.273 658.93 643.584 657.129 642.606C657.07 640.284 660.78 635.14 662.091 631.595C666.452 619.797 660.448 609.344 655.615 598.738Z" fill="#686868"/>
<path d="M568.478 1117.35C575.892 1116.93 583.821 1120.29 591.451 1120.39C598.362 1120.48 610.934 1116.53 616.206 1117.85L615.607 1118.79C612.626 1120.85 609.315 1122.27 605.851 1123.3C592.589 1127.27 580.281 1123.67 568.478 1117.35Z" fill="#686868"/>
<path d="M427.265 858.338L428.333 860.368C422.08 863.542 405.812 873.017 398.987 869.992L399.164 868.983C403.704 865.288 420.664 860.524 427.265 858.338Z" fill="#e0e0e0"/>
<path d="M712.268 1140.7C730.692 1142.35 733.744 1139.2 749.766 1137.54C734.191 1145.76 724.871 1145.99 707.462 1141.97C709.093 1141.17 710.447 1141.06 712.268 1140.7Z" fill="#686868"/>
<path d="M683.108 659.431C675.895 660.171 651.486 654.075 644.179 651.156L644.171 650.723C649.637 651.131 680.57 656.368 686.282 658.153L683.108 659.431Z" fill="#e0e0e0"/>
<path d="M751.843 718.182C756.52 717.383 760.406 716.416 762.477 721.776C762.267 724.706 762.72 723.413 761.13 725.816C756.013 728.428 753.021 723.474 751.105 719.271L751.843 718.182Z" fill="#e0e0e0"/>
<path d="M443.482 853.012C440.274 855.292 432.007 859.658 428.333 860.368L427.265 858.338C432.868 856.274 437.645 854.426 443.482 853.012Z" fill="#686868"/>
<path d="M547.056 852.018C549.463 852.654 551.708 853.297 554.167 853.709L551.8 855.043C550.238 854.664 547.586 853.574 545.999 852.985L547.056 852.018Z" fill="#e0e0e0"/>
<path d="M707.462 1141.97C705.086 1141.48 704.727 1141.47 702.622 1140.36C705.478 1139.7 709.235 1140.38 712.267 1140.69C710.447 1141.06 709.093 1141.17 707.462 1141.97Z" fill="#565656"/>
</g>
<defs>
<clipPath id="clip0_15479_18031">
<rect width="1173" height="1386" fill="#ffffff"/>
</clipPath>
</defs>
</svg>
