<svg width="891" height="753" viewBox="0 0 891 753" fill="none" xmlns="http://www.w3.org/2000/svg">
<g clip-path="url(#clip0_15479_18230)">
<path d="M191.89 0H199.273C201.503 2.11894 204.983 5.40655 206.223 8.24528C213.599 25.1329 214.091 50.0221 211.247 67.6974L214.871 63.4686C217.037 45.0182 222.72 25.898 233.647 10.4711C237.86 4.52339 242.62 1.87211 249.704 0.505223C254.153 1.98066 256.844 3.32764 258.943 7.89619C266.097 23.47 260.835 49.3613 256.472 65.2226C263.924 67.1732 276.746 70.3022 280.863 77.4824C281.508 78.6269 282.124 79.7871 282.712 80.9621C286.632 82.9457 289.24 84.3082 292.817 86.8704C301.805 83.4916 312.775 86.451 321.499 89.6844C337.837 95.7398 341.495 108.876 345.841 124.518C353.984 127.84 351.766 133.325 355.768 139.624L356.008 140.007C356.17 140.247 356.332 140.487 356.494 140.727C380.174 104.596 426.937 97.3536 462.72 120.263C478.438 130.325 481.201 138.272 489.685 153.315C492.656 152.579 494.94 152.255 498.025 152.196C500.639 147.6 502.393 144.157 507.892 142.856C517.589 140.562 523.615 141.892 532.438 142.49C535.44 142.693 551.754 140.112 555.487 139.443C561.365 133.261 569.344 133.295 577.758 133.089C578.336 133.073 578.915 133.07 579.494 133.082C575.931 114.626 578.702 100.63 593.829 90.9995C595.13 90.1703 597.888 84.229 599.097 82.8865C604.479 76.2953 613.328 73.4121 621.386 71.8247C634.102 69.2551 646.297 72.5246 658.874 73.6304C669.085 74.5283 685.565 68.8788 687.976 83.8953C688.981 90.1795 686.192 96.7629 682.007 101.359C689.137 116.151 688.167 123.622 686.836 139.154C689.798 145.091 692.661 150.327 694.445 156.767C692.848 164.576 691.752 162.59 687.197 166.891C685.357 176.105 683.116 190.022 674.732 195.454C670.325 198.308 665.992 198.894 660.967 199.868C662.42 201.68 663.564 203.182 665.709 204.217C668.589 205.609 697.986 211.899 702.454 212.384C721.11 214.41 741.257 216.037 759.891 213.165C780.33 210.013 804.071 201.469 824.323 202.898C827.903 200.761 841.643 192.48 845.228 191.307C854.333 188.328 875.355 185.854 885.201 187.681C887.628 188.131 889.451 189.918 891 191.637V197.466C885.183 203.746 880.015 203.816 871.788 205.19C877.726 217.21 869.238 245.247 852.436 238.98C850.618 238.316 848.965 237.259 847.599 235.886C842.565 236.895 839.737 236.886 834.577 236.628C832.241 240.59 830.662 240.973 826.416 242.451C820.747 250.763 819.894 249.671 810.771 253.195C780.199 265.005 749.254 273.654 716.898 278.978C711.969 279.789 705.896 281.29 700.936 281.656C699.674 300.219 696.729 318.91 696.685 337.58C696.668 346.359 697.856 355.164 698.848 363.888C700.048 374.845 701.345 385.791 702.746 396.725C703.355 401.565 703.873 406.973 704.599 411.743C706.078 421.462 699.548 421.824 691.813 423.907C692.178 458.712 689.237 496.362 688.067 531.307L686.231 592.908C685.983 601.334 686.248 611.087 685.539 619.313C689.046 621.636 692.696 623.92 696.746 625.125C710.59 629.249 719.435 627.252 720.962 644.705C737.651 648.724 762.04 655.114 775.053 666.894C785.916 676.734 792.703 693.252 804.136 702.765C807.073 705.284 813.694 707.907 817.266 709.699C832.372 717.264 845.336 725.947 853.963 740.872C855.051 742.747 857.431 746.014 857.035 748.319C855.638 752.117 852.362 750.52 850.379 748.954C847.003 750.281 827.19 750.812 822.474 750.964C808.461 751.408 793.647 750.52 779.56 751.177C755.314 752.804 731.125 751.699 706.844 752.017C702.681 752.073 680.427 751.382 678.169 753H561.713C559.981 751.847 558.076 752.073 555.953 752.056L235.367 750.99C194.901 750.847 154.384 751.095 113.917 750.955C108.321 750.938 102.568 750.055 97.0211 750.02C80.6394 749.92 64.2377 750.094 47.8569 749.959C43.4939 749.925 38.9662 749.228 34.7148 749.146C26.38 748.981 19.893 749.329 11.6232 748.106C6.74645 748.332 2.82431 749.642 0 745.131V743.63C1.83967 741.368 3.19264 738.136 4.70033 735.6C9.44321 727.617 14.4521 719.644 21.174 713.171C26.3522 708.185 32.4755 703.935 38.7143 700.36C46.2815 696.027 55.6336 692.329 61.5778 685.787C67.5133 679.257 71.6972 670.231 76.3793 662.697C80.5742 655.945 85.988 649.381 92.4582 644.722C108.811 632.946 146.994 624.807 166.888 620.166C159.43 613.036 150.532 604.201 146.344 594.544C142.456 585.295 148.614 577.256 153.197 569.783C157.011 563.567 160.863 558.743 165.734 553.409C166.29 552.8 168.403 547.293 169.002 545.966C165.303 534.482 168.566 528.766 172.503 517.917C176.887 505.841 182.308 493.87 185.67 481.468C187.041 476.413 185.874 467.247 186.171 461.766C185.642 448.176 185.586 434.875 185.759 421.306C185.78 419.621 184.427 413.967 183.984 412.129C182.211 404.777 182.367 399.145 183.541 391.617C182.675 389.786 182.059 387.899 181.393 385.988C170.34 385.55 153.986 385.209 145.548 376.623C144.121 375.17 142.888 372.219 141.302 370.673C139.002 368.43 135.833 367.022 134.209 364.183C128.745 353.883 130.963 341.222 130.514 330.158C130.028 318.171 127.284 308.401 139.244 300.934C138.937 290.705 139.318 282.277 140.16 272.178C132.709 262.084 137.006 248.968 140.561 238.15C144.878 225.015 155.491 216.759 169.347 216.603C172.045 216.573 179.255 215.897 181.547 214.854C181.822 213.377 176.212 209.34 174.94 208.133C160.768 194.696 153.89 175.894 155.286 156.445C156.627 137.767 160.336 118.87 168.948 102.117C171.804 96.5615 174.542 93.4003 178.127 88.5952C171.332 65.9034 170.342 38.7924 179.193 16.3434C181.889 9.5035 185.552 3.88668 191.89 0ZM551.95 401.482C553.521 380.313 558.102 358.338 559.52 336.929C560.303 325.086 550.88 264.447 556.366 259.679C558.328 260.863 559.085 266.947 559.32 269.189C561.621 291.221 565.341 313.242 566.646 335.345C566.799 337.961 566.268 341.18 566.098 343.846C564.963 353.708 563.636 363.577 562.365 373.422C561.073 383.106 559.881 392.802 558.789 402.51C558.402 406.063 558.263 410.304 557.858 413.566C571.606 417.743 582.661 419.286 597.018 420.841C597.836 415.371 602.835 395.574 604.853 390.115C606.328 389.358 606.002 389.244 607.407 389.356C610.313 391.984 613.759 415.769 615.312 421.956C640.719 422.829 673.597 423.23 697.747 414.597C695.385 400.301 693.718 383.662 691.995 369.2C690.982 360.691 688.902 344.841 689.05 336.668C689.376 318.811 691.935 299.032 693.766 281.131C691.473 281.19 689.907 281.498 688.015 280.315L687.449 279.488C688.772 276.493 709.942 272.947 713.535 272.25C724.969 270.133 736.376 267.877 747.753 265.482C766.712 261.458 783.893 255.437 802.178 248.831C816.731 243.572 822.722 244.385 818.876 225.803C817.51 219.199 815.078 214.92 810.675 209.726C780.125 216.296 750.868 225.292 719.261 221.152C713.07 220.341 704.943 220.648 699.013 219.239C671.03 212.59 646.258 207.552 617.178 208.135C613.998 208.299 596.652 209.149 593.659 210.288C581.212 215.218 564.784 220.206 554.43 228.546C550.976 231.325 546.673 247.43 545.381 251.858C535.309 286.361 527.478 321.636 528.496 357.791C528.653 363.244 527.252 394.754 529.514 398.443C533.578 401.832 546.399 401.48 551.95 401.482ZM559.35 610.791C570.662 615.089 586.246 614.702 597.523 610.709C598.506 605.449 598.997 598.072 599.554 592.612C600.437 584.33 601.377 576.056 602.373 567.786C605.523 541.207 609.099 514.681 613.098 488.215C614.768 476.87 616.683 460.696 618.888 449.986C613.737 447.593 608.255 445.627 603.213 443.048C601.251 442.043 600.024 441.09 600.272 438.798C603.792 436.436 617.335 442.508 621.425 444.253L624.009 445.888C625.997 450.839 626.524 456.929 627.176 462.245C630.77 491.477 634.555 520.766 635.09 550.251C635.155 554.044 635.373 557.925 635.516 561.731C636.36 581.272 637.026 600.821 637.513 620.375C650.695 622.793 665.84 623.246 678.361 617.791C677.995 603.096 678.691 591.468 679.066 576.996L682.494 479.38C683.146 462.893 684.399 441.908 684.325 425.591C665.657 428.4 628.181 432.91 609.939 427.525C609.056 424.833 607.468 415.472 606.354 414.769C603.679 418.574 603.431 427.291 599.624 427.403C588.817 427.721 576.496 425.249 565.876 423.089C566.133 461.074 565.246 498.533 562.122 536.396C560.103 560.913 560.303 586.196 559.35 610.791ZM475.023 588.332C481.888 591.212 488.64 594.396 495.475 597.35C500.378 599.468 503.372 602.757 508.818 603.196C520.243 604.379 541.135 606.354 551.959 608.655C551.163 575.395 554.386 540.172 556.744 506.968C557.771 492.508 556.932 477.422 557.958 462.614C556.788 462.867 552.729 463.789 551.837 463.68C548.117 463.223 541.291 461.1 538.215 458.939C524.228 449.116 525.616 428.772 527.387 414.648C525.198 411.274 525.272 409.396 524.933 405.414C523.436 403.552 521.413 401.211 521.061 398.835C520.082 392.168 520.3 385.31 520.213 378.592C519.973 360.301 520.448 342.348 522.144 324.142C522.475 320.569 527.03 294.812 526.656 293.593C514.47 300.107 504.477 307.072 491.229 311.434C492.164 320.316 492.304 328.229 490.115 336.992C489.319 340.179 487.213 346.547 487.031 349.521C486.221 362.91 485.269 375.381 481.784 388.352C481.027 391.171 482.645 397.238 483.507 399.953C487.435 411.226 486.2 417.423 482.045 428.04C490.555 450.095 485.217 474.451 483.572 496.98C483.154 502.67 488.258 511.387 486.509 518.021C486.017 524.225 482.001 528.962 481.401 533.656C479.087 551.839 478.125 570.227 475.023 588.332ZM240.904 446.563C244.536 466.551 246.999 487.066 247.923 507.377C248.678 523.964 248.757 540.816 250.006 557.385C250.206 560.03 251.792 563.897 254.073 565.476C260.422 569.409 274.627 567.765 281.985 566.934C284.864 566.612 289.958 564.097 290.757 562.027C293.634 554.58 293.192 540.329 293.662 532.333C295.7 501.43 296.934 470.479 297.364 439.511C297.504 425.723 297.576 408.969 296.772 395.214C266.504 399.829 241.648 399.877 211.268 396.564C207.753 396.181 193.426 394.455 190.421 393.488C189.605 405.831 191.499 410.715 193.303 422.539C194.546 430.695 192.992 442.051 193.758 450.46C193.668 460.165 194.998 472.032 193.277 481.455C191.673 490.242 186.756 499.542 184.038 508.047C181.895 515.111 171.952 534.874 175.351 541.146C176.344 541.995 184.736 542.469 189.138 544.105C196.226 546.728 200.616 551.778 205.219 553.875C206.192 553.301 206.444 552.887 207.156 552.035L207.733 551.983L208.228 552.444L206.866 553.47L206.967 553.957C208.1 554.253 208.567 554.61 209.651 553.94C217.03 549.399 236.621 497.911 238.374 487.74C239.511 481.146 233.257 436.148 230.177 432.311C227.201 428.604 216.949 424.115 217.438 419.101C217.492 418.544 217.712 418.155 218.009 417.695C221.276 416.691 226.797 421.854 229.616 423.427C239.056 428.695 239.234 436.892 240.904 446.563ZM307.536 272.458C307.722 276.463 307.764 280.913 308.171 284.866C309.415 296.944 307.327 308.96 308.229 321C309.312 333.798 313.29 345.572 313.192 358.535C313.138 365.703 309.333 369.165 307.96 375.055C306.108 382.997 310.676 385.944 303.975 393.872C304.881 408.724 305.555 422.708 305.325 437.567C304.733 475.673 302.573 513.597 300.36 551.634C299.856 560.296 296.546 565.094 293.985 572.963C293.663 574.042 293.664 578.831 293.651 580.245C310.624 597.641 313.898 589.176 329.276 599.111C335.121 598.202 352.637 597.598 359.168 597.615C359.6 595.383 359.843 594.196 360.559 592.012L363.855 583.555C360.255 567.534 358.87 542.578 362.593 526.295C363.453 522.537 366.397 518.365 367.484 514.95C368.411 512.044 368.044 506.859 368.435 503.562C360.12 490.603 359.216 447.868 361.689 432.244C358.918 425.986 358.198 422.998 357.757 416.167C343.862 414.784 337.414 413.059 330.998 400.47C330.288 399.077 326.915 396.743 326.127 395.095C321.553 386.432 322.323 375.243 322.365 365.715C322.388 360.69 321.844 355.715 322.213 350.821C322.652 345.008 324.918 340.721 329.854 337.608C329.96 329.66 329.853 316.463 330.767 308.931C327.82 306.334 326.225 303.78 326.192 299.732C326.103 288.759 329.167 272.474 336.701 264.244C347.447 252.506 364.687 256.448 378.429 254.715C378.604 254.693 390.281 249.638 390.437 249.52L390.65 248.842C389.068 246.947 383.618 246.01 380.696 244.17C376.251 241.373 372.27 238.65 368.155 235.342C367.428 234.757 365.188 232.563 364.8 232.305C362.997 234.462 358.744 239.838 356.831 241.507C343.269 253.336 323.836 265.12 307.536 272.458ZM196.821 217.009C204.242 216.092 221.909 218.035 229.192 220.719C232.04 221.769 234.113 223.196 236.511 225.003C241.222 220.364 242.01 219.205 248.024 216.257C244.718 214.634 240.888 212.863 237.701 211.099C233.228 208.589 223.614 202.443 222.458 197.438C224.807 196.289 235.359 203.792 238.112 205.509C242.903 208.444 247.722 211.331 252.571 214.17C259.876 211.844 266.251 211.936 273.858 212.398C245.313 181.527 262.02 124.183 272.673 88.6443C273.313 86.511 275.548 81.4097 273.744 79.8624C269.412 76.0526 259.47 73.2585 253.928 71.7856C251.888 77.0718 246.777 90.9068 242.355 93.867C240.739 94.132 241.474 94.2768 240.078 93.412C239.428 92.1222 239.532 91.6907 240.107 90.2469C248.198 69.915 255.305 48.7849 254.412 26.5928C254.198 21.2804 255.564 8.32428 247.4 8.16376C229.346 18.8305 221.941 55.2822 221.243 74.8619C221.076 79.5244 221.477 85.5532 219.54 89.8323L218.818 90.0668C215.085 87.0235 214.892 77.5899 214.863 73.1589C198.157 77.8652 183.874 90.6027 175.268 105.915C165.067 124.063 159.83 157.595 164.604 177.796C168.115 192.654 185.264 207.176 196.821 217.009ZM484.481 206.897C479.417 203.712 475.349 200.526 473.435 194.536C472.743 192.365 471.76 191.041 472.274 188.658L470.99 185.893C471.29 183.118 471.125 181.088 470.981 178.308C470.094 179.734 469.211 185.499 469.889 186.897L467.993 188.361C467.936 189.119 467.884 190.376 467.771 191.081C464.234 202.18 460.392 209.933 447.962 212.332C442.777 213.311 437.412 212.14 433.107 209.088C420.112 200.066 419.395 174.686 428.293 162.557C431.451 158.187 436.246 155.286 441.584 154.518C456.337 152.366 466.644 167.066 468.428 180.148C470.324 175.317 470.198 174.089 470.403 168.823C471.138 161.179 471.273 154.473 474.605 147.379C475.093 146.34 473.252 147.561 474.283 145.642C475.332 145.727 475.85 146.205 476.737 146.788L477.129 146.342C476.146 142.958 468.066 133.946 465.004 131.284C438.134 107.926 394.894 108.261 370.505 135.387C353.01 154.847 348.799 176.988 355.842 202.201C357.183 207 358.929 213.347 363.775 215.359C363.628 216.25 363.541 216.214 362.927 216.907C364.562 216.87 371.468 219.085 373.208 219.943C393.237 229.832 445.939 224.748 462.476 236.412C463.899 234.759 469.437 230.276 471.647 227.888C478.36 220.644 480.148 215.158 484.481 206.897ZM245.151 305.102C247.849 309.142 250.097 314.173 249.738 319.132C249.84 320.96 250.157 332.967 250.45 333.406C250.938 332.723 250.947 332.759 251.556 332.173L252.328 332.751C252.908 332.746 253.536 332.707 254.002 332.289C270.224 317.799 282.219 301.388 288.302 280.298C285.321 280.269 280.407 282.355 279.041 279.433C279.679 278.131 281.901 276.736 283.201 276.138C307.915 264.769 333.252 253.29 352.695 233.664C354.913 231.425 357.222 228.379 359.422 225.901C353.912 216.65 352.277 214.664 348.734 203.96C342.927 186.412 344.485 163.795 353.245 147.371C350.274 143.342 348.408 143.558 343.765 143.754C335.518 144.103 321.946 147.532 321.657 157.846C321.307 170.366 324.073 183.948 325.88 196.447C329.145 196.422 337.537 197.537 338.25 201.323C335.667 203.458 327.744 200.956 322.622 203.312C315.257 206.7 308.381 210.321 300.966 213.662C288.523 219.27 271.443 221.452 260.996 229.54C257.29 232.342 245.086 245.195 244.802 249.422C243.589 267.495 246.761 286.862 245.151 305.102ZM439.283 504.888C448.015 507.098 461.027 508.177 468.993 503.157C471.203 501.765 474.244 498.807 476.233 496.945C477.968 479.132 479.874 453.731 477.868 435.883C475.328 435.874 473.074 435.861 470.542 436.031C457.242 438.663 445.922 446.858 435.533 455.158C433.788 456.55 429.867 459.387 428.504 460.826C429.713 470.249 432.945 499.368 439.283 504.888ZM439 404.263C434.752 411.398 429.482 415.207 421.254 416.897C404.256 420.388 382.077 418.424 364.778 417.182C366.721 426.725 370.065 435.026 378.613 440.742C394.671 452.696 404.158 452.17 422.267 452.848C428.942 432.272 456.738 413.531 478.282 418.521C478.229 416.635 477.899 403.138 477.211 402.241C467.858 402.789 447.358 405.174 439 404.263ZM443.203 523.868C441.136 524.164 439.409 524.346 438.034 526.104C431.601 534.321 435.581 572.528 437.356 583.216C437.834 586.105 438.404 589.606 440.897 591.468C445.013 594.548 452.361 594.631 457.234 593.769C459.448 593.378 461.414 592.534 463.39 591.49C465.547 590.185 466.196 589.68 468.088 588.036C469.498 576.569 470.773 565.089 471.917 553.596C472.517 547.476 472.926 539.82 473.744 533.951C471.255 530.432 469.511 527.813 465.408 526.1C458.517 523.22 450.49 523.511 443.203 523.868ZM227.387 608.969C231.137 608.129 241.541 606.467 245.365 606.341C245.968 597.915 247.106 590.929 248.804 582.681C249.286 580.341 248.854 573.685 248.839 570.892C240.48 562.966 241.699 548.555 241.371 537.753C241.214 530.915 240.887 524.085 240.39 517.269C240.237 515.055 240.465 511.931 239.303 510.487C233.94 524.412 225.586 542.521 218.806 555.854C214.92 563.497 207.287 560.191 203.892 573.968C205.496 581.567 207.204 588.867 210.584 595.931C214.63 597.354 218.529 598.407 221.735 601.299C224.695 604.162 225.614 605.145 227.387 608.969ZM484.868 305.756C497.376 303.17 510.811 294.381 521.457 287.547C531.041 281.397 530.793 280.345 532.921 269.373C529.84 261.27 522.94 252.851 513.395 253.665C509.084 254.972 502.149 257.553 497.903 259.534C488.606 263.872 471.108 267.728 466.679 277.72C460.331 292.047 467.979 306.642 484.868 305.756ZM394.392 585.617C396.659 584.221 398.62 583.216 399.046 580.328C401.519 563.549 405.152 545.749 406.537 528.918C398.779 517.895 390.713 519.761 377.73 519.148C377.639 519.165 377.548 519.179 377.457 519.196L377 519.653L376.434 519.661C375.207 519.687 373.095 519.731 372.424 520.788C367.378 528.744 367.697 546.858 368.159 555.876C368.569 563.897 369.33 577.061 370.887 583.951C378.094 587.805 384.407 588.689 392.368 586.283C393.048 586.078 393.722 585.857 394.392 585.617ZM300.243 312.033C300.212 309.882 300.485 306.168 299.553 304.492C289.408 322.429 282.559 336.675 265.601 349.505C259.93 353.796 252.917 357.89 247.883 362.215C245.092 364.612 244.208 373.158 240.534 377.015C242.703 376.952 246.071 376.393 248.452 376.213C252.418 375.914 255.581 376.065 259.551 376.26C266.96 376.085 296.869 374.713 301.474 370.261C310.798 361.246 301.747 332.776 300.394 321.284C300.002 317.946 300.118 315.322 300.243 312.033ZM408.85 494.883C412.837 491.29 414.176 467.295 416.116 460.257C400.445 458.908 390.234 457.077 376.42 448.211C374.172 446.771 369.366 442.547 368.039 441.76C369.17 455.384 367.316 488.958 374.593 499.264C382.65 503.644 394.097 503.118 402.746 500.999C404.184 499.59 407.725 496.297 408.85 494.883ZM604.444 612.501C608.664 613.936 614.664 615.594 618.027 618.213C622.621 622.267 624.431 622.058 630.535 623.224C628.799 604.84 627.115 491.429 621.786 486.04C621.638 485.892 621.451 485.783 621.285 485.652C619.784 492.682 618.758 501.187 617.644 508.39C614.32 530.941 611.392 553.549 608.865 576.204C607.786 585.726 606.359 604.392 604.444 612.501ZM476.559 261.344C484.777 256.967 501.087 250.807 510.154 247.323C507.813 237.828 507.509 205.82 510.219 196.535C503.606 192.356 499.821 189.635 496.332 182.581C496.045 184.234 495.754 186.222 495.349 187.82C495.04 188.746 494.218 194.264 493.983 195.702C493.204 200.438 492.46 204.284 490.798 208.778C484.529 225.725 477.955 238.119 460.81 246.012C458.782 247.097 456.698 247.946 454.597 248.854C452.887 249.591 449.102 249.844 448.65 251.733C450.655 252.553 454.897 253.179 457.09 253.477C465.948 254.682 469.293 256.573 476.559 261.344ZM244.637 379.846C244.526 379.838 239.952 379.485 240.254 379.412C237.743 380.016 237.371 381.511 234.484 382.23C230.013 384.237 226.475 385.2 221.781 386.536C219.294 386.613 214.781 386.392 213.003 388.065L213.358 388.736C214.266 388.98 214.566 389.078 215.495 389.162C217.954 388.204 219.13 388.053 221.676 388.093C221.11 388.71 220.614 389.332 219.951 389.826C220.574 390.014 220.255 389.969 220.851 389.968C226.326 389.962 233.324 390.826 238.63 391.077C251.533 391.687 289.199 391.751 300.625 386.64C300.407 383.36 300.249 380.076 300.153 376.79C287.539 378.786 279.368 380.712 265.969 380.616C261.028 380.86 249.379 381.755 245.244 380.08L244.637 379.846ZM681.328 160.056C683.229 159.613 685.357 159.315 686.914 158.241C688.672 154.05 680.58 145.257 680.245 140.528C680.031 137.511 679.875 134.064 680.51 131.138C681.554 126.339 679.783 108.43 676.155 105.557C675.233 109.248 677.739 114.227 676.99 118.355C676.203 123.457 673.031 128.104 671.243 132.871C670.125 135.859 670.469 147.884 664.822 146.391C661.554 145.528 656.051 128.48 650.839 142.722C648.229 149.864 651.144 157.404 656.799 162.602C658.844 162.749 660.114 162.635 661.833 163.719C662.886 165.861 660.976 166.761 659.384 167.817C656.06 170.022 649.577 163.833 648.124 164.154C645.261 169.404 643.382 175.104 638.231 178.618C630.396 183.964 619.262 183.948 610.2 183.317C609.652 184.635 609.835 186.285 609.861 187.754C610.744 188.274 617.757 186.915 620.668 187.072C633.78 187.777 641.176 190.75 652.993 194.481C653.227 191.911 653.162 186.902 656.351 186.071C658.805 187.356 658.335 190.107 658.357 192.614C661.337 192.354 665.883 192.038 668.685 191.165C681.145 178.662 677.565 175.596 681.328 160.056ZM535.274 442.43C536.384 444.818 536.597 446.971 539.434 447.315L540.173 446.619C540.634 444.357 539.947 443.657 539.112 441.216C539.051 439.372 538.903 439.05 539.808 437.549C542.431 436.409 544.402 440.846 545.498 442.761C546.042 443.979 546.786 445.17 547.456 446.336L548.061 446.132L547.782 446.845L548.191 446.558L548.252 446.802C548.252 445.501 547.369 443.909 547.034 442.421L546.969 442.108C547.151 441.09 547.117 439.972 547.13 438.928C547.761 437.671 547.687 437.597 548.953 436.888C553.251 438.563 554.352 449.964 557.815 452.37C558.293 449.999 550.523 432.273 551.915 427.387C554.195 425.79 556.37 428.852 557.784 430.489C558.546 426.895 558.82 425.109 559.068 421.451C554.539 420.412 554.4 419.844 550.993 417.636C550.58 417.368 543.362 417.496 542.096 417.455C539.555 417.373 536.614 417.034 533.921 416.671C533.047 425.268 531.624 434.413 535.274 442.43ZM422.058 472.58C421.15 476.021 417.33 494.674 417.673 496.432C420.335 510.065 419.826 516.107 414.131 528.857C413.254 530.819 412.802 541.316 412.024 543.874C409.991 556.698 408.453 569.705 405.63 582.403C410.319 584.599 419.178 588.506 423.115 591.229C424.775 592.469 427.082 594.109 428.595 595.418C429.141 594.779 429.679 594.139 430.209 593.487C431.366 592.073 431.592 590.081 431.235 588.371C427.772 571.767 425.947 554.092 427.551 537.162C428.155 530.793 430.566 525.482 432.447 519.496C433.076 517.512 432.864 511.518 432.849 509.043C431.883 507.49 430.598 505.511 429.949 503.827C426.252 494.222 424.675 483.799 422.98 473.69C422.902 473.233 422.393 472.841 422.058 472.58ZM551.023 457.372C552.581 455.21 552.329 452.705 550.275 450.926C549.853 454.088 550.554 454.349 550.615 457.024L551.023 457.372ZM253.375 622.001C259.3 623.842 268.929 624.507 275.132 624.011C282.783 623.402 326.319 624.076 328.323 616.603L327.931 616.172C305.561 619.03 283.837 621.954 261.303 619.374C259.768 619.196 253.704 617.791 252.843 617.952C252.64 619.692 252.917 620.257 253.375 622.001ZM516.175 242.036C521.875 240.713 527.474 240.015 533.051 242.488C535.561 243.562 536.745 244.139 539.081 245.532C541.213 241.52 543.018 234.503 545.155 229.635C543.71 221.969 540.565 204.167 538.189 197.366C535.044 196.294 533.264 195.915 529.854 195.945C525.816 196.129 520.491 196.374 517.359 199.178C515.832 203.011 515.84 235.89 516.175 242.036ZM604.771 196.058C603.139 197.982 600.481 200.907 599.319 202.996C614.525 202.085 623.243 201.154 638.736 202.409C643.8 202.851 648.842 203.256 653.88 203.903C653.789 203.061 653.367 202.732 652.475 202.153C642.773 195.864 626.663 194.067 615.651 194.645C611.31 194.957 609.086 195.138 604.771 196.058ZM198.757 566.503C199.77 564.728 201.258 562.27 202.098 560.496C194.696 553.087 187.147 547.737 176.144 547.619C175.745 549.807 175.368 551.678 174.845 553.84C177.251 555.01 180.347 555.863 183.039 557.116C185.82 558.416 197.045 566.464 198.669 566.986L198.757 566.503ZM479.365 318.89C474.866 319.067 470.968 319.387 466.557 318.117C447.693 312.688 442.707 292.824 448.815 275.829L448.458 275.309C446.505 277.194 442.877 280.856 440.845 282.307C445.065 310.819 442.411 339.797 444.23 368.175C450.986 363.162 454.471 360.218 460.214 354.19C470.129 342.316 475.18 334.129 479.365 318.89ZM328.393 142.183C335.463 139.62 339.518 138.503 347.265 138.285C344.696 130.295 344.285 130.656 335.897 131.065C330.618 131.964 319.949 134.498 320.831 142.064C320.962 143.187 321.724 145.147 322.123 146.243C324.038 144.62 325.99 143.054 328.393 142.183ZM868.281 211.499C864.64 205.778 856.06 203.343 854.816 200.604C855.717 197.105 862.708 199.512 865.175 199.243C869.747 198.746 880.402 198.107 883.795 195.21L883.835 194.525C881.433 193.356 874.002 194.06 870.987 194.204C846.198 196.34 850.244 195.296 828.595 208.168C832.876 216.017 834.882 221.094 835.017 230.214C838.075 230.176 841.712 230.286 844.644 229.589C849.748 228.377 856.974 220.082 860.124 228.609C859.389 232.162 854.712 229.957 854.024 231.814C857.448 235.528 862.747 230.323 864.348 226.853L864.218 225.543C861.786 223.368 857.144 219.969 856.691 216.972C859.088 211.566 865.684 219.421 868.655 221.191L868.273 220.639C864.762 215.622 858.436 211.968 857.205 207.838L857.431 206.812C860.302 204.977 865.588 209.668 868.281 211.499ZM470.873 594.574C464.086 599.681 456.764 601.734 448.319 600.603C444.295 600.029 440.384 598.842 436.721 597.08C425.497 626.178 438.352 619.77 460.505 620.309C467.797 620.261 497.838 620.118 501.614 615.894C502.262 615.167 502.614 614.254 502.532 613.271C502.31 610.583 499.639 607.885 497.55 606.332C494.457 604.023 473.983 594.918 470.873 594.574ZM255.03 588.223C253.763 595.27 252.24 605.806 252.392 612.958C260.696 614.158 267.653 614.702 276.103 614.572C280.38 614.506 285.023 613.984 289.205 614.115C302.454 614.297 315.69 613.214 328.733 610.883C325.265 603.448 321.404 601.948 313.629 600.142C304.276 597.972 295.656 594.231 289.311 586.757C288.95 586.77 288.588 586.779 288.227 586.788C276.5 590.968 267.211 591.016 255.03 588.223ZM188.281 609.482C188.634 611.796 196.293 618.974 198.354 620.644C202.879 624.32 216.339 623.341 220.43 619.335L220.151 618.748C215.515 618.983 209.708 619.848 205.282 619.161C198.469 618.108 197.145 614.419 192.334 611.422C192.105 612.014 192.031 612.262 191.881 612.884C190.403 612.745 189.66 610.552 188.337 609.478L188.281 609.482ZM256.581 573.363C256.845 577.452 255.795 581.75 260.46 582.35C266.159 582.838 278.605 583.721 283.653 581.063L283.987 580.28L283.495 579.162C284.123 579.031 284.748 578.888 285.371 578.736C286.657 576.613 286.371 575.647 285.952 573.159C285.21 572.989 285.542 572.963 284.954 573.128C281.786 573.594 278.615 574.068 275.432 574.425C269.115 575.138 262.863 573.781 256.581 573.363ZM475.915 378.183C475.162 378.653 475.097 379.326 474.658 380.326C473.618 380.055 473.409 379.27 472.587 378.125L472.147 377.451C472.7 376.751 472.539 377.155 472.604 376.23C470.603 376.862 469.572 378.109 467.201 378.737C467.218 377.059 472.126 372.947 473.405 371.324L473.753 371.061L473.709 370.429L474.079 370.613L474.518 369.626L473.753 369.933L474.001 370.295C472.347 370.447 466.104 377.845 464.199 379.097C463.25 379.718 460.562 381.918 459.626 382.729C463.337 382.837 472.8 383.164 475.802 381.444C476.202 380.032 476.072 379.687 475.915 378.183ZM483.106 162.86C479.596 167.926 479.426 178.511 485.112 182.053C488.871 178.093 487.936 165.161 483.106 162.86ZM531.524 407.105C535.601 411.071 539.09 410.346 544.267 409.562L543.936 408.764C541.013 407.94 534.63 407.155 531.524 407.105ZM408.093 256.425L408.574 256.672C415.142 258.186 418.144 254.695 422.868 256.163L422.836 256.515C421.321 256.93 419.813 257.371 418.313 257.836C419.535 258.008 425.537 258.572 426.193 259.023C427.293 259.677 428.123 260.364 429.361 260.363C426.459 257.798 425.675 258.336 424.327 255.365C419.55 254.363 412.329 254.408 407.554 254.986C405.515 254.892 404.111 254.688 402.133 255.21C402.742 255.933 404.929 256.014 406.095 256.18L408.093 256.425ZM156.962 579.958C156.183 581.076 154.941 582.477 154.946 583.743C156.872 584.325 155.237 582.868 157.161 583.495C163.172 585.443 167.986 587.988 172.715 592.208C175.592 594.774 177.803 599.668 181.534 598.889L181.795 598.45C179.432 594.605 177.005 592.721 173.916 589.463C172.891 589.428 173.352 589.306 172.484 589.833L172.337 589.267L172.529 588.597C171.915 586.975 170.387 587.279 168.821 585.265C164.997 581.794 161.871 581.072 156.962 579.958ZM284.517 200.09C288.881 198.006 289.649 197.338 292.797 193.649C294.994 189.417 295.349 187.171 296.419 182.536C292.576 181.466 285.975 179.934 285.131 175.275C287.195 171.537 294.479 176.014 297.192 177.413C297.129 174.958 296.505 167.441 297.925 165.751C299.674 163.669 304.315 163.308 304.494 160.387C302.13 157.047 296.611 151.418 295.251 148.33C292.381 141.817 296.036 125.516 292.554 119.524C289.795 124.185 287.974 126.947 283.948 130.518C281.783 132.439 272.895 136.25 272.279 137.676C270.224 142.435 271.262 155.743 272.514 160.326C277.221 177.555 286.574 180.989 284.517 200.09ZM339.096 124.307C337.458 119.17 331.133 100.408 325.387 99.4991L324.131 100.358C322.789 99.9389 321.364 99.5208 320.047 99.0476L319.182 97.3793L318.684 97.3297C318.914 99.1528 318.978 99.5248 318.439 101.267L317.775 101.918C312.422 101.173 309.845 90.8068 298.056 92.3541C298.033 94.2568 297.939 93.9519 299.637 94.8389C302.761 96.4714 306.606 99.2577 308.337 102.404C309.871 105.192 313.049 110.468 311.961 113.698C308.064 116.866 300.55 108.636 294.968 108.871L294.329 109.491C294.526 111.607 295.966 113.19 297.718 114.29C301.031 116.371 316.223 132.954 320.031 130.06C326.583 126.022 331.222 124.516 339.096 124.307ZM827.603 222.167C826.594 218.45 823.975 213.206 821.077 210.63C820.816 211.128 820.777 210.975 820.964 211.442C823.192 216.985 824.279 219.648 825.545 225.515C825.837 227.714 826.072 233.575 826.355 234.747H826.938C829.248 232.123 828.521 225.332 827.603 222.167ZM209.622 614.067C213.661 613.923 217.062 613.567 221.063 613.132C219.323 609.169 217.682 606.215 213.341 604.505C212.006 603.979 210.746 603.392 209.584 603.853L208.589 605.454C206.081 605.019 201.691 594.757 200.827 592.251C200.269 592.451 199.871 592.612 199.329 592.856C200.311 586.861 197.875 581.55 197.323 575.068C189.423 567.899 180.361 562.284 169.711 560.735C168.521 563.249 165.946 565.542 164.097 567.799C161.975 570.388 160.876 572.106 159.16 574.955C175.438 578.013 183.302 590.559 192.915 602.378C193.815 603.483 196.589 604.484 197.934 605.436L197.872 605.78L196.028 605.493C195.921 606.254 195.846 605.858 196.314 606.515C199.62 611.165 203.755 613.906 209.622 614.067ZM302.021 128.649C301.982 134.134 301.834 140.024 301.952 145.476L302.223 145.913C309.401 157.27 319.333 157.33 304.141 170.883C304.038 183.474 301.946 201.593 287.94 206.488C285.661 207.284 283.294 207.937 280.967 208.584C282.064 209.946 283.018 211.125 284.216 212.416C286.235 211.339 286.755 211.105 288.95 210.483C300.648 206.72 308.019 202.53 318.769 197.42L315.094 172.693C314.522 168.933 313.287 163.405 313.36 159.739C313.403 157.587 315.307 152.687 315.898 150.298C315.011 148.101 314.26 146.222 313.729 144.034C313.274 142.157 313.957 136.584 312.703 135.747C309.877 133.864 304.877 130.265 302.021 128.649ZM382.618 613.467C389.134 613.354 421.636 612.54 423.987 606.232C423.112 605.867 423.014 605.889 422.064 605.758C422.732 603.535 423.55 603.644 422.777 601.321C421.46 597.363 405.088 589.354 401.858 588.488C390.949 595.544 383.515 595.231 371.182 592.451C370.798 593.513 370.321 595.418 369.586 595.979L369.031 595.679L369.598 593.426C368.897 592.73 369.291 592.847 368.491 592.795C366.556 595.614 362.75 609.908 366.813 611.774C370.407 613.427 378.417 613.462 382.618 613.467ZM542.753 192.282C547.121 197.82 549.27 213.372 550.693 220.928C552.168 220.754 553.947 219.405 555.322 218.652C564.976 213.356 577.371 209.849 586.846 204.7C592.554 201.599 594.238 193.213 602.935 189.094C602.891 186.583 602.887 183.932 602.774 181.436C600.555 178.676 596.5 173.203 594.764 170.122L594.216 169.853C590.244 175.042 587.081 177.285 580.525 177.802C577.566 178.035 568.587 179.317 566.251 178.493C558.641 175.815 554.308 177.279 546.603 177.065C545.681 183.367 545.007 186.129 542.753 192.282ZM188.505 78.4864C193.732 74.7915 198.185 72.6878 203.908 69.9546C204.676 61.1105 208.507 7.68917 194.621 7.6515C193.109 9.16694 190.049 12.1709 188.929 13.8532C181.8 24.5594 180.436 40.0235 180.381 52.6165C180.34 62.0696 181.21 73.6404 183.775 82.7299C185.315 81.2835 186.845 79.7906 188.505 78.4864Z" fill="#404041"/>
<path d="M334.154 606.473C341.944 605.598 350.195 605.433 358.039 605.172C358.057 609.296 357.794 613.037 360.969 616.278C365.722 621.128 380.674 621.28 387.222 621.05C398.814 620.645 414.493 619.044 425.542 615.434C426.066 618.936 426.597 622.39 429.735 624.578C439.257 631.22 486.452 627.583 498.225 625.152C501.879 624.395 505.769 623.255 507.822 619.845C509.502 617.056 509.158 613.602 508.619 610.549L555 616.178C553.878 621.95 553.229 626.126 553.199 632.034C553.151 642.248 552.747 647.698 564.776 649.404C573.081 650.582 585.185 651.07 593.103 647.224C594.06 646.759 595.16 644.188 595.726 643.17C602.839 643.674 612.624 643 618.636 638.485C621.99 635.97 622.617 632.947 622.956 629.089C626.158 629.763 629.091 630.355 632.323 630.877C631.718 635.222 631.758 639.342 631.423 643.47C630.474 655.267 635.651 658.095 646.824 658.734C654.194 659.161 665.035 659.983 671.94 656.847C672.675 656.464 673.371 654.332 673.636 653.558C675.681 653.027 679.858 655.276 681.798 655.415C693.262 656.259 707.01 655.92 717.281 650.891C730.894 654.811 752.012 660.279 763.593 667.4C776.014 675.043 785.616 695.11 795.653 705.55C799.429 709.126 804.715 711.823 809.357 714.007C822.735 720.297 835.656 727.44 844.253 739.929C845.184 741.282 850.244 747.824 850.379 748.955C847.003 750.282 827.19 750.813 822.474 750.965C808.461 751.409 793.647 750.521 779.56 751.178C755.314 752.805 731.125 751.7 706.844 752.018C702.681 752.074 680.428 751.383 678.17 753.001H561.713C559.982 751.848 558.076 752.074 555.953 752.057L235.367 750.991C194.902 750.848 154.385 751.096 113.917 750.956C108.322 750.939 102.568 750.056 97.0214 750.021C80.6397 749.921 64.238 750.095 47.8572 749.96C43.4941 749.925 38.9665 749.229 34.7151 749.147C26.3802 748.981 19.8933 749.329 11.6235 748.107C9.22163 747.729 8.17662 747.746 5.7627 747.763C8.39898 744.496 11.2801 739.276 13.3338 735.727C23.1966 718.687 37.6389 708.452 54.9399 699.991C58.3256 698.338 62.4216 695.506 65.2556 692.922C80.413 676.022 85.6681 651.57 109.835 643.692C130.869 635.897 152.379 631.325 174.371 626.039C185.272 631.873 198.041 631.124 210.029 630.307C220.912 629.567 227.108 628.005 228.383 616.252C233.036 615.238 240.101 614.533 244.992 613.907C245.268 618.618 245.072 624.443 249.03 627.762C257.897 635.192 303.841 630.659 315.583 629.141C321.133 628.423 329.436 627.453 333.117 622.72C335.705 619.397 336.046 615.207 335.446 611.179C335.206 609.574 334.746 607.978 334.154 606.473Z" fill="#D5D5D4"/>
<path d="M224.742 670.514C226.949 670.34 231.579 670.301 233.312 671.688C233.111 674.425 222.757 675.469 220.065 676.108C211.914 678.044 203.579 684.604 195.707 686.235C184.662 688.519 170.875 684.104 160.468 690.211C153.581 694.322 147.126 701.443 141.376 707.263C140.009 708.664 137.446 711.435 135.3 710.282C135.385 708.025 139.236 703.083 140.638 701.395C153.051 686.466 160.673 680.149 180.787 681.219C183.583 681.367 192.128 681.42 194.72 680.589C206.687 676.743 211.21 671.932 224.742 670.514Z" fill="#404041"/>
<path d="M718.664 687.688C723.824 687.209 733.482 689.328 738.751 691.124C746.586 693.8 752.181 701.782 756.062 708.755C756.871 710.208 756.619 711.335 756.018 712.788C751.32 711.887 745.573 701.969 741.274 698.733C735.636 694.496 724.077 694.3 718.725 689.676C718.347 689.35 718.599 688.323 718.664 687.688Z" fill="#404041"/>
<path d="M687.519 219.916C689.133 220.019 689.068 219.972 690.477 220.729L690.625 221.542C688.929 223.928 687.254 225.925 686.162 228.657C682.324 238.249 681.998 247.217 681.75 257.399C679.457 256.667 678.918 254.178 678.748 251.982C677.869 240.598 678.735 227.943 687.519 219.916Z" fill="#404041"/>
<path d="M627.964 78.0547C638.497 77.45 648.795 79.6346 659.293 80.9645C664.67 82.0942 681.137 76.9324 681.402 85.7374C681.676 94.7629 673.563 98.2987 668.82 103.602C668.999 106.916 670.63 113.631 670.5 116.231C670.204 122.209 666.358 129.698 664.474 136.413C661.964 133.694 658.153 130.351 654.089 131.516C649.969 132.449 645.262 136.85 644.657 141.278C642.987 153.481 645.175 158.007 638.366 169.614C632.624 178.305 617.092 178.279 607.977 176.689C605.58 174.477 603.392 170.69 601.621 167.834C593.908 155.381 587.047 140.523 585.424 125.836C584.645 118.808 585.711 107.482 591.167 102.365C593.246 100.414 597.406 98.3126 599.302 96.3303C601.53 93.9995 601.887 90.9814 604.467 88.1134C611.258 80.5643 618.406 78.8199 627.964 78.0547Z" fill="#5C5C5C"/>
<path d="M422.548 272.037C424.824 271.94 430.118 272.099 431.647 273.54C434.689 276.408 435.258 287.433 435.519 291.516C436.664 312.194 437.138 332.905 436.951 353.614C436.925 367.421 437.147 380.989 434.959 394.675C432.635 408.706 422.186 410.937 409.998 411.573C397.785 412.161 385.244 411.848 373.041 410.843C361.472 409.89 348.948 410.833 339.882 402.708C343.084 402.927 348.245 403.647 351.285 403.709C363.597 403.962 387.898 409.24 397.789 400.948C401.951 397.46 403.285 391.536 403.52 386.169C404.03 373.49 404.786 360.294 402.941 347.714C402.387 343.929 398.101 340.793 394.531 340.166C381.271 337.838 367.086 337.555 353.594 337.001C347.97 336.687 342.336 336.573 336.705 336.661C336.671 329.813 336.876 317.535 337.562 310.936C343.93 311.757 350.332 312.286 356.748 312.521C356.676 320.369 355.519 326.552 365.545 326.925C375.365 327.29 374.112 320.462 374.328 313.192C403.632 314.406 405.322 318.085 409.522 288.378C410.644 296.663 410.238 318.127 410.268 327.036L410.293 365.77C410.255 378.233 410.377 395.199 407.652 407.12C408.695 405.902 409.653 404.614 410.52 403.265C411.862 401.154 412.982 398.089 413.28 395.613C415.434 377.705 415.215 359.001 415.151 341.044C415.198 322.548 414.987 304.06 414.158 285.581C414.046 283.075 414.104 281.396 412.668 279.547C412.314 279.091 413.547 276.631 414.098 275.991C416.526 273.173 418.975 272.409 422.548 272.037Z" fill="#838383"/>
<path d="M221.807 232.014C222.413 231.955 223.01 231.903 223.619 231.882C227.163 231.76 231.226 232.011 233.871 234.676C239.519 240.366 238.851 294.676 238.863 304.21C231.275 304.324 216.597 302.346 215.893 312.458C214.985 325.494 215.283 338.716 215.514 351.757C215.832 369.734 221.796 370.137 237.27 369.385C233.656 377.026 223.929 379.412 216.274 379.603C201.058 379.984 162.153 381.923 150.8 372.117C162.307 373.179 183.058 376.891 193.216 370.911C196.73 368.843 199.148 364.678 200.056 360.777C201.912 352.794 202.665 314.088 198.536 308.084C196.547 305.193 192.988 304.314 189.748 303.736C175.199 302.372 160.622 301.319 146.027 300.575C146.209 291.706 146.468 282.839 146.806 273.975C150.927 274.721 155.67 275.095 159.877 275.528C159.761 278.57 159.213 283.714 160.986 286.287C163.187 289.48 171.306 290.211 174.216 287.887C176.932 285.718 176.785 279.54 177.001 276.233C193.156 276.694 202.057 280.402 207.456 261.784C206.511 283.089 206.459 304.283 206.628 325.604C206.74 339.888 206.074 358.879 208.37 372.902C212.181 360.233 211.386 344.914 211.444 331.667L212.032 274.995C212.137 266.169 212.162 246.394 213.451 238.242C216.007 234.873 218.028 233.566 221.807 232.014Z" fill="#838383"/>
<path d="M363.215 262.493C377.536 261.739 411.734 262.93 425.115 265.97C422.844 266.05 420.395 266.053 418.193 266.659C399.078 271.927 405.88 299.376 399.249 305.865C396.019 309.025 387.735 307.699 383.551 307.561C380.439 307.575 377.574 307.43 374.475 307.269C374.506 305.234 374.781 300.152 373.78 298.777C371.26 295.314 362.126 295.013 358.877 297.361C356.972 298.738 356.887 304.218 356.675 306.487C352.6 306.254 338.849 305.896 335.287 303.508C332.022 300.704 333.06 293.61 333.73 290.139C337.78 269.168 342.684 263.615 363.215 262.493Z" fill="#838383"/>
<path d="M172.73 223.345C176.938 222.927 184.196 223.193 188.544 223.317C199.83 223.642 211.104 224.26 222.358 225.169C197.104 233.508 207.667 258.116 196.625 269.789C191.456 270.779 187.579 270.545 182.398 270.287L177.457 270.119C177.613 263.279 178.358 260.023 170.074 258.771C161.683 257.503 160.571 262.434 159.99 268.937C144.633 268.306 140.326 267.897 144.298 250.791C146.132 242.896 147.612 237.037 152.98 230.6C158.467 224.02 164.798 223.923 172.73 223.345Z" fill="#838383"/>
<path d="M467.771 191.081C464.234 202.18 460.392 209.933 447.963 212.331C442.777 213.311 437.412 212.14 433.107 209.088C420.112 200.066 419.395 174.685 428.294 162.557C431.451 158.187 436.246 155.286 441.585 154.518C456.337 152.365 466.644 167.066 468.428 180.148C467.388 181.971 467.479 186.404 467.993 188.361C467.936 189.118 467.884 190.376 467.771 191.081Z" fill="#404041"/>
<path d="M450.416 165.396C464.89 166.349 466.234 197.532 451.982 201.39C437.342 198.994 436.55 169.266 450.416 165.396Z" fill="#D5D5D4"/>
<path d="M442.22 160.175C443.829 160.135 445.417 159.906 446.827 160.558C446.209 162.603 437.077 165.518 436.229 178.25C435.633 187.115 435.985 196.052 443.829 203.037C445.657 204.662 448.106 204.595 449.102 205.861L448.163 206.554C444.643 206.782 441.441 207.205 438.23 205.278C424.02 196.75 424.709 164.663 442.22 160.175Z" fill="#D5D5D4"/>
<path d="M396.599 348.82C399.61 351.315 398.247 382.889 397.71 388.168C397.365 395.079 391.023 399.829 383.447 399.337C368.723 398.38 345.722 400.36 332.983 392.699C329.563 390.642 329.528 377.35 329.375 373.599L329.317 363.959C347.561 364.825 369.152 367.846 387.251 367.129C387.278 371.392 387.399 389.353 388.684 392.384L389.343 392.523C394.068 386.62 390.272 361.422 393.464 353.484C394.346 351.287 395.067 350.507 396.599 348.82Z" fill="#838383"/>
<path d="M193.459 313.891L194.449 314.363C195.442 317.247 195.602 326.19 195.524 329.496C195.271 340.149 197.605 355.378 192.072 364.702C183.284 370.513 164.841 366.934 154.696 366.334C135.803 365.217 137.472 353.532 137.43 338.546L137.544 329.08C153.863 330.017 167.075 332.07 184.264 332.013C184.661 341.727 183.939 354.403 185.631 363.736C190.78 349.388 186.94 335.211 189.666 320.672C190.374 316.9 190.331 316.13 193.459 313.891Z" fill="#838383"/>
<path d="M678.9 624.681C682.546 624.311 687.157 628.918 690.473 630.319C696.328 632.794 703.642 633.225 709.28 635.743C712.091 636.096 716.785 642.53 713.278 644.652C706.922 648.494 691.243 649.194 684.269 648.372C678.435 647.68 674.767 645.562 669.568 645.401C668.024 647.023 667.501 649.25 666.766 651.404C657.826 651.961 647.437 652.687 638.801 649.999C637.787 642.121 638.326 635.078 639.288 627.252C653.971 629.984 664.761 629.362 678.9 624.681Z" fill="#5C5C5C"/>
<path d="M287.579 135.955C293.799 136.893 293.782 143.496 292.805 148.426C292.289 151.028 291.375 151.924 289.574 153.686C283.135 153.59 283.142 140.594 287.579 135.955Z" fill="#404041"/>
<path d="M362.927 216.907C364.562 216.87 371.468 219.084 373.208 219.943C393.237 229.831 445.939 224.748 462.476 236.411C459.722 239.091 449.768 242.908 446.039 244.444C431.585 236.136 407.282 235.33 392.065 241.749C388.171 240.101 384.419 238.136 380.847 235.872C375.913 232.69 364.108 222.512 362.927 216.907Z" fill="#D5D5D4"/>
<path d="M597.858 617.773C601.273 617.316 615.234 622.423 615.996 626.656C618.262 639.206 598.78 634.416 592.102 636.017C590.444 636.413 589.07 640.415 588.439 641.89C584.793 642.32 581.33 642.573 577.676 642.834C570.832 642.947 567.017 642.868 560.504 640.95C559.999 632.707 559.725 627.16 561.4 618.817C575.231 621.636 584.223 621.553 597.858 617.773Z" fill="#5C5C5C"/>
<path d="M335.858 342.485C351.541 341.977 376.676 343.75 392.649 345.328C387.09 351.483 387.809 359.897 385.885 361.532C384.106 361.581 382.324 361.582 380.545 361.532C374.851 361.421 330.91 359.441 328.958 357.408C328.077 354.696 329.28 349.607 330.217 346.94C331.064 344.531 333.584 343.282 335.858 342.485Z" fill="#838383"/>
<path d="M518.769 147.916C519.569 147.866 520.37 147.911 521.161 148.051C528.575 149.336 529.062 161.381 533.134 161.956C537.193 159.272 531.751 150.834 530.154 147.783C543.397 158.154 541.783 175.001 536.454 189.348C533.03 189.147 530.994 189.007 527.444 189.366C523.389 189.776 519.482 191.139 515.527 191.626C514.94 191.298 514.44 191.02 514.039 190.795C508.131 187.04 505.069 185.128 502.236 178.615C504.329 178.742 510.015 179.311 511.338 178.378C517.442 174.065 515.44 160.524 511.773 155.16C510.916 153.907 507.47 152.167 506.509 150.521C507.361 149.503 507.64 149.528 509.062 149.078C515.501 147.042 519.695 160.288 523.38 162.249C524.646 161.634 524.081 162.065 524.933 160.69C525.303 156.211 521.553 151.2 518.769 147.916Z" fill="#D5D5D4"/>
<path d="M143.968 306.825C155.428 306.268 177.68 308.817 189.741 309.556C182.824 315.716 184.85 317.965 183.039 325.927L182.938 326.354C173.363 326.51 146.039 324.452 136.47 322.811C136.265 316.401 136.495 308.735 143.968 306.825Z" fill="#838383"/>
<path d="M239.668 329.05C240.855 328.893 241.393 328.928 242.56 328.967L243.062 329.538C243.582 334.134 244.245 358.143 240.066 362.451C238.05 364.529 228.244 364.033 224.887 363.468C224.483 363.175 224.097 362.9 223.753 362.537C219.92 358.482 221.111 335.952 221.069 329.33C227.828 329.651 232.919 329.568 239.668 329.05Z" fill="#838383"/>
<path d="M299.928 275.674C300.672 275.87 300.339 275.663 300.846 276.413C300.801 278.533 300.259 281.073 299.739 283.155C292.425 312.422 275.194 336.671 249.906 352.703L249.131 352.599C248.797 350.875 249.276 345.844 249.406 343.84C271.99 329.149 287.2 304.831 295.26 279.834C296.205 276.904 297.213 276.867 299.928 275.674Z" fill="#838383"/>
<path d="M562.792 144.975C569.235 145.735 571.815 164.147 567.447 168.131C565.115 170.261 551.437 170.31 548.074 170.545C546.038 170.276 546.46 168.908 546.399 166.943C546.164 159.622 544.15 154.611 540.339 148.487C548.061 147.249 555.031 146.566 562.792 144.975Z" fill="#D5D5D4"/>
<path d="M279.777 87.6113C288.114 89.7011 291.94 95.5494 295.091 102.959C292.389 103.818 291.643 104.107 289.168 105.47C285.871 116.974 288.098 117.258 278.167 126.171C275.445 128.271 271.048 131.073 268.042 132.632C271.683 117.117 274.831 102.904 279.777 87.6113Z" fill="#5C5C5C"/>
<path d="M547.369 418.721C552.324 423.284 547.182 432.999 542.039 435.405C540.569 434.259 540.325 434.333 540.086 432.909C543.54 428.202 545.655 420.633 547.369 418.721Z" fill="#404041"/>
<path d="M484.472 323.947C485.334 328.37 483.58 336.497 482.327 340.8C476.92 359.367 459.443 376.858 442.637 386.032C442.184 383.668 442.698 379.549 442.95 377.139C464.725 361.873 475.471 349.058 484.472 323.947Z" fill="#838383"/>
<path d="M152.377 589.934C168.857 591.521 180.498 611.619 191.569 623.407C187.291 623.112 181.741 622.52 178.117 620.245C170.819 615.673 154.21 597.742 152.377 589.934Z" fill="#D5D5D4"/>
<path d="M574.542 139.811C575.643 139.602 579.441 139.441 580.746 139.359C583.552 146.559 585.767 151.848 589.212 158.786C587.899 164.944 587.733 170.071 580.594 170.688C577.953 170.969 575.308 171.222 572.658 171.445C575.025 167.069 576.048 162.095 575.608 157.14C575.06 150.265 572.545 145.008 567.368 140.531L574.542 139.811Z" fill="#D5D5D4"/>
<path d="M236.513 309.927C244.495 309.34 243.263 316.846 243.504 322.862C238.425 323.424 233.832 323.612 228.732 323.783C226.418 323.882 224.048 323.746 221.728 323.665C220.64 307.663 222.061 310.538 236.513 309.927Z" fill="#838383"/>
<path d="M265.381 156.906C267.597 168.843 271.473 173.826 276.14 184.606C278.702 190.526 278.784 194.809 276.268 200.697C275.455 201.823 275.973 201.57 274.847 201.794C265.883 192.426 263.028 169.436 265.381 156.906Z" fill="#5C5C5C"/>
<path d="M467.344 424.29C470.024 424.12 475.893 423.908 475.867 427.707C475.593 428.121 475.323 428.534 475.049 428.948C470.376 429.804 465.595 430.391 461.136 432.099C451.647 435.732 443.12 441.291 434.891 447.164L429.724 451.248C437.499 437.28 451.147 426.306 467.344 424.29Z" fill="#5C5C5C"/>
<path d="M463.119 270.092C463.307 271.653 460.548 275.276 460.031 277.111C455.11 294.537 461.636 306.146 477.737 312.438C475.479 312.576 473.135 312.637 470.868 312.728C454.953 310.686 448.736 290.664 456.085 277.792C458.055 274.339 460.052 272.567 463.119 270.092Z" fill="#5C5C5C"/>
<path d="M284.954 573.129C285.542 572.964 285.211 572.99 285.952 573.159C286.371 575.648 286.657 576.613 285.372 578.736C284.749 578.888 284.123 579.032 283.496 579.162L283.987 580.28L283.653 581.063C278.605 583.721 266.16 582.838 260.46 582.351C255.796 581.751 256.845 577.453 256.581 573.364C262.864 573.781 269.116 575.139 275.432 574.425C278.615 574.068 281.786 573.594 284.954 573.129Z" fill="black" fill-opacity="0.0117647"/>
<path d="M470.059 389.6C472.199 389.34 472.896 389.035 474.579 389.899C475.432 391.411 475.093 393.978 475.045 395.863C465.086 397.12 455.184 397.478 445.174 397.88L442.193 397.692C440.679 396.652 441.006 394.845 442.024 393.902C447.714 388.639 461.849 390.678 469.324 389.701L470.059 389.6Z" fill="#5C5C5C"/>
<path d="M340.594 134.713L342.145 135.374L342.169 135.982L340.397 136.914L338.837 135.988L338.724 135.462L340.594 134.713Z" fill="black" fill-opacity="0.270588"/>
<path d="M505.181 157.66L505.947 157.945C508.644 160.654 510.263 167.341 508.692 170.768C508.14 171.969 497.742 172.609 495.871 172.789L494.927 172.618C494.105 171.67 493.191 162.875 491.969 159.395C495.941 159.053 501.14 158.207 505.181 157.66Z" fill="#D5D5D4"/>
<path d="M408.837 244.222C414.913 243.45 439.979 244.36 441.985 250.217L441.371 251.191C439.492 251.43 433.829 249.821 431.731 249.327C422.876 247.862 413.679 247.736 404.742 248.201C403.293 248.277 398.178 248.782 397.275 248.188C396.877 244.825 406.351 244.465 408.837 244.222Z" fill="#5C5C5C"/>
<path d="M260.682 218.915C262.462 218.653 265.197 218.711 267.063 218.688C256.083 224.51 251.559 227.804 244.171 238.168C243.725 238.873 243.78 238.851 243.045 239.236C241.942 237.831 240.682 232.493 240.113 230.514C245.732 223.961 252.375 220.57 260.682 218.915Z" fill="#838383"/>
<path d="M448.65 259.757C454.902 259.445 458.935 259.955 464.921 261.906C457.364 262.416 453.266 264.164 446.853 267.983C444.182 269.774 442.002 271.611 439.535 273.646C438.348 270.62 437.543 269.068 435.681 266.45C440.458 262.668 442.837 261.305 448.65 259.757Z" fill="#838383"/>
<path d="M465.761 511.705C466.109 511.644 466.501 511.757 466.888 511.818C467.388 513.027 467.158 518.635 467.162 520.296C457.795 517.464 453.24 516.799 443.46 517.565C442.085 517.656 440.984 517.93 439.866 517.238C438.983 515.824 439.41 513.602 439.523 511.783C451.435 513.38 453.867 513.763 465.761 511.705Z" fill="#5C5C5C"/>
<path d="M375.032 506.615C386.993 508.464 387.783 509.995 401.606 508.033L401.481 514.563C400.761 515.663 397.553 514.48 396.352 514.154C389.292 512.218 382.165 512.37 374.927 512.518L375.032 506.615Z" fill="#5C5C5C"/>
<path d="M362.64 301.553L368.739 301.989C368.626 308.45 368.62 314.458 367.878 320.887C366.126 321.045 364.023 321.395 362.669 320.416C361.435 316.683 362.362 305.984 362.64 301.553Z" fill="#838383"/>
<path d="M475.123 507.482C475.754 506.142 476.145 504.867 477.376 504.102C480.261 505.254 479.734 516.156 479.204 518.783C478.233 522.642 477.959 524.099 476.289 527.727C475.514 526.435 474.849 525.091 474.296 523.694C472.356 518.696 472.926 512.354 475.123 507.482Z" fill="#838383"/>
<path d="M475.123 507.482C475.754 506.142 476.145 504.867 477.377 504.102C480.261 505.254 479.735 516.156 479.204 518.783C474.901 516.208 479.443 513.894 475.123 507.482Z" fill="#5C5C5C"/>
<path d="M166.298 264.54C168.332 264.508 169.854 264.716 171.852 264.948C171.616 271.029 171.256 277.104 170.773 283.171C168.955 283.233 166.992 283.516 165.569 282.453C164.678 279.035 165.662 268.202 166.298 264.54Z" fill="#838383"/>
<path d="M520.034 247.28C527.817 246.138 531.611 247.921 537.506 252.603L535.631 259.868C535.527 260.067 535.296 260.165 535.113 260.3C533.108 257.242 530.436 254.107 527.526 251.827C525.42 250.177 521.257 249.17 520.034 247.28Z" fill="#5C5C5C"/>
<path d="M411.448 501.939C413.703 504.55 411.718 519.235 409.205 521.611C405.921 515.094 406.991 507.577 411.448 501.939Z" fill="#838383"/>
<path d="M459.626 382.73C460.561 381.919 463.25 379.719 464.198 379.098C466.104 377.846 472.347 370.448 474 370.296L473.752 369.934L474.518 369.627L474.079 370.614L473.709 370.43L473.752 371.062L473.404 371.325C472.125 372.948 467.218 377.06 467.2 378.738C469.571 378.11 470.603 376.862 472.604 376.231C472.539 377.156 472.7 376.752 472.147 377.452C470.916 378.364 468.227 380.275 467.836 381.64C469.772 381.497 471.251 379.558 472.586 378.126C473.409 379.271 473.617 380.056 474.657 380.327C475.097 379.327 475.162 378.654 475.915 378.184C476.071 379.688 476.202 380.033 475.801 381.445C472.8 383.165 463.337 382.838 459.626 382.73Z" fill="black" fill-opacity="0.0117647"/>
<path d="M192.535 387.072C195.183 386.732 210.265 386.505 212.633 386.934L212.999 388.997C214.088 389.691 213.798 389.449 215.495 389.163C217.954 388.205 219.13 388.053 221.676 388.094C221.11 388.711 220.614 389.333 219.951 389.827C217.006 391.199 213.291 389.705 210.701 388.244C210.046 388.625 209.831 388.815 209.303 389.332C206.119 389.283 196.169 387.6 192.535 387.072Z" fill="#D5D5D4"/>
<path d="M407.554 254.986C412.329 254.408 419.55 254.363 424.327 255.365C425.675 258.336 426.459 257.798 429.361 260.363C428.123 260.364 427.293 259.677 426.193 259.023C425.537 258.572 419.535 258.008 418.313 257.836C419.813 257.37 421.321 256.93 422.836 256.515L422.868 256.163C418.144 254.695 415.142 258.186 408.574 256.672L408.093 256.425L407.554 254.986Z" fill="black" fill-opacity="0.054902"/>
<path d="M473.405 371.324L474.484 371.874L475.528 371.528C476.194 372.52 475.968 371.948 475.737 373.488C473.771 373.538 473.831 373.223 472.448 374.128L472.331 374.733C474.597 376.51 475.441 374.682 477.107 376.49C477.221 378.02 477.229 378.017 476.929 379.518L476.611 379.774L475.915 378.183C475.163 378.653 475.097 379.326 474.658 380.326C473.618 380.055 473.409 379.27 472.587 378.125L472.148 377.451C472.7 376.751 472.539 377.155 472.605 376.23C470.603 376.861 469.572 378.109 467.201 378.737C467.219 377.059 472.126 372.947 473.405 371.324Z" fill="#D5D5D4"/>
<path d="M825.545 225.516C824.279 219.648 823.191 216.986 820.964 211.443C820.777 210.976 820.816 211.129 821.077 210.631C823.975 213.207 826.594 218.451 827.603 222.167C826.968 223.052 825.741 224.529 825.545 225.516Z" fill="black" fill-opacity="0.0235294"/>
<path d="M240.534 377.016C242.703 376.953 246.071 376.393 248.451 376.214C252.418 375.915 255.581 376.065 259.551 376.261C254.394 378.023 245.045 376.292 242.653 378.244L242.76 378.848L244.637 379.846C244.526 379.839 239.952 379.485 240.254 379.413C237.743 380.017 237.371 381.512 234.484 382.23C236.101 380.781 238.862 378.167 240.534 377.016Z" fill="#838383"/>
<path d="M470.403 168.824L470.916 168.756C471.16 170.837 471.268 176.21 470.981 178.309C470.094 179.735 469.21 185.5 469.889 186.898L467.992 188.362C467.479 186.405 467.388 181.972 468.427 180.149C470.324 175.318 470.198 174.09 470.403 168.824Z" fill="#D5D5D4"/>
<path d="M424.327 255.365C425.37 254.926 425.301 254.971 426.435 255.113L426.425 255.406L426.094 254.969L426.671 255.287L426.073 256.426C426.921 257.407 429.805 257.785 430.976 257.379L431.686 255.784C432.669 255.933 432.253 255.74 432.906 256.469C432.943 258.981 430.773 259.467 431.406 261.11L432.831 260.648L432.614 261.299C430.703 261.901 425.471 261.108 424.91 259.427C425.345 259.283 425.75 259.14 426.193 259.023C427.293 259.677 428.123 260.364 429.361 260.363C426.459 257.798 425.675 258.336 424.327 255.365Z" fill="#D5D5D4"/>
<path d="M249.098 336.765C248.3 332.229 249.045 323.778 249.737 319.133C249.84 320.961 250.157 332.967 250.45 333.407C250.938 332.724 250.947 332.76 251.556 332.174L252.328 332.752L253.124 333.389C252.629 334.815 250.439 335.969 249.098 336.765Z" fill="#5C5C5C"/>
<path d="M250.449 333.406C250.938 332.723 250.947 332.759 251.555 332.174L252.328 332.751L253.124 333.388C252.629 334.815 250.439 335.968 249.098 336.764C249.172 335.454 249.157 334.771 249.524 333.486L249.805 333.759L250.449 333.406Z" fill="#D5D5D4"/>
<path d="M531.524 407.105C534.631 407.155 541.013 407.94 543.937 408.764L544.267 409.562C539.09 410.346 535.601 411.071 531.524 407.105Z" fill="black" fill-opacity="0.01"/>
<path d="M245.244 380.081C249.137 378.763 255.582 380.021 259.735 380.052C261.539 380.065 263.749 379.802 265.66 379.719L266.264 380.145L265.969 380.617C261.028 380.861 249.379 381.756 245.244 380.081Z" fill="#5C5C5C"/>
<path d="M539.112 441.217C539.947 443.657 540.634 444.358 540.173 446.62L539.434 447.316C536.597 446.972 536.384 444.819 535.274 442.43C536.945 442.557 537.176 442.657 538.716 442.135L539.112 441.217Z" fill="black" fill-opacity="0.101961"/>
<path d="M215.496 389.162C214.567 389.078 214.266 388.979 213.358 388.735L213.003 388.064C214.782 386.392 219.294 386.613 221.782 386.535L221.677 388.092C219.13 388.052 217.954 388.204 215.496 389.162Z" fill="black" fill-opacity="0.0196078"/>
<path d="M469.889 186.897L470.99 185.893L472.273 188.658C471.02 190.249 470.955 190.859 469.241 191.529L467.771 191.081C467.884 190.376 467.936 189.119 467.992 188.361L469.889 186.897Z" fill="black" fill-opacity="0.0235294"/>
<path d="M392.006 256.274C400.571 254.215 399.407 256.78 406.095 256.18L408.093 256.425L408.574 256.672C406.413 257.3 394.812 256.474 392.006 256.274Z" fill="#D5D5D4"/>
<path d="M299.553 304.492C299.554 302.669 300.06 302.188 300.967 300.529L301.641 299.287C301.257 302.456 301.092 309.763 300.243 312.032C300.212 309.882 300.486 306.168 299.553 304.492Z" fill="#D5D5D4"/>
<path d="M495.349 187.82C494.435 186.22 494.683 180.892 495.723 179.443L496.237 179.951C496.493 181.37 496.732 181.408 496.332 182.582C496.045 184.234 495.754 186.223 495.349 187.82Z" fill="#D5D5D4"/>
<path d="M469.889 186.898C469.21 185.5 470.093 179.735 470.981 178.309C471.124 181.088 471.29 183.119 470.99 185.893L469.889 186.898Z" fill="black" fill-opacity="0.168627"/>
<path d="M550.275 450.926C552.329 452.705 552.581 455.211 551.023 457.373L550.614 457.025C550.554 454.349 549.853 454.088 550.275 450.926Z" fill="black" fill-opacity="0.0470588"/>
<path d="M168.821 585.266C170.387 587.28 171.915 586.975 172.529 588.598L172.337 589.268C170.687 588.467 168.127 587.519 167.434 585.944L168.821 585.266Z" fill="black" fill-opacity="0.14902"/>
<path d="M472.587 378.125C471.251 379.557 469.772 381.497 467.836 381.639C468.227 380.274 470.916 378.363 472.147 377.451L472.587 378.125Z" fill="#838383" fill-opacity="0.964706"/>
<path d="M406.096 256.18C404.929 256.014 402.742 255.934 402.134 255.21C404.112 254.688 405.515 254.893 407.554 254.986L408.093 256.425L406.096 256.18Z" fill="black" fill-opacity="0.25098"/>
<path d="M545.498 442.76L546.969 442.107L547.034 442.421C547.369 443.908 548.252 445.5 548.252 446.801L548.191 446.558L547.782 446.845L548.061 446.131L547.456 446.336C546.786 445.17 546.042 443.978 545.498 442.76Z" fill="black" fill-opacity="0.0470588"/>
</g>
<defs>
<clipPath id="clip0_15479_18230">
<rect width="891" height="753" fill="white"/>
</clipPath>
</defs>
</svg>
