<svg width="1475" height="1272" viewBox="0 0 1475 1272" fill="none" xmlns="http://www.w3.org/2000/svg">
<g clip-path="url(#clip0_15479_17795)">
<path d="M274.704 0H285.865C330.155 19.2973 330.725 94.975 328.764 135.912C328.223 147.214 326.58 158.814 326.039 170.129C368.638 160.208 381.946 161.33 424.56 170.613C430.194 156.313 439.555 131.099 446.571 117.38C461.414 88.3536 486.255 43.8744 517.101 30.1471C524.808 26.7175 531.804 26.2847 539.56 29.3257C547.834 32.5697 555.691 41.6766 558.442 50.1685C572.122 92.3943 559.914 145.205 542.986 184.826C536.302 200.469 527.185 215.486 519.729 229.935C570.806 288.533 580.054 355.958 574.827 431.638C573.8 445.366 572.429 459.065 570.713 472.725C570.031 478.416 568.431 488.061 568.227 493.532C567.889 502.627 570.538 514.882 570.709 524.147C571.179 549.717 559.755 578.832 540.279 595.769C530.178 604.554 519.94 609.103 507.334 612.641C497.931 623.421 491.364 630.739 480.754 640.407C497.909 657.476 514.367 680.351 523.536 702.649C530.82 720.365 538.459 742.002 541.42 760.91C567.756 760.42 593.317 760.333 619.764 759.167C634.995 705.627 664.813 662.793 712.448 632.78C718.218 629.144 727.114 626.739 733.704 624.741C715.358 617.966 697.718 607.446 682.262 595.511C653.989 573.677 639.354 545.481 629.921 511.953C611.198 498.391 605.135 488.43 600.967 464.709C597.176 443.136 600.959 409.82 614.444 391.854C619.11 385.637 626.314 379.16 629.88 372.206C638.799 354.815 643.513 339.722 653.652 322.479C684.332 271.347 736.614 236.958 795.715 229.035C847.714 222.037 900.369 235.962 942.12 267.753C969.647 288.912 991.095 316.976 1004.27 349.101C1010.63 364.308 1011.76 377.819 1023.81 390.047C1032.42 398.788 1034.7 415.114 1036.66 426.691C1040.3 452.28 1037.41 481.896 1021.23 503.162C1016.27 509.592 1010.27 515.157 1003.5 519.634C1000.72 521.452 994.631 524.186 992.939 526.564C988.574 532.689 985.34 540.257 981.336 546.717C974.516 557.716 966.557 567.178 958.159 576.96C968.963 578.808 979.946 578.898 990.944 580.69C1011.43 584.029 1031.8 589.824 1051.9 595.239C1058.61 590.733 1070.93 584.968 1078.48 581.591C1096.01 573.751 1109.22 567.927 1124.76 556.539C1118.28 551.721 1111.14 546.556 1105.56 540.762C1085.18 519.548 1072.69 490.65 1068.49 461.686C1064.05 430.877 1069.06 399.057 1066.07 368.175C1064.5 351.946 1053.59 337.439 1051.8 320.422C1049.5 298.597 1055.13 284.361 1067.19 266.439C1060.7 248.721 1055.5 223.012 1078.53 215.246C1091.61 210.836 1107.55 212.765 1121.11 210.992C1171 202.479 1220.66 186.102 1269.34 210.42C1284.72 218.099 1295.51 228.96 1302.21 245.054C1322.86 254.845 1335.13 263.81 1343.33 286.588C1354.95 318.852 1346.88 349.045 1338.02 380.548C1347.82 394.979 1352.1 411.729 1348.72 429.013C1345.78 444.933 1336.57 459.01 1323.18 468.097C1314.2 474.138 1306.71 476.34 1296.46 478.85C1291.22 493.191 1287.46 503.848 1279.74 517.072C1295.11 527.221 1305.66 540.261 1320.4 549.83C1329.83 555.954 1345.43 559.898 1355.8 565.212C1382.32 576.271 1421.04 592.045 1436.66 617.266C1445.62 631.721 1452.77 661.824 1456.2 678.582C1462.86 712.345 1467.67 746.446 1470.63 780.731C1471.6 791.658 1472.42 802.606 1473.08 813.554C1473.41 818.978 1473.73 832.858 1475 837.122V871.19C1472.98 878.35 1473.19 887.699 1471.62 895.355C1465.69 924.368 1448.3 941.734 1424.99 958.271C1429.18 985.764 1441.91 1057.01 1433.33 1079.29C1425.43 1086.4 1411.11 1094.24 1401.52 1099.14C1358.97 1120.76 1313.32 1135.62 1266.2 1143.22C1266.04 1165.08 1264.26 1187.12 1263.55 1209.01C1263.02 1225.63 1262.55 1242.52 1260.95 1259.08C1260.7 1261.69 1260.28 1265.73 1258.24 1267.64C1254.9 1270.42 1248.38 1270.7 1245.3 1267.6C1243.36 1262.85 1245.52 1250.04 1245.86 1244.44C1248.14 1207.2 1249.75 1169.92 1250.97 1132.63C1251.3 1122.41 1249.61 1111.72 1250.83 1101.7C1251.03 1100.22 1252.51 1099.41 1253.59 1098.65C1261.05 1098.59 1262.87 1108.3 1266 1113.41C1292.54 1110.88 1327.59 1103 1347.33 1084.31C1322.77 1064.11 1320.16 1030.89 1286.3 1016.53C1275.46 1020.32 1248.46 1030.37 1238.26 1032.15C1219.4 1035.43 1187.29 1029.72 1167.08 1028.48C1155.16 1033.96 1141.26 1046.38 1136.33 1058.72C1124.67 1087.87 1127.03 1121.76 1126.99 1152.58C1126.88 1176.38 1126.91 1200.18 1127.06 1223.99C1127.12 1237.05 1127.76 1252.6 1126.3 1265.59C1126.01 1268.24 1124.4 1270.15 1122.6 1272H1117.05C1108.54 1260.59 1110.84 1243.82 1110.89 1230.06L1111.08 1184.8C1111.1 1179.83 1111.39 1168.86 1110.62 1164.46C1102.3 1165.82 1082.19 1166.2 1076.65 1169.47C1075.86 1189.64 1074.81 1209.8 1073.51 1229.94C1072.98 1238.86 1075.19 1269.54 1062.6 1270.04C1053.9 1270.39 1057.07 1251.19 1057.37 1245.54L1059.34 1210.32C1060.64 1188.18 1062.06 1164.11 1061.54 1141.99C1061.35 1133.51 1060.95 1125.02 1060.31 1116.55C1059.82 1110.11 1056.27 1091.67 1060.45 1087.67C1067.43 1088.4 1072.98 1109.03 1074.55 1115.01C1086.14 1113.32 1100.98 1111.03 1112.54 1110.54C1113.86 1077.26 1116.68 1049.94 1143.2 1026.63C1104.94 1023.5 1066.8 1022.2 1028.6 1019.03C1013.06 1017.74 992.398 1016.89 977.562 1014C936.971 1034.38 940.629 1083.75 940.982 1122.57C941.393 1167.75 943.611 1213.31 944.346 1258.5C944.403 1262 942.884 1267.09 939.837 1269.19C930.359 1270.57 927.176 1257.63 926.953 1250.4C926.045 1221.21 926.139 1191.99 926.067 1162.79C926.052 1156.43 925.627 1150.01 925.642 1143.68C908.429 1151.56 886.801 1157.98 868.529 1163.78C866.951 1181.79 869.335 1234.8 855.543 1246.3C853.375 1248.11 851.539 1248.77 848.752 1248.92C841.189 1245.73 844.639 1231.99 845.907 1225.34C853.743 1184.23 860.167 1127.3 815.931 1104.35C793.23 1092.57 773.014 1094.19 757.63 1115.7C756.017 1117.96 754.238 1120.65 753.028 1123.22C740.727 1158.87 747.943 1200.28 742.023 1237.24C741.317 1241.61 730.197 1246.04 728.519 1239.15C726.747 1212.98 729.39 1186.47 731.076 1160.31C731.385 1155.49 731.645 1149.74 732.343 1144.99C726.07 1146.24 721.59 1146.72 715.271 1147.35C715.788 1164.12 715.408 1227.6 696.788 1233.98C691.918 1233.89 678.409 1233.56 675.812 1227.85C674.384 1224.71 675.673 1216.22 676.1 1212.35C677.593 1198.78 680.921 1185.27 682.965 1171.77C685.516 1154.53 685.513 1136.47 690.838 1119.76C684.659 1104.49 657.572 1088.08 642.45 1082.42C644.419 1088.71 646.212 1095.04 647.829 1101.43C650.939 1114.69 652.863 1128.2 653.58 1141.81C654.762 1161.45 654.377 1237.46 644.684 1252.39C643.331 1254.48 642.192 1255.39 639.793 1255.97C628.761 1253.71 633.79 1230.45 634.715 1222.33C638.188 1191.83 639.98 1162.04 638.582 1131.32C637.283 1102.73 627.973 1084.22 610.139 1062.56C574.585 1065.45 534.341 1068.62 499.103 1073.49C517.314 1098.13 526.034 1129.91 527.148 1160.29C527.712 1175.69 525.771 1257.73 518.183 1265.11C516.747 1266.51 514.862 1267.21 512.864 1267.12C505.758 1266.8 505.014 1262.44 504.96 1256.51C504.83 1242.2 506.497 1227.85 507.76 1213.61C512.169 1163.91 514.503 1117.4 480.326 1076.47C472.387 1074.29 460.926 1072.47 452.436 1070.58C435.525 1066.64 418.667 1062.47 401.866 1058.09L322.63 1038.39C315.578 1036.58 301.633 1030.88 295.875 1029.98C284.566 1028.21 269.442 1029.39 257.23 1028.56C207.871 1025.21 177.817 1015.65 137.257 988.623C129.272 997.821 126.735 1003.77 116.484 1014.11C121.7 1054.91 113.253 1095.32 147.442 1129.44C154.669 1136.65 166.327 1146.13 175.558 1150C213.002 1165.72 292.422 1184.62 331.228 1184.89C332.031 1175.19 333.588 1154.22 345.532 1151.43C346.505 1151.69 348.52 1152.33 348.379 1153.57C344.696 1185.97 344.543 1219.36 349.975 1251.9C352.063 1264.42 346.832 1276.47 337.004 1268.61C330.365 1263.3 329.198 1210.99 329.094 1201.74C272.355 1193.13 177.413 1183.26 135.979 1142.01C108.806 1114.94 101.244 1071.23 101.47 1034C62.7782 1039.19 14.8543 1026.71 4.41367 984.223C3.09671 978.864 1.89422 970.365 0 965.668V925.11C1.13698 922.006 1.74359 913.823 2.04146 910.071C2.85562 899.317 4.10406 888.347 4.03251 877.565C3.91292 859.536 -0.453426 840.125 6.73887 822.903C9.88977 815.362 14.1722 811.3 20.0097 805.747C21.4975 781.87 27.1978 755.219 30.3276 731.126C35.6976 689.776 34.1967 634.243 62.6145 600.79C82.1383 577.806 130.386 565.645 159.837 563.562C142.75 530.288 135.029 509.172 134.021 470.387C132.249 402.188 161.635 295.378 209.983 245.559C192.232 178.14 195.201 117.575 224.099 53.0047C234.99 28.6698 249.215 9.32925 274.704 0ZM217.902 262.013C200.731 282.179 192.029 299.331 181.144 323.219C156.864 376.5 147.682 431.459 151.697 489.443C156.441 557.968 200.21 593.659 254.301 627.063C267.461 635.191 333.576 665.662 334.742 676.649C334.293 676.792 333.844 676.935 333.395 677.078C316.14 670.515 285.204 654.136 269.722 647.58C274.794 661.596 280.774 676.371 284.089 690.891C298.888 755.702 288.759 817.429 249.089 871.025C272.037 880.547 294.84 886.892 315.739 900.678C321.533 904.503 340.417 904.236 347.201 909.055C351.582 911.338 357.073 917.345 360.326 921.199C369.48 917.547 378.719 914.111 388.034 910.899C388.476 898.806 390.557 885.819 391.744 873.704C396.944 820.635 396.923 769.366 388.933 716.564C382.737 675.615 380.247 672.177 347.839 646.984C291.516 603.097 255.833 572.538 246.327 496.265C239.487 433.835 266.417 364.29 303.451 315.156C330.242 279.612 375.19 250.634 419.226 245.162C482.726 237.27 538.96 287.392 546.014 349.442C547.948 366.456 541.988 387.786 533.841 402.625C542.647 420.737 551.528 446.787 557.826 465.78C561.849 387.082 567.775 306.871 510.499 243.306C479.963 209.416 428.514 182.134 382.49 179.401C361.212 178.137 343.908 182.007 324.218 189.678C321.237 197.859 313.716 218.193 306.816 222.549C295.985 222.524 309.686 186.937 309.971 180.987C311.641 146.118 326.613 17.6771 271.087 18.1066C243.602 35.2933 227.901 83.8144 220.671 114.29C211.299 153.791 214.672 202.324 225.138 241.305C227.467 249.977 234.083 262.37 229.532 267.721C224.105 269.742 221.135 265.648 217.902 262.013ZM996.036 368.861C970.05 313.18 943.568 276.502 883.869 254.862C781.671 217.819 681.904 274.636 646.638 373.924C626.228 431.39 627.314 479.057 653.401 534.743C671.237 573.356 704.522 596.902 743.283 612.07C754.54 616.476 776.118 620.084 788.362 618.174C809.046 617.559 854.773 605.231 874.262 596.604C915.912 578.166 940.176 553.99 956.755 511.622C953.053 504.76 949.582 500.648 946.629 492.5C937.741 467.953 939.484 436.15 946.701 411.246C950.41 398.444 958.721 379.889 970.864 373.134C979.298 368.439 986.702 368.652 996.036 368.861ZM1231.79 1019.57C1233.5 1017.7 1235.35 1015.77 1237.01 1013.86C1236.24 996.186 1232.86 982.278 1229.5 964.948L1218.73 909.041L1207.35 849.445C1205.09 837.208 1203.1 824.704 1200.32 812.553C1199.43 808.7 1196.36 799.142 1193.5 796.239C1191.24 793.948 1185.37 792.321 1181.98 792.054C1161.01 790.419 1139.74 789.245 1118.75 788.157L991.757 782.395C972.189 781.545 952.628 780.595 933.074 779.543C924.403 779.039 904.719 777.317 896.739 777.973C893.743 781.704 893.153 782.698 891.23 787.171C893.765 803.11 897.942 818.841 901.709 834.536C906.066 852.895 910.323 871.277 914.471 889.68L926.218 941.871C930.143 959.589 934.479 980.535 941.292 997.31C963.014 999.925 983.468 1000.99 1005.26 1002.4C1035.05 1004.2 1064.82 1006.23 1094.58 1008.46L1186.96 1015.71C1201.07 1016.87 1218.03 1019.23 1231.79 1019.57ZM1303.44 645.613C1312.3 652.676 1318.76 658.443 1324.93 668.068C1317.35 687.654 1308.58 705.389 1299.22 724.14C1284.58 753.916 1268.85 783.152 1252.07 811.782C1242.83 827.902 1232.65 846.687 1223.13 862.396C1225.62 873.639 1227.91 884.926 1229.99 896.249C1238.29 895.053 1265.93 895.024 1268.62 894.16C1295.24 885.567 1324.71 865.968 1350.65 853.889C1348.52 821.218 1340.02 718.741 1356.66 695.386C1360.88 710.196 1358.78 724.039 1358.68 739.129C1358.44 775.301 1363.29 811.213 1365.64 847.155C1372.51 845.441 1379.86 843.258 1386.93 843.482C1393.75 844.72 1414.57 847.652 1415.14 856.23C1414.49 857.894 1414.78 858.247 1413.14 858.859C1406.8 861.229 1381.98 856.879 1377.19 858.463C1351.63 866.876 1317.04 885.387 1294.05 898.438C1298.1 901.031 1302.1 903.617 1306.02 906.405C1331.32 924.339 1340.98 952.099 1337.23 982.307C1377.4 969.716 1429.14 947.374 1451.23 908.573C1460.6 892.122 1459.52 875.908 1459.21 857.534C1458 784.225 1450.32 710.341 1429.99 639.69C1420.73 607.533 1387.77 599.028 1360.84 586.741C1347.91 580.845 1335.8 573.608 1322.49 568.276C1324.53 588.76 1328.91 607.822 1331.04 627.715C1320.97 636.305 1315.42 639.662 1303.44 645.613ZM482.355 913.168L501.349 838.555C506.244 819.194 513.767 780.17 528.071 766.571C522.162 744.66 508.547 691.861 491.135 677.599C504.36 729.146 503.484 766.124 490.009 818.02C487.213 828.788 481.523 845.779 480.02 856.173C476.749 878.775 474.233 900.196 469.83 922.776C472.49 924.995 475.014 927.098 477.773 929.194L482.355 913.168ZM672.429 687.815C658.096 702.851 637.109 737.061 637.031 758.497C645.076 757.877 653.746 757.179 661.803 756.998C663.955 738.588 665.592 720.401 669.682 702.314C670.704 697.794 672.145 692.317 672.429 687.815ZM1098.75 625.452C1105 630.622 1115.55 639.181 1121.06 644.694C1111.65 653.642 1100.28 659.281 1089.89 667.562C1098.15 693.355 1104.63 723.448 1112.66 750.343C1114.84 757.618 1117.66 768.206 1120.17 775.092C1129.31 775.437 1139.17 775.625 1148.26 776.179C1139.21 724.377 1132.49 673.997 1132.06 621.335C1131.98 611.667 1131.67 602.496 1132.47 592.801C1133.06 585.474 1136.37 571.363 1135.68 564.589C1118.93 581.814 1107.1 603.1 1098.75 625.452ZM906.462 917.77C895.868 921.869 883.286 928.056 873.052 931.535C893.887 945.904 912.145 965.128 906.448 992.578L903.834 1002.9C911.101 1000.18 918.908 997.058 926.297 994.854C920.665 978.496 911.569 925.787 906.462 917.77ZM414.8 920.046C391.512 925.261 350.106 933.998 338.546 954.627C327.13 974.996 321.186 1013.29 356.819 1001.49C372.455 996.316 379.851 988.652 394.657 983.236C402.316 981.486 429.047 1008.31 438.632 1003.25C453.914 995.164 424.148 969.601 419.491 965.935C415.793 963.738 409.634 960.763 408.152 956.708C408.948 954.151 408.269 955.188 410.179 953.417C422.726 949.167 444.562 979.807 454.457 985.577C458.815 988.119 465.326 987.169 466.138 982.141C467.966 970.818 451.468 957.969 443.937 951.875C439.5 948.281 427.263 941.604 427.597 936.584C429.684 935.331 434.916 935.777 437.136 936.433C451.549 940.689 460.897 951.069 470.746 961.513L474.867 946.171C458.302 930.058 438.825 917.288 414.8 920.046ZM1243.97 560.542C1252.66 552.001 1261.02 544.892 1266.32 533.79C1265.6 527.119 1265.1 520.427 1264.8 513.725C1269.58 505.969 1273.56 499.268 1276.75 490.586C1279.9 482.039 1282.13 472.504 1285.41 464.072C1303.11 460.583 1313.18 458.181 1326.42 440.847C1337.85 425.875 1341.08 383.777 1311.38 384.827C1303.24 385.115 1292.98 413.88 1282.1 412.17C1273.95 405.524 1278.37 391.409 1276.02 383.308C1270.98 366.002 1259.44 350.623 1256.21 332.621C1252.72 315.832 1260.58 304.587 1256.92 289.091C1253.29 285.366 1251.42 283.153 1245.79 283.202C1235.09 283.294 1223.18 287.761 1212.78 290.082C1165.41 300.658 1144.63 301.033 1102.09 278.361C1091.75 295.644 1082.84 313.688 1082.92 335.12C1083.16 408.82 1063.38 495.407 1133.83 544.1C1173.96 571.837 1220.54 536.056 1229.93 539.247C1234.4 543.759 1229.89 550.556 1226.09 553.799C1210.44 567.178 1183.52 567.683 1163.93 567.648C1170.05 580.71 1174.62 584.972 1188.2 590.814C1209.42 583.759 1226.12 573.957 1243.97 560.542ZM963.828 767.363C973.061 767.738 982.294 768.228 991.513 768.818C994.696 743.652 999.644 721.864 1003.82 697.306C999.752 689.549 992.744 675.306 983.9 672.48C982.229 671.937 980.45 671.798 978.707 672.074C968.891 675.5 963.381 679.65 957.907 688.681C947.378 706.067 942.099 726.322 939.261 746.302C938.339 752.821 938.116 760.009 936.942 766.348L963.828 767.363ZM325.075 1012.47C319.868 1004.48 315.13 998.513 315.793 988.314C317.419 963.306 326.779 943.189 345.11 926.442C336.525 920.875 332.602 917.778 322.096 916.863C297.141 928.971 272.279 975.709 285.266 1002.01C288.424 1008.3 293.999 1013.04 300.716 1015.15C304.579 1016.36 311.693 1016.57 316.012 1016.84C319.61 1016.11 322.048 1014.53 325.075 1012.47ZM1242.34 970.372C1247.27 968.917 1252.09 967.347 1257.19 966.648C1268.32 965.121 1278.51 971.618 1289.34 971.841C1321.88 971.618 1300.97 936.289 1286.74 925.737C1267.27 911.317 1255.97 909.365 1232.49 909.775C1233.63 918.591 1235.27 933.501 1237.5 942.015C1241.74 940.531 1248.22 936.879 1250.39 942.209C1249.49 947.489 1245.07 952.279 1241.36 956.11L1242.34 970.372ZM1236.19 636.775C1240.46 631.668 1248.95 621.726 1252.38 616.775C1259.82 606.035 1279.38 559.039 1272.42 548.637C1251.18 577.233 1235.08 581.401 1206.84 597.065C1212.74 604.417 1219.43 612.421 1224.96 619.956C1229.56 626.109 1232.26 630.032 1236.19 636.775ZM1251.73 636.435C1233.63 659.549 1234.73 647.012 1219.47 632.978C1215.35 640.76 1211.35 648.607 1207.48 656.516C1211.42 683.596 1218.63 726.142 1219.76 752.497C1222.75 743.176 1225.16 734.605 1227.71 725.141C1235.45 696.289 1244.43 665.183 1251.73 636.435ZM1284.82 643.774C1293.33 633.911 1306.29 628.741 1318.17 623.311C1313.61 599.639 1309.8 553.52 1287.05 540.463C1287.66 566.978 1269.8 618.976 1262.03 646.379L1229.33 762.509C1224.03 781.185 1216.67 802.455 1214.82 821.765C1214.14 828.759 1217.47 841.011 1219.31 848.156C1225.89 837.568 1231.93 826.642 1237.39 815.427C1256.85 779.91 1275.44 743.306 1293.84 707.169C1300.01 695.043 1304.17 682.705 1309.71 670.897C1301.11 662.965 1290.05 654.077 1284.82 643.774ZM1149.36 631.91L1159.65 617.577C1165.11 610.892 1170.93 605.169 1176 598.176C1169.2 593.754 1167.34 592.264 1162.09 586.344C1159.09 582.958 1149.32 568.105 1146.79 566.44C1141.86 588.968 1143.97 609.812 1149.36 631.91ZM936.503 1038.24C936.078 1037.73 935.638 1037.24 935.199 1036.75C929.61 1030.52 915.674 1020.7 907.42 1020.24C895.645 1030.64 833.195 1046.81 815.989 1045.62C811.97 1045.36 807.98 1044.73 804.077 1043.75C797.451 1042.51 795.744 1036.31 789.175 1040.08C786.683 1041.51 779.805 1046.9 777.688 1047.24C752.408 1051.3 718.817 1053.17 694.074 1054.85C709.398 1075.7 720.287 1093.73 721.943 1119.84C722.462 1123.24 722.037 1130.55 726.661 1130.93C734.943 1131.77 738.688 1119.97 739.913 1113.63C746.409 1080.07 772.488 1049.49 809.363 1053.25C845.251 1056.9 862.277 1083.62 871.244 1115.06C887.65 1110.3 907.924 1097.31 924.936 1089.89C926.592 1089.34 926.448 1082.58 926.564 1080.7C927.521 1065.5 930.755 1052.36 936.503 1038.24ZM440.42 175.79C448.827 180.703 461.298 186.524 470.153 190.998C478.66 166.626 498.274 108.617 517.86 92.0644L519.049 92.3993C524.404 93.8845 527.665 92.9857 531.155 99.229C537.19 110.027 531.928 125.769 528.978 136.662C522.388 160.993 506.855 188.122 500.695 211.777C501.462 213.501 504.969 217.057 506.411 218.64C534.07 179.37 553.492 120.138 546.849 71.8483C545.562 62.4962 542.947 49.9238 532.517 46.9438C517.483 42.6484 505.301 58.889 496.77 68.7698C470.1 100.482 453.447 136.84 440.42 175.79ZM932.455 636.377C922.228 633.357 910.733 630.643 900.888 627.239C893.988 647.681 881.507 669.1 861.118 678.17C818.87 696.965 753.035 697.652 750.997 637.277C714.739 677.653 716.161 705.831 707.253 755.544L794.102 753.08C835.384 751.611 882.105 739.373 862.306 801.432C856.047 820.094 852.461 836.581 847.657 855.589C841.708 879.106 834.29 902.861 828.578 926.399C841.225 924.303 845.165 924.699 857.956 926.046C873.772 918.505 888.371 908.688 904.482 900.844L891.057 844.259C886.613 826.245 881.752 808.26 879.476 789.778C878.374 780.875 882.249 772.65 882.688 764.972C884.777 728.85 888.371 694.38 908.011 662.907C916.171 649.831 920.363 645.56 932.455 636.377ZM1323.28 969.464C1337.99 956.161 1303.1 909.343 1286.02 908.846C1302.16 919.168 1326.74 950.024 1314.2 969.86C1313.84 970.422 1313.48 970.97 1313.11 971.517L1323.28 969.464ZM1163.53 632.243C1158.21 639.458 1153.56 648.325 1144.13 640.689C1144.72 662.843 1147.12 685.821 1149.5 707.905C1150.69 718.92 1151.67 734.224 1153.32 744.79L1153.55 745.971C1155.45 744.113 1156.43 734.231 1156.66 731.206C1158.55 705.602 1167.27 681.503 1171.6 656.555C1172.33 652.353 1165.93 636.001 1163.53 632.243ZM1051.66 681.405C1057.17 690.17 1056.43 705.701 1056.85 716.157C1057.6 734.771 1057.97 753.404 1057.97 772.038C1075.09 773.097 1092.23 773.954 1109.37 774.624C1103.86 756.998 1075.44 673.341 1082.22 660.057C1085.57 653.5 1094 649.262 1100.06 645.567C1095.17 639.594 1089.63 633.21 1085.46 626.776C1088.66 617.264 1099.09 596.951 1103.8 587.745L1103.12 587.031C1076.43 598.157 1044.92 607.671 1033.93 636.86C1018.17 678.702 1013.97 726.409 1004.11 769.891C1017.95 769.769 1031.35 770.828 1045.11 770.871C1045.1 744.999 1045.17 718.174 1047.22 692.298C1047.55 688.169 1048.06 685.092 1051.03 682.056L1051.66 681.405ZM1409.14 967.159C1370.71 990.871 1344.26 992.873 1305.25 1010.27C1327.35 1028.89 1328.9 1035.64 1343.32 1060C1352.11 1072.25 1363.62 1080.83 1378.74 1082.99C1389.17 1084.47 1405.3 1085 1414.46 1078.69C1417.66 1076.49 1419.88 1073.61 1420.16 1069.78C1421.61 1050.03 1416.7 984.23 1410.91 968.398L1409.14 967.159ZM283.728 526.262C304.698 561.542 340.042 589.414 380.006 599.52C403.472 605.47 428.345 601.776 449.071 589.264C474.727 573.775 496.649 544.645 503.592 515.482C506.786 502.061 507.031 486.35 508.823 472.437C516.478 413.016 528.598 357.765 480.197 311.628C471.579 326.123 462.308 341.502 447.823 350.56C439.134 355.994 425.64 364.586 415.56 366.731C393.978 371.325 402.566 355.134 408.563 345.815C390.231 358.433 383.386 362.634 363.357 372.759C371.201 373.823 390.38 374.871 389.334 387.294C389.224 388.597 388.775 388.532 387.758 389.412C381.576 390.039 369.733 381.958 361.17 384.004C354.686 385.552 341 396.611 335.547 393.311C334.78 387.043 341.73 381.865 346.206 378.565C331.515 382.343 323.976 384.337 309.069 386.03C301.463 410.93 290.991 441.555 262.4 447.421C261.087 463.433 259.048 480.767 260.941 496.688L268.776 495.748C275.918 506.404 277.694 515.623 283.728 526.262ZM447.841 609.758C429.012 634.969 407.478 650.348 390.719 676.007C406.475 755.731 410.116 827.916 396.85 908.558C421.192 905.238 432.73 905.158 456.54 914.435C458.561 905.338 461.375 894.03 462.683 884.991C470.833 825.179 472.933 773.622 460.052 713.98C455.951 694.987 454.707 682.258 444.47 664.397C433.535 670.204 423.401 674.9 412.332 680.289C428.84 662.272 444.73 651.683 464.468 637.629C472.686 631.776 481.02 623.099 487.803 615.667C473.129 617.306 461.362 615.782 447.841 609.758ZM172.805 649.855C144.191 666.746 133.139 693.591 125.351 723.83C114.531 766.412 106.904 809.751 102.535 853.472C101.228 866.213 99.242 881.872 100.162 894.513C106.706 984.41 203.312 1011.43 277.102 1011.39C274.251 1000.31 272.134 996.489 272.266 984.395C276.371 949.808 281.752 938.01 307.115 913.355C299.317 908.565 291.019 904.546 282.621 900.916C270.061 895.485 213.856 874.201 202.85 874.352C199.462 874.396 175.244 878.112 174.266 877.341C173.687 876.888 173.396 876.153 172.96 875.562C172.917 873.222 173.213 872.141 174.945 870.369C186.659 858.384 208.972 862.18 223.262 866.336C229.047 848.091 230.352 831.683 232.403 812.812C237.344 767.349 239.052 720.085 217.147 678.369C207.014 659.072 195.206 648.298 172.805 649.855Z" fill="#373637"/>
<path d="M690.838 1119.76C709.392 1144.79 696.371 1192.47 693.28 1220.9C692.63 1226.86 692.324 1229.69 696.789 1233.98C691.918 1233.89 678.409 1233.56 675.812 1227.85C674.384 1224.71 675.673 1216.22 676.1 1212.35C677.593 1198.78 680.921 1185.27 682.965 1171.77C685.516 1154.53 685.513 1136.47 690.838 1119.76Z" fill="#DEDEDD"/>
<path d="M1076.17 1131.32C1088.15 1128.93 1100.09 1126.38 1112 1123.68C1112.05 1130.04 1112.03 1159.9 1110.62 1164.46C1102.3 1165.82 1082.19 1166.2 1076.65 1169.47C1075.68 1167.46 1076.15 1136.39 1076.17 1131.32Z" fill="#DEDEDD"/>
<path d="M1347.33 1084.31C1354.86 1088.62 1362.74 1093.24 1370.99 1095.93C1333.84 1115.25 1305.26 1116.6 1266.99 1126.89C1266.71 1124.43 1265.54 1115.41 1266 1113.41C1292.54 1110.88 1327.59 1103 1347.33 1084.31Z" fill="#DEDEDD"/>
<path d="M265.774 242.909C258.883 245.085 255.899 245.214 253.827 237.185C241.152 188.06 240.555 132.562 262.024 85.7511C263.988 81.4684 271.852 70.5936 277.553 74.4565C284.915 79.7772 287.07 95.0556 288.965 103.307C295.675 138.153 290.722 216.904 265.774 242.909Z" fill="#DEDEDD"/>
<path d="M288.965 103.305C295.676 138.151 290.722 216.902 265.775 242.906C265.534 236.066 267.336 228.52 269.515 222.08C278.948 194.21 280.939 164.964 284.229 135.939C285.426 125.385 286.015 113.557 288.965 103.305Z" fill="#373637"/>
<path d="M764.155 358.298L765.992 358.236C802.989 357.098 865.18 356.987 892.987 382.991C921.724 409.865 923.171 478.2 894.406 506.26C866.894 533.096 828.333 530.63 793.317 530.881C753.626 531.236 696.63 534.021 664.835 507.042C632.555 479.651 634.884 415.247 662.711 385.061C691.789 353.519 726.567 360.593 764.155 358.298ZM837.804 472.747C845.338 467.094 848.989 462.031 850.257 452.516C852.619 434.843 848.514 416.101 826.446 417.087C822.464 420.775 817.71 424.91 816.075 430.198C809.723 450.734 811.603 472.601 837.804 472.747ZM709.069 472.932C734.842 461.196 728.749 415.836 704.869 416.302C698.345 418.679 695.013 421.004 692.067 427.699C685.23 443.242 688.343 470.737 709.069 472.932Z" fill="#373637"/>
<path d="M745.941 548.871C754.843 553.137 765.473 558.994 775.563 558.802C783.63 558.65 797.393 547.545 804.595 554.118C806.417 558.984 804.134 562.099 800.864 565.605C784.278 573.824 763.284 575.304 746.531 566.912C738.011 562.646 742.203 554.463 745.941 548.871Z" fill="#373637"/>
<path d="M832.46 765.244C845.352 764.322 857.596 767.081 853.145 783.056C833.591 853.153 816.32 923.797 798.862 994.434C797.804 997.676 795.693 1005.89 793.598 1008.42C786.748 1016.69 761.469 1016.6 751.724 1017.43L694.168 1022.18C626.67 1027.55 557.193 1032.09 489.917 1038.46C484.335 1039.14 470.974 1041.1 467.527 1035.94C467.403 1029.48 471.126 1014.24 472.728 1007.16C476.735 989.731 480.87 972.322 485.133 954.949C493.609 920.037 502.303 885.176 511.215 850.373C514.862 836.111 524.985 790.576 532.24 780.773C549.621 772.346 617.748 773.369 641.441 772.288C704.963 769.393 768.909 768.564 832.46 765.244Z" fill="#DEDEDD"/>
<path d="M698.643 846.98C699.554 847.182 702.439 848.277 702.966 848.86C710.887 857.684 685.09 870.101 681.743 872.629L680.766 873.386C684.805 873.047 688.876 873.09 692.93 873.061C732.544 895.426 695.647 968.137 648.997 941.833C645.962 939.038 643.267 936.481 640.792 933.154C634.444 924.575 631.854 913.793 633.616 903.27C635.112 893.697 640.353 885.104 648.185 879.393C658.115 872.298 666.947 872.428 678.321 874.315C673.759 869.827 663.147 861.026 666.032 853.909C671.356 851.115 678.319 860.32 681.161 864.188C685.955 856.978 691.677 851.95 698.643 846.98Z" fill="#373637"/>
<path d="M896.739 777.971C904.719 777.316 924.403 779.037 933.074 779.541C952.628 780.593 972.189 781.544 991.757 782.394L1118.75 788.156C1139.74 789.243 1161.01 790.417 1181.98 792.052C1185.37 792.319 1191.24 793.947 1193.5 796.237C1196.36 799.14 1199.43 808.698 1200.32 812.551C1203.1 824.702 1205.09 837.206 1207.35 849.444L1218.73 909.039L1229.5 964.946C1232.86 982.276 1236.24 996.185 1237 1013.86C1235.35 1015.77 1233.5 1017.7 1231.79 1019.56C1218.03 1019.23 1201.07 1016.87 1186.96 1015.7L1094.58 1008.46C1064.82 1006.23 1035.05 1004.2 1005.26 1002.39C983.467 1000.99 963.013 999.923 941.292 997.308C934.478 980.533 930.143 959.588 926.218 941.869L914.471 889.678C910.322 871.275 906.066 852.894 901.709 834.534C897.942 818.839 893.765 803.109 891.229 787.169C893.152 782.696 893.743 781.702 896.739 777.971ZM1012.23 913.195C1016.48 913.44 1020.93 913.62 1025.15 914.074C1026.25 923.437 1026.6 939.384 1036.91 943.036C1043.81 941.689 1037.91 928.421 1042.51 926.124C1051.16 929.524 1043.99 939.759 1051.82 943.756C1053.18 944.455 1054.75 944.671 1056.25 944.361C1062.83 943.021 1059.64 931.36 1058.64 926.931C1065.46 927.428 1072.73 927.816 1079.49 928.594C1080.36 941.206 1078.8 945.629 1092.85 946.839L1093.71 946.183C1093.46 941.768 1092.8 935.314 1094.49 931.245C1098.82 932.758 1101.74 951.268 1111.54 947.934C1113.99 944.505 1112.09 934.825 1111.35 930.33C1110.68 926.253 1109.96 922.184 1109.19 918.129C1111.86 918.042 1117.14 918.316 1118.58 915.925C1122.85 908.83 1117.19 895.131 1116.07 887.215C1112 886.934 1107.71 886.566 1103.64 886.48C1102.67 876.98 1101.31 867.486 1100.43 858.015C1072.21 857.287 1044 855.739 1015.86 853.376C1017.2 860.262 1020.57 872.773 1017.31 878.715C1015.24 880.322 1014.03 880.206 1011.33 880.581C1004.89 886.379 1011.12 905.171 1012.23 913.195Z" fill="#DEDEDD"/>
<path d="M1015.86 853.379C1044 855.741 1072.21 857.29 1100.43 858.017C1101.31 867.489 1102.67 876.982 1103.64 886.483C1107.71 886.569 1112 886.936 1116.07 887.217C1117.19 895.133 1122.85 908.833 1118.58 915.927C1117.14 918.319 1111.86 918.045 1109.19 918.131C1109.96 922.186 1110.68 926.256 1111.35 930.333C1112.09 934.827 1113.99 944.508 1111.54 947.936C1101.74 951.271 1098.82 932.76 1094.49 931.247C1092.8 935.317 1093.46 941.771 1093.71 946.186L1092.85 946.841C1078.8 945.631 1080.36 941.209 1079.49 928.597C1072.73 927.819 1065.46 927.43 1058.64 926.933C1059.64 931.363 1062.83 943.024 1056.25 944.364C1054.75 944.673 1053.18 944.457 1051.82 943.759C1043.99 939.761 1051.16 929.526 1042.51 926.126C1037.91 928.424 1043.81 941.691 1036.91 943.038C1026.6 939.387 1026.25 923.44 1025.15 914.076C1020.93 913.622 1016.48 913.442 1012.23 913.197C1011.12 905.174 1004.89 886.382 1011.33 880.583C1014.03 880.209 1015.24 880.324 1017.31 878.718C1020.57 872.776 1017.2 860.265 1015.86 853.379ZM1047 900.326C1046.29 895.673 1045.64 891.38 1044.68 886.778C1038.46 886.187 1032.25 885.625 1026.03 885.114C1026.78 901.716 1032.36 900.629 1047 900.326ZM1097.87 904.367C1097.08 900.261 1096.4 893.822 1092.85 891.344C1088.21 888.11 1082.4 889.997 1078.05 889.097C1078.37 903.805 1084.04 904.893 1097.87 904.367Z" fill="#373637"/>
<path d="M1144.7 396.832C1165.08 403.479 1144.95 428.784 1141.88 441.428C1137.72 458.532 1156.03 450.538 1161.24 458.2C1161.39 462.109 1159.48 464.457 1157.07 467.454C1146.99 468.017 1134.37 463.337 1129.69 453.754C1124.26 442.652 1134.76 429.998 1137.92 419.817C1140.3 412.154 1142.07 404.527 1144.7 396.832Z" fill="#373637"/>
<path d="M1200.49 478.043C1214.76 485.373 1197.59 496.244 1189.54 498.927C1172.37 504.653 1151.47 504.514 1135.02 496.784C1132.36 493.812 1128.94 488.008 1132.55 484.695C1139.56 483.115 1146.88 488.462 1154.86 489.873C1171.32 492.786 1187 486.989 1200.49 478.043Z" fill="#373637"/>
<path d="M1202.21 381.602C1203.41 381.591 1204.81 381.589 1206 381.733C1210.34 382.226 1214.24 384.57 1216.71 388.159C1223.65 398.299 1218.5 413.294 1208.77 419.833C1186.68 420.663 1187.66 394.261 1202.21 381.602Z" fill="#373637"/>
<path d="M1111.06 381.316C1131.6 383.441 1131.13 411.798 1115.08 419.209C1091.49 416.068 1096 389.993 1111.06 381.316Z" fill="#373637"/>
<path d="M1198.86 345.187C1200.69 345.028 1202.54 344.916 1204.39 344.851C1215.13 344.553 1235.55 350.063 1235.49 363.437C1234.3 365.987 1235.19 365.087 1232.89 366.388C1228.61 366.585 1226.53 364.354 1223.12 361.739C1218.73 358.864 1214.12 357.236 1209.27 355.302C1201.69 357.416 1191.03 361.075 1184.08 355.997C1182.24 350.333 1194.78 346.53 1198.86 345.187Z" fill="#373637"/>
<path d="M1104.9 343.016C1112.21 342.956 1133.17 346.679 1129.38 356.887C1123.7 360.272 1116.86 353.605 1110.41 352.877C1105.01 354.438 1091.69 364.288 1087.7 359.619C1087.46 350.991 1097.61 345.135 1104.9 343.016Z" fill="#373637"/>
<path d="M363.249 418.353C383.484 418.137 386.306 437.363 380.215 452.438C377.758 458.519 375.323 461.282 370.698 465.774C347.684 472.431 347.188 434.102 363.249 418.353Z" fill="#373637"/>
<path d="M473.039 418.375C485.9 418.303 491.496 431.952 489.879 442.957C488.446 452.703 485.24 458.515 477.507 464.594C465.363 468.701 460.117 451.581 461.005 442.219C462.041 431.303 464.885 425.785 473.039 418.375Z" fill="#373637"/>
<path d="M375.415 514.867C386.399 518.214 394.248 529.206 408.795 532.461C420.884 535.166 441.049 529.536 449.271 531.245C451.452 534.78 446.929 538.401 444.128 540.193C442.035 541.066 439.924 541.898 437.798 542.686C420.587 548.933 402.223 544.614 386.199 537.114C375.946 532.317 369.495 526.158 375.415 514.867Z" fill="#373637"/>
<path d="M440.423 459.23C459.994 464.253 465.815 495.163 446.872 504.922C444.172 506.312 441.023 506.976 438.072 507.653C434.261 507.866 429.579 505.95 428.152 502.308C430.265 496.989 442.267 495.505 446.746 490.922C451.137 486.428 442.385 474.045 441.291 468.159C440.598 464.435 440.541 462.965 440.423 459.23Z" fill="#373637"/>
<path d="M477.813 376.161L479.068 376.078C487.969 375.501 495.42 376.181 502.252 382.549C504.98 385.091 508.451 388.893 505.028 392.011C500.132 393.235 497.471 390.83 493 388.224C481.989 385.561 479.183 389.657 468.527 390.03C465.968 390.12 464.364 389.653 462.626 387.878C462.02 380.512 472.511 378.02 477.813 376.161Z" fill="#373637"/>
<path d="M1197.71 211.338C1213.92 209.463 1239.59 213.01 1254.61 219.114C1276.84 228.146 1285.49 239.061 1294.68 260.228C1296.39 260.702 1298.1 261.206 1299.8 261.742C1346.37 276.276 1336.52 336.442 1325 372.304C1305.84 372.041 1301.74 372.905 1288.86 387.409C1276.26 346.453 1262.81 352.455 1267.28 305.568C1268.2 298.945 1268.34 290.313 1268.19 283.67C1254.79 260.759 1230.13 273.369 1210.36 277.839C1176.87 285.409 1136.04 289.757 1106.7 268.24C1102.69 265.289 1096.71 258.062 1092.89 254.163L1092.08 254.353C1089.67 258.526 1091.35 264.882 1087.98 266.783C1080.24 264.443 1066.93 229.49 1085.18 228.967C1123.54 227.865 1159.63 214.956 1197.71 211.338Z" fill="#605F5F"/>
<path d="M420.415 258.891C438.896 257.043 467.343 259.976 481.493 272.683C480.682 278.88 479.243 284.978 477.198 290.884C465.817 323.394 446.033 338.297 416.434 352.387C423.857 333.957 424.318 328.721 423.972 308.817C408.207 331.215 402.05 338.305 377.973 352.87C351.396 367.995 317.008 375.296 286.589 373.031C294.867 349.627 303.793 334.444 320.293 315.388C343.309 288.808 384.897 261.251 420.415 258.891Z" fill="#605F5F"/>
<path d="M19.7773 880.41C37.4836 886.756 59.9221 889.176 78.5138 891.229C78.9639 919.535 73.2303 952.704 74.9998 981.219C76.0852 998.715 82.3273 1008.09 95.2948 1018.95C90.4866 1020.66 74.9667 1019.07 69.6291 1018.62C15.5192 1014.13 12.9044 964.776 16.4516 921.739C17.5475 908.443 18.0921 894.355 19.7773 880.41Z" fill="#8F8E8E"/>
<path d="M204.269 613.633C211.226 614.315 242.21 634.282 247.052 640.221C269.317 667.538 278.601 715.358 277.836 749.932C277.094 783.453 265.963 832.576 241.179 855.92L242.428 842.055C245.702 794.704 256.812 749.01 240.342 702.262C228.025 667.305 208.307 625.322 164.373 640.301C179.691 626.59 186.036 622.37 204.269 613.633Z" fill="#8F8E8E"/>
<path d="M84.8086 604.493C138.223 602.305 129.925 630.694 122.109 668.747C119.673 681.098 117.313 693.464 115.025 705.843C107.832 705.634 100.643 705.328 93.4583 704.926C78.784 702.8 62.8123 699.242 48.2402 696.127C49.3847 677.924 52.2096 657.341 57.394 639.875C62.6386 622.205 68.7585 613.161 84.8086 604.493Z" fill="#8F8E8E"/>
<path d="M47.9791 710.082C65.1902 715.642 94.0755 717.968 111.801 718.991C109.644 727.382 107.286 742.615 105.51 751.777L91.984 821.759C91.6613 823.523 91.6606 823.646 90.9526 825.281C88.3246 824.878 84.1689 819.043 80.2437 817.732C65.1823 812.683 49.3341 809.341 33.9033 805.884C38.9188 775.107 43.3369 741.189 47.9791 710.082Z" fill="#8F8E8E"/>
<path d="M528.845 425.512C530.586 427.563 535.076 437.565 536.284 440.428C550.926 475.134 564.381 522.028 549.425 558.506C543.574 572.78 531.982 588.888 517.447 595.038C520.589 587.885 528.212 571.391 521.971 564.436L520.43 564.768C514.942 569.691 512.19 580.356 507.881 587.01C496.303 605.015 476.849 607.432 458.079 600.52C461.165 598.477 464.169 596.315 467.086 594.039C486.556 578.833 504.401 553.773 512.3 530.552C516.705 517.601 517.706 505.17 519.971 491.883C523.767 469.628 526.161 447.86 528.845 425.512Z" fill="#605F5F"/>
<path d="M841.665 939.559C868.443 937.585 897.705 958.84 892.865 988.876C889.307 1010.97 854.434 1006.61 839.425 1011.3C833.31 1013.21 825.078 1021.44 818.568 1025.27C817.134 1025.8 811.38 1027.42 810.134 1027.41C778.272 1027 831.539 987.903 834.081 979.159C834.83 976.581 835.759 977.207 834.902 973.858C829.688 969.954 818.568 981.745 814.419 985.469C816.083 977.978 817.25 969.846 818.856 962.355C822.939 943.261 821.729 940.394 841.665 939.559Z" fill="#DEDEDD"/>
<path d="M1182.16 657.68L1198.34 658.064C1203.27 707.3 1213.2 742.238 1209.99 794.696C1206.52 790.316 1203.77 787.723 1199.67 783.971C1185.81 779.649 1175.73 778.799 1161.48 777.351C1162.45 741.035 1172.88 692.523 1182.16 657.68Z" fill="#8F8E8E"/>
<path d="M941.537 590.602C968.502 592.323 1009.91 598.657 1035.7 607.048C1022.91 625.798 1016.9 647.001 1009.49 668.344L1005.56 663.657C981.854 632.567 941.407 624.281 905.512 613.433C918.288 606.61 929.653 598.83 941.537 590.602Z" fill="#8F8E8E"/>
<path d="M946.593 641.629C960.587 642.638 973.709 646.098 981.531 658.695C972.794 660.154 966.104 661.81 959.197 667.814C935.89 688.055 927.831 731.775 925.311 761.184C922.833 766.939 901.133 765.578 895.292 765.599C896.66 722.138 903.848 663.802 946.593 641.629Z" fill="#8F8E8E"/>
<path d="M338.244 1018.38C348.747 1018.94 379.066 1028.63 391.278 1031.2C406.251 1034.37 423.006 1037.51 437.713 1041.27C448.603 1044.05 463.684 1052.18 475.615 1051.89C492.083 1051.5 509.675 1049.1 526.238 1047.76L614.774 1041.4C635.948 1039.67 768.88 1025.25 778.134 1028.77C779.337 1029.23 779.171 1029.43 779.697 1030.5C779.035 1032.78 777.659 1033.6 775.844 1035.19C758.977 1037.85 738.177 1038.7 720.87 1040.11L622.633 1048.33L527.326 1056.54C512.975 1057.71 482.964 1060.66 469.855 1059.41C455.219 1058.01 424.463 1050.44 409.537 1046.39C389.657 1040.98 350.55 1032.26 332.955 1024C334.565 1022.1 336.507 1020.18 338.244 1018.38Z" fill="#8F8E8E"/>
<path d="M26.7952 818.379C39.1801 818.422 64.9064 823.622 75.8961 828.837C85.1566 833.238 82.0575 868.2 78.0387 876.512C77.2825 878.082 75.7125 877.881 74.1827 878.118C51.8236 876.635 40.1155 874.394 18.428 866.695C16.0896 848.976 15.627 832.957 26.7952 818.379Z" fill="#8F8E8E"/>
<path d="M1005.33 394.09C1031.28 404.206 1029.27 480.572 1002.62 497.846C985.959 488.16 984.605 469.345 984.929 451.961C985.297 432.114 986.615 405.642 1005.33 394.09Z" fill="#DEDEDD"/>
<path d="M517.861 92.0625L519.05 92.3974C524.405 93.8826 527.666 92.9837 531.155 99.227C537.191 110.025 531.928 125.767 528.978 136.66C522.389 160.991 506.855 188.12 500.695 211.775L499.973 212.339C493.287 206.884 486.647 201.372 480.054 195.804C487.046 171.968 492.846 149.895 502.985 126.921C507.77 116.081 514.952 103.173 517.861 92.0625Z" fill="#DEDEDD"/>
<path d="M956.755 511.621C960.601 512.998 963.943 519.86 975.754 523.594C947.788 587.348 873.707 620.088 807.814 619.683C801.678 619.645 794.037 620.295 788.066 619.2L787.994 618.57L788.361 618.173C809.046 617.558 854.772 605.23 874.261 596.603C915.912 578.165 940.176 553.989 956.755 511.621Z" fill="#DEDEDD"/>
<path d="M165.768 576.42C167.652 575.996 169.464 576.399 170.744 577.916C178.085 586.608 184.822 594.652 193.002 602.625C179.413 611.917 167.189 619.941 156.259 632.539C149.465 640.368 144.066 648.488 137.653 656.54C138.828 650.031 139.46 645.672 140.068 639.056C141.97 630.13 139.191 615.499 133.037 608.318C122.904 596.492 108.121 594.954 93.6582 593.563C119.814 586.314 138.981 581.763 165.768 576.42Z" fill="#8F8E8E"/>
<path d="M988.747 381.172L989.698 381.235C992.708 381.454 993.565 381.371 995.193 383.252C995.229 388.751 987.386 394.763 984.491 399.595C982.812 402.393 981.804 404.782 980.594 408.078C971.995 431.624 969.193 469.493 979.19 492.901C981.386 498.058 991.758 503.95 994.019 508.819L993.378 510.134C990.879 511.361 988.819 511.03 985.989 510.991L975.553 510.636C974.825 510.132 974.112 509.605 973.421 509.055C941.465 483.582 950.367 384.925 988.747 381.172Z" fill="#DEDEDD"/>
<path d="M300.119 571.621C302.042 573.036 305.462 576.291 307.2 577.949C330.465 600.154 356.439 608.411 386.47 617.049C387.983 629.482 390.765 636.235 395.559 647.379C393.805 649.3 391.368 652.825 389.75 655.018C388.007 657.388 387.704 658.33 385.386 658.803C382.048 656.892 369.664 646.797 366.022 643.895C346.715 628.516 309.845 602.094 296.816 581.4C297.804 578.063 298.958 574.897 300.119 571.621Z" fill="#DEDEDD"/>
<path d="M729.311 641.008L729.829 641.431C730.233 643.056 727.021 646.135 725.89 647.883C722.685 652.846 719.895 657.748 717.53 663.163C704.155 693.784 697.933 722.525 694.294 755.507C687.852 755.607 681.848 756.184 675.082 756.22C670.474 747.627 682.471 697.004 686.346 685.763C694.359 662.527 707.864 651.048 729.311 641.008Z" fill="#8F8E8E"/>
<path d="M884.316 628.621L885.59 629.735C888.19 641.961 870.617 655.641 861.744 660.927C840.469 673.606 817.249 679.351 792.848 673.369C785.02 671.449 773.712 665.976 769.47 658.821C766.15 652.519 764.659 648.491 762.491 641.74C771.552 647.848 779.654 652.265 790.637 654.408C811.365 658.45 837.891 653.78 857.034 644.995C865.784 640.981 876.357 633.906 884.316 628.621Z" fill="#8F8E8E"/>
<path d="M87.492 918.26C89.4279 920.168 94.607 935.77 96.9895 940.019C104.921 954.172 114.543 966.482 124.668 979.072C121.644 986.138 118.01 992.923 113.806 999.355C107.378 1006.07 102.614 1009.01 93.9653 1004.17C78.3496 981.709 84.6054 944.852 87.492 918.26Z" fill="#605F5F"/>
<path d="M924.936 1089.89C926.665 1093.5 924.763 1120.48 924.735 1126.59C905.764 1136.28 894.327 1138.82 873.959 1144.41C873.902 1130.42 873.808 1128.66 871.244 1115.06C887.651 1110.3 907.925 1097.31 924.936 1089.89Z" fill="#DEDEDD"/>
<path d="M797.22 1066.23C815.427 1065.22 831.531 1069.76 843.638 1084.03C856.091 1098.72 861.968 1121.9 860.433 1140.82C856.796 1130.89 852.533 1122.98 846.908 1114.07C824.286 1085.62 797.998 1072.74 763.658 1090.36C773.511 1073.88 778.055 1069.51 797.22 1066.23Z" fill="#605F5F"/>
<path d="M665.131 1057.65C668.849 1057.21 673.591 1057.29 677.419 1057.26C680.282 1058.84 682.897 1060.83 685.18 1063.18C699.311 1077.66 712.261 1107.14 711.933 1127.91C708.396 1122.38 703.415 1112.49 700.131 1106.43C684.963 1085.61 663.991 1077.09 640.543 1069.06C637.378 1067.97 633.904 1066.58 631.587 1064.11L631.675 1062.97C637.506 1059.38 657.6 1058.24 665.131 1057.65Z" fill="#605F5F"/>
<path d="M491.735 279.262L492.594 279.789C516.848 294.804 532.859 328.573 533.534 356.723C533.647 361.435 532.718 376.022 530.366 379.767C524.781 363.549 523.198 344.632 513.862 330.171C507.491 320.303 494.79 311.276 489.063 300.767C485.681 294.557 489.562 285.913 491.735 279.262Z" fill="#605F5F"/>
<path d="M466.955 653.133C474.068 654.199 478.421 674.148 479.795 680.321C487.508 714.978 489.492 752.699 482.817 787.69L482.144 788.014L481.354 784.938C479.383 742.075 474.749 698.181 455.731 659.307L466.955 653.133Z" fill="#8F8E8E"/>
<path d="M1193.68 601.379C1200.45 601.627 1210.2 618.766 1213.72 624.108C1207.92 636.18 1206.68 644.898 1192.14 647.586C1175.2 647.69 1174.33 634.38 1171 621.185C1178.18 609.783 1180.78 605.832 1193.68 601.379Z" fill="#8F8E8E"/>
<path d="M842.831 1024.16C850.213 1024.49 856.688 1024.76 864.077 1023.7C877.056 1021.83 894.535 1014.73 907.42 1020.24C895.644 1030.64 833.194 1046.81 815.989 1045.62C811.97 1045.36 807.98 1044.73 804.076 1043.75C807.072 1042.56 813.569 1041 816.99 1040C828.477 1036.64 833.972 1031.63 842.831 1024.16Z" fill="#DEDEDD"/>
<path d="M1319.61 981.802C1322.7 981.6 1322.3 981.125 1324.45 982.443C1325.71 984.726 1326.02 985 1326.11 987.506C1322.25 991.857 1263.62 1010.08 1253.52 1013.29C1250.37 1013.93 1250.8 1014.34 1248.23 1013.41C1246.35 1010.66 1246.22 1009.23 1247.49 1006.13C1250.9 1002.79 1310.37 984.748 1319.61 981.802Z" fill="#8F8E8E"/>
<path d="M857.531 629.796C859.641 629.397 858.684 629.262 860.506 629.947C858.086 633.954 847.009 638.543 842.623 640.262C826.389 646.632 794.757 647.744 778.877 640.202L767.937 633.922C798.337 637.012 827.563 634.204 857.531 629.796Z" fill="#8F8E8E"/>
<path d="M280.391 383.754C285.401 384.62 291.439 385.067 296.571 385.547C292.152 404.697 289.886 409.676 276.657 423.645L266.683 432.001C269.672 413.992 274.292 401.007 280.391 383.754Z" fill="#605F5F"/>
<path d="M1079.94 275.578C1083.17 276.499 1088.04 278.412 1091.33 279.591C1088.61 284.609 1084.75 289.674 1081.8 294.649C1074.16 307.525 1072.31 319.909 1070.79 334.375L1070.71 337.016L1069.81 337.233C1056.39 321.549 1070.07 289.956 1079.94 275.578Z" fill="#605F5F"/>
<path d="M406.55 1001.34C407.648 1001.98 412.415 1006.16 413.617 1007.24C418.896 1011.93 421.797 1013.68 428.066 1016.81C414.153 1018.96 399.995 1018.98 386.076 1016.89C377.823 1015.83 369.151 1014.08 360.921 1012.55C379.536 1010.97 389.522 1009.21 406.55 1001.34Z" fill="#8F8E8E"/>
<path d="M623.405 406.023C624.591 412.226 620.501 425.79 620.25 433.585C619.88 445 620.805 454.759 622.027 466.076C622.415 469.674 624.358 481.543 622.772 483.994L621.537 482.249C610.047 457.279 610.278 430.212 623.405 406.023Z" fill="#DEDEDD"/>
<path d="M264.84 519.07C268.167 521.966 273.41 534.542 276.205 539.122C280.895 546.809 285.867 554.596 290.401 562.365C290.944 563.296 290.124 566.351 289.913 567.571C288.32 568.083 286.575 569.038 285.381 567.998C275.653 559.527 266.784 530.186 264.84 519.07Z" fill="#605F5F"/>
<path d="M1261.28 979.102C1268.72 979.699 1274.8 980.945 1282.09 982.328C1275.65 985.044 1268.33 987.529 1261.71 989.927C1256.63 991.469 1248.95 994.566 1245.64 989.106C1246.14 982.264 1255.89 980.391 1261.28 979.102Z" fill="#8F8E8E"/>
<path d="M447.966 1021.62C451.257 1021.08 451.867 1020.89 454.116 1022.31C455.553 1025.36 454.478 1030.69 454.136 1034.4L430.836 1028.85C424.895 1027.33 420.861 1026.49 414.804 1025.55C425.292 1024.02 437.294 1022.94 447.966 1021.62Z" fill="#8F8E8E"/>
<path d="M924.749 1009.71C931.274 1009.34 948.322 1009.86 952.693 1014.79C952.6 1017.03 952.384 1016.51 950.209 1018.66C948.451 1019.7 946.334 1020.73 944.49 1021.68C935.372 1018.76 931.202 1016.79 924.749 1009.71Z" fill="#605F5F"/>
<path d="M457.822 1000.17C460.588 1001.88 461.139 1005.77 459.155 1008.47C456.075 1012.68 453.461 1013.16 448.68 1013.99L447.702 1013.52C447.899 1009.99 455.046 1003.19 457.822 1000.17Z" fill="#8F8E8E"/>
</g>
<defs>
<clipPath id="clip0_15479_17795">
<rect width="1475" height="1272" fill="white"/>
</clipPath>
</defs>
</svg>
