<svg width="948.977" height="845.981" viewBox="135.533 65.892 948.977 845.981" fill="none" xmlns="http://www.w3.org/2000/svg">
<path d="M787.079 228.639C793.82 227.413 806.56 228.714 813.03 230.738C826.912 235.082 832.66 239.6 839.54 251.802C846.988 255.718 852.842 258.647 857.257 266.399C866.012 281.76 861.507 301.97 857.236 317.963C869.417 338.547 860.147 360.546 836.501 365.24C834.897 369.583 831.258 378.192 830.79 382.813C830.631 384.424 837.808 387.473 839.439 388.516C842.658 390.574 845.787 394.264 849.405 395.782C857.841 398.089 867.064 397.366 875.718 398.472C878.974 398.898 882.459 399.246 885.679 399.82C924.742 406.774 963.039 397.764 1001.83 394.336C1004.64 394.087 1007.66 396.188 1009.9 397.739C1014.78 395.91 1019.66 394.045 1024.63 392.469C1033.53 389.645 1073.09 384.064 1080.29 388.194C1082.03 389.191 1083.56 390.937 1083.97 392.935C1084.51 395.576 1083.93 398.53 1082.37 400.734C1078.09 406.799 1068.74 408.203 1061.95 409.522C1063.49 413.286 1066.17 419.447 1067.07 423.211C1068.32 428.267 1067.44 433.615 1064.64 438.002C1061.75 442.375 1057.22 445.399 1052.07 446.387C1045.55 447.697 1041.79 446.024 1036.69 442.623C1028.89 444.908 1025.42 445.799 1017.47 444.5C1017 445.356 1016.52 446.198 1016.01 447.026C1014.14 450.075 1011.02 453.871 1007.66 454.953C999.297 457.655 988.577 459.265 979.806 460.904C964.16 463.823 948.499 466.632 932.817 469.331C921.857 471.221 909.091 473.177 898.349 475.757C899.029 499.719 898.413 523.526 902.328 547.286C906.589 573.147 914.504 598.232 920.401 623.731C920.752 625.239 921.363 630.121 920.853 631.359C918.85 636.22 910.047 639.901 905.707 641.984C906.36 657.018 913.633 718.694 918.266 728.989C921.31 735.741 926.713 742.031 931.117 747.997C937.794 757.075 944.573 766.085 951.458 775.015C956.733 781.804 962.035 787.048 964.001 795.606C970.259 800.376 983.657 810.841 985.081 818.688C986.186 824.802 981.771 834.917 978.61 840.293C976.825 843.332 974.339 843.889 971.168 844.341C968.703 855.853 963.953 870.037 954.927 878.159C943.633 887.52 930.718 890.064 916.321 889.443C903.667 888.89 900.177 879.572 905.202 868.889C907.906 863.152 915.631 859.534 918.329 853.807C920.683 848.809 920.927 840.755 921.405 835.204C920.035 834.975 918.595 834.763 917.278 834.333C912.507 832.771 863.781 774.404 858.091 767.126C854.787 762.903 851.53 758.457 849.007 753.723C841.585 739.794 839.062 723.496 832.193 709.674L831.868 709.025C830.838 718.635 830.854 732.883 830.843 742.456C830.928 764.608 831.459 786.761 832.432 808.892C832.814 819.973 833.404 831.921 833.282 843.055C833.255 845.658 832.001 847.651 830.636 849.797C832.538 858.27 833.404 866.945 833.213 875.631C833.175 878.175 832.894 882.813 830.668 884.513C824.835 888.959 814.332 888.911 807.224 889.023C803.537 889.081 802.336 887.817 800.158 885.331C781.782 893.39 757.908 893.751 738.023 891.748C731.94 890.686 726.824 887.913 726.67 881.171C726.405 868.161 738.9 864.055 748.93 860.246C754.954 857.962 763.922 853.335 769.022 849.111C771.189 847.321 768.156 843.071 768.113 840.723C767.964 831.65 767.157 822.619 766.403 813.561C763.311 780.051 760.511 746.514 758.003 712.951C757.153 700.653 756.404 688.345 755.767 676.031C755.368 668.636 755.119 659.743 754.194 652.555C751.565 658.776 751.628 664.545 746.672 670.931C736.143 684.498 711.344 686.841 695.162 688.876C700.002 699.346 698.53 713.86 697.956 725.217C696.479 738.44 695.635 752.225 693.18 765.309C691.619 773.607 688.638 774.962 687.932 784.423C696.942 798.671 695.088 828.664 694.987 845.377C694.96 849.659 693.669 855.81 693.956 859.991C694.423 866.764 698.695 873.235 698.87 880.428C698.96 884.088 698.562 888.895 695.741 891.509C684.994 900.694 667.022 905.204 653.337 905.751C606.257 907.627 612.218 884.375 639.604 858.78C635.938 841.409 632.565 817.7 632.071 799.856C631.837 791.494 634.706 788.567 633.765 776.954C630.211 772.667 629.659 769.4 628.888 764.008C626.859 749.771 626.259 735.592 626.307 721.238C622.811 721.265 619.315 721.26 615.82 721.223C614.279 734.668 612.627 749.925 610.114 763.115C608.605 771.041 605.965 770.818 605.083 781.331C613.838 797.656 610.72 837.706 608.467 856.108C612.069 862.621 614.136 871.768 613.105 879.19C612.823 881.198 612.181 883.716 610.401 884.932C599.409 892.46 546.938 896.184 532.982 893.315C529.155 892.529 525.132 890.898 523.001 887.429C521.306 884.667 521.414 881.309 522.285 878.297C526.295 864.4 544.521 855.311 556.272 848.74C554.869 831.4 550.805 813.742 550.237 796.185C550.051 790.447 550.051 785.985 551.422 780.253C552.112 777.368 552.224 774 551.995 771.052C546.571 749.58 543.155 698.369 553.897 679.839C548.16 666.962 548.255 657.007 547.963 643.222C541.493 642.446 532.817 643.631 529.145 639.168C527.524 637.198 517.629 639.03 513.614 637.638C509.543 636.231 508.522 635.907 504.814 633.319C498.27 628.788 493.821 621.818 492.467 613.977C489.445 596.76 498.927 580.271 508.477 566.692C507.002 560.583 500.497 545.199 502.56 538.68C503.043 537.15 507.359 536.757 509.125 536.502C509.355 536.061 509.591 535.626 509.832 535.19C513.956 527.791 518.63 527.279 525.339 531.62C532.36 520.915 540.356 513.131 550.035 504.859C553.568 501.841 557.568 500.138 561.744 498.208C559.289 497.3 556.846 496.364 554.413 495.4C530.945 486.019 517.717 469.512 508.089 447.058C491.164 435.695 489.384 418.029 493.23 398.825C495.183 389.075 499.743 387.743 504.307 380.274C506.614 376.497 508.651 367.233 511.071 362.909C519.92 342.652 533.279 327.465 552.596 316.533C574.908 304.04 601.306 301.03 625.86 308.182C649.692 314.817 670.082 330.329 682.832 351.528C684.914 355.043 688.07 360.708 689.377 364.665C692.994 375.594 703.046 381.544 704.815 393.252C707.907 413.743 706.589 433.321 686.598 444.118C684.016 448.556 680.531 455.302 678.337 459.929C686.965 458.369 694.987 458.28 703.545 460.123C711.222 450.556 721.958 433.213 730.819 426.263C741.689 417.738 748.584 418.881 759.571 407.499C726.548 394.448 721.517 360.013 722.978 328.505C723.711 312.708 721.103 305.058 716.194 290.353C713.001 280.796 718.319 269.376 723.462 261.623C719.275 249.283 718.957 235.605 735.441 235.357C753.339 235.089 769.425 230.382 787.079 228.639Z" fill="#3d3d3d"/>
<path d="M596.902 494.631C595.234 494.786 593.566 494.911 591.892 495.005C570.95 496.139 550.412 488.956 534.746 475.019C518.63 460.472 508.283 435.367 507.493 413.894C506.529 387.703 516.814 358.764 534.65 339.544C550.71 322.455 572.884 312.428 596.323 311.662C619.778 310.964 643.487 319.403 660.572 335.637C671.357 345.013 677.657 355.841 683.82 368.5C679.123 368.37 677.333 368.465 672.834 370.204C655.201 382.252 655.053 419.615 666.198 435.906C666.83 436.839 667.516 437.736 668.249 438.593C672.127 442.153 673.45 442.738 678.417 444.291C669.364 464.65 652.433 480.459 631.502 488.097C622.381 491.466 606.677 494.595 596.902 494.631Z" fill="#ffffff"/>
<path d="M668.249 438.593C672.127 442.153 673.45 442.739 678.417 444.291C669.364 464.65 652.433 480.459 631.502 488.097C622.381 491.466 606.677 494.595 596.902 494.631C597.922 494.263 598.857 493.792 599.845 493.33C604.717 491.077 610.178 490.01 615.304 488.362C638.361 480.951 662.044 463.044 668.249 438.593Z" fill="#c4c4c4"/>
<path d="M660.572 335.637C671.357 345.013 677.657 355.841 683.82 368.5C679.123 368.37 677.333 368.465 672.833 370.204C670.836 361.253 668.854 353.616 664.392 345.539C662.857 342.755 660.54 338.725 660.572 335.637Z" fill="#c4c4c4"/>
<path d="M581.517 368.378C613.126 367.337 644.151 369.103 645.878 408.491C647.806 452.409 609.96 451.576 577.91 453.119C560.952 453.318 537.386 454.795 524.269 443.103C508.221 428.691 508.152 398.69 522.265 382.958C535.739 367.938 562.392 369.392 581.517 368.378Z" fill="#3d3d3d"/>
<path d="M602.236 396.301C616.765 395.829 618.285 417.775 607.224 423.387C606.103 423.398 604.987 423.293 603.882 423.076C594.108 421.119 592.413 402.487 602.236 396.301Z" fill="#f0f0f0"/>
<path d="M541.307 398.971C555.177 397.597 556.973 418.536 546.879 425.471C534.74 427.08 530.94 405.714 541.307 398.971Z" fill="#f0f0f0"/>
<path d="M566.238 462.198C569.819 463.296 573.181 465.339 577.309 466.076C582.925 467.08 588.025 462.573 594.07 462.837C595.77 463.702 595.239 463.059 595.871 464.698C595.393 466.806 595.25 466.893 593.906 468.662C585.591 474.571 558.36 475.311 566.238 462.198Z" fill="#3d3d3d"/>
<path d="M990.319 402.322L991.642 402.181L992.051 402.657C988.986 408.432 987.344 414.858 987.27 421.397C987.131 433.262 990.845 441.721 998.946 450.1C979.891 453.819 960.792 457.333 941.662 460.64C931.35 462.38 921.055 464.208 910.77 466.125C905.537 467.093 885.163 470.224 883.118 474.642L883.793 475.593C885.966 476.48 888.999 476.099 891.469 476.017C891.14 496.345 891.698 526.905 895.114 546.967C899.587 573.216 907.965 603.294 914.717 629.213C896.601 641.617 841.431 657.294 821.02 648.13C801.321 635.736 796.577 583.288 796.046 561.46C804.482 551.791 850.042 471.133 854.42 456.942C851.248 453.263 845.984 449.359 842.074 446.272C847.163 443.285 852.518 441.221 857.034 437.446C856.832 430.088 852.736 411.467 851.089 403.618C868.28 404.039 885.041 407.717 901.977 409.004C931.207 411.224 961.339 406.582 990.319 402.322Z" fill="#ffffff"/>
<path d="M889.201 579.144C890.46 579.027 890.502 578.889 891.57 579.484C892.372 580.918 892.282 580.196 891.985 581.705C886.677 586.99 856.067 591.973 847.774 592.584C845.968 592.361 845.389 591.83 844.48 590.311L844.783 589.158C846.265 587.984 848.528 587.846 850.425 587.564C863.637 585.615 876.302 582.549 889.201 579.144Z" fill="#3d3d3d"/>
<path d="M805.306 568.307C808.61 567.271 812.127 569.125 813.137 572.44C814.146 575.755 812.26 579.256 808.94 580.238C805.651 581.205 802.203 579.346 801.205 576.073C800.211 572.796 802.039 569.332 805.306 568.307Z" fill="#3d3d3d"/>
<path d="M879.203 411.345L880.712 411.911C881.131 413.855 876.042 424.375 874.958 427.149L874.544 427.532L873.657 427.338C872.169 423.126 876.6 414.809 879.203 411.345Z" fill="#3d3d3d"/>
<path d="M801.651 634.042C802.533 634.966 804.01 637.846 804.583 639.168C811.182 654.229 824.245 659.419 840.129 658.287C860.12 656.864 880.063 651.78 898.944 644.922C900.687 662.144 905.818 721.828 912.98 734.264C916.061 739.608 919.934 744.565 923.594 749.527C929.969 758.234 936.45 766.861 943.033 775.414C947.192 780.816 953.078 788.041 956.702 793.614L957.121 794.262C951.214 810.262 937.401 824.648 920.412 828.388C915.498 823.979 900.931 807.048 896.261 801.545C884.34 787.467 865.948 768.014 856.582 752.985C851.897 745.463 842.717 718.237 839.449 708.755C836.129 699.894 830.153 678.862 825.961 671.334C822.147 668.907 808.292 662.58 804.217 664.179L803.957 665.209C806.544 669.666 815.793 673.188 820.638 675.382C821.998 678.331 825.01 685.997 824.946 688.945C824.192 723.565 823.252 757.84 824.813 792.482C825.573 809.349 826.29 826.895 826.365 843.788C816.77 846.646 784.922 847.566 776.204 842.221C774.903 840.022 773.888 818.252 773.527 814.13C768.968 761.378 763.81 708.579 761.706 655.652C785.501 660.035 795 659.106 801.651 634.042Z" fill="#ffffff"/>
<path d="M740.265 267.389C763.38 280.618 778.993 277.468 804.174 271.467C806.964 270.803 812.892 269.622 815.299 271.328C819.198 274.098 816.919 279.566 817.004 283.528C814.497 297.078 822.333 306.959 826.455 319.076C827.491 322.109 826.221 331.703 829.563 333.063C835.465 335.464 838.78 320.246 844.571 320.239C859.345 320.221 857.841 341.15 850.834 349.412C844.358 357.317 839.545 357.76 830.981 359.151C826.391 374.588 823.427 375.721 825.281 391.94C822.253 397.912 820.473 399.664 815.745 404.585C807.776 412.125 800.679 416.505 790.665 420.769C784.136 417.713 781.904 415.556 777.288 410.114C784.035 410.074 803.505 405.017 805.444 397.978C804.876 396.074 805.189 396.741 803.537 395.287C800.87 395.067 791.334 400.271 787.828 401.308C777.144 404.461 765.053 403.709 755.23 398.271C743.447 391.747 736.339 379.501 732.774 366.846C728.174 350.531 728.041 300.722 732.344 284.094C733.89 278.118 737.279 272.733 740.265 267.389Z" fill="#ffffff"/>
<path d="M761.111 324.784C772.507 327.107 757.961 344.304 759.193 350.332C761.765 354.641 767.587 351.927 769.505 356.076C769.197 357.968 768.852 358.148 767.523 359.668C759.82 359.642 755.427 357.443 752.377 350.213C753.419 344.828 756.712 338.593 758.487 333.279C759.47 330.323 760.054 327.754 761.111 324.784Z" fill="#3d3d3d"/>
<path d="M790.622 363.796C791.823 364.001 791.722 364.107 792.864 364.709C794.798 368.495 788.12 372.198 785.134 373.559C775.811 377.811 766.976 378.116 757.334 374.724C755.337 373.647 752.484 372.009 753.546 369.426C757.589 367.553 760.718 370.341 765.085 371.045C775.003 372.64 782.744 368.812 790.622 363.796Z" fill="#3d3d3d"/>
<path d="M789.953 317.033C799.563 317.759 800.503 331.33 792.104 336.862C781.798 336.418 781.278 322.125 789.953 317.033Z" fill="#3d3d3d"/>
<path d="M743.851 317.095C754.141 317.778 754.062 330.94 746.396 336.392C735.51 335.455 736.706 322.964 743.851 317.095Z" fill="#3d3d3d"/>
<path d="M784.571 293.874L785.172 293.835C791.286 293.477 806.847 297.32 807.001 304.634C805.906 306.441 805.853 306.473 803.994 307.388C802.071 305.894 797.465 302.268 795.127 301.395C791.972 300.217 784.407 300.936 781.511 298.863C780.852 298.391 781.054 298.127 780.98 297.145C782.143 295.192 782.547 295.113 784.571 293.874Z" fill="#3d3d3d"/>
<path d="M744.659 294.963C747.426 294.834 753.307 294.852 754.131 298.124C751.873 301.644 744.127 300.64 739.043 304.392C737.503 305.883 737.311 306.255 735.346 306.902C733.306 306.594 734.087 307.067 732.854 305.565C732.243 299.167 739.479 296.047 744.659 294.963Z" fill="#3d3d3d"/>
<path d="M788.827 357.386C795.451 357.468 803.064 361.703 800.498 369.334L799.042 368.865C796.253 365.231 793.788 363.3 790.102 360.642C788.699 359.632 788.927 358.846 788.827 357.386Z" fill="#3d3d3d"/>
<path d="M749.238 423.336L749.769 423.444C750.444 427.02 743.102 438.005 743.474 442.55C743.83 446.907 749.434 449.392 752.654 451.294C750.035 453.389 742.496 458.468 742.486 461.339C742.47 465.863 746.157 474.286 747.825 478.53C758.035 504.476 773.043 536.029 791.09 557.146C790.936 577.418 794.75 596.064 797.024 615.778C798.001 624.256 793.847 645.888 784.608 649.416C776.528 652.502 763.072 649.235 754.821 646.281L754.991 638.159C754.933 623.662 754.428 605.961 752.813 591.421C756.601 592.112 764.384 594.359 767.152 591.41L766.997 590.034C765.197 587.867 755.942 586.826 752.362 586.029C751.554 572.525 740.477 475.133 734.23 470.473C731.988 472.71 733.438 485.804 733.693 489.268C730.272 486.825 728.583 485.954 724.784 484.065C723.818 473.045 720.051 467.908 710.786 462.371C725.124 442.852 727.621 434.154 749.238 423.336Z" fill="#ffffff"/>
<path d="M507.461 542.468C512.123 543.854 511.751 552.853 518.192 551.207C519.643 549.762 519.179 550.612 519.553 548.524C518.798 545.953 516.035 544.678 513.641 543.026L522.099 542.93C523.321 546.866 525.998 553.416 531.282 551.929C533.152 547.977 529.251 545.926 526.469 543.812L534.878 543.886C535.686 546.76 539.102 555.934 543.729 553.002C544.813 552.317 545.025 551.387 545.211 550.24C544.367 548.333 542.045 547.196 540.382 545.645L540.51 544.858C542.141 544.263 545.817 544.641 547.735 544.731C549.111 548.89 550.657 554.686 556.426 553.374C557.945 552.152 557.478 552.901 557.998 551.137C556.856 548.109 553.594 548.184 553.493 545.347C554.96 545.002 559.236 545.528 560.963 545.676C561.186 546.489 561.436 547.297 561.717 548.099C562.684 550.904 566.127 556.519 569.691 555.212C570.754 553.932 570.791 554.006 571.173 552.301C570.318 549.257 566.663 549.023 566.525 546.441C568.225 545.857 571.864 546.468 573.84 546.675C575.243 550.75 577.979 556.885 583.398 555.451C585.113 551.493 581.002 549.172 578.239 547.01C581.315 547.068 584.056 547.291 587.122 547.546C589.491 552.891 594.283 572.211 596.015 578.682C585.278 575.888 571.232 577.348 576.252 592.207C575.737 594.428 572.746 595.262 572.411 599.921C571.938 606.508 576.348 606.274 578.425 610.662C579.711 613.377 578.138 618.923 581.655 621.786C587.679 628.596 600.435 628.798 608.935 629.818C610.226 633.739 611.315 638.106 612.398 642.111C587.435 640.023 559.73 637.351 534.926 636.161C533.646 632.145 532.419 628.113 531.244 624.065C533.343 623.061 540.255 618.981 539.824 616.219C538.698 609.058 538.624 606.364 540.579 599.458C541.28 596.993 537.646 593.317 535.883 592.037C534.241 590.741 535.728 588.536 535.537 586.735C534.687 577.29 524.663 576.493 517.655 576.254C514.293 564.95 510.699 553.841 507.461 542.468Z" fill="#f0f0f0"/>
<path d="M731.776 501.825L732.604 501.693C735.409 504.642 738.411 524.572 739.07 529.307C743.123 558.936 745.801 588.738 747.086 618.615C748.834 669.576 746.528 674.947 695.831 681.933L697.037 678.177C699.136 671.425 699.29 668.221 699.656 661.241C715.503 667.372 714.935 666.559 714.6 648.885C714.526 645.06 714.154 641.012 713.495 637.261C724.088 626.583 723.945 619.04 725.167 604.713C726.984 583.336 721.198 561.624 714.425 541.512C712.204 534.903 708.576 528.269 708.592 521.128C708.597 516.33 706.849 509.479 710.021 505.554C714.786 501.294 725.698 501.862 731.776 501.825Z" fill="#737373"/>
<path d="M787.073 235.027C794.537 233.92 807.76 235.521 814.826 238.156C826.391 242.47 830.822 247.631 835.954 258.218C862.314 266.255 856.311 293.929 851.387 314.609C841.893 313.305 838.817 314.943 832.474 321.82C828.941 304.63 821.387 305.244 822.545 283.02C823.087 278.72 823.028 274.939 822.954 270.618C814.757 257.803 797.215 267.95 784.917 269.334C763.635 271.729 748.765 271.239 734.713 253.894C734.421 257.738 734.517 259.605 734.793 263.482C730.522 259.539 724.301 251.233 728.492 245.098C728.615 244.919 730.139 243.367 730.267 243.342C735.919 242.273 741.742 242.32 747.442 241.54C760.723 239.538 773.681 236.175 787.073 235.027Z" fill="#5e5e5e"/>
<path d="M674.517 690.018C678.566 689.178 684.176 688.796 687.735 691.218C690.057 692.791 690.476 695.484 690.869 698.071C692.495 708.696 689.238 764.736 683.984 770.802C682.539 772.47 680.34 772.996 678.204 772.986C677.195 772.97 676.18 772.927 675.176 772.847C660.817 765.538 652.332 762.17 637.473 770.956C634.764 761.596 634.461 747.773 633.484 738.036C632.804 731.284 632.071 720.59 636.459 715.145C645.32 704.159 660.142 692.302 674.517 690.018Z" fill="#ffffff"/>
<path d="M674.518 690.018C678.566 689.178 684.176 688.796 687.735 691.218C690.057 692.791 690.476 695.484 690.869 698.071C692.495 708.696 689.238 764.736 683.984 770.802C682.539 772.47 680.34 772.996 678.204 772.986C677.195 772.97 676.18 772.927 675.176 772.847C678.847 761.973 682.699 702.491 678.805 690.469C677.737 689.805 675.984 690.039 674.518 690.018Z" fill="#c4c4c4"/>
<path d="M555.778 662.25C586.776 670.75 623.873 670.612 655.531 666.489C655.632 671.217 654.675 674.197 654.707 678.235C640.937 687.351 630.551 697.364 626.508 713.907C609.827 714.481 598.915 712.483 584.704 702.544C570.249 692.424 559.056 679.882 555.778 662.25Z" fill="#ffffff"/>
<path d="M639.014 793.608C639.662 792.976 640.348 792.386 641.065 791.834C654.123 781.65 663.34 793.157 675.065 794.155C678.938 793.274 680.547 792.806 684.229 791.239C689.138 807.856 688.388 830.444 687.91 847.773C687.724 854.498 688.202 867.763 677.716 861.574C667.393 855.364 658.059 854.02 646.308 856.028C642.791 838.582 638.929 811.022 639.014 793.608Z" fill="#ffffff"/>
<path d="M675.065 794.155C678.938 793.273 680.547 792.806 684.229 791.239C689.138 807.856 688.388 830.444 687.91 847.773C687.724 854.498 688.203 867.763 677.716 861.574C678.959 839.687 679.421 815.713 675.065 794.155Z" fill="#c4c4c4"/>
<path d="M645.83 495.462C650.611 496.131 656.343 497.704 661.109 498.873C658.378 501.418 655.392 504.089 653.236 507.123C637.133 529.748 639.423 561.475 650.308 585.376C646.196 584.919 643.317 584.754 639.285 585.567C630.583 574.666 620.686 568.036 606.581 566.278C604.78 558.676 601.943 549.422 599.882 541.65C597.311 535.349 595.744 536.014 589.204 535.233C584.996 529.551 581.028 530.754 576.449 534.887C570.318 529.747 570.674 530.586 564.411 533.527C562.142 533.395 563.125 533.75 561.313 532.529C558.03 526.512 569.394 508.851 573.219 504.011C577.633 531.151 606.443 531.477 626.498 521.388C637.808 515.696 642.297 506.971 645.83 495.462Z" fill="#ffffff"/>
<path d="M563.337 847.193C561.138 827.787 556.984 808.158 556.824 788.519C556.755 780.444 570.212 781.979 574.935 784.04C579.928 786.213 583.174 789.06 588.822 789.794L589.533 789.884C594.001 789.321 596.376 788.97 600.541 787.042C605.046 804.179 603.681 825.402 602.825 842.965C602.671 846.083 602.278 851.47 601.147 854.253C599.595 858.046 593.321 858.068 590.113 856.803C578.468 850.917 578.707 847.857 563.337 847.193Z" fill="#ffffff"/>
<path d="M589.533 789.884C594.001 789.321 596.376 788.97 600.541 787.042C605.046 804.18 603.681 825.402 602.825 842.965C602.671 846.083 602.278 851.47 601.147 854.254C599.595 858.047 593.321 858.068 590.113 856.803C590.92 854.726 591.473 847.826 591.685 845.318C593.374 825.514 592.445 809.354 589.533 789.884Z" fill="#c4c4c4"/>
<path d="M556.978 688.982C567.333 703.479 578.765 712.68 595.653 718.933C600.275 719.985 604.1 720.813 608.85 721.074C608.042 728.128 604.94 764.948 600.472 768.247C597.725 770.276 593.21 769.766 590.049 769.198C587.169 767.912 583.785 765.267 580.667 763.657C571.885 759.121 565.574 759.615 556.5 762.505C553.876 743.587 553.026 707.538 556.978 688.982Z" fill="#ffffff"/>
<path d="M595.653 718.933C600.275 719.984 604.1 720.813 608.85 721.073C608.042 728.128 604.94 764.948 600.472 768.247C597.725 770.276 593.21 769.766 590.049 769.198C592.174 751.269 594.862 737.77 595.653 718.933Z" fill="#c4c4c4"/>
<path d="M683.798 516.386C707.965 513.824 717.713 580.892 718.712 598.444C715.769 595.251 714.064 593.987 710.472 591.692C698.418 585.583 691.698 590.231 677.662 587.851C671.675 568.185 665.98 544.216 675.691 524.608C677.689 520.576 679.867 518.481 683.798 516.386Z" fill="#ffffff"/>
<path d="M961.499 802.703C969.138 807.707 973.909 812.695 979.019 820.186C978.058 823.601 974.945 834.64 971.922 835.602C970.408 834.901 969.978 834.598 968.278 834.465C964.458 837.668 960.973 864.735 949.907 873.346C938.99 881.846 929.858 882.749 916.284 882.318C899.093 880.146 920.593 862.296 924.896 858.349C927.849 858.381 936.679 858.928 938.788 857.207L938.453 856.315C934.926 854.466 930.059 854.062 926.181 853.685C927.467 847.039 928.328 840.314 928.747 833.557C945.078 825.577 952.266 818.82 961.499 802.703Z" fill="#5e5e5e"/>
<path d="M797.088 551.021C802.703 525.471 809.126 500.102 816.335 474.953C820.085 461.87 823.724 448.756 827.262 435.614C830.747 422.762 835.662 406.623 835.757 393.419C843.418 399.49 845.065 401.83 846.951 411.597C848.428 419.252 849.554 427.212 851.19 434.812C847.083 436.878 837.123 441.231 834.928 444.474C834.434 449.227 844.183 455.394 847.774 458.61C838.052 477.32 828.84 495.495 818.63 514.024C813.222 523.834 802.347 542.16 798.336 551.966C797.677 551.77 797.672 551.589 797.088 551.021Z" fill="#ffffff"/>
<path d="M624.5 630.812C632.676 629.797 633.42 633.591 642.085 636.778C654.389 641.347 667.197 644.417 680.239 645.936C682.763 648.146 685.382 650.686 687.857 652.986C662.102 661.618 637.851 663.616 610.874 663.52C593.555 663.499 572.162 660.896 555.555 656.194C555.162 652.63 555.151 647.477 555.029 643.79C570.972 645.979 599.67 647.812 615.676 648.454C618.742 645.209 622.322 642.791 625.696 639.631C624.952 636.953 624.16 634.393 623.826 631.636L624.5 630.812Z" fill="#c4c4c4"/>
<path d="M643.726 592.122C657.071 592.292 669.125 594.077 682.157 595.878C703.051 598.762 711.105 626.392 692.952 637.633C678.661 641.851 650.85 632.368 637.032 626.796C647.1 616.272 648.656 605.568 643.726 592.122Z" fill="#ffffff"/>
<path d="M778.244 850.429C795.149 854.094 807.192 854.009 824.022 851.953C826.343 862.583 826.381 869.234 826.179 879.944C819.634 880.799 814.167 881.617 807.558 881.995L805.609 876.82C799.122 878.148 791.887 881.527 784.385 883.232C772.05 885.527 759.486 886.34 746.959 885.649C744.887 885.517 742.634 885.347 740.552 885.044C738.714 884.73 734.984 884.794 734.002 882.839C728.477 871.864 755.236 866.493 760.596 863.104C767.8 858.551 772.693 855.125 778.244 850.429Z" fill="#5e5e5e"/>
<path d="M581.464 884.725C575.912 885.628 570.329 886.298 564.724 886.728C544.914 888.29 508.612 890.67 542.863 865.123C547.304 861.808 559.04 854.44 563.98 854.142C572.9 853.6 581.878 860.99 589.581 864.06L590.203 864.299C595.919 864.597 598.485 864.538 603.803 861.887C607.867 876.061 609.232 881.793 592.434 883.142C589.087 883.408 584.938 884.359 581.464 884.725Z" fill="#f0f0f0"/>
<path d="M590.203 864.299C595.919 864.597 598.485 864.539 603.803 861.888C607.867 876.061 609.232 881.793 592.434 883.142C589.087 883.408 584.938 884.359 581.464 884.725C585.985 878.191 588.179 871.901 590.203 864.299Z" fill="#c4c4c4"/>
<path d="M665.895 896.896C657.741 898.532 633.452 901.358 626.625 893.368C625.643 892.221 625.643 888.842 626.195 887.328C629.473 878.345 636.948 869.792 644.969 864.655C651.584 860.209 661.369 861.935 668.259 864.931C672.77 866.892 676.659 869.707 681.679 870.823C684.813 870.499 686.115 869.872 688.909 868.432C691.363 875.439 692.102 878.382 691.709 885.841C684.994 891.748 674.486 894.935 665.895 896.896Z" fill="#f0f0f0"/>
<path d="M681.679 870.823C684.813 870.499 686.115 869.872 688.909 868.432C691.363 875.439 692.102 878.382 691.709 885.841C684.994 891.748 674.486 894.935 665.895 896.896C666.575 895.621 669.359 892.683 670.485 891.477C675.585 886.042 680.228 878.233 681.679 870.823Z" fill="#c4c4c4"/>
<path d="M763.353 412.647C764.378 413.708 763.943 423.717 763.953 426.112C763.916 431.907 764.251 437.699 764.947 443.454C768.102 468.635 773.505 493.483 781.092 517.701C783.211 524.3 785.458 530.858 787.833 537.368C789.188 541.002 793.475 548.752 791.052 552.019C788.077 547.052 785.076 542.101 782.042 537.172C768.283 513.43 756.845 488.413 747.904 462.471C751.384 459.594 759.416 454.657 759.804 450.455C758.306 446.851 752.547 444.204 749.025 442.148C753.073 431.759 757.169 421.956 763.353 412.647Z" fill="#ffffff"/>
<path d="M1070.09 393.337C1072.73 393.119 1074.92 392.804 1077.08 394.351C1079.86 401.192 1046.73 405.899 1041.75 407.808L1041.14 408.047C1041.19 410.705 1041.22 413.362 1041.22 416.021C1037.33 414.523 1030.86 410.879 1027.25 411.834C1026.14 413.119 1026.49 412.364 1026.45 414.285C1029.82 420.662 1051.06 423.599 1045.39 431.844C1039.3 435.131 1030.18 427.836 1020.84 428.822L1020.11 428.903C1018.99 430 1019.28 429.365 1019.06 430.794C1020.77 433.655 1028.98 435.515 1032.45 436.62C1025.38 439.033 1018.17 439.404 1011.71 434.918C1004.26 430.534 1002.95 413.646 1008.38 407.394C1013.68 402.732 1026.57 398.235 1033.34 397.143C1045.29 395.216 1058.19 394.425 1070.09 393.337Z" fill="#ffffff"/>
<path d="M669.688 501.588C676.743 501.44 682.603 504.652 687.703 509.163C679.176 509.732 673.264 514.22 669.662 521.912C660.126 542.25 663.749 565.481 670.347 586.103L669.752 586.714C666.32 586.836 661.704 586.348 658.197 586.077C655.849 581.949 653.985 578.193 652.316 573.731C644.836 553.767 645.049 510.078 669.688 501.588Z" fill="#737373"/>
<path d="M621.053 578.454C628.256 581.073 637.086 592.09 638.679 599.634C639.843 605.143 639.094 612.591 635.874 617.382C632.559 622.328 629.553 623.125 624.166 624.161C611.192 625.117 605.997 624.193 607.006 609.754C607.553 601.934 608.536 595.118 611.973 587.947C614.715 587.458 619.198 587.373 620.351 584.759C618.731 580.855 618.561 581.487 621.053 578.454Z" fill="#c4c4c4"/>
<path d="M788.805 453.797L796.078 453.629C798.437 466.611 802.634 483.534 803.856 496.609C804.036 498.531 801.013 509.069 800.365 511.58C798.341 519.088 796.567 526.66 795.042 534.282C794.83 535.339 794.761 535.408 794.288 536.385L793.624 535.838C790.187 527.678 782.324 506.239 782.956 498.039C784.003 484.482 786.845 467.471 788.805 453.797Z" fill="#737373"/>
<path d="M685.615 465.53C687.161 465.355 688.712 465.266 690.264 465.262C699.502 465.232 717.517 469.153 717.262 481.043L716.731 481.442C716.454 481.381 714.058 480.925 713.91 480.868C710.366 479.508 710.515 490.128 706.748 492.161C705.001 493.105 705.399 493.595 703.216 493.264C699.04 488.673 706.562 474.899 702.615 472.632C693.876 476.838 698.87 493.404 691.773 495.167C686.752 493.101 687.608 486.581 688.048 482.305C688.558 479.475 689.706 475.715 690.487 472.856C689.732 471.222 690.312 471.846 688.59 471.019C679.936 472.072 684.282 491.087 680.977 493.892C670.055 495.301 677.593 476.679 677.115 473.003C675.814 471.322 676.393 471.588 674.64 470.946C669.646 473.201 671.33 488.572 667.308 489.252C663.595 485.968 664.477 481.37 664.657 476.872C671.739 467.408 674.937 467.111 685.615 465.53Z" fill="#ffffff"/>
<path d="M688.585 379.562C698.631 382.945 699.991 402.069 699.359 410.751C698.785 418.633 697.202 425.906 691.071 431.295C677.099 431.178 679.118 395.071 683.219 386.842C685.073 383.114 685.509 382.277 688.585 379.562Z" fill="#c4c4c4"/>
<path d="M678.417 374.568C680.542 374.464 682.38 374.269 684.053 375.468C679.591 382.076 677.36 384.272 675.947 392.786C674.114 403.844 673.683 419.02 679.065 429.338C680.037 431.199 684.367 433.902 686.226 436.604C685.339 437.963 684.93 437.631 682.784 438.183C676.297 438.608 672.424 435.513 669.625 429.659C662.777 415.339 661.837 382.799 678.417 374.568Z" fill="#c4c4c4"/>
<path d="M828.989 397.719C830.445 402.814 825.27 422.138 822.582 427.446C820.808 430.947 815.899 438.041 813.466 441.795C811.33 438.978 809.057 436.153 806.868 433.366C804.568 430.196 801.454 426.68 798.894 423.64C811.113 417.916 821.52 408.951 828.989 397.719Z" fill="#ffffff"/>
<path d="M638.398 494.509L638.929 495.403C638.6 515.651 600.61 529.357 583.366 513.925C581.225 511.073 580.582 509.439 579.482 506.198C582.229 507.656 584.917 509.354 587.929 510.17C606.836 515.291 625.366 507.782 638.398 494.509Z" fill="#737373"/>
<path d="M655.531 666.489C667.505 664.779 681.519 661.613 692.761 657.193C692.654 664.173 692.543 668.285 690.774 675.159C678.645 667.796 666.427 672.338 654.707 678.235C654.675 674.198 655.632 671.217 655.531 666.489Z" fill="#c4c4c4"/>
<path d="M806.437 441.757C808.743 444.7 810.241 447.675 813.609 448.345C815.894 447.745 817.004 446.227 818.736 444.508C815.548 453.908 812.51 466.12 810.007 475.777L807.357 485.105C806.145 475.079 803.223 462.347 801.098 452.259C803.022 448.891 804.732 445.251 806.437 441.757Z" fill="#ffffff"/>
<path d="M650.707 772.502C663.048 772.099 662.867 775.504 673.646 779.488C674.581 779.833 679.607 779.865 681.1 779.977C682.226 781.517 681.907 780.662 681.944 782.681C679.899 787.042 676.058 787.366 671.877 786.15C664.397 782.543 658.181 779.849 649.458 781.13C646.76 781.523 643.641 782.819 641.112 782.516C640.05 780.736 640.501 778.712 641.229 776.906C644.178 774.308 646.972 773.432 650.707 772.502Z" fill="#737373"/>
<path d="M791.207 426.394C795.759 426.485 799.499 433.034 802.676 436.483C801.077 440.258 798.968 447.323 794.883 448.322C792.726 448.48 790.479 448.567 788.311 448.684C786.208 444.492 784.614 441.338 782.935 436.92C785.618 432.514 787.339 429.798 791.207 426.394Z" fill="#737373"/>
<path d="M567.136 767.286C578.818 767.376 578.786 772.088 588.843 775.849C590.283 776.391 596.424 776.444 598.304 776.503L599.484 777.857C599.617 781.246 595.276 781.916 592.657 782.436C587.775 782.734 584.928 781.852 580.715 779.276C572.868 774.484 567.731 775.913 559.348 775.424C555.613 769.373 562.647 767.758 567.136 767.286Z" fill="#737373"/>
<path d="M697.366 594.114C716.932 597.844 724.179 614.46 710.924 629.771C709.192 631.497 707.556 632.57 705.58 633.989C707.636 630.206 708.905 626.047 709.325 621.76C710.563 608.84 705.08 603.506 697.924 594.8L697.366 594.114Z" fill="#737373"/>
<path d="M779.593 443.442C781.182 446.229 782.244 449.025 784.253 452.448C781.602 463.483 780.438 474.706 778.558 485.858C777.925 484.892 778.016 484.508 777.819 483.297C776.443 476.022 771.864 454.025 771.673 447.61C773.112 446.347 771.97 448.44 775.227 448.578C777.277 447.358 778.233 445.472 779.593 443.442Z" fill="#ffffff"/>
<path d="M1002.11 403.059C1002.33 403.152 1002.78 403.548 1002.99 403.721C998.383 414.906 996.667 429.482 1005.83 439.046L1008.4 441.72C1007.22 442.672 1005.31 442.762 1003.65 443.071C1002.99 443.106 1002.11 442.993 1001.45 442.937C992.827 437.437 991.594 417.525 995.759 408.869C997.576 405.101 998.351 404.545 1002.11 403.059Z" fill="#f0f0f0"/>
<path d="M563.8 504.631L564.209 504.798L564.23 505.431C562.392 508.569 560.017 512.411 558.434 515.638C556.298 520 555.773 529.414 551.384 531.923C549.047 531.955 549.759 531.934 547.437 530.545C545.737 529.66 545.881 530.04 544.956 528.643C544.754 517.44 553.95 508.486 563.8 504.631Z" fill="#737373"/>
<path d="M770.1 410.811C771.099 411.433 773.511 414.625 774.451 415.722C778.372 420.294 779.971 421.512 785.039 424.539C782.367 427.672 780.103 431.18 777.792 434.592L773.909 441.355C769.68 431.146 768.836 421.844 770.1 410.811Z" fill="#ffffff"/>
<path d="M673.359 678.485C680.404 678.033 683.65 676.827 687.767 683.181C669.986 682.501 662.437 685.571 647.413 695.054C645.867 696.334 640.464 701.142 639.035 701.471C640.071 699.32 642.611 696.988 644.268 695.15C652.55 685.975 661.311 681.013 673.359 678.485Z" fill="#737373"/>
<path d="M583.987 583.867C589.135 583.639 599.93 585.854 605.306 586.826C604.387 589.147 603.372 592.792 602.613 595.257C597.125 594.97 583.185 593.668 581.719 587.288C582.128 585.413 582.51 585.264 583.987 583.867Z" fill="#c4c4c4"/>
<path d="M498.524 606.471C499.914 607.427 504.495 617.457 507.613 620.182C513.187 625.064 518.133 625.76 525.111 625.68L526.719 631.55C508.845 632.31 500.148 624.134 498.524 606.471Z" fill="#f0f0f0"/>
<path d="M580.513 597.445C581.91 597.589 587.015 598.949 588.609 599.347C593.364 600.548 596.642 600.946 601.529 601.339C601.37 604.059 601.088 606.917 600.86 609.642C594.591 609.159 576.029 607.618 580.513 597.445Z" fill="#c4c4c4"/>
<path d="M705.059 641.687C706.679 642.207 707.896 643.843 709.107 645.14L709.548 658.086C706.382 656.72 703.274 654.983 700.23 653.352C696.214 650.845 693.186 648.577 689.424 645.745C696.559 645.182 698.381 644.677 705.059 641.687Z" fill="#737373"/>
<path d="M625.669 497.311C626.216 497.2 625.903 497.193 626.588 497.515C625.876 498.918 623.73 500.047 622.327 500.826C610.868 507.178 599.654 508.242 587.175 504.703L582.229 501.942C598.634 502.764 610.013 501.407 625.669 497.311Z" fill="#737373"/>
<path d="M511.053 581.115C516.385 583.554 528.044 581.514 528.974 587.506C528.234 589.482 527.988 589.546 526.278 590.932C518.477 593.079 503.695 593.206 511.053 581.115Z" fill="#c4c4c4"/>
<path d="M529.799 596.643C532.116 596.314 533.125 597.679 533.848 599.554C533.248 607.039 523.252 606.763 517.835 606.699C514.743 605.169 512.972 602.566 513.297 598.996C514.469 598.226 517.483 598.603 519.14 598.587C523.066 598.55 526.044 597.695 529.799 596.643Z" fill="#c4c4c4"/>
<path d="M699.401 498.271C703.295 499.401 704.703 499.284 708.56 498.801C702.509 504.643 703.184 508.981 702.615 516.873L702.111 517.082L700.581 515.05C698.679 512.248 696.899 509.597 694.493 507.195C692.559 505.267 690.354 503.617 688.659 501.531C694.248 500.519 694.083 502.888 699.401 498.271Z" fill="#737373"/>
<path d="M729.077 265.847C731.223 266.416 731.499 266.553 733.337 267.802C734.257 270.213 728.386 276.419 727.239 280.83C725.746 286.55 725.289 290.123 724.524 295.905C724.508 296.209 724.317 296.797 724.227 297.121C723.185 295.873 722.032 291.555 721.878 289.973C720.949 280.369 723.578 273.319 729.077 265.847Z" fill="#5e5e5e"/>
<path d="M590.824 540.21C591.999 540.588 594.086 541.002 594.4 542.256C596.61 551.064 603.086 571.203 604.122 579.24L603.362 579.867C599.904 578.804 599.293 570.815 598.214 567.41C595.654 559.34 593.954 550.314 591.09 542.394L590.824 540.21Z" fill="#f0f0f0"/>
<path d="M1052.17 411.366C1054.74 411.199 1053.77 410.949 1055.89 412.19C1059.07 416.796 1056.19 423.939 1052.42 427.413C1050.56 422.77 1049.85 422.139 1046.14 419.085C1046.46 416.794 1046.2 414.704 1047.21 412.706C1048.68 411.389 1050.12 411.543 1052.17 411.366Z" fill="#f0f0f0"/>
<path d="M501.761 394.587C502.318 395.369 501.829 402.643 501.581 403.779C499.533 413.168 504.331 425.941 504.344 434.29L503.433 434.316C496.676 420.65 495.933 408.75 501.761 394.587Z" fill="#c4c4c4"/>
<path d="M715.615 488.129C719.971 489.743 730.325 493.457 731.664 498.671L730.649 498.6C728.763 497.141 728.131 496.862 725.842 496.181C719.047 495.641 715.801 496.536 709.309 498.425C713.214 494.481 713.788 493.383 715.615 488.129Z" fill="#737373"/>
<path d="M585.443 613.521C591.6 615.035 594.639 615.63 600.961 615.789C601.253 618.015 601.715 620.055 602.177 622.249C596.472 621.946 585.443 621.064 585.443 613.521Z" fill="#c4c4c4"/>
<path d="M531.872 611.066C533.046 611.565 533.752 612.383 533.997 613.589C531.967 618.131 524.678 618.801 520.338 618.652C519.179 617.345 518.237 615.858 518.333 614.094C520.556 611.677 526.142 612.559 531.06 611.284L531.872 611.066Z" fill="#c4c4c4"/>
<path d="M1060.84 425.974C1062.9 428.442 1060.06 433.929 1057.85 435.756C1052.84 439.898 1050.69 440.543 1044.53 440.432C1043.96 439.83 1044.22 440.218 1043.91 439.18C1052.39 435.832 1055.39 434.335 1060.84 425.974Z" fill="#f0f0f0"/>
<path d="M504.185 592.675C504.987 593.318 507.12 595.655 507.942 596.516C506.903 609.541 511.982 606.476 513.432 615.449C505.964 612.67 504.085 599.549 504.185 592.675Z" fill="#c4c4c4"/>
<path d="M656.922 482.846L657.964 483.27C658.569 486.075 659.111 488.151 659.935 490.899L651.971 489.57L647.61 488.38C650.648 486.416 653.788 484.648 656.922 482.846Z" fill="#737373"/>
<path d="M608.754 573.168C610.996 573.705 614.338 574.246 615.767 575.936C615.873 577.763 615.772 577.243 614.295 579.144C612.802 580.154 612.468 580.573 610.789 580.063C609.392 578.374 609.179 575.474 608.754 573.168Z" fill="#c4c4c4"/>
<path d="M614.359 630.78C615.862 630.86 616.176 630.722 617.387 631.598C619.113 633.925 619.406 635.992 619.018 638.839C618.019 639.206 618.072 639.174 616.999 639.115C615.618 637.128 615.001 633.336 614.359 630.78Z" fill="#f0f0f0"/>
<path d="M591.09 542.394C588.099 542.086 581.017 542.42 579.562 540.901L580.247 540.099C582.786 539.43 587.61 540.444 590.824 540.21L591.09 542.394Z" fill="#f0f0f0"/>
<path d="M516.26 534.972C518.381 534.935 521.403 534.409 522.289 536.561L521.538 537.554C519.57 537.623 516.631 538.176 515.487 536.587L516.26 534.972Z" fill="#f0f0f0"/>
<path d="M567.274 538.76C569.399 538.712 572.464 538.415 574.047 539.913L574.063 541.214C571.88 541.225 568.538 541.586 566.992 540.232L567.274 538.76Z" fill="#f0f0f0"/>
<path d="M554.11 537.745C556.585 537.724 559.04 537.363 560.841 538.983L560.803 540.327C558.434 540.21 555.379 540.401 553.759 538.924L554.11 537.745Z" fill="#f0f0f0"/>
<path d="M540.685 537.22C543.58 536.938 546.747 536.439 548.457 539.026C545.971 539.254 543.363 539.7 541.147 538.728L540.685 537.22Z" fill="#f0f0f0"/>
<path d="M797.088 551.021C797.672 551.589 797.677 551.77 798.336 551.967C797.645 554.4 797.582 556.965 796.222 558.91C795.658 557.284 796.705 552.902 797.088 551.021Z" fill="#c4c4c4"/>
<path d="M423.167 66.4673C427.834 65.8925 454.18 71.4242 455.685 74.413C459.664 82.314 457.892 104.65 458.07 114.403L546.375 102.073L571.556 98.3317C576.815 97.5295 584.635 96.0485 589.788 96.2153C598.867 100.92 621.722 120.787 629.829 128.167C634.105 132.06 599.898 165.175 595.967 170.561C593.438 174.025 577.628 174.837 572.576 175.385C563.385 176.372 554.205 177.423 545.031 178.54L491.605 184.667C480.48 185.952 469.042 187.578 457.901 188.377L457.996 229.616L515.332 226.627C525.721 226.061 539.957 224.92 550.083 225.285C559.56 230.835 571.774 244.712 580.486 252.108C583.254 254.453 585.252 259.182 582.362 262.447C574.542 271.287 564.995 278.61 557.106 287.454C551.549 293.686 548.388 293.772 540.419 293.925C512.963 294.453 485.379 295.843 457.931 295.978L457.95 465.505C471.454 470.219 477.358 478.523 478.716 492.887C479.314 499.225 478.952 506.157 477.41 512.35C476.678 515.286 475.044 518.382 474.399 521.376C472.413 534.563 474.255 537.002 465.266 547.717C473.747 557.258 470.46 574.581 466.923 585.87C465.249 591.214 461.994 594.353 458.019 598.072C457.269 621.616 457.917 648.752 457.922 672.471L457.879 810.299L457.95 856.155C457.959 860.623 458.901 886.383 456.109 888.656C450.405 893.299 433.086 896.274 425.03 897.746C421.653 897.932 402.908 891.95 401.891 889.363C398.772 881.432 400.024 857.229 400.023 849.09L400.028 787.547L399.995 609.074C389.824 610.147 389.798 611.645 380.453 615.072C384.051 635.45 385.448 648.794 375.772 666.006C375.21 667.005 375.203 676.87 373.159 681.364C371.075 685.949 371.246 702.512 370.967 708.425C370.431 719.634 369.621 730.832 368.538 742.01C366.773 761.474 364.342 780.311 361.862 799.675C360.877 807.367 360.71 815.452 359.861 823.208C359.31 828.234 355.026 833.578 354.179 837.493C353.626 840.054 353.537 846.933 353.025 850.7C368.67 862.201 394.466 863.455 388.967 889.283C387.849 890.569 386.135 892.481 384.687 893.262C365.977 903.414 324.684 894.941 305.508 890.765C306.199 907.568 296.013 909.204 281.514 910.485C260.2 911.876 241.256 906.952 220.93 900.232C200.799 893.57 214.912 868.586 213.142 853.26C212.019 843.528 214.431 841.483 209.095 831.682C207.016 827.862 208.969 811.782 209.406 807.346C210.174 794.214 212.834 776.757 212.137 763.918C210.651 736.559 207.286 712.51 207.738 684.838C192.604 685.965 170.383 684.015 159.656 671.536C157.214 668.699 149.698 655.355 148.873 651.705C146.024 638.929 148.428 625.463 148.8 612.67C149.219 598.274 144.091 587.113 156.979 576.302C157.749 569.008 158.632 558.602 160.006 551.616C158.608 550.909 157.001 550.043 155.668 549.199C147.232 543.876 151.211 528.153 152.853 520.306C155.003 510.035 158.143 500.215 163.891 491.507C172.792 478.024 187.116 474.783 201.959 472.039C196.218 466.388 191.424 459.848 187.762 452.672C172.488 423.188 169.829 374.612 179.883 343.063C156.032 319.772 141.337 290.95 136.782 257.699C135.725 249.98 135.533 241.769 138.366 234.293C142.087 224.471 152.576 220.622 161.949 225.119C184.44 236.619 202.205 268.645 211.02 291.009C223.631 279.378 237.54 274.234 253.659 270.069C250.321 255.072 247.901 240.348 248.561 224.93C249.124 211.766 251.44 184.15 269.888 184.922C283.023 185.471 293.688 206.729 297.446 217.284C303.892 235.071 306.051 254.024 305.024 272.747C327.769 280.206 345.893 292.702 359.228 312.896C368.391 326.986 375.2 342.473 379.39 358.75C383.158 373.279 382.133 378.458 391.056 390.873C396.89 398.991 399.07 415.976 396.802 425.908C394.031 438.042 388.267 443.774 377.987 450.481C373.154 463.091 369.482 468.783 361.367 479.457C366.21 484.457 374.934 488.076 381.246 492.088C386.955 495.718 394.266 500.791 400.002 503.898L399.977 358.835C399.978 335.427 399.574 311.994 399.876 288.62C389.357 287.064 378.827 285.594 368.284 284.211C360.593 283.209 349.597 283.399 345.226 276.96C341.19 271.011 318.628 247.831 320.238 241.42C320.999 238.388 348.591 216.287 352.448 214.109C356.947 214.172 366.294 216.025 371.001 216.855C380.666 218.521 390.316 220.273 399.951 222.112C400.173 209.795 399.989 197.029 399.957 184.679C377.209 180.491 354.426 176.5 331.609 172.708C323.353 171.324 297.526 167.931 290.231 164.853C282.575 158.282 275.996 147.897 269.514 140.531C256.513 125.757 252.67 123.236 271.177 111.004C275.98 107.83 292.054 93.6988 296.537 93.5841C302.991 93.4189 326.379 98.8698 333.101 100.26C355.333 104.932 377.618 109.351 399.95 113.517C400.03 108.95 400.011 103.424 399.919 98.9054C399.349 70.9568 397.755 73.8621 423.167 66.4673Z" fill="#3d3d3d"/>
<path d="M215.004 683.282C255.303 701.636 322.433 702.098 364.53 688.339C364.413 731.921 356.794 779.594 352.225 823.15C351.367 826.098 349.761 831.416 346.649 832.622C334.647 837.291 314.878 836.346 303.103 832.76C300.1 829.928 298.338 826.279 298.347 822.093C298.395 800.721 299.688 779.536 298.259 758.143C298.063 755.2 298.907 751.54 299.53 748.671C301.629 739.646 303.049 730.259 305.229 721.058C309.71 719.544 322.238 714.991 323.481 709.992L322.698 709.413C318.619 708.951 299.648 714.678 298.598 718.657C295.85 729.079 293.781 740.177 291.585 750.78L279.671 808.164C278.07 816.058 276.949 824.303 274.959 832.059C274.175 835.113 272.808 837.738 270.498 839.979C264.217 845.228 251.398 844.229 243.979 843.905C214.271 842.604 213.577 833.217 216.455 807.117C217.725 795.59 219.447 778.155 219.405 766.643C219.308 739.927 212.235 709.896 215.004 683.282Z" fill="#ffffff"/>
<path d="M152.466 230.671C177.521 232.554 202.363 284.002 208.758 305.755C209.45 308.108 211.175 313.242 213.374 314.343L214.353 313.953C216.426 310.103 214.648 302.502 213.774 298.386C247.551 264.949 309.127 269.642 341.711 302.436C360.709 321.557 368.091 344.119 375.215 369.141C369.379 362.225 361.695 354.322 355.436 347.602C355.597 340.091 355.723 334.488 353.051 327.301C348.208 314.277 337.476 304.004 324.957 298.317C311.463 292.186 296.229 291.368 282.364 296.726C264.273 303.715 249.544 320.892 241.941 338.352C228.541 369.124 229.464 406.926 241.572 437.952C253.169 462.767 270.084 476.039 294.854 486.119C302.373 489.178 320.801 497.159 324.261 504.244C330.388 516.788 333.144 534.617 335.528 548.503L328.378 548.71C318.074 542.304 307.839 535.78 297.674 529.153C292.506 514.717 290.832 511.23 280.744 499.904C289.393 502.103 298.639 504.723 307.443 505.659C291.377 493.454 259.699 489.517 240.313 484.501C221.885 479.733 204.898 469.552 195.547 452.483C179.322 422.868 177.232 379.784 185.905 347.752C188.469 348.998 191.576 350.804 194.178 349.265C194.345 348.638 194.866 347.237 194.269 346.752C171.792 328.504 155.447 303.957 147.817 275.889C145.032 265.643 137.136 234.513 152.466 230.671Z" fill="#ffffff"/>
<path d="M201.219 329.865C200.486 331.838 200.975 331.423 199.489 332.297C196.707 332.179 194.369 328.771 192.365 327.101C179.846 316.673 155.276 273.106 162.393 257.284C166.684 253.66 173.601 261.269 176.121 264.585C186.172 275.459 206.955 315.896 201.219 329.865Z" fill="#c4c4c4"/>
<path d="M176.12 264.585C186.172 275.459 206.955 315.896 201.219 329.864C197.544 324.196 195.098 306.908 191.341 299.247C187.413 291.238 184.26 281.767 179.782 273.782C178.432 271.375 176.714 267.234 176.12 264.585Z" fill="#3d3d3d"/>
<path d="M425.868 73.3901C428.952 73.4592 432.806 74.536 435.884 75.2691C436.122 81.2981 436.227 94.6676 437.29 100.028L437.583 100.269C438.376 91.7633 438.41 84.5604 438.467 76.0532C442.647 77.0695 446.831 78.0618 451.021 79.0313L451.037 115.175C447.795 115.705 441.755 115.992 439.733 118.807C437.93 121.315 438.207 181.46 439.429 186.915C439.714 188.189 440.176 188.777 441.357 189.355C443.851 190.575 448.223 189.7 451.009 189.54L450.833 229.927C447.58 230.153 442.231 229.835 440.024 232.621C438.003 235.174 438.292 286.926 439.286 292.303C439.576 293.869 439.971 294.8 441.371 295.66C443.786 297.144 448.241 296.451 451.021 296.364C450.364 352.279 451.089 408.699 450.927 464.686C446.578 465.039 440.225 465.65 436.835 468.989C434.289 471.497 435.592 477.642 434.773 479.378C432.856 483.442 428.365 483.509 428.937 490.261C429.087 492.038 431.766 495.888 431.708 496.651C431.406 500.643 428.85 502.897 431.225 507.04C432.107 508.578 436.24 511.82 436.273 512.369C436.634 518.319 435.72 520.842 441.607 525.114C443.835 526.731 447.716 528.144 450.797 528.954C450.864 535.424 451.129 543.137 450.849 549.507L443.934 550.293C447 544.168 449.557 535.052 441.59 532.066C430.42 527.881 412.977 547.892 406.915 554.83L406.896 289.526C413.573 290.267 416.886 290.693 417.055 282.261C417.401 264.925 416.682 247.572 417.301 230.231C417.502 224.097 411.571 223.85 406.962 223.061L406.878 185.704C410.539 186.221 416.578 187.196 416.762 181.927C417.47 161.662 417.477 141.101 417.095 120.818C417.015 116.575 410.07 115.612 406.934 115.031L406.857 79.0796C410.82 77.8328 418.928 75.5283 422.471 74.0712L425.868 73.3901Z" fill="#c4c4c4"/>
<path d="M422.367 220.897C423.472 224.864 423.871 236.025 423.489 240.156C422.568 250.121 422.857 259.033 423.2 269.02C424.187 263.945 422.918 251.131 423.585 245.413L424.497 244.991L425.027 245.493C425.072 248.915 425.208 258.752 426.009 261.658C426.483 265.331 426.033 282.677 426.012 287.06L426.064 338.219L425.938 461.776C425.907 480.595 425.943 499.495 426.083 518.313C426.099 520.431 425.859 522.599 424.971 524.536L424.136 524.753L423.424 524.036C421.7 518.69 422.316 487.458 422.328 479.634L422.344 419.47L422.352 285.459C422.362 264.37 421.81 241.78 422.367 220.897Z" fill="#737373"/>
<path d="M422.471 74.0712L425.868 73.3901C426.179 112.516 426.253 151.644 426.087 190.772L425.989 234.073C426.01 242.598 426.355 253.367 426.009 261.658C425.208 258.752 425.072 248.915 425.027 245.493L424.497 244.991L423.585 245.413C422.918 251.131 424.187 263.945 423.2 269.02C422.858 259.032 422.569 250.121 423.489 240.156C423.871 236.025 423.472 224.864 422.367 220.897C422.188 214.568 422.197 208.226 422.244 201.895C422.568 159.282 421.827 116.677 422.471 74.0712Z" fill="#5e5e5e"/>
<path d="M442.615 414.713C443.982 418.41 443.031 442.669 442.805 447.67C441.639 443.099 441.14 419.12 442.615 414.713Z" fill="#202020"/>
<path d="M427.507 605.435C436.075 605.632 442.878 605.138 450.898 601.86C451.455 695.867 450.014 790.591 451.014 884.481L437.756 888.141C437.637 884.066 437.57 880.39 437.085 876.326C436.515 880.752 436.121 883.896 436.035 888.401C432.359 889.443 429.391 890.261 425.652 890.988C423.602 890.978 423.7 890.999 421.801 890.229C416.854 888.428 411.887 886.691 406.899 885.012L406.97 608.144C409.911 606.407 410.664 605.796 413.217 603.544C416.289 604.144 419.368 604.713 422.452 605.249C424.137 605.26 425.841 605.212 427.507 605.435Z" fill="#c4c4c4"/>
<path d="M413.217 603.544C416.289 604.144 419.368 604.713 422.452 605.249C423.438 607.672 422.263 616.83 422.305 620.182C423.175 687.42 423.221 754.669 422.444 821.912C422.287 837.504 422.223 853.096 422.251 868.687C422.254 871.737 422.801 888.37 421.801 890.229C416.854 888.428 411.887 886.691 406.899 885.012L406.97 608.144C409.911 606.407 410.664 605.796 413.217 603.544Z" fill="#c4c4c4"/>
<path d="M422.305 620.182C422.894 617.717 422.941 616.989 424.29 614.833L424.869 615.056C426.019 618.456 425.421 619.231 425.963 622.36L426.054 832.138C426.128 844.941 426.127 857.744 426.051 870.547C425.978 877.214 425.518 884.46 425.652 890.988C423.602 890.978 423.7 890.999 421.801 890.229C422.801 888.369 422.254 871.737 422.251 868.687C422.223 853.096 422.287 837.504 422.444 821.912C423.221 754.669 423.175 687.42 422.305 620.182Z" fill="#737373"/>
<path d="M422.452 605.249C424.137 605.26 425.842 605.212 427.508 605.435L426.038 605.956C424.849 609.488 426.335 617.845 425.963 622.36C425.421 619.231 426.02 618.456 424.869 615.056L424.29 614.832C422.941 616.989 422.894 617.717 422.305 620.182C422.264 616.83 423.438 607.671 422.452 605.249Z" fill="#8a8a8a"/>
<path d="M439.879 763.232C441.059 763.004 440.661 762.845 441.478 763.232C441.504 780.136 441.939 797.045 441.563 813.965C441.48 817.689 441.619 821.626 441.033 825.302C439.177 819.405 439.795 771.27 439.879 763.232Z" fill="#202020"/>
<path d="M439.879 763.232C439.901 758.132 439.859 755.072 440.94 750.095C441.332 754.966 441.502 758.302 441.478 763.232C440.661 762.844 441.059 763.004 439.879 763.232Z" fill="#3d3d3d"/>
<path d="M237.32 505.29C240.713 505.102 250.764 506.057 252.648 509.062L250.77 510.43L250.808 511.167C254.279 513.609 259.447 514.869 263.227 516.897C282.844 527.418 301.71 540.465 320.309 552.689C317.609 553.874 312.648 556.163 311.838 559.127C313.765 560.822 320.216 557.608 323.248 557.093C339.037 554.113 355.61 557.258 371.438 556.923C393.399 555.265 393.781 575.086 392.069 591.48C390.227 609.127 377.84 608.877 363.44 610.381C347.678 612.028 332.248 611.433 316.745 609.382C289.644 605.132 262.817 589.062 240.465 573.965C238.617 572.716 236.305 570.974 234.099 570.629L233.424 571.42C234.079 576.775 245.222 584.584 249.529 587.681C241.423 600.957 225.931 614.115 212.346 621.654C212.463 612.819 214.684 603.921 214.721 594.922C214.822 570.634 205.474 513.385 237.32 505.29Z" fill="#ffffff"/>
<path d="M314.681 317.375C343.706 330.554 348.226 345.332 355.526 375.151C357.241 382.155 359.616 390.166 361.516 397.282C368.903 424.947 354.964 457.613 325.503 464.3C306.19 468.52 286.855 463.112 270.208 452.623C264.919 448.921 261.147 444.445 256.293 440.243C255.214 439.31 253.687 441.42 251.672 441.061C247.874 436.668 244.594 424.23 242.868 418.326C254.101 408.371 254.947 394.811 253.328 380.662C259.175 377.836 264.607 374.223 269.473 369.923L268.876 371.856C268.239 373.876 267.814 374.369 268.317 376.341C269.741 377.42 268.935 377.107 270.886 377.105C273.809 375.028 275.024 370.159 277.669 368.34C281.036 366.024 289.695 366.193 291.75 362.776L291.182 361.82C286.337 358.885 283.36 359.959 278.115 361.178C282.924 355.257 285.481 350.837 289.182 344.31C288.984 347.23 287.491 353.923 289.558 355.732C291.872 355.888 293.175 355.138 295.006 353.731C307.568 344.075 312.428 332.348 314.681 317.375Z" fill="#ffffff"/>
<path d="M329.217 418.754C329.67 418.706 330.123 418.662 330.576 418.621C337.086 418.063 341.816 420.209 341.962 427.249C342.185 438.062 335.597 446.117 324.848 446.129C318.886 444.426 312.234 440.32 310.982 433.96C308.678 422.262 321.456 420.075 329.217 418.754Z" fill="#3d3d3d"/>
<path d="M315.953 430.908C320.737 430.811 331.387 432.295 332.713 437.732L331.502 439.133C323.966 442.658 317.595 438.874 315.953 430.908Z" fill="#c4c4c4"/>
<path d="M288.37 380.329C299.091 381.011 304.227 396.492 294.972 402.305C284.39 402.068 278.657 385.891 288.37 380.329Z" fill="#3d3d3d"/>
<path d="M335.631 364.263C346.089 363.667 350.737 377.475 343.449 384.625C333.595 385.583 329.011 371.619 335.631 364.263Z" fill="#3d3d3d"/>
<path d="M325.597 386.49C336.608 386.701 346.682 400.372 333.076 408.928C331 409.319 330.569 409.559 328.644 408.939L328.258 408.135C328.956 405.608 332.719 402.636 333.643 400.957C336.567 395.644 327.497 394.398 325.597 386.49Z" fill="#3d3d3d"/>
<path d="M331.506 343.257C336.029 342.851 342.956 343.567 345.032 348.321L344.099 349.308C341.676 350.047 338.689 348.568 335.207 348.249L334.556 348.195C331.069 349.325 326.736 353.571 323.418 351.507C322.472 348.018 328.866 344.343 331.506 343.257Z" fill="#3d3d3d"/>
<path d="M587.509 103.294C588.965 103.529 618.986 127.103 623.008 130.203C612.818 142.079 601.04 154.91 590.447 166.469L477.188 179.401L444.454 183.303C444.542 163.265 444.457 143.226 444.2 123.189L587.509 103.294Z" fill="#ffffff"/>
<path d="M297.343 100.292C303.668 100.902 322.889 105.38 329.977 106.783C357.179 112.384 384.422 117.775 411.706 122.957C411.643 140.828 412.151 161.708 411.453 179.343C402.803 178.056 394.17 176.649 385.559 175.121C356.058 170.788 323.447 164.372 293.883 159.232C284.168 147.732 274.598 136.11 265.175 124.371C275.837 116.263 286.56 108.237 297.343 100.292Z" fill="#ffffff"/>
<path d="M540.148 232.414L548.021 232.054C557.26 240.052 568.124 249.798 576.911 258.146C569.5 266.05 555.539 279.557 547.591 286.673C524.752 287.191 501.787 288.249 478.992 288.552C467.488 289.008 455.98 289.352 444.47 289.587C444.557 272.201 444.518 254.813 444.352 237.427C454.635 236.443 468.107 236.164 478.638 235.638L540.148 232.414Z" fill="#ffffff"/>
<path d="M273.158 602.21C293.822 613.271 314.109 617.781 337.333 618.562C337.493 634.063 337.284 657.278 330.664 671.297C316.027 674.57 291.325 673.635 276.5 672.275C258.016 670.368 231.766 666.399 214.627 657.32C211.394 655.61 211.007 650.914 210.366 647.386C236.59 638.499 256.563 624.31 273.158 602.21Z" fill="#ffffff"/>
<path d="M291.23 616.915C295.082 618.27 294.883 620.947 293.495 624.517C288.274 637.952 277.721 651.381 264.758 658.027C262.922 657.374 262.821 657.124 262.144 655.796C263.314 652.3 271.011 648.773 275.507 643.79C284.994 633.266 285.599 628.841 291.23 616.915Z" fill="#3d3d3d"/>
<path d="M187.265 494.646C198.122 493.951 206.816 493.067 210.542 505.028L210.666 505.436C212.322 505.668 211.91 505.358 213.085 506.224C212.892 509.387 211.567 513.224 211.091 516.461C209.64 526.327 207.637 536.327 206.68 546.245C204.916 564.503 208.543 582.921 207.139 601.063C206.58 608.282 205.645 615.252 205.277 622.551C197.868 633.064 200.862 648.369 206.358 659.142C205.12 665.863 204.372 671.658 207.415 677.879C194.764 679.26 182.651 677.449 171.149 672.009C167.633 669.815 166.465 668.715 163.507 665.804C173.376 668.763 191.503 672.604 193.312 658.202C195.895 637.627 197.235 615.677 197.681 594.938C197.954 582.262 189.269 580.281 178.891 578.485C174.122 577.662 168.974 576.961 164.037 576.244C164.998 560.36 169.641 516.268 176.454 502.963C178.711 498.555 182.756 496.194 187.265 494.646Z" fill="#737373"/>
<path d="M354.473 220.861C370.721 224.27 395.424 228.714 411.523 230.893C412.078 246.102 411.737 267.943 411.437 283.235C403.886 282.108 396.329 281.023 388.766 279.983C376.778 278.194 364.77 276.551 352.742 275.053C344.365 265.493 335.188 253.519 326.966 243.504L354.473 220.861Z" fill="#ffffff"/>
<path d="M297.478 299.805C300.294 299.495 302.981 299.604 305.811 299.636C313.44 316.044 306.033 333.618 294.589 346.05C294.499 336.751 293.496 331.215 289.908 322.625C286.237 343.094 277.962 356.117 261.105 368.526C256.078 373.304 245.905 377.582 239.392 379.748C240.283 344.944 259.879 305.351 297.478 299.805Z" fill="#5e5e5e"/>
<path d="M260.9 268.849C255.61 246.319 251.841 219.529 261.22 197.656C262.057 195.707 264.802 193.43 266.878 192.87C272.256 191.42 276.923 195.226 279.944 199.308C290.149 213.098 295.138 230.478 297.268 247.338C298.196 255.105 298.532 262.932 298.274 270.75L291.292 269.519C288.015 268.94 283.634 268.717 280.229 268.451C274.332 248.309 274.455 234.774 272.21 215.165C267.594 225.75 272.277 256.84 275.513 268.25C270.56 268.378 265.849 268.497 260.9 268.849Z" fill="#ffffff"/>
<path d="M272.21 215.165C288.524 207.048 291.263 260.516 291.292 269.519C288.015 268.94 283.634 268.717 280.229 268.451C274.332 248.309 274.456 234.774 272.21 215.165Z" fill="#c4c4c4"/>
<path d="M220.166 863.279C233.881 869.017 252.754 868.958 267.059 865.457C273.325 871.168 311.376 888.353 295.244 900.45C279.252 906.761 254.427 902.521 237.977 898.059C233.73 896.906 219.943 893.905 218.276 889.798C215.711 883.477 218.344 869.723 220.166 863.279Z" fill="#c4c4c4"/>
<path d="M346.716 855.884H347.668C356.013 861.308 365.329 865.213 373.95 870.084C379.13 873.011 387.286 883.37 380.964 887.307C371.365 893.283 348.584 890.537 337.75 889.246C328.235 887.907 318.834 886.058 309.369 884.571C296.798 882.595 300.609 865.176 303.024 856.113C317.717 860.262 332.075 859.555 346.716 855.884Z" fill="#c4c4c4"/>
<path d="M437.533 538.027C439.639 539.206 439.131 538.563 440.249 540.481C440.505 546.893 432.305 550.166 433.633 555.531C440.465 562.389 457.276 551.648 461.923 553.704C463.159 555.053 463.062 555.467 463.26 557.279C461.937 562.113 451.627 566.241 452.163 569.991C456.414 571.537 459.966 566.979 464.04 567.457L464.487 568.631C462.788 578.209 453.075 578.56 453.079 583.697L454.27 584.244C456.933 584.233 458.455 583.251 460.877 582.103C456.006 600.409 429.626 599.528 415.182 596.255C419.206 582.528 418.446 572.945 412.634 560.078C418.121 551.648 428.42 542.07 437.533 538.027Z" fill="#ffffff"/>
<path d="M366.898 456.493L367.683 456.277C369.034 460.523 346.403 487.353 342.845 492.414C340.512 495.734 339.485 497.578 337.717 501.421C341.752 499.335 345.51 495.558 348.854 492.421C360.132 513.291 363.332 526.1 366.663 549.39C357.692 549.215 349.109 548.79 340.066 548.763C337.486 530.833 334.819 519.438 328.931 502.092C333.011 488.758 345.571 471.949 351.222 458.516C351.728 457.314 363.906 457.078 366.898 456.493Z" fill="#f0f0f0"/>
<path d="M155.797 610.551C166.166 614.259 181.044 618.328 191.408 613.892C190.614 624.527 189.745 650.154 187.78 659.254C183.999 666.261 176.007 662.58 169.791 661.682C147.871 658.516 154.465 627.842 155.797 610.551Z" fill="#737373"/>
<path d="M358.762 618.137C361.21 617.85 361.807 617.701 364.195 618.03C364.856 618.657 374.16 641.984 375.837 645.527C372.795 663.339 366.669 663.982 350.838 668.391C345.666 669.406 341.565 670.112 336.32 670.771C341.669 657.076 342.188 633.271 341.787 618.615C347.527 618.546 353.029 618.498 358.762 618.137Z" fill="#ffffff"/>
<path d="M213.381 662.032C246.303 677.172 293.853 680.971 329.48 676.62C329.345 680.721 328.65 684.897 328.07 688.966C319.355 690.57 298.839 690.777 289.858 690.474C268.533 689.763 245.418 686.464 225.122 679.701C221.626 678.532 215.945 676.577 213.449 673.693C211.631 671.594 212.978 665.034 213.381 662.032Z" fill="#ffffff"/>
<path d="M358.616 360.12C368.816 367.765 389.588 396.621 390.688 409.896C391.819 423.555 390.794 428.376 382.986 439.073C383.153 434.507 383.956 426.161 380.16 423.047L379.397 423.566C378.384 426.907 378.816 431.535 378.048 435.489C374.692 446.824 368.299 449.755 357.532 451.926C379.438 413.383 368.276 399.571 358.616 360.12Z" fill="#5e5e5e"/>
<path d="M448.725 471.881C451.457 471.774 455.099 472.129 457.722 472.907C462.485 474.286 466.478 477.55 468.776 481.944C473.176 490.158 473.456 503.282 470.665 512.018C468.602 518.472 466.418 521.596 460.495 524.717C456.428 523.164 443.432 520.751 443.477 515.965C447.628 512.947 457.996 516.912 460.896 513.544C458.857 509.438 447.653 508.32 443.305 507.529C440.797 506.646 439.027 506.017 437.551 503.773C437.202 501.589 437.031 502.579 437.956 500.68C443.1 497.331 454.721 501.892 461.111 501.455C462.556 500.496 462.152 501.13 462.545 499.618C459.289 492.276 440.507 495.911 436.324 490.403C435.549 480.382 457.292 488.08 462.373 487.226C463.021 487.118 463.336 486.001 463.617 485.437C461.542 478.377 441.281 481.023 441.48 475.023C443.372 472.408 445.579 472.396 448.725 471.881Z" fill="#ffffff"/>
<path d="M371.839 494.492C377.281 496.967 392.87 507.989 399.622 511.937C399.385 521.006 399.715 530.306 399.618 539.387C399.577 543.259 399.881 549.241 399.392 552.912C388.868 553.608 391.16 553.135 381.161 550.601C382.768 529.082 379.769 514.204 371.839 494.492Z" fill="#ffffff"/>
<path d="M160.867 582.289C167.431 582.209 174.883 583.867 181.349 584.908C189.564 586.225 192.752 588.685 191.875 597.403C191.225 603.862 192.059 607.071 185.615 610.386C176.909 610.763 162.47 607.735 154.76 603.634C154.263 596.08 153.729 586.858 160.867 582.289Z" fill="#737373"/>
<path d="M291.316 790.862C293.304 805.274 286.144 821.206 295.381 835.724C294.66 843.842 295.934 847.072 295.621 852.899C295.287 859.125 293.719 866.191 293.346 873.851C290.603 871.742 288.485 870.499 285.501 868.725C280.705 866.143 277.502 864.294 273.308 860.841C274.775 856.31 275.023 850.604 275.326 845.807C283.503 836.798 282.937 830.481 285.197 819.192C286.957 810.406 288.452 799.308 291.316 790.862Z" fill="#f0f0f0"/>
<path d="M205.883 478.824C206.7 478.689 208.815 478.346 209.505 478.705C216.117 482.146 221.999 485.61 229.002 488.304C222.404 492.96 219.017 496.075 214.706 502.979C212.405 495.523 208.213 490.013 200.326 488.355C179.561 483.992 170.494 496.161 165.905 513.817C164.844 517.974 161.725 542.452 160.074 543.6C153.124 540.593 159.285 523.714 160.315 518.778C166.264 490.289 177.849 482.714 205.883 478.824Z" fill="#737373"/>
<path d="M254.66 592.08C256.413 592.446 264.949 597.875 267.213 599.198C259.699 609.371 247.359 621.058 236.605 627.768L231.923 630.217C228.999 627.189 227.438 624.713 225.288 621.138C238.218 611.045 244.745 605.382 254.66 592.08Z" fill="#737373"/>
<path d="M220.229 843.767C233.415 849.855 253.706 850.062 267.792 847.613C267.409 851.428 267.045 854.402 266.371 858.164C254.875 862.599 230.491 861.526 219.755 855.045C219.734 851.204 219.989 847.587 220.229 843.767Z" fill="#f0f0f0"/>
<path d="M392.804 560.62C397.037 560.381 400.082 560.36 404.322 560.498C412.031 569.8 413.863 591.936 405.487 600.67C402.096 602.04 397.325 602.322 393.703 602.614C399.697 588.011 397.666 574.895 392.804 560.62Z" fill="#ffffff"/>
<path d="M237.385 491.968C242.568 491.695 259.568 494.977 264.586 496.71C275.947 500.633 284.125 513.341 288.893 523.791C284.167 521.344 276.72 516.516 271.884 513.654C260.432 507.234 251.148 496.599 236.481 498.953C228.765 500.191 224.912 503.819 218.831 508.094C223.6 499.863 228.377 495.193 237.385 491.968Z" fill="#737373"/>
<path d="M302.806 838.067C316.748 841.876 332.896 841.281 346.989 838.386C346.811 842.189 346.634 844.66 346.06 848.41C344.987 848.893 343.887 849.313 342.766 849.669C332.579 853 312.358 853.255 302.427 848.314C302.316 844.256 302.409 842.115 302.806 838.067Z" fill="#f0f0f0"/>
<path d="M275.479 464.204C290.135 471.265 303.486 473.96 319.717 473.033C319.699 475.35 319.508 478.942 319.825 481.121C320.854 488.196 329.354 485.031 325.209 493.808L324.837 494.207C323.632 494.215 318.086 489.914 315.644 488.471C303.058 481.04 287.762 477.057 276.175 468.187C275.198 467.439 275.442 465.457 275.479 464.204Z" fill="#c4c4c4"/>
<path d="M368.077 667.738C368.729 669.741 368.239 675.738 366.882 677.353C360.741 684.636 342.675 686.857 333.786 688.249C333.369 686.767 334.451 678.203 334.68 676.014C346.019 675.106 357.547 672.009 368.077 667.738Z" fill="#ffffff"/>
<path d="M357.432 484.866C368.607 492.591 374.819 526.004 374.735 539.472C374.718 542.271 375.094 546.388 374.22 549.007L373.169 549.098C369.852 526.462 365.215 508.495 353.657 488.524C354.761 487.329 356.232 486.008 357.432 484.866Z" fill="#737373"/>
<path d="M312.483 300.84C329.999 304.999 345.659 318.355 349.209 336.448C348.029 335.599 345.385 330.931 343.886 329.216C335.587 319.724 326.635 314.918 314.877 310.818C314.281 307.568 313.309 304.067 312.483 300.84Z" fill="#5e5e5e"/>
<path d="M219.797 624.687C221.643 625.394 225.47 631.349 227.008 633.436C221.881 636.002 217.418 637.846 212.102 639.891L206.661 641.84C206.974 637.575 207.278 634.159 207.91 629.946C212.199 628.22 215.686 626.854 219.797 624.687Z" fill="#737373"/>
<path d="M246.24 383.535L247.262 383.667L247.936 384.552C249.391 392.727 246.287 403.614 241.709 410.624C239.46 407.596 239.163 390.063 239.321 385.681C241.517 385.091 244.033 384.23 246.24 383.535Z" fill="#5e5e5e"/>
<path d="M338.865 466.992C339.242 467.333 338.997 467.066 339.306 467.985C337.95 472.294 332.987 479.95 330.142 483.52L329.421 483.082C328.394 481.697 327.383 480.301 326.388 478.893C326.24 476.142 326.372 474.222 326.539 471.481C331.402 470.172 334.411 469.329 338.865 466.992Z" fill="#737373"/>
<path d="M466.486 529.724C469.407 532.868 461.094 542.85 458.468 545.23L457.954 532.157C461.806 531.466 462.971 531.381 466.486 529.724Z" fill="#f0f0f0"/>
<path d="M370.877 616.437L372.724 616.697C375.091 618.737 375.133 627.954 375.546 631.662L375.077 632.14C373.257 628.363 370.98 622.992 370.036 618.923C369.694 617.451 370.019 617.536 370.877 616.437Z" fill="#f0f0f0"/>
</svg>
