<svg width="1088" height="944" viewBox="0 0 1088 944" fill="none" xmlns="http://www.w3.org/2000/svg">
<g clip-path="url(#clip0_15502_18457)">
<path d="M0 0H1088V944H0V0Z" fill="#F7F7F6"/>
<path d="M399.607 113.257C399.56 107.046 397.703 77.8749 401.601 74.2488C405.179 70.9206 421.568 65.5541 426.528 65.9169C431.636 66.2909 454.057 71.1522 456.73 74.8698C459.677 78.9693 458.305 107.343 458.377 113.942C467.311 112.998 476.577 111.626 485.482 110.28C519.873 105.08 554.71 101.083 589.008 95.4083C594.187 97.7473 624.782 122.105 630.19 127.713C630.737 128.377 630.637 131.988 630.153 132.49C623.438 139.398 601.79 167.434 595.553 171.458C589.571 175.316 533.396 180.389 524.427 181.364C502.123 183.789 479.157 187.446 458.161 188.764C458.277 202.343 458.321 215.923 458.294 229.502C487.19 227.763 521.251 225.279 549.945 224.62C556.761 228.575 580.832 250.689 584.492 257.226C586.585 260.967 554.88 290.831 550.492 293.7C540.829 294.769 524.016 294.692 513.828 294.946C495.29 295.525 476.749 296.007 458.205 296.393L458.239 465.319C465.92 467.851 471.337 471.164 475.262 478.824C480.332 488.72 480.29 502.585 477.668 513.216C477.162 515.269 474.677 520.241 474.437 522.041C472.693 535.094 474.733 537.304 465.636 547.754C475.104 557.481 470.855 586.512 461.542 595.368C460.539 596.303 459.51 597.211 458.454 598.083C457.421 667.074 458.425 737.563 458.183 806.745L458.255 855.672C458.275 860.437 459.366 886.691 456.365 889.145C450.739 893.735 433.11 896.503 425.424 898.298C422.949 898.882 403.29 892.64 401.254 889.448C399.794 887.153 399.733 883.992 399.689 881.07C399.494 868.119 399.617 855.088 399.611 842.131L399.571 768.815C399.547 716.346 398.72 661.836 399.645 609.616C388.7 610.248 389.464 613.101 380.651 615.279C383.53 631.635 386.623 649.692 376.629 664.141C376.392 664.481 376.151 664.821 375.905 665.156C375.821 668.482 375.84 672.179 375.187 675.42C374.492 678.777 372.461 682.809 372.356 686.246C371.164 725.212 367.38 763.859 361.815 802.437C360.568 811.08 361.936 820.589 358.708 828.861C357.646 831.586 355.978 833.881 354.293 836.25C354.263 840.999 354.312 845.961 353.189 850.593C365.371 858.36 386.164 863.046 390.023 878.462C392.978 890.261 384.553 896.216 374.011 897.469C351.554 900.412 327.943 895.966 305.972 891.36C306.023 895.844 306.102 900.492 302.844 904.025C296.804 910.57 282.903 911.042 274.741 911.08C260.738 911.149 222.479 905.337 213.19 896.051C209.84 892.699 209.529 887.323 209.685 882.839C209.96 874.95 212.412 867.577 213.02 859.847C213.523 853.462 212.057 847.316 212.914 840.744C209.388 835.443 207.818 831.092 207.8 824.621C207.745 805.911 212.465 785.693 211.886 767.105C211.026 739.529 206.439 712.967 207.334 685.152C193.523 686.607 173.855 684.116 162.767 675.276C155.347 668.816 148.69 655.275 147.546 645.676C146.084 633.41 148.582 620.623 148.54 608.713C148.492 594.874 144.38 586.459 156.666 575.952C157.475 568.775 158.252 558.649 159.571 551.796C156.028 550.086 152.526 548.551 151.178 544.364C148.776 536.911 150.613 529.15 152.114 521.651C153.271 515.869 155.034 510.298 156.853 504.635C163.797 483.02 180.097 474.598 201.494 472.061C179.557 450.29 173.913 416.778 173.446 386.964C173.253 374.593 175.359 354.906 179.521 343.196C161.135 325.959 148.258 304.18 141.141 280.027C137.01 266.006 130.898 239.052 142.372 227.498C145.338 224.462 149.446 222.815 153.689 222.963C178.258 223.752 203.251 269.888 211.153 290.483C223.166 280.021 237.736 272.929 253.38 269.929C248.804 251.791 247.498 239.118 248.343 220.707C250.478 174.174 280.948 172.79 296.799 214.567C304.676 235.327 306.137 250.382 305.416 272.636C334.989 282.321 353.689 298.887 367.743 326.679C373.112 337.505 377.292 348.88 380.209 360.607C381.184 364.592 383.005 375.723 384.49 378.79C389.963 390.103 395.561 396.111 397.832 409.378L399.552 409.096L399.524 288.656C389.317 287.592 378.594 285.952 368.385 284.581C363.273 283.893 353.482 282.797 348.86 281.626C339.575 272.235 330.222 258.528 321.719 248.159C318.324 244.018 319.977 239.491 323.866 236.602C333.159 229.352 342.794 219.874 352.565 213.438C365.727 215.25 378.906 218.023 392.016 220.24C394.469 220.655 397.168 221.135 399.574 221.736L399.558 184.864L327.895 172.68C318.88 171.166 297.541 168.14 290.024 165.989C284 160.071 259.803 131.631 257.836 123.433C256.991 119.912 290.646 95.4917 295.957 92.6315C304.466 93.4183 325.666 98.3067 334.895 100.234C356.337 104.711 378.254 108.7 399.607 113.257Z" fill="#3E3D3D"/>
<path d="M399.552 409.096C399.569 412.939 399.767 418.456 399.543 422.167L399.693 503.549C390.82 498.261 382.455 491.963 373.286 487.104C368.781 484.717 365.309 483.005 361.747 479.286C369.631 469.19 374.046 462.697 378.266 450.393C379.991 449.561 381.65 448.598 383.229 447.511C392.24 441.378 395.952 432.973 397.838 422.634C398.124 417.33 398.167 414.722 397.832 409.378L399.552 409.096Z" fill="#F7F7F6"/>
<path d="M215.013 683.282C255.182 701.625 322.553 702.103 364.526 688.328C364.401 731.932 356.791 779.573 352.223 823.145C351.361 826.104 349.769 831.411 346.648 832.622C334.638 837.291 314.887 836.346 303.102 832.76C300.103 829.928 298.337 826.274 298.347 822.093C298.396 800.721 299.687 779.536 298.259 758.143C298.063 755.211 298.899 751.572 299.521 748.714C301.619 739.656 303.044 730.275 305.229 721.058C309.779 719.432 322.085 715.028 323.537 710.162C320.64 707.325 299.832 715.379 298.938 717.822C296.701 723.937 295.213 733.51 293.864 740.124L280.791 802.697C278.852 812.084 277.228 821.477 275.216 830.964C271.91 846.551 257.755 843.863 245.282 843.964C239.13 844.011 223.211 842.014 219.105 836.76C212.693 828.553 216.197 813.428 216.767 803.893C217.79 790.883 219.619 777.916 219.359 764.916C218.876 740.735 212.515 706.858 215.013 683.282Z" fill="#F7F7F6"/>
<path d="M152.491 230.667C177.514 232.583 202.335 283.938 208.759 305.754C209.451 308.104 211.178 313.244 213.372 314.344L214.35 313.954C216.432 310.204 214.634 302.4 213.772 298.395C241.885 270.555 288.825 269.371 322.295 287.863C354.502 305.656 365.832 336.174 375.206 369.131C369.347 362.2 361.707 354.334 355.435 347.602C355.604 339.796 355.716 334.144 352.826 326.706C347.638 313.605 337.043 303.632 324.307 298.026C288.686 282.367 255.833 306.172 241.694 338.918C231.944 361.5 230.625 385.124 233.813 409.272C235.178 419.614 237.794 428.281 241.573 437.953C253.174 462.769 270.08 476.037 294.854 486.119C302.372 489.178 320.802 497.16 324.262 504.244C330.388 516.789 333.145 534.616 335.529 548.503L328.377 548.71C318.073 542.303 307.838 535.78 297.674 529.153C292.509 514.718 290.824 511.221 280.741 499.901C289.394 502.102 298.631 504.722 307.441 505.658C291.378 493.454 259.697 489.516 240.313 484.502C221.878 479.733 204.907 469.553 195.548 452.482C179.318 422.876 177.241 379.776 185.903 347.75C188.467 349 191.575 350.803 194.18 349.266C194.346 348.637 194.866 347.235 194.267 346.753C165.054 323.216 145.631 287.314 143.45 249.705C143.013 242.175 143.911 232.799 152.491 230.667Z" fill="#F7F7F6"/>
<path d="M201.219 329.865L200.534 331.668L199.46 332.133C196.427 331.445 194.127 329.186 191.804 326.739C176.559 310.674 162.281 284.576 161.128 262.211C161.166 260.567 161.694 258.06 163.069 257.037C167.1 254.033 173.92 261.674 176.119 264.585C186.173 275.449 206.953 315.903 201.219 329.865Z" fill="#C7C6C5"/>
<path d="M176.119 264.585C186.174 275.449 206.953 315.903 201.219 329.864C197.659 324.373 195.161 307.488 191.619 299.963C187.568 291.36 184.19 281.754 179.532 273.251C178.226 270.868 176.708 267.208 176.119 264.585Z" fill="#3E3D3D"/>
<path d="M425.869 73.4048C428.799 73.3995 432.92 74.5565 435.881 75.2588C436.083 80.1546 436.071 97.2779 437.63 100.426C438.575 93.0445 438.251 83.5301 438.478 76.0541L451.025 79.0438L451.034 115.176C447.792 115.705 441.756 115.991 439.733 118.807C437.93 121.317 438.207 181.462 439.43 186.916C439.715 188.19 440.177 188.777 441.358 189.356C443.852 190.578 448.222 189.7 451.009 189.539L450.823 229.929C447.569 230.154 442.234 229.836 440.026 232.623C438.004 235.175 438.293 286.929 439.287 292.306C439.577 293.87 439.972 294.801 441.37 295.661C443.785 297.145 448.242 296.451 451.023 296.363C450.312 352.259 451.122 408.71 450.916 464.686C446.57 465.04 440.222 465.652 436.836 468.99C434.286 471.504 435.593 477.641 434.774 479.378C432.86 483.439 428.365 483.509 428.937 490.261C429.088 492.04 431.767 495.888 431.709 496.651C431.406 500.645 428.849 502.896 431.226 507.041C432.108 508.579 436.241 511.82 436.274 512.369C436.635 518.32 435.721 520.842 441.607 525.114C443.835 526.731 447.717 528.145 450.797 528.954C450.865 535.451 451.123 543.1 450.857 549.507L443.936 550.293C446.996 544.173 449.57 535.052 441.586 532.072C430.393 527.903 413.002 547.86 406.916 554.83L406.902 289.514C413.579 290.275 416.886 290.693 417.055 282.261C417.402 264.926 416.682 247.572 417.301 230.232C417.502 224.098 411.571 223.85 406.963 223.059L406.877 185.706C413.1 186.589 417.023 187.011 417.026 179.14C417.034 159.47 417.823 139.63 416.968 119.995C416.828 116.765 409.266 115.462 406.936 115.03L406.86 79.0667C411.165 77.7211 418.507 75.6562 422.473 74.0795L425.869 73.4048Z" fill="#C7C6C5"/>
<path d="M422.368 220.852C423.47 224.958 423.928 235.517 423.533 239.65C422.552 249.899 422.829 259.022 423.234 269.29C423.62 264.187 422.66 247.051 424.58 244.856C425.812 248.76 424.691 268.05 425.203 268.986C425.368 266.917 425.643 262.052 426.032 260.246C426.6 271.479 425.974 288.65 425.989 300.377L426.076 384.031L425.953 469.473C425.999 486.745 425.957 504.174 426 521.457C426.004 523.068 425.756 523.93 424.672 524.918L423.721 524.396C421.462 520.153 422.328 479.527 422.336 471.469V387.72L422.344 280.069C422.331 260.749 421.874 240.006 422.368 220.852Z" fill="#737373"/>
<path d="M422.472 74.0795L425.868 73.4048C426.181 112.538 426.254 151.672 426.086 190.807L425.977 232.159C426.011 240.679 426.405 251.981 426.031 260.246C425.643 262.052 425.368 266.917 425.203 268.987C424.691 268.05 425.811 248.76 424.579 244.856C422.659 247.051 423.619 264.187 423.233 269.29C422.828 259.022 422.552 249.899 423.533 239.65C423.928 235.517 423.47 224.958 422.367 220.852C422.18 214.35 422.197 207.829 422.246 201.324C422.561 158.902 421.832 116.493 422.472 74.0795Z" fill="#5E5E5E"/>
<path d="M442.614 414.713C443.976 418.384 443.036 442.622 442.804 447.637C441.573 443.207 441.198 418.955 442.614 414.713Z" fill="#202020"/>
<path d="M427.518 605.435C436.122 605.637 442.844 605.132 450.9 601.865L450.972 803.85C450.974 830.603 450.676 857.781 451.012 884.492C447.577 885.469 441.198 887.445 437.862 887.87L436.295 887.573C435.081 889.251 429.828 890.192 427.575 890.755C425.663 891.339 423.603 891.042 421.799 890.224C416.853 888.423 411.885 886.685 406.895 885.012L406.969 608.15C409.907 606.407 410.665 605.796 413.218 603.539C416.29 604.144 419.368 604.713 422.453 605.249C424.144 605.26 425.844 605.217 427.518 605.435Z" fill="#C7C6C5"/>
<path d="M413.218 603.539C416.29 604.144 419.368 604.713 422.453 605.249C423.438 607.672 422.265 616.835 422.3 620.187C423.12 687.415 423.168 754.653 422.444 821.88C422.289 837.392 422.225 852.904 422.251 868.422C422.254 871.487 422.789 888.369 421.799 890.223C416.853 888.423 411.885 886.685 406.895 885.012L406.969 608.15C409.907 606.407 410.665 605.796 413.218 603.539Z" fill="#C7C6C5"/>
<path d="M422.301 620.187C422.89 617.728 422.939 616.984 424.289 614.838L424.867 615.061C426.017 618.45 425.422 619.231 425.963 622.36L425.588 886.42C425.597 888.338 425.459 889.294 426.524 890.563L427.575 890.755C425.664 891.339 423.603 891.042 421.8 890.223C422.79 888.369 422.254 871.487 422.252 868.422C422.225 852.904 422.29 837.392 422.445 821.88C423.168 754.653 423.12 687.415 422.301 620.187Z" fill="#737373"/>
<path d="M422.454 605.249C424.144 605.26 425.845 605.217 427.518 605.435L426.036 605.956C424.848 609.488 426.333 617.845 425.963 622.36C425.422 619.231 426.017 618.45 424.867 615.061L424.289 614.838C422.939 616.984 422.89 617.728 422.301 620.187C422.265 616.835 423.439 607.671 422.454 605.249Z" fill="#ADACAC"/>
<path d="M436.296 887.573C435.905 883.153 436.486 879.737 437.205 875.375C437.501 879.535 437.721 883.705 437.863 887.87L436.296 887.573Z" fill="#5E5E5E"/>
<path d="M439.88 763.238C441.063 763.004 440.665 762.839 441.477 763.232C441.51 780.062 441.937 796.886 441.564 813.721C441.48 817.514 441.628 821.556 441.037 825.301C439.17 819.394 439.793 771.381 439.88 763.238Z" fill="#202020"/>
<path d="M439.88 763.238C439.904 758.122 439.865 755.094 440.933 750.105C441.328 754.977 441.499 758.302 441.477 763.232C440.665 762.839 441.062 763.004 439.88 763.238Z" fill="#3E3D3D"/>
<path d="M237.316 505.29C240.712 505.102 250.761 506.056 252.649 509.062L250.77 510.43L250.809 511.167C254.28 513.61 259.447 514.869 263.228 516.897C282.844 527.418 301.71 540.465 320.309 552.689C317.947 553.831 311.305 556.578 312.074 559.595C314.862 560.392 323.102 556.365 328.168 556.201C342.714 555.266 356.816 556.785 371.288 556.891C392.818 557.045 392.068 568.6 392.603 586.661C392.723 590.72 390.151 602.933 386.335 604.782C368.248 613.542 336.002 611.927 316.745 609.382C293.708 605.802 269.201 592.712 249.695 580.196C246.64 578.241 236.709 570.432 233.928 570.889L233.511 571.766C235.037 577.694 244.626 584.143 249.529 587.681C241.43 600.957 225.926 614.121 212.348 621.654C212.461 612.819 214.694 603.911 214.721 594.922C214.795 570.491 205.516 513.378 237.316 505.29Z" fill="#F7F7F6"/>
<path d="M314.681 317.375C342.566 330.031 347.92 344.013 354.959 372.932C356.75 380.287 359.254 389.126 361.329 396.562C369.065 424.28 355.392 457.272 325.829 464.226C306.218 468.654 286.783 463.052 269.838 452.406C264.884 448.714 260.458 443.618 255.696 439.993C254.932 439.412 253.925 441.469 251.658 441.074C247.886 436.679 244.59 424.218 242.868 418.326C254.099 408.372 254.948 394.812 253.328 380.664C259.189 377.841 264.627 374.214 269.483 369.886L268.875 371.855C268.23 373.899 267.805 374.362 268.342 376.347C269.764 377.424 268.967 377.122 270.861 377.148C273.437 375.079 275.345 369.972 277.685 368.346C280.959 366.07 289.704 366.205 291.737 362.762L291.181 361.816C286.359 358.884 283.35 359.961 278.129 361.176C283.072 354.983 285.491 350.935 289.194 344.139C288.996 347.054 287.511 353.939 289.558 355.731C291.87 355.886 293.174 355.136 295.005 353.73C307.566 344.085 312.429 332.34 314.681 317.375Z" fill="#F7F7F6"/>
<path d="M329.217 418.754C329.669 418.705 330.123 418.661 330.576 418.621C337.085 418.063 341.817 420.209 341.961 427.249C342.184 438.067 335.595 446.12 324.843 446.127C318.881 444.425 312.231 440.316 310.981 433.957C308.682 422.262 321.454 420.075 329.217 418.754Z" fill="#3E3D3D"/>
<path d="M315.953 430.908C320.739 430.811 331.387 432.295 332.714 437.732L331.501 439.133C323.965 442.656 317.595 438.874 315.953 430.908Z" fill="#C7C6C5"/>
<path d="M288.37 380.329C299.092 381.012 304.227 396.491 294.971 402.306C284.39 402.066 278.656 385.891 288.37 380.329Z" fill="#3E3D3D"/>
<path d="M335.631 364.263C346.089 363.667 350.738 377.476 343.448 384.625C333.594 385.584 329.011 371.618 335.631 364.263Z" fill="#3E3D3D"/>
<path d="M325.597 386.49C336.606 386.701 346.683 400.371 333.077 408.927C331.001 409.319 330.57 409.559 328.644 408.939L328.258 408.135C328.956 405.608 332.719 402.635 333.643 400.957C336.567 395.644 327.497 394.399 325.597 386.49Z" fill="#3E3D3D"/>
<path d="M331.508 343.256C336.573 342.783 341.686 343.47 344.934 347.935L344.101 349.315C341.667 350.056 338.707 348.569 335.207 348.248L334.557 348.194C331.069 349.325 326.736 353.571 323.417 351.507C322.472 348.017 328.867 344.342 331.508 343.256Z" fill="#3E3D3D"/>
<path d="M587.34 103.292C588.663 103.248 618.954 127.076 623.013 130.202C612.68 142.228 601.174 154.593 590.517 166.43L477.611 179.398C466.551 180.63 455.498 181.933 444.454 183.304C444.542 163.265 444.458 143.227 444.199 123.19L587.34 103.292Z" fill="#F7F7F6"/>
<path d="M297.338 100.281C303.875 100.941 322.681 105.338 329.947 106.776C357.158 112.381 384.412 117.774 411.706 122.957C411.644 140.803 412.157 161.742 411.451 179.347C402.8 178.063 394.169 176.65 385.56 175.109C356.584 170.967 322.992 164.353 293.86 159.206C284.156 147.708 274.592 136.094 265.169 124.366C275.847 116.276 286.57 108.248 297.338 100.281Z" fill="#F7F7F6"/>
<path d="M540.871 232.376L548.006 232.048C557.117 239.851 568.294 249.973 576.917 258.15C569.208 266.388 555.885 279.2 547.613 286.679C524.731 287.095 501.872 288.218 478.997 288.553C467.492 289.003 455.984 289.347 444.473 289.586C444.561 272.201 444.52 254.814 444.35 237.429C454.602 236.446 468.135 236.163 478.656 235.634L540.871 232.376Z" fill="#F7F7F6"/>
<path d="M273.158 602.21C293.825 613.271 314.107 617.781 337.332 618.562C337.494 634.063 337.285 657.278 330.664 671.297C316.02 674.57 291.332 673.635 276.5 672.275C258.017 670.368 231.765 666.399 214.627 657.32C211.395 655.61 211.006 650.914 210.365 647.386C236.576 638.515 256.576 624.294 273.158 602.21Z" fill="#F7F7F6"/>
<path d="M291.23 616.915C295.083 618.27 294.883 620.947 293.495 624.517C288.277 637.952 277.718 651.381 264.758 658.027C262.922 657.374 262.821 657.124 262.145 655.796C263.315 652.295 271.011 648.773 275.507 643.79C284.996 633.266 285.598 628.841 291.23 616.915Z" fill="#3E3D3D"/>
<path d="M187.275 494.641C187.589 494.616 187.904 494.598 188.219 494.587C195.632 494.331 205.21 493.379 208.928 500.882C209.814 502.672 210.3 505.264 211.424 506.322L213.114 506.115C213.005 509.123 211.444 513.857 210.984 517.065C209.594 526.754 207.612 536.524 206.677 546.266C204.924 564.519 208.539 582.927 207.139 601.063C206.582 608.277 205.646 615.252 205.277 622.551C197.867 633.064 200.864 648.374 206.36 659.143C205.103 665.964 204.386 671.531 207.405 677.858C195.024 679.361 182.469 677.337 171.187 672.02C168.076 670.182 166.456 668.843 164.109 666.181C174.181 668.46 191.471 672.657 193.312 658.202C195.925 637.675 197.214 615.629 197.682 594.938C197.972 582.13 189.044 580.239 178.634 578.443C173.938 577.63 168.881 576.945 164.025 576.244C165.037 560.169 169.604 517.17 176.211 503.478C178.488 498.759 182.501 496.279 187.275 494.641Z" fill="#737373"/>
<path d="M354.373 220.945C356.576 221.168 358.945 221.753 361.158 222.123C377.912 224.929 394.696 228.659 411.524 230.891C412.07 246.162 411.739 267.896 411.435 283.239L389.423 280.085C377.219 278.249 364.991 276.571 352.742 275.054C344.346 265.454 335.21 253.536 326.961 243.49L354.373 220.945Z" fill="#F7F7F6"/>
<path d="M297.477 299.805C300.294 299.495 302.98 299.604 305.812 299.636C313.441 316.044 306.034 333.618 294.589 346.051C294.499 336.713 293.505 331.256 289.91 322.644C286.223 343.107 277.962 356.118 261.105 368.526C256.076 373.305 245.907 377.581 239.392 379.749C240.284 344.945 259.878 305.351 297.477 299.805Z" fill="#5E5E5E"/>
<path d="M260.876 268.849C256.346 249.136 254.078 233.103 256.803 212.581C258.656 198.622 267.013 182.462 280.351 199.942C294.831 218.918 298.81 247.114 298.267 270.777L291.291 269.519C288.016 268.94 283.633 268.717 280.229 268.451C274.714 249.606 274.089 234.24 272.246 215.177C267.501 225.573 272.355 256.948 275.512 268.251C270.547 268.377 265.837 268.495 260.876 268.849Z" fill="#F7F7F6"/>
<path d="M272.246 215.177C288.496 206.575 291.156 260.843 291.291 269.519C288.016 268.94 283.633 268.717 280.229 268.451C274.714 249.605 274.09 234.239 272.246 215.177Z" fill="#C7C6C5"/>
<path d="M220.174 863.279C233.862 869.022 252.777 868.953 267.061 865.457C273.272 871.12 311.395 888.401 295.269 900.439C279.242 906.761 254.456 902.521 237.976 898.054C233.733 896.901 219.946 893.894 218.277 889.798C215.712 883.503 218.345 869.691 220.174 863.279Z" fill="#ADACAC"/>
<path d="M346.717 855.89C348.017 855.879 376.386 870.961 378.895 874.047C381.492 877.24 386.421 884.188 380.83 887.126C369.283 893.198 350.464 890.802 337.751 889.23C328.23 887.923 318.83 886.053 309.366 884.571C296.802 882.6 300.616 865.16 303.024 856.113C317.718 860.262 332.073 859.555 346.717 855.89Z" fill="#ADACAC"/>
<path d="M437.532 538.027C439.516 538.946 439.517 539.095 440.283 540.726C440.136 546.973 432.65 550.272 433.508 555.318C441.008 562.363 457.574 552.413 460.624 552.763C469.234 559.653 453.521 564.615 451.357 569.375L451.736 570.166C457.597 571.495 459.739 566.889 463.56 567.388C467.945 574.921 452.928 578.422 453.076 583.697L454.3 584.233C456.937 584.228 458.461 583.251 460.862 582.114C456.021 600.41 429.605 599.522 415.182 596.255C419.209 582.539 418.442 572.939 412.634 560.078C418.118 551.648 428.422 542.064 437.532 538.027Z" fill="#F7F7F6"/>
<path d="M366.9 456.494L367.683 456.258C369.009 460.584 346.432 487.301 342.844 492.412C340.496 495.757 339.512 497.523 337.741 501.408C341.742 499.34 345.533 495.536 348.854 492.42C360.131 513.29 363.333 526.099 366.662 549.39C357.691 549.22 349.111 548.789 340.066 548.763C337.485 530.834 334.821 519.439 328.931 502.092C333.015 488.754 345.567 471.952 351.222 458.517C351.727 457.317 363.908 457.08 366.9 456.494Z" fill="#F7F7F6"/>
<path d="M155.805 610.551C166.429 614.36 180.68 618.19 191.404 613.961C190.586 624.735 189.793 649.936 187.776 659.27C183.142 667.791 162.447 660.869 158.58 655.86C151.143 646.223 154.858 622.7 155.805 610.551Z" fill="#737373"/>
<path d="M358.762 618.137C361.209 617.85 361.807 617.701 364.194 618.03C364.872 618.673 374.109 641.883 375.835 645.522C372.795 663.339 366.683 663.977 350.842 668.386C345.669 669.406 341.567 670.112 336.32 670.771C341.67 657.065 342.187 633.282 341.789 618.615C347.529 618.546 353.029 618.498 358.762 618.137Z" fill="#F7F7F6"/>
<path d="M213.382 662.027C246.271 677.173 293.883 680.966 329.48 676.62C329.344 680.721 328.649 684.897 328.069 688.966C319.361 690.571 298.831 690.778 289.858 690.475C268.533 689.763 245.417 686.464 225.122 679.701C221.626 678.533 215.944 676.578 213.448 673.693C211.629 671.595 212.979 665.039 213.382 662.027Z" fill="#F7F7F6"/>
<path d="M358.629 360.137C369.283 368.399 389.455 396.344 390.748 410.16C391.993 423.465 390.481 428.751 382.965 439.129C383.155 434.511 383.992 426.204 380.151 423.04L379.378 423.551C378.367 426.96 378.866 431.358 378.1 435.316C374.841 446.75 368.325 449.709 357.523 451.935C379.563 413.204 368.159 399.661 358.629 360.137Z" fill="#5E5E5E"/>
<path d="M448.727 471.882C451.458 471.774 455.099 472.13 457.721 472.907C462.485 474.286 466.478 477.55 468.776 481.944C473.178 490.159 473.451 503.278 470.662 512.018C468.605 518.466 466.412 521.595 460.496 524.717C457.019 523.396 442.158 520.339 443.65 515.767C447.977 513.08 458.757 516.91 460.891 513.537C458.645 509.35 447.866 508.364 443.306 507.529C440.302 506.457 435.605 504.698 437.974 500.715C443.653 497.413 455.652 502.037 461.454 501.394L462.416 500.159C461.4 492.481 442.514 496.066 436.743 490.826C436.062 488.909 436.149 489.878 436.58 487.807C441.693 480.82 462.707 491.018 463.698 485.069C460.087 479.099 441.419 480.144 441.062 474.799C442.902 472.862 446.185 472.297 448.727 471.882Z" fill="#F7F7F6"/>
<path d="M371.814 494.477C377.219 496.952 393.025 508.06 399.613 511.948C399.396 521.118 399.711 530.506 399.619 539.684C399.58 543.52 399.876 549.284 399.392 552.912C388.868 553.608 391.16 553.135 381.161 550.601C382.846 529.43 379.681 513.863 371.814 494.477Z" fill="#F7F7F6"/>
<path d="M160.875 582.284C167.358 582.183 174.957 583.899 181.357 584.908C189.559 586.204 192.759 588.722 191.875 597.402C191.217 603.868 192.067 607.071 185.615 610.386C178.416 610.513 161.145 608.139 155.525 603.613C153.478 599.91 154.836 593.402 155.661 589.434C156.433 585.721 157.797 584.249 160.875 582.284Z" fill="#737373"/>
<path d="M291.302 790.856C293.591 805.986 285.922 820.855 295.382 835.724C294.659 843.847 295.934 847.066 295.622 852.899C295.288 859.125 293.719 866.196 293.346 873.851C290.609 871.747 288.507 870.509 285.53 868.74C280.72 866.153 277.515 864.299 273.308 860.841C274.776 856.31 275.024 850.604 275.326 845.812C283.403 836.904 282.954 830.619 285.158 819.426C286.929 810.438 288.461 799.531 291.302 790.856Z" fill="#F7F7F6"/>
<path d="M205.888 478.823C206.706 478.686 208.811 478.338 209.503 478.7C216.114 482.145 221.998 485.608 229.002 488.303C222.404 492.96 219.016 496.075 214.705 502.98C212.406 495.517 208.214 490.023 200.325 488.355C179.571 483.968 170.488 496.168 165.905 513.817C163.77 522.172 162.994 531.296 161.663 539.822C161.398 541.522 161.334 542.787 160.149 543.642C153.443 541.373 158.764 524.822 159.88 519.832C166.428 490.555 177.153 482.813 205.888 478.823Z" fill="#737373"/>
<path d="M254.659 592.08C256.413 592.446 264.949 597.875 267.213 599.198C259.699 609.371 247.359 621.058 236.605 627.768L231.922 630.217C228.999 627.189 227.438 624.713 225.288 621.138C238.22 611.045 244.743 605.387 254.659 592.08Z" fill="#737373"/>
<path d="M220.239 843.772C233.396 849.86 253.733 850.057 267.791 847.613C267.409 851.433 267.047 854.397 266.372 858.164C254.871 862.599 230.495 861.532 219.757 855.04C219.745 851.146 219.983 847.645 220.239 843.772Z" fill="#F7F7F6"/>
<path d="M392.793 560.62C397.026 560.386 400.081 560.36 404.322 560.498C412.033 569.8 413.864 591.942 405.482 600.675C402.1 602.035 397.305 602.322 393.694 602.614C399.581 588.207 397.788 574.767 392.793 560.62Z" fill="#F7F7F6"/>
<path d="M237.386 491.968C242.566 491.695 259.569 494.977 264.586 496.709C275.948 500.633 284.124 513.34 288.893 523.791C284.166 521.344 276.72 516.517 271.884 513.654C262.627 508.398 254.782 500.193 243.42 498.876C232.544 497.616 226.602 502.219 218.637 508.402C223.489 500.042 228.163 495.269 237.386 491.968Z" fill="#737373"/>
<path d="M302.806 838.067C316.718 841.876 332.922 841.286 346.987 838.38C346.799 842.141 346.635 844.713 346.058 848.415C345.144 848.83 344.209 849.191 343.257 849.504C332.976 853.01 312.473 853.319 302.427 848.309C302.316 844.256 302.409 842.115 302.806 838.067Z" fill="#F7F7F6"/>
<path d="M275.473 464.196C290.113 471.267 303.497 473.959 319.716 473.033C319.7 475.351 319.508 478.942 319.825 481.12C320.855 488.197 329.355 485.028 325.21 493.808L324.837 494.207C323.632 494.215 318.087 489.914 315.644 488.472C303.059 481.04 287.761 477.057 276.175 468.187C275.2 467.441 275.439 465.449 275.473 464.196Z" fill="#C7C6C5"/>
<path d="M368.052 667.749C368.682 670.091 368.321 675.914 366.659 677.677C360.082 684.668 342.872 686.825 333.791 688.249C333.282 686.644 334.459 678.203 334.705 676.036C346.171 674.947 357.411 672.158 368.052 667.749Z" fill="#F7F7F6"/>
<path d="M357.431 484.866C368.629 492.649 374.805 525.96 374.735 539.472C374.721 542.266 375.093 546.394 374.22 549.007L373.17 549.098C369.93 526.708 365.118 508.229 353.652 488.521C354.764 487.324 356.227 486.011 357.431 484.866Z" fill="#737373"/>
<path d="M312.484 300.844C329.99 304.97 345.664 318.379 349.209 336.446C348.082 335.643 345.316 330.854 343.886 329.217C335.608 319.736 326.611 314.903 314.877 310.819C314.282 307.571 313.31 304.07 312.484 300.844Z" fill="#5E5E5E"/>
<path d="M219.797 624.687C221.643 625.394 225.47 631.343 227.008 633.436C221.882 636.002 217.417 637.846 212.101 639.891L206.657 641.84C206.973 637.58 207.28 634.154 207.91 629.946C212.199 628.22 215.686 626.854 219.797 624.687Z" fill="#737373"/>
<path d="M246.239 383.535L247.262 383.667L247.936 384.552C249.391 392.72 246.286 403.619 241.709 410.624C239.459 407.599 239.161 390.058 239.321 385.678C241.512 385.092 244.038 384.228 246.239 383.535Z" fill="#5E5E5E"/>
<path d="M338.867 466.998C339.243 467.335 338.999 467.07 339.307 467.985C337.949 472.294 332.987 479.949 330.142 483.52L329.422 483.082C328.395 481.697 327.383 480.301 326.387 478.893C326.239 476.143 326.372 474.221 326.539 471.481C331.374 470.184 334.434 469.3 338.867 466.998Z" fill="#737373"/>
<path d="M466.484 529.722C469.398 532.874 461.104 542.84 458.472 545.22C458.261 540.869 458.088 536.518 457.951 532.162C461.814 531.466 462.961 531.392 466.484 529.722Z" fill="#F7F7F6"/>
<path d="M370.881 616.432L372.975 616.793C374.851 618.652 375.216 628.347 375.546 631.662L375.061 632.151C373.263 628.491 370.969 622.875 370.037 618.923C369.689 617.452 370.026 617.526 370.881 616.432Z" fill="#F7F7F6"/>
<path d="M788.285 228.118C796.413 227.073 808.971 228.63 816.611 231.44C828.346 235.756 834.328 240.793 839.731 251.796C868.838 263.443 864.508 292.995 857.607 317.933C860.131 321.849 861.714 325.569 862.527 330.176C863.977 338.224 862.134 346.517 857.405 353.192C852.077 360.665 845.596 364.116 836.777 365.619C835.098 371.123 832.389 377.785 830.29 383.252C839.311 387.826 841.723 389.542 849.559 395.976C858.611 397.139 868.137 397.25 877.242 398.329C883.856 399.097 890.407 400.307 897.026 401.063C924.901 404.247 952.335 400.03 979.89 396.323C988.534 395.162 996.79 393.737 1005.57 394.234C1007.04 395.256 1008.52 396.438 1009.95 397.525C1015.31 395.349 1024.13 391.624 1029.85 390.647C1043.74 388.276 1059.11 386.862 1073.22 386.213C1077.49 386.016 1083.61 388.331 1084.36 393.064C1086.26 405.177 1071.1 408.348 1062.31 409.808C1064.09 413.976 1066.73 419.414 1067.5 423.758C1070.69 441.496 1051.4 454.456 1036.72 442.815C1028.49 445.643 1025.98 446.248 1017.49 444.941C1015.69 448.676 1012.29 453.867 1008.28 455.143C997.841 458.46 986.005 460.184 975.269 462.181L898.689 475.943C898.955 498.873 899.061 524.634 902.636 547.233C905.887 566.267 910.865 584.01 915.53 602.816C917.155 609.371 922.345 625.266 921.352 631.89C920.815 635.471 909.771 640.39 905.919 642.271C908.299 659.307 913.107 718.178 918.988 729.685C921.905 735.396 926.298 740.687 930.08 745.856C937.135 755.529 944.323 765.108 951.649 774.585C956.112 780.375 963.501 787.924 963.836 795.17L964.357 795.547C971.056 800.498 984.666 810.937 985.612 819.437C986.287 825.45 981.527 836.548 978.127 841.658C976.469 844.15 974.318 844.373 971.608 844.628C967.449 861.776 961.727 877.628 944.084 885.522C935.143 889.522 908.05 894.898 903.088 881.761C898.774 870.361 912.188 861.08 918.133 853.999C919.227 852.697 921.474 837.674 920.56 835.639C919.418 835.342 918.292 835.018 917.155 834.688C916.773 834.577 916.518 834.524 916.156 834.37C912.029 832.579 863.945 775.424 857.645 767.445C854.685 763.694 851.849 759.785 849.522 755.609C841.734 741.654 837.457 724.867 832.044 709.822C830.705 751.455 831.82 791.483 833.68 833.063C833.961 839.326 834.965 845.09 830.864 849.446C832.41 856.347 836.761 879.519 830.508 885.453C827.682 888.136 817.424 888.858 813.269 889.219C808.488 889.634 803.335 890.558 800.036 886.138C799.701 885.713 789.99 889.968 787.286 890.457C771.906 893.31 756.92 893.83 741.301 892.614C733.035 891.971 723.918 887.711 726.128 877.548C728.965 864.522 746.241 861.887 756.144 856.809C760.771 854.434 765.887 850.625 770.365 847.539C766.838 842.992 767.433 832.186 766.987 826.157C766.078 814.294 765.085 802.437 764.006 790.591C759.586 744.714 756.298 698.73 754.152 652.693C752.622 660.221 751.565 664.832 746.826 671.265C736.875 684.785 711.774 687.309 695.704 689.253C700.58 700.998 698.912 717.323 697.967 730.046C697.717 740.511 694.806 769.225 688.792 777.347L688.42 785.093C698.179 795.696 696.086 847.13 693.765 861.787C696.989 868.74 699.199 874.812 699.263 882.611C699.369 892.614 692.235 895.201 684.165 899.106C669.922 905.99 633.287 911.239 621.005 899.138C609.838 888.13 630.562 866.658 639.322 858.812C636.326 845 627.693 798.065 634.142 787.196C633.574 783.499 633.441 780.37 633.245 776.625C626.259 769.66 625.807 732.246 625.961 721.642L615.835 721.557C615.82 729.148 614.268 738.53 613.227 746.164C612.042 754.876 611.166 766.467 606.071 773.655L605.561 781.214C613.36 795.154 612.058 839.9 608.664 855.385C611.84 862.334 614.497 870.536 613.641 878.287C613.381 880.608 612.648 884.167 610.613 885.639C600.567 892.896 545.275 896.619 532.195 893.666C528.417 892.811 524.577 891.089 522.526 887.626C520.851 884.8 520.956 881.416 521.818 878.34C525.727 864.395 544.117 854.981 556.027 848.506C553.222 828.972 550.157 808.53 549.419 788.758C549.302 785.666 551.804 780.317 551.836 778.25C551.873 775.461 551.714 771.764 551.783 768.667C545.663 761.198 547.134 721.371 547.198 710.64C547.256 701.094 548.234 687.882 553.642 679.818C547.713 667.302 547.766 657.05 547.671 643.487C544.887 643.323 534.517 642.961 531.542 641.771C528.513 640.39 529.713 638.09 525.372 638.68C509.276 640.874 494.757 629.872 491.952 613.743C489.018 596.877 498.679 580 508.127 566.342C506.221 560.089 499.915 543.695 501.918 538.712C503.329 537.129 503.43 537.358 505.518 536.885C515.256 534.675 511.706 522.316 525.202 531.232C533.577 518.776 546.874 504.517 560.809 498.348C533.104 487.931 518.923 474.239 507.68 446.977C490.758 438.637 489.349 415.141 492.561 398.893C494.288 390.162 500.173 387.1 503.882 379.971C506.451 375.034 508.318 368.182 510.639 362.794C518.56 343.99 532.28 328.208 549.801 317.747C572.762 304.054 598.586 300.604 624.426 307.366C649.708 313.935 671.255 330.448 684.17 353.151C687.995 359.815 690.2 365.586 693.308 372.548C694.381 374.942 700.086 379.541 701.521 382.665C707.104 394.829 708.406 411.845 704.076 424.473C700.623 434.553 695.751 439.895 686.683 444.377C684.207 449.626 681.466 454.747 678.475 459.721C687.857 458.047 694.259 457.802 703.497 459.853C710.871 450.14 722.479 432.063 731.281 425.404C741.428 417.723 748.972 418.204 759.172 407.584C754.763 406.219 750.608 404.14 746.874 401.433C724.8 385.398 721.018 353.389 722.526 328.199C723.536 311.311 719.95 304.219 715.418 288.538C712.921 279.902 718.17 268.461 723.148 261.619C719.233 251.462 717.352 238.905 730.957 235.839C737.221 234.428 743.495 235.193 749.636 234.222C762.577 232.174 775.195 229.269 788.285 228.118Z" fill="#3E3D3D"/>
<path d="M596.902 494.629C594.947 494.816 592.982 494.956 591.016 495.047C570.106 495.949 549.679 488.565 534.183 474.499C518.253 459.806 508.02 434.514 507.461 413.064C506.778 386.834 517.154 358.009 535.224 338.939C551.448 321.992 573.734 312.174 597.189 311.64C620.144 311.158 643.907 319.628 660.551 335.635C671.277 344.807 677.716 356.005 683.809 368.486C679.23 368.409 677.275 368.447 672.839 370.2C655.207 382.248 655.048 419.615 666.198 435.905C666.836 436.846 667.527 437.749 668.265 438.613C672.223 442.205 673.376 442.712 678.428 444.293C663.76 476.293 631.561 494.532 596.902 494.629Z" fill="#F7F7F6"/>
<path d="M668.265 438.613C672.223 442.206 673.376 442.712 678.428 444.293C663.76 476.294 631.561 494.532 596.902 494.63C597.853 494.257 598.794 493.856 599.718 493.425C604.696 491.074 610.072 490.057 615.31 488.362C638.621 480.813 661.773 463.208 668.265 438.613Z" fill="#C7C6C5"/>
<path d="M660.551 335.635C671.277 344.807 677.716 356.005 683.809 368.486C679.23 368.409 677.275 368.447 672.839 370.2C671.064 362.327 669.731 356.574 666.177 349.13C664.461 345.542 660.312 339.046 660.551 335.635Z" fill="#C7C6C5"/>
<path d="M581.517 368.378C613.126 367.337 644.151 369.103 645.878 408.491C647.806 452.41 609.955 451.576 577.904 453.12C560.952 453.318 537.386 454.794 524.27 443.103C508.221 428.692 508.152 398.691 522.265 382.959C535.739 367.937 562.387 369.392 581.517 368.378Z" fill="#3E3D3D"/>
<path d="M602.236 396.302C616.765 395.827 618.285 417.775 607.229 423.387C606.103 423.398 604.987 423.293 603.888 423.076C594.107 421.119 592.413 402.49 602.236 396.302Z" fill="#F7F7F6"/>
<path d="M541.306 398.971C555.172 397.594 556.973 418.535 546.879 425.471C534.745 427.081 530.94 405.715 541.306 398.971Z" fill="#F7F7F6"/>
<path d="M566.238 462.198C569.819 463.295 573.187 465.34 577.31 466.077C582.925 467.08 588.025 462.573 594.071 462.837C595.771 463.702 595.239 463.059 595.872 464.698C595.393 466.806 595.25 466.892 593.906 468.661C585.592 474.572 558.36 475.31 566.238 462.198Z" fill="#3E3D3D"/>
<path d="M990.287 402.321L991.642 402.18L992.056 402.672C988.98 408.439 987.338 414.862 987.269 421.397C987.131 433.271 990.85 441.726 998.957 450.108C981.739 453.428 964.495 456.624 947.229 459.696C934.963 461.729 922.717 463.885 910.493 466.164C905.404 467.107 884.967 470.135 883.166 474.671L883.867 475.635C886.029 476.367 889.084 476.067 891.469 476.012C891.219 496.228 891.634 526.31 895.023 546.405C899.496 572.929 907.901 603.034 914.717 629.218C896.585 641.612 841.436 657.299 821.02 648.13C801.321 635.737 796.577 583.288 796.046 561.454C804.477 551.818 850.047 471.12 854.42 456.942C851.248 453.264 845.978 449.359 842.073 446.273C847.163 443.284 852.518 441.222 857.033 437.446C856.837 430.138 852.661 411.084 851.073 403.606C868.556 404.14 884.903 407.694 901.972 409.006C930.946 411.232 961.525 406.593 990.287 402.321Z" fill="#F7F7F6"/>
<path d="M889.196 579.149C891.23 579.075 890.423 578.751 891.825 579.776C892.383 581.28 892.394 580.536 891.687 582.082C885.153 587.118 856.625 591.936 847.769 592.584C845.968 592.356 845.389 591.83 844.48 590.311L844.783 589.158C846.266 587.984 848.529 587.846 850.425 587.564C863.632 585.615 876.297 582.549 889.196 579.149Z" fill="#3E3D3D"/>
<path d="M805.306 568.307C808.611 567.271 812.128 569.125 813.137 572.44C814.146 575.755 812.26 579.256 808.94 580.238C805.652 581.205 802.204 579.346 801.205 576.073C800.212 572.796 802.039 569.332 805.306 568.307Z" fill="#3E3D3D"/>
<path d="M879.203 411.342L880.717 411.911C881.126 413.853 876.042 424.377 874.958 427.148L874.544 427.532L873.656 427.338C872.169 423.127 876.6 414.806 879.203 411.342Z" fill="#3E3D3D"/>
<path d="M801.651 634.042C802.533 634.961 804.01 637.846 804.584 639.168C811.219 654.34 824.426 659.467 840.401 658.271C860.264 656.795 880.181 651.78 898.939 644.916C900.74 662.633 905.734 721.849 913.251 734.737C916.321 740.002 920.168 744.884 923.786 749.782C930.033 758.297 936.371 766.749 942.799 775.132C947.028 780.63 953.015 787.94 956.707 793.619L957.127 794.267C951.171 810.273 937.444 824.643 920.412 828.383C915.126 823.602 900.788 806.863 895.794 800.998C883.995 787.143 866.001 767.95 856.689 753.16C851.971 745.665 842.759 718.364 839.497 708.914C836.251 700.159 830.089 678.75 825.961 671.334C822.147 668.912 808.292 662.58 804.217 664.179L803.957 665.209C806.544 669.666 815.793 673.188 820.638 675.382C822.046 678.426 824.962 685.864 824.946 688.945C824.856 708.707 823.958 728.463 823.857 748.236C823.698 780.072 826.28 812.037 826.354 843.794C825.552 844.017 824.745 844.224 823.932 844.415C813.96 846.747 787.716 847.241 776.571 842.503C776.3 842.195 776.029 841.887 775.758 841.579C770.833 779.871 764.225 717.493 761.701 655.642C785.251 660.019 795.016 659.217 801.651 634.042Z" fill="#F7F7F6"/>
<path d="M740.265 267.39C765.324 281.316 780.093 276.884 806.963 270.976C818.284 268.487 818.571 274.433 816.967 283.752C814.613 297.417 822.555 307.254 826.566 319.509C827.82 323.342 825.738 329.934 829.552 333.066C832.538 333.829 833.706 332.654 835.274 330.093C838.7 324.488 843.556 316.516 851.158 322.198C859.286 328.268 856.061 342.313 850.77 349.454C845.266 356.883 839.54 357.78 830.976 359.131C826.455 374.601 823.39 375.566 825.286 391.937C822.247 397.916 820.478 399.659 815.745 404.588C807.771 412.127 800.679 416.505 790.665 420.77C784.136 417.712 781.904 415.556 777.282 410.112C784.04 410.075 803.505 405.018 805.444 397.978C804.875 396.074 805.189 396.74 803.537 395.287C800.875 395.067 791.334 400.27 787.828 401.308C777.144 404.47 765.058 403.693 755.235 398.266C743.452 391.761 736.334 379.485 732.774 366.845C728.179 350.542 728.041 300.704 732.344 284.094C733.89 278.119 737.279 272.735 740.265 267.39Z" fill="#F7F7F6"/>
<path d="M761.112 324.784C771.487 326.897 760.161 342.526 759.141 347.936C757.823 354.919 766.865 351.353 769.431 355.85C769.319 357.745 768.969 357.97 767.789 359.587C759.773 359.678 755.475 357.566 752.378 350.211C753.419 344.828 756.718 338.591 758.487 333.279C759.47 330.323 760.055 327.754 761.112 324.784Z" fill="#3E3D3D"/>
<path d="M790.623 363.796C791.823 364.003 791.722 364.108 792.864 364.709C794.809 368.493 788.12 372.199 785.135 373.559C775.806 377.81 766.971 378.116 757.329 374.724C755.332 373.645 752.484 372.009 753.547 369.425C757.6 367.558 760.713 370.337 765.085 371.044C774.999 372.645 782.75 368.81 790.623 363.796Z" fill="#3E3D3D"/>
<path d="M789.953 317.034C799.563 317.754 800.509 331.33 792.104 336.861C781.798 336.419 781.277 322.124 789.953 317.034Z" fill="#3E3D3D"/>
<path d="M743.85 317.095C754.141 317.778 754.061 330.94 746.395 336.392L745.944 336.349C735.568 335.305 736.843 322.749 743.85 317.095Z" fill="#3E3D3D"/>
<path d="M784.572 293.875L785.172 293.835C791.281 293.478 806.858 297.321 807.001 304.634C805.907 306.44 805.854 306.473 803.994 307.388C802.076 305.895 797.465 302.267 795.128 301.395C791.972 300.217 784.412 300.935 781.512 298.862C780.853 298.391 781.05 298.127 780.98 297.145C782.144 295.192 782.548 295.114 784.572 293.875Z" fill="#3E3D3D"/>
<path d="M744.658 294.963C747.351 294.765 753.349 294.94 754.13 298.123C751.872 301.642 744.121 300.641 739.037 304.396C737.497 305.888 737.306 306.255 735.345 306.903C733.305 306.594 734.086 307.068 732.854 305.565C732.243 299.165 739.478 296.048 744.658 294.963Z" fill="#3E3D3D"/>
<path d="M788.826 357.386C795.451 357.469 803.064 361.703 800.498 369.334L799.042 368.865C796.253 365.231 793.788 363.3 790.101 360.642C788.699 359.632 788.927 358.846 788.826 357.386Z" fill="#3E3D3D"/>
<path d="M749.232 423.336L749.45 423.367C751.548 425.333 742.135 439.517 743.596 443.531C745.035 447.48 749.137 449.215 752.653 451.294C750.034 453.39 742.496 458.468 742.485 461.339C742.469 465.863 746.156 474.286 747.824 478.53C758.035 504.478 773.037 536.024 791.089 557.146C790.925 577.418 794.766 596.064 797.023 615.778C797.996 624.278 793.847 645.872 784.608 649.416C776.639 652.481 763.007 649.262 754.821 646.271L754.986 638.148C754.933 623.656 754.428 605.956 752.813 591.421C756.601 592.112 764.383 594.359 767.151 591.41L766.997 590.034C765.202 587.867 755.942 586.826 752.361 586.029C751.554 572.525 740.477 475.133 734.23 470.473C731.988 472.71 733.438 485.804 733.693 489.268C730.272 486.825 728.583 485.954 724.779 484.065C723.817 473.053 720.051 467.893 710.78 462.372C725.23 442.798 727.493 434.233 749.232 423.336Z" fill="#F7F7F6"/>
<path d="M507.456 542.463C512.119 543.573 511.948 553.661 518.56 550.931C519.757 549.151 519.475 550.097 519.52 548.014C518.716 546.081 515.541 544.338 513.622 543.021L522.1 542.93C523.321 546.867 525.996 553.417 531.282 551.929C533.157 547.972 529.242 545.927 526.454 543.812L534.879 543.887C535.686 546.761 539.102 555.93 543.729 553.003C544.818 552.317 545.026 551.393 545.211 550.24C544.367 548.333 542.045 547.196 540.377 545.645L540.505 544.859C542.141 544.264 545.812 544.641 547.735 544.726C549.026 548.779 550.997 555.191 556.57 553.799C558.179 552.216 557.733 553.119 558.201 551.133C557.085 548.195 553.435 548.11 553.504 545.358C554.971 545.007 559.236 545.528 560.963 545.677C561.186 546.49 561.436 547.297 561.717 548.099C562.684 550.904 566.127 556.525 569.691 555.212C570.754 553.932 570.791 554.007 571.174 552.301C570.318 549.263 566.669 549.029 566.52 546.442C568.225 545.863 571.864 546.468 573.841 546.67C575.179 550.559 578.218 557.21 583.488 555.515C585.204 551.637 580.864 549.077 578.229 547C581.262 547.058 584.099 547.302 587.122 547.547C589.496 552.891 594.283 572.212 596.015 578.682C585.278 575.888 571.232 577.354 576.252 592.208C575.849 593.95 573.129 595.336 572.518 599.087C571.354 606.264 576.486 606.147 578.616 611.141C579.605 613.451 578.261 618.615 581.172 621.165C586.904 628.602 600.276 628.783 608.935 629.819C610.226 633.739 611.315 638.106 612.399 642.111C587.435 640.018 559.762 637.352 534.916 636.151C533.646 632.135 532.419 628.108 531.244 624.065C543.506 618.227 538.778 616.076 538.751 607.199C538.736 601.94 544.393 597.918 535.883 592.037C534.358 590.986 535.67 588.26 535.537 586.736C534.618 577.375 525.032 576.504 517.652 576.255C514.322 564.95 510.71 553.837 507.456 542.463Z" fill="#F7F7F6"/>
<path d="M731.775 501.825L732.732 501.759C735.43 505.698 738.15 522.737 738.915 528.162C743.064 558.24 745.795 588.499 747.091 618.838C748.829 669.635 746.449 674.931 695.831 681.933L697.037 678.177C699.135 671.435 699.289 668.211 699.656 661.241C715.716 667.504 714.898 666.251 714.595 648.885C714.531 645.076 714.149 640.991 713.495 637.261C724.088 626.578 723.945 619.045 725.167 604.713C726.984 583.336 721.198 561.63 714.425 541.512C712.204 534.903 708.576 528.269 708.586 521.128C708.597 516.329 706.849 509.479 710.021 505.554C714.786 501.294 725.698 501.862 731.775 501.825Z" fill="#737373"/>
<path d="M786.978 235.024C795.324 234.044 807.633 235.403 815.469 238.389C826.482 242.59 831.152 248.058 835.949 258.309C862.378 265.057 856.019 295.087 851.376 314.605C841.883 313.306 838.791 314.969 832.474 321.821C828.942 304.624 821.387 305.244 822.545 283.02C823.087 278.695 823.029 274.953 822.954 270.609C814.741 257.811 797.221 267.949 784.917 269.334C763.513 271.743 748.749 271.218 734.65 253.816C734.432 257.811 734.496 259.584 734.862 263.585C730.66 259.526 724.227 251.376 728.503 245.091C728.626 244.911 730.15 243.385 730.283 243.359C735.952 242.264 741.806 242.333 747.522 241.529C760.782 239.508 773.596 236.21 786.978 235.024Z" fill="#5E5E5E"/>
<path d="M674.518 690.018C678.561 689.178 684.176 688.796 687.735 691.218C690.057 692.791 690.476 695.484 690.87 698.071C692.501 708.728 689.223 765.054 683.894 770.903C682.301 772.656 679.984 773.033 677.716 772.98C676.871 772.954 676.021 772.911 675.176 772.847C660.827 765.543 652.317 762.159 637.474 770.956C634.727 761.086 634.419 747.449 633.436 737.207C632.804 730.593 632.135 720.51 636.459 715.145C645.32 704.154 660.142 692.307 674.518 690.018Z" fill="#F7F7F6"/>
<path d="M674.518 690.018C678.56 689.178 684.176 688.796 687.735 691.218C690.057 692.791 690.476 695.484 690.869 698.071C692.5 708.728 689.223 765.054 683.894 770.903C682.3 772.656 679.984 773.033 677.716 772.98C676.871 772.954 676.021 772.911 675.176 772.847C678.847 762.016 682.693 702.571 678.81 690.464C677.732 689.795 676 690.034 674.518 690.018Z" fill="#C7C6C5"/>
<path d="M555.777 662.245C586.691 670.766 623.953 670.596 655.53 666.49C655.551 670.559 654.388 674.724 655.62 677.704L655.121 678.001C641.399 686.294 630.354 698.055 626.513 713.902C609.832 714.481 598.92 712.489 584.704 702.544C570.249 692.424 559.055 679.877 555.777 662.245Z" fill="#F7F7F6"/>
<path d="M639.014 793.603C652.577 780.381 662.634 793.114 675.102 794.156C678.954 793.274 680.558 792.801 684.218 791.239C689.212 807.999 688.373 830.89 687.873 848.394C687.682 855.098 688.006 867.651 677.716 861.574C667.383 855.364 658.065 854.015 646.303 856.028C642.759 838.418 638.966 811.182 639.014 793.603Z" fill="#F7F7F6"/>
<path d="M675.102 794.155C678.953 793.273 680.557 792.801 684.218 791.239C689.212 807.999 688.372 830.89 687.873 848.394C687.682 855.098 688.006 867.651 677.715 861.574C679.022 838.465 679.362 816.95 675.102 794.155Z" fill="#C7C6C5"/>
<path d="M645.83 495.462C650.617 496.132 656.343 497.704 661.109 498.872C658.378 501.418 655.392 504.088 653.236 507.123C637.133 529.739 639.423 561.481 650.308 585.376C646.197 584.919 643.312 584.754 639.285 585.572C630.599 574.661 620.665 568.036 606.581 566.273C604.796 558.708 601.938 549.395 599.882 541.661C597.306 535.339 595.717 536.008 589.204 535.227C584.986 529.556 581.033 530.748 576.454 534.887C570.339 529.761 570.663 530.575 564.405 533.527C562.142 533.395 563.125 533.751 561.313 532.529C558.025 526.512 569.388 508.854 573.213 504.013C577.655 531.153 606.432 531.482 626.498 521.388C637.808 515.7 642.302 506.966 645.83 495.462Z" fill="#F7F7F6"/>
<path d="M563.343 847.204C561.106 827.782 557.021 808.169 556.825 788.519C556.745 780.444 570.223 781.979 574.935 784.04C579.923 786.218 583.175 789.071 588.822 789.788L589.534 789.879C593.97 789.331 596.413 788.97 600.536 787.037C605.115 804.434 603.601 825.333 602.81 843.129C602.454 851.103 601.519 861.276 590.118 856.803C578.494 850.938 578.696 847.841 563.343 847.204Z" fill="#F7F7F6"/>
<path d="M589.533 789.879C593.969 789.332 596.413 788.97 600.535 787.037C605.115 804.434 603.601 825.333 602.809 843.129C602.453 851.103 601.518 861.276 590.118 856.803C590.888 854.822 591.462 848.054 591.669 845.626C593.358 825.747 592.487 809.428 589.533 789.879Z" fill="#C7C6C5"/>
<path d="M556.984 688.971C567.269 703.458 578.829 712.707 595.653 718.933C600.264 719.979 604.105 720.813 608.844 721.074C608.031 728.208 604.945 764.9 600.461 768.258C597.762 770.282 593.178 769.761 590.059 769.203C587.169 767.912 583.79 765.272 580.667 763.657C571.896 759.12 565.569 759.604 556.5 762.504C553.886 743.555 553.02 707.554 556.984 688.971Z" fill="#F7F7F6"/>
<path d="M595.654 718.933C600.265 719.979 604.106 720.813 608.845 721.073C608.032 728.208 604.945 764.9 600.461 768.258C597.763 770.282 593.178 769.761 590.06 769.203C592.031 751.306 594.857 737.983 595.654 718.933Z" fill="#C7C6C5"/>
<path d="M683.793 516.386C707.965 513.825 717.713 580.897 718.717 598.449C715.769 595.246 714.063 593.987 710.461 591.686C698.423 585.588 691.687 590.231 677.662 587.851C671.675 568.185 665.975 544.221 675.691 524.608C677.689 520.576 679.867 518.481 683.793 516.386Z" fill="#F7F7F6"/>
<path d="M961.222 802.862C967.688 805.471 975.125 814.608 979.03 820.159C977.999 823.984 975.189 832.34 972.926 835.278C971.056 835.799 971.582 835.586 969.297 834.561C958.699 836.394 971.167 883.53 916.81 882.356C913.505 881.772 909.42 881.145 909.903 876.874C910.653 870.217 920.374 862.477 924.901 858.334C929.581 858.45 933.953 858.886 938.442 857.515L938.251 857.484L938.984 856.91C937.013 854.594 929.087 853.978 926.181 853.696C927.483 847.05 928.338 840.325 928.742 833.568C944.036 826.178 953.269 818.295 961.222 802.862Z" fill="#5E5E5E"/>
<path d="M796.679 553.433C802.91 519.726 814.093 484.859 822.875 451.704C827.114 435.692 835.651 409.194 835.757 393.417C843.333 399.44 845.022 401.744 846.898 411.357C848.407 419.087 849.538 427.136 851.19 434.813C847.084 436.878 837.123 441.231 834.929 444.474C834.435 449.227 844.183 455.395 847.774 458.61C837.914 477.582 828.607 495.968 818.226 514.749C812.834 524.515 801.763 543.291 797.89 553.071L796.679 553.433Z" fill="#F7F7F6"/>
<path d="M624.5 630.812C632.676 629.792 633.415 633.59 642.085 636.777C654.389 641.346 667.197 644.417 680.234 645.931C682.694 648.045 685.451 650.743 687.857 652.991C662.102 661.618 637.851 663.615 610.874 663.52C593.555 663.498 572.162 660.895 555.549 656.189C555.172 652.571 555.156 647.524 555.034 643.79C570.913 645.978 599.728 647.816 615.676 648.454C618.742 645.208 622.322 642.791 625.69 639.63C624.952 636.953 624.16 634.392 623.826 631.635L624.5 630.812Z" fill="#C7C6C5"/>
<path d="M643.731 592.122C657.092 592.308 669.114 594.072 682.157 595.878C703.051 598.762 711.099 626.392 692.952 637.633C678.666 641.851 650.85 632.368 637.032 626.796C647.105 616.272 648.651 605.573 643.731 592.122Z" fill="#F7F7F6"/>
<path d="M778.25 850.413C794.952 854.126 807.383 853.993 824.033 851.948C826.349 862.53 826.402 869.34 826.147 879.992C819.948 880.794 813.806 881.681 807.559 881.994L805.599 876.804C798.751 878.223 791.813 881.638 784.046 883.296C775.891 884.757 735.383 889.899 732.807 880.544C733.667 870.86 754.715 866.525 761.606 862.472C767.901 858.769 772.714 855.061 778.25 850.413Z" fill="#5E5E5E"/>
<path d="M581.193 884.762C577.596 885.352 573.978 885.841 570.35 886.218C564.766 886.792 527.176 890.824 528.823 881.118C530.459 871.482 554.343 855.943 563.991 854.11C570.706 852.83 583.312 861.558 589.581 864.06L590.203 864.299C596.216 864.618 598.225 864.507 603.85 861.903C605.598 868.209 610.034 880.295 600.01 881.931C593.932 882.924 587.307 884.183 581.193 884.762Z" fill="#F7F7F6"/>
<path d="M590.202 864.299C596.216 864.618 598.224 864.506 603.85 861.903C605.598 868.209 610.034 880.295 600.009 881.931C593.932 882.924 587.307 884.183 581.192 884.762C586.197 878.095 588.04 872.321 590.202 864.299Z" fill="#C7C6C5"/>
<path d="M665.746 896.944C656.486 898.755 646.998 899.116 637.627 898.011C611.665 894.872 635.136 871.312 645.261 864.517C657.788 856.108 671.128 868.469 681.673 870.823C684.829 870.499 686.082 869.888 688.909 868.427C691.39 875.577 692.086 878.276 691.703 885.873C684.903 891.801 674.4 894.941 665.746 896.944Z" fill="#F7F7F6"/>
<path d="M681.673 870.823C684.829 870.499 686.082 869.888 688.909 868.427C691.39 875.577 692.085 878.276 691.703 885.872C684.903 891.801 674.4 894.941 665.746 896.943C666.511 895.61 669.406 892.619 670.623 891.333C675.649 886.016 680.27 878.085 681.673 870.823Z" fill="#C7C6C5"/>
<path d="M763.342 412.643C763.024 412.147 765.42 447.35 765.967 451.252C768.055 466.018 770.977 480.654 774.722 495.089C777.676 506.726 781.134 518.23 785.081 529.569C787.137 535.498 789.411 541.294 791.584 547.175C792.088 548.54 791.61 550.766 791.329 552.163C791.132 552.083 782.999 538.712 782.042 537.172C769.149 515.434 755.815 485.997 747.904 462.471C751.384 459.593 759.416 454.657 759.804 450.455C758.306 446.851 752.547 444.205 749.025 442.149C753.068 431.773 757.18 421.948 763.342 412.643Z" fill="#F7F7F6"/>
<path d="M1070.05 393.336C1072.63 393.139 1075.15 392.776 1077.21 394.383C1079.46 401.268 1046.91 405.826 1041.74 407.807L1041.14 408.046C1041.19 410.703 1041.22 413.36 1041.22 416.018C1037.34 414.597 1030.5 410.393 1026.84 412.16C1026.18 413.956 1026.23 413.065 1026.73 414.93C1031.18 420.192 1050.42 424.277 1045.47 431.67C1038.75 435.228 1030.44 427.812 1020.85 428.821L1020.11 428.902C1018.99 430.001 1019.28 429.364 1019.06 430.794C1020.77 433.664 1029.01 435.523 1032.47 436.626C1025.47 439.129 1017.76 439.328 1011.4 434.682C1004.21 430.167 1003.02 413.456 1008.41 407.36C1013.66 402.777 1026.19 398.362 1032.91 397.235C1044.93 395.219 1058.05 394.439 1070.05 393.336Z" fill="#F7F7F6"/>
<path d="M669.688 501.588C676.743 501.44 682.603 504.65 687.703 509.164C679.331 509.65 673.327 514.195 669.757 521.722C660.11 542.069 663.717 565.433 670.347 586.109L669.752 586.714C666.32 586.836 661.709 586.348 658.197 586.077C655.849 581.944 653.985 578.193 652.316 573.731C644.836 553.767 645.049 510.077 669.688 501.588Z" fill="#737373"/>
<path d="M621.052 578.454C628.256 581.078 637.086 592.09 638.679 599.634C639.843 605.143 639.094 612.591 635.88 617.382C632.559 622.328 629.552 623.13 624.16 624.161C611.187 625.117 605.997 624.193 607.006 609.754C607.553 601.934 608.536 595.118 611.973 587.947C614.715 587.458 619.198 587.373 620.351 584.759C618.731 580.855 618.566 581.492 621.052 578.454Z" fill="#C7C6C5"/>
<path d="M788.8 453.796L796.078 453.629C798.436 466.612 802.633 483.532 803.855 496.609C804.036 498.531 801.018 509.058 800.365 511.57C798.346 519.081 796.567 526.656 795.042 534.282C794.829 535.339 794.76 535.403 794.287 536.385L793.618 535.843C790.191 527.672 782.324 506.241 782.956 498.04C784.002 484.495 786.839 467.478 788.8 453.796Z" fill="#737373"/>
<path d="M685.61 465.531C687.156 465.355 688.707 465.265 690.263 465.26C699.502 465.231 717.517 469.156 717.262 481.043L716.73 481.442L716.162 481.316C711.216 480.24 712.087 480.809 710.472 485.34C709.394 488.366 708.714 490.975 705.903 492.772C703.762 492.934 704.426 493.157 702.631 492.331C699.188 487.795 705.393 477.329 704.225 473.955C702.673 472.716 703.247 472.807 701.568 472.711C695.48 476.708 697.977 492.3 692.08 495.437C686.316 493.721 687.639 486.939 688.048 482.304C688.558 479.474 689.7 475.715 690.487 472.856C689.732 471.22 690.311 471.849 688.59 471.008C680.074 471.669 684.181 491.173 680.972 493.891C670.06 495.31 677.593 476.672 677.115 473.003C675.813 471.324 676.392 471.589 674.639 470.946C669.646 473.19 671.33 488.571 667.308 489.252C663.595 485.968 664.477 481.371 664.657 476.872C671.739 467.409 674.926 467.113 685.61 465.531Z" fill="#F7F7F6"/>
<path d="M688.585 379.559C690.173 380.082 691.597 381.004 692.723 382.234C702.131 392.42 702.201 421.474 691.076 431.304C679.484 431.12 679.867 407.584 680.43 400.227C681.046 392.137 682.311 385.103 688.585 379.559Z" fill="#C7C6C5"/>
<path d="M678.406 374.57C680.536 374.464 682.375 374.269 684.064 375.467C679.591 382.069 677.36 384.275 675.946 392.786C674.114 403.843 673.683 419.021 679.065 429.338C680.037 431.204 684.367 433.899 686.226 436.604C685.339 437.962 684.935 437.631 682.794 438.189C676.334 438.628 672.419 435.499 669.63 429.659C662.777 415.337 661.836 382.814 678.406 374.57Z" fill="#C7C6C5"/>
<path d="M828.989 397.718C830.456 402.792 825.265 422.151 822.583 427.447C820.803 430.949 815.905 438.039 813.466 441.796C811.331 438.979 809.057 436.153 806.868 433.366C804.579 430.213 801.492 426.724 798.947 423.702C811.644 417.082 821.058 409.678 828.989 397.718Z" fill="#F7F7F6"/>
<path d="M638.397 494.509L638.929 495.403C638.605 515.649 600.626 529.352 583.355 513.921C581.214 511.054 580.587 509.445 579.477 506.195C582.228 507.654 584.917 509.354 587.929 510.17C606.831 515.291 625.366 507.782 638.397 494.509Z" fill="#737373"/>
<path d="M655.531 666.489C667.51 664.779 681.519 661.613 692.761 657.193C692.654 664.173 692.543 668.28 690.774 675.159C678.943 667.982 667.239 672.105 655.621 677.704C654.388 674.724 655.552 670.559 655.531 666.489Z" fill="#C7C6C5"/>
<path d="M806.438 441.755C808.743 444.702 810.241 447.675 813.61 448.344C815.894 447.746 817.01 446.226 818.736 444.508C815.549 453.907 812.51 466.121 810.008 475.779L807.357 485.107C806.146 475.084 803.224 462.343 801.099 452.258C803.027 448.893 804.732 445.249 806.438 441.755Z" fill="#F7F7F6"/>
<path d="M650.701 772.502C663.058 772.104 662.851 775.504 673.646 779.482C674.565 779.822 679.607 779.865 681.094 779.982C682.167 781.251 681.758 780.518 682.056 782.399C680.281 786.973 676.042 787.366 671.877 786.149C664.663 782.649 658.426 780.019 650.282 781.002C647.594 781.326 643.03 783.206 640.788 782.208C639.349 775.27 645.277 773.91 650.701 772.502Z" fill="#737373"/>
<path d="M791.206 426.394C795.759 426.484 799.499 433.035 802.676 436.484C801.077 440.259 798.968 447.323 794.882 448.322C792.726 448.48 790.478 448.568 788.311 448.684C786.207 444.492 784.613 441.337 782.935 436.92C785.617 432.514 787.339 429.799 791.206 426.394Z" fill="#737373"/>
<path d="M567.136 767.286C578.946 767.344 579.456 772.614 589.677 776.157C590.171 776.333 597.061 776.439 598.294 776.503L599.468 777.857C599.617 781.252 595.292 781.916 592.679 782.431C583.159 783.026 580.173 777.315 571.503 775.674C568.916 775.185 562.403 775.578 559.348 775.429C555.677 769.347 562.61 767.764 567.136 767.286Z" fill="#737373"/>
<path d="M697.366 594.114C716.927 597.844 724.178 614.46 710.924 629.771C709.192 631.497 707.556 632.57 705.579 633.989C707.635 630.206 708.905 626.047 709.325 621.76C710.562 608.845 705.08 603.506 697.924 594.8L697.366 594.114Z" fill="#737373"/>
<path d="M779.594 443.442C781.172 446.211 782.255 449.042 784.253 452.451C781.602 463.477 780.428 474.724 778.558 485.874C778.08 485.322 778 484.152 777.819 483.297C776.683 477.272 771.625 452.505 771.71 447.444C773.144 446.555 772.151 448.473 775.232 448.555C777.293 447.376 778.239 445.473 779.594 443.442Z" fill="#F7F7F6"/>
<path d="M1002.1 403.053C1002.33 403.147 1002.79 403.546 1003.01 403.72C998.4 414.788 997.114 426.067 1003.92 436.975C1005.01 438.724 1008.32 439.548 1008.25 442.256L1004.18 442.962C1003.31 443.065 1002.58 443.012 1001.71 442.995C992.832 437.803 991.61 417.741 995.658 409.086C997.449 405.258 998.293 404.549 1002.1 403.053Z" fill="#F7F7F6"/>
<path d="M563.794 504.632L564.203 504.794L564.235 505.432C562.407 508.546 559.996 512.432 558.434 515.636C556.309 519.996 555.767 529.41 551.384 531.923C549.047 531.96 549.758 531.933 547.432 530.544C545.732 529.658 545.88 530.043 544.945 528.64C544.754 517.447 553.955 508.49 563.794 504.632Z" fill="#737373"/>
<path d="M770.095 410.809C771.099 411.433 773.506 414.623 774.451 415.722C778.372 420.294 779.971 421.512 785.039 424.539C782.367 427.673 780.104 431.181 777.787 434.593L773.909 441.357C769.617 430.984 768.9 422.027 770.095 410.809Z" fill="#F7F7F6"/>
<path d="M673.359 678.485C680.404 678.033 683.65 676.822 687.767 683.181C669.986 682.501 662.437 685.571 647.413 695.054C645.782 696.382 640.39 701.184 638.961 701.466C639.381 699.936 643.222 696.355 644.465 694.99C652.821 685.842 661.279 681.013 673.359 678.485Z" fill="#737373"/>
<path d="M583.988 583.867C589.141 583.639 599.925 585.849 605.307 586.826C604.393 589.148 603.373 592.792 602.613 595.262C597.125 594.959 583.185 593.674 581.714 587.288C582.128 585.413 582.511 585.264 583.988 583.867Z" fill="#C7C6C5"/>
<path d="M498.506 606.466C499.946 607.443 504.457 617.43 507.614 620.182C513.203 625.059 518.116 625.76 525.107 625.681L526.729 631.545C508.812 632.321 500.19 624.124 498.506 606.466Z" fill="#F7F7F6"/>
<path d="M580.513 597.451C581.905 597.589 587.026 598.949 588.609 599.347C593.364 600.548 596.642 600.946 601.529 601.339C601.37 604.059 601.089 606.917 600.86 609.642C594.597 609.159 576.029 607.618 580.513 597.451Z" fill="#C7C6C5"/>
<path d="M705.06 641.681C706.68 642.212 707.891 643.838 709.108 645.134L709.549 658.086C706.382 656.72 703.28 654.983 700.23 653.352C696.214 650.845 693.186 648.577 689.425 645.745C696.559 645.182 698.387 644.677 705.06 641.681Z" fill="#737373"/>
<path d="M625.669 497.314C626.217 497.2 625.903 497.195 626.588 497.516C625.877 498.916 623.73 500.047 622.328 500.825C610.874 507.179 599.654 508.241 587.175 504.703L582.234 501.943C598.65 502.764 610.008 501.406 625.669 497.314Z" fill="#737373"/>
<path d="M511.063 581.099C516.393 583.612 528.04 581.476 528.974 587.506C528.233 589.482 527.987 589.546 526.278 590.932C518.455 593.084 503.696 593.211 511.063 581.099Z" fill="#C7C6C5"/>
<path d="M529.798 596.643C532.116 596.314 533.125 597.679 533.848 599.554C533.242 607.034 523.258 606.763 517.841 606.699C514.747 605.169 512.97 602.566 513.296 598.996C514.469 598.221 517.481 598.603 519.139 598.587C523.067 598.55 526.042 597.695 529.798 596.643Z" fill="#C7C6C5"/>
<path d="M699.401 498.271C703.3 499.4 704.703 499.284 708.56 498.801C702.472 504.678 703.215 508.951 702.615 516.871L702.11 517.083L700.58 515.05C698.679 512.249 696.899 509.596 694.492 507.195C692.559 505.266 690.354 503.618 688.659 501.531C694.253 500.532 694.099 502.875 699.401 498.271Z" fill="#737373"/>
<path d="M729.066 265.852C731 266.227 731.924 266.827 733.481 267.951C733.89 269.38 731.457 273.015 730.543 274.306C726.107 280.571 725.517 288.296 724.534 295.906C724.508 296.772 724.619 296.345 724.125 297.167C723.19 295.898 722.101 291.801 721.931 290.237C720.853 280.51 723.546 273.448 729.066 265.852Z" fill="#5E5E5E"/>
<path d="M590.83 540.21C591.999 540.588 594.081 541.002 594.4 542.256C596.626 551.053 603.075 571.176 604.085 579.24L603.718 580.032C600.435 578.937 601.104 577.524 600.207 574.847C596.865 564.876 594.708 552.004 591.085 542.394L590.83 540.21Z" fill="#F7F7F6"/>
<path d="M1052.17 411.365C1054.74 411.197 1053.77 410.947 1055.89 412.193C1059.07 416.802 1056.19 423.947 1052.42 427.419C1050.57 422.773 1049.86 422.141 1046.14 419.091C1046.46 416.794 1046.19 414.704 1047.21 412.7C1048.68 411.386 1050.12 411.54 1052.17 411.365Z" fill="#F7F7F6"/>
<path d="M501.757 394.583C502.517 395.642 501.676 401.84 501.587 403.782C501.298 411.064 501.703 418.357 502.799 425.562C503.145 427.988 504.354 432.444 504.345 434.301L503.438 434.319C496.683 420.648 495.927 408.759 501.757 394.583Z" fill="#C7C6C5"/>
<path d="M715.615 488.13C719.966 489.741 730.347 493.46 731.664 498.677L730.65 498.601C728.764 497.141 728.132 496.862 725.842 496.181C719.005 495.662 716.003 496.501 709.421 498.373C713.257 494.438 713.804 493.23 715.615 488.13Z" fill="#737373"/>
<path d="M585.438 613.515C591.595 615.04 594.633 615.629 600.966 615.789C601.253 618.015 601.715 620.055 602.177 622.249C596.45 621.946 585.464 621.069 585.438 613.515Z" fill="#C7C6C5"/>
<path d="M531.871 611.066C533.04 611.565 533.747 612.383 533.996 613.584C531.978 618.131 524.68 618.801 520.339 618.657C519.179 617.35 518.236 615.858 518.331 614.094C520.559 611.671 526.132 612.564 531.059 611.284L531.871 611.066Z" fill="#C7C6C5"/>
<path d="M1060.84 425.971C1062.9 428.441 1060.06 433.929 1057.85 435.76C1052.85 439.897 1050.69 440.54 1044.53 440.437L1043.91 439.703L1044.17 438.947C1050.77 438.164 1057.35 431.331 1060.84 425.971Z" fill="#F7F7F6"/>
<path d="M504.184 592.675C504.977 593.307 507.126 595.666 507.941 596.516C506.9 609.536 511.968 606.466 513.433 615.449C505.965 612.676 504.085 599.544 504.184 592.675Z" fill="#C7C6C5"/>
<path d="M656.922 482.846L657.963 483.27C658.574 486.074 659.111 488.152 659.94 490.899L651.971 489.571L647.609 488.38C650.648 486.416 653.788 484.648 656.922 482.846Z" fill="#737373"/>
<path d="M608.749 573.163C610.991 573.699 614.338 574.246 615.761 575.936C615.873 577.763 615.767 577.242 614.295 579.144C612.802 580.154 612.468 580.573 610.789 580.063C609.397 578.369 609.174 575.468 608.749 573.163Z" fill="#C7C6C5"/>
<path d="M614.354 630.78C615.857 630.86 616.176 630.722 617.392 631.593C619.114 633.925 619.406 635.992 619.018 638.839C618.019 639.211 618.072 639.174 616.999 639.115C615.618 637.134 614.996 633.336 614.354 630.78Z" fill="#F7F7F6"/>
<path d="M591.084 542.394C588.141 542.085 580.991 542.394 579.562 540.901L580.247 540.099C582.792 539.429 587.605 540.449 590.829 540.21L591.084 542.394Z" fill="#F7F7F6"/>
<path d="M516.253 534.962C518.366 534.93 521.397 534.425 522.29 536.561L521.539 537.56C519.565 537.623 516.642 538.181 515.489 536.587L516.253 534.962Z" fill="#F7F7F6"/>
<path d="M567.274 538.765C569.393 538.717 572.464 538.42 574.047 539.913L574.058 541.214C571.88 541.225 568.538 541.575 566.992 540.231L567.274 538.765Z" fill="#F7F7F6"/>
<path d="M554.104 537.745C556.574 537.724 559.045 537.373 560.84 538.983L560.803 540.322C558.439 540.21 555.379 540.396 553.759 538.925L554.104 537.745Z" fill="#F7F7F6"/>
<path d="M540.685 537.22C543.575 536.938 546.751 536.439 548.446 539.026C545.971 539.254 543.362 539.695 541.147 538.728L540.685 537.22Z" fill="#F7F7F6"/>
<path d="M797.89 553.071C797.566 555.202 797.512 557.22 796.333 558.936L795.945 558.5C795.993 556.551 796.296 555.356 796.678 553.433L797.89 553.071Z" fill="#ADACAC"/>
</g>
<defs>
<clipPath id="clip0_15502_18457">
<rect width="1088" height="944" fill="white"/>
</clipPath>
</defs>
</svg>
