<svg width="1152" height="793.867" viewBox="0 91.671 1152 793.867" fill="none" xmlns="http://www.w3.org/2000/svg">
<path d="M687.279 91.9537C688.596 91.6708 690.643 91.8002 692.061 91.8288C709.824 97.4906 713.228 98.0075 723.398 114.23C725.648 117.822 729.349 122.393 732.358 125.44C740.689 133.871 753.902 137.998 761.974 146.233C768.257 152.64 774.276 161.195 779.648 168.448C790.414 182.98 800.809 197.065 812.391 210.972C821.374 221.761 834.767 228.473 840.836 239.483C844.093 226.264 846.636 221.409 857.312 212.778C854.584 204.093 853.644 193.077 857.604 184.717C860.861 177.832 866.897 182.507 870.508 185.437C871.436 181.691 874.485 168.033 879.683 171.369C893.869 180.47 902.064 182.3 918.883 183.457C939.144 184.852 960.784 188.129 978.238 199.479C992.672 208.794 998.708 218.187 1002.23 234.638C1013.95 245.711 1019.82 250.596 1020.79 268.431C1021.6 283.294 1012.37 303.535 1004.51 316.269C1012.83 331.253 1007.91 341.896 1000.36 355.356C1017.3 366.755 1034.1 387.046 1050.62 400.111C1062.39 409.429 1074 410.504 1085.83 418.888C1100.37 430.686 1114.39 443.236 1129.02 454.96C1136.3 460.793 1143.83 468.704 1152 473.379V483.301V548.424C1123.89 548.153 1096.07 548.75 1068.05 546.392C1060.87 545.789 1053.52 548.233 1045.39 547.061C1044.08 545.755 1044.5 546.145 1044.37 543.693C1029.41 573.029 1025.52 612.913 1024.4 645.716C1024.13 653.32 1025.99 665.976 1026.79 673.951L1031.74 720.231C1032.61 727.779 1034.99 742.409 1034.24 749.917C1033.85 753.708 1022.32 757.415 1018.71 759.322C1018.72 771.156 1018.66 782.996 1018.52 794.83C1018.48 797.76 1018.06 811.867 1018.51 814.021C1021.1 814.915 1021.06 814.252 1022.24 815.995C1022.33 817.885 1022.6 817.469 1021.71 818.678L1018.9 818.358C1017.81 819.674 1018.03 822.992 1018.42 824.657C1020.12 824.14 1020.08 823.819 1021.41 824.303L1021.52 825.152C1019.57 826.468 1019.87 824.123 1018.01 826.181C1017.59 830.484 1018.19 836.165 1015.32 838.539C1012.92 839.354 1012.78 839.006 1010.28 838.274C1004.04 838.803 997.718 838.601 991.434 838.809L938.644 840.282C931.686 840.474 923.006 840.305 916.239 840.8C912.111 842.487 909.743 842.009 907.757 837.937L905.068 837.712C904.376 839.681 904.382 839.793 902.801 841.053C899.702 842.099 898.296 840.687 895.601 840.018C890.769 839.523 879.514 839.422 874.547 839.478C873.157 841.84 871.717 844.135 868.556 843.19L868.123 843.308C864.748 844.281 861.621 845.789 858.319 846.976C826.622 858.354 792.208 863.821 758.779 867.129C749.092 868.085 742.461 868.045 732.915 870.453L730.508 871.156C725.934 871.555 718.554 873.805 712.614 874.373C691.948 876.347 671.209 878.282 650.509 879.823C582.232 884.492 513.757 885.538 445.369 882.956C402.861 881.348 363.072 879.48 320.713 873.192C305.098 870.875 291.274 867.134 276.008 864.249C268.381 862.815 257.61 863.805 248.557 862.28C229.806 859.541 211.537 856.38 193.15 851.751C181.274 848.764 171.178 844.416 159.853 840.721L159.389 840.569C148.911 839.641 158.485 827.829 161.379 823.212C161.711 815.168 158.655 796.765 157.72 787.389C154.764 757.713 151.312 726.907 155.038 697.17C155.964 689.779 158.257 681.337 160.187 674.216C143.604 668.884 123.532 662.314 114.265 646.245C111.587 641.599 111.035 637.217 110.278 632.02C106.417 627.863 102.818 623.87 103.079 617.711C103.898 598.435 111.634 579.599 117.551 561.401C118.874 557.333 121.936 551.349 122.527 547.479C110.049 548.99 91.8219 548.381 78.8332 548.233L28.9126 547.936C22.5355 547.857 5.22599 546.984 0 547.835V529.395C4.81206 527.116 25.1467 511.902 30.1426 508.262C28.8791 507.157 26.8626 504.616 25.7038 503.243C54.9293 481.299 83.7461 458.816 112.139 435.805C132.694 418.939 151.115 401.614 173.372 386.525C201.453 367.489 211.226 378.44 240.969 384.939C254.422 343.617 277.523 301.025 309.552 271.158C301.896 230.781 304.193 173.243 338.215 143.21C346.642 135.771 361.598 138.735 366.856 149.036C381.428 177.573 376.212 217.012 369.712 247.116C391.309 246.578 404.411 250.64 423.756 258.768C436.297 229.034 456.572 189.525 487.654 175.335C497.005 171.066 506.457 177.374 508.84 187.288C514.581 211.163 503.902 238.438 492.249 259.111C488.359 265.981 483.096 271.735 479.524 278.542L480.1 279.28C476.949 280.702 472.823 286.155 470.508 288.943L466.093 293.938L469.241 298.299C475.017 295.918 476.562 298.861 479.651 296.387L480.688 295.8C483.249 294.101 490.876 286.693 494.04 284.034C501.599 277.682 515.501 269.791 521.952 263.176C534.212 250.604 545.439 234.853 557.623 221.982C564.997 214.188 574.948 208.922 581.676 200.636C589.764 190.679 596.655 179.851 605.211 170.2C611.241 163.401 619.706 158.758 625.556 152.07C635.361 140.857 642.291 126.672 652.871 116.116C657.743 111.252 663.907 109.104 668.655 105.227C676.969 98.4411 677.672 96.4815 687.279 91.9537ZM491.109 655.643C493.371 659.086 496.573 664.283 499.157 667.286C516.778 671.083 526.485 672.067 542.026 682.456C550.414 682.636 569.745 682.653 577.631 683.789C577.564 678.536 577.53 673.277 577.311 668.029C576.529 649.333 577.271 630.608 576.394 611.918C560.107 627.639 540.962 634.855 522.262 616.575C509.035 603.649 505.597 581.64 502.738 564.204C502.191 560.59 501.401 550.808 500.657 547.791C487.842 547.982 475.027 547.996 462.212 547.833C454.638 547.783 445.519 548.046 438.153 547.261C441.213 558.878 452.746 589.144 458.183 600.1C464.155 612.131 486.702 629.59 490.323 644.36C491.318 648.421 491.145 651.532 491.109 655.643ZM803.852 731.204C804.184 725.557 808.386 682.293 807.576 681.117C792.146 696.073 783.563 696.141 762.688 698.711C762.497 703.374 762.233 708.149 762.289 712.801C766.839 714.336 771.024 715.956 775.485 717.7C785.582 721.828 794.469 725.585 803.852 731.204ZM438.755 684.683C434.926 682.343 428.94 678.676 425.866 675.386C412.953 661.555 401.523 643.792 392.113 627.413C389.351 622.61 385.212 611.974 382.081 608.352C378.167 614.314 372.151 621.063 369.753 627.712C368.142 632.172 360.512 680.223 361.036 683.153C361.2 684.07 361.033 683.856 361.807 684.346C363.942 685.684 379.418 686.989 383.424 687.827C388.826 688.964 394.789 691.725 400.215 692.051C405.147 692.35 410.148 690.297 415.001 689.548C421.026 688.193 434.307 686.191 438.755 684.683Z" fill="#353535"/>
<path d="M687.279 91.9537C688.596 91.6708 690.643 91.8002 692.061 91.8288C709.824 97.4906 713.228 98.0075 723.398 114.23C725.648 117.822 729.349 122.393 732.358 125.44C740.689 133.871 753.902 137.998 761.974 146.233C768.257 152.64 774.276 161.195 779.648 168.448C790.414 182.98 800.809 197.065 812.391 210.972C821.374 221.761 834.767 228.473 840.836 239.483C840.831 242.993 840.786 246.556 840.831 250.061C841.067 254.422 843.784 267.258 843.272 270.087C835.425 313.091 820.024 365.387 853.211 402.077C858.583 408.017 869.029 411.149 876.662 413.032C866.036 433.412 825.733 438.869 810.664 455.119C802.457 463.962 795.004 481.746 789.733 493.055C777.133 468.979 749.812 467.3 725.535 465.131C739.687 454.921 746.561 447.673 755.393 432.58C778.703 429.836 783.956 397.516 781.481 378.859C779.901 366.953 775.749 358.553 764.691 353.448C759.004 333.223 752.034 319.777 737.021 305.301C687.358 257.418 595.327 265.132 561.126 327.594C559.015 331.45 557.094 335.536 555.236 339.513C547.247 342.142 542.935 345.843 539.16 353.474C532.879 366.173 531.654 382.981 535.998 396.456C539.016 405.817 542.907 409.77 551.637 413.582C562.442 449.29 586.71 468.624 621.821 477.941C615.009 479.364 591.188 485.577 586.418 488.796C573.323 497.635 557.693 517.433 550.632 531.714C548.879 528.852 546.974 525.571 545.114 522.821C552.014 511.699 554.609 501.848 552.175 488.8C550.667 480.714 544.448 477.44 537.044 476.507C534.818 464.123 533.181 450.233 529.152 438.401C526.371 430.234 514.439 428.452 510.077 435.998C506.001 443.726 509.659 457.609 511.102 466.025C502.669 468.451 502.077 472.453 494.904 475.881C490.621 477.928 487.469 480.057 486.197 484.96C481.904 501.513 489.317 520.944 501.363 531.912C500.626 537.251 500.29 542.4 500.657 547.791C487.842 547.982 475.027 547.996 462.212 547.833C454.638 547.783 445.519 548.046 438.153 547.261C432.678 531.961 428.745 520.385 420.471 506.361C424.801 504.87 429.811 503.231 433.96 501.386C453.396 492.74 468.535 476.636 475.966 456.705C485.225 432.141 489.471 372 486.279 344.753C484.957 333.471 480.887 320.653 476.249 310.295C473.869 305.648 472.04 302.673 469.241 298.299C475.017 295.918 476.562 298.861 479.651 296.387L480.688 295.8C483.249 294.101 490.876 286.693 494.04 284.034C501.599 277.682 515.501 269.791 521.952 263.176C534.212 250.604 545.439 234.853 557.623 221.982C564.997 214.188 574.948 208.922 581.676 200.636C589.764 190.679 596.655 179.851 605.211 170.2C611.241 163.401 619.706 158.758 625.556 152.07C635.361 140.857 642.291 126.672 652.871 116.116C657.743 111.252 663.907 109.104 668.655 105.227C676.969 98.4411 677.672 96.4815 687.279 91.9537Z" fill="#f8f8f8"/>
<path d="M687.279 91.9537C688.596 91.6708 690.643 91.8002 692.061 91.8288C709.824 97.4906 713.228 98.0075 723.398 114.23C725.648 117.822 729.349 122.393 732.358 125.44C740.689 133.871 753.902 137.998 761.974 146.233C768.257 152.64 774.276 161.195 779.648 168.448C790.414 182.98 800.809 197.065 812.391 210.972C821.374 221.761 834.767 228.473 840.836 239.483C840.831 242.993 840.786 246.556 840.831 250.061C840.561 248.881 840.234 247.468 839.857 245.821C833.529 241.665 811.541 219.325 806.676 216.363C800.55 212.639 776.07 201.452 769.669 198.984C770.018 203.072 771.199 211.739 768.724 215.025C765.084 215.717 744.193 201.158 740.154 198.406C737.938 196.894 735.744 195.346 733.573 193.763C730.778 200.157 721.564 231.784 717.384 233.868C716.754 234.183 715.972 233.878 715.404 233.54C709.695 230.145 687.015 197.19 680.844 189.915C675.973 194.054 646.391 219.976 642.054 219.895C640.001 218.35 639.287 216.973 639.023 214.305C638.263 206.546 638.539 198.694 637.706 190.92L594.923 209.016C581.288 214.817 570.741 217.859 560.772 229.342C542.212 250.727 529.06 270.923 504.052 285.468C497.685 289.172 482.043 304.644 476.249 310.295C473.869 305.648 472.04 302.673 469.241 298.299C475.017 295.918 476.562 298.861 479.651 296.387L480.688 295.8C483.249 294.101 490.876 286.693 494.04 284.034C501.599 277.682 515.501 269.791 521.952 263.176C534.212 250.604 545.439 234.853 557.623 221.982C564.997 214.188 574.948 208.922 581.676 200.636C589.764 190.679 596.655 179.851 605.211 170.2C611.241 163.401 619.706 158.758 625.556 152.07C635.361 140.857 642.291 126.672 652.871 116.116C657.743 111.252 663.907 109.104 668.655 105.227C676.969 98.4411 677.672 96.4815 687.279 91.9537Z" fill="#c8c8c8"/>
<path d="M687.988 98.9897C714.347 103.37 712.575 116.335 730.328 133.737C736.802 140.084 751.658 145.917 756.158 150.548C765.602 160.27 776.109 176.439 784.71 187.473C789.525 193.651 795.375 200.755 799.673 206.747C792.489 203.813 771.368 192.018 765.624 192.548C763.841 194.957 764.972 204.879 765.191 208.456C754.228 201.392 742.725 193.16 731.717 186.582C727.38 193.275 719.319 217.878 716.164 226.691C711.028 221.418 704.43 212.244 699.851 206.167C694.221 199.319 687.696 188.843 681.12 183.835C670.798 190.777 654.503 204.924 644.057 213.25C643.748 206.803 644.349 190.026 641.593 185.5C636.463 183.869 593.454 204.741 584.539 207.694L583.774 207.943C593.392 199.481 600.885 186.274 609.424 176.141C615.763 168.616 623.812 165.554 629.544 159.216C639.906 147.752 647.528 131.062 658.896 120.375C661.883 117.563 669.302 115.059 672.407 112.376C678.038 107.512 681.368 102.916 687.988 98.9897Z" fill="#f8f8f8"/>
<path d="M766.136 262.385C768.96 262.578 771.154 264.731 772.459 267.053C776.368 274.012 792.72 293.839 791.713 301.317C786.87 299.983 765.883 266.599 766.136 262.385Z" fill="#c8c8c8"/>
<path d="M799.538 738.607C813.454 755.975 817.954 771.027 830.154 788.913C835.554 796.827 844.892 801.344 851.001 810.444C857.076 819.5 862.723 835.586 868.556 843.191L868.123 843.309C864.748 844.282 861.621 845.789 858.319 846.976C826.622 858.355 792.208 863.822 758.779 867.129C749.092 868.085 742.461 868.046 732.915 870.453L730.508 871.156C725.934 871.555 718.554 873.805 712.614 874.373C691.948 876.348 671.209 878.283 650.509 879.824C582.232 884.492 513.757 885.538 445.369 882.957C402.861 881.348 363.072 879.481 320.713 873.192C305.098 870.875 291.274 867.135 276.008 864.249C268.381 862.815 257.61 863.805 248.557 862.281C229.806 859.541 211.537 856.38 193.15 851.751C181.274 848.765 171.178 844.417 159.853 840.721L159.389 840.57C165.036 833.781 167.714 825.974 173.401 819.19C180.929 810.776 189.479 804.656 196.613 795.781C206.003 784.104 214.653 765.267 224.914 754.991C225.47 756.988 226.138 760.138 227.423 761.623C244.484 780.51 246.59 782.591 272.59 787.355C289.804 790.516 328.025 790.297 342.573 797.176C344.977 798.379 347.41 798.773 349.98 799.549C358.698 802.17 367.19 805.404 375.456 809.218C377.023 809.938 378.155 809.24 379.221 809.797C393.575 811.788 409.988 818.004 423.914 819.815C434.816 820.4 446.047 819.607 456.971 818.977C480.285 817.644 503.63 815.315 526.966 814.331C534.351 814.021 548.899 812.328 555.573 814.421C565.611 814.589 575.651 814.454 585.681 814.016C593.775 813.661 604.597 812.84 612.489 812.947C616.866 810.506 665.089 807.519 674.572 806.108C697.281 802.722 704.059 788.846 723.206 781.303C731.16 778.165 754.836 775.819 764.64 773.682C766.699 773.232 775.187 772.09 776.492 771.336C783.883 767.078 791.134 757.832 796.185 751.234C799.009 745.379 799.476 745.345 799.538 738.607Z" fill="#afafaf"/>
<path d="M796.185 751.234C799.009 758.495 785.599 768.665 780.446 773.007C789.75 784.745 806.642 812.88 811.159 827.087C799.729 816.361 790.447 791.017 776.784 775.802C767.256 777.827 757.676 779.588 748.052 781.095C740.554 782.265 730.018 783.289 723.195 785.6C718.442 787.214 709.161 794.251 704.857 797.491C681.846 814.775 654.277 811.822 627.238 814.364C624.06 814.663 616.511 815.045 613.485 814.139L612.489 812.947C616.866 810.506 665.089 807.519 674.573 806.108C697.281 802.722 704.059 788.846 723.206 781.303C731.16 778.164 754.836 775.819 764.64 773.682C766.699 773.232 775.187 772.09 776.492 771.336C783.883 767.078 791.134 757.832 796.185 751.234Z" fill="#353535"/>
<path d="M379.221 809.797C393.575 811.788 409.988 818.004 423.914 819.815C434.816 820.4 446.047 819.607 456.971 818.977C480.285 817.644 503.63 815.315 526.966 814.331C534.351 814.021 548.899 812.328 555.573 814.421C552.329 816.603 547.505 816.856 543.603 817.154L476.439 822.093C459.94 823.325 442.325 825.344 425.811 824.376C414.533 823.713 387.293 817.655 379.011 810.54L379.221 809.797Z" fill="#353535"/>
<path d="M242.797 782.951C237.483 778.457 226.599 769.441 227.423 761.623C244.484 780.51 246.59 782.591 272.59 787.355C289.805 790.516 328.025 790.297 342.573 797.176C342.044 797.468 341.922 797.564 341.412 797.778C336.671 799.78 274.919 792.564 266.372 790.882C259.089 789.448 252.182 787.22 245.276 784.526C239.255 795.061 232.114 811.293 222.545 818.15C224.657 812.267 238.836 788.311 242.797 782.951Z" fill="#353535"/>
<path d="M687.909 812.694C688.326 812.885 688.742 813.082 689.158 813.273C703.513 820.821 705.139 827.014 711.546 841.036C712.873 843.933 714.487 847.071 716.451 849.552C719.224 853.039 728.106 857.736 729.416 861.583L726.834 862.511C725.276 861.24 722.638 859.288 720.872 858.326C705.578 849.957 706.809 830.501 693.833 819.753C692.331 818.51 689.248 814.398 687.909 812.694Z" fill="#353535"/>
<path d="M726.834 862.511L729.416 861.583C729.934 865.205 731.903 867.281 732.915 870.453L730.508 871.156C729.433 867.348 728.713 866.06 726.834 862.511Z" fill="#868686"/>
<path d="M306.222 808.667C308.092 813.082 298.916 828.972 294.761 831.846C292.323 833.533 287.925 838.438 286.275 840.783C282.161 846.633 281.747 853.574 275.926 858.445C273.65 853.602 284.785 834.568 289.826 831.295C298.254 825.827 299.996 815.315 306.222 808.667Z" fill="#353535"/>
<path d="M413.71 841.306C417.289 844.929 408.696 869.002 406.33 873.53C403.417 867.382 410.574 847.471 413.71 841.306Z" fill="#353535"/>
<path d="M551.188 690.117C585.36 691.242 623.458 695.291 657.568 698.503C671.991 699.729 686.396 701.163 700.779 702.8C707.428 703.56 716.203 704.336 722.649 705.748C737.021 709.139 750.712 716.147 764.443 721.654C774.619 725.732 791.893 731.041 799.537 738.606C799.476 745.345 799.009 745.378 796.185 751.234C791.134 757.831 783.883 767.078 776.492 771.336C775.187 772.09 766.699 773.232 764.64 773.682C754.836 775.819 731.16 778.164 723.206 781.303C704.059 788.845 697.281 802.721 674.572 806.107C665.089 807.519 616.866 810.506 612.489 812.947C604.597 812.84 593.775 813.661 585.681 814.016C575.651 814.454 565.611 814.589 555.573 814.421C548.899 812.328 534.351 814.021 526.966 814.331C503.63 815.315 480.285 817.643 456.971 818.977C446.047 819.606 434.816 820.4 423.914 819.815C409.988 818.003 393.575 811.788 379.221 809.797C378.155 809.24 377.023 809.938 375.456 809.218C367.19 805.404 358.698 802.17 349.98 799.549C347.41 798.773 344.977 798.379 342.573 797.176C328.025 790.297 289.805 790.516 272.59 787.355C246.59 782.591 244.484 780.51 227.423 761.622C226.138 760.137 225.47 756.988 224.914 754.991C233.545 747.268 253.382 741.931 264.656 738.719C285.936 732.661 308.815 723.926 330.629 720.664C337.299 727.543 340.173 729.72 349.557 731.114C342.651 733.561 302.453 747.285 299.25 751.746L299.746 752.831C309.03 759.361 367.169 765.205 381.339 770.093C412.6 780.875 447.837 777.591 480.337 781.927C489.568 783.165 498.979 785.566 508.214 787.338C529.787 791.472 551.308 795.865 572.771 800.528C576.771 798.604 584.589 793.548 588.819 791.05C601.026 783.93 613.181 776.736 625.297 769.463L694.294 729.112C698.681 726.508 706.506 723.313 709.296 719.28C709.667 717.21 709.875 718.11 708.874 716.462C704.683 714.342 691.768 713.712 686.565 713.228L628.425 707.379C616.927 706.282 604.311 705.596 593.016 704.206C580.933 702.727 568.198 699.307 555.768 697.727C554.611 695.376 552.625 692.4 551.188 690.117Z" fill="#c8c8c8"/>
<path d="M671.062 764.874C674.302 764.986 686.329 766.274 688.354 768.344L687.988 769.986C686.964 770.082 685.935 770.133 684.906 770.144C681.84 770.161 673.296 769.587 671.023 767.112C670.478 766.516 670.854 765.97 671.062 764.874Z" fill="#868686"/>
<path d="M701.027 773.608C704.908 773.097 709.644 773.248 712.98 775.487C709.391 775.796 704.34 775.144 701.027 773.608Z" fill="#757575"/>
<path d="M25.7038 503.243C54.9293 481.299 83.7461 458.816 112.139 435.805C132.694 418.939 151.115 401.614 173.372 386.525C201.453 367.489 211.226 378.44 240.969 384.939L239.386 391.931C237.313 410.719 239.401 421.306 248.321 438.048C224.482 438.083 191.141 439.953 174.369 459.356C162.841 472.691 146.383 490.785 142.4 508.355C141.478 512.42 146.798 516.567 149.806 518.574C146.779 524.51 144.526 529.089 142.075 535.289C134.022 535.788 125.344 539.07 122.527 547.479C110.049 548.99 91.8219 548.381 78.8332 548.233L28.9126 547.936C22.5355 547.857 5.22599 546.984 0 547.835V529.395C4.81206 527.116 25.1467 511.902 30.1426 508.262C28.8791 507.157 26.8626 504.616 25.7038 503.243Z" fill="#f8f8f8"/>
<path d="M25.7038 503.243C54.9293 481.299 83.7461 458.816 112.139 435.805C132.694 418.939 151.114 401.614 173.372 386.525C201.453 367.489 211.226 378.44 240.969 384.939L239.386 391.931C228.613 389.019 215.547 386.358 204.894 383.744C191.017 380.34 169.573 398.014 159.064 406.474C126.321 432.835 94.8431 460.698 60.624 485.293C50.3424 492.683 40.7298 501.033 30.1426 508.262C28.8791 507.157 26.8626 504.616 25.7038 503.243Z" fill="#c8c8c8"/>
<path d="M1000.36 355.356C1017.3 366.755 1034.1 387.047 1050.62 400.111C1062.39 409.429 1074 410.504 1085.83 418.888C1100.37 430.686 1114.39 443.236 1129.02 454.96C1136.3 460.793 1143.83 468.705 1152 473.379V483.302V548.424C1123.89 548.153 1096.07 548.75 1068.05 546.392C1060.87 545.789 1053.52 548.233 1045.39 547.061C1044.08 545.756 1044.5 546.145 1044.37 543.693C1045.37 541.69 1050.95 512.896 1051.3 509.741C1056.85 460.782 1032.13 456.294 996.193 435.594C991.986 433.168 982.901 428.498 979.538 425.634C971.994 419.221 964.277 410.519 958.404 402.61C958.686 387.058 960.626 380.411 971.888 368.556C982.958 368.432 987.075 367.003 995.974 360.23C997.403 358.819 999 356.893 1000.36 355.356Z" fill="#f8f8f8"/>
<path d="M1000.36 355.356C1017.3 366.755 1034.1 387.047 1050.62 400.111C1062.39 409.429 1074 410.504 1085.83 418.888C1100.37 430.686 1114.39 443.236 1129.02 454.96C1136.3 460.793 1143.83 468.705 1152 473.379V483.302L1105.14 444.42C1097.05 437.679 1087.52 428.514 1079.01 422.677C1069.3 416.018 1058.25 415.385 1048.07 406.859C1030.11 391.833 1013.62 375.613 995.974 360.23C997.403 358.819 999 356.893 1000.36 355.356Z" fill="#c8c8c8"/>
<path d="M865.069 714.32C880.239 716.524 889.014 716.778 904.185 717.098C907.228 754.401 914.951 771.409 956.267 769.75C975.6 768.968 991.963 767.017 1010.75 761.96C1010.79 786.641 1009.34 813.841 1010.28 838.275C1004.04 838.803 997.718 838.601 991.434 838.809L938.644 840.283C931.686 840.474 923.006 840.305 916.239 840.8C912.111 842.488 909.743 842.009 907.757 837.937L905.068 837.712C904.376 839.681 904.382 839.793 902.801 841.053C899.702 842.099 898.296 840.688 895.601 840.018C890.769 839.523 879.514 839.422 874.547 839.478C871.914 831.227 860.85 810.669 855.653 802.969C853.262 799.426 843.424 791.056 839.779 787.434C833.293 780.988 824.406 764.845 821.616 756.375C858.026 766.803 861.924 744.811 865.069 714.32Z" fill="#ffffff"/>
<path d="M896.259 782.765C891.214 779.655 881.162 774.137 878.192 769.581L878.299 768.569C882.726 766.623 902.7 775.712 903.949 781.168C907.824 798.109 915.317 824.016 916.239 840.8C912.111 842.487 909.743 842.009 907.757 837.937L905.068 837.712C904.376 839.681 904.382 839.793 902.801 841.053C899.702 842.099 898.296 840.687 895.601 840.018L896.766 839.45C897.334 834.889 897.294 826.39 897.429 821.288C897.666 812.053 899.117 799.139 898.335 790.195C898.116 787.608 897.407 785.088 896.259 782.765Z" fill="#353535"/>
<path d="M905.456 824.213C906.474 827.734 907.959 834.225 907.757 837.937L905.068 837.712C904.466 835.597 905.271 826.902 905.456 824.213Z" fill="#c8c8c8"/>
<path d="M349.272 146.894C374.264 147.36 368.835 209.751 366.204 225.531C364.249 237.259 361.147 248.77 358.609 260.371C358.126 262.579 357.766 264.527 358.847 266.467C363.063 268.225 366.326 258.266 367.69 255.037C374.888 254.957 381.876 255.088 389.02 256.11C416.97 260.358 442.161 275.337 459.24 297.864C488.819 337.336 479.572 383.519 474.332 429.324C469.709 469.73 448.031 491.969 409.238 502.301C402.764 504.025 373.927 513.923 372.872 521.38C375.637 522.256 385.683 517.569 389.073 516.21C392.268 556.92 392.012 589.127 363.803 621.795C362.577 623.218 358.754 628.213 358.754 629.934L361.377 628.679C361.679 629.703 355.466 671.213 354.62 673.974L353.761 674.115C350.112 671.275 351.327 662.073 348.251 656.667C343.595 648.478 336.941 642.555 330.352 635.963C335.23 621.581 340.278 612.582 347.294 599.505C355.215 584.74 358.124 565.352 359.556 548.965C360.28 540.68 361.437 530.353 359.843 522.095C362.692 516.201 367.728 511.18 372.758 507.098C379.644 501.418 387.482 497.001 395.908 494.053C412.254 488.505 428.037 489.506 443.336 477.055C463.592 460.568 465.588 433.087 466.626 408.911C466.79 405.076 466.622 389.498 467.314 387.317C469.863 379.269 473.045 377.112 473.897 366.877C475.448 348.225 470.151 331.406 458.328 317.035C451.424 308.814 442.044 302.274 432.02 298.427C414.728 291.79 389.084 296.261 372.462 304.257C340.216 319.768 312.355 354.061 299.92 387.217C290.363 412.702 289.273 440.085 307.194 462.215C315.241 472.15 325.528 481.423 334.271 490.835C341.893 499.041 347.684 504.985 352.548 515.299C357.59 525.99 355.416 528.107 355.344 538.805C355.208 559.15 351.861 579.723 343.052 598.194C340.122 604.342 336.565 610.298 333.613 616.373C331.424 620.884 329.126 627.498 327.346 632.307C322.677 628.01 314.521 619.911 311.149 614.708C308.388 610.444 309.781 606.029 304.243 601.361C303 593.059 301.573 584.785 299.964 576.545C316.942 547.699 317.15 524.832 311.106 493.163C314.525 495.65 335.656 512.395 337.206 512.99L337.697 512.306C337.191 503.158 292.52 472.219 283.988 465.421C277.916 460.582 271.893 455.388 266.654 449.645C254.101 435.885 245.544 419.475 246.536 400.416C248.114 370.103 278.526 317.206 297.912 293.557C302.183 288.347 306.932 283.715 311.935 279.216C313.241 281.834 314.607 285.376 317.284 286.531C318.3 286.244 319.207 285.991 319.263 284.456C319.43 277.338 316.799 270.229 315.66 263.232C310.027 228.662 313.639 190.598 332.463 160.366C336.711 153.545 341.25 148.71 349.272 146.894Z" fill="#ffffff"/>
<path d="M341.118 269.33C336.593 275.042 330.769 276.435 329.358 267.408C325.106 240.219 325.605 209.405 340.131 185.157C341.78 182.405 345.538 179.324 348.576 182.159C353.742 187.136 354.124 194.622 354.872 201.276C358.138 215.195 350.312 258.6 341.118 269.33Z" fill="#c8c8c8"/>
<path d="M354.872 201.276C358.138 215.195 350.312 258.6 341.118 269.33L340.627 268.191C343.269 255.143 347.986 243.536 349.504 229.559C349.982 225.15 353.099 204.261 354.872 201.276Z" fill="#353535"/>
<path d="M652.658 282.029C672.666 281.032 692.561 285.581 710.145 295.174C734.057 308.197 749.239 327.337 756.906 353.397C738.759 360.99 736.234 389.408 737.179 406.703C737.702 416.174 740.976 424.163 748.395 430.216C728.64 460.125 704.441 472.003 669.234 474.273C639.422 476.333 606.133 470.161 582.997 450.03C544.862 416.843 546.965 350.602 579.617 314.274C599.108 292.589 624.268 283.774 652.658 282.029Z" fill="#ffffff"/>
<path d="M612.394 334.35C633.977 333.24 685.896 336.448 703.777 349.956C710.955 355.376 714.887 366.502 715.714 375.354C717.058 389.717 715.162 406.321 705.769 417.936C697.995 427.551 685.462 429.055 674.016 430.244C648.731 431.448 600.514 429.529 579.459 413.591C563.496 401.51 565.903 360.002 579.116 346.003C588.375 336.189 599.642 335.091 612.394 334.35Z" fill="#353535"/>
<path d="M667.643 374.022C683.123 372.245 684.658 394.619 672.609 403.203C656.494 404.802 656.37 380.929 667.643 374.022Z" fill="#c8c8c8"/>
<path d="M602.578 367.895C617.169 366.968 617.456 391.405 605.717 398.002C591.311 398.361 590.535 375.11 602.578 367.895Z" fill="#c8c8c8"/>
<path d="M615.583 437.43C626.102 437.264 638.072 441.796 649.243 440.089C652.05 439.66 657.247 439.196 659.447 441.052C660.499 444.665 656.646 448.804 654.283 451.184C647.483 456.093 640.468 457.616 632.188 455.564C624.628 453.691 613.086 446.638 615.583 437.43Z" fill="#353535"/>
<path d="M878.558 223.969C891.495 223.059 895.534 230.439 908.82 232.83C922.601 235.31 935.916 234.756 949.596 236.804C958.388 238.121 963.366 240.1 968.513 247.344C952.729 271.15 962.258 276.849 965.914 301.172C966.561 305.471 963.309 319.018 962.303 324.287C965.543 326.437 967.792 327.109 971.488 328.15C976.933 323.018 982.024 313.752 992.199 316.448C1001.77 319.274 1003.08 331.777 999.99 339.664C993.116 357.223 981.383 364.331 963.641 358.237C960.857 366.075 958.399 369.395 954.726 376.261C950.754 383.669 950.597 400.816 950.591 409.367C944.893 416.807 933.525 423.862 925.403 428.526L902.064 439.212C891.304 431.821 886.86 427.188 886.956 413.952C889.678 413.844 892.401 413.718 895.117 413.572C911.351 412.663 922.033 408.354 932.861 396.259C925.161 398.358 917.291 402.915 909.383 404.406C874.614 410.967 852.441 402.913 843.913 368.198C841.483 358.265 840.392 348.052 840.662 337.83C841.179 314.066 851.687 255.827 863.803 236.165C867.516 230.14 871.448 225.625 878.558 223.969Z" fill="#ffffff"/>
<path d="M862.577 352.328C866.908 352.502 876.128 358.571 887.372 358.647C891.444 358.682 895.506 358.212 899.46 357.246C903.516 356.245 911.469 351.638 914.113 354.689C914.079 356.711 913.984 356.776 912.847 358.532C902.34 366.147 882.945 366.363 871.031 362.172C865.901 360.368 860.406 358.723 862.577 352.328Z" fill="#353535"/>
<path d="M882.326 297.762C884.177 298.376 884.312 298.381 885.082 300.091C884.897 306.325 876.189 316.82 872.696 322.713C867.628 331.257 880.813 331.164 882.383 337.465C881.747 339.407 881.927 338.807 879.896 340.265C867.285 337.117 860.293 328.563 869.451 316.701C873.99 310.822 877.652 303.71 882.326 297.762Z" fill="#353535"/>
<path d="M918.641 289.495C930.397 291.25 927.996 309.406 919.018 314.286C905.709 312.03 909.759 294.979 918.641 289.495Z" fill="#353535"/>
<path d="M916.256 262.719C925.926 262.203 937.507 267.183 943.47 274.868C945.973 278.104 944.168 280.314 941.231 281.945C937.001 279.419 933.564 275.668 928.794 273.658C924.486 271.845 912.622 271.887 912.667 266.129C913.77 264.048 914.141 263.996 916.256 262.719Z" fill="#353535"/>
<path d="M863.387 282.27C876.398 281.332 872.415 299.695 864.619 305.783C853.256 306.331 855.962 288.597 863.387 282.27Z" fill="#353535"/>
<path d="M866.683 256.045C868.877 255.895 871.442 255.796 873.613 256.177C876.381 256.668 878.856 258.187 880.549 260.429C880.971 262.452 881.151 261.552 880.076 263.235C876.032 265.779 870.941 264.08 864.984 264.473C861.705 265.013 856.299 267.636 854.719 267.372C849.988 260.927 862.116 256.982 866.683 256.045Z" fill="#353535"/>
<path d="M987.362 323.479C990.304 323.59 993.049 323.989 995.034 326.392L994.905 327.583C990.534 331.209 987.131 324.851 979.268 338.295C978.384 339.928 977.934 340.719 976.134 341.086L975.308 340.371C973.328 332.868 980.741 325.784 987.362 323.479Z" fill="#353535"/>
<path d="M704.413 484.29C708.362 485.473 717.143 487.08 721.406 487.991C710.415 500.982 705.403 513.563 703.463 530.666C701.291 549.833 704.475 571.286 713.526 588.413C716.884 594.757 722.531 601.513 727.043 607.148L695.852 615.237C690.497 608.127 684.411 603.526 676.035 600.382C674.381 597.092 673.543 595.539 671.445 592.541C672.272 592.074 673.076 591.58 673.864 591.062C688.686 581.151 670.455 562.962 658.226 573.541C654.812 576.494 654.249 579.937 653.991 584.155C622.356 579.97 575.303 595.382 595.508 636.11C599.209 643.573 608.361 646.734 615.938 648.517C624.009 671.381 650.621 673.271 671.507 670.302C678.302 669.34 684.248 666.623 690.452 663.856C705.932 667.163 716.434 667.77 732.381 666.623C740.216 666.342 747.293 664.908 754.948 663.35C755.432 678.637 755.623 693.936 755.511 709.235C746.978 705.759 732.24 699.319 723.662 697.553C712.238 695.196 696.167 694.167 684.023 692.986C651.308 689.808 617.704 686.174 584.938 684.206C584.207 624.692 576.624 557.788 601.442 501.716C605.059 493.543 607.753 490.161 615.926 487.239C614.717 502.063 623.604 509.489 637.29 512.868C661.922 518.949 697.23 512.355 704.413 484.29Z" fill="#ffffff"/>
<path d="M980.207 435.896C997.037 444.853 1015.84 454.335 1031.35 465.377C1039.04 470.843 1043.05 479.912 1043.62 489.628C1046.05 531.058 1022.34 587.693 997.83 620.659C991.721 628.871 981.045 637.274 970.706 637.718C941.181 638.984 904.804 616.879 878.822 603.942C871.684 600.388 856.558 592.238 851.445 588.025C851.732 576.14 854.561 566.471 861.221 556.687C864.771 552.256 868.241 549.362 872.539 545.813L924.384 565.076C936.247 569.396 950.968 574.093 961.965 579.796C965.272 581.511 973.856 591.214 977.147 594.634C975.825 585.286 973.063 582.659 966.431 576.337L968.653 575.971C976.562 574.649 973.912 574.115 979.121 568.693C989.106 568.974 987.812 566.927 991.468 560.072C992.571 558.001 997.768 557.244 999.056 553.514C1000.95 548.036 998.797 547.143 996.373 542.715C995.777 541.527 997.959 539.072 998.274 537.67C1000.56 527.393 987.497 524.531 980.668 522.606C984.409 514.694 988.476 506.393 991.198 498.081C983.334 505.225 979.037 512.268 974.672 521.903C966.42 522.255 961.093 523.895 953.55 526.672C958.601 520.495 971.134 501.643 974.857 494.597C971.454 490.125 965.706 484.801 961.605 480.815C967.826 479 976.073 476.82 981.804 474.192C981.163 462.347 980.494 447.599 980.207 435.896Z" fill="#ffffff"/>
<path d="M1022.78 470.283C1024.56 470.098 1028.28 469.921 1029.89 470.569C1028.82 471.469 1024.71 472.459 1023.18 472.935C1015.12 475.43 1008.93 480.389 1002.46 485.621C1000.17 487.8 998.331 489.175 995.805 491.083C996.446 489.839 997.127 488.616 997.841 487.413C1002.92 479.05 1013.34 472.689 1022.78 470.283Z" fill="#353535"/>
<path d="M251.985 474.23C275.53 474.737 285.121 504.396 286.559 523.658C284.468 518.611 282.839 516.145 279.452 511.899C287.727 540.477 291.198 570.437 296.545 599.617C292.859 598.492 281.866 594.853 278.683 596.855C279.42 598.222 295.102 603.667 297.852 605.917C302.825 609.978 301.39 614.888 305.25 619.826C316.038 633.635 331.068 644.895 340.799 659.407C342.5 661.943 343.317 666.319 343.762 669.255C325.805 669.593 310.234 683.801 310.518 702.081C293.029 700.089 287.097 692.339 275.451 679.413C265.971 668.828 250.264 650.25 243.718 637.583C233.158 617.149 230.443 587.277 225.726 564.503C224.624 559.187 222.977 544.389 220.737 540.552L219.775 540.633C216.53 548.846 221.107 580.06 222.671 589.875C212.642 596.524 204.811 600.68 193.556 605.174C203.497 573.283 209.132 540.221 221.055 509.041C226.626 494.472 235.792 478.392 251.985 474.23Z" fill="#ffffff"/>
<path d="M282.877 609.212C286.33 608.982 293.601 608.656 296.112 611.44C294.176 613.257 285.549 613.178 282.364 613.425C279.771 613.87 273.226 616.125 271.153 615.36C272.422 612.098 279.807 610.073 282.877 609.212Z" fill="#353535"/>
<path d="M440.399 336.666C442.163 337.662 445.248 342.294 446.304 344.149C460.301 368.185 451.42 393.357 445.377 418.029C439.396 443.235 426.756 468.963 400.613 478.004C371.013 488.241 343.401 468.078 329.084 443.344C323.883 433.732 322.264 424.245 319.54 413.908C310.27 412.895 307.137 413.383 302.369 404.585C304.365 395.162 309.845 381.907 314.395 373.381C316.525 375.606 324.134 385.133 326.884 384.208C335.173 381.419 344.863 370.273 349.875 363.271C371.082 362.908 382.271 358.999 401.015 349.657C398.564 352.926 394.801 357.181 398.06 361.009C400.264 361.999 402.598 361.943 404.919 361.39C421.862 357.358 430.945 350.287 440.399 336.666Z" fill="#ffffff"/>
<path d="M377.57 386.964C390.879 386.435 386.396 406.066 376.688 411.894C363.259 410.916 368.772 393.181 377.57 386.964Z" fill="#353535"/>
<path d="M431.692 395.289C441.433 397.402 437.73 410.49 433.478 416.052C431.961 418.037 430.36 418.635 428.181 419.578C416.708 416.085 422.863 399.796 431.692 395.289Z" fill="#353535"/>
<path d="M366.672 365.004C374.182 364.328 384.465 374.173 391.309 377.434C393.365 378.413 399.206 381.125 400.136 382.761C399.996 384.464 399.087 385.124 397.911 386.421C396.091 386.803 394.842 386.875 393.022 386.469C388.871 385.542 366.738 371.382 365.441 369.036C365.159 367.26 365.738 366.689 366.672 365.004Z" fill="#353535"/>
<path d="M444.37 378.062C447.344 377.813 451.573 377.844 450.334 382.122C446.867 385.66 434.294 389.101 428.84 390.974C425.699 391.23 421.629 390.9 422.048 386.814C424.712 383.381 439.21 379.693 444.37 378.062Z" fill="#353535"/>
<path d="M385.75 447.942C391.803 448.114 402.652 449.119 404.617 456.404C403.183 459.773 396.914 456.159 394.023 455.181C386.968 453.364 376.526 456.523 372.907 453.488C372.574 448.436 382.348 448.226 385.75 447.942Z" fill="#353535"/>
<path d="M409.326 413.491C412.166 414.75 415.279 420.104 415.82 423.087C417.508 432.394 413.822 435.89 405.387 437.767C403.338 437.403 402.271 436.918 401.116 435.404C402.21 432.626 407.5 431.545 411.016 429.769C409.072 423.812 407.569 419.586 409.326 413.491Z" fill="#353535"/>
<path d="M1020.17 599.994C1020.74 602.817 1018.47 618.347 1018 622.194C1015.17 646.104 1019.17 670.515 1021.61 694.363C1023.36 711.513 1024.89 729.973 1027.74 746.88C1027.04 747.313 1026.34 747.724 1025.62 748.123C1007.01 758.354 954.253 765.97 932.996 759.974C924.941 757.702 920.97 753.326 917.122 746.211C907.774 724.281 907.335 652.764 907.194 627.481C964.283 650.39 985.905 662.624 1020.17 599.994Z" fill="#ffffff"/>
<path d="M1003.58 679.633C1004.14 679.52 1005.79 679.419 1006.44 679.363L1007.92 680.684C1006.56 687.49 965.492 688.744 959.366 688.941C957.302 688.643 955.344 688.429 954.669 686.253C955.682 685.28 956.745 684.92 958.151 684.796C973.513 683.412 988.335 682.293 1003.58 679.633Z" fill="#343434"/>
<path d="M228.781 619.269C229.686 620.574 233.554 635.311 235.368 638.73C242.557 651.667 252.199 664.193 261.897 675.448C277.732 693.818 286.376 707.874 311.954 710.169C313.627 711.502 315.87 713.639 317.515 715.118C303.442 718.797 285.21 725.198 271.819 727.976C258.821 718.431 247.766 711.085 231.42 708.588C237.118 712.565 244.176 715.63 250.29 719.089C256.093 722.374 261.413 725.906 266.978 729.573C256.52 732.301 241.276 737.352 231.604 741.565C210.953 750.261 203.763 774.677 190.454 790.994C184.67 798.081 175.145 806.58 168.392 813.29C165.671 798.818 164.86 783.39 163.434 768.85C158.074 714.224 159.666 686.27 181.623 636.391C197.517 635.226 215.141 626.891 228.781 619.269Z" fill="#ffffff"/>
<path d="M468.614 705.376C475.257 709.449 495.731 723.91 502.351 713.898C504.024 711.372 503.376 706.968 502.727 704.06C505.456 704.938 508.916 706.046 510.8 707.103C519.883 712.21 528.2 723.128 539.086 715.31C540.531 714.269 544.674 715.821 550.053 711.969C561.27 714.213 571.573 715.506 582.553 717.497C573.041 722.925 554.973 732.487 546.653 738.061C557.091 734.669 576.579 723.966 587.233 718.622C593.381 719.095 605.514 719.674 611.151 720.692C609.036 722.188 607.478 722.981 606.319 725.265C606.369 730.772 614.751 728.623 617.001 735.35C616.629 736.807 616.815 736.987 615.049 738.1C602.567 745.969 579.009 733.651 572.046 746.695C571.32 748.062 572.58 751.448 573.362 752.589C575.494 755.689 575.46 756.65 575.426 760.464L575.887 760.756C582.772 753.686 571.213 750.334 575.629 746.29C585.782 736.97 606.628 749.26 617.124 739.495C624.426 732.701 613.311 727.785 608.423 725.271C611.038 723.763 613.074 722.588 615.825 721.339C631.356 722.531 647.781 724.528 663.328 726.289C640.609 740.097 617.681 753.557 594.546 766.657C585.928 771.544 576.636 777.726 567.877 781.978C544.975 777.343 517.518 772.619 495.268 766.679C497.228 766.043 499.44 765.622 500.694 764.142C498.934 764.48 491.688 766.358 490.686 766.257C470.202 764.125 448.959 764.137 428.524 762.084C429.904 761.319 434.972 758.647 436.015 757.905L435.223 756.071C430.9 758.192 426.025 760.2 421.582 762.14C410.106 760.126 396.311 756.589 384.489 754.153L383.18 756.313L375.707 754.98L376.771 752.758C369.133 751.144 357.824 749.119 350.696 747.162L369.869 739.867C378.771 747.167 382.98 747.499 389.876 742.589C390.814 741.92 396.962 745.412 398.474 744.991C403.173 745.801 405.28 741.115 407.795 740.913C413.373 740.457 417.454 743.483 420.418 736.329C423.646 728.533 431.834 732.937 427.472 720.765C438.881 716.153 450.596 712.3 462.06 707.823C464.229 706.979 466.378 706.035 468.614 705.376Z" fill="#f8f8f8"/>
<path d="M376.771 752.758L384.489 754.153L383.18 756.313L375.707 754.98L376.771 752.758Z" fill="#1d1d1d"/>
<path d="M435.223 756.071C439.402 754.226 442.29 752.848 446.738 751.673L447.273 751.526C443.306 754.434 440.642 756.071 436.015 757.905L435.223 756.071Z" fill="#1d1d1d"/>
<path d="M445.419 733.629C433.384 711.682 464.462 726.829 472.521 723.42L472.76 722.605C474.094 718.167 475.044 717.677 479.302 715.444C480.536 714.803 481.783 714.19 483.043 713.6C480.415 716.215 476.09 719.573 475.932 722.925C478.613 727.194 495.349 728.319 499.872 727.172C507.476 725.237 521.883 718.471 529.454 724.433C531.606 727.892 529.166 732.391 525.876 733.927L525.061 733.589L524.78 732.706C526.237 730.389 527.474 729.461 527.221 727.256C522.699 720.569 507.601 727.11 502.041 729.815L502.407 730.473C505.108 735.429 504.509 740.075 507.801 740.84C517.459 743.089 527.45 741.571 537.667 742.594C540.73 740.907 542.126 740.35 545.425 739.141C543.342 740.643 541.671 741.925 539.387 743.14C542.524 745.064 545.107 746.245 546.447 749.726C546.503 754.221 539.263 760.194 542.246 762.714C552.25 771.145 567.135 762.927 576.298 761.189C567.844 767.286 558.55 770.38 547.967 768.704C543.558 768.001 537.383 764.525 538.53 758.76C539.262 755.075 544.411 754.834 543.372 749.653C541.822 747.252 539.641 746.577 536.928 745.733C535.242 746.082 535.295 746.087 533.793 746.954L533.148 744.827L532.458 744.754C523.788 743.894 508.363 746.211 500.86 740.806L500.637 740.153L502.898 739.456C503.584 737.538 502.009 734.366 501.207 732.403C490.686 726.947 485.985 733.095 473.419 724.871C470.138 724.928 466.996 724.821 463.795 724.815C458.378 724.804 448.718 721.795 444.744 725.856C444.602 728.932 448.751 731.57 447.556 733.876C443.688 741.34 437.752 745.936 450.951 748.849C455.269 749.8 464.588 741.02 469.493 740.997C485.133 740.148 483.181 746.481 499.451 741.155C487.082 751.566 484.234 742.296 471.288 743.134C461.009 743.804 452.37 758.501 441.931 747.674C437.621 743.208 442.699 736.942 445.419 733.629Z" fill="#353535"/>
<path d="M507.471 759.12C512.691 755.531 527.386 747.392 533.148 744.827L533.793 746.954C524.896 750.711 517.201 755.632 507.471 759.12Z" fill="#1d1d1d"/>
<path d="M851.018 441.618C850.641 444.022 838.963 459.857 836.859 465.25C839.773 468.425 844.706 472.009 848.188 474.658C842.974 478.354 838.491 481.579 833.541 485.604C835.493 496.847 841.168 524.59 844.881 534.681C835.065 535.072 832.427 535.779 823.691 539.954C822.842 526.675 822.128 505.938 819.602 493.564C816.193 512.24 817.11 525.023 818.066 544.032C812.711 549.218 811.311 551.249 807.638 557.575C800.944 556.645 799.166 556.591 792.551 557.929C796.776 559.711 802.845 561.304 807.356 562.629C797.906 564.632 791.466 565.987 784.958 573.17C810.152 567.174 812.773 568.215 837.326 575.02C838.974 580.431 839.469 580.69 844.054 584.166C844.104 589.594 843.598 591.472 847.997 595.179C859.151 602.21 874.103 610.135 885.893 616.063C774.596 633.859 740.43 630.963 790.211 511.919C797.484 494.53 806.648 467.395 821.689 455.872C828.394 450.737 843.114 445.012 851.018 441.618Z" fill="#ffffff"/>
<path d="M878.839 179.146C907.678 198.237 944.308 185.064 974.638 205.847C990.09 216.436 992.357 223.065 996.109 239.919C998.331 241.569 1000.51 243.246 1002.62 245.042C1023.9 263.201 1009.56 292.39 999.152 312.116C995.361 310.381 993.673 310.044 989.606 309.409C980.387 309.277 975.656 313.864 969.199 319.537C970.352 313.776 972.681 304.312 972.247 298.785C971.421 288.173 964.249 277.447 966.482 266.359C967.787 259.879 971.961 254.76 974.132 248.253L974.351 247.588C974.008 246.504 973.631 245.429 973.226 244.367C967.635 230.084 947.098 229.781 934.386 228.859C913.59 227.35 887.625 226.058 878.709 203.462C877.607 200.662 875.256 197.57 873.996 194.349C875.289 194.071 875.773 194.248 877.022 194.543C877.281 194.333 877.545 194.123 877.804 193.912C877.466 188.72 877.854 184.127 878.839 179.146Z" fill="#595959"/>
<path d="M412.163 509.898C412.28 509.963 412.404 510.019 412.516 510.094C423.439 517.385 440.98 586.877 451.351 603.2C459.857 616.592 476.863 631.115 482.708 644.518C483.766 646.943 484.225 649.687 484.76 652.269C469.072 648.495 459.01 655.368 450.517 668.294C448.391 671.882 447.904 674.486 447.133 678.525C445.081 678.013 442.967 677.518 440.999 676.736C422.326 669.272 395.33 619.539 387.388 601.175C389.935 598.7 392.23 595.984 394.239 593.053C409.773 570.442 417.246 536.897 412.163 509.898Z" fill="#ffffff"/>
<path d="M433.621 600.202C435.556 600.146 438.979 599.808 440.174 601.428C437.284 603.571 431.897 604.758 428.494 606.276C426.315 607.25 423.951 608.594 421.86 609.758L415.72 612.913C420.879 605.63 425.102 602.682 433.621 600.202Z" fill="#353535"/>
<path d="M750.538 503.878C762.019 506.088 770.484 523.284 774.253 533.107C764.274 562.872 742.545 613.352 785.649 628.173C775.277 656.999 749.599 658.057 722.903 659.637C717.204 659.677 712.367 659.767 706.691 659.215C716.816 645.39 715.967 633.404 707.068 619.174C722.424 615.473 738.09 610.18 754.043 610.355C756.113 610.371 757.62 610.394 759.628 609.871L759.814 608.943C755.831 604.82 743.518 605.225 738.096 605.422C733.59 580.612 724.658 519.382 750.538 503.878Z" fill="#ffffff"/>
<path d="M861.03 627.931C862.881 627.678 862.189 627.402 863.342 628.263C863.432 631.002 863.258 633.826 863.044 636.565C860.636 667.883 860.389 699.572 855.945 730.67C853.352 748.793 845.663 754.648 827.753 750.081C819.714 748.028 815.389 746.835 810.534 739.501C810.343 734.354 811.676 723.145 812.194 717.717L816.188 677.776C817.943 678.339 819.709 678.879 821.475 679.396C824.231 680.201 826.447 681.106 829.024 679.706C829.867 677.968 829.733 678.856 829.429 676.933C826.976 675.178 820.339 673.547 817.037 672.551C817.554 659.508 819.084 644.738 820.226 631.604C834.379 631.598 847.114 629.855 861.03 627.931Z" fill="#ffffff"/>
<path d="M566.854 519.108C567.411 520.56 565.239 530.551 564.947 533.515C564.463 538.58 564.289 543.669 564.429 548.755C564.671 558.243 564.896 561.584 567.332 570.796C569.666 579.627 573.289 586.731 576.101 595.292C576.439 596.315 576.045 599.921 575.916 601.169C570.127 609.269 563.4 616.575 553.393 619.348C546.792 621.232 539.707 620.321 533.798 616.823C519.509 608.436 515.586 590.679 511.666 575.887C509.63 566.044 508.334 556.059 507.79 546.022C521.777 550.305 535.51 548.405 545.344 536.973C553.88 554.163 555.767 565.661 560.98 583.508C563.265 566.353 560.007 556.293 554 540.439C558.074 532.093 561.225 526.531 566.854 519.108Z" fill="#ffffff"/>
<path d="M430.945 262.653C441.908 234.11 459.949 199.151 487.879 183.612C492.235 181.189 499.571 181.331 501.163 187.018C506.138 204.786 499.56 225.087 492.73 241.625C486.818 255.373 472.017 277.871 461.001 287.147L455.268 281.908C451.94 279.125 449.197 276.242 446.173 273.157C449.099 267.777 452.8 259.008 455.822 253.13C459.515 245.949 468.515 230.992 470.459 224.022C458.5 237.21 449.872 254.131 442.964 270.428C439.125 267.956 434.659 265.215 430.945 262.653Z" fill="#ffffff"/>
<path d="M470.459 224.023C473.701 219.999 479.722 210.48 485.487 212.986C487.948 215.772 488.221 220.725 487.924 224.236C486.445 241.679 470.545 268.656 457.863 279.759C457.024 280.506 456.159 281.223 455.268 281.908C451.94 279.125 449.197 276.243 446.173 273.157C449.099 267.777 452.8 259.008 455.822 253.13C459.515 245.95 468.515 230.993 470.459 224.023Z" fill="#c8c8c8"/>
<path d="M407.411 302.284C408.326 302.229 409.241 302.184 410.157 302.15C421.706 301.739 431.964 303.601 440.547 311.577C440.353 332.037 426.756 349.713 406.227 352.987C410.712 345.391 414.692 337.688 417.731 329.398C413.954 331.911 410.466 334.843 406.713 337.47C400.298 341.961 393.976 345.305 386.967 348.727C367.592 356.022 346.056 358.731 325.819 353.388C328.956 349.809 331.937 345.424 335.253 341.702C354.919 319.617 377.56 304.624 407.411 302.284Z" fill="#595959"/>
<path d="M199.92 463.015C208.694 462.463 217.697 465.835 225.163 470.21C208.322 482.804 195.141 516.294 186.282 535.713C184.611 539.376 181.171 551.204 179.232 553.419C177.137 553.838 177.621 553.595 175.219 552.506C166.358 548.188 157.012 544.251 148.324 539.736C149.21 536.998 150.608 533.469 151.909 530.658C161.804 509.278 172.498 485.251 189.645 468.613C192.3 466.037 196.656 464.278 199.92 463.015Z" fill="#757575"/>
<path d="M964.434 421.568C978.092 431.957 974.194 453.469 975.442 469.756C970.363 471.26 954.956 474.834 952.852 478.182C953.179 481.896 963.793 491.879 966.96 495.239C961.841 502.5 956.886 509.872 952.087 517.351C944.269 529.682 942.165 535.206 931.894 545.986C928.732 549.48 926.421 552.622 922.933 556.231L916.087 554.688C917.421 546.046 921.077 535.297 923.749 526.763C930.802 503.719 939.161 481.094 948.78 458.997C954.225 446.362 960.199 434.675 964.434 421.568Z" fill="#ffffff"/>
<path d="M130.938 576.916C140.79 583.682 153.797 589.301 165.337 592.53C161.484 606.631 155.958 621.08 152.744 635.299C149.976 647.555 149.684 654.699 156.429 665.155C151.512 667.062 122.689 649.811 119.81 642.82C112.594 625.305 125.57 593.795 130.938 576.916Z" fill="#757575"/>
<path d="M227.342 473.505C228.654 474.21 230.186 476.987 231.092 478.382C214.023 492.277 203.57 540.717 198.055 561.203C193.83 576.888 189.399 592.513 184.765 608.082C168.416 611.704 162.546 622.987 172.545 637.364C171.921 640.941 165.265 656.544 163.38 662.995L162.971 663.929L162.062 664.204C153.686 659.817 155.248 646.144 157.107 638.607C164.77 607.553 175.819 577.068 187.019 547.109C195.18 525.281 205.253 502.209 217.837 482.678C220.481 478.574 223.32 476.111 227.342 473.505Z" fill="#595959"/>
<path d="M599.141 711.49C605.385 711.445 615.915 712.689 622.429 713.335L659.942 717.115C665.336 717.644 690.84 719.669 694.687 720.749L694.558 721.345C692.82 722.7 691.189 723.724 689.271 724.798C678.898 730.586 668.807 736.818 658.581 742.842L572.001 793.621C549.996 787.726 522.303 784.127 499.602 778.918L481.022 775.431C484.526 773.142 488.8 771.269 492.613 769.458C518.078 774.362 542.91 780.465 568.654 784.965C585.613 775.752 603.067 764.688 619.948 755.014L652.888 736.087C655.734 734.444 669.358 727.363 670.072 724.961C663.322 721.935 600.609 717.019 589.691 716.255C592.672 714.488 596.003 712.987 599.141 711.49Z" fill="#f8f8f8"/>
<path d="M351.119 690.775C359.891 691.354 368.852 693.047 377.603 694.026C391.65 695.595 404.229 701.732 414.1 711.884C416.933 714.798 422.238 721.378 422.142 725.586L421.338 726.322C415.866 725.096 397.448 696.602 389.283 702.215C390.256 706.372 415.189 723.184 414.097 733.286C410.15 737.6 405.923 731.278 403.76 728.375C398.21 720.928 392.615 714.91 384.798 709.73C382.937 708.824 380.781 707.486 378.84 708.554C379.137 712.88 405.255 732.256 400.8 737.932C390.629 740.406 382.008 718.319 368.61 715.996L367.853 716.586C369.181 722.908 387.233 734.484 384.029 739.186C377.525 741.25 367.093 726.159 357.048 725.586C345.072 724.899 337.535 720.585 332.362 709.465C336.798 699.701 341.208 694.785 351.119 690.775Z" fill="#ffffff"/>
<path d="M894.184 621.052C895.916 621.142 899.449 623.46 901.057 624.421C899.724 636.706 900.692 660.784 901.012 673.873C897.086 680.628 889.335 689.47 884.194 695.449L880.532 691.05C877.922 687.586 868.702 674.981 868.494 671.989C867.6 659.243 869.754 639.411 870.204 626.356C878.248 624.815 886.241 623.043 894.184 621.052Z" fill="#757575"/>
<path d="M668.469 605.14C674.021 604.448 682.83 611.277 687.094 614.679C698.136 622.402 703.367 643.23 692.871 653.366C678.375 667.365 642.707 669.024 626.991 655.486C625.253 653.99 624.049 652.331 623.97 650.154L624.893 649.552C627.278 650.188 627.171 650.677 629.055 652.584C636.002 657.55 654.795 662.011 662.186 657.359C663.232 655.604 663.081 656.504 662.783 654.586C656.421 652.483 635.484 655.531 631.806 646.245C632.857 641.003 638.882 642.122 642.971 643.123C656.134 646.357 665.443 641.993 674.269 632.02C676.192 629.843 677.936 628.685 678.257 625.653C676.08 618.054 660.144 612.351 668.469 605.14Z" fill="#ffffff"/>
<path d="M730.254 489.245C738.506 489.027 745.296 492.489 752.186 496.706C718.819 505.549 726.486 571.1 729.574 596.118C729.731 597.468 729.737 597.845 729.686 599.206L729.034 599.296C728.291 598.554 727.594 597.766 726.947 596.934C712.789 578.654 706.494 553.456 709.678 530.684C711.906 514.743 717.064 499.342 730.254 489.245Z" fill="#757575"/>
<path d="M484.25 672.186C491.338 671.246 520.594 679.194 528.555 682.085C539.188 685.949 546.532 693.132 551.109 703.509C544.011 697.536 535.083 681.348 523.167 682.985C522.483 685.763 542.711 698.036 544.723 705.556C545.043 706.749 544.752 706.979 544.16 707.981C543.48 708.262 541.201 709.083 540.654 708.442C532.134 698.436 526.571 690.499 513.715 685.488C511.739 685.808 512.481 685.347 511.265 686.618C511.554 690.224 538.603 705.157 531.946 711.136C525.03 711.828 518.105 702.103 510.946 699.077C505.326 696.281 499.072 695.595 493.108 693.897C490.515 693.16 487.286 689.627 484.495 690.679C485.831 696.551 501.7 706.507 496.021 711.119C491.674 711.777 488.718 708.256 484.994 706.833C464.285 698.919 458.306 680.392 484.25 672.186Z" fill="#ffffff"/>
<path d="M869.496 430.208C870.508 431.819 867.032 446.866 866.531 450.817C862.898 479.739 863.572 508.396 864.124 537.394C858.527 537.258 856.794 536.942 851.479 535.113C850.089 530.738 848.694 524.561 847.536 519.999C844.875 509.833 842.529 498.347 840.088 487.993C844.808 484.704 849.679 481.537 854.359 478.216C856.041 477.022 856.136 476.093 856.35 474.392C854.927 470.476 848.587 466.262 845.134 463.561C850.444 453.78 861.323 437.386 869.496 430.208Z" fill="#ffffff"/>
<path d="M759.133 359.447C782.117 363.802 777.532 413.641 758.79 424.558C750.667 425.36 747.771 421.881 745.166 414.317C740.829 401.724 743.754 363.843 759.133 359.447Z" fill="#c8c8c8"/>
<path d="M634.056 595.247C644.321 594.049 654.683 594.819 662.788 601.648C660.06 606.586 660.128 607.143 660.409 612.852C653.248 622.324 642.173 624.832 631.013 626.514C624.853 627.138 619.571 627.014 613.581 625.434C597.184 621.097 602.528 608.729 613.789 602.306C620.64 598.396 626.186 596.473 634.056 595.247Z" fill="#f8f8f8"/>
<path d="M650.722 598.543C652.376 598.402 653.501 597.991 654.666 598.745C653.124 601.749 641.154 609.494 637.459 615.467C634.978 616.356 630.714 617.177 627.936 617.987C623.014 619.41 618.632 621.024 613.828 622.79C613.063 623.072 612.034 623.212 611.213 623.37L610.706 622.852C613.356 618.836 625.343 611.26 628.948 606.316C629.224 605.933 648.259 599.471 650.722 598.543Z" fill="#1d1d1d"/>
<path d="M627.373 612.379C628.447 612.913 627.952 612.582 628.701 613.656C627.542 615.056 626.169 615.197 624.251 615.895L623.784 615.743C624.021 614.871 626.456 613.144 627.373 612.379Z" fill="#f8f8f8"/>
<path d="M266.372 462.52C269.952 462.011 281.878 472.704 285.639 475.421C290.672 479.058 296.121 483.198 301.15 486.921C311.637 516.152 309.83 534.938 299.478 563.35C298.929 564.851 298.983 565.785 297.823 566.37L297.456 561.285C296.415 553.456 294.449 546.318 293.237 538.752C292.817 533.596 293.829 527.988 293.501 522.87C291.831 496.889 278.664 468.89 249.989 466.512C255.937 464.306 260.093 463.349 266.372 462.52Z" fill="#757575"/>
<path d="M892.097 479.695C895.629 480.587 899.471 480.723 903.122 480.986C903.533 502.98 905.333 528.552 906.351 550.814C903.054 549.832 899.674 548.486 896.445 547.268C889.948 544.776 884.289 542.684 877.663 540.592C879.418 523.829 887.625 496.654 892.097 479.695Z" fill="#757575"/>
<path d="M792.456 629.799C795.668 630.67 802.08 631.087 805.607 631.424C806.389 659.817 810.776 685.004 775.626 690.123C770.327 690.848 764.573 691.231 759.251 690.646C765.079 687.338 770.94 687.428 776.531 680.758C782.381 673.777 781.762 658.703 780.795 649.985C786.746 643.36 789.936 638.264 792.456 629.799Z" fill="#757575"/>
<path d="M250.687 445.728C254.528 445.792 259.62 453.402 262.361 456.408C256.289 457.955 244.617 460.537 240.188 465.382C239.138 466.531 237.38 471.67 235.212 474.173C234.416 473.863 225.702 463.541 220.826 460.683C194.428 445.212 176.166 472.657 163.663 493.678C160.707 498.243 156.363 507.4 153.232 510.895C152.675 510.734 152.255 510.547 151.821 510.151C150.662 509.092 150.101 507.754 150.105 506.183C150.117 500.379 173.129 471.33 178.262 465.97C182.784 461.248 187.764 456.951 193.631 453.987C209.425 446.008 233.125 446.143 250.687 445.728Z" fill="#757575"/>
<path d="M955.671 412.618L956.205 412.865C957.206 414.166 957.836 417.206 958.303 418.926C955.884 428.231 948.336 446.56 942.334 454.277C939.032 458.527 929.689 467.024 925.312 471.111C923.023 467.986 921.943 466.068 920.07 462.643C916.903 456.32 912.302 448.693 908.651 442.601C927.129 435.972 942.069 426.796 955.671 412.618Z" fill="#ffffff"/>
<path d="M713.824 471.98C721.418 471.098 759.088 476.538 767.064 480.711C777.578 486.211 781.599 491.636 785.88 502.507C785.042 505.145 779.197 520.641 777.696 521.611L776.88 520.548C772.369 513.128 768.493 508.682 762.491 502.482C761.423 501.379 759.803 496.535 758.548 494.879C750.549 484.331 737.747 483.537 725.692 481.983C717.587 480.422 708.84 478.011 700.571 476.379C705.223 474.676 709.076 473.385 713.824 471.98Z" fill="#757575"/>
<path d="M144.309 544.801C149.124 545.905 171.379 557.121 177.14 559.881C174.64 565.937 169.251 582.861 166.73 587.029C156.801 585.342 139.803 577.074 132.537 569.829C135.029 561.397 138.09 551.085 144.309 544.801Z" fill="#757575"/>
<path d="M967.556 529.43C973.856 528.787 987.069 529.3 991.643 534.119C992.143 535.927 992.278 535.139 991.479 536.594C987.019 538.343 973.749 532.891 967.759 534.049C965.059 534.569 954.619 535.062 954.878 539.532C956.801 540.661 969.109 539.568 972.647 540.102C977.428 540.821 993.988 543.789 992.751 550.743C990.585 552.497 987.598 552.11 985.388 550.713C978.171 546.144 957.696 540.524 951.401 549.095L951.699 549.85C954.737 550.821 959.878 550.312 963.315 550.51C969.249 550.85 972.675 551.777 978.143 553.896C980.702 555.122 985.742 557.076 984.533 560.637C978.244 564.03 952.622 549.189 946.406 559.639C949.478 563.113 972.101 560.778 972.456 567.416L971.145 568.845C960.913 572.326 939.78 562.928 929.784 558.945C941.636 545.282 949.551 533.628 967.556 529.43Z" fill="#f8f8f8"/>
<path d="M545.876 494.908C548.168 507.924 538.927 526.243 525.318 529.527C507.347 533.864 498.499 521.398 494.242 505.923C493.435 503.213 492.161 500.527 495.287 499.153C497.217 500.213 500.449 504.649 502.084 506.555C508.735 514.307 513.835 509.716 520.099 504.196C520.612 507.257 522.384 516.614 525.546 517.853C527.357 515.089 525.959 509.014 525.454 505.635C527.022 503.622 529.591 500.956 531.373 499.001C536.922 499.981 541.96 499.277 545.876 494.908Z" fill="#ffffff"/>
<path d="M598.466 491.147L598.854 491.468C598.984 493.35 592.616 507.024 591.396 510.274C582.806 533.182 579.758 554.996 577.631 579.211L577.198 579.239L575.826 576.528C568.609 553.118 568.187 525.313 580.416 503.166C583.864 496.926 591.626 492.596 598.466 491.147Z" fill="#757575"/>
<path d="M315.419 750.503C325.117 747.038 334.798 743.528 344.46 739.973C350.147 737.819 355.412 735.327 361.198 733.415C363.145 734.585 365.714 736.525 367.633 737.898C362.193 740.508 347.566 744.434 343.78 747.268L343.768 748.213C346.022 749.614 371.173 754.074 375.707 754.98L383.18 756.313C394.481 759.063 406.047 761.493 417.409 764.154C413.303 766.038 409.166 767.849 405.001 769.593C376.275 761.69 344.807 756.56 315.419 750.503Z" fill="#f8f8f8"/>
<path d="M937.637 468.501C937.688 469.745 929.61 488.765 928.508 491.804C922.421 508.848 916.886 526.082 911.914 543.481L911.312 532.79C910.626 515.707 910.035 497.542 908.089 480.546C910.637 477.791 913.95 471.858 915.958 468.456C925.014 482.36 926.634 478.436 937.637 468.501Z" fill="#ffffff"/>
<path d="M695.571 480.727L696.887 481.258C699.351 485.937 695.233 492.983 691.616 496.182C680.676 505.85 665.336 509.172 651.071 508.513C640.446 508.022 630.596 505.964 623.188 497.914C621.968 495.1 620.494 487.647 623.548 485.73L624.988 487.355C631.597 494.718 640.648 496.321 650.261 496.81C667.929 497.709 682.571 492.398 695.571 480.727Z" fill="#757575"/>
<path d="M322.175 447.517C324.727 449.87 327.808 455.683 330.269 458.706C340.761 471.595 349.191 477.78 364.113 484.523C362.051 487.742 356.51 495.98 359.618 499.625L360.96 499.514C363.326 498.161 364.34 496.4 365.987 494.197C365.455 497.994 365.142 500.664 364.056 504.317C361.894 507.749 360.891 508.869 358.106 511.877C349.489 493.881 330.419 476.198 316.145 461.905C319.325 456.682 320.425 453.388 322.175 447.517Z" fill="#f8f8f8"/>
<path d="M459.52 395.679C459.732 396.118 460.135 397.021 460.128 397.51C459.627 437.011 457.645 477.857 409.975 483.171C410.34 481.465 412.043 481.412 414.168 480.047C434.938 466.71 444.918 445.857 451.338 422.962C453.471 415.36 456.421 403.028 459.229 396.361L459.52 395.679Z" fill="#595959"/>
<path d="M223.411 597.367C224.093 597.98 227.069 610.343 227.697 612.407C211.11 621.047 197.168 627.667 178.277 630.181C176.664 630.17 175.825 630.355 174.56 629.394C173.022 625.417 174.947 617.425 178.382 616.53C195.606 612.047 208.259 607.109 223.411 597.367Z" fill="#595959"/>
<path d="M339.718 673.94C346.12 673.564 349.576 679.886 353.272 684.526C348.722 685.077 346.291 685.786 342.346 688.159C334.151 693.025 328.272 700.995 326.045 710.259L325.849 711.237C321.587 711.113 315.331 703.875 313.797 699.954C314.557 695.989 316.096 692.209 318.326 688.84C323.393 681.05 330.647 675.875 339.718 673.94Z" fill="#f8f8f8"/>
<path d="M882.872 465.55C883.434 466.159 886.056 476.304 886.686 478.095C883.367 491.322 878.692 504.248 876.133 517.853C875.593 520.706 872.674 536.425 871.611 537.982L870.553 537.588C869.664 513.961 869.996 490.303 871.549 466.71C873.124 469.71 873.692 472.18 877.388 471.676C879.649 470.227 881.207 467.75 882.872 465.55Z" fill="#ffffff"/>
<path d="M446.516 315.811C453.165 319.749 460.177 330.487 462.823 337.578C469.258 354.827 468.903 365.487 462.074 381.792C461.693 382.55 461.337 382.929 460.813 383.622C459.834 381.223 460.994 374.054 460.784 370.921C459.596 353.226 454.083 343.02 444.551 329.335C446.013 323.795 446.167 321.537 446.516 315.811Z" fill="#595959"/>
<path d="M838.991 541.745C843.261 541.335 847.614 541.736 851.85 542.226C842.805 549.917 839.683 556.769 837.467 568.102C835.228 567.152 831.662 566.089 829.26 565.301C824.063 563.721 818.713 562.68 813.296 562.202C819.923 550.195 825.148 544.336 838.991 541.745Z" fill="#f8f8f8"/>
<path d="M898.487 447.211C907.386 446.886 909.444 455.549 913.117 462.581C910.446 466.516 907.082 473.877 903.516 474.952C898.729 474.811 895.86 474.607 891.084 474.022C889.751 469.052 888.727 463.34 887.698 458.251C890.471 452.69 892.423 449.371 898.487 447.211Z" fill="#757575"/>
<path d="M474.659 655.981C484.17 655.458 484.8 658.231 489.583 665.605C476.629 666.15 468.715 670.931 461.661 681.832C460.526 683.941 460.39 685.583 459.956 687.934C447.101 678.271 452.369 669.902 462.911 661.122C466.319 658.282 470.398 657.01 474.659 655.981Z" fill="#f8f8f8"/>
<path d="M300.253 414.827C301.493 415.273 303.321 416.685 304.577 417.467C307.941 419.561 310.478 420.123 314.314 420.974C317.817 434.395 319.353 439.74 313.291 452.568C312.671 453.776 311.606 455.315 310.838 456.496C303.153 442.411 298.272 431.549 300.253 414.827Z" fill="#595959"/>
<path d="M402.651 511.358C404.488 511.128 403.705 510.922 405.136 511.668C405.444 512.227 405.976 513.348 406.056 513.932C408.759 533.673 404.486 559.663 395.419 576.832L394.948 577.186L394.505 576.916C398.537 561.709 398.441 529.148 395.429 513.624L402.651 511.358Z" fill="#595959"/>
<path d="M422.992 764.98C425.335 764.784 428.33 764.845 430.699 764.992C449.998 766.212 469.598 766.673 488.81 768.777C485.94 770.313 480.015 774.329 478.191 775.15C455.478 773.198 432.565 772.219 410.063 770.144C414.288 768.192 418.638 766.617 422.992 764.98Z" fill="#f8f8f8"/>
<path d="M879.429 420.578C879.919 421.349 881.775 426 882.574 427.46C886.073 433.856 889.358 436.797 894.538 441.627C894.414 441.718 894.285 441.81 894.161 441.901L893.543 442.372C888.519 446.126 885.493 450.881 881.916 455.957L876.904 464.063C871.982 448.436 873.698 435.891 879.429 420.578Z" fill="#ffffff"/>
<path d="M631.406 479.997C651.139 482.833 670.129 483.23 689.76 479.211C687.386 481.295 685.412 482.571 682.796 484.327C670.719 490.856 655.149 492.301 641.756 489.922C635.108 488.74 630.084 487.767 631.406 479.997Z" fill="#757575"/>
<path d="M873.737 693.835C877.59 695.432 878.614 702.345 883.941 703.087C887.602 701.737 889.223 698.526 891.484 695.28C894.915 695.342 898.757 695.657 902.216 695.86C902.537 698.441 902.7 701.175 902.908 703.779L903.499 710.911C898.166 710.883 878.704 710.838 874.569 708.436C872.809 705.045 873.563 697.851 873.737 693.835Z" fill="#868686"/>
<path d="M639.512 589.144C649.058 589.431 661.551 589.976 668.121 598.408C668.723 599.178 668.492 599.184 668.267 600.005C666.444 599.876 663.705 596.85 661.798 595.792C643.989 585.915 615.094 591.697 602.021 607.081C597.071 612.908 596.813 620.293 603.585 624.674C614.841 631.958 627.379 631.053 639.939 628.662C643.781 627.807 646.318 626.93 649.913 625.484C653.327 624.112 661.202 617.593 664.065 617.829C661.314 625.394 638.213 632.166 630.72 632.442C620.269 632.83 609.131 632.448 600.548 625.473C593.156 619.466 595.958 610.219 601.341 604.105C611.314 593.525 625.438 590.004 639.512 589.144Z" fill="#f8f8f8"/>
<path d="M134.598 543.677L136.465 544.009L136.421 545.014C128.529 555.036 128.501 565.886 124.666 577.034C119.352 592.479 115.779 607.075 111.836 622.891L111.028 622.858C106.606 609.876 125.783 551.957 134.598 543.677Z" fill="#757575"/>
<path d="M446.342 692.029C451.519 691.371 451.639 691.562 455.992 694.572C444.181 698.908 430.719 702.935 419.393 707.525C415.964 704.094 412.197 701.017 408.147 698.346C420.557 696.085 433.879 693.587 446.342 692.029Z" fill="#c8c8c8"/>
<path d="M862.858 189.689C866.025 191.256 867.589 192.019 870.93 193.066C872.741 205.637 873.877 206.455 880.875 216.861L880.734 217.456L878.501 217.728C873.939 218.385 873.006 218.589 868.837 220.433C861.249 210.082 860.974 201.774 862.858 189.689Z" fill="#595959"/>
<path d="M775.176 654.643C777.853 656.251 776.25 672.923 773.707 676.207C769.534 681.596 769.365 681.899 762.969 683.682C761.929 681.854 762.306 665.689 761.777 661.139C767.216 658.906 770.119 657.652 775.176 654.643Z" fill="#595959"/>
<path d="M552.053 348.613C552.331 350.416 548.492 367.398 548.12 373.164C547.718 379.168 547.7 385.192 548.067 391.198C548.313 394.682 549.143 399.683 549.017 402.94C547.679 402.896 547.464 402.199 546.164 400.975C537.698 386.682 539.166 360.172 552.053 348.613Z" fill="#afafaf"/>
<path d="M463.002 698.644C464.326 699.263 465.896 701.327 466.934 702.514C459.614 706.164 434.775 715.411 427.064 717.672C425.321 717.059 424.487 715.051 423.221 713.195C432.578 709.038 453.053 701.726 463.002 698.644Z" fill="#f8f8f8"/>
<path d="M322.509 359.189C327.916 361.351 335.901 362.264 341.786 363.13C338.776 366.636 335.645 370.037 332.399 373.327C330.924 374.469 328.292 375.906 326.605 376.905C324.065 373.695 320.07 370.076 317.056 367.17L322.509 359.189Z" fill="#595959"/>
<path d="M556.322 703.818C558.241 704.443 565.301 705.675 567.816 706.164C576.917 708.031 586.063 709.651 595.249 711.029L589.747 713.678C589.23 714.027 588.712 714.37 588.167 714.68C584.646 716.671 556.701 710.23 551.339 708.734C553.51 706.968 554.696 706.158 556.322 703.818Z" fill="#f8f8f8"/>
<path d="M539.912 527.578C543.086 532.206 539.812 536.472 535.426 538.457C526.647 542.431 518.408 543.186 509.295 540.143C508.305 538.888 507.826 536.748 508.314 535.203C522.167 537.582 528.9 537.229 539.912 527.578Z" fill="#757575"/>
<path d="M860.276 219.107C862.234 220.497 863.359 222.13 864.872 223.996C856.485 232.158 853.245 240.464 849.487 251.254L849.066 252.668L848.295 252.625C845.623 241.146 851.276 226.621 860.276 219.107Z" fill="#595959"/>
<path d="M525.165 482.639C530.053 482.541 552.063 483.027 542.528 493.187C536.29 494.889 519.579 492.341 525.165 482.639Z" fill="#ffffff"/>
<path d="M511.575 472.477C517.821 472.015 518.447 473.457 522.018 478.237C512.174 490.036 523.937 492.94 525.037 497.407L523.793 498.598C523.419 498.764 519.873 500.256 519.752 499.79C516.516 487.367 516.31 483.707 505.433 475.451L511.575 472.477Z" fill="#ffffff"/>
<path d="M860.029 543.95C861.244 543.927 862.481 544.038 863.696 544.112C863.82 544.951 859.809 548.312 858.735 549.497C851.884 557.059 848.751 566.044 846.073 575.628L845.168 576.438L844.273 575.679C839.329 564.711 851.299 549.79 860.029 543.95Z" fill="#f8f8f8"/>
<path d="M518.259 437.336C524.168 437.887 526.359 448.817 525.309 453.532C525.121 454.377 523.608 454.68 522.794 455.01L516.786 456.312C515.66 449.974 512.76 441.79 518.259 437.336Z" fill="#ffffff"/>
<path d="M667.575 622.532C669.257 623.212 669.516 623.685 669.69 625.316C668.672 627.914 665.983 630.462 663.654 631.97C655.526 637.206 652.151 638.23 642.982 636.582C641.683 636.537 641.329 636.672 640.294 635.913C652.247 633.083 657.602 629.259 667.575 622.532Z" fill="#afafaf"/>
<path d="M599.091 631.126C613.114 637.161 615.144 636.503 629.494 637.358L629.646 637.988L627.238 641.442C627.12 641.622 626.209 642.544 626.029 642.73C617.962 644.276 602.488 638.894 599.091 631.126Z" fill="#afafaf"/>
<path d="M700.999 622.323C701.994 622.712 702.956 623.488 703.62 624.32C710.955 633.601 710.241 648.506 700.875 656.099C699.643 656.69 699.649 656.634 698.271 656.797C698.259 654.552 701.426 652.404 702.377 648.945C705.24 638.494 704.396 632.257 700.999 622.323Z" fill="#757575"/>
<path d="M510.629 489.894C513.431 492.754 514.576 500.435 511.513 503.682C509.496 504.528 509.255 504.357 506.995 503.955C500.787 496.225 502.17 493.866 510.629 489.894Z" fill="#ffffff"/>
<path d="M500.445 480.262C504.15 481.239 505.918 483.102 508.606 485.663C504.625 487.85 503.292 488.54 500.028 491.685L499.307 491.909C496.15 490.337 494.05 490.09 493.719 486.372C494.826 482.913 497.339 481.956 500.445 480.262Z" fill="#ffffff"/>
<path d="M525.205 459.194C525.894 458.813 525.517 458.955 526.561 459.161C528.093 462.806 529.939 465.389 527.722 469.008C526.155 470.24 524.522 470.102 522.452 470.277C517.461 467.454 517.723 465.584 517.245 460.183C519.816 459.941 522.622 459.524 525.205 459.194Z" fill="#ffffff"/>
<path d="M663.564 575.471C674.696 574.233 679.112 583.193 670.556 587.805L669.926 587.535C670.123 585.724 670.303 586.124 672.019 584.47C674.679 574.194 665.19 577.225 659.728 579.008C660.651 577.13 661.804 576.635 663.564 575.471Z" fill="#f8f8f8"/>
<path d="M867.173 693.194C868.933 695.331 869.878 706.901 867.949 709.207L866.464 708.206C865.058 705.579 866.723 696.405 867.173 693.194Z" fill="#757575"/>
<path d="M492.112 492.506C494.489 493.492 495.947 495.894 497.267 497.961C495.554 497.66 494.755 497.467 493.101 496.928C491.768 494.951 492.209 495.322 492.112 492.506Z" fill="#f8f8f8"/>
<path d="M0 521.6C7.07479 517.551 18.9301 508.328 25.7038 503.243C26.8626 504.616 28.8791 507.157 30.1426 508.263C25.1467 511.902 4.81206 527.116 0 529.395V521.6Z" fill="#c8c8c8" fill-opacity="0.890196"/>
<path d="M470.508 288.943C472.823 286.155 476.949 280.702 480.1 279.28C479.971 283.771 479.449 291.726 480.688 295.8L479.651 296.388C476.153 288.465 475.616 293.11 470.508 288.943Z" fill="#afafaf" fill-opacity="0.470588"/>
<path d="M470.508 288.943C475.616 293.11 476.153 288.465 479.651 296.388C476.562 298.861 475.017 295.918 469.241 298.299L466.093 293.938L470.508 288.943Z" fill="#c8c8c8" fill-opacity="0.756863"/>
</svg>
