<svg width="1476" height="1383" viewBox="0 0 1476 1383" fill="none" xmlns="http://www.w3.org/2000/svg">
<g clip-path="url(#clip0_15479_17859)">
<path d="M618.138 0H625.785C639.028 21.5918 644.464 42.4451 655.415 62.2519C659.218 52.184 673.413 4.85172 681.526 2.39377C686.431 0.907764 696.574 5.89693 700.242 8.87707C701.876 10.2049 702.884 11.5691 703.044 13.7149C703.976 26.2423 679.807 86.404 673.793 101.945C738.98 113.114 808.759 131.58 874.206 144.852L1048.42 179.612C1079.79 185.703 1117.01 191.854 1147.55 198.85C1152.39 188.42 1174.06 134.529 1181.34 131.608C1186.28 129.622 1192.62 133.32 1196.91 135.592C1198.93 136.663 1201.7 138.579 1202.26 140.983C1204.58 151.215 1180.08 198.36 1174.84 211.068C1205.69 275.689 1234.56 340.719 1266.04 405.069C1309.88 493.133 1355.13 580.485 1401.77 667.09L1451.02 759.576C1458.47 773.565 1468.17 793.297 1476 806.385V825.389C1403.06 692.353 1332.75 557.884 1265.13 422.064C1245.2 381.525 1223.93 338.56 1205.16 297.532L1179.89 241.879C1175.91 233.117 1170.57 220.564 1166.05 212.328C1129.46 203.959 1093.38 197.69 1056.56 190.734L911.74 162.171C857.925 151.034 804.161 139.628 750.454 127.952C727.218 122.908 699.286 115.709 676.521 111.586C703.468 167.475 730.88 225.169 759.888 279.943C796.11 348.797 836.419 415.42 880.613 479.452C898.349 505.119 917.188 530.008 937.08 554.051C947.761 566.931 965.058 585.346 974.023 598.136C1000.37 584.128 1018.61 596.511 1029.86 621.853C1032.44 627.653 1034.3 634.035 1036.35 640.06C1061.06 607.367 1069.39 592.586 1108.12 576.611C1100.91 572.742 1094.11 569.049 1088.53 562.856C1063.21 534.775 1069.17 494.292 1066.32 459.702C1065.38 448.324 1057.26 438.852 1056.88 427.563C1056.56 417.688 1061.42 407.233 1065.9 398.757C1062.41 389.041 1057.49 374.869 1070.82 370.56C1081.88 366.981 1092.18 367.725 1103.61 366.054C1134.81 361.489 1173.82 346.78 1199.53 373.05C1203.63 377.242 1206.59 381.93 1209.71 386.829C1244.6 396.798 1239.44 442.995 1229.71 469.552C1241.74 495.002 1234.73 517.077 1206.36 525.875C1205.15 531.934 1203.95 538.806 1202.54 544.756C1205.73 546.71 1210.03 549.125 1212.58 551.781C1241.35 581.697 1288.08 573.437 1299.38 621.443C1299.54 622.076 1299.68 622.711 1299.81 623.348C1306.59 655.521 1293.97 682.297 1290.66 712.894C1288.73 730.655 1289.98 756.297 1290.22 774.43C1290.57 801.571 1297.55 831.501 1301.84 858.361C1304.38 874.194 1307.58 887.527 1307.46 903.995C1300.27 910.719 1296.5 912.766 1287.87 917.558C1289.82 941.672 1289.11 969.815 1289.47 994.247C1289.86 1022.12 1290.97 1050.19 1291.27 1077.95L1476 1032.57V1042.04V1051.05V1111.19V1121.22V1134.79C1444.17 1144.14 1411.47 1149.63 1379.36 1157.39C1351.7 1164.07 1326.63 1170.07 1298.61 1175.08C1297.37 1177.57 1299.72 1193.77 1300.11 1197.5C1300.83 1204.61 1301.69 1215.33 1300.98 1222.19C1299.25 1238.74 1297.18 1240.17 1300.3 1256.71C1310.97 1260.67 1329.43 1266.21 1334.87 1277.18C1335.87 1279.18 1336.23 1281.5 1335.48 1283.66C1333.52 1289.3 1326.32 1292.96 1321.14 1295.2C1260.72 1321.13 1110.34 1313.81 1050.02 1289.22C1044.67 1287.05 1035.48 1283.55 1033.29 1277.74C1032.59 1275.91 1032.85 1274.01 1033.78 1272.32C1037.19 1266.13 1044.97 1264.15 1051.24 1262.49C1064.85 1241.51 1084.26 1235.05 1106.19 1223.66C1105.54 1217.57 1106.03 1204.07 1095.38 1209.84C1086.71 1214.54 1082.52 1216.65 1072.64 1213.76C1061.39 1215.73 1031.91 1218.87 1023.37 1211.01L1022.44 1209.72C1018.53 1209.32 1004.48 1214.25 999.752 1215.64C977.367 1222.14 955.04 1228.82 932.763 1235.69C922.176 1238.95 901.21 1245.96 891.322 1247.6C884.375 1248.73 877.29 1248.66 870.364 1247.4C873.045 1262.44 874.97 1277.59 876.116 1292.82C876.728 1301.38 876.93 1310.21 877.629 1318.72C878.458 1328.93 884.324 1348.7 877.189 1357.32C864.865 1372.19 838.718 1376.01 820.578 1379.73C815.894 1380.66 806.229 1381.72 802.654 1383H787.217C784.73 1382.12 776.478 1380.79 773.898 1380.43C758.547 1378.37 744.018 1369.27 749.697 1351.63C756.198 1331.46 773.754 1316.21 791.217 1305.48C784.053 1285.89 778.165 1265.88 772.097 1245.93C757.495 1242.27 738.807 1238.29 723.86 1237.98C724.134 1239.86 723.528 1246.76 723.535 1249.45C723.435 1263.91 722.57 1278.69 721.582 1293.05C720.258 1312.34 729.121 1330.47 706.11 1339.37C686.049 1347.56 664.755 1350.38 643.207 1352.09C625.777 1353.47 571.756 1352.82 586.029 1321.14C597.226 1296.29 615.685 1286.48 639.764 1276.98C636.103 1263.02 634.469 1248.76 632.111 1234.55C631.59 1231.41 631.12 1227.62 630.023 1224.69C623.012 1222.82 616.57 1220.88 609.302 1220.82C609.947 1236.07 609.739 1255.33 609.803 1270.01C609.912 1295.7 583.838 1286.35 582.943 1283.48C575.994 1261.2 580.418 1228.16 579.927 1204.08C510.894 1193.96 441.973 1183.08 373.177 1171.46C370.578 1183.95 367.954 1197.05 364.518 1209.29C360.36 1224.1 355.978 1236.11 353.213 1251.38C372.165 1257.92 396.612 1266.67 402.537 1288.45L403.014 1289.27C408.095 1297.78 421.764 1308.32 405.14 1315.82C376.229 1328.88 340.129 1330.51 309.012 1333.82C263.327 1338.67 217.599 1344.18 171.656 1342.01C141.704 1340.59 48.3678 1340.97 32.8791 1312.34C37.0074 1300.86 42.8811 1299.75 53.5506 1295.74C58.0194 1279.44 64.3573 1263.9 68.5464 1247.47C71.2884 1236.72 71.0347 1225.8 74.4256 1215.47C80.3699 1197.37 89.1236 1180.1 95.6928 1162.22C102.214 1144.47 103.974 1126.78 104.563 1108.06C96.0589 1108.69 61.3979 1110.32 60.7599 1116.37C54.1393 1179.19 3.04051 1104.49 25.9798 1087.06C36.5632 1079.02 49.5657 1100.38 54.3128 1109.15C71.9039 1084.59 83.8971 1060.37 99.914 1036.17C99.279 1031.33 98.781 1026.25 98.229 1021.39C19.9515 1011.7 25.8592 994.059 32.7028 921.263C34.7783 899.181 22.1951 899.815 43.2859 876.544C48.1036 847.774 53.0863 812.439 64.3641 785.55C73.3625 764.095 96.7623 756.362 117.256 748.917C69.0204 699.663 78.5336 619.456 106.61 562.215C93.8031 543.06 84.4138 521.83 78.8586 499.467C72.5892 474.701 68.4982 441.597 81.2831 417.814C83.8596 413.021 89.6324 408.938 94.9325 407.82C101.313 406.474 107.864 408.405 113.229 411.962C143.154 432.651 153.353 478.062 160.529 511.193C178.057 502.595 187.007 499.654 206.773 497.587C206.937 480.723 207.486 462.484 209.973 445.534C212.664 428.943 218.029 398.546 233.11 388.215C255.935 372.578 268.317 406.945 271.602 421.976C278.204 452.186 276.478 478.323 270.723 507.469C329.596 537.919 331.858 569.211 342.235 629.013C346.418 653.123 350.711 671.998 352.47 697.072C369.282 669.613 386.638 634.6 401.823 605.802C428.848 555.41 455.346 504.738 481.314 453.793C506.691 404.956 531.033 355.588 554.323 305.722C562.007 289.054 571.607 268.694 578.036 251.82C582.418 236.164 578.846 219.02 580.227 203.049C581.577 187.452 599.881 179.384 609.619 194.336C614.74 184.042 619.488 169.177 623.42 158.213L641.429 108.196C631.262 80.4525 607.143 38.3619 600.799 11.432C607.775 5.05359 609.473 4.11636 618.138 0ZM145.003 1275.68C147.745 1277.42 153.155 1280.62 155.567 1282.41C166.591 1279.24 208.738 1278.08 221.679 1277.15C228.438 1276.67 239.437 1277.84 246.339 1276.19C251.839 1275.22 263.266 1275.61 269.265 1275.66C270.012 1268.12 272.54 1261.28 273.031 1253.1C273.91 1238.47 271.374 1224.37 271.378 1210.01C271.381 1197.97 273.998 1182.71 275.802 1170.5C250.759 1163.58 239.59 1168.52 213.189 1155.73C201.938 1187.53 190.294 1209.13 170.831 1236.97C162.354 1249.1 151.52 1262.72 145.003 1275.68ZM230.664 1140.82C230.802 1123.6 228.214 1104.38 228.002 1086.44C224.031 1100.77 220.431 1122.62 217.404 1138C223.34 1140.6 224.075 1141.17 230.664 1140.82ZM107.722 977.649C103.074 1032.13 120.241 1086.21 112.033 1141.66C107.782 1170.36 76.2165 1213.82 81.1757 1239.95C101.892 1255.1 114.938 1259.32 140.758 1258.21C149.65 1253.61 159.354 1236.53 164.913 1228.43C188.578 1194 204.234 1162.9 211.555 1121.4C214.097 1106.98 215.75 1085.95 221.161 1072.88L221.556 1071.94C231.61 1065.03 253.558 1057.98 265.553 1056.19C256.147 1066.6 242.405 1071.3 229.839 1077.46C244.404 1095.71 267.682 1113.32 280.471 1132.53C297.168 1157.62 273.83 1197.36 281.946 1226.19C290.46 1231.66 294.932 1232.08 304.859 1232.96C306.724 1227.99 309.355 1217.25 310.769 1211.79L320.944 1171.92C329.481 1140.14 338.184 1108.39 347.054 1076.69C335.064 1055.16 318.992 1031.91 304.203 1012.33C290.264 1020.56 281.655 1024.79 265.719 1023.86C269.851 1021.53 274.389 1020.79 278.669 1019.17C291.818 1014.2 307.306 1006.41 311.133 991.746C315.772 973.966 314.352 955.12 315.673 937.19C303.676 939.402 293.338 939.763 281.224 940.591C279.982 942.184 280.048 944.289 279.711 946.551C280.022 960.663 270.775 1020.06 257.716 1025.8C256.183 1023.17 259.963 1014.44 261.168 1010.78C268.711 987.861 270.802 964.237 275.28 940.39C251.859 938.227 218.507 931.453 198.744 918.308C171.363 950.587 150.689 967.682 107.722 977.649ZM1082.41 635.34C1083.2 654.411 1083.2 672.059 1083.2 691.098C1092.85 698.166 1101.37 705.296 1109.52 714.113C1107.69 689.795 1097.41 656.593 1093.71 629.819C1097.18 626.723 1101.3 623.169 1104.58 619.931C1101.49 616.786 1097.99 613.489 1095.48 609.899C1098.34 605.288 1106.7 592.483 1106.83 587.366C1076.1 599.667 1054.17 629.129 1035.46 655.743C1046.3 667.028 1060.16 683.913 1074.71 688.488C1074.37 676.779 1073.03 643.828 1079.63 634.941C1081.53 634.484 1080.63 634.383 1082.41 635.34ZM808.355 1309.62C797.105 1313.21 790.698 1316.44 781.509 1323.66C769.956 1332.74 746.166 1359.7 769.509 1369.51C782.179 1374.83 809.494 1372.01 822.712 1369.48C842.776 1365.26 855.417 1363.2 871.532 1349.96C871.027 1338.29 870.725 1332.34 868.073 1320.77C850.026 1323.78 847.806 1316.7 830.755 1311.62C822.394 1309.14 816.931 1309.35 808.355 1309.62ZM419.918 810.414C413.333 803.214 409.062 796.929 405.278 787.863C404.049 784.916 402.079 779.157 399.611 777.471C355.72 806.234 360.394 793.319 315.895 778.934C324.354 805.52 328.024 818.456 327.954 846.988C328.086 850.282 327.516 849.85 329.252 851.572C340.418 853.626 362.421 852.343 375.054 852.812C390.037 839.976 395.217 837.353 414.192 832.82L419.918 810.414ZM1184.12 1100.01L1193.3 1097.73C1194.28 1097.39 1196.17 1097 1196.24 1096.32C1197.04 1088.02 1188.78 1038.5 1186.25 1033.8C1183.26 1048.34 1184.32 1083.76 1184.12 1100.01ZM1198.9 518.152C1207.43 516.467 1213.82 514.882 1220.04 507.97C1225.11 502.265 1227.67 494.751 1227.12 487.135C1226.64 479.934 1223.91 475.83 1218.83 471.3C1207.87 473.226 1200.66 484.88 1193.28 483.614C1190.77 480.297 1191.91 475.008 1188.97 469.372C1184.05 459.924 1178.97 453.351 1176.28 442.806C1174.09 434.224 1178.9 420.304 1177.41 413.423C1169.89 410.017 1149.51 415.709 1140.22 416.824C1119.35 419.331 1105.18 418.102 1085.98 408.996C1072.62 430.365 1077.34 436.401 1076.9 459.604C1076.34 489.125 1072.93 513.514 1085.42 541.897C1099.76 574.462 1132.58 579.809 1162.35 564.975C1165.16 563.561 1168.6 561.507 1171.68 562.596L1171.8 564.152C1167.65 574.026 1150.29 580.73 1140.32 580.91C1143.88 584.655 1146.41 587.351 1150.35 590.646C1161.8 593.231 1188.79 564.983 1196.67 555.89C1193.47 539.978 1194.9 533.657 1198.9 518.152ZM711.898 1300.73C707.269 1301.35 699.205 1302.48 694.806 1301.45C671.13 1295.86 672.274 1284.48 644.775 1285.15C626.963 1290.59 606.384 1303.39 596.774 1319.76C592.285 1327.4 595.364 1336.36 603.442 1339.42C619.009 1345.32 646.076 1343.52 662.307 1340.54C675.772 1338.18 701.624 1335.51 709.635 1324.62C714.991 1317.35 713.322 1308.88 711.898 1300.73ZM370.346 911.699C370.636 893.127 371.035 880.198 368.427 861.791C363.093 861.943 357.581 862.267 352.301 861.633C353.089 880.154 354.066 898.784 354.003 917.313C360.067 915.562 364.435 913.984 370.346 911.699ZM1109.28 728.464C1099.09 711.938 1075.9 690.99 1054.89 693.446C1046.55 695.278 1028.26 700.459 1029.56 711.394C1034.93 718.176 1052.05 697.801 1062.33 704.268C1058.91 710.712 1023.41 719.183 1034.54 730.9C1039.75 730.641 1054.59 717.042 1062.92 719.023L1064.02 720.258C1063.89 721.156 1063.69 722.972 1062.71 723.297C1055.75 725.61 1033.8 735.246 1039.93 745.494C1043.73 746.056 1047.68 741.191 1051.4 739.26C1056.63 737.156 1058.41 736.125 1064.12 736.673L1064.98 737.523C1061.94 743.036 1045.08 748.564 1045.39 755.403C1046.9 756.874 1047.26 756.701 1049.35 757.003C1056.29 754.265 1059.43 752.73 1066.81 751.151C1097.72 766.279 1109.39 768.008 1109.28 728.464ZM774.576 710.933C806.921 703.005 827.908 690.859 849.068 665.023C846.235 663.358 838.581 659.003 836.801 657.128C813.962 633.142 824.809 570.361 859.374 561.92C862.17 561.238 867.388 561.314 870.256 561.346C853.687 525.446 834.048 497.003 795.015 482.503C780.932 477.272 760.688 474.663 745.639 475.964C672.563 480.313 623.318 544.059 627.57 615.327C629.216 642.985 641.971 668.803 662.938 686.917C688.977 709.789 722.721 715.43 756.371 713.198C762.475 712.796 768.558 712.04 774.576 710.933ZM1218.05 632.678C1198.36 619.895 1204.53 614.905 1222.57 607.425C1220.85 590.831 1220.59 573.706 1209.35 560.49C1201.89 598.793 1189.08 633.25 1180.04 671.062C1177.38 682.161 1173.53 693.119 1171.61 704.38C1171.29 706.281 1170.97 711.111 1172.3 712.324C1178.9 718.355 1184.91 704.524 1186.4 701.544C1198.84 676.758 1206.92 657.872 1218.05 632.678ZM553.352 708.175C545.588 728.63 534.61 771.532 541.214 793.189C544.855 805.131 556.233 805.16 566.602 804.547C571.484 803.704 575.444 802.63 580.238 801.347C579.865 775.1 580.64 747.75 579.865 721.791C561.08 719.483 565.787 717.141 553.352 708.175ZM276.491 559.937C272.326 573.101 258.74 597.351 244.519 601.95C237.686 604.161 237.954 593.486 237.886 589.881C233.484 595.958 223.269 606.859 220.796 610.812C227.169 609.455 234.743 607.069 237.801 614.59L237.539 615.783C233.233 616.372 227.71 614.951 222.192 615.236C218.908 618.419 212.064 625.92 208.023 626.469C205.136 624.047 208.638 619.757 210.422 617.663C205.61 618.624 195.408 625.932 189.338 628.589C188.126 649.753 186.273 665.075 168.661 678.619C171.034 690.52 172.337 696.729 176.935 708.191C178.203 708.106 180.727 707.958 181.734 708.588C189.976 713.749 197.356 723.808 205.098 730.042C221.083 742.907 241.921 748.139 262.101 745.934C278.957 743.966 294.324 735.332 304.766 721.956C316.038 707.733 322.41 684.286 318.794 666.702C310.089 624.359 313.37 588.601 276.491 559.937ZM230.604 498.271C230.573 494.428 230.603 492.88 231.112 489.054C233.366 471.176 230.347 440.23 248.887 430.963C264.609 448.743 256.382 481.719 255.948 503.179C259.066 503.782 258.638 504.18 261.231 503.294C264.229 500.12 264.939 491.237 265.249 486.296C266.848 460.783 267.175 421.035 252.28 399.58C250.342 397.147 247.141 395.371 244.081 395.344C235.801 395.271 231.274 405.69 228.454 412.297C217.43 438.128 216.449 469.117 217.278 496.898C221.722 497.331 226.165 497.788 230.604 498.271ZM632.783 1119.68C660.385 1100.65 669.381 1123.07 692.207 1135.6C701.984 1133.61 706.005 1121.45 709.418 1113.21C718.111 1092.25 723.384 1070.9 728.054 1048.77C700.49 1040.56 687.03 1029.8 671.99 1004.37C669.581 1000.29 666.891 992.351 663.3 989.843C642.09 1037.34 637.151 1067.77 632.783 1119.68ZM1119.73 899.339C1124.4 874.353 1125.81 855.038 1126.66 829.476C1127.04 817.801 1127.26 799.142 1128.7 787.993C1100.31 785.161 1111.63 772.606 1090.99 769.392C1095.48 793.348 1099.84 817.325 1104.05 841.324C1105.57 850.498 1112.87 902.481 1116.56 906.395C1119.01 905.717 1119.29 901.624 1119.73 899.339ZM316.668 1300.47C334.746 1302.06 345.931 1302.8 364.127 1301.35C424.162 1294.81 365.613 1259.86 342.938 1259.16C337.65 1260.84 332.273 1262.48 327.069 1264.38C323.959 1276.51 320.49 1288.55 316.668 1300.47ZM609 767.669C612.051 782.335 612.157 801.751 612.015 816.683C615.191 817.599 620.877 819.393 623.888 819.919C633.882 819.242 641.098 818.125 650.648 814.745C652.425 799.855 654.492 790.27 658.826 775.828C657.025 770.754 651.965 754.149 649.209 751.209C647.416 750.87 647.411 750.805 645.623 751.014C633.564 756.931 620.889 761.774 609 767.669ZM410.451 843.298C396.553 846.441 388.099 854.022 377.658 863.42C378.408 872.357 377.677 900.6 381.962 905.314C394.412 909.623 404.585 889.221 426.395 905.487C431.123 899.8 432.154 896.723 427.737 890.403C424.576 885.581 419.66 877.409 416.396 873.113C424.431 877.214 428.212 879.751 434.678 886.151C444.341 874.396 428.692 867.665 422.747 857.273C428.676 859.471 436.874 864.379 442.017 864.011C443.151 861.957 442.827 860.653 442.151 858.397C437.817 843.897 422.791 842.34 410.451 843.298ZM282.877 849.979C289.676 850.585 307.397 852.977 312.985 849.886C313.705 847.176 313.068 845.201 312.57 842.419C308.686 819.999 302.379 802.753 291.631 782.883C288.329 785.319 286.04 787.344 282.162 788.685L280.815 788.382C279.749 781.269 304.62 760.852 308.272 746.633C304.085 745.833 298.684 744.997 294.794 743.562C286.206 758.243 276.197 773.06 266.938 787.474C275.77 806.781 280.054 828.95 282.877 849.979ZM590.894 879.938C604.303 885.149 610.063 885.113 624.819 884.342C639.14 876.147 640.841 850.916 633.402 837.612C629.666 830.931 615.891 826.406 608.773 824.871C606.837 824.453 604.88 824.135 602.911 823.926C591.797 836.538 587.194 846.743 588.195 863.86C588.49 869.301 589.395 874.699 590.894 879.938ZM1021.28 640.409C1022.87 642.492 1024.07 644.613 1026.48 645.455C1032.21 643.166 1027.18 630.563 1024.93 626.578C1018.22 614.649 1006.81 603.784 993.533 599.749L979.637 604.726C990.102 613.415 1014.04 631.146 1021.28 640.409ZM431.798 766.488C427.801 757.537 427.008 755.101 428.428 745.501C432.475 749.674 437.658 756.737 442.927 757.241C444.677 756.729 446.326 755.879 447.064 754.149C451.443 743.887 448.4 729.833 435.647 729.242C416.197 742.69 416.502 755.641 409.416 776.815C413.846 787.294 416.502 791.798 422.909 801.254L425.36 788.8C427.02 778.48 427.195 775.756 431.798 766.488ZM1105.15 609.141C1109.67 612.371 1113.27 615.318 1117.55 618.875C1111.98 624.579 1108.85 628.058 1102.08 632.563C1104.9 654.591 1107.93 671.655 1113.49 693.445C1114.55 698.568 1116.24 712.278 1123.22 711.623C1124.61 710.573 1125.15 710.652 1125.18 708.551C1125.31 698.383 1124.02 686.519 1123.3 676.361C1122.08 657.923 1121.05 639.475 1120.17 621.019C1119.63 608.908 1123.28 590.274 1121.83 581.429C1113.65 590.431 1110.5 598.29 1105.15 609.141ZM831.461 1162.99C808.715 1184.39 805.688 1207.47 767.808 1186.79C773.495 1217 786.986 1274.68 800.463 1301.06C803.217 1300.84 806.503 1300.68 809.184 1300.28C818.387 1299.54 818.877 1299.79 827.555 1301.45C837.291 1303.33 856.563 1315.28 864.916 1309.94C870.984 1300.72 861.99 1251.9 859.417 1240.4C855.309 1222.08 845.601 1174.68 831.461 1162.99ZM366.955 1119.64C359.681 1140.4 353.603 1166.07 347.442 1187.41C344.785 1196.6 337.783 1223.04 337.304 1231.25L337.891 1232.25L338.885 1232.38C343.025 1231.19 346.789 1230.37 348.892 1226.19C351.517 1220.96 353.813 1212.6 355.45 1207.02C361.421 1186.63 373.176 1140.58 367.887 1120.55L366.955 1119.64ZM580.165 654.083L580.307 655.125C581.553 664.012 584.226 672.72 585.849 681.542C587.466 690.333 587.377 699.233 587.369 708.135C589.849 707.473 593.882 706.257 596.299 706.007C599.386 705.841 601.574 706.107 603.999 704.34C610.125 695.624 608.41 678.348 606.73 668.326C605.093 658.558 601.69 650.943 591.053 650.202C586.152 651.46 584.736 651.938 580.165 654.083ZM1162.42 595.536L1171.89 610.005L1176.78 617.304C1179.43 614.951 1186.9 608.085 1188.57 605.506C1193.57 597.827 1202.44 572.242 1200.02 563.803L1199.75 563.573C1189.78 577.393 1176.25 586.099 1162.42 595.536ZM1185.88 620.532C1182.46 623.841 1178.93 627.027 1175.28 630.083C1173.72 626.97 1171.74 622.592 1169.27 620.248C1159.5 638.307 1166.79 651.843 1166.68 671.257C1166.67 674.765 1166.88 678.286 1167.42 681.756L1168.28 682.896C1169.71 681.085 1172.43 670.687 1173.38 667.526C1177.59 652.027 1182.39 636.135 1185.88 620.532ZM1291.57 1231.93C1290.43 1187.69 1286.5 1150.76 1283.81 1107.19C1281.5 1066.35 1280.09 1025.47 1279.59 984.561L1278.98 944.101C1278.88 937.392 1278.43 927.778 1278.8 921.299C1253.45 928.606 1212.97 940.267 1187.46 928.455C1170.04 920.398 1165.12 891.621 1162.51 874.187C1152.66 873.625 1142.97 873.214 1133.19 871.946C1131.16 889.062 1130.33 909.868 1116.42 921.796C1120.78 961.859 1128.35 1002.12 1129.25 1042.35C1129.5 1053.71 1110.51 1060.23 1101.84 1063.06C1105.63 1099.3 1108.84 1135.61 1111.45 1171.95C1112.44 1186.32 1113.97 1204.41 1114.18 1218.65C1135.71 1228.19 1153.66 1229.28 1175.85 1222.07C1176.28 1207.07 1177.08 1190.86 1176.89 1175.95C1176.51 1145.18 1174.98 1114.05 1174.64 1083.29C1174.04 1030.43 1183.08 989.901 1167.96 937.788C1162.41 934.97 1154.55 931.561 1151.94 925.796L1152.19 924.073C1158.16 920.513 1173.22 930.358 1175.83 936.296C1182.21 950.811 1183.19 968.136 1186.41 983.602C1196.19 1034.79 1205.04 1086.16 1212.96 1137.67C1217.49 1168.89 1220.5 1205.03 1226.13 1235.53C1249.03 1242.39 1269.91 1242.98 1291.57 1231.93ZM592.183 822.384C589.046 822.348 584.617 822.161 581.594 822.413C561.694 827.35 565.796 847.954 569.766 863.168C571.544 869.986 574.077 874.389 579.735 878.728L581.213 878.187C582.951 872.479 579.972 862.433 580.29 856.523C580.903 845.136 587.425 832.661 592.183 822.384ZM296.21 1262.88C291.809 1260.66 287.19 1259.47 282.464 1258.05C280.005 1267.76 272.492 1292.76 287.161 1296.14C288.248 1294.92 288.034 1295.48 288.364 1294.02C290.846 1284.05 293.406 1272.63 296.21 1262.88ZM458.206 771.857C463.078 773.103 465.847 774.394 470.456 776.39C471.885 771.273 473.444 765.99 474.726 760.852C470.818 759.749 460.913 756.78 457.293 756.578C447.237 766.098 445.789 763.223 434.374 766.805C441.149 768.16 451.905 770.033 458.206 771.857ZM822.077 735.109C812.124 730.864 806.539 728.651 795.808 726.252C775.837 752.225 744.926 762.827 714.652 747.382C707.632 743.8 705.649 727.397 700.144 727.729C670.887 744.067 660.639 797.427 659.838 827.941C661.324 828.568 726.058 828.042 734.548 828.114C752.645 809.484 768.327 787.827 786.619 769.147C791.714 763.944 795.361 752.103 801.703 747.101C807.757 741.545 814.712 738.539 822.077 735.109ZM1133.09 673.679C1135.7 659.078 1138.65 644.539 1141.94 630.074C1140.56 626.995 1138.7 621.998 1136.54 619.678C1133.78 623.058 1132.74 623.538 1129.13 625.71C1129.21 634.364 1129.59 667.459 1131.86 674.601L1132.7 674.673L1133.09 673.679ZM339.959 658.204L330.063 609.695C322.856 573.994 318.836 548.933 285.637 526.66C258.647 508.553 222.921 503.705 191.093 509.333C183.35 510.702 169.344 517.179 161.822 520.605C161.565 526.036 161.528 531.767 158.825 536.602L157.371 537.4C155.463 536.282 154.545 535.382 154.078 533.035C147.705 501.014 137.153 418.079 93.8644 417.094C82.4852 432.6 81.8978 442.587 82.8931 461.703C84.8736 499.748 98.2268 535.457 120.051 566.425C121.572 568.583 122.17 572.689 120.552 574.963C116.008 575.368 115.496 572.695 112.048 573.534C107.493 579.566 105.822 586.814 103.427 593.889C93.6929 622.643 91.1971 653.159 94.9101 683.23C98.1194 709.224 111.407 732.385 132.441 748.29C159.226 768.542 218.034 773.06 242.329 792.713C234.653 791.56 228.725 790.335 221.289 787.942C229.589 803.192 232.569 809.678 237.539 826.175C248.604 835.248 261.913 843.897 275.675 848.185C272.981 828.517 269.051 790.746 250.86 779.864C204.987 752.427 171.893 742.712 160.754 683.376C158.897 671.034 158.08 660.911 158.806 647.973C161.555 599.006 190.552 536.113 243.676 526.608C261.101 523.49 281.751 532.061 294.97 542.583C320.368 561.334 321.295 583.999 320.761 613.279C320.531 625.903 332.733 647.086 339.959 658.204ZM298.245 1254.08C298.922 1251.85 301.335 1242.91 301.995 1241.34C293.681 1239.45 290.039 1238.05 282.374 1234.28C281.504 1249.41 283.634 1250.54 298.245 1254.08ZM348.134 919.165C346.899 913.104 346.091 878.194 345.798 870.022C345.625 867.326 345.326 864.069 345.354 861.409C317.674 862.008 286.022 862.966 260.244 851.875C248.617 846.873 238.731 839.955 228.891 832.07C208.345 815.61 168.056 768.34 140.66 796.418C120.54 817.037 120.747 864.681 117.738 892.514C116.187 906.863 112.892 930.076 113.145 944.245C137.352 933.759 154.21 922.545 169.3 900.211C156.041 890.071 151.361 887.296 143.371 872.544C162.262 882.626 178.183 895.7 196.224 906.568C239.774 932.801 301.095 939.431 348.134 919.165ZM100.532 1053.53C96.474 1059.43 72.1237 1097.15 72.2584 1101.69C73.7647 1102.26 73.1953 1102.18 74.8032 1102.21C83.2982 1101.33 95.4867 1100.38 103.774 1098.93C103.739 1092.63 104.06 1057.35 100.532 1053.53ZM462.282 793.513C463.871 791.351 466.438 788.346 465.612 785.579C462.866 776.404 442.668 776.195 435.411 776.123C434.975 784.555 435.356 787.359 444.521 788.541C451.208 789.405 452.53 792.389 455.882 797.6C458.555 796.937 460.106 795.294 462.282 793.513ZM456.571 738.035C455.876 753.926 461.803 750.632 475.023 753.169C475.353 738.583 469.974 738.503 456.571 738.035ZM580.129 375.16C577.419 384.857 574.542 394.507 571.502 404.106C569.559 410.12 565.832 420.464 564.669 426.221L565.764 427.516L568.801 427.514L570.005 426.837C579.494 406.73 580.224 396.335 580.129 375.16ZM568.981 710.561C578.955 713.164 579.734 704.641 580.389 696.745C581.03 689.021 578.581 663.33 571.046 659.269C555.813 674.402 549.813 695.271 568.981 710.561ZM760.284 1142.49C768.277 1131.48 773.545 1126.89 787.779 1126.31C806.063 1128.1 810.69 1136.94 825.911 1142.76C827.223 1141.49 832.023 1136.97 832.427 1135.57C837.868 1116.68 839.951 1087.04 840.145 1067.48C840.333 1048.02 840.924 1012.61 827.98 998.109C822.445 991.911 814.661 990.167 806.849 989.8C742.288 993.173 749.575 1098.64 760.284 1142.49ZM577.515 277.938C567.798 296.095 559.863 314.27 551.122 332.811C513.053 413.552 471.764 492.852 430.346 571.913C406.459 617.263 382.29 662.463 357.838 707.511C351.013 720.041 344.079 732.514 337.035 744.917C332.553 752.679 325.261 764.196 321.904 772.015L334.233 776.419C343.898 779.993 356.985 785.024 367.13 785.968C374.794 782.235 382.485 778.638 388.316 772.21C411.483 746.676 471.63 627.047 483.955 591.351C492.74 565.908 499.338 539.758 507.008 513.966C524.886 453.841 542.336 393.439 561.476 333.707C564.076 325.592 579.403 283.951 577.515 277.938ZM1076.01 964.288C1076.01 968.417 1076.19 974.471 1075.92 978.435C1076 985.108 1076.34 993.915 1075.26 1000.33C1074.6 996.863 1073.79 993.072 1073.39 989.591C1072.28 981.044 1072.25 971.92 1071.7 963.214C1070.18 937.853 1069.77 915.201 1068.92 889.927C1068.03 863.456 1063.64 841.634 1066.52 814.01C1067.5 807.545 1062.17 772.75 1062.11 761.623L1051.17 765.493C1047.9 781.997 1045.88 800.439 1044.48 817.231C1037.34 902.337 1026.31 987.328 1024.85 1072.79C1024.72 1080.01 1024.73 1087.22 1024.58 1094.42C1051 1087.63 1062.4 1080.1 1083.73 1064.69C1091.66 1058.96 1111.81 1048.81 1120.9 1044.79C1115.97 981.678 1108.38 918.798 1098.17 856.321C1093.29 826.542 1086.86 799.639 1082.71 769.147C1077.83 766.048 1074.41 764.008 1069.28 761.385C1071.09 779.1 1072.41 796.857 1073.27 814.644C1073.65 822.377 1073.55 837.987 1074.65 844.776C1075.69 857.186 1074.68 869.596 1075.24 881.754C1076.49 909.256 1076.16 936.743 1076.01 964.288ZM78.4932 1247.05C62.9518 1281.91 143.658 1281.22 138.363 1265.51C111.389 1263.88 101.678 1265.69 78.4932 1247.05ZM159.929 1322.95C185.27 1311.42 150.933 1288.4 138.067 1285.02C128.411 1282.49 122.925 1285.09 113.391 1285.76C100.245 1285.13 84.0275 1275.83 72.4415 1270.73C65.6029 1287.54 53.8227 1308.89 78.9199 1317.01C104.362 1325.25 133.822 1329.08 159.929 1322.95ZM1299.28 899.88C1292 854.484 1282.1 808.014 1280.03 762.221C1279.8 757.284 1280.67 742.092 1279.42 738.424C1269.36 759.396 1259.41 782.458 1235.69 790.4C1213.09 797.967 1185.63 792.576 1162.05 793.434C1164.23 823.501 1167.31 893.667 1186.98 916.917C1211.61 932.779 1276.87 916.29 1299.28 899.88ZM800.579 771.958C784.435 781.593 760.875 813.541 748.724 827.905C761.589 834.636 771.289 839.666 776.327 854.671C778.186 860.22 778.186 870.123 780.046 873.51L781.127 873.971C783.476 872.443 784.882 871.485 787.058 869.733C799.49 860.004 811.296 850.678 822.553 839.573C837.392 824.935 850.833 808.893 834.891 788.742C827.432 779.417 816.557 773.464 804.68 772.195C803.216 772.044 802.063 771.943 800.579 771.958ZM649.109 837.663C646.52 838.124 646.506 837.641 645.399 839.198C646.121 860.963 647.25 865.186 638.341 885.985C665.146 893.019 706.978 901.307 734.231 894.864C749.87 886.814 747.902 861.071 740.818 847.543C739.009 844.135 736.811 840.942 734.26 838.037C716.402 837.028 697.6 837.72 679.683 837.821C669.491 837.879 659.276 837.36 649.109 837.663ZM846.48 826.398C837.284 837.374 829.198 847.046 818.265 856.876C794.035 878.663 752.392 902.402 720.054 906.287C705.643 908.016 680.218 901.487 662.723 904.125C665.704 907.454 668.757 911.584 672.902 913.09C713.376 930.048 775.592 927.893 817.436 913.025C825.868 910.027 835.569 902.229 838.668 893.963C843.288 881.632 849.788 837.187 846.48 826.398ZM695.424 1155.22L694.803 1155.67C675.357 1169.91 659.484 1193.71 633.403 1171.17C634.115 1201.39 642.624 1245.36 648.412 1275.97C652.351 1276.35 656.861 1276.67 660.71 1277.28C660.916 1277.34 661.123 1277.39 661.327 1277.46C672.434 1280.77 696.634 1297.81 707.789 1291.66C710.54 1290.15 711.464 1287.78 712.177 1284.86C717.327 1263.73 711.331 1178.75 699.984 1160.02C698.892 1158.22 697.274 1156.29 695.424 1155.22ZM1129.2 720.612C1132.02 745.768 1131.52 754.784 1124.71 779.51C1150.65 782.609 1224.24 791.784 1244.86 775.417C1268.68 756.506 1287.42 692.18 1290.74 661.591C1292.45 645.715 1292.98 619.172 1281.99 605.931C1270.31 591.854 1242.96 579.184 1225.5 573.293C1227.14 583.438 1229.93 599.27 1230.33 609.499C1225.14 614.26 1221.04 616.074 1216.16 620.034C1220.06 623.779 1224.25 627.667 1228.01 631.518C1222.58 642.227 1191.19 705.108 1193.4 713.09C1193.46 713.317 1193.59 713.523 1193.68 713.739C1195.83 714.172 1197.25 713.993 1199.14 712.77C1209.61 705.981 1220.8 648.707 1236.52 632.866C1236.24 647.493 1229.88 660.036 1225.1 673.978L1211.65 713.973C1215.27 715.219 1229.43 720.255 1227.67 725.149C1222.8 727.945 1215.63 723.318 1210.44 723.131C1191.74 722.446 1172.7 722.828 1154.03 721.531C1146.24 721.178 1136.9 720.574 1129.2 720.612ZM835.699 931.028C800.802 954.378 742.562 958.623 701.652 950.299C686.12 947.135 677.625 943.654 663.834 936.837C666.64 975.581 671.406 995.782 700.176 1023.53C720.56 1039.59 723.276 1037.96 746.85 1043.13C747.153 1018.25 750.598 998.088 769.711 980.561C796.608 955.892 825.645 957.801 843.035 990.268C843.403 980.698 845.853 932.685 835.699 931.028ZM1022.68 709.172C1024.92 703.073 1026.27 700.173 1030.07 694.796C1015.02 683.52 1000.75 670.97 985.807 659.848C964.02 648.919 915.769 597.411 903.805 575.774C914.926 585.66 926.385 598.158 937.21 608.657C953.166 624.065 969.677 638.884 986.715 653.084C1002.61 665.868 1019.92 676.211 1036.88 690.207C1042.86 687.305 1046.16 686.309 1052.8 685.208C1035.81 668.986 1019.46 651.238 1002.42 635.12C991.752 625.031 980.596 618.233 970.103 606.72C885.06 513.377 816.059 404.278 757.92 292.825C740.573 260.018 723.853 226.89 707.751 193.456C700.043 177.343 688.814 149.025 679.763 134.622C675.341 138.523 671.411 141.623 666.73 145.227C682.76 190.236 697.622 234.74 714.916 279.338C729.784 317.23 745.921 354.614 763.289 391.428C775.368 417.393 788.492 444.685 803.541 469.143C810.834 480.013 823.634 486.783 834.012 494.116C878.285 525.394 877.889 585.439 913.751 623.367C939.811 650.93 967.753 675.219 1000.08 695.193C1007.6 699.845 1015.18 704.481 1022.68 709.172Z" fill="#353535"/>
<path d="M1292.61 1096.88C1320.13 1088.31 1345.54 1083.06 1373.12 1076.59C1407.45 1068.26 1441.75 1059.75 1476 1051.05V1111.18C1470.8 1112.94 1464.04 1114.72 1458.68 1116.05C1404.92 1129.41 1350.6 1143.67 1296.62 1155.77C1294.5 1140.26 1293.76 1113.64 1292.61 1096.88Z" fill="#979797"/>
<path d="M246.338 1276.19L269.402 1276.26C268.372 1293.24 269.809 1297.3 284.977 1305.86C283.423 1313.09 282.224 1318.75 286.236 1325.6C290.186 1332.35 298.576 1332.9 304.667 1328.81C311.635 1324.13 313.321 1317.69 315.326 1310.14C319.896 1310.66 333.657 1312.42 337.61 1311.58L340.384 1312.38C361.149 1312.27 396.904 1314.25 402.537 1288.45L403.014 1289.27C408.094 1297.78 421.764 1308.32 405.14 1315.82C376.229 1328.88 340.129 1330.51 309.012 1333.82C263.327 1338.67 217.599 1344.18 171.655 1342.01C141.704 1340.59 48.3677 1340.97 32.8789 1312.34C37.0072 1300.86 42.8809 1299.75 53.5505 1295.74C52.3588 1332.19 109.355 1335.68 135.406 1336.23C144.249 1336.42 152.065 1335.09 160.689 1333.75C197.182 1321.06 175.402 1297.46 155.567 1282.41C166.59 1279.24 208.738 1278.08 221.679 1277.15C228.438 1276.67 239.437 1277.84 246.338 1276.19Z" fill="#c6c6c6"/>
<path d="M1185.51 1190.69C1194.14 1189.45 1202.02 1187.59 1210.52 1185.68C1212.71 1202.65 1214.82 1224.63 1218.7 1240.96C1214.62 1248.79 1211.31 1250.65 1204.22 1255.6L1200.95 1257.89C1189.6 1266.18 1169.01 1281.59 1184.05 1297.22C1190.22 1303.63 1203.82 1304.59 1212.31 1304.37C1227.97 1303.99 1244.2 1302.18 1259.17 1297.37C1264.21 1295.34 1269.4 1290.68 1274.66 1289.35C1282.56 1287.34 1290.18 1289.87 1296.28 1282.95C1300.26 1278.43 1300.83 1273.59 1300.7 1267.71C1300.62 1264.04 1300.43 1260.36 1300.3 1256.71C1310.97 1260.67 1329.43 1266.21 1334.87 1277.18C1335.87 1279.19 1336.23 1281.5 1335.48 1283.66C1333.52 1289.3 1326.32 1292.97 1321.14 1295.2C1260.72 1321.13 1110.34 1313.81 1050.02 1289.22C1044.67 1287.05 1035.48 1283.55 1033.29 1277.74C1032.6 1275.91 1032.85 1274.01 1033.78 1272.32C1037.19 1266.13 1044.97 1264.15 1051.24 1262.49C1051.43 1282.12 1067.24 1283.13 1083.1 1284.03C1095.29 1284.71 1108 1284.05 1119.97 1281.59C1128.56 1279.79 1136.94 1277.11 1144.97 1273.59C1149.15 1274.39 1153.38 1274.86 1157.63 1274.98C1186.43 1275.62 1182.36 1253.1 1183.53 1232.43C1184.33 1218.46 1185.59 1204.75 1185.51 1190.69Z" fill="#c6c6c6"/>
<path d="M1298.61 1175.08C1297.6 1172.11 1297.17 1169.22 1298.69 1166.37C1303.98 1162.33 1456.63 1126.31 1476 1121.22V1134.79C1444.17 1144.14 1411.47 1149.63 1379.36 1157.39C1351.7 1164.07 1326.63 1170.07 1298.61 1175.08Z" fill="#c6c6c6"/>
<path d="M1476 1042.04V1051.05C1441.75 1059.75 1407.45 1068.26 1373.12 1076.59C1345.54 1083.06 1320.13 1088.31 1292.61 1096.88C1292.28 1094.16 1292.29 1089.82 1292.2 1086.96C1317.14 1079.39 1344.9 1073.51 1370.46 1067.43L1476 1042.04Z" fill="#767676"/>
<path d="M217.404 1138C223.341 1140.6 224.076 1141.17 230.664 1140.82C231.619 1143.62 231.43 1147.25 234.164 1148.37C247.037 1153.66 264.18 1154.57 277.802 1156.49L275.802 1170.5C250.76 1163.58 239.59 1168.52 213.189 1155.73C213.708 1152 216.407 1142.12 217.404 1138Z" fill="#c6c6c6"/>
<path d="M721.546 1224.05C735.686 1226.4 754.929 1228.98 768.449 1231.97C769.574 1236.31 770.806 1241.72 772.096 1245.93C757.495 1242.27 738.807 1238.29 723.859 1237.98L723.088 1240.61C721.827 1237.54 721.949 1228.07 721.546 1224.05Z" fill="#c6c6c6"/>
<path d="M1023.37 1211.01C1023.44 1210.6 1023.46 1210.19 1023.6 1209.8C1024.57 1207.3 1059.43 1198.14 1064.85 1196.6C1065.47 1199.61 1066.24 1202.68 1066.96 1205.67L1068.58 1209.37L1072.64 1213.76C1061.39 1215.73 1031.91 1218.87 1023.37 1211.01Z" fill="#c6c6c6"/>
<path d="M609.186 1209.07C615.604 1209.77 622.295 1210.42 628.603 1211.71C629.021 1214.96 630.048 1221.68 630.023 1224.69C623.012 1222.82 616.57 1220.88 609.302 1220.82C609.259 1216.92 609.183 1212.97 609.186 1209.07Z" fill="#c6c6c6"/>
<path d="M894.241 616.344C897.809 618.235 905.275 626.116 908.05 629.447C941.195 669.243 979.746 694.383 1024.79 719.756C1027.15 737.667 1030.95 750.279 1043.78 763.079C1039.79 780.123 1035.84 818.449 1033.88 836.776C1029.45 880.09 1025.41 923.439 1021.75 966.832C1020.23 985.115 1019.45 1005.76 1017.48 1023.58C1007.07 1023.07 992.704 1021.25 982.239 1020.11C962.773 1018.03 943.321 1015.81 923.884 1013.44C899.877 1012.75 871.474 1007.88 847.352 1005.18C856.635 967.963 853.017 946.025 840.549 910.344C852.152 889.192 854.43 863.78 855.972 840.048C856.477 832.387 855.893 823.09 857.082 815.66C859.006 803.675 865.529 793.794 866.285 781.283C866.754 773.839 865.406 766.394 862.358 759.583C851.028 734.201 817.501 724.702 793.357 715.674C823.641 703.005 837.472 693.301 858.026 666.947C862.062 661.773 864.152 663.177 869.211 659.987C885.845 649.495 889.989 634.103 894.241 616.344Z" fill="#979797"/>
<path d="M578.268 427.848L578.966 428.535C579.872 432.865 579.945 444.61 580.062 449.687C580.388 465.185 580.54 480.686 580.522 496.187L580.268 644.078C549.034 657.176 556.037 665.013 548.074 693.31C538.172 728.509 525.012 765.387 531.916 802.618C535.089 819.734 543.79 830.105 557.956 839.257C557.594 861.728 558.256 876.69 580.514 887.486L580.254 1041.57C558.693 1044.78 537.792 1048.83 516.339 1052.58L409.915 1070.92C399.148 1072.83 388.365 1074.64 377.567 1076.37C391.179 1023.68 407.544 968.931 422.625 916.486C425.421 915.326 428.82 914.007 431.061 911.845C442.295 900.977 449.213 879.313 450.369 864.114C451.145 853.902 448.102 848.554 441.879 841.52C444.965 833.513 448.55 819.251 451.244 810.365C478.47 797.429 484.42 771.988 483.481 743.154C483.322 738.275 476.453 733.85 472.803 731.212C493.299 673.041 505.899 613.353 525.679 555.5C540.27 512.824 562.351 471.17 578.268 427.848Z" fill="#c6c6c6"/>
<path d="M124.603 1010.16C131.409 1010.28 141.986 1016.86 148.477 1019.03C175.94 1028.24 203.769 1030.5 232.486 1029.04C234.296 1028.95 235.903 1030.25 236.906 1031.74C230.786 1032.65 223.538 1033.67 217.468 1034C192.113 1035.36 143.431 1027.04 124.603 1010.16Z" fill="#353535"/>
<path d="M682.506 541.496C707.617 540.063 764.919 542.768 785.747 558.467C796.947 567.357 801.228 579.627 802.871 593.143C807.029 627.492 790.41 654.032 754.216 657.537C737.748 660.842 705.652 656.304 688.719 654.141C678.038 652.776 655.495 646.497 647.331 639.87C624.938 621.69 630.531 579.031 646.677 558.413C656.032 546.456 668.886 543.106 682.506 541.496ZM750.807 623.31C761.286 617.335 767.088 586.157 747.218 585.915C735.125 596.442 728.934 620.676 750.807 623.31ZM673.04 617.99C681.551 607.449 691.11 583.348 670.488 580.665C661.169 590.983 653.571 615.389 673.04 617.99Z" fill="#353535"/>
<path d="M692.176 667.477C698.011 669.626 702.735 671.492 708.4 674.042C712.78 672.776 722.267 669.174 725.575 673.18C725.171 675.153 725.185 675.018 723.989 676.659C712.005 683.851 694.195 685.122 692.176 667.477Z" fill="#353535"/>
<path d="M111.595 454.676L111.817 454.77C136.848 465.105 154.113 552.361 137.73 560.262C115.858 539.821 91.8582 482.752 111.595 454.676Z" fill="#c6c6c6"/>
<path d="M666.249 171.172C669.539 173.358 690.029 236.635 690.34 243.196C694.07 321.898 691.23 401.419 693.536 480.211C611.694 520.711 585.295 651.084 670.096 703.102C680.523 709.498 688.82 712.989 700.088 717.286C689.054 723.491 682.882 727.239 670.819 731.39C650.558 738.33 629.672 749.169 609.521 757.126C609.653 744.716 609.23 731.743 609.232 719.193C614.672 710.954 615.548 707.157 618.052 697.556C622.604 693.618 626.7 690.262 628.535 684.347C633.839 667.249 625.503 653.685 609.624 648.13C608.18 634.53 608.727 607.756 608.714 593.296L609.222 481.995L609.095 407.526C608.99 392.032 608.067 371.446 610.308 356.472C610.911 352.44 616.544 336.335 618.108 331.598L632.471 288.013C645.143 249.488 656.41 210.516 666.249 171.172Z" fill="#c6c6c6"/>
<path d="M846.206 1015.39C862.335 1015.36 888.007 1017.84 904.547 1019.4C942.254 1023.22 979.911 1027.51 1017.51 1032.3C1015.39 1051.7 1014.3 1079.82 1017.22 1099.15C1018.66 1108.7 1044.95 1117.02 1054.04 1121.72C1042.59 1126 1021.86 1131.31 1009.29 1135C982.476 1142.2 955.832 1150.5 929.015 1157.66C917.426 1160.76 897.145 1168.11 886.032 1168.67C875.084 1169.22 857.269 1165.29 845.298 1164.37C841.428 1160.66 837.788 1155.43 834.754 1151.03C851.193 1119.29 850.408 1050.16 846.206 1015.39Z" fill="#767676"/>
<path d="M1109.86 481.695C1111.49 482.585 1112 482.424 1112.49 483.813C1115.32 491.779 1108.7 506.969 1105.87 514.55C1109.95 515.447 1120.06 517.515 1119.66 522.741C1118.5 524.028 1118.92 523.589 1117.21 524.38C1111.36 523.411 1103.54 522.111 1101.19 515.872C1097.6 506.365 1106.12 490.627 1109.86 481.695Z" fill="#353535"/>
<path d="M1146.49 530.391C1147.99 531.536 1148.32 533.22 1149 535.062C1145.78 546.249 1120.04 544.614 1111.11 542.882C1109.21 541.711 1107.8 540.062 1107.79 537.838C1110.72 536.799 1122.13 538.146 1126 537.856C1134.83 537.194 1139.19 534.919 1146.49 530.391Z" fill="#353535"/>
<path d="M1143.96 470.141C1157.27 475.48 1155.18 484.56 1148.92 494.782C1134.7 492.852 1138.39 479.048 1143.96 470.141Z" fill="#353535"/>
<path d="M1091.48 470.23C1103.73 477.027 1100.76 484.422 1094.4 494.59C1092.89 493.832 1090.76 492.702 1089.42 491.747C1087.08 490.102 1085.54 487.545 1085.2 484.707C1084.5 478.895 1088.17 474.457 1091.48 470.23Z" fill="#353535"/>
<path d="M1139.49 447.809C1146.45 447.356 1169.52 446.797 1165.42 459.257L1164.17 459.117C1152.48 453.572 1149.92 457.145 1138.11 454.091C1136.43 453.655 1136.45 452.978 1135.94 451.749C1136.54 449.574 1137.62 449.145 1139.49 447.809Z" fill="#353535"/>
<path d="M1088.65 446.852C1093.49 446.825 1098.74 448.22 1099.94 453.517L1098.95 454.728C1096.35 455.647 1094.49 454.666 1091.72 453.82C1087.63 455.275 1083.84 457.311 1080.15 454.394L1079.97 452.815C1081.91 449.121 1084.77 448.332 1088.65 446.852Z" fill="#353535"/>
<path d="M289.608 690.469L291.854 690.572L293.025 692.131C294.702 702.268 284.681 717.221 274.281 718.934C264.43 720.557 259.747 718.044 251.826 713.212C236.907 698.66 240.826 691.147 261.154 693.263C269.892 694.172 280.471 694.194 288.716 690.841L289.608 690.469Z" fill="#353535"/>
<path d="M271.777 700.919C275.923 700.572 279.549 699.407 282.353 702.819C281.323 710.855 269.71 712.454 263.232 712.672C259.857 711.225 253.598 708.37 254.98 704.184C260.098 700.712 265.573 701.185 271.777 700.919Z" fill="#767676"/>
<path d="M229.583 637.398C244.455 639.91 245.825 656.105 236.521 666.278C221.871 663.893 221.396 647.821 229.583 637.398Z" fill="#353535"/>
<path d="M290.449 625.684C306.214 628.312 304.061 640.871 300.652 652.776C286.039 652.895 287.665 635.242 290.449 625.684Z" fill="#353535"/>
<path d="M279.144 653.832C294.229 656.277 294.99 670.917 284.491 680.745C281.601 679.919 279.657 679.817 278.883 676.791C280.079 673.702 283.449 670.891 285.915 668.428C283.603 662.674 281.206 660.859 279.144 653.832Z" fill="#353535"/>
<path d="M288.459 597.525C292.904 597.323 300.771 598.255 301.781 603.721L300.874 604.853C298.183 605.4 296.483 604.421 293.794 603.442C289.803 604.595 284.743 606.693 281.081 604.741L280.975 603.417C282.828 600.614 285.54 599.338 288.459 597.525Z" fill="#353535"/>
<path d="M373.543 1104.55C379.661 1106.05 391.316 1107.44 397.868 1108.37C414.39 1110.68 430.929 1112.86 447.483 1114.93C493.48 1120.84 534.795 1126.34 580.446 1134.27C580.367 1149.82 582.039 1180.06 579.084 1194.74L374.385 1163.17C378.865 1140.23 377.672 1126.91 373.543 1104.55Z" fill="#979797"/>
<path d="M1052.62 1130.77C1053.48 1130.83 1053.79 1131.1 1054.64 1131.49C1058.48 1137.88 1062.95 1177.19 1064.33 1187.11C1050.45 1190.25 1026.14 1198.6 1011.31 1202.99L900.338 1235.77L891.74 1238.89C891.394 1218.62 891.38 1198.34 891.704 1178.06C911.999 1170.37 935.271 1164.15 956.308 1158.17L1052.62 1130.77Z" fill="#979797"/>
<path d="M574.175 1051.75C576.425 1051.45 576.678 1051.21 578.78 1052.11C581.635 1058.11 580.708 1114.97 580.703 1126C539.266 1119.47 497.12 1114.1 455.539 1108.49C438.973 1106.26 422.474 1103.29 405.931 1100.83C398.725 1099.69 380.414 1098.23 374.614 1095.44C373.635 1092.33 374.273 1090.26 376.078 1087.7C384.424 1081.95 551.813 1055.18 574.175 1051.75Z" fill="#767676"/>
<path d="M699.614 268.473C705.053 274.752 724.4 326.212 729.791 338.242C736.796 354.554 743.996 370.52 751.268 386.752C763.34 413.722 777.415 439.805 790.207 466.388C791.007 468.048 790.625 468.244 789.955 469.648C787.577 470.571 785.653 469.88 783.072 469.408C754.886 461.949 729.157 467.246 702.351 475.597C700.682 452.626 700.749 423.746 700.371 400.703C699.741 356.629 699.489 312.551 699.614 268.473Z" fill="#979797"/>
<path d="M1152.53 365.687C1177.82 363.03 1191.51 372.266 1203.54 393.491C1237.33 400.924 1229.99 440.129 1223.86 465.037C1211.41 464.092 1209.32 464.087 1198.75 470.993C1188.27 455.435 1182.77 447.822 1183.47 428.641C1186.72 405.808 1185.87 402.424 1162.93 405.969C1139.98 409.512 1114.05 415.059 1092.48 403.959C1085.33 400.574 1072.14 395.478 1070.84 386.424C1068.89 372.782 1095.64 375.698 1104.77 373.88C1120.53 370.746 1136.56 367.209 1152.53 365.687Z" fill="#5b5b5b"/>
<path d="M379.732 913.803C382.679 914.423 388.767 914.905 392.015 915.244C377.446 964.222 363.922 1015.38 349.981 1064.74C347.174 1059.24 344.596 1054.72 341.429 1049.4C332.257 1035.53 323.605 1022.44 313.631 1009.12C325.125 988.286 324.23 959.53 324.443 936.029C341.95 931.51 366.077 925.658 379.732 913.803Z" fill="#c6c6c6"/>
<path d="M409.691 907.403C412.735 907.324 412.538 906.855 414.776 908.131C415.527 910.372 414.965 912.707 414.357 914.985C403.854 954.392 392.553 993.655 381.677 1032.94L332.507 1214.65L315.224 1278.85C311.917 1291.03 308.429 1303.64 304.477 1315.66C303.422 1318.87 301.346 1319.94 298.409 1321.19C295.924 1319.76 293.41 1318.68 292.146 1316.22C292.719 1304.15 306.166 1258.06 309.878 1244.12C326.539 1181.73 343.531 1119.43 360.855 1057.22L386.847 962.219C391.224 946.147 395.871 928.75 401.47 912.909C402.424 910.214 406.941 908.635 409.691 907.403Z" fill="#979797"/>
<path d="M624.705 893.242C632.729 893.473 645.149 897.674 653.11 900.009C654.466 906.777 656.172 911.238 659.215 917.349C652.805 940.173 654.479 953.744 659.355 976.229C650.039 992.978 644.948 1008.56 639.477 1026.79C638.93 1028.74 639.09 1028.18 637.952 1029.96C632.639 1033.26 616.541 1034.73 609.532 1035.71L609.516 893.538C614.649 893.595 619.574 893.415 624.705 893.242Z" fill="#c6c6c6"/>
<path d="M578.913 307.48C580.523 310.405 580.33 313.567 580.528 316.837C582.48 349.11 571.062 377.704 561.676 408.335L532.583 503.132L495.568 629.229C486.242 661.635 477.316 697.965 464.262 729.115C463.402 731.169 456.232 730.563 454.226 730.491C451.7 727.572 453.13 723.32 453.958 719.9C460.165 694.266 468.679 669.228 476.555 644.073C482.911 623.228 489.14 602.343 495.239 581.422C521.839 489.719 549.733 398.395 578.913 307.48Z" fill="#979797"/>
<path d="M93.2342 775.063C103.06 774.768 108.329 776.512 116.66 781.225C112.207 796.893 107.564 813.368 104.169 829.295C99.9418 849.128 97.4453 870.158 91.9161 889.674C85.6647 889.479 80.9981 889.148 74.7857 888.434C69.7098 888.658 56.2277 884.716 50.9902 883.166C54.9682 853.856 62.174 796.554 83.2871 775.495L93.2342 775.063Z" fill="#767676"/>
<path d="M589.084 245.935C592.713 245.853 596.618 246.355 600.259 246.705C601.782 262.09 600.936 280.814 600.86 296.56L600.442 390.976C601.142 455.696 601.261 520.42 600.799 585.142C600.68 596.972 601.764 632.842 599.976 642.868C595.966 642.794 593.154 643.147 590.327 640.317C587.635 633.504 588.988 561.841 589.237 549.279C589.674 527.15 588.961 498.609 588.938 475.981L588.913 305.75C588.918 297.922 587.894 249.901 589.084 245.935Z" fill="#c6c6c6"/>
<path d="M589.511 890.445C592.069 890.806 599.687 890.928 599.913 894.07C601.044 909.789 600.369 927.128 600.469 942.933C601.06 1028.98 601.075 1115.04 600.512 1201.09C600.427 1211.43 601.558 1272.47 599.065 1277.79C595.219 1277.73 593.161 1278.09 590.29 1275.94C588.126 1271.59 588.959 1231.94 589.012 1223.8L588.92 1159.06L589.511 890.445Z" fill="#c6c6c6"/>
<path d="M253.714 534.359C257.109 534.439 264.294 536.479 266.55 538.864C280.381 553.49 255.39 583.543 246.673 592.757C246.206 582.293 245.354 575.794 242.997 565.601C228.068 594.487 227.83 594.142 200 613.639C189.663 620.523 181.757 623.517 169.433 625.316C174.426 603.103 186.84 575.096 202.166 558.512C218.027 541.351 231.091 535.64 253.714 534.359Z" fill="#5b5b5b"/>
<path d="M1285.83 1244.08C1286.82 1244.15 1287.74 1243.94 1288.31 1244.76C1292.03 1250.1 1292.31 1263.59 1292.07 1269.69C1291.59 1281.77 1278.47 1275.83 1271.68 1278.12C1267.57 1279.5 1263 1285.12 1258.79 1286.73C1239.34 1294.77 1218.51 1294.67 1197.97 1292.37C1172.88 1284 1220.07 1252.53 1228.16 1246.4C1253.48 1249.31 1261.02 1249.52 1285.83 1244.08Z" fill="#5b5b5b"/>
<path d="M1112.12 1228.77C1117.13 1229.14 1124.87 1230.86 1129.91 1231.96C1146.6 1235.61 1157.72 1235.87 1174.18 1231.85C1176.81 1250.06 1179.08 1258.64 1159.91 1265.6C1144.91 1259.74 1141.31 1265.21 1127.4 1271.06C1114.91 1272.61 1065.08 1279.65 1061.31 1264.51C1062.8 1258.23 1072 1252.64 1077.53 1249.77C1089.82 1243.39 1100.74 1236.63 1112.12 1228.77Z" fill="#5b5b5b"/>
<path d="M43.2401 923.006C59.5893 926.847 69.2098 927.993 85.8363 929.132C83.6742 949.196 80.5096 971.234 80.8534 991.342C80.9449 996.675 82.9038 1006.53 83.9056 1011.92C52.9602 1006.56 36.1662 1000.08 38.0048 964.208C38.763 949.412 39.197 937.679 43.2401 923.006Z" fill="#767676"/>
<path d="M708.572 1153.44C719.598 1154.53 746.411 1157.86 756.573 1159.96C758.9 1180.62 761.812 1201.2 765.307 1221.69C750.54 1219.31 735.737 1217.18 720.905 1215.29C719.802 1198.95 714 1168.62 708.572 1153.44Z" fill="#979797"/>
<path d="M742.476 1051.37L744.415 1051.76C746.707 1054.73 745.488 1065.35 745.352 1070C744.523 1098.53 747.795 1122.44 753.712 1150.13C743.06 1149.4 731.226 1147.75 720.54 1146.42L702.335 1143.49C717.865 1121.41 723.55 1103.91 730.152 1078.05C731.644 1072.2 734.628 1059.61 736.66 1054.33C738.404 1052.38 739.961 1052.18 742.476 1051.37Z" fill="#767676"/>
<path d="M831.656 915.295C833.609 915.792 833.933 916.974 834.819 918.524C835.41 926.703 818.705 933.081 812.312 935.438C771.196 950.601 712.384 951.805 672.443 933.24C669.039 931.59 666.08 926.487 666.716 922.682C668.458 921.536 669.234 921.442 671.685 921.803C687.498 924.138 702.403 930.638 718.517 931.698C758.778 934.343 794.323 931.15 831.656 915.295Z" fill="#979797"/>
<path d="M784.32 1134.36C800.709 1135.46 814.2 1145.76 827.382 1154.59C817.811 1163.93 815.18 1172.83 804.435 1182.54C803.678 1182.92 802.921 1183.28 802.157 1183.64C768.817 1199.3 748.047 1148.44 784.32 1134.36Z" fill="#979797"/>
<path d="M645.241 1120.77C666.907 1119.85 674.783 1134.18 691.644 1144.71L692.667 1145.34L673.089 1164.91C647.791 1184.78 627.707 1161.64 633.426 1135.31C635.078 1127.7 639.015 1124.52 645.241 1120.77Z" fill="#979797"/>
<path d="M869.672 580.691C887.654 582.052 886.595 604.504 884.598 617.822C882.76 630.042 877.362 642.909 867.006 650.297C839.475 638.088 851.042 596.592 869.672 580.691Z" fill="#c6c6c6"/>
<path d="M631.636 1040.82L633.908 1040.72C635.521 1042.47 634.634 1045.31 634.091 1048C628.294 1076.75 624.229 1102.29 623.971 1131.71C620.4 1131.15 616.919 1130.8 613.331 1130.42C611.772 1130.12 611.868 1130.19 610.636 1129.19C607.196 1119.26 608.709 1057.95 608.915 1045.25C616.918 1043.94 623.72 1042.58 631.636 1040.82Z" fill="#5b5b5b"/>
<path d="M619.873 9.96094C624.832 12.5629 668.281 113.902 673.759 126.827C670.479 130.899 669.011 132.974 664.857 136.162C659.409 126.639 652.308 108.345 647.12 97.4306C634.256 70.3675 622.276 42.9406 610.727 15.2904L619.873 9.96094Z" fill="#979797"/>
<path d="M660.619 151.43C660.223 174.257 648.238 209.355 642.532 231.647C641.494 235.707 636.931 251.896 635.151 254.845C634.322 259.952 629.891 273.017 628.233 278.016C622.366 295.611 616.128 313.081 609.525 330.413C608.553 312.567 608.203 301.589 613.396 284.319C619.496 264.033 626.763 244.649 633.979 224.747C635.78 218.042 639.807 206.911 642.179 199.848C647.12 185.143 653.33 165.051 660.619 151.43Z" fill="#c6c6c6"/>
<path d="M177.656 905.09L189.983 914.538C165.009 946.479 146.902 957.462 108.256 968.582C103.731 969.981 97.3311 968.835 97.161 963.307C96.9188 955.452 112.473 951.668 118.319 949.881C143.539 942.169 159.9 923.33 177.656 905.09Z" fill="#767676"/>
<path d="M639.941 138.008L652.9 142.593C649.838 154.317 643.828 169.843 639.772 181.588C631.057 207.488 621.98 233.265 612.544 258.912C611.4 262.174 609.869 265.743 608.568 268.983C606.768 232.687 613.595 214.061 625.457 180.417C630.504 166.357 635.332 152.218 639.941 138.008Z" fill="#979797"/>
<path d="M848.404 1173.12C859.618 1173.94 873.297 1175.88 884.439 1177.57L884.007 1238.47L868.959 1237.98C861.37 1217.02 856.476 1195.02 848.404 1173.12Z" fill="#979797"/>
<path d="M1149.14 632.035C1152.24 632.233 1153.23 632.08 1155.94 633.387C1160.17 639.775 1161.62 700.617 1161.77 712.731L1146.46 712.568L1134.69 712.07C1136.32 688.991 1142.54 654.104 1149.14 632.035Z" fill="#979797"/>
<path d="M1091.84 1070.29C1095.34 1075.18 1097.29 1109.02 1098.64 1117.92C1080.94 1116.01 1067.76 1113.43 1050.61 1109.09C1044.3 1107.36 1038.19 1104.95 1032.4 1101.9C1060.49 1092.08 1067.95 1087.5 1091.84 1070.29Z" fill="#c6c6c6"/>
<path d="M231.112 489.052C233.365 471.174 230.346 440.228 248.887 430.961C264.609 448.741 256.382 481.717 255.948 503.177C246.714 500.503 240.667 499.336 231.097 498.35C231.213 495.258 231.142 492.148 231.112 489.052Z" fill="#c6c6c6"/>
<path d="M827.577 743.158C851.187 741.14 861.55 774.35 855.079 792.576C853.745 796.338 852.578 799.444 850.949 803.105C848.758 798.003 847.05 793.981 844.369 789.145C831.324 769.55 822.633 764.916 799.253 763.676C807.649 751.424 812.672 746.538 827.577 743.158Z" fill="#979797"/>
<path d="M1196.67 1106.4L1197.57 1106.71C1202.48 1113.77 1208.06 1164.63 1208.91 1176.39L1195.81 1180L1185.53 1181.84C1185.66 1160.26 1185.32 1130.19 1184.12 1109.07L1196.67 1106.4Z" fill="#979797"/>
<path d="M118.768 795.223L121.863 798.149C123.448 804.073 121.514 808.894 120.199 814.724C110.876 856.056 108.136 901.906 104.367 944.232C97.7018 947.821 95.6824 948.765 91.0202 954.797L89.0498 952.232C90.786 937.724 94.2814 923.253 96.6496 908.796C101.325 880.242 105.934 851.508 111.588 823.142C113.357 814.27 116.631 804.383 118.768 795.223Z" fill="#767676"/>
<path d="M43.1256 888.838C62.0238 893.083 70.8048 895.252 90.7476 898.279C89.7228 904.989 89.0813 914.739 88.4255 921.709C79.0203 922.083 69.6004 921.5 60.3142 919.964C35.9063 915.828 37.4339 910.069 43.1256 888.838Z" fill="#5b5b5b"/>
<path d="M1135.22 789.656C1140.72 790.68 1148.39 791.364 1154.09 792.035C1154.95 809.598 1156.07 826.548 1158.44 843.982L1152.95 849.841C1143.99 857.927 1139.34 848.349 1134.04 841.409C1133.49 825.835 1134.68 805.497 1135.22 789.656Z" fill="#979797"/>
<path d="M324.37 646.977C326.272 649.313 327.876 653.844 329.543 656.632C342.895 678.959 351.284 694.567 337.205 719.726C337.006 714.66 337.158 709.748 337.269 704.681C333.019 710.965 328.828 720.14 324.751 727.144C321.864 731.554 312.48 741.939 306.54 738.768C304.852 734.487 314.582 721.457 317.25 716.54C331.008 691.202 323.691 673.092 324.37 646.977Z" fill="#5b5b5b"/>
<path d="M592.622 714.744C595.601 714.647 598.149 714.063 600.167 716.415C600.874 721.381 601.341 738.958 601.005 743.664C600.14 755.772 602.794 807.979 598.473 815.654C595.971 815.33 588.993 814.659 588.937 811.193C588.452 780.737 588.866 750.093 589.601 719.627C589.631 718.406 591.826 715.756 592.622 714.744Z" fill="#c6c6c6"/>
<path d="M1063.36 1122.41C1067.77 1123.27 1072.2 1124.04 1076.64 1124.71C1080.43 1141.56 1087.46 1188.5 1088.02 1205.05C1084.42 1205.8 1080 1207.05 1076.62 1205.7C1073.8 1200.99 1064.68 1132.79 1063.36 1122.41Z" fill="#979797"/>
<path d="M684.517 10.6328L695.567 15.0299C687.509 40.9177 678.914 62.5443 669.26 87.7553C668.611 89.3559 669.175 88.7592 667.735 89.7228C664.691 87.8684 662.297 79.329 661.074 75.8243C665.753 59.6761 676.794 25.1042 684.517 10.6328Z" fill="#979797"/>
<path d="M860.26 570.014C862.595 569.821 864.519 569.905 866.054 571.642C865.319 575.369 857.456 578.812 855.417 582.5C845.161 601.006 839.302 627.148 850.667 646.48C852.909 650.294 856.361 652.586 858.155 655.852L857.37 656.694L854.588 656.732C822.459 647.482 829.962 594.528 849.601 576.589C853.219 573.285 855.943 572.011 860.26 570.014Z" fill="#979797"/>
<path d="M608.484 1138.37C613.618 1139.25 619.019 1139.96 624.191 1140.73C623.902 1160.78 625.401 1180.32 627.083 1200.26C621.047 1199.93 615.025 1199.38 609.028 1198.63C608.52 1179.3 608.586 1157.83 608.484 1138.37Z" fill="#979797"/>
<path d="M1066.52 814.008C1069.53 821.301 1070.11 841.387 1073.29 844.615L1074.65 844.774C1075.69 857.184 1074.68 869.594 1075.24 881.752C1076.49 909.254 1076.16 936.741 1076.01 964.286C1072.92 964.632 1074.32 964.963 1071.7 963.212C1070.18 937.851 1069.77 915.2 1068.92 889.925C1068.03 863.454 1063.63 841.632 1066.52 814.008Z" fill="#c6c6c6"/>
<path d="M237.796 1101.22C250.039 1110.88 269.855 1132.29 277.772 1145.81C264.752 1144.98 252.443 1142.55 239.529 1141.31C238.159 1133.95 237.259 1108.96 237.796 1101.22Z" fill="#979797"/>
<path d="M1183.6 139.23C1186.62 140.417 1191.82 143.16 1194.91 144.673C1186.64 164.307 1177.92 183.75 1168.76 202.989C1165.73 203.999 1161.67 201.865 1159.65 199.533C1158.02 194.609 1179.96 147.498 1183.6 139.23Z" fill="#979797"/>
<path d="M156.082 771.152C168.505 772.089 193.073 778.885 204.223 785.199C216.692 792.268 222.402 805.58 225.886 818.898C220.718 813.644 215.334 808.606 209.747 803.799C183.222 780.096 165.68 770.043 133.385 789.105C140.935 778.64 144.321 776.334 156.082 771.152Z" fill="#5b5b5b"/>
<path d="M1087.27 1127.23C1091.17 1127.21 1093.26 1126.99 1097.04 1128.05C1101.62 1132.25 1104.3 1188.92 1104.92 1197.82C1102.05 1197.85 1100.8 1198.09 1098.21 1197.04C1093.29 1190.38 1088.2 1138.95 1087.27 1127.23Z" fill="#979797"/>
<path d="M746.007 835.492C764.06 841.568 782.201 867.887 764.313 883.022C761.351 884.621 754.187 887.129 750.727 888.441C757.834 859.923 750.295 860.795 746.187 836.595L746.007 835.492Z" fill="#979797"/>
<path d="M903.805 575.773C914.925 585.659 926.384 598.157 937.209 608.656C953.166 624.065 969.677 638.883 986.714 653.084C986.462 655.325 986.282 657.659 985.806 659.847C964.019 648.918 915.768 597.411 903.805 575.773Z" fill="#c6c6c6"/>
<path d="M463.939 653.609C466.125 659.092 448.467 712.572 445.676 721.439C439.74 721.461 436.246 721.677 430.335 722.354L429.64 721.381C431.199 712.99 458.283 664.836 463.939 653.609Z" fill="#c6c6c6"/>
<path d="M126.638 755.34C132.852 759.138 139.144 762.813 145.51 766.359C137.393 772.579 131.02 777.35 125.591 786.293C123.994 783.627 123.977 783.526 123.612 780.391C118.408 770.042 103.628 769.019 94.0059 766.438C104.887 761.084 114.746 757.884 126.638 755.34Z" fill="#767676"/>
<path d="M783.087 726.445L783.692 727.094C781.458 737.407 753.675 747.417 743.787 747.266C732.321 747.086 725.64 745.032 717.124 737.328C715.303 734.834 714.79 733.335 714.196 730.395L714.975 729.58C720.064 731.022 724.753 733.544 730.007 734.856C750.98 740.081 764.947 736.657 783.087 726.445Z" fill="#979797"/>
<path d="M432.981 793.875L445.277 798.098L435.087 837.188C431.918 837.455 426.736 836.309 424.297 834.089C422.375 826.479 430.579 802.999 432.981 793.875Z" fill="#979797"/>
<path d="M275.28 940.389C277.872 939.986 277.759 939.525 279.382 940.62C279.608 942.761 279.661 944.397 279.711 946.551C280.022 960.662 270.775 1020.06 257.716 1025.8C256.183 1023.17 259.962 1014.44 261.168 1010.78C268.71 987.861 270.802 964.237 275.28 940.389Z" fill="#5b5b5b"/>
<path d="M803.029 972.316C819.908 972.143 823.799 976.272 833.306 989.425C812.917 981.252 804.132 978.499 783.173 987.284C774.885 991.645 768.327 998.57 761.769 1005.11C771.368 984.848 781.761 977.634 803.029 972.316Z" fill="#979797"/>
<path d="M81.1756 1239.95C101.892 1255.1 114.938 1259.32 140.758 1258.21C138.452 1261.75 138.421 1261.51 138.363 1265.51C111.389 1263.89 101.677 1265.69 78.4932 1247.05C79.3508 1244.67 80.2445 1242.3 81.1756 1239.95Z" fill="#5b5b5b"/>
<path d="M277.312 541.223C299.214 548.487 310.368 568.408 312.044 590.563C306.558 586.961 302.559 573.915 297.885 569.104C287.922 558.85 278.71 557.476 277.312 541.223Z" fill="#5b5b5b"/>
<path d="M208.1 742.309C212.795 743.606 220.143 747.13 224.803 749.22C236.887 754.64 244.923 755.533 257.829 756.088C259.055 762.884 260.176 769.695 261.193 776.527C256.911 774.372 246.87 767.194 242.043 764.239C230.57 757.205 218.018 751.274 208.1 742.309Z" fill="#c6c6c6"/>
<path d="M1151.35 599.398C1159.48 599.617 1161.65 606.216 1164.79 612.584C1162.28 619.38 1160.98 621.344 1156.71 626.884C1138.73 622.472 1140.02 610.942 1151.35 599.398Z" fill="#979797"/>
<path d="M89.0498 952.23L91.0202 954.796C90.329 967.113 89.9593 970.334 98.8881 979.22C97.4136 992.531 97.655 1000.16 97.8525 1013.42C81.8219 997.763 86.8603 972.338 89.0498 952.23Z" fill="#5b5b5b"/>
<path d="M592.486 194.352C593.495 194.513 596.464 194.95 597.077 195.59C602.601 201.354 604.174 222.311 598.774 227.771C589.763 227.59 587.643 227.35 587.84 216.942C587.99 209.057 589.011 201.497 592.486 194.352Z" fill="#c6c6c6"/>
<path d="M345.799 870.023C346.044 866.975 345.418 864.625 346.63 861.894C349.21 860.741 348.995 861.238 352.302 861.634C353.089 880.156 354.067 898.786 354.003 917.315C351.802 918.201 350.439 918.554 348.135 919.167C346.899 913.106 346.091 878.196 345.799 870.023Z" fill="#5b5b5b"/>
<path d="M578.393 809.504C578.655 809.511 579.505 809.936 579.794 810.066L580.46 811.853C578.688 817.035 569.587 818.419 565.701 822.21C563.28 824.566 560.793 828.112 558.749 830.843C556.736 828.955 554.36 826.959 552.266 825.107C549.463 821.784 545.369 817.388 546.177 812.985C548.882 810.563 554.226 811.284 557.764 811.551C565.588 812.149 570.772 811.334 578.393 809.504Z" fill="#979797"/>
<path d="M42.7546 1111.37C54.1262 1116.39 49.9386 1135.8 41.5065 1129.02C36.1145 1124.69 26.4889 1104.05 31.859 1097.39L33.7193 1097.3C37.4541 1099.12 43.5401 1105.73 41.7995 1109.79L42.7546 1111.37Z" fill="#979797"/>
<path d="M36.3535 1120.24C38.3115 1115.73 39.1867 1113.93 41.7996 1109.79L42.7547 1111.37C40.8378 1115.28 39.1433 1116.99 36.3535 1120.24Z" fill="#5b5b5b"/>
<path d="M176.892 632.215L179.468 632.773C185.906 639.9 173.758 660.919 169.379 667.464L168.714 667.74L167.409 667.193C164.759 660.702 166.132 643.146 169.755 636.701C171.588 633.439 173.487 633.052 176.892 632.215Z" fill="#5b5b5b"/>
<path d="M1133.69 584.439C1135.54 584.283 1138.51 581.951 1140.32 580.91C1143.88 584.655 1146.41 587.351 1150.35 590.646C1147.27 590.774 1142.36 590.487 1140.14 592.357C1143.32 597.853 1136.25 611.911 1130.96 610.607C1127.65 605.945 1128.27 588.262 1131.89 584.229L1133.69 584.439Z" fill="#c6c6c6"/>
<path d="M1133.69 584.439C1135.54 584.283 1138.51 581.951 1140.32 580.91C1143.88 584.655 1146.41 587.351 1150.35 590.646C1147.27 590.774 1142.36 590.487 1140.14 592.357C1136.54 591.083 1135.29 587.712 1133.69 584.439Z" fill="#5b5b5b"/>
<path d="M773.754 720.247C774.568 720.049 775.145 720.162 776.031 720.193L775.873 721.104C763.268 731.035 741.142 730.538 726.54 726.12C723.485 724.974 723.124 724.773 720.71 722.589L720.84 721.63C723.931 720.903 727.391 721.551 730.562 721.875C745.344 723.425 759.131 722.25 773.754 720.247Z" fill="#979797"/>
<path d="M1117.2 721.789C1126.68 727.648 1123 759.553 1117.47 768.173C1112.39 766.436 1109.62 765.722 1112.57 759.524C1118.47 747.128 1117.63 735.122 1117.2 721.789Z" fill="#c6c6c6"/>
<path d="M297.864 774.465C300.324 774.76 302.006 774.933 303.804 776.944C311.37 785.391 318.602 816.027 318.553 826.852C316.995 825.172 315.707 820.978 315.04 818.657C310.336 802.327 305.117 789.722 297.864 774.465Z" fill="#767676"/>
<path d="M672.173 739.348C672.841 739.65 672.992 739.967 673.557 740.551C673.361 744.4 665.545 761.206 662.669 764.406L661.789 763.757L656.893 749.019C662.577 745.02 666.071 742.677 672.173 739.348Z" fill="#979797"/>
<path d="M1072.82 404.594C1074.32 405.278 1074 405.23 1075.28 406.436C1076.53 410.854 1070.55 434.314 1069.46 441.729C1060.7 431.155 1068.02 415.424 1072.82 404.594Z" fill="#5b5b5b"/>
<path d="M220.796 610.813C227.169 609.456 234.743 607.07 237.801 614.591L237.539 615.784C233.232 616.373 227.71 614.952 222.192 615.237C218.908 618.42 212.064 625.921 208.023 626.47C205.136 624.048 208.638 619.758 210.421 617.664C213.018 616.693 218.566 612.615 220.796 610.813Z" fill="#353535"/>
<path d="M565.764 427.518L568.802 427.516C568.823 427.56 568.856 427.601 568.867 427.649C570.053 432.706 553.692 469.046 550.17 475.833C552.986 462.194 558.588 445.925 562.305 432.273C563.156 429.149 563.482 428.669 565.764 427.518Z" fill="#c6c6c6"/>
<path d="M281.946 1226.19C290.46 1231.66 294.932 1232.08 304.859 1232.96L301.995 1241.34C293.682 1239.45 290.039 1238.05 282.374 1234.28L281.946 1226.19Z" fill="#767676"/>
<path d="M339.447 1238.97C342.103 1238.72 343.28 1238.31 345.558 1239.65C348.411 1245 340.979 1250.21 337.011 1252.68C333.878 1253.81 333.223 1254.21 330.961 1251.63C329.987 1245.24 333.757 1241.07 339.447 1238.97Z" fill="#c6c6c6"/>
<path d="M612.456 659.078C622.773 663.545 621.783 677.594 619.881 686.511L618.137 687.126L616.713 686.394C613.775 681.198 613.156 665.758 612.456 659.078Z" fill="#c6c6c6"/>
<path d="M325.684 743.023C326.037 743.434 326.168 744.184 326.355 744.796C324.258 752.753 316.696 764.089 310.149 769.069C305.774 762.922 320.346 746.612 325.684 743.023Z" fill="#c6c6c6"/>
<path d="M1071.7 963.213C1074.32 964.964 1072.93 964.633 1076.01 964.287C1076.01 968.416 1076.19 974.47 1075.92 978.434C1076 985.107 1076.34 993.914 1075.26 1000.33C1074.6 996.862 1073.79 993.071 1073.39 989.59C1072.28 981.043 1072.25 971.919 1071.7 963.213Z" fill="#8f8f8f"/>
<path d="M1073.39 989.592L1074.42 988.929C1075.38 987.617 1075.48 981.239 1075.92 978.436C1076 985.109 1076.34 993.916 1075.26 1000.33C1074.6 996.864 1073.79 993.073 1073.39 989.592Z" fill="#5b5b5b"/>
<path d="M123.613 780.391C123.978 783.526 123.995 783.627 125.592 786.293C123.57 790.761 122.55 793.082 121.862 798.148L118.768 795.222C121.225 790.084 122.824 786.034 123.613 780.391Z" fill="#5b5b5b"/>
<path d="M587.389 236.725C590.608 236.216 596.425 235.536 599.3 237.061L599.262 238.211C595.255 238.768 591.079 239.177 587.306 237.549L587.389 236.725Z" fill="#5b5b5b"/>
<path d="M451.045 1341.53C451.114 1327.07 450.026 1195.82 452.584 1191.66C456.224 1189.93 466.551 1193.96 470.399 1195.38C494.317 1204.15 517.7 1214.31 541.662 1222.99C547.397 1225.07 558.053 1228.42 561.313 1233.62C560.331 1238.32 551.104 1240.92 546.874 1242.77C518.581 1255.11 488.764 1265.69 460.49 1277.89C460.317 1299.39 460.873 1320.55 460.848 1341.89C460.648 1347.15 461.314 1349.48 457.671 1353C455.045 1353.88 456.294 1353.93 453.793 1352.92C450.37 1349.03 450.991 1346.79 451.045 1341.53Z" fill="#353535"/>
<path d="M459.893 1200.79C468.408 1203.32 481.986 1208.89 490.598 1212.14C509.472 1219.41 528.457 1226.4 547.545 1233.1C542.236 1236.27 529.104 1241.32 523.045 1243.76C501.802 1252.4 481.626 1260.19 460.29 1269.22C460.459 1246.92 459.908 1223.31 459.893 1200.79Z" fill="#c6c6c6"/>
<path d="M460.847 1341.89C468.432 1341.91 492.536 1343.01 493.51 1353.21C490.153 1365.75 432.713 1367.09 422.285 1352.85C420.716 1343.66 444.934 1343.08 451.044 1341.53C450.99 1346.79 450.37 1349.03 453.792 1352.92C456.293 1353.93 455.044 1353.88 457.671 1353C461.314 1349.48 460.648 1347.15 460.847 1341.89Z" fill="#c6c6c6"/>
<path d="M63.1717 742.098L65.1027 743.474C65.0617 744.613 65.0995 745.989 64.0138 746.804C37.5408 766.673 27.3287 796.913 21.8689 828.688C16.6007 825.863 17.9174 819.521 19.2001 814.339C24.696 792.121 33.3671 769.671 48.9593 752.54C52.4299 748.728 58.8373 744.829 63.1717 742.098Z" fill="#353535"/>
<path d="M847.95 370.02C852.923 372.825 869.888 410.175 873.549 417.196C900.677 469.239 932.539 518.944 967.608 565.975C973.915 574.427 981.994 581.763 986.873 591.227C986.181 591.369 985.489 591.511 984.797 591.653C982.866 592.171 979.003 588.581 977.684 587.339C948.193 559.594 849.017 402.728 847.95 370.02Z" fill="#c6c6c6"/>
<path d="M0 796.504C2.10423 789.232 4.3205 781.679 6.49562 774.408C9.63501 763.914 33.5408 723.996 44.8927 724.169C47.6386 728.413 30.0726 743.014 26.6844 748.038C22.0179 755.021 18.0454 762.444 14.8237 770.199C10.9612 779.38 7.85408 788.857 5.53329 798.536C4.89557 801.167 4.87209 803.012 2.65605 804.561C1.08667 803.689 1.37587 803.92 0 802.745V796.504Z" fill="#353535"/>
</g>
<defs>
<clipPath id="clip0_15479_17859">
<rect width="1476" height="1383" fill="#ffffff"/>
</clipPath>
</defs>
</svg>
