<svg width="1835" height="1417" viewBox="0 0 1835 1417" fill="none" xmlns="http://www.w3.org/2000/svg">
<g clip-path="url(#clip0_15479_17979)">
<path d="M339.823 0H350.914C415.212 25.4069 423.755 156.306 420.765 214.907C465.664 209.358 488.832 204.577 532.963 216.797C545.519 162.904 559.808 111.316 592.042 65.2315C605.804 44.5216 628.114 16.7599 656.19 22.2632C664.181 23.8296 674.482 31.868 678.03 39.2031C712.955 111.395 680.019 218.755 637.715 279.98C655.658 304.293 670.906 328.677 681.91 356.959C704.076 413.928 717.153 535.422 708.038 596.162C701.859 637.352 684.554 675.577 654.068 704.443C644.332 713.662 633.403 721.551 622.668 729.544C666.049 769.693 672.574 793.171 688.307 849.933C693.522 868.744 699.599 889.664 702.472 909.139C710.081 863.726 718.399 808.769 741.766 768.877C760.911 736.195 798.71 720.274 830.963 704.351C844.538 697.436 868.038 675.784 878.815 664.675C844.101 638.345 820.667 604.673 814.829 560.576C814.438 557.43 814.174 554.268 814.037 551.099C795.825 539.56 785.113 526.426 780.296 504.789C774.553 478.988 780.431 456.292 800.247 438.505C786.762 391.373 766.173 335.92 809.401 297.17C803.592 282.06 796.46 263.143 802.788 247.228C811.432 226.132 838.529 237.917 854.509 235.788C877.014 232.791 899.858 227.505 922.079 223.714C972.935 215.034 1032.87 221.417 1072.51 257.292C1080.58 264.591 1085.19 275.752 1091.59 284.414C1105.12 301.492 1121.69 313.428 1128.29 335.502C1137.57 366.492 1130.79 402.337 1121.03 432.587C1119.69 436.714 1117.56 442.408 1115.74 445.988C1141.94 478.048 1140.58 522.154 1107.28 548.476C1097.8 555.905 1086.74 561.047 1074.94 563.501C1061.37 600.121 1051.42 621.447 1023.39 650.278C1046.07 706.463 1138.51 714.264 1178.9 760.764C1195.29 719.167 1247.25 654.035 1289.01 634.828C1304.28 627.796 1344.76 620.327 1363.34 614.827C1304.36 592.71 1263.01 568.101 1236.3 509.193C1233.54 503.102 1231.08 496.879 1228.92 490.547C1208.7 478.174 1199.34 469.423 1192.87 444.224C1185.81 416.781 1191.43 375.24 1205.24 350.049C1210.91 339.7 1221.23 334.906 1231.35 329.855C1262.47 261.553 1294.62 218.637 1367.62 191.45C1426.69 169.833 1491.94 172.695 1548.88 199.4C1608.98 227.146 1643.06 269.827 1666.53 330.228C1675.41 336.859 1687.26 344.909 1691.92 355.205C1713.01 401.793 1712.16 476.756 1657.61 499.004C1629.74 547.358 1603.36 578.506 1550.62 601.255C1547.56 602.576 1539.89 605.998 1538.49 608.737C1547.82 619.921 1599.66 627.615 1613.93 631.528C1621.66 633.579 1629.12 636.548 1636.14 640.368C1651.75 648.97 1670.03 668.214 1680.19 682.998C1679.42 665.513 1673.98 616.474 1686.02 603.791C1689.1 600.531 1693.4 598.705 1697.88 598.755C1710.51 598.815 1718.64 615.077 1723.78 624.676C1735 600.353 1734.07 530.042 1778.64 558.887C1787.38 556.957 1796.96 553.861 1805.16 558.006C1808.64 562.933 1808.51 574.837 1811.3 576.864C1825.98 587.51 1828.41 576.088 1835 600.131V621.713C1832.36 627.863 1830.07 646.014 1828.71 653.451C1821.26 694.061 1818.12 715.503 1795.16 750.435C1794.11 796.941 1787.88 838.05 1772.7 882.247C1769.24 892.301 1757.66 912.132 1756.7 919.266C1743.14 1020.23 1784.77 1109.46 1639.77 1110.55C1638.15 1136.55 1629.22 1159.14 1624.69 1185.31C1609.74 1271.94 1616.33 1421.02 1489.78 1414.71C1472.6 1413.85 1455.34 1406.7 1443.54 1393.85C1415.75 1410.13 1391.61 1417.12 1359.35 1409.64C1338.93 1404.91 1315.53 1388.4 1306.5 1369.8C1280.08 1315.37 1266.63 1221.15 1264.09 1162.21C1243.97 1135.74 1246.74 1112.2 1247.21 1080.03C1193.73 1077.91 1172.93 1047.13 1148 1005.37C1147.5 1098.81 1152.87 1188.53 1163.85 1281.31C1165.34 1293.87 1149.22 1304.46 1139.99 1309.58C1140.33 1331.25 1139.13 1354.86 1138.49 1376.68C1138.19 1386.89 1137.6 1407.48 1136.11 1417H1120.02C1120.45 1383.34 1121.67 1349.69 1123.7 1316.09C1031.26 1331.85 987.495 1339.31 974.324 1230.11C945.545 1232.55 928.987 1231.09 900.584 1228.49C894.742 1270.69 887.317 1319.56 834.268 1323.1C815.196 1324.36 800.055 1319.93 781.998 1314.93C782.029 1349.94 784.567 1382.67 785.084 1417H769.093C768.494 1407.53 766.655 1361.42 765.141 1356.95L763.87 1356.56C762.291 1358.98 762.6 1364.62 761.357 1368.16C757.676 1378.64 750.139 1384.12 738.504 1382.91C702.885 1379.23 681.438 1340.26 678.093 1307.87C676.301 1290.54 678.351 1273.08 679.874 1255.78C676.751 1253.32 674.975 1251.3 672.308 1248.43C669.752 1228.43 671.186 1203.5 672.298 1183.18C673.835 1157.12 675.6 1131.08 677.594 1105.05C666.876 1107.46 654.621 1111.05 643.803 1113.86C644.779 1136.63 647.104 1160.19 647.723 1182.85C648.526 1212.27 647.428 1244.28 645.694 1273.7C644.605 1292.38 642.992 1311.03 640.857 1329.62C639.092 1344.38 636.615 1359.59 635.425 1374.33C634.123 1388.73 631.66 1403.07 630.431 1417H612.812C613.899 1403.63 615.506 1390.29 617.631 1377.04C620.774 1359.79 621.185 1336.61 623.417 1318.35C625.954 1295.55 628.832 1272.72 630.166 1249.82C635.116 1164.87 621.008 1080.98 613.092 996.722C610.896 973.356 617.249 946.665 618.605 923.147C621.832 867.15 607.603 798.338 579.589 749.866C579.09 750.156 578.585 750.436 578.075 750.707C570.854 754.553 546.688 768.374 540.2 766.321L539.744 764.859C545.982 749.509 594.831 726.247 611.097 716.506C620.875 710.725 630.176 704.172 638.911 696.91C652.531 685.354 663.805 671.291 672.124 655.483C681.769 636.968 688.201 616.949 691.147 596.28C694.668 573.172 694.106 551.681 693.322 528.47C691.586 477.063 686.525 425.764 671.017 376.503C653.369 320.45 622.217 276.59 569.45 249.053C522.928 224.856 468.784 219.844 418.613 235.091C415.652 247.13 414.638 250.844 405.974 259.582C403.627 256.42 400.691 251.833 400.672 247.781C400.621 231.287 403.061 215.272 403.373 198.673C404.062 162.05 400.272 125.685 391.052 90.1834C386.856 75.9996 383.319 59.6504 376.118 46.6121C351.161 1.42536 324.733 15.8995 308.907 56.2122C285.597 115.591 288.547 177.482 305.321 237.595C308.031 247.444 311.172 257.167 314.738 266.738C317.878 274.935 338.281 310.677 328.375 315.45C324.57 315.348 321.717 313.649 318.193 312.045C314.495 315.53 309.197 322.129 306.116 326.541C266.803 382.864 245.514 458.333 242.771 526.504C242.401 535.697 242.555 555.4 244.316 564.082C252.768 605.746 287.972 650.317 319.811 677.145C335.886 690.541 354.978 701.391 372.397 712.092C385.187 719.949 451.939 750.305 453.892 762.618C447.961 764.523 399.097 739.838 388.442 735.807C392.261 763.598 397.572 796.936 395.888 824.56C389.507 929.179 337.082 1014.98 261.3 1083.65C257.682 1097.65 253.742 1123.28 251.997 1137.22C247.327 1176.26 245.887 1215.63 247.692 1254.9C249.611 1295.66 254.245 1334.96 256.059 1376.35C256.902 1385.43 258.436 1408.96 260.051 1417H241.876L241.886 1416.27C240.535 1412.52 239.202 1379.57 239.118 1373.95C237.825 1369.17 236.063 1341.57 235.444 1334.46C230.969 1283.02 228.403 1233.13 229.914 1181.49C197.786 1176.79 153.523 1175.18 133.315 1145.46C128.2 1137.79 124.843 1129.07 123.484 1119.95C118.788 1089.81 123.419 1051.94 124.598 1021.22C125.675 993.182 119.245 947.481 145.335 929.905C150.674 874.572 159.963 822.656 181.858 771.329C126.24 699.349 87.3948 627.649 65.5561 538.804C58.0606 508.311 54.4397 494.991 64.3562 463.968C55.5709 443.296 52.3151 434.048 57.8489 412.039C40.1525 388.651 9.06739 330.096 0 302.535V293.313C3.60904 283.303 5.77734 281.542 14.8814 276.534C12.9716 270.357 8.92641 253.761 11.4248 247.675C13.8686 241.721 24.0679 242.606 30.5381 237.33C38.3071 231.769 39.8506 220.481 45.9738 213.976C51.8049 207.782 68.0875 216.913 73.7563 219.892C109.442 182.227 132.149 274.797 139.197 296.079C146.214 279.815 155.506 256.244 177.673 264.078C180.793 265.181 185.502 268.36 186.433 271.646C191.121 288.203 184.567 306.215 182.304 322.728C179.66 345.989 179.456 359.626 171.007 381.586C180.882 394.388 182.898 406.741 185.427 422.142C216.119 455.722 213.428 473.857 226.232 514.307C229.658 443.41 261.837 348.448 308.168 293.993C297.757 276.431 293.686 258.588 288.109 239.248C274.668 192.867 270.684 148.073 278.138 100.177C283.576 65.2283 295.811 23.9586 328.455 4.70025C331.24 3.05715 336.731 1.16514 339.823 0ZM1354.05 634.129C1339.37 637.977 1329.38 639.621 1321.63 654.556C1297 702.05 1284.34 751.848 1272.87 803.598C1265.51 836.827 1267.5 864.577 1262.95 896.931C1268.69 890.484 1282.75 877.356 1289.9 872.246C1289.55 852.146 1290.18 832.163 1288.54 812.204C1287.47 799.214 1287.21 769.37 1305.88 769.321C1324.54 769.271 1329.24 787.232 1333.91 801.089C1343.12 777.92 1373.73 691.916 1405.09 741.061C1431.78 734.9 1428.03 739.722 1438.32 760.07C1466.78 766.441 1461.41 771.017 1457.52 795.113C1468.36 803.511 1475 813.138 1468.04 826.812C1462.8 837.098 1455.81 847.771 1449.28 857.333C1432.18 882.381 1413.77 916.613 1387.29 932.433C1386.93 936.645 1386.69 940.624 1385.88 944.774C1366.59 995.682 1314.6 1050.92 1265.12 1075.23C1265.26 1092.48 1262.92 1137.43 1274.96 1148.86C1280.87 1154.47 1289.47 1157.74 1296.98 1160.69C1348.99 1181.15 1421.69 1183.68 1477.23 1180.8C1505.88 1179.3 1592.14 1170.94 1612.25 1149.3C1629.78 1130.43 1625.98 962.153 1625.29 930.631C1546.05 853.075 1520.48 739.408 1581.45 642.48C1568.73 637.513 1556.92 633.966 1543.29 632.155C1536.49 652.608 1525.58 665.473 1505.89 674.993C1471.18 691.777 1427.21 693.066 1390.57 682.216C1366.58 675.114 1356.36 657.955 1354.05 634.129ZM1431.89 195.91C1369.51 202.495 1322.37 224.573 1282.1 273.762C1214.84 355.905 1213.01 494.479 1300.31 563.499C1346.84 600.282 1409.91 611.39 1467.77 605.245L1468.6 605.15C1535.31 595.037 1582.07 576.85 1624.13 520.618C1631.46 510.821 1635.25 504.513 1640.51 493.341C1632.4 485.325 1627.19 477.798 1623.74 466.73C1612.67 431.126 1614.72 364.86 1641.82 337.553C1643.62 335.742 1645.51 334.026 1647.49 332.41C1627.04 278.069 1594.3 240.159 1540.92 214.864C1510.44 200.422 1465.73 191.912 1431.89 195.91ZM1339.26 990.403C1345.51 980.948 1351.67 971.438 1357.76 961.875C1313.53 956.721 1294.41 940.239 1284.96 896.304C1269.43 912.831 1254.71 930.649 1239.5 947.454C1235.08 952.348 1221.16 969.09 1216.32 972.021C1207.74 966.186 1226.06 939.907 1230.35 934.342C1233.65 930.066 1237.25 926.024 1241.12 922.242C1225.11 889.638 1211.37 855.019 1195.17 822.433C1189.09 810.182 1179.59 790.254 1171.86 779.175C1166.52 771.447 1159.95 764.645 1152.4 759.041C1129.13 741.899 1100.62 731.422 1074.94 718.319C1081.43 736.76 1088.44 756.591 1090.56 776.04C1084.51 782.004 1073.47 788.018 1065.51 791.512C1073.84 799.08 1082.96 807.055 1090.75 815.084C1074.5 860.443 1049.7 911.576 1030.05 955.762C1022.03 973.795 998.247 1024.86 987.173 1037.57C990.237 1016.27 1009.23 972.917 1018.05 952.061L1075.3 819.525C1065.33 810.321 1052.21 799.748 1043.69 789.664C1054.12 783.058 1065.88 775.843 1077.47 771.488C1070.09 745.775 1061.27 707.934 1039.13 691.673C1039.51 735.343 1024.19 782.768 1016.25 825.775C1006.88 876.494 994.932 926.365 986.501 977.38C973.876 1052.77 977.388 1131.93 985.076 1207.71C987.433 1230.97 993.283 1277.83 1010.02 1294.14C1033.11 1316.65 1124.41 1308.63 1145.22 1286.68C1146.74 1266.34 1143.42 1243.41 1141.23 1223.05C1139.18 1203.19 1137.41 1183.29 1135.94 1163.37C1134.38 1142.02 1133.17 1120.65 1132.26 1099.26C1131.2 1067.05 1129.19 881.499 1136.86 862.051L1138.25 860.859C1147.57 867.584 1141.05 941.834 1144.97 956.121C1158.24 1004.55 1204.71 1082.67 1265.59 1056.07C1292.58 1044.28 1321.38 1014.79 1339.26 990.403ZM823.182 769.694C833.22 776.383 842.015 780.974 848.622 791.062C840.894 802.777 831.397 810.11 820.78 819.118C830.523 849.983 840.474 879.991 850.787 910.017C861.029 939.836 890.654 1008.95 890.851 1035.48C878.637 1018.48 855.908 959.903 847.882 937.9C834.544 901.323 814.596 851.681 804.337 814.04C813.082 806.159 820.538 799.201 828.797 790.835C823.724 787.9 810.728 781.259 809.812 776.097C807.792 764.712 822.135 735.447 827.244 726.001C798.424 739.299 754.587 763.609 744.874 797.17C707.473 926.661 695.731 1062.28 689.174 1196.44C688.674 1206.67 685.131 1229.26 688.8 1237.57C693.835 1248.96 736.394 1247.86 746.997 1247.44C747.676 1243.29 748.296 1239.46 748.744 1235.27C754.375 1169 759.295 1104.41 760.273 1037.8C760.646 1012.4 757.147 858.534 767.914 849.038C771.01 851.759 771.865 859.436 771.956 863.479C773.835 947.329 778.752 1032.03 774.46 1115.83C771.528 1173.08 765.084 1230.31 760.369 1287.37C788.884 1304.33 850.552 1321.61 871.103 1285.54C882.094 1266.24 887.524 1224.77 890.267 1202.16C897.394 1143.36 901.946 1083.29 898.648 1024.09C889.655 915.09 864.038 809.093 863.594 699.071C862.622 698.096 862.999 698.249 861.808 697.735C837.862 724.932 834.68 736.559 823.182 769.694ZM1044.27 595.511C1050.3 584.656 1059.74 557.067 1062.18 544.906C1076.48 544.801 1087.67 544.485 1100.34 532.658C1116.05 517.98 1128.77 465.979 1098.18 459.838C1086.84 457.563 1077.26 484.853 1063.56 477.761C1057.97 469.955 1061.9 451.401 1059.72 440.129C1056.48 421.749 1046.25 405.864 1043.46 387.348C1040.81 369.747 1045.9 348.919 1041.63 332.116C1037.72 316.727 1000.45 324.643 989.036 327.278C942.292 338.065 903.979 337.129 860.603 314.685C831.908 340.476 828.532 352.931 826.458 391.299C824.514 428.267 824.828 464.422 826.587 501.469C827.793 526.87 827.573 547.548 833.982 572.673C856.384 660.513 944.532 696.307 1014.77 633.481C1027.24 622.321 1035.5 609.94 1044.27 595.511ZM80.4067 463.532C71.326 494.408 76.7965 516.195 85.1002 546.245C96.8321 588.703 112.504 628.815 133.613 667.525C151.965 701.238 173.458 733.142 197.804 762.814C220.881 791.03 246.211 814.747 271.951 840.225C276.868 845.092 280.721 853.065 282.971 859.639C279.252 858.873 275.149 857.537 271.703 858.57C270.171 860.023 269.129 861.253 269.421 863.607C274.696 906.145 275.702 943.977 272.52 987.015C282.317 972.926 291.58 958.46 300.291 943.672C335.824 873.834 340.753 787.649 322.372 712.197C319.072 698.651 286.821 668.723 276.277 656.145C265.556 643.486 256.07 629.83 247.947 615.365C219.279 564.485 208.911 508.702 190.396 454.168C188.226 447.777 183.92 443.049 179.054 438.55L178.237 439.11C171.094 444.059 163.276 455.173 157.984 458.455C143.011 467.741 98.7755 479.718 83.9489 469.518L83.3207 467.698C85.4103 465.237 88.3653 464.675 91.5475 464.65C111.077 464.496 131.298 458.489 148.661 449.859C159.222 444.609 171.102 434.242 170.118 421.414C169.766 416.823 165.861 401.279 162.124 398.708C132.632 418.285 106.988 430.826 70.1455 425.49C72.941 438.626 75.9099 450.828 80.4067 463.532ZM1582.79 1325.88C1592.9 1282.17 1605.76 1219.17 1608.66 1173.99C1590.4 1179.55 1572.84 1185.02 1554.1 1188.83C1463.91 1207.14 1367.87 1204.45 1280.91 1173.45C1286.27 1212.54 1291.58 1251.97 1299.54 1290.6C1303.41 1309.4 1305.98 1340.93 1322.74 1352.54C1347.52 1369.7 1384.58 1367.39 1413.34 1363.91C1420.47 1363.04 1432.25 1358.6 1438.57 1359.54C1447.52 1360.88 1462.03 1366.98 1470.94 1368.4C1497.31 1372.58 1558.54 1373.85 1574.83 1349.27C1578.97 1343.03 1580.81 1333.22 1582.79 1325.88ZM1778.12 784.338C1743.68 794.049 1717.18 790.262 1691.8 763.209C1685.25 780.305 1680.08 797.735 1674.84 815.259C1671.7 825.735 1669.33 840.059 1664.55 849.549C1650.08 824.439 1678.13 760.222 1687.86 733.459C1680.67 713.932 1666.64 680.533 1642.42 678.118C1619.69 700.7 1614.76 733.028 1615.06 764.338C1615.57 817.38 1624.44 878.322 1661.62 919.051C1681.7 941.046 1713.39 941.494 1733.82 920.252C1752.42 900.929 1763.24 859.696 1769.46 833.324C1772.68 817.058 1775.58 800.725 1778.12 784.338ZM618.062 136.435C617.316 140.132 615.805 148.848 614.761 152.087C606.453 183.701 592.734 209.364 590.913 243.523C598.275 249.025 616.93 263.535 624.227 267.107C630.836 259.787 635.915 249.368 640.401 240.566C663.056 196.111 677.619 145.096 674.581 94.8494C673.555 77.8682 669.863 41.9189 649.633 37.8968C642.625 38.6266 639.173 40.3271 633.887 45.1537C584.492 90.2515 562.272 157.585 551.523 221.809C560.392 225.903 572.272 231.018 580.56 235.686C587.128 203.473 599.313 163.552 618.062 136.435ZM987.513 901.861C996.043 858.464 1005.98 815.634 1014.21 772.31C999.045 793.3 994.377 792.888 977.568 773.021C973.339 781.61 967.273 793.078 963.662 801.669C970.113 844.161 978.849 890.754 980.766 933.759C983.329 923.058 985.39 912.661 987.513 901.861ZM1189.79 776.119C1204.37 802.415 1222.39 843.654 1234.72 872.038L1246.92 898.365C1247.21 889.295 1249.09 863.97 1247.66 857.042C1242.1 830.191 1231.75 814.686 1230.82 785.577C1230.29 766.691 1232.03 747.809 1235.99 729.336C1237.31 723.078 1243.06 698.997 1243.02 694.162L1242.51 693.747C1220.65 718.211 1202.86 746.02 1189.79 776.119ZM880.425 775.48C884.85 821.952 892.081 868.604 898.514 914.884C899.329 920.306 900.109 926.365 901.193 931.689C906.309 884.126 911.237 845.746 922.849 799.072C919.731 793.584 912.42 775.757 910.135 773.35C898.872 787.131 892.199 791.919 880.425 775.48ZM694.445 1260.86C690.069 1299.89 692.579 1355.87 740.56 1369.31C742.742 1369.92 744.199 1369.44 746.025 1368.39C747.551 1362.93 737.917 1355.66 733.559 1351.99C721.162 1341.59 719.645 1317.28 719.212 1302.32C720.186 1299.27 720.453 1297.1 722.909 1295.19C734.379 1295.77 731.657 1338.3 747.151 1345.92C761.377 1345.89 760.486 1318.5 760.755 1308.34C742.867 1293.75 744.968 1286.92 746.373 1265.3C729.018 1264.4 711.7 1262.92 694.445 1260.86ZM806.838 524.718L809.194 526.767L810.015 526.476C811.324 517.46 812.221 464.314 807.747 457.88C806.115 457.158 805.674 456.827 803.924 456.598C789.849 479.103 793.897 502.631 806.838 524.718ZM960.122 728.238C967.586 738.4 974.826 748.725 981.833 759.203C986.546 765.264 990.336 769.679 995.443 775.355C1007.57 762.432 1016.89 749.474 1021.92 732.049C1024.96 721.51 1030.46 687.884 1020.3 679.943C1001.7 705.385 988.167 714.823 960.122 728.238ZM942.857 720.643C971.412 709.319 986.949 700.933 1008.93 678.79C1009.82 672.304 1011.33 665.655 1009.14 659.49L1007.96 658.594C980.91 674.676 953.107 686.265 919.812 680.449C914.893 679.589 900.297 673.743 896.471 675.481C893.351 682.868 906.291 696.938 911.47 701.795C923.682 711.432 928.046 714.504 942.857 720.643ZM1721.16 664.05C1737.74 666.887 1752.3 696.779 1742 708.274L1741.13 708.035C1737.78 701.269 1737.73 692.002 1734.8 686.144C1731.23 678.998 1721.31 674.316 1719.07 665.338C1718.94 663.659 1717.14 658.505 1716.59 656.091C1713.98 644.902 1713.97 632.077 1707.76 622.06C1704.78 617.245 1699.04 612.184 1693.84 616.991C1691.32 622.944 1692.02 681.046 1692.87 691.303C1693.47 698.541 1694.6 705.728 1696.71 712.686C1701.5 728.427 1710.58 740.711 1725.2 748.499C1736.81 754.683 1750.99 757.621 1763.8 753.591C1778.67 748.915 1789.17 735.029 1795.88 721.649C1800.54 712.374 1803.94 702.414 1806.77 692.441C1811.24 676.602 1825.22 612.245 1820.23 598.88C1819.26 596.307 1818.34 595.08 1815.87 594.062C1803.44 596.947 1794.47 640.555 1791.91 652.179C1795.61 656.546 1796.34 657.789 1799.03 662.873C1780.01 657.506 1761.42 650.733 1743.41 642.61C1749.72 639.495 1757.22 636.492 1757.98 627.851C1758.66 620.056 1774.52 567.28 1761.47 565.887C1746.09 571.69 1737.83 628.831 1730.97 644.522C1727.67 652.105 1725.33 656.705 1721.16 664.05ZM82.0897 410.457C157.406 410.027 163.72 376.813 169.256 310.53C169.861 303.296 178.436 287.645 173.425 280.115C157.952 271.029 147.458 313.933 144.68 323.23C127.797 333.85 114.156 342.122 114.492 363.659C114.546 367.115 113.879 370.125 111.296 372.563C108.531 370.186 107.499 367.266 107.217 363.638C106.167 351.259 110.337 339.005 118.719 329.837C123.528 324.501 127.132 321.957 133.078 318.153C124.602 295.837 106.938 234.093 88.629 222.678C73.4915 249.647 115.951 287.079 99.1545 302.089L97.5982 302.117C93.3682 296.188 92.3915 289.64 88.0914 280.532C80.8215 265.132 71.5422 237.765 56.1322 228.318C54.7554 227.475 52.2554 229.284 51.1308 230.106C41.2147 250.5 94.8591 309.205 72.4602 316.197C70.3039 314.578 68.2011 308.171 67.0816 305.462C62.3808 294.087 43.4058 253.732 31.3709 251.504C27.9131 252.551 29.3441 251.65 26.9027 254.289C19.6809 274.686 63.0977 318.35 54.5525 331.038C43.5318 332.009 34.6725 299.627 20.3879 293.728C6.14447 295.259 31.7172 336.361 35.1617 343.143C46.8193 368.685 58.0435 394.397 82.0897 410.457ZM1368.86 944.577L1369.64 942.381C1367.55 939.549 1356.64 938.886 1350.67 937.837C1334.47 934.996 1322.83 931.142 1313.51 916.506C1312.11 914.31 1300.13 897.666 1299.27 896.833C1305.08 926.329 1332.11 952.787 1363.54 946.065C1365.35 945.688 1367.12 945.187 1368.86 944.577ZM1664.19 479.475C1682.96 460.424 1688.67 432.669 1688.28 406.78C1687.88 380.55 1682.93 352.073 1652.89 347.653C1633.33 366.123 1631.69 392.327 1630.78 417.756C1629.98 439.833 1630.13 488.334 1664.19 479.475ZM1224.61 352.954C1207.86 375.785 1202.47 403.401 1206.91 431.2C1208.55 441.748 1212.16 451.893 1217.55 461.106C1219.04 463.027 1220.13 465.081 1222.33 465.614C1223.92 461.937 1220.12 433.848 1219.13 429.291C1215.78 413.924 1226.83 363.132 1224.61 352.954ZM1774.88 646.63C1778.33 647.431 1779.3 648.247 1782.36 647.284C1789.95 636.029 1799.49 591.393 1797.2 576.3C1796.53 571.937 1793.43 568.697 1788.85 567.893C1774.2 585.796 1768.47 619.943 1763.39 642.775L1774.88 646.63ZM905.547 757.721C912.805 748.079 920.627 737.51 929.184 728.995C913.226 720.172 900.843 711.824 890.391 696.366C887.758 692.471 884.964 686.363 883.052 683.634C866.141 714.509 877.892 745.98 893.745 774.141C897.645 768.706 901.569 763.076 905.547 757.721ZM1335.79 826.192C1346.67 834.396 1354.04 840.916 1356.43 855.303C1357.38 861.065 1356.39 874.096 1353.41 878.732C1342.93 867.78 1355.65 849.705 1326.77 831.409C1324.43 819.39 1320.13 792.478 1309.88 784.715C1306.5 783.943 1308.06 783.772 1305.01 784.967C1298.61 792.568 1302.97 811.833 1303.02 822.342C1303.09 836.762 1302.3 853.019 1303.58 867.234C1305.25 884.731 1313.8 900.848 1327.35 912.034C1335.08 918.478 1344.39 922.959 1354.34 924.537C1386.29 929.591 1407.33 895.84 1421.86 872.599C1426.78 864.345 1464.85 816.631 1454.75 810.14C1439 810.502 1424.46 848.883 1415.84 840.514C1412.89 823.41 1457.33 786.809 1445.04 775.14C1428.83 771.055 1409.37 817.323 1395.83 820.737C1384.61 808.361 1438.56 765.077 1416.97 751.663C1415.07 750.485 1407.57 757.301 1406.44 758.868C1397.14 766.136 1381.04 805.786 1371.99 808.556L1370.09 807.465C1367.59 784.839 1404.61 750.909 1384 738.118C1359.84 768.3 1350.92 790.558 1335.79 826.192ZM641.221 1095.45C649.249 1093.74 657.512 1092.08 665.494 1090.26C670.403 1088.68 674.15 1087.33 678.927 1085.39C681.32 1059.42 684.148 1033.5 687.408 1007.62C689.495 990.574 692.815 972.72 692.982 955.547C693.289 924.178 662.913 804.796 645.394 783.291C644.542 782.245 643.702 781.289 642.65 780.447C652.317 837.639 662.813 877.143 647.188 936.681C643.146 952.088 630.796 975.364 630.353 988.181C629.138 1023.27 638.554 1060.15 641.221 1095.45Z" fill="#2e2e2e"/>
<path d="M617.631 1377.04L617.94 1377.06C620.619 1379.8 616.318 1388.8 622.636 1395.99C625.811 1397.38 624.525 1397.05 628.115 1396.74C631.964 1392.76 631.985 1373.78 634.463 1366.4C635.654 1368.17 635.375 1372 635.426 1374.33C634.124 1388.73 631.661 1403.07 630.431 1417H612.812C613.899 1403.63 615.507 1390.29 617.631 1377.04Z" fill="#5d5d5d"/>
<path d="M244.276 1410.97C248.039 1411.84 249.315 1412.15 252.621 1410.62C260.713 1402.15 250.585 1387.94 254.84 1375.64L256.059 1376.35C256.902 1385.43 258.436 1408.96 260.051 1417H241.876L241.886 1416.26C242.143 1413.64 241.567 1412.42 242.363 1409.52L244.276 1410.97Z" fill="#7e7e7e"/>
<path d="M239.118 1373.95C243.087 1379.12 243.086 1402.6 244.276 1410.97L242.363 1409.52C241.567 1412.42 242.143 1413.64 241.886 1416.27C240.535 1412.52 239.202 1379.57 239.118 1373.95Z" fill="#5d5d5d"/>
<path d="M1409.51 304.253C1449.2 304.093 1517.06 304.711 1548.59 332.349C1582.05 361.673 1584.5 448.804 1547.03 476.883C1516.12 500.043 1465.62 499.27 1428.62 500.109C1387.69 500.171 1318.23 500.296 1284.65 472.472C1269.92 460.263 1263.42 435.755 1262.71 417.275C1261.7 390.877 1268.6 355.697 1287.13 335.988C1316.91 304.33 1369.68 305.706 1409.51 304.253ZM1494.8 434.808C1497.73 431.934 1501.03 428.923 1503.49 425.545C1516.15 408.216 1515.51 378.716 1490.49 373.136C1487.87 372.554 1483.95 372.276 1481.23 372.209C1471.06 382.01 1465.89 391.509 1465.53 405.979C1465.06 424.44 1474.51 437.626 1494.8 434.808ZM1346.46 435.69C1356.98 427.611 1363.73 418.415 1365.35 404.786C1367.59 386.058 1359.87 371.159 1338.88 370.944C1314.09 389.734 1310.95 432.159 1346.46 435.69Z" fill="#2e2e2e"/>
<path d="M1382.63 521.801C1388.98 524.24 1397.8 531.025 1404.16 532.404C1416.18 535.006 1436.03 523.984 1446.37 527.536C1450.31 532.002 1447.37 535.269 1444.27 539.477C1443.25 540.097 1442.22 540.687 1441.18 541.245C1423.44 550.699 1370.87 556.258 1382.63 521.801Z" fill="#2e2e2e"/>
<path d="M977.425 560.534C981.009 560.046 981.403 559.864 984.844 560.633C1000.48 573.06 956.53 630.864 904.715 598.044C890.811 585.067 888.996 579.015 884.262 560.934C921.64 563.231 939.865 564.532 977.425 560.534ZM963.949 583.947C966.879 581.211 969.862 578.581 972.353 575.442C943.888 575.25 930.806 576.775 901.122 573.999C915.583 599.223 941.531 596.802 963.949 583.947Z" fill="#2e2e2e"/>
<path d="M918.11 462.564C928.064 465.095 928.082 472.559 926.138 481.521C923.414 494.1 918.02 506.863 913.379 518.933C921.38 524.517 930.859 525.154 935.429 531.979C936.164 536.056 935.752 535.233 934.058 539.61C929.704 538.639 925.331 538.435 920.824 537.294C887.13 528.744 911.21 484.903 918.11 462.564Z" fill="#2e2e2e"/>
<path d="M874.189 437.312C899.885 442.641 896.193 469.623 879.75 483.007C854.581 477.156 856.975 450.251 874.189 437.312Z" fill="#2e2e2e"/>
<path d="M988.131 438.871C1014.84 440.241 1011.46 468.453 996.598 482.866C969.145 485.605 974.494 453.686 988.131 438.871Z" fill="#2e2e2e"/>
<path d="M985.81 388.216C998.865 387.519 1022.85 389.8 1024.69 408.355C1024.83 409.884 1023.25 410.656 1022.19 411.411C1019.02 411.433 1018.1 410.332 1015.52 408.366L1014.58 407.643C999.573 399.168 986.214 405.368 972.702 397.754C971.573 397.121 971.869 396.403 971.734 394.864C975.291 390.396 980.246 389.756 985.81 388.216Z" fill="#2e2e2e"/>
<path d="M864.793 388.152C870.656 387.6 900.055 387.449 896.453 397.993C889.515 402.987 877.115 400.999 868.801 400.23C861.923 401.175 851.963 408.955 842.9 407.779L842.021 406.619C845.64 397.915 856.808 392.064 864.793 388.152Z" fill="#2e2e2e"/>
<path d="M954.971 236.098C974.512 233.732 1008.7 240.613 1027.18 247.756C1040.06 252.734 1062.79 265.936 1069.76 278.634C1073.13 284.783 1076.94 293.552 1081.67 299.022C1091.66 310.572 1106.47 322.039 1112.31 336.374C1126.22 370.584 1113.12 411.602 1100.44 443.896C1099.48 443.995 1098.52 444.107 1097.55 444.231C1085.21 445.827 1083 448.003 1075.6 457.582C1071.19 434.08 1064.26 413.618 1056.59 391.05C1052.14 377.989 1052.63 364.441 1053.57 350.874C1053.85 341.282 1054.95 330.486 1049.04 322.11C1032.92 299.27 988.356 314.367 965.767 317.207C955.589 318.486 947.328 319.055 937.033 319.127C911.587 319.305 883.991 313.263 862.49 299.345C854.609 294.244 850.354 282.495 843.255 281.206C838.458 285.87 845.183 298.934 843.513 303.437C840.157 305.335 837.261 305.964 833.92 303.182C823.074 294.15 810.943 267.933 818.555 254.608C821.507 249.442 849.629 252.841 855.463 251.701C868.537 250.25 883.936 246.894 897.098 244.436C917.133 240.396 934.82 237.814 954.971 236.098Z" fill="#5d5d5d"/>
<path d="M934.13 801.156C940.043 801.426 946.584 802.063 952.542 802.512C961.001 846.522 966.852 890.992 970.068 935.694C971.188 951.065 972.496 969.349 972.335 984.604C972.147 1002.53 967.828 1022.35 966.771 1040.62C964.647 1077.02 964.925 1116.89 967.264 1153.3C960.651 1165.73 949.729 1179.96 941.244 1191.6L938.896 1194.04L936.827 1193.89C929.802 1189.39 914.149 1167.88 908.227 1160.24C908.728 1129.73 912.052 1098.75 912.25 1067.74C912.42 1040.82 909.096 1015.92 908.54 989.766C908.28 977.362 911.604 946.736 913.11 934.099C917.805 894.579 921.935 838.402 934.13 801.156Z" fill="#7e7e7e"/>
<path d="M1602.11 644.15C1618.96 649.062 1626.39 653.008 1641.06 661.919C1631.47 667.609 1624.4 673.993 1619.53 684.233C1591.58 742.968 1600.31 813.946 1618.59 873.169L1605.15 886.629C1574.78 847.933 1560.97 799.02 1562.51 750.137C1563.38 722.341 1569.89 687.574 1584.81 663.617C1589.6 655.94 1595.63 650.273 1602.11 644.15Z" fill="#7e7e7e"/>
<path d="M143.332 1014.87C163.744 1020.75 183.37 1022.3 204.459 1022.76C201.512 1062.6 195.295 1116.04 214.697 1152.1C213.337 1157.06 212.675 1160.16 207.104 1161.32C158.297 1152.58 140.488 1146.94 139.291 1092.96C138.695 1066.04 140.92 1041.62 143.332 1014.87Z" fill="#7e7e7e"/>
<path d="M335.638 708.484C342.798 710.743 365.184 724.46 372.221 728.831C376.1 741.754 379.097 761.064 380.481 774.411C387.339 835.951 375.225 898.114 345.762 952.571C344.619 954.31 343.42 956.354 341.302 956.631C333.385 957.68 320.32 948.538 313.874 944.612C353.533 873.766 351.287 785.86 335.638 708.484Z" fill="#7e7e7e"/>
<path d="M243.029 835.73C264.951 852.36 261.125 978.653 257.817 1005.77C247.53 1019.65 233.525 1030.57 224.699 1045.33C210.826 1068.51 220.455 1085.66 241.506 1098.21L236.33 1132.67C235.048 1139.53 233.182 1145.84 231.296 1152.56C227.273 1148.31 223.893 1143.5 221.262 1138.28C208.792 1113.38 213.581 1068.72 214.911 1040.83C217.424 988.144 221.208 934.834 231.902 883.115C235.28 866.777 237.774 851.647 243.029 835.73Z" fill="#5d5d5d"/>
<path d="M1735.78 940.213C1737.29 941.45 1737.53 942.032 1737.52 944.174C1736.67 1031.64 1750.43 1091.93 1639.96 1093.58L1639.99 1092.07C1645.16 1085.71 1672.56 1084.34 1676.51 1059C1682.14 1022.79 1681.41 986.487 1681.95 949.893C1705.42 953.675 1715.8 952.796 1735.78 940.213Z" fill="#7e7e7e"/>
<path d="M194.031 785.609C200.44 790.214 226.466 818.804 232.657 825.751C227.293 847.799 222.899 870.071 219.487 892.504C217.145 907.517 214.902 929.001 210.263 942.83L199.615 941.351C186.577 939.317 173.563 937.121 160.575 934.782C164.946 893.144 175.241 821.727 194.031 785.609Z" fill="#7e7e7e"/>
<path d="M307.579 955.412C318.445 962.188 325.985 965.791 337.108 971.518C309.224 1014.35 292.575 1039.73 252.313 1071.86C232.857 1088.29 230.714 1072.98 231.253 1055.69C240.731 1041.86 253.718 1029.8 265.034 1017.37C282.001 998.783 296.319 977.935 307.579 955.412Z" fill="#5d5d5d"/>
<path d="M1308.68 643.521L1309.78 643.367L1310.68 644.362C1309.7 654.209 1294.08 680.511 1289.76 693.602C1280.17 722.642 1271.24 750.703 1263.93 780.484C1262.38 786.81 1255.51 823.051 1253.9 825.689L1252.44 824.447C1238.2 775.58 1245.6 722.24 1266.62 676.107C1276.56 654.312 1287.75 650.716 1308.68 643.521Z" fill="#7e7e7e"/>
<path d="M1525.49 622.744C1527.49 623.908 1530.81 628.955 1530.85 630.977C1531.37 655.148 1480.21 670.167 1466.07 672.371C1432.06 677.666 1399.9 674.781 1372.31 655.429C1371.85 654.697 1371.43 653.95 1371.03 653.191C1365.7 643.091 1367.84 637.769 1370.91 627.463C1385.22 637.87 1399.14 643.741 1416.62 646.851C1454.67 653.482 1493.8 644.818 1525.49 622.744Z" fill="#7e7e7e"/>
<path d="M1641.44 932.611C1655.13 933.454 1659.86 937.675 1671.12 945.06C1671.62 974.96 1673.72 1042.95 1660.39 1067.44C1653.52 1072.39 1647.83 1074.55 1639.93 1077.47C1639.83 1030.97 1639 979.002 1641.44 932.611Z" fill="#5d5d5d"/>
<path d="M148.524 946.119C168.496 949.946 190.239 952.832 210.479 955.817C208.051 974.558 206.751 992.286 203.959 1011.35C183.161 1010.61 159.093 1009.71 140.763 999.51C139.462 979.738 141.731 964.52 148.524 946.119Z" fill="#7e7e7e"/>
<path d="M600.52 739.441C602.151 739.392 605.238 739.38 606.481 740.396C618.642 750.343 628.855 784.219 632.248 798.427C641.876 838.747 643.653 881.957 637.089 922.754C636.199 928.284 633.88 940.302 631.179 944.766C632.131 933.07 634.374 914.92 634.068 903.448C633.036 864.712 624.107 825.578 612.274 788.857C608.586 777.412 595.674 754.332 594.92 744.565C596.572 741.352 597.277 741.594 600.52 739.441Z" fill="#5d5d5d"/>
<path d="M939.335 736.603C953.931 735.955 962.488 752.414 969.539 762.965C966.824 771.12 962.748 786.21 953.564 788.814C945.912 789.46 936.898 789.446 929.121 789.622C925.152 779.971 923.153 771.332 920.842 761.269C924.533 748.36 928.404 743.771 939.335 736.603Z" fill="#7e7e7e"/>
<path d="M1504.76 615.149C1507.24 614.622 1509.56 614.251 1511.57 615.626L1511.11 617.711C1503.62 626.243 1478.29 634.182 1467.19 635.836C1442.88 639.455 1413.68 637.477 1390.63 628.413C1385.21 624.744 1381.36 620.519 1376.83 615.883C1428.01 625.079 1453.42 622.458 1504.76 615.149Z" fill="#7e7e7e"/>
<path d="M820.836 309.697C826.155 310.751 832.251 316.192 836.068 319.81C828.545 331.59 824.426 335.166 820.994 349.864C816.366 369.682 814.008 389.224 811.403 409.372L810.401 410.53L809.186 409.657C794.73 375.795 791.563 336.802 820.836 309.697Z" fill="#5d5d5d"/>
<path d="M904.983 1192.5L916.255 1193.08C933.153 1203.1 936.083 1222.91 952.552 1194.61C963.994 1193.74 970.884 1190.94 971.439 1204.79C973.563 1216.9 973.312 1219.58 960.607 1219.52C941.289 1219.43 922.124 1217.57 902.887 1216.08C903.442 1208.34 904.284 1200.26 904.983 1192.5Z" fill="#7e7e7e"/>
<path d="M1331.91 1375.8C1356.25 1381.48 1378.08 1384.53 1403.05 1382.01C1410.39 1381.27 1429.36 1375.04 1434.86 1377.02C1434.09 1379.57 1430.9 1382.07 1428.82 1384.04C1398.38 1406.11 1359.22 1399.64 1331.91 1375.8Z" fill="#7e7e7e"/>
<path d="M1455.47 1382.69C1493.85 1388.23 1513.14 1387.4 1550.47 1383.07C1547.9 1384.85 1545.13 1386.58 1542.49 1388.29C1519.3 1401.27 1473.56 1407.55 1455.47 1382.69Z" fill="#7e7e7e"/>
<path d="M1698.15 746.025C1708.57 748.493 1722.93 765.723 1742.73 767.914C1754.4 769.206 1775.17 763.794 1778.4 765.834C1778.59 768.447 1778.2 768.039 1776.53 770.814C1775.99 771.082 1775.46 771.35 1774.92 771.618C1760.02 778.696 1742.9 779.494 1727.41 773.835C1712.67 768.349 1704.49 760.02 1698.15 746.025Z" fill="#7e7e7e"/>
<path d="M1618.59 873.168C1623.84 888.834 1632.52 899.602 1636.82 916.765C1624.54 910.321 1613.81 897.486 1605.15 886.627L1618.59 873.168Z" fill="#5d5d5d"/>
<path d="M1719.07 665.337L1721.16 664.049C1737.74 666.886 1752.3 696.778 1742 708.273L1741.13 708.034C1737.78 701.268 1737.73 692.001 1734.8 686.144C1731.23 678.998 1721.31 674.316 1719.07 665.337Z" fill="#2e2e2e"/>
<path d="M214.697 1152.1C221.268 1158.13 224.562 1159.87 232.696 1163.62C224.397 1162.98 215.285 1162.48 207.104 1161.32C212.676 1160.16 213.338 1157.06 214.697 1152.1Z" fill="#5d5d5d"/>
<path d="M518.558 281.793C545.726 278.296 581.395 294.225 603.75 311.045C635.945 335.269 660.169 381.986 663.063 422.441C664.219 434.542 656.723 453.956 658.388 465.224C669.314 539.15 694.097 631.641 617.058 680.246C600.028 690.991 579.584 699.269 562.758 710.65C542.964 724.038 522.942 744.651 508.423 763.825C519.027 796.739 525.646 830.805 528.14 865.295C532.097 920.117 523.946 982.166 522.659 1038.02C522.234 1068.43 522.043 1098.83 522.085 1129.24C522.041 1142.23 524.294 1185.39 513.855 1192.83L512.341 1192.43C507.341 1185.47 508.627 1173.98 509.117 1165.82C511.807 1128.93 508.683 1087.33 510.148 1049.86C512.818 981.61 522.353 911.952 515.24 843.835C514.116 833.068 506.778 783.677 501.66 775.137C472.298 728.977 415.529 707.289 374.313 673.691C271.756 590.092 310.799 440.64 383.705 351.375C419.676 307.332 462.467 287.462 518.558 281.793ZM455.93 417.324C464.517 419.882 475.559 422.109 480.687 429.904L480.667 431.924C473.629 437.351 456.767 430.548 448.592 431.947C440.877 433.266 431.412 444.807 423.196 440.748C422.861 437.564 425.543 433.171 427.075 430.197C417.158 431.834 407.527 434.403 397.78 436.842C388.299 463.758 382.894 480.792 359.438 498.411C351.524 493.192 343.861 488.12 335.736 483.233C331.089 497.482 329.318 510.511 328.459 525.346C326.562 558.137 328.002 565.486 361.998 561.687C367.775 571.083 372.252 584.3 377.881 594.646C384.189 605.335 389.793 614.08 397.563 623.332C472.645 712.719 589.868 687.463 617.594 572.992C622.214 553.918 623.344 535.449 624.392 515.797C627.593 463.713 627.52 405.819 587.336 366.492C583.419 362.658 578.833 357.717 574.441 354.74C566.798 369.581 561.997 376.83 552.371 389.894C541.368 404.828 472.747 435.882 496.811 394.887C480.956 405.684 474.061 409.919 455.93 417.324ZM395.195 642.573C394.539 651.091 393.977 659.943 393.069 668.403C414.089 683.89 435.746 697.296 456.875 712.368C471.754 722.981 485.776 736.881 500.609 748.067L505.464 743.026C508.061 740.433 510.548 738.125 512.743 735.178C511.04 722.571 508.652 707.866 509.111 695.371C458.625 690.234 431.184 679.086 395.195 642.573Z" fill="#2e2e2e"/>
<path d="M463.207 577.631C479.614 579.975 491.975 582.735 509.087 584.033C520.185 584.874 547.286 584.965 556.238 586.673C563.751 596.05 549.982 610.68 543.853 617.634C506.354 649.043 448.616 610.795 463.207 577.631ZM534.337 609.571C537.819 605.449 541.27 601.3 544.689 597.126C517.081 597.059 501.409 597.466 474.286 590.127C479.686 601.939 486.223 611.633 499.089 616.316C507.913 619.472 517.624 619.017 526.115 615.049C528.476 613.931 532.43 611.297 534.337 609.571Z" fill="#2e2e2e"/>
<path d="M451.998 465.348C479.91 471.874 475.83 504.247 457.532 519.152C427.995 517.915 437.736 480.279 451.998 465.348Z" fill="#2e2e2e"/>
<path d="M573.057 468.643C601.786 469.244 596.576 501.65 582.301 517.504C581.834 517.717 581.372 517.963 580.843 517.993C569.468 518.624 564.095 515.175 562.628 503.341C560.964 489.915 565.239 479.195 573.057 468.643Z" fill="#2e2e2e"/>
<path d="M535.456 512.549C551.526 520.38 561.454 544.777 544.593 557.498C541.557 559.789 538.297 561.219 534.812 562.689C530.27 561.632 527.18 561.596 524.919 557.107L525.75 554.757C531.065 549.431 536.652 548.115 543.68 545.768C538.291 533.431 533.676 526.021 535.456 512.549Z" fill="#2e2e2e"/>
<path d="M576.862 421.403C582.087 420.872 586.843 420.605 592.011 421.796C599.466 423.515 611.312 430.772 608.49 439.601L606.538 440.581C603.044 440.347 601.217 438.51 598.283 436.418C589.818 432.173 562.878 438.08 563.088 429.835C566.729 424.911 571.247 423.667 576.862 421.403Z" fill="#2e2e2e"/>
<path d="M521.579 296.133C525.656 295.904 529.997 296.251 534.185 296.541C554.128 297.922 568.06 298.454 567.584 322.361C566.78 362.809 543.866 384.37 509.048 401.419C513.074 383.528 521.072 367.042 525.327 347.442C502.92 375.062 479.935 391.229 447.947 406.848C413.876 422.147 389.295 425.947 352.941 427.087C361.196 405.068 378.55 377.776 394.277 360.319C432.261 318.157 465.689 299.904 521.579 296.133Z" fill="#5d5d5d"/>
<path d="M645.645 482.014C648.493 485.241 649.496 493.714 650.4 498.107C666.068 574.239 669.268 667.752 570.255 684.465C564.299 684.428 561.796 683.757 556.036 682.253C566.535 674.076 572.13 673.063 584.223 661.629C619.58 628.2 636.623 581.817 636.598 533.627C636.588 514.556 635.77 498.711 645.645 482.014Z" fill="#5d5d5d"/>
<path d="M579.669 313.188C601.228 323.67 621.984 345.22 633.03 366.221C649.194 396.95 652.823 424.844 643.456 457.794C642.752 459.938 642.845 460.215 641.203 461.82C638.022 457.521 636.081 432.058 634.565 424.409C633.293 418.198 631.583 412.085 629.447 406.116C619.299 378.076 600.155 359.713 579.688 339.398L579.669 313.188Z" fill="#5d5d5d"/>
<path d="M331.383 574.424C340.44 577.82 347.042 577.92 356.605 578.671C363.865 598.697 379.919 622.164 382.972 642.985C383.386 645.814 381.553 654.43 380.914 657.653C380.058 658.356 379.868 658.199 378.621 658.495C354.321 649.646 336.185 598.895 331.383 574.424Z" fill="#5d5d5d"/>
<path d="M347.173 438.252C359.272 439.291 371.512 439.667 383.654 440.152C378.878 454.405 374.728 460.444 366.831 473.025C364.829 475.774 363.047 477.594 360.743 480.054C352.43 477.51 344.417 474.075 336.842 469.808C340.57 459.874 343.936 448.46 347.173 438.252Z" fill="#5d5d5d"/>
<path d="M369.375 129.566C372.624 132.283 375.041 151.659 375.545 156.515C379.154 191.304 383.868 235.126 370.595 268.311L368.723 270.127L367.353 268.708C365.495 262.351 369.454 234.476 370.103 225.166C372.238 194.514 365.994 159.223 369.375 129.566Z" fill="#2e2e2e"/>
<path d="M462.939 1279.94C473.36 1274.48 511.939 1258.03 522.778 1259.64L523.484 1260.41C519.354 1272.81 488.769 1284.83 476.691 1289.6C475.338 1318.19 473.181 1357.47 468.659 1385.24C465.394 1387.86 462.138 1390.95 458.286 1392.29C454.9 1391.54 456.357 1392.32 453.849 1389.71C453.281 1387.09 453.168 1386.58 452.074 1384.12L451.82 1383.55C452.991 1364.55 458.151 1293.67 462.939 1279.94Z" fill="#2e2e2e"/>
<path d="M937.91 1348.2C929.13 1344.64 914.247 1338.98 908.575 1331.53L908.253 1329.42C916.406 1322.78 942.91 1334.5 950.813 1339.93C958.841 1356.4 963.366 1398.61 963.133 1417H933C934.004 1392.39 934.64 1372.52 937.91 1348.2Z" fill="#2e2e2e"/>
<path d="M451.82 1383.55L452.074 1384.12C453.168 1386.58 453.281 1387.09 453.849 1389.71C456.356 1392.32 454.9 1391.54 458.286 1392.29C462.137 1390.95 465.393 1387.86 468.659 1385.24C467.952 1395.52 466.244 1407.45 465.759 1417H447.831C449.58 1407.84 450.267 1393.91 451.82 1383.55Z" fill="#5d5d5d"/>
</g>
<defs>
<clipPath id="clip0_15479_17979">
<rect width="1835" height="1417" fill="#ffffff"/>
</clipPath>
</defs>
</svg>
