<svg width="832" height="777" viewBox="0 0 832 777" fill="none" xmlns="http://www.w3.org/2000/svg">
<g clip-path="url(#clip0_6_3)">
<path d="M0 0H832V777H0V0Z" fill="none"/>
<path d="M354.204 17.816C357.467 14.705 362.923 10.283 367.715 11.732C371.348 15.285 380.546 38.769 383.968 45.672C386.104 40.31 394.069 14.977 397.508 12.954C398.907 12.132 400.921 12.71 402.375 13.161C404.885 13.94 408.954 15.739 410.065 18.242C411.673 21.862 396.656 60.112 394.218 66.906C427.883 73.359 463.868 82.016 497.638 89.173C549.132 99.784 600.711 109.983 652.367 119.767C655.415 114.073 666.746 85.391 670.117 83.357C671.226 82.687 672.463 82.755 673.695 83.04C676.285 83.644 681.003 85.738 682.216 88.174C684.111 91.973 669.263 120.908 667.203 126.597C680.832 154.441 693.242 183.29 706.694 211.304C745.966 293.09 789.717 372.306 832 452.487V462.572V574.149V579.408V584.259V617.104V622.594V630.01C813.818 634.904 797.111 638.487 778.813 642.381C763.746 645.592 750.153 650.242 734.348 651.997C734.629 661.009 738.292 679.65 734.178 687.103C734.69 690.247 735.189 693.264 735.525 696.432C741.218 698.443 751.622 701.837 754.444 707.499C755.036 708.687 755.182 710.034 754.737 711.301C753.579 714.586 749.117 716.67 746.118 717.901C713.557 731.24 630.888 728.065 598.265 714.08C595.05 712.697 591.57 711.301 589.709 708.175C588.993 702.526 595.26 700.424 599.828 699.973C604.82 689.473 619.88 683.916 629.76 678.511C629.571 675.878 629.614 673.386 628.596 670.991C623.945 667.469 622.586 676.006 612.224 673.441L611.578 673.276C605.4 674.117 594.424 674.818 588.382 673.867C585.912 673.477 585.178 672.636 583.836 670.644C561.871 677.176 539.855 683.501 518 690.418C511.427 692.502 508.045 692.398 501.305 691.557C503.258 703.867 504.835 715.11 504.828 727.693C505.116 732.946 508.789 746.35 505.468 750.87C498.944 759.45 481.576 762.36 471.741 764.15C462.28 765.88 435.77 766.59 434.924 753.66C434.135 741.62 448.686 728.674 458.026 723.196C454.228 712.532 450.772 701.746 447.664 690.857C439.074 688.492 430.278 686.957 421.396 686.268C421.37 688.559 421.442 691.521 421.125 693.733C421.204 701.222 420.68 708.376 420.015 715.676C418.986 726.968 424.888 735.28 412.653 741.29C394.353 750.3 316.414 758.67 356.116 718.339C361.167 713.208 368.716 710.119 375.342 707.627C373.5 699.839 371.761 687.408 370.393 679.236C366.062 678.559 364.149 677.012 358.883 677.085C358.905 683.02 360.402 708.01 357.582 711.082C355.76 713.068 352.841 713.33 350.303 713.294C348.131 713.263 346.104 712.928 344.543 711.277C341.282 707.834 343.13 674.812 342.925 667.907C305.908 662.082 266.91 656.725 230.204 650.144C228.731 656.987 227.098 665.287 225.228 671.923C222.798 680.54 220.58 684.592 219.41 693.739C229.19 696.445 239.7 701.265 244.905 710.484C245.271 711.124 245.61 711.782 245.917 712.453C245.913 713.111 245.933 715.25 245.799 715.798C242.161 730.551 207.683 726.682 198.592 725.695C197.849 728.437 196.982 732.538 194.85 734.457C191.167 737.772 186.176 738.827 182.906 734.317C180.162 730.533 181.287 727.443 182.051 723.202C173.521 719.205 172.898 715.884 173.54 707.042C162.24 707.407 150.983 707.602 139.687 708.053C130.326 708.431 120.28 709.918 111.118 710.29C125.1 719.954 133.92 735.268 110.559 739.247C96.6499 741.61 53.3363 738.881 55.928 717.968C57.931 709.29 62.2935 699.869 64.3762 690.527C65.4532 685.695 65.9628 677.755 67.0441 674.678C76.4149 648.011 82.9198 644.428 83.7652 615.538C78.1679 615.989 63.8106 616.61 59.7752 619.413C57.7332 623.246 61.406 625.58 56.79 630.797C44.9616 644.166 27.1049 599.676 45.6014 604.021C51.0621 605.306 54.0064 612.04 56.3702 616.354C65.3874 603.235 73.0266 589.847 81.1223 576.178L80.2372 568.323C38.1595 563.765 40.6633 553.089 44.5313 515.716C45.6958 504.461 39.2909 499.763 50.21 489.738C52.821 475.18 55.8938 453.743 61.4151 440.397C66.4748 428.161 79.2553 423.755 90.7241 419.703C84.6563 413.993 79.9916 406.955 77.0945 399.137C67.291 372.373 73.2009 343.059 84.7727 317.927C71.7514 299.343 60.253 262.493 70.3002 240.343C73.4776 233.338 82.0877 231.453 88.428 235.984C104.921 247.768 110.09 271.479 114.286 290.073C123.762 285.043 129.214 283.901 139.595 282.556C139.482 276.453 139.658 270.348 140.119 264.261C141.112 251.901 143.89 231.77 153.23 223.473C163.627 215.764 170.591 227.428 173.168 235.535C178.845 253.395 177.648 269.852 174.439 288.133C205.616 303.554 208.004 322.324 213.01 352.787C215.424 367.48 218.443 375.962 218.722 391.623C222.446 386.309 228.559 374.463 231.737 368.418L251.087 331.697C272.003 292.738 292.267 253.433 311.872 213.798C322.17 192.879 332.641 170.977 341.719 149.509C345.024 139.953 341.119 127.267 344.072 117.811C345.2 114.198 355.818 109.728 358.676 117.313L359.249 117.059C362.137 111.072 364.567 103.376 366.81 97.016C369.964 88.14 373.18 79.288 376.46 70.459C371.07 56.45 357.756 31.278 354.204 17.816Z" fill="#333334"/>
<path d="M395.373 72.197C404.266 73.88 413.51 76.426 422.463 78.327C455.597 85.617 488.78 92.68 522.01 99.516L602.326 115.419C622.793 119.301 642.219 122.441 662.559 127.25C670.952 145.032 678.906 163.412 687.287 181.327C701.751 211.722 716.52 241.971 731.587 272.07C756.066 320.087 780.965 367.888 806.278 415.474C814.702 431.245 823.601 446.656 832 462.573V574.149C799.384 582.93 763.837 591.035 730.801 599.012C730.234 592.863 730.38 584.935 730.13 578.555C729.265 556.24 729.832 533.9 728.991 511.578C733.556 509.19 735.921 507.715 739.468 504.01C739.791 496.18 737.213 484.224 735.866 476.21C733.318 461.037 729.862 445.126 729.911 429.691C729.935 421.495 729.277 406.327 730.411 398.899C733.068 381.568 739.511 366.121 734.482 348.025C729.24 329.185 709.614 326.2 694.796 318.537C691.023 316.585 689.493 312.393 682.411 308.491C683.008 304.891 683.66 301.696 684.453 298.133C698.886 293.923 704.415 280.862 697.131 267.657C698.295 264.102 699.203 260.915 700.069 257.259C702.879 245.416 700.824 225.065 686.062 222.23C673.103 198.757 649.179 207.473 628.407 211.111C616.991 213.109 600.001 208.543 607.709 228.843C605.028 233.664 602.651 239.372 603.012 245.02C603.249 251.575 608.492 258.251 608.569 264.764C608.827 286.494 606.879 315.24 631.016 325.89C611.682 331.977 603.093 345.681 591.631 360.667C588.767 350.521 585.186 339.893 574.307 335.214C568.244 332.607 563.231 334.889 557.6 337.373C553.641 332.008 546.147 323.908 541.535 318.422C529.815 304.485 519.534 291.167 509.043 276.203C482.444 237.958 458.385 198.009 437.021 156.613C422.592 128.909 409.165 100.32 395.373 72.197Z" fill="#FBFBFA"/>
<path d="M488.906 212.789C491.381 215.493 500.366 234.268 502.788 239.013C516.946 266.744 533.725 292.08 551.829 317.374C555.059 321.887 562.182 329.299 564.475 333.551L562.597 333.815C547.903 324.136 488.805 228.966 488.906 212.789Z" fill="#C0C0BF"/>
<path d="M731.417 609.267C740.23 606.97 748.977 604.435 757.76 602.132C763.209 600.706 769.359 599.755 774.93 598.439C793.984 593.826 813.007 589.103 832 584.259V617.104C808.783 623.929 784.914 628.865 761.472 634.843C752.079 637.238 742.949 639.645 733.428 641.558C732.654 630.803 731.983 620.041 731.417 609.267Z" fill="#949493"/>
<path d="M142.957 641.247C156.966 649.504 167.881 645.958 177.109 649.638C176.281 655.543 174.581 665.653 174.627 671.424C174.683 678.322 176.105 686.201 175.799 693.306C175.588 698.2 173.896 702.471 173.54 707.042C162.239 707.407 150.983 707.602 139.687 708.053C130.326 708.431 120.28 709.918 111.117 710.29L105.785 706.938C110.163 697.986 113.788 694.738 119.276 686.56C129.726 670.985 137.483 658.992 142.957 641.247Z" fill="#FBFBFA"/>
<path d="M672.981 660.54C677.394 660.059 682.313 658.81 686.689 657.822C687.762 666.457 689.036 678.809 690.95 687.548C690.377 691.57 685.025 694.598 682.02 696.786C675.456 701.557 664.18 709.528 671.89 718.449C674.706 721.703 681.703 722.52 685.818 722.514C694.784 722.507 704.274 721.63 712.862 718.87C714.825 718.224 719.079 714.963 721.268 714.421C725.632 713.343 729.911 714.671 733.312 711.082C736.695 707.499 735.756 701.167 735.524 696.432C741.217 698.443 751.622 701.837 754.444 707.499C755.035 708.687 755.181 710.034 754.737 711.301C753.578 714.586 749.117 716.67 746.118 717.901C713.557 731.24 630.887 728.065 598.264 714.08C595.049 712.697 591.569 711.301 589.709 708.175C588.993 702.526 595.26 700.424 599.828 699.973C599.137 709.254 607.752 710.753 614.954 711.265C627.706 712.173 639.604 711.051 651.319 705.61C653.885 706.499 655.439 706.463 657.999 706.493C674.145 706.725 671.073 694.3 671.878 683.434C672.475 675.378 673.066 668.736 672.981 660.54Z" fill="#E1E0E0"/>
<path d="M734.348 651.997C734.263 650.68 734.238 649.267 734.196 647.938C734.44 647.542 734.683 647.146 734.921 646.75C760.058 640.071 809.576 628.255 832 622.594V630.01C813.818 634.904 797.111 638.487 778.813 642.381C763.745 645.592 750.153 650.242 734.348 651.997Z" fill="#E1E0E0"/>
<path d="M731.105 603.996C746.533 599.456 763.465 595.952 779.179 592.126C796.702 587.86 814.427 583.357 832 579.408V584.259C813.007 589.103 793.984 593.826 774.93 598.439C769.359 599.755 763.209 600.706 757.76 602.132C748.977 604.435 740.23 606.97 731.416 609.267L731.105 603.996Z" fill="#777777"/>
<path d="M152.658 632.247C152.724 633.49 152.772 636.781 153.658 637.25C158.474 639.803 172.808 641.168 178.056 641.887L177.109 649.638C167.881 645.958 156.966 649.504 142.957 641.247L145.235 632.052C147.539 632.954 149.505 634.032 151.884 633.764L152.658 632.247Z" fill="#E1E0E0"/>
<path d="M420.195 678.742C428.37 680.308 437.262 681.466 445.63 682.983C446.192 685.573 446.971 688.285 447.664 690.857C439.073 688.492 430.277 686.957 421.395 686.268C421.37 688.559 421.442 691.521 421.125 693.733C420.542 691.064 420.328 681.954 420.195 678.742Z" fill="#E1E0E0"/>
<path d="M607.354 663.77C608.13 668.505 608.113 669.986 611.578 673.276C605.4 674.117 594.424 674.818 588.382 673.867C585.911 673.477 585.178 672.636 583.836 670.644C591.598 668.499 599.737 665.696 607.354 663.77Z" fill="#E1E0E0"/>
<path d="M150.905 603.746C151.36 613.253 151.945 622.753 152.658 632.247L151.884 633.764C149.505 634.032 147.539 632.954 145.235 632.052C147.134 623.643 148.908 611.175 150.905 603.746Z" fill="#FBFBFA"/>
<path d="M358.778 670.479L369.393 671.899L370.392 679.236C366.062 678.559 364.149 677.012 358.883 677.085L358.778 670.479Z" fill="#E1E0E0"/>
<path d="M514.272 347.31C517.6 349.54 531.446 365.639 536.117 369.856C552.263 384.457 566.688 393.287 585.422 403.871C586.385 412.135 589.134 421.878 595.669 427.369C591.679 450.86 589.266 477.862 587.033 501.676C584.959 523.796 582.742 547.397 581.519 569.506C564.847 568.043 547.071 565.886 530.429 564.003C517.817 563.327 501.284 561.09 488.69 559.359C493.97 539.098 491.545 527.178 485.024 507.764C490.965 498.154 493.116 478.538 493.476 467.259C493.897 454.096 493.054 456.759 497.552 444.7C499.886 438.356 499.585 431.348 496.717 425.23C490.281 411.422 472.417 406.614 459.062 401.598C476.599 394.676 484.107 388.771 495.453 373.628C508.314 368.79 511.29 359.954 514.272 347.31Z" fill="#949493"/>
<path d="M342.206 243.814C343.758 245.478 343.069 350.862 343.074 362.617C325.777 369.009 329.573 375.694 325.319 389.996C318.939 411.44 304.475 455.059 330.959 468.94C330.664 481.03 331.208 490.104 343.177 495.296C343.014 523.205 343.362 551.462 342.982 579.286C332.782 580.627 320.383 583.162 310.106 584.953L247.501 595.739C242.599 596.702 237.47 597.427 232.523 598.201C240.48 569.043 248.69 539.945 257.153 510.926C258.361 510.494 261.258 509.525 262.068 508.599C267.58 502.322 271.727 490.616 272.31 482.414C272.735 476.43 271.17 474.181 267.655 470.281C269.728 464.693 270.613 458.928 272.844 453.042C286.995 447.941 290.836 431.159 290.408 417.07C290.313 413.981 286.913 411.806 284.499 410.099C295.415 379.685 302.968 344.327 313.537 313.462C321.262 290.902 334.66 266.204 342.206 243.814Z" fill="#C0C0BF"/>
<path d="M134.861 512.017C147.758 519.202 162.133 523.339 176.879 524.095L179.515 524.022C186.666 524.296 191.719 523.595 198.695 522.407C198.446 531.121 199.005 553.546 192.828 559.043C189.037 562.412 178.952 567.933 173.575 568.506L173.2 569.347C177.397 571.9 188.413 565.654 192.546 563.375C199.548 571.901 210.512 588.756 215.991 598.42L203.221 644.611C199.752 657.64 196.738 670.759 192.958 683.666C192.548 684.751 191.637 686.95 191.357 687.968C190.989 690.448 190.119 692.727 189.326 695.116C180.983 692.971 179.745 692.77 180.616 684.05C180.672 683.642 180.534 680.668 180.515 680.107C175.906 669.181 187.681 640.766 180.682 630.455C173.414 619.755 160.434 609.133 151.824 598.81C159.042 595.721 163.683 593.862 170.011 589.048L169.94 587.525C166.434 587.604 148.107 593.868 147.162 596.416C143.563 606.117 143.559 618.585 140.711 628.81C136.252 650.772 128.038 663.995 115.895 682.325C113.182 686.42 107.784 695.512 103.501 697.413L102.031 699.546C102.171 700.18 102.151 700.485 102.474 700.978C102.477 702.703 101.721 704.287 100.081 705.079C91.9654 709.004 73.8937 707.438 68.8224 699.01C67.3236 696.518 68.617 693.678 69.474 691.106C70.1122 690.308 70.562 688.498 70.9082 687.414C68.553 671.978 86.1012 649.382 87.9621 632.722C89.7693 616.543 88.3394 597.586 86.8619 581.334C85.4502 565.801 83.4534 560.292 85.5228 544.448C106.87 540.201 121.738 528.732 134.861 512.017Z" fill="#FBFBFA"/>
<path d="M70.9082 687.414C79.7878 694.982 91.3663 698.614 102.978 697.468L103.501 697.413L102.031 699.546C102.171 700.18 102.151 700.485 102.474 700.978C102.477 702.703 101.721 704.287 100.081 705.079C91.9654 709.004 73.8937 707.438 68.8224 699.01C67.3236 696.518 68.617 693.678 69.474 691.106C70.1122 690.308 70.562 688.498 70.9082 687.414Z" fill="#FBFBFA"/>
<path d="M70.9083 687.414C79.7879 694.982 91.3664 698.614 102.978 697.468L103.501 697.413L102.031 699.546C102.171 700.18 102.151 700.485 102.474 700.978C101.391 701.07 100.306 701.143 99.2213 701.204C87.769 701.819 78.0373 698.754 69.4741 691.106C70.1123 690.308 70.5621 688.498 70.9083 687.414Z" fill="#646364"/>
<path d="M176.879 524.095L179.515 524.022C178.711 534.211 175.847 564.082 167.632 570.481L166.758 570.359C166.735 569.103 170.254 559.445 170.892 557.19C173.976 546.276 174.323 535.045 176.879 524.095Z" fill="#4B4A4B"/>
<path d="M180.617 684.05C184.643 686.548 186.603 687.42 191.357 687.968C190.99 690.448 190.119 692.727 189.326 695.116C180.984 692.971 179.746 692.77 180.617 684.05Z" fill="#FBFBFA"/>
<path d="M180.515 680.107C185.281 683.014 187.324 683.136 192.958 683.666C192.548 684.751 191.637 686.95 191.357 687.968C186.603 687.42 184.642 686.548 180.616 684.05C180.673 683.642 180.534 680.668 180.515 680.107Z" fill="#777777"/>
<path d="M95.1333 562.132C99.2506 562.784 104.152 566.032 108.315 567.287C120.058 570.828 132.262 572.918 144.549 572.833C147.057 572.815 153.483 571.894 155.354 572.815L155.291 574.033C141.098 576.983 121.449 574.271 107.947 569.268C104.814 568.11 96.5328 565.027 95.1333 562.132Z" fill="#262626"/>
<path d="M644.474 486.838C650.21 487.526 654.653 487.721 660.444 487.904C664.625 516.484 671.604 523.285 701.135 519.257C709.248 518.154 716.026 516.173 723.822 513.681C724.633 555.191 724.553 596.068 728.351 637.524C729.679 652.076 730.88 668.425 730.825 682.971C729.765 683.562 728.68 684.111 727.577 684.61C717.83 688.974 705.061 688.602 695.101 684.805C691.889 665.525 690.213 644.605 687.019 625.001C682.612 597.97 678.15 571.413 672.908 544.509C671.604 537.093 670.568 529.263 668.124 522.157C666.801 518.318 657.957 513.614 654.397 515.186L654.501 516.441C656.634 519.33 660.267 520.987 663.449 522.773C669.221 545.594 668.953 555.892 667.606 578.817C665.704 611.333 669.983 644.946 667.648 677.578C656.61 682.307 644.852 680.387 634.179 675.817C632.692 647.554 630.425 619.34 627.377 591.205C632.418 589.347 642.853 585.782 642.554 579.018C641.579 557.117 637.58 535.344 635.289 513.547C635.715 513.248 636.142 512.937 636.556 512.614C642.901 507.715 643.45 494.735 644.474 486.838Z" fill="#FBFBFA"/>
<path d="M430.5 270.992C465.568 268.34 488.312 286.414 501.015 317.606C499.093 317.566 494.844 317.447 493.178 318.152C478.146 324.521 473.379 348.042 478.227 362.117C480.336 368.241 484.181 371.355 489.767 373.884C480.089 387.083 466.519 394.481 450.965 398.588C431.208 402.939 406.301 400.581 390.093 387.747C361.209 364.884 363.243 323.156 384.586 296.058C396.473 280.967 411.654 273.19 430.5 270.992Z" fill="#FBFBFA"/>
<path d="M396.223 306.842C409.82 305.868 440.227 307.195 452.631 314.063C458.381 317.544 462.593 324.169 463.76 330.684C467.261 350.216 461.299 365.213 441.146 369.612C426.339 371.69 394.489 369.411 381.272 361.471C367.598 353.251 370.091 328.87 378.109 317.486C382.808 310.815 388.214 308.348 396.223 306.842Z" fill="#333334"/>
<path d="M433.677 330.876C444.202 330.245 442.707 345.293 436.433 351.215C424.563 351.27 427.182 337.153 433.677 330.876Z" fill="#FBFBFA"/>
<path d="M391.96 328C402.591 327.946 399.226 343.023 393.599 348.401C389.074 347.779 387.458 345.813 387.185 341.027C386.929 336.215 388.654 331.508 391.96 328Z" fill="#FBFBFA"/>
<path d="M404.275 375.304C406.896 376.188 409.741 377.668 413.023 378.759C415.812 378.265 419.986 376.242 422.206 377.985L421.887 380.021C416.092 384.804 403.537 384.365 404.275 375.304Z" fill="#262626"/>
<path d="M77.8931 238.887C100.865 237.46 108.066 287.357 110.934 303.01C111.118 304.015 112.074 304.129 112.811 304.315C115.031 302.585 114.845 297.872 114.817 295.329C119.497 293.359 126.254 290.027 131.055 289.098C153.684 284.722 181.761 291.647 195.771 311.038C202.768 320.722 204.27 332.192 206.517 343.607C208.254 352.672 210.159 361.709 212.228 370.703C208.352 365.237 201.219 352.001 201.449 345.412C202.087 327.154 200.739 316.449 184.997 305.46C162.424 289.703 140.798 301.662 127.017 322.248C115.148 340.322 110.197 364.999 114.761 386.449C122.344 417.473 138.391 421.555 162.908 436.107C173.712 442.524 175.351 462.335 177.041 473.864C169.138 471.287 162.399 467.137 156.084 461.786C154.58 454.169 151.005 447.539 147.214 440.897C149.71 441.677 155.566 443.761 157.839 442.938C149.548 434.48 108.906 429.014 96.6859 417.808C84.7856 406.894 79.81 397.138 78.0577 380.91C76.3528 364.536 78.4008 347.983 84.0474 332.514C85.0775 329.637 86.2295 325.931 88.0947 323.615C89.9245 324.492 90.2987 324.698 92.2913 325.001L93.2324 324.264C93.5822 319.995 86.1905 312.095 84.1559 307.753C82.2682 303.725 80.7048 300.236 79.0646 296.043C74.801 285.345 72.3476 274.013 71.8052 262.51C71.3328 253.648 71.7789 245.656 77.8931 238.887Z" fill="#FBFBFA"/>
<path d="M87.4213 259.566C99.8983 262.209 106.415 299.162 104.968 310.443C104.666 312.791 103.304 315.078 102.049 317.045C90.4336 306.281 76.3847 273.663 87.4213 259.566Z" fill="#E1E0E0"/>
<path d="M390.112 104.127C392.241 108.014 401.663 137.626 403.17 143.643C403.631 145.485 403.744 158.561 403.773 161.363L404.012 190.965L404.729 273.315C403.611 273.807 402.506 274.328 401.415 274.877C385.386 282.914 372.857 301.905 367.35 318.604C355.416 354.792 370.913 390.179 408.302 402.409C401.615 406.339 399.301 407.899 392.139 410.276C384.386 412.689 367.963 420.745 358.942 424.255L358.89 403.36C361.952 399.21 362.396 396.65 363.599 391.672C366.59 389.417 368.6 387.753 369.691 383.975C370.896 379.899 370.361 375.505 368.211 371.837C365.888 367.833 363.324 365.907 358.958 364.75C357.993 331.961 358.938 296.544 358.849 263.382L358.772 227.055C358.77 222.539 358.352 208.232 359.523 204.73C370.72 171.23 381.725 138.569 390.112 104.127Z" fill="#C0C0BF"/>
<path d="M390.147 90.514C392.999 88.431 394.763 87.001 397.377 84.627C401.82 92.211 408.745 108.892 412.857 117.452C423.006 138.652 433.644 159.613 444.765 180.32C475.305 237.769 512.631 295.347 556.767 343.435C561.976 349.111 569.256 353.507 574.14 358.449C582.777 367.199 592.222 376.261 600.662 385.03C596.424 385.547 595.724 385.889 591.958 387.662C583.428 380.788 573.703 373.963 564.6 367.79L564.228 371.002C572.111 377.54 580.092 383.957 588.171 390.252C586.255 393.354 585.596 394.639 584.178 397.997C559.804 383.293 547.369 374.481 527.179 354.012C503.424 329.922 507.587 299.378 480.023 279.78C474.959 276.179 468.001 272.766 464.748 267.423C457.056 254.785 450.62 241.4 444.283 228.048C431.528 201.296 420.006 173.974 409.752 146.169C402.988 127.942 396.963 108.974 390.147 90.514Z" fill="#FBFBFA"/>
<path d="M520.359 326.517C524.646 330.213 530.969 337.064 535.233 341.25C544.637 350.515 554.435 359.369 564.6 367.79L564.228 371.002C556.511 368.875 524.341 335.398 520.359 326.517Z" fill="#BEBDBE"/>
<path d="M488.128 564.972C515.105 565.947 553.929 570.877 581.306 574.228C580.907 584.545 579.687 599.67 580.815 609.791C581.592 616.769 593.56 618.231 600.77 622.759L601.345 623.131C592.79 625.769 584.186 628.243 575.535 630.553C561.383 634.337 547.361 638.865 533.187 642.521C527.732 643.935 514.548 648.59 509.551 648.645C504.516 648.7 492.716 646.762 487.186 645.958C485.211 643.904 483.473 641.351 481.788 639.023C491.099 624.398 489.767 582.504 488.128 564.972Z" fill="#777777"/>
<path d="M342.31 161.583C342.218 166.2 334.44 188.173 332.627 193.93L319.254 237.816L300.712 299.844C297.136 312.025 294.119 324.803 289.606 336.656C282.689 354.823 250.054 419.88 238.32 432.713C235.139 436.193 230.861 438.076 226.64 439.977C220.981 439.185 214.287 436.619 208.897 434.651L202.123 432.311C204.785 426.833 209.103 419.996 212.223 414.529C217.419 405.236 222.552 395.907 227.624 386.541C246.79 351.081 265.629 315.448 284.138 279.643C297.529 253.699 310.589 227.586 323.315 201.31C328.154 191.312 337.209 170.127 342.31 161.583Z" fill="#FBFBFA"/>
<path d="M88.3022 526.216C88.3608 520.195 89.4853 509.909 90.2948 503.76C92.3745 487.953 91.8497 456.966 103.431 445.327C118.616 430.592 140.244 455.808 151.641 465.15C173.249 482.871 188.401 480.976 215.049 481.116C219.027 480.957 223.507 480.598 227.397 481.232C229.191 488.306 228.995 501.152 228.52 508.532C225.548 509.641 222.563 510.798 219.523 511.694C218.411 511.92 217.416 512.029 216.439 512.59C190.456 524.351 154.108 519.269 130.901 503.931C123.265 498.885 113.791 491.865 105.867 487.825L105.126 487.453C109.302 495.332 112.02 496.862 119.155 502.231C111.747 513.821 100.9 521.243 88.3022 526.216Z" fill="#FBFBFA"/>
<path d="M215.049 481.116C219.028 480.957 223.507 480.598 227.397 481.232C229.191 488.306 228.995 501.152 228.52 508.532C225.548 509.641 222.563 510.798 219.523 511.694C218.411 511.92 217.417 512.029 216.439 512.59L215.049 481.116Z" fill="#FBFBFA"/>
<path d="M215.049 481.116C219.028 480.957 223.507 480.598 227.397 481.232C224.061 481.518 222.038 481.609 218.701 481.518C219.16 491.816 219.543 501.39 219.523 511.694C218.411 511.92 217.417 512.029 216.439 512.59L215.049 481.116Z" fill="#5C5C5C"/>
<path d="M609.542 426.309C611.998 427.802 614.571 429.264 617.051 430.72C618.789 448.21 624.03 467.137 626.383 484.681C630.626 516.24 636.16 548.976 637.739 580.779C627.706 586.519 619.587 589.451 610.328 597.123C604.297 602.113 592.76 606.111 585.181 608.195C585.029 563.528 590.666 517.989 594.606 473.541C595.902 458.91 597.128 443.377 599.686 428.941C601.512 428.21 603.807 427.448 605.693 426.772C605.989 434.096 607.61 446.211 608.421 453.858C609.096 458.197 609.749 462.542 610.377 466.887L611.889 464.577C612.291 457.423 610.475 433.353 609.542 426.309Z" fill="#FBFBFA"/>
<path d="M608.421 453.858C609.096 458.197 609.75 462.542 610.377 466.887L611.889 464.577L612.224 470.184C612.706 475.686 612.559 484.547 612.712 490.409C613.242 508.915 613.358 527.428 613.059 545.935C612.249 542.98 612.901 540.231 611.938 537.099L611.261 537.209C610.658 535.886 609.841 513.979 609.957 510.817C610.591 493.517 606.029 470.409 608.421 453.858Z" fill="#B1B0B0"/>
<path d="M611.889 464.577L612.224 470.184L611.742 472.31L611.297 472.152L610.377 466.887L611.889 464.577Z" fill="#262626"/>
<path d="M611.261 537.209L611.937 537.099C612.9 540.231 612.248 542.98 613.059 545.935C613.272 548.842 613.272 552.992 612.9 555.843C611.462 553.12 611.346 540.64 611.261 537.209Z" fill="#777777"/>
<path d="M177.574 316.778C196.645 330.239 195.113 349.193 199.62 369.399C208.5 409.21 170.381 432.347 138.047 409.38C134.795 407.071 127.302 397.772 125.671 397.339L123.327 397.668C120.74 392.769 119.755 386.772 118.677 381.318C127.942 375.066 129.656 364.841 129.801 354.299C133.451 352.617 140.898 347.682 142.488 347.099L143.548 347.077C143.999 346.593 144.435 346.104 144.847 345.587L145.771 345.784L146.258 344.696C151.385 339.393 153.588 337.351 157.36 330.949C156.823 333.667 156.097 335.947 156.954 338.56L158.072 339.846C166.487 339.995 174.883 323.728 177.574 316.778Z" fill="#FBFBFA"/>
<path d="M146.259 344.696C149.61 343.784 155.464 342.242 156.558 346.912L155.827 347.452C154.079 347.16 149.132 346.14 147.752 346.989C146.051 348.036 141.427 353.184 139.863 353.446C138.981 350.758 140.828 349.156 142.488 347.099L143.549 347.077C143.999 346.593 144.435 346.104 144.847 345.587L145.771 345.784L146.259 344.696Z" fill="#262626"/>
<path d="M184.82 387.693L186.146 388.192C188.716 394.06 178.408 411.684 163.712 399.971C161.565 397.595 159.126 394.993 158.772 391.727C161.193 385.608 173.446 392.872 184.171 387.991L184.82 387.693Z" fill="#262626"/>
<path d="M176.748 393.512C179.22 393.293 179.13 392.854 180.643 393.945C180.412 399.435 174.052 400.136 169.816 399.849C167.953 398.795 166.157 397.65 165.053 395.809L165.361 394.706C168.164 393.555 173.417 393.719 176.748 393.512Z" fill="#777777"/>
<path d="M152.177 358.985C153.653 359.332 154.928 359.57 156.066 360.618C157.967 362.397 159.004 364.908 158.907 367.51C158.784 371.191 157.846 372.397 155.396 374.658C148.092 373.098 146.563 363.299 152.177 358.985Z" fill="#333334"/>
<path d="M185.201 352.568C192.689 352.964 193.313 361.233 190.644 366.882C189.282 366.98 188.846 366.846 187.543 366.602C182.596 363.159 183.202 357.474 185.201 352.568Z" fill="#262626"/>
<path d="M179.248 367.949C183.068 368.619 186.318 372.586 185.753 376.474C185.269 379.807 183.853 380.618 181.434 382.525C180.495 382.038 179.521 381.459 178.596 380.928C178.556 379.539 182.202 376.992 182.23 375.871C182.311 372.641 179.084 371.952 179.248 367.949Z" fill="#262626"/>
<path d="M183.96 337.194C187.385 337.151 189.688 337.246 191.564 340.41L191.213 341.409C189.254 341.677 189.594 341.427 187.449 340.457C184.444 340.695 181.467 342.913 179.198 341.057L179.285 341.49C180.334 339.093 181.631 338.743 183.96 337.194Z" fill="#262626"/>
<path d="M618.77 234.337C640.311 246.213 664.162 232.631 668.794 236.95C669.41 242.35 666.667 246.475 667.996 252.59C669.458 259.308 672.39 262.392 675.505 268.293C676.882 270.904 675.432 273.114 677.157 275.448C681.911 276.123 684.672 268.599 690.944 268.471C696.472 270.75 696.43 280.502 694.114 285.203C691.121 291.29 686.476 292.717 680.363 293.996C678.028 302.594 677.291 305.722 679.028 314.585C675.273 319.915 660.876 333.688 654.165 333.537C652.526 333.571 648.923 333.429 647.662 334.066C646.156 333.61 645.51 331.729 644.87 330.43C646.711 329.97 646.041 328.893 648.564 328.214C653.483 327.965 665.18 324.015 665.631 318.282L664.991 317.582C662.833 317.616 660.163 320.135 657.969 320.88C619.118 334.086 611.09 297.665 613.571 267.815C614.772 253.377 610.012 248.221 618.77 234.337Z" fill="#FBFBFA"/>
<path d="M644.87 330.429C646.711 329.97 646.04 328.893 648.564 328.214C649.472 330.439 652.154 332.166 654.165 333.537C652.526 333.571 648.923 333.429 647.662 334.066C646.156 333.61 645.51 331.729 644.87 330.429Z" fill="#4B4A4B"/>
<path d="M631.704 273.964C633.204 274.63 632.545 274.153 633.594 275.636C634.203 280.821 631.466 286.976 629.699 291.95C632.905 292.771 635.483 292.878 637.159 295.414L636.501 297.283C619.697 296.149 628.169 284.512 631.704 273.964Z" fill="#262626"/>
<path d="M651.624 300.634C652.892 301.69 652.855 302.329 652.758 303.813C648.345 309.415 638.373 309.106 632.15 307.304C631.095 306.247 631.052 306.311 630.607 304.81C634.045 302.406 640.518 308.579 651.624 300.634Z" fill="#262626"/>
<path d="M650.362 267.935C657.414 270.224 656.951 276.081 652.977 281.144C645.571 280.653 647.223 272.389 650.362 267.935Z" fill="#262626"/>
<path d="M621.788 268.003C628.151 270.482 627.206 276.48 623.372 280.873C616.271 278.775 617.271 272.332 621.788 268.003Z" fill="#262626"/>
<path d="M647.558 255.725C651.782 255.169 663.674 254.633 662.126 261.824L661.102 261.605C653.342 257.684 649.137 260.793 645.882 258.698L645.845 257.442L647.558 255.725Z" fill="#262626"/>
<path d="M620.203 254.917C623.226 255.28 624.933 255.468 626.731 258.21L626.408 259.258C624.14 259.9 624.171 259.496 621.696 258.818C619.392 259.79 617.545 261.092 615.314 259.655L615.351 258.409C616.594 256.29 617.99 255.916 620.203 254.917Z" fill="#262626"/>
<path d="M694.711 323.852C704.774 327.91 724.389 335.368 728.363 346.257C735.519 365.877 726.607 394.511 719.177 412.89C715.782 421.281 709.498 433.993 701.123 436.68C685.556 441.683 655.33 438.514 639.793 436.315C643.493 425.267 643.944 415.596 642.286 404.146C656.799 404.889 671.159 405.59 685.69 405.492C689.036 405.468 693.303 408.448 695.936 407.046L696.271 405.992C694.254 403.067 690.524 401.8 687.281 400.745C690.213 391.617 693.65 382.33 696.466 373.317C696.375 370.715 696.399 369.637 696.68 367.077L696.351 366.803C695.967 368.601 695.004 369.777 693.407 370.545L693.132 371.099C688.908 379.752 686.373 389.417 682.728 398.29C682.106 399.801 678.869 401.05 677.157 400.562C675.718 397.052 693.638 361.514 696.101 355.621L689.579 349.466C691.919 347.864 695.522 345.558 697.521 343.718C697.1 338.839 695.741 328.736 694.711 323.852Z" fill="#FBFBFA"/>
<path d="M693.406 370.545C694.991 366.133 696.515 361.739 699.337 357.955L700.44 357.455C702.019 360.417 697.752 370.033 696.466 373.317C696.375 370.715 696.399 369.637 696.679 367.077L696.35 366.803C695.966 368.601 695.003 369.777 693.406 370.545Z" fill="#262626"/>
<path d="M724.474 413.201C724.809 415.498 724.626 422.006 724.645 424.627C724.657 430.909 725.01 437.186 725.699 443.432C727.82 462.505 732.282 482.621 734.994 502.078C722.444 511.201 687.622 519.537 673.841 511.56C663.583 499.787 661.047 460.001 660.261 443.706C695.747 444.76 708.956 449.965 724.474 413.201Z" fill="#FBFBFA"/>
<path d="M230.276 613.679C267.193 619.511 306.71 622.82 343.127 629.858C343.085 634.465 343.828 660.613 342.355 662.831C305.274 656.573 268.104 650.851 230.859 645.659C232.984 633.49 232.935 625.787 230.276 613.679Z" fill="#949493"/>
<path d="M463.305 551.206C466.041 551.011 468.722 550.883 471.41 551.572C475.124 552.516 478.298 554.923 480.205 558.25C487.664 571.005 484.685 613.99 481.206 628.761C480.611 631.284 479.276 633.039 476.99 634.294C472.844 633.356 466.923 628.061 460.983 626.208L460.214 625.976C450.743 624.209 446.666 627.055 441.243 634.288C440.85 632.862 440.516 631.424 440.241 629.968C435.844 606.848 432.256 557.141 463.305 551.206Z" fill="#FBFBFA"/>
<path d="M600.563 627.914L601.75 628.036C603.521 630.4 606.246 654.014 606.908 658.547C577.682 667.767 547.208 676.049 517.787 685.104L512.844 686.786C512.561 675.72 512.567 664.647 512.862 653.581C522.888 649.852 533.033 647.14 543.281 644.172L600.563 627.914Z" fill="#949493"/>
<path d="M479.918 645.281C488.825 648.755 502.966 715.725 498.565 725.487C493.964 729.089 483.393 721.727 477.619 720.698C473.655 719.997 473.447 719.93 469.181 720.058C466.836 720.49 465.482 720.838 463.061 720.643C456.806 711.021 447.519 669.912 445.187 658.182C449.093 660.638 451.963 662.271 456.67 662.716C469.084 663.904 472.499 651.137 479.918 645.281Z" fill="#FBFBFA"/>
<path d="M408.822 407.729L410.295 408.18C410.987 411.22 413.336 417.003 416.04 418.57C431.743 427.674 450.617 421.446 460.359 407.412C465.688 408.411 470.157 410.081 475.079 412.202C465.727 416.028 461.994 419.356 457.382 428.192C454.595 433.53 449.252 437.6 445.083 442.25C439.383 449.306 433.623 456.497 427.356 463.054C413.357 462.676 400.399 462.95 386.427 463.072C386.061 445.534 393.125 417.369 408.822 407.729Z" fill="#FBFBFA"/>
<path d="M339.82 584.819C341.821 584.582 341.275 584.338 342.569 585.258C343.629 594.332 343.132 615.385 343.132 625.16C329.574 623.691 314.801 620.876 301.091 619.145C283.867 616.97 266.219 614.746 249.154 611.705C245.411 611.193 233.613 609.883 230.811 608.737C230.63 606.69 230.767 606.519 231.421 604.514C233.653 602.071 329.731 586.154 339.82 584.819Z" fill="#777777"/>
<path d="M482.769 518.763L483.596 519.476C487.686 529.049 487.111 541.042 486.18 551.194C474.621 527.008 449.389 536.788 438.858 555.959C434.254 564.344 433.793 570.743 433.988 579.932C422.246 578.329 417.422 576.903 408.117 569.231C393.388 556.118 389.197 540.761 388.612 521.871C410.63 536.307 461.539 534.412 482.769 518.763Z" fill="#FBFBFA"/>
<path d="M407.999 157.321C410.036 159.35 422.121 190.069 424.317 195.282C431.953 213.323 440.143 231.124 448.876 248.66C450.341 251.576 458.207 265.833 458.094 267.46C456.348 268.317 455.5 267.68 453.182 267.202C436.062 263.855 425.651 265.377 409.547 270.824C407.914 233.659 408.344 194.674 407.999 157.321Z" fill="#949493"/>
<path d="M405.835 640.943C415.158 645.458 416.979 700.156 415.177 711.856C413.443 723.111 392.446 709.351 387.075 707.724C385.19 707.395 382.308 707.182 380.319 706.987C376.817 690.326 372.85 666.603 371.771 649.699C386.325 662.179 394.541 650.016 405.835 640.943Z" fill="#FBFBFA"/>
<path d="M388.461 550.78C390.089 552.126 391.77 556.928 393.073 559.043C401.567 572.833 408.79 579.036 423.706 583.29C421.377 595.739 416.174 613.576 410.48 625.056C409.05 627.939 407.604 629.62 404.493 630.498C393.28 626.44 386.154 609.578 371.635 622.168C373.561 595.928 377.249 574.685 388.461 550.78Z" fill="#FBFBFA"/>
<path d="M656.408 210.7C670.257 210.58 676.437 214.002 682.862 226.021C700.587 228.077 697.667 252.913 693.736 265.083C687.226 264.069 685.525 264.538 680.235 268.271C674.914 260.117 670.933 254.843 671.921 244.987C672.354 242.237 674.255 231.727 668.733 231.925C652.55 232.507 637.105 239.696 621.397 231.162C616.418 228.454 607.525 225.877 611.456 218.15C613.845 215.896 624.981 216.125 629.266 215.346C638.111 213.738 647.497 211.135 656.408 210.7Z" fill="#5C5C5C"/>
<path d="M233.701 509.665C235.88 510.006 238.284 510.189 240.493 510.408C237.424 519.653 235.088 529.451 232.448 538.878L217.515 591.791C216.137 589.03 214.502 586.312 212.946 583.643C207.84 575.861 203.35 569.067 197.751 561.62C203.872 551.98 203.509 532.998 203.555 521.755C211.087 519.909 228.444 515.247 233.701 509.665Z" fill="#C0C0BF"/>
<path d="M251.472 505.954L252.611 506.125L253.189 507.063C252.927 510.408 251.913 512.358 251.129 515.417C245.737 536.496 239.456 557.349 233.741 578.323L204.995 684.69C201.002 699.114 197.476 713.763 192.961 728.053C192.107 730.752 191.792 730.618 189.743 731.599C187.818 730.807 187.166 730.734 185.903 729.186C185.884 724.208 192.963 699.674 194.704 693.257C200.368 671.612 206.216 650.01 212.245 628.463L234.589 547.135C237.187 537.836 242.553 516.52 245.907 508.367C247.526 506.679 249.152 506.539 251.472 505.954Z" fill="#949493"/>
<path d="M367.924 498.373C369.759 498.111 379.885 501.347 382.703 502.084C383.628 506.094 384.173 507.825 386.118 511.487C382.553 523.291 383.379 531.901 386.171 543.626C381.006 552.48 377.867 562.461 374.982 572.236L374.513 573.241C371.833 574.411 362.374 575.551 358.966 576.044C358.798 550.213 358.784 524.381 358.924 498.556C362.027 498.727 364.821 498.532 367.924 498.373Z" fill="#C0C0BF"/>
<path d="M342.382 178.632C344.054 180.896 342.905 199.637 342.096 202.919C339.903 211.812 336.887 220.918 334.241 229.718L315.541 290.73C309.253 311.88 303.006 333.091 296.922 354.293C291.696 372.501 286.812 391.525 280.06 409.234C278.601 410.075 275.976 409.667 274.156 409.569L273.478 408.381C273.608 401.556 285.638 365.743 287.97 357.882C305.715 298.022 323.108 238.009 342.382 178.632Z" fill="#949493"/>
<path d="M487.949 461.975C490.736 464.876 485.935 494.662 483.828 499.421C481.671 504.29 477.308 507.544 472.416 509.238C449.33 517.246 415.683 518.751 393.051 509.05C391.147 507.977 389.108 506.563 388.633 504.363C390.993 502.529 416.409 506.947 422.992 505.186C427.487 503.986 430.079 503.309 435.063 501.445C456.075 493.565 474.416 479.879 487.949 461.975Z" fill="#FBFBFA"/>
<path d="M378.354 468.246C383.909 467.801 392.574 468.179 398.392 468.136C407.651 468.063 417.935 467.709 427.101 468.246C434.752 477.094 436.77 490.256 427.94 499.019C413.617 503.096 388.962 498.221 374.765 494.431C379.286 484.211 379.42 479.16 378.354 468.246Z" fill="#FBFBFA"/>
<path d="M467.319 725.42C476.634 724.732 480.712 726.341 488.988 730.332C493.646 732.574 495.038 732.654 499.891 731.362C501.395 737.833 501.748 741.03 501.872 747.44C494.486 754.27 484.148 756.2 474.551 758.13C465.253 760.11 432.084 763.65 442.776 744.7C448.257 734.988 456.725 728.62 467.319 725.42Z" fill="#FBFBFA"/>
<path d="M244.658 435.285C246.222 436.199 246.118 437.204 246.909 439.27C249.341 445.632 251.403 448.386 255.68 453.365L252.525 465.467C242.143 467.569 238.86 469.842 231.216 476.485C223.613 475.772 214.046 476.935 206.093 475.839L205.447 474.894C205.719 457.789 203.929 451.969 198.862 435.882C205.807 438.642 213.709 441.909 220.728 444.328C228.752 447.1 237.434 439.63 244.658 435.285Z" fill="#FBFBFA"/>
<path d="M463.052 432.317C474.356 431.781 487.351 442.481 485.813 453.663C484.424 463.755 463.548 479.86 455.347 486.015C454.238 486.887 453.489 487.307 452.293 488.008C448.728 484.376 455.515 471.616 434.723 462.956C440.552 455.699 455.181 436.412 463.052 432.317Z" fill="#FBFBFA"/>
<path d="M378.349 712.063C397.462 711.179 395.971 724.659 414.834 720.423C415.512 725.396 416.863 729.442 413.643 733.848C409.661 739.296 394.224 741.01 387.557 742.24C379.932 743.57 342.737 748.06 352.356 730.35C356.907 721.971 369.203 714.799 378.349 712.063Z" fill="#FBFBFA"/>
<path d="M72.3371 434.188C80.0232 433.81 83.5505 433.268 90.2662 437.357C87.8537 445.571 85.6686 453.859 83.7138 462.195C82.7307 466.564 77.9825 494.997 76.6714 496.478L74.4814 496.368C66.7325 496.088 61.9081 495.211 54.6055 492.925C56.0701 479.617 61.757 441.519 72.3371 434.188Z" fill="#777777"/>
<path d="M347.569 145.663C350.091 145.513 351.018 145.382 353.564 145.927L354.088 146.789C354.731 155.184 354.272 167.615 354.211 176.434L354.11 223.175C354.45 267.713 354.483 312.254 354.21 356.791C354.188 358.583 354.442 360.533 353.47 361.898C351.15 361.715 350.031 362.05 348.484 360.813C346.926 354.683 347.949 315.962 347.945 306.9L347.679 209.369C347.68 188.592 348.155 166.302 347.569 145.663Z" fill="#C0C0BF"/>
<path d="M348.12 496.911L353.179 497.581C354.506 499.354 354.103 503.833 354.118 506.49C354.359 547.282 354.06 588.14 354.153 628.92L354.147 680.692C354.134 688.718 354.165 696.877 354.126 704.903C354.116 706.889 353.97 706.907 352.867 708.041C351.045 707.913 349.598 708.047 348.178 707.011C347.457 704.89 347.906 676.817 347.885 673.02C347.635 638.121 347.641 603.228 347.904 568.33C347.69 544.521 347.762 520.719 348.12 496.911Z" fill="#C0C0BF"/>
<path d="M159.041 303.225C159.402 303.184 159.763 303.147 160.125 303.114C161.34 303.003 165.359 302.623 166.284 302.804C184.585 306.368 166.75 329.074 161.223 334.579C161.061 328.901 160.463 324.903 159.148 319.444C154.344 331.704 149.8 336.377 139.255 343.437C131.916 348.889 128.104 350.801 119.05 352.458C123.813 332.725 136.695 306.252 159.041 303.225Z" fill="#5C5C5C"/>
<path d="M145.094 282.23C144.856 265.653 144.977 246.799 153.444 231.788C155.015 229.002 156.808 226.819 160.172 226.537C173.283 229.761 173.8 277.106 169.449 286.015C168.052 286.606 167.741 286.145 165.85 285.645C161.106 284.138 157.697 283.756 152.812 283.088L145.094 282.23Z" fill="#FBFBFA"/>
<path d="M152.812 283.088C153.059 274.766 152.858 249.126 162.027 246.722C170.034 249.762 167.286 278.845 165.85 285.645C161.106 284.138 157.697 283.756 152.812 283.088Z" fill="#E1E0E0"/>
<path d="M629.784 331.691L630.412 331.828C629.802 334.132 625.481 341.63 624.116 344.123L629.126 349.515C627.029 351.276 625.073 353.098 623.055 354.951C624.853 370.746 630.522 387.534 631.808 401.02C626.621 395.724 622.951 392.458 617.057 388.089C617.332 378.387 617.252 368.68 616.832 358.979C616.631 357.918 616.539 358.01 615.985 357.017L615.022 357.608C611.718 364.579 612.529 378.607 612.602 386.797C604.117 384.292 597.458 375.578 591.156 368.93C592.509 366.888 593.933 365.091 595.426 363.171C606.782 348.582 612.34 339.551 629.784 331.691Z" fill="#FBFBFA"/>
<path d="M66.4649 704.299C72.8319 707.352 86.6047 714.525 92.6762 711.935C103.642 707.255 129.624 726.316 114.066 732.696C99.3974 736.389 84.4397 733.726 70.1769 729.527C55.9965 725.353 62.1159 713.72 66.4649 704.299Z" fill="#FBFBFA"/>
<path d="M728.466 689.504C730.856 689.851 732.678 704.561 728.625 708.193C722.377 709.851 724.169 704.19 716.514 710.558C708.578 717.157 690.109 717.486 679.997 715.981C678.382 715.634 677.919 715.268 676.45 714.452C671.805 706.737 690.524 696.463 695.631 691.393L696.168 690.857C710.534 692.752 714.472 692.855 728.466 689.504Z" fill="#5C5C5C"/>
<path d="M632.984 681.338C635.197 681.326 638.83 682.313 641.109 682.813C650.88 684.964 657.085 685.531 666.868 683.069C667.77 693.056 669.891 698.26 658.852 701.429C651.221 697.42 649.021 701.447 641.444 704.336C634.776 705.152 607.753 708.979 605.109 701.131C605.963 697.212 611.779 693.983 615.143 692.27C621.635 688.967 627.054 685.585 632.984 681.338Z" fill="#5C5C5C"/>
<path d="M603.757 389.21C614.37 389.819 627.158 399.783 631.644 408.966C631.497 430.27 625.451 429.465 608.239 420.873C604.809 421.69 602.085 422.439 598.897 424.34C598.162 424.151 597.52 423.987 596.971 423.847L596.377 422.238C598.178 419.453 604.374 416.553 607.556 413.774L607.088 412.915C602.474 412.811 600.993 413.981 597.017 416.193C595.83 417.613 595.689 418.039 593.998 418.448L593.136 417.826C592.705 409.91 600.402 408.265 606.381 405.962C606.949 404.322 606.924 405.127 606.474 403.469L605.647 403.146C600.672 403.597 595.3 408.076 590.504 410.41C585.56 400.892 604.153 400.148 605.683 395.876L604.644 394.847C598.847 393.817 591.474 400.508 588.967 401.007C583.756 394.176 598.955 389.685 603.757 389.21Z" fill="#FBFBFA"/>
<path d="M50.4364 514.711C59.9117 516.88 63.646 517.441 73.4228 517.983C72.4927 529.323 70.4953 540.786 70.6099 552.175C70.6415 555.295 72.1422 559.628 72.4457 563.034C48.1083 559.664 45.7149 551.267 48.0637 527.763C48.4335 524.065 48.9301 518.032 50.4364 514.711Z" fill="#777777"/>
<path d="M328.309 397.266C334.452 401.72 331.527 403.652 342.94 404.993C343.276 419.459 342.594 433.499 343.125 448.222L337.038 449.879C334.577 450.233 330.633 450.592 328.249 449.922C325.563 449.148 323.307 447.32 321.994 444.858C316.924 435.315 325.221 407.698 328.309 397.266Z" fill="#FBFBFA"/>
<path d="M252.884 470.842C259.063 470.714 267.41 473.182 268.013 480.531C268.145 482.146 268.407 481.42 267.415 482.718C263.974 482.572 261.753 480.08 257.862 479.276C259.468 483.882 269.811 488.91 263.738 494.693C260.754 492.005 258.826 490.061 255.138 488.313L254.442 487.99C256.107 491.28 259.352 495.686 261.464 499.348C261.453 501.627 261.212 503.986 259.082 505.131C247.857 494.802 242.052 509.05 234.021 504.168C233.061 500.793 233.001 486.777 232.574 481.902C240.068 475.857 243.357 472.128 252.884 470.842Z" fill="#FBFBFA"/>
<path d="M686.007 316.817C692.157 324.04 692.09 333.036 693.217 342.451C690.529 343.799 685.653 345.697 684.001 347.853C683.422 351.532 687.841 354.287 690.67 356.425C685.281 370.027 678.26 385.304 671.299 398.253C669.909 400.831 668.288 400.514 665.575 400.288C663.534 397.223 670.891 376.218 671.64 371.044C670.884 370.715 670.939 370.636 670.293 370.063C669.44 366.797 672.555 360.978 674.036 357.858L675.048 357.87C678.144 349.203 684.836 325.715 686.007 316.817Z" fill="#FBFBFA"/>
<path d="M671.641 371.044C670.885 370.715 670.94 370.636 670.293 370.063C669.44 366.797 672.555 360.977 674.036 357.857L675.048 357.87C673.969 362.318 672.945 366.645 671.641 371.044Z" fill="#262626"/>
<path d="M413.083 640.211C421.794 641.26 430.494 642.399 439.181 643.636C440.464 655.604 441.896 665.519 443.97 677.456C436.417 676.146 427.484 675.098 419.763 673.94C418.759 663.819 416.234 649.791 413.083 640.211Z" fill="#949493"/>
<path d="M621.507 430.94C633.813 432.28 625.432 439.825 641.938 441.025C640.67 461.988 641.432 482.31 636.952 502.864C636.562 504.327 636.507 505.162 635.441 506.234C634.471 505.204 634.124 503.852 633.911 502.468C630.156 478.562 626.145 454.699 621.507 430.94Z" fill="#FBFBFA"/>
<path d="M379.653 420.647C380.346 420.66 380.445 420.794 381.133 421.044L385.837 434.511C383.615 442.073 382.237 447.826 381.359 455.68C376.295 457.204 372.084 458.362 366.79 458.447C364.704 457.984 362.343 457.198 360.273 456.576C360.66 445.608 360.256 440.854 358.843 429.867L379.653 420.647Z" fill="#FBFBFA"/>
<path d="M187.503 416.851C189.853 417.783 192.009 417.972 194.506 418.35C194.986 425.681 178 437.862 179.49 441.695C181.658 441.659 183.859 439.459 185.751 437.996C191.645 449.361 195.175 459.19 197.383 471.719C197.559 472.962 197.578 473.34 197.566 474.602C194.732 476.747 185.052 475.089 180.977 474.748C178.614 460.86 177.829 453.468 172.318 440.726C176.875 433.128 182.577 425.041 187.503 416.851Z" fill="#FBFBFA"/>
<path d="M355.187 460.714C360.189 460.738 366.626 463.931 370.945 466.18C371.48 467.021 371.988 467.874 372.468 468.745C375.961 475.162 374.888 489.732 367.546 493.614C359.976 493.955 355.63 494.272 348.826 490.963C345.624 480.013 346.909 469.032 355.187 460.714Z" fill="#FBFBFA"/>
<path d="M213.665 697.925C219.419 697.523 238.754 706.353 239.678 713.19C240.532 719.509 230.163 720.259 225.705 720.887C216.98 721.788 208.177 721.587 199.502 720.283C201.525 714.196 203.247 707.115 205.147 700.802C207.896 699.955 210.913 698.858 213.665 697.925Z" fill="#FBFBFA"/>
<path d="M432.618 584.661C433.768 585.995 432.988 592.674 432.975 594.978C432.883 611.358 433.969 622.546 437.597 638.463C431.74 638.103 423.653 636.878 417.667 636.147C415.361 635.611 411.936 635.215 409.504 634.861L409.706 634.617C420.453 621.351 423.795 602.229 428.099 586.434C429.645 584.77 430.036 585.154 432.618 584.661Z" fill="#777777"/>
<path d="M480.38 510.281L480.967 510.646C482.068 512.712 481.984 511.914 481.893 514.077C476.854 520.987 454.285 526.465 445.522 527.093C429.327 528.251 407.071 527.983 392.593 519.902C391.043 518.562 390.133 517.002 389.731 515.015C390.101 514.315 390.739 513.614 391.474 513.699C398.62 514.522 408.259 518.215 415.18 519.007C435.129 521.274 462.218 519.202 480.38 510.281Z" fill="#949493"/>
<path d="M454.591 629.846C464.012 630.742 469.962 635.781 477.836 640.924C471.354 646.921 471.054 651.625 465.213 656.153C463.764 656.981 462.217 657.627 460.608 658.066C443.855 662.819 436.24 634.16 454.591 629.846Z" fill="#949493"/>
<path d="M378.561 622.448C390.129 621.449 394.214 629.901 404.396 635.83C400.772 639.328 397.155 643.045 393.597 646.628C378.919 657.579 368.784 644.258 372.229 629.578C373.189 625.483 375.123 624.362 378.561 622.448Z" fill="#949493"/>
<path d="M500.894 328.011C514.005 326.94 511.099 359.777 499.263 365.944C484.867 360.612 490.331 335.377 500.894 328.011Z" fill="#E1E0E0"/>
<path d="M364.964 16.774C367.192 18.868 392.394 76.022 393.936 80.538C392.128 83.223 391.564 83.673 389.113 85.802C379.298 63.5 368.855 42.86 359.585 19.685L364.964 16.774Z" fill="#949493"/>
<path d="M371.976 578.628L372.64 578.762C373.175 580.413 371.694 586.428 371.25 588.573C368.488 601.949 366.979 614.648 366.733 628.31L360.387 627.555L359.571 627.396C358.018 625.105 358.476 586.922 358.675 581.2C364.024 580.584 366.813 579.956 371.976 578.628Z" fill="#5C5C5C"/>
<path d="M386.169 95.155L386.84 96.185C385.747 107.336 382.188 119.181 379.147 129.968C373.571 150.414 367.006 170.578 359.477 190.388L359.391 190.38L358.886 189.746C358.812 186.332 358.464 176.693 359.129 173.812C362.044 161.196 367.373 148.025 371.695 135.762C376.022 123.483 380.871 106.517 386.169 95.155Z" fill="#E1E0E0"/>
<path d="M123.426 504.881C124.731 505.661 128.756 508.934 130.166 510.025C118.751 525.88 105.406 534.406 86.703 539.195C84.6361 539.78 84.4368 539.896 82.3357 539.786C80.5809 538.781 80.509 538.757 79.4819 537.069C79.8739 532.943 83.1817 531.749 86.7792 530.835C102.819 526.758 112.302 517.063 123.426 504.881Z" fill="#777777"/>
<path d="M638.519 327.862C639.329 330.803 637.111 343.476 637.373 348.259C637.933 358.54 638.354 368.869 639.043 379.155C639.25 382.269 640.603 396.772 640.14 398.966C638.299 399.198 638.189 399.271 636.538 398.564C635.069 396.742 634.605 393.348 634.069 390.922C631.253 379.131 628.608 368.345 627.59 356.249C631.247 353.677 633.015 352.318 635.605 348.707L629.223 343.447C631.692 338.366 634.569 331.783 638.519 327.862Z" fill="#FBFBFA"/>
<path d="M375.471 86.674L382.633 89.198C381.38 94.667 378.467 101.345 376.686 106.893C371.643 122.599 365.837 138.078 360.272 153.617L358.408 158.579C358.366 154.117 358.115 143.983 358.803 140.096C361.978 122.173 370.434 104.255 375.471 86.674Z" fill="#949493"/>
<path d="M489.277 650.936C495.858 651.546 502.418 652.374 508.946 653.417C508.983 664.483 508.88 675.549 508.638 686.609L500.287 686.262C496.317 674.105 493.919 663.745 489.277 650.936Z" fill="#949493"/>
<path d="M653.178 356.084C655.037 356.096 655.354 356.127 657.134 356.669C658.865 359.375 660.206 394.95 660.004 400.063L651.642 399.904L645.303 399.673C645.534 391.117 650.301 364.049 653.178 356.084Z" fill="#949493"/>
<path d="M622.08 594.874C623.573 596.531 624.957 616.811 625.542 620.87C616.338 619.98 607.228 618.274 598.324 615.782C595.496 614.91 592.137 613.417 589.344 612.265C606.281 606.111 607.708 605.063 622.08 594.874Z" fill="#C0C0BF"/>
<path d="M478.021 416.516C484.582 415.907 490.531 422.006 492.43 427.814C495.207 436.302 494.162 441.61 490.639 449.404C489.579 446.753 488.596 444.706 487.328 442.146C481.009 431.561 474.615 428.009 462.483 427.759L462.733 427.369C467.215 420.587 470.304 418.125 478.021 416.516Z" fill="#949493"/>
<path d="M679.089 614.593L679.735 614.666C682.057 617.293 685.288 647.445 685.897 652.789L678.516 654.769L673.036 655.708C672.939 642.49 672.713 629.267 672.354 616.05L679.089 614.593Z" fill="#949493"/>
<path d="M91.5494 444.913L93.3061 447.381C94.1149 449.428 93.1543 451.549 92.5466 453.737C86.0521 477.149 87.1755 502.334 83.547 526.179C80.1824 527.989 78.5513 528.848 76.2577 532.035L75.2666 530.408C76.1474 522.297 78.1838 515.271 79.3583 507.502C81.758 491.634 84.5393 476.034 87.4741 460.263C88.3811 455.382 90.3602 450.397 91.4403 445.431L91.5494 444.913Z" fill="#777777"/>
<path d="M50.3181 496.009C59.3656 498.715 66.7625 499.927 76.1035 501.061C75.6402 505.363 75.23 509.665 74.8735 513.979C69.0373 514.15 51.7651 513.608 48.4483 507.989C47.6824 503.925 49.1299 499.903 50.3181 496.009Z" fill="#5C5C5C"/>
<path d="M645.565 442L655.878 443.231C656.366 453.487 656.884 461.409 658.212 471.628L655.049 474.967C652.507 476.893 653.44 476.759 651.026 476.649C648.722 475.619 646.54 472.207 644.937 470.074C644.705 462.182 645.4 450.385 645.565 442Z" fill="#949493"/>
<path d="M203.433 363.232C209.89 379.838 220.482 383.281 210.365 404.603C210.596 401.531 210.572 398.533 210.585 395.462C208.876 397.93 205.74 404.444 203.949 407.558C201.9 410.69 198.116 415.206 193.829 414.28C192.583 412.537 193.099 412.64 194.598 410.562C199.697 403.512 202.312 397.01 204.057 388.448C205.772 380.033 203.275 371.477 203.433 363.232Z" fill="#5C5C5C"/>
<path d="M226.942 620.937C231.431 632.521 221.533 667.944 217.085 679.967C216.218 682.307 213.209 682.831 211.051 683.447L210.525 682.819C210.358 678.188 224.852 627.037 226.942 620.937Z" fill="#FBFBFA"/>
<path d="M349.168 365.962C353.445 366.316 355.262 367.626 356.528 371.861C358.376 378.052 359.361 389.411 356.485 395.23C354.268 396.681 353.776 396.23 350.729 396.413C348.957 397.028 348.754 397.113 346.906 397.241C346.496 396.413 346.766 389.862 346.869 388.698C347.234 384.536 342.715 370.301 343.145 368.296C344.882 366.754 346.915 366.492 349.168 365.962Z" fill="#FBFBFA"/>
<path d="M264.782 409.015C265.85 409.039 266.675 409.295 267.706 409.545C271.683 412.518 274.191 423.347 267.43 424.383C264.924 423.445 263.089 420.757 261.066 418.637L260.249 419.002C259.288 423.365 260.406 425.267 262.046 429.416C259.843 433.749 259.529 435.693 258.837 440.495C258.265 442.981 257.791 445.827 257.313 448.362C253.712 443.255 252.196 440.641 249.911 434.895C253.675 424.822 254.033 413.865 264.782 409.015Z" fill="#FBFBFA"/>
<path d="M350.043 401.08C351.501 401.056 352.769 400.831 353.977 401.544C354.523 406.217 354.47 451.342 353.674 455.156L352.31 455.985C350.54 455.705 349.044 455.729 347.842 454.535C347.263 449.885 347.798 442.213 347.785 437.119C347.76 426.863 347.716 416.449 348.018 406.199C348.115 402.921 348.108 402.842 350.043 401.08Z" fill="#C0C0BF"/>
<path d="M606.32 623.271L613.699 624.715C614.827 629.224 620.447 664.72 619.764 668.322C617.881 668.773 614.997 669.644 613.297 668.834C612.23 665.123 611.334 657.487 610.743 653.392C609.345 643.338 607.87 633.301 606.32 623.271Z" fill="#949493"/>
<path d="M399.787 17.182C401.941 17.861 403.794 18.746 405.85 19.665C401.621 34.714 396.536 45.701 391.27 60.085L391.069 60.67L390.346 60.566C388.671 57.526 388.233 56.274 387.129 52.95C388.469 46.969 397.015 22.135 399.787 17.182Z" fill="#949493"/>
<path d="M496.707 322.051C497.916 322.257 498.066 322.397 499.183 322.859C498.637 325.099 493.912 327.125 493.095 328.691C486.636 341.053 482.932 358.741 494.682 368.79L495.085 369.125L494.299 369.698C473.233 367.882 478.672 325.881 496.707 322.051Z" fill="#949493"/>
<path d="M358.484 632.137L366.992 633.228C366.929 644.977 367.454 654.154 368.61 665.854C365.19 665.744 362.049 665.312 358.67 664.891C358.484 654.13 358.595 642.966 358.484 632.137Z" fill="#949493"/>
<path d="M338.149 370.496C342.661 374.238 345.006 392.957 341.516 398.101C339.168 399.508 340.155 399.112 336.9 399.063C327.316 391.727 329.144 377.607 338.149 370.496Z" fill="#FBFBFA"/>
<path d="M156.104 611.711C160.564 614.185 175.819 631.138 178.142 636.11C173.486 635.982 162.367 634.215 157.232 633.569C156.474 628.731 156.348 617.14 156.104 611.711Z" fill="#949493"/>
<path d="M681.149 318.139C682.185 322.064 678.418 333.798 676.821 337.564C674.645 342.68 672.439 344.582 668.251 348.053L665.71 344.293L660.382 336.05C668.989 330.304 674.67 326.523 681.149 318.139Z" fill="#FBFBFA"/>
<path d="M81.9024 584.996C83.2013 590.084 83.325 604.66 83.4591 610.571C78.1721 611.29 72.3951 611.778 67.052 612.333C66.312 612.387 66.7027 612.467 65.9536 611.857C66.8265 608.628 79.3412 588.896 81.9024 584.996Z" fill="#FBFBFA"/>
<path d="M568.426 338.466C577.813 340.666 591.06 355.359 587.062 363.915C585.357 363.659 585.123 362.702 583.761 361.032C578.077 353.769 568.731 348.672 561.009 341.209C563.577 340.076 565.772 339.354 568.426 338.466Z" fill="#FBFBFA"/>
<path d="M671.957 87.381C674.292 88.243 675.956 89.202 678.132 90.385C673.554 101.431 668.788 111.626 663.698 122.458C661.589 121.922 659.322 121.66 658.438 119.605C660.602 112.432 668.648 95.116 671.957 87.381Z" fill="#949493"/>
<path d="M344.075 459.824C345.535 459.678 348.282 459.337 349.314 460.239C346.992 466.253 342.94 471.914 343.14 480.074C343.216 483.218 344.25 487.216 343.971 490.281L342.602 490.39C339.311 487.77 338.936 487.331 337.779 483.297C336.133 477.557 334.018 469.361 337.218 463.797C338.805 461.037 341.286 460.421 344.075 459.824Z" fill="#FBFBFA"/>
<path d="M112.481 431.866C117.546 432.232 132.722 436.595 137.338 439.032C145.04 443.097 147.52 450.044 149.799 457.722C146.173 454.425 143.868 451.799 139.86 448.539C126.58 436.912 115.651 430.976 99.6729 441.512C103.176 436.241 106.242 433.658 112.481 431.866Z" fill="#5C5C5C"/>
<path d="M619.349 625.983C621.903 625.916 622.866 625.806 625.408 626.488C626.907 628.859 628.602 658.968 629.083 664.519L625.347 664.282C622.976 662.399 619.922 630.791 619.349 625.983Z" fill="#949493"/>
<path d="M433.362 466.942C443.484 469.111 453.077 486.064 443.127 493.084L435.944 495.85C439.976 478.764 435.691 480.872 433.362 466.942Z" fill="#949493"/>
<path d="M673.304 349.292C673.372 351.38 664.887 380.441 663.528 385.231C663.04 384.225 662.912 382.147 662.766 380.935C662.711 373.025 661.62 363.604 661.083 355.481L664.283 348.967L667.532 354.695C669.544 353.074 671.452 351.106 673.304 349.292Z" fill="#FBFBFA"/>
<path d="M95.5125 423.243C99.0593 425.181 102.57 427.186 106.041 429.258C100.597 433.383 98.5814 434.566 94.9334 440.434L94.2142 436.577C90.2352 431.372 84.0303 430.337 77.7437 429.337C83.3994 426.595 89.3654 424.554 95.5125 423.243Z" fill="#777777"/>
<path d="M280.04 366.882C280.797 370.1 271.336 399.49 269.635 404.749C266.061 404.743 264.073 404.865 260.519 405.285C260.474 403.963 278.016 371.416 280.04 366.882Z" fill="#C0C0BF"/>
<path d="M453.854 407.266L454.307 407.613C450.072 415.681 433.357 421.165 424.953 417.93C421.367 416.546 420.271 415.791 417.425 413.25C416.756 412.116 415.62 409.953 416.13 408.765C428.629 415.236 441.953 415.175 453.854 407.266Z" fill="#949493"/>
<path d="M262.794 444.243C264.449 444.943 267.696 445.906 269.516 446.509C267.529 453.511 265.729 460.885 263.897 467.947C261.481 467.624 259.875 467.582 257.733 466.345C256.727 463.724 261.739 448.35 262.794 444.243Z" fill="#949493"/>
<path d="M464.392 541.529C473.295 541.304 476.189 543.51 480.862 550.828C470.269 546.13 463.376 544.716 452.588 550.28C446.578 554.198 444.948 556.301 440.393 561.681C441.619 559.329 442.96 557.032 444.411 554.808C449.687 546.666 455.121 543.485 464.392 541.529Z" fill="#949493"/>
<path d="M673.207 572.266C674.267 576.702 679.948 607.336 678.833 609.383L672.311 611.126C672.268 598.609 671.884 584.618 673.207 572.266Z" fill="#FBFBFA"/>
<path d="M177.84 306.43C189.351 309.438 196.442 322.468 196.903 333.754C194.945 332.408 191.477 324.597 189.485 322.194C183.997 315.575 178.379 315.843 177.84 306.43Z" fill="#5C5C5C"/>
<path d="M180.792 697.273L188.218 699.735C186.647 705.701 185.232 711.843 183.699 717.858L182.97 718.144C175.297 715.518 179.308 703.203 180.792 697.273Z" fill="#FBFBFA"/>
<path d="M654.251 338.288C655.823 338.234 655.921 338.344 657.384 338.786C659.675 340.431 660.523 342.893 661.742 345.473C660.12 349.231 659.907 350.112 657.268 353.257C647.893 351.648 647.753 343.78 654.251 338.288Z" fill="#949493"/>
<path d="M646.516 348.663C646.497 348.635 649.057 354.628 649.295 355.158C647.156 363.269 645.735 372.611 644.017 380.947L643.925 381.002C642.895 378.192 641.694 355.524 642.371 352.373C644.742 351.252 645.199 350.941 646.516 348.663Z" fill="#FBFBFA"/>
<path d="M264.283 434.553C268.783 434.688 278.626 434.992 280.801 439.3C280.952 441.543 280.111 442.311 278.824 444.218C277.821 445.065 276.865 445.644 275.771 446.351L274.694 446.083C273.622 439.562 268.38 443.402 264.667 439.556C263.661 437.613 264 436.747 264.283 434.553Z" fill="#FBFBFA"/>
<path d="M139.523 415.663C140.753 415.961 145.522 418.295 146.847 418.917C154.887 422.658 158.883 423.298 167.373 423.7C167.798 427.21 168.602 431.366 169.19 434.907C166.584 433.438 162.459 430.318 159.554 428.502C152.95 424.371 145.079 420.983 139.523 415.663Z" fill="#E1E0E0"/>
<path d="M75.2664 530.408L76.2575 532.035C75.9417 538.757 75.5041 540.536 80.6003 545.252C79.5757 551.237 79.8573 557.739 80.081 563.79C71.0649 556.288 74.4222 541.17 75.2664 530.408Z" fill="#5C5C5C"/>
<path d="M349.68 117.555C351.202 117.659 351.315 117.705 352.793 118.14C354.662 120.695 355.898 133.581 353.49 135.526C351.189 135.57 350.42 135.591 348.172 135.168C346.404 132.722 347.381 120.149 349.68 117.555Z" fill="#C0C0BF"/>
<path d="M275.973 423.78C279.162 424.554 282.347 425.346 285.527 426.156C285.016 428.929 284.02 431.89 283.183 434.614C281.251 433.853 279.314 433.103 277.372 432.372C273.102 431.281 267.114 430.306 262.7 429.483C269.556 427.85 271.204 429.24 275.973 423.78Z" fill="#FBFBFA"/>
<path d="M342.566 452.597L343.358 454.236C342.521 456.357 336.9 457.905 334.982 459.836C333.584 461.244 332.47 462.865 331.327 464.462L327.13 460.549C325.883 458.855 323.682 456.156 323.778 454.139C326.134 453.06 331.825 454.504 334.91 454.12C337.747 453.767 339.782 453.28 342.566 452.597Z" fill="#949493"/>
<path d="M123.691 356.182C124.323 356.237 124.534 356.401 125.152 356.645C126.624 362.16 122.302 370.959 119.057 375.34L118.342 375.596L117.697 375.03C117.616 370.356 116.957 362.544 119.113 358.351C119.969 356.687 121.864 356.627 123.691 356.182Z" fill="#4B4A4B"/>
<path d="M449.776 403.804C450.047 403.92 450.318 404.042 450.589 404.158C443.769 409.782 429.496 410.239 421.46 406.863C420.063 405.888 420.115 405.943 419.159 404.536C431.174 405.498 437.692 406.047 449.776 403.804Z" fill="#949493"/>
<path d="M342.878 215.457C343.634 231.361 342.262 230.909 337.048 245.683C336.75 244.952 336.64 244.951 336.127 244.315L333.884 245.01C336.743 236.332 341.142 224.153 342.878 215.457Z" fill="#FBFBFA"/>
<path d="M635.727 404.517C640.713 407.796 639.08 425.76 635.953 430.215C632.381 429.075 631.643 428.941 633.35 425.364C636.422 418.923 636.075 411.489 635.727 404.517Z" fill="#E1E0E0"/>
<path d="M647.662 334.066C648.966 335.5 648.881 334.977 649.076 336.585C647.723 339.575 646.126 344.322 643.249 345.422C641.737 342.58 641.694 331.554 643.858 329.419L644.87 330.43C645.51 331.729 646.156 333.61 647.662 334.066Z" fill="#E1E0E0"/>
<path d="M275.695 413.853C276.855 413.829 278.014 413.871 279.169 413.969C285.156 414.493 286.393 416.644 285.655 422.165C282.246 421.19 279.048 421.616 276.458 419.983C275.078 417.497 275.612 417.15 275.695 413.853Z" fill="#FBFBFA"/>
<path d="M189.188 433.786C190.571 433.865 191.565 433.914 192.523 435.065C196.29 439.611 200.671 457.46 200.425 462.859C199.281 461.683 195.823 448.624 194.42 445.315C192.772 441.433 191.154 437.759 189.188 433.786Z" fill="#777777"/>
<path d="M393.308 414.407L393.85 414.633L394.148 415.443C392.957 418.082 389.181 427.241 387.828 428.789C386.804 425.943 385.825 422.695 384.875 419.788C388.178 417.217 389.587 416.4 393.308 414.407Z" fill="#949493"/>
<path d="M611.688 232.051L613.273 233.227C613.791 235.292 610.091 245.984 609.823 252.071L609.434 251.99C605.021 247.851 609.102 236.55 611.688 232.051Z" fill="#5C5C5C"/>
<path d="M46.1735 622.107C44.381 619.139 41.0223 612.07 44.2189 609.365C47.3653 609.749 48.6452 613.106 50.05 615.654C48.6386 617.774 47.852 619.206 46.6716 621.443L46.1735 622.107Z" fill="#949493"/>
<path d="M333.884 245.01L336.127 244.315C336.64 244.951 336.75 244.952 337.048 245.683C336.12 248.451 328.289 268.015 326.888 270.486L326.733 270.013L327.433 269.692L326.901 269.142C329.289 261.116 331.617 253.072 333.884 245.01Z" fill="#E1E0E0"/>
<path d="M46.6714 621.443L47.0943 621.065C48.5544 619.742 48.8131 619.639 49.5818 617.914L50.7673 617.555C54.857 619.944 54.8026 627.329 50.7127 627.957C48.985 627.159 46.8097 623.874 46.1733 622.107L46.6714 621.443Z" fill="#949493"/>
<path d="M214.749 686.609C215.156 686.835 215.282 687.231 215.602 687.743C215.374 691.893 212.135 693.666 208.657 694.994C207.089 694.58 207.238 693.97 206.88 692.685C208.156 687.219 210.115 687.078 214.749 686.609Z" fill="#E1E0E0"/>
<path d="M360.599 370.405C365.932 374.122 366.331 379.978 364.593 385.663L363.182 386.267C361.476 384.877 361.132 374.061 360.599 370.405Z" fill="#E1E0E0"/>
<path d="M204.759 416.327C205.087 419.185 198.88 429.282 195.5 430.83C195.2 430.001 195.271 429.837 195.196 428.935C197.448 424.042 199.76 418.594 204.759 416.327Z" fill="#E1E0E0"/>
<path d="M94.2142 436.577L94.9334 440.434C93.8381 443.073 92.9768 444.547 93.306 447.381L91.5493 444.913C93.1457 441.348 93.6235 440.385 94.2142 436.577Z" fill="#5C5C5C"/>
<path d="M346.254 140.676C349.107 140.113 351.844 139.578 354.457 141.02C351.578 141.668 348.933 142.125 346.254 140.676Z" fill="#5C5C5C"/>
<path d="M111.118 710.29C120.28 709.918 130.326 708.431 139.687 708.053C150.983 707.602 162.24 707.407 173.54 707.042C172.898 715.884 173.521 719.205 182.052 723.202C181.287 727.443 180.162 730.533 182.906 734.317C186.176 738.827 191.167 737.772 194.85 734.457C196.982 732.538 197.849 728.437 198.592 725.695C207.683 726.682 242.161 730.551 245.799 715.798C245.933 715.25 245.913 713.111 245.917 712.453C245.93 712.611 245.934 712.764 245.954 712.916C246.52 717.309 254.966 721.173 251.161 725.981C247.986 729.991 239.912 731.977 235.176 733.104C219.172 736.913 201.942 737.912 185.58 739.54C172.939 740.79 160.366 742.58 147.658 743.12C126.626 744 61.3951 743.69 47.2893 730.746C46.0037 729.57 44.778 728.022 44.8204 726.182C44.8564 724.622 45.9698 723.038 47.1106 722.05C49.3971 720.064 53.0806 718.937 55.9281 717.968C53.3364 738.881 96.65 741.61 110.559 739.247C133.921 735.268 125.1 719.954 111.118 710.29Z" fill="#E1E0E0"/>
<path d="M272.576 743.09C273.255 720.387 271.939 685.732 272.945 661.838C273.25 661.418 273.555 660.997 273.86 660.571C277.364 659.608 318.313 677.444 325.215 679.248C326.974 679.705 332.065 682.142 332.885 684.123C332.265 685.336 331.629 686.298 330.256 686.835C312.739 693.708 295.383 701.49 277.798 708.151C277.451 719.461 277.753 731.459 277.881 742.83C277.937 745.15 278.27 746.9 277.074 748.78C275.359 749.97 276.255 749.8 274.338 749.5C272.277 747.14 272.494 746.71 272.576 743.09Z" fill="#333334"/>
<path d="M277.501 666C293.182 671.777 309.606 678.37 325.318 683.715C319.943 686.225 315.314 688.188 309.793 690.357C300.856 693.562 286.258 699.607 277.652 703.44C277.274 691.478 277.535 678.078 277.501 666Z" fill="#E1E0E0"/>
<path d="M277.881 742.83C283.018 743.21 291.859 743.35 295.323 747.27C295.958 749.62 296.027 748.71 295.291 750.8C290.13 755.96 256.1 756.4 256.737 747.75C259.316 744.57 263.716 743.98 267.51 743.58C269.197 743.4 270.886 743.24 272.576 743.09C272.494 746.71 272.277 747.14 274.338 749.5C276.254 749.8 275.358 749.97 277.074 748.78C278.27 746.9 277.937 745.15 277.881 742.83Z" fill="#E1E0E0"/>
<path d="M60.5762 416.284C62.1072 416.418 61.4971 416.114 62.5308 417.077C61.6726 419.319 54.7351 424.121 52.4508 427.058C44.0889 437.82 41.678 449.971 38.5704 462.792C37.0826 462.457 37.7236 462.816 36.6838 461.518C36.4997 459.184 36.9161 456.838 37.4772 454.571C41.0741 440.056 47.3175 424.45 60.5762 416.284Z" fill="#262626"/>
<path d="M50.6827 405.974C50.9102 406.096 51.578 406.778 51.798 406.991C51.3906 408.594 47.3957 411.891 46.008 413.341C35.9759 423.853 32.5646 436.808 28.5814 450.355C27.5727 449.77 27.8335 449.879 27.0283 448.953C26.1582 435.815 39.4878 413 50.6827 405.974Z" fill="#202020"/>
</g>
<defs>
<clipPath id="clip0_6_3">
<rect width="832" height="777" fill="white"/>
</clipPath>
</defs>
</svg>
