<svg width="832" height="1000" viewBox="0 0 832 1000" fill="none" xmlns="http://www.w3.org/2000/svg">
<g clip-path="url(#clip0_6_908)">
<path d="M0 0H832V1000H0V0Z" fill="none"/>
<path d="M754.407 953.38C763.873 952.44 779.386 959.3 785.39 967.04C777.582 974.39 765.159 979.46 754.353 979.15C760.521 971.2 757.169 962.01 754.407 953.38Z" fill="#ECECEC"/>
<path d="M177.851 364.928C171.952 346.05 170.678 321.772 178.964 303.458C182.752 295.082 192.741 290.198 200.786 295.107C219.923 306.788 223.764 349.016 222.047 368.636C249.771 378.333 260.893 394.254 270.044 420.969C275.094 435.712 276.63 444.097 277.379 459.801C281.123 465.072 283.713 469.233 286.86 474.928C291.571 467.963 295.31 460.289 299.377 452.935C303.808 444.921 310.556 433.821 315.855 426.362C317.134 424.563 319.376 423.536 320.608 421.907C322.194 419.81 321.462 410.482 323.34 406.55C326.081 400.814 331.605 397.962 335.115 392.925C340.846 384.702 350.595 359.092 360.824 357.423C362.751 357.109 364.69 357.806 366.18 359.019C368.529 360.929 370.201 363.82 370.303 366.877C370.507 372.945 361.077 386.406 363.075 388.05C363.204 388.157 363.882 388.463 364 388.52C369.554 391.181 371.484 394.508 373.653 400.137C384.103 407.318 380.992 417.121 374.595 426.003C368.782 434.073 366.321 439.251 357.636 444.749C358.195 449.829 356.711 454.559 355.579 459.518C348.901 488.766 329.53 523.848 310.696 546.986C302.398 557.187 281.476 581.61 271.891 589.605C272.118 613.645 268.767 638.715 267.473 662.755C266.736 676.435 271.077 683.102 266.894 698.793C334.548 709.524 333.399 739.39 317.043 797.323C314.809 805.239 309.018 803.527 309.504 814.721C325.745 816.287 341.924 818.688 347.728 836.098C356.971 833.94 365.892 834.434 374.044 839.644C378.369 842.405 386.956 849.364 385.329 855.269C381.663 857.59 375.773 850.217 373.303 847.999C365.238 840.747 353.594 839.553 344.295 845.378C333.027 852.435 319.806 856.329 306.798 859.589C292.508 863.166 269.016 872.45 255.853 863.026C239.206 867.182 224.878 869.558 214.704 885.05C212.72 888.07 206.98 896.72 204.43 898.35C194.861 904.41 186.525 908.09 177.459 915.35C184.009 921.8 197.022 934.8 186.525 944.46C179.037 951.35 162.168 951.74 152.37 951.18C136.187 949.9 122.438 947.6 108.419 939.39C102.608 942.07 66.426 958.73 61.9265 959.29C60.1666 958.48 60.1393 958.37 58.9544 956.76C64.7011 948.68 94.5702 938.16 105.003 933.37C102.883 921.7 108.884 894.27 112.801 883.26C111.324 880.9 109.307 878.25 109.18 875.43C108.528 860.875 112.329 844.452 114.349 829.973C116.508 814.489 118.709 800.382 119.661 784.855C120.574 774.161 121.885 761.742 120.683 751.102C120.035 745.368 118.113 739.012 117.082 733.327C82.9252 733.247 53.4844 730.158 55.8522 686.971C56.1543 681.463 57.3272 667.746 57.1507 662.639C56.6408 647.892 50.7008 637.441 65.2265 626.278L68.7331 593.816C70.5988 576.559 71.6192 551.8 86.1533 540.027C92.5648 534.835 106.623 531.532 114.73 529.247C98.81 505.439 99.2422 474.344 104.63 447.211C106.631 436.606 109.748 426.242 113.929 416.293C93.8881 398.619 73.4325 371.194 71.7654 344.115C69.8692 313.304 97.6781 311.805 115.698 330.633C129.846 345.417 137.004 359.096 145.331 377.294C155.879 369.899 165.454 367.375 177.851 364.928Z" fill="#373737"/>
<path d="M177.507 561.33C182.878 563.14 206.926 573.225 210.212 572.939L210.835 571.879C209.916 569.21 204.708 567.375 202.334 565.986C167.773 545.785 124.291 554.122 111.517 506.816C104.157 479.558 108.45 448.523 118.978 422.232C119.784 420.221 124.932 423.827 127.247 420.514C126.53 416.393 119.175 411.653 115.81 408.741C110.52 404.085 105.68 398.941 101.355 393.379C90.3179 379.458 71.8841 350.122 80.7472 330.991C81.7748 328.773 85.4436 325.773 87.9451 325.551C109.427 323.644 124.805 352.161 134.023 368.061C137.562 374.521 140.944 390.682 145.645 393.529C147.457 393.314 146.649 393.668 148.037 392.21C148.746 389.819 147.757 386.277 147.244 383.718C178.65 364.827 222.619 365.877 248.538 393.672L246.794 394.355C195.713 355.133 152.088 424.854 151.683 470.576C151.343 508.918 158.532 528.54 193.305 549.71C210.806 560.368 224.526 567.485 227.448 588.429C233.142 616.552 232.316 642.652 230.276 670.975C210.656 673.181 202.564 673.821 182.948 673.236C177.43 687.124 171.975 698.952 160.995 709.159C158.895 711.115 154.823 714.442 156.164 717.337C159.93 717.818 168.789 708.263 171.28 705.417C178.398 697.27 182.294 687.904 185.641 677.819C203.133 678.532 212.843 677.624 230.235 675.978C230.558 694.394 228.637 704.814 222.938 721.937C208.079 726.428 187.102 725.124 171.853 722.998C168.934 722.595 164.181 719.963 161.373 721.2L161.064 722.315C161.571 723.363 162.091 724.74 163.318 725.167C183.183 732.004 205.991 730.14 226.254 725.789C233.484 724.241 255.016 713.839 252.967 705.113C250.427 704.515 245.609 711.761 243.252 713.504C238.566 716.965 233.297 718.958 227.977 721.17C234.411 706.148 234.659 690.811 234.514 674.796C239.581 673.888 252.047 672.273 255.261 668.794L255.198 667.484L254.128 666.618C250.698 666.691 239.547 669.178 235.168 669.909C236.457 632.828 239.568 609.258 227.559 571.666C229.185 567.321 231.275 561.873 233.629 557.93C238.889 549.113 242.891 545.438 246.212 535.389C251.293 536.949 254.351 537.047 259.563 537.102C256.841 543.238 255.15 545.493 251.216 550.605C247.748 555.115 238.442 564.091 236.841 568.619L237.254 569.484C240.645 569.344 244.395 564.938 246.989 562.458C253.573 573.64 257.988 587.595 260.577 600.166C265.139 622.323 262.117 644.797 261.138 667.106C261.047 669.178 261.496 672.164 261.668 674.303C262.147 680.293 262.906 686.435 262.077 692.425C261.72 694.698 257.129 701.243 255.784 703.23C256.889 707.056 264.903 704.985 268.576 705.88C288.768 710.902 316.952 715.539 318.846 741.547C319.704 753.332 315.78 788.67 308.429 798.81C305.554 802.777 266.318 810.998 260.888 804.41C255.92 798.383 267.177 762.443 263.298 758.055L261.963 758.549C260.025 760.212 259.722 762.162 259.024 764.6C250.804 763.613 242.564 762.79 234.311 762.144C227.405 761.595 218.554 761.242 211.931 759.767C216.633 756.983 234.308 746.117 233.827 740.993C230.586 740.755 211.347 753.418 206.008 756.178C200.911 767.957 196.966 786.799 193.323 799.742C189.75 812.442 170.693 878 163.394 884.07C158.324 888.3 149.533 887.69 143.384 887.15C135.817 886.47 121.657 884.38 117.014 878.07C113.146 872.82 118.425 848.011 119.549 840.4C123.332 814.77 129.034 781.425 127.69 755.794C126.594 734.917 117.725 722.187 120.905 699.22C131.06 707.361 133.071 715.923 149.686 706.459C158.276 701.566 164.69 693.461 167.567 683.973C170.344 674.808 162.337 670.195 157.957 663.096C158.219 659.568 168.755 649.964 171.903 644.912C176.803 637.015 180.498 628.435 182.867 619.453C187.375 601.86 186.867 577.192 177.507 561.33Z" fill="#FCFCFB"/>
<path d="M136.48 404.697C136.256 406.859 134.548 407.801 132.779 408.404C120.816 406.82 84.9348 358.67 97.608 347.23C103.74 345.056 113.859 355.635 116.628 360.344C122.759 366.761 141.702 396.241 136.48 404.697Z" fill="#ECECEC"/>
<path d="M116.627 360.344C122.759 366.761 141.701 396.241 136.479 404.697C135.074 402.493 133.114 396.523 131.921 393.701C129.15 387.209 126.096 380.842 122.767 374.618C120.538 370.396 118.342 366.159 116.236 361.874C116.367 361.364 116.497 360.854 116.627 360.344Z" fill="#373737"/>
<path d="M222.724 403.68C223.489 403.97 224.248 404.271 225.003 404.585C234.433 408.51 244.169 415.889 248.128 425.551L248.043 429.113L249.511 428.919C253.381 432.654 256.643 446.823 258.643 452.354C270.073 483.958 270.712 526.407 228.597 532.909C224.284 533.58 217.526 531.867 213.652 534.347L213.509 535.493C215.92 538.369 218.243 538.576 221.763 539.198C221.952 543.604 221.515 551.075 225.167 553.847C229.182 554.304 226.046 553.086 229.23 552.367C229.92 554.548 225.367 562.129 224.164 564.365C213.589 553.384 200.206 547.315 187.929 538.119C188.305 537.041 188.618 535.938 188.866 534.823C191.558 522.915 181.599 517.675 174.899 506.919C161.484 510.716 159.058 501.91 157.984 490.344C157.765 487.986 157.938 485.183 159.601 483.434C163.433 482.1 166.055 483.855 169.706 485.536C175.743 476.157 175.043 469.459 174.159 458.742C177.94 456.296 182.582 452.088 185.637 450.347L186.001 452.48L186.667 452.84C190.909 449.751 192.387 442.259 199.394 442.565C201.875 442.674 203.35 443.694 205.145 441.633L205.021 440.285C202.604 438.15 199.182 438.243 196.169 438.357C198.968 433.641 200.09 431.289 201.996 426.211C202.473 429.693 202.527 432.184 205.319 434.531C215.009 436.082 221.619 411.218 222.724 403.68Z" fill="#FCFCFB"/>
<path d="M248.043 429.113C245.222 430.471 243.386 427.978 240.232 428.612C237.787 429.105 234.504 432.916 231.945 433.204L231.188 432.292C231.59 423.08 241.319 422.797 248.127 425.551L248.043 429.113Z" fill="#373737"/>
<path d="M247.316 491.332C254.004 496.127 244.233 528.619 221.125 513.58C217.659 510.204 212.277 503.562 214.066 498.425C214.895 497.675 215.79 496.682 216.957 496.749C228.785 497.462 236.267 495.512 247.316 491.332Z" fill="#373737"/>
<path d="M223.198 504.488C227.54 504.159 238.937 502.453 240.952 506.804C240.563 508.875 238.765 510.076 237.106 511.605C231.817 514.348 221.929 509.82 220.999 504.841L223.198 504.488Z" fill="#BDBCBC"/>
<path d="M201.525 456.537C204.87 456.447 206.22 456.561 208.896 458.833C211.598 461.147 213.224 464.474 213.389 468.027C213.532 471.804 212.903 472.922 210.451 475.546C200.527 478.406 197.144 464.447 201.525 456.537Z" fill="#373737"/>
<path d="M243.333 444.164C251.063 446.475 255.597 457.3 248.476 463.049L248.206 462.954C239.973 460.157 234.919 449.155 243.333 444.164Z" fill="#373737"/>
<path d="M234.51 462.873C247.236 465.377 254.977 475.734 241.119 484.915C238.896 484.976 237.946 484.842 237.44 482.575C238.54 479.93 242.232 476.615 244.356 474.413C239.627 470.415 233.666 470.235 234.51 462.873Z" fill="#373737"/>
<path d="M210.026 766.696C225.296 768.853 241.211 769.377 256.376 771.626C255.438 776.677 254.605 781.741 253.875 786.817C252.967 795.032 251.475 803.137 256.654 810.102C253.339 824.361 251.04 841.893 252.273 856.518C234.406 861.119 220.038 863.666 208.999 880.33C199.96 893.98 200.359 892.59 186.952 900.34C181.298 903.62 175.927 907.36 170.893 911.52C167.788 909.33 164.727 906.93 161.702 904.62C162.771 900.65 163.673 896.04 164.563 891.99C174.711 883.71 177.424 870.856 181.648 858.76C190.196 834.221 197.776 809.352 204.372 784.215C206.082 778.829 208.075 771.87 210.026 766.696Z" fill="#FCFCFB"/>
<path d="M210.026 766.696C225.296 768.853 241.21 769.377 256.375 771.626C255.438 776.677 254.604 781.741 253.875 786.817L253.256 785.422C250.241 783.746 212.749 785.331 204.372 784.215C206.081 778.829 208.074 771.87 210.026 766.696Z" fill="#ECECEC"/>
<path d="M141.012 563.274C156.508 563.14 160.969 583.219 161.258 595.358C161.366 599.886 160.469 606.449 159.73 610.952L159.695 610.239C155.732 613.274 139.955 635.455 135.297 641.189C130.693 639.111 121.989 636.198 117.209 638.703L117.118 639.69C119.467 644.236 126.678 642.274 130.643 645.083C152.566 660.628 160.171 669.269 138.854 688.854C134.032 692.596 132.124 693.547 126.265 695.314C111.204 690.256 94.4132 675.009 88.2497 660.275C84.1665 650.512 87.4543 636.966 91.9892 627.874C100.562 610.69 123.553 569.783 141.012 563.274Z" fill="#FCFCFB"/>
<path d="M314.236 440.716C326.196 453.731 331.652 457.702 348.695 461.559C346.64 469.104 342.882 478.193 339.816 485.427C325.288 519.716 306.352 542.958 281.848 569.978C278.02 574.042 274.872 577.522 271.321 581.824C268.883 569.697 266.599 560.033 259.768 549.557C266.324 538.735 263.097 535.14 276.628 532.909C280.421 532.288 286.788 523.915 288.639 520.149C294.315 508.607 293.852 495.28 289.743 483.203C297.623 468.879 305.789 454.714 314.236 440.716Z" fill="#FCFCFB"/>
<path d="M300.824 808.365L302.01 808.651C302.747 811.004 302.233 813.453 301.971 815.976C299.286 816.866 296.673 817.957 294.154 819.236C291.591 820.571 287.439 822.728 286.602 825.501C289.851 828.602 297.646 822.1 301.088 821.802C311.643 820.882 341.76 824.038 340.48 838.584C337.476 843.879 316.192 849.486 309.792 851.32C300.524 854.489 270.847 862.825 262.606 858.638C254.407 854.47 260.988 821.479 262.455 812.954L262.789 813.002C276.144 814.757 287.676 811.217 300.824 808.365Z" fill="#FCFCFB"/>
<path d="M118.42 887.04C130.424 892.81 144.583 893.88 157.679 893.32C156.606 896.82 155.712 900.86 154.832 904.45C150.481 904.54 143.054 905.27 139.745 908.25L139.765 909.36C143.978 913.04 150.253 907.8 157.833 911.17C167.344 915.41 179.047 924.58 183.32 934.04C184.497 949.39 139.345 943.34 130.47 940.67C112.471 935.26 108.78 934.1 112.524 914.12C114.248 904.92 116.162 896.07 118.42 887.04Z" fill="#FCFCFB"/>
<path d="M210.513 389.662C224.1 388.033 240.22 392.339 248.835 403.678C251.855 407.655 256.955 416.818 254.049 421.661C253.082 421.187 252.185 419.806 251.499 418.897C246.518 412.304 239.633 405.067 231.892 401.857C226.157 399.479 221.97 398.14 216.746 394.786C216.938 395.699 217.096 396.619 217.221 397.543C218.774 409.396 214.036 418.862 207.179 427.791C205.59 421.026 204.901 417.114 200.607 411.62C199.087 413.333 196.936 426.635 192.098 433.526C182.827 446.734 175.338 455.015 159.191 458.822C163.299 443.518 164.024 433.75 172.585 419.676C181.749 404.613 192.901 394.148 210.513 389.662Z" fill="#626262"/>
<path d="M64.316 661.92C72.1124 664.577 76.0219 665.198 84.0908 666.033C89.1279 675.113 91.5849 678.556 98.9449 685.405C97.5448 698.099 95.6699 709.744 101.413 721.511C102.108 722.931 103.716 725.246 103.775 726.605C57.6111 724.923 59.4639 699.342 64.316 661.92Z" fill="#919191"/>
<path d="M192.028 299.4C213.804 299.372 215.814 352.353 215.59 366.878C209.975 365.514 206.789 365.264 201.14 364.855C198.366 351.5 196.113 343.609 194.688 329.609C194.537 327.353 194.685 326.377 193.401 324.531L192.701 325.187C189.954 334.503 194.792 354.556 196.782 364.483C192.919 364.345 188.441 364.543 184.533 364.62C178.71 348.837 175.358 309.225 192.028 299.4Z" fill="#FCFCFB"/>
<path d="M146.026 552.836C150.879 552.878 166.155 557.095 169.679 560.703C176.844 568.046 179.943 585.431 180.137 595.48C180.459 612.122 174.343 631.287 164.651 644.742C161.897 648.563 157.455 653.017 154.135 656.436C152.695 655.753 149.399 651.847 148.114 650.433C158.606 637.064 166.949 615.248 166.606 598.033C166.323 583.835 163.58 564.578 148.717 558.546C144.529 556.845 141.619 557.089 137.188 557.144C140.071 555.669 143.104 554.25 146.026 552.836Z" fill="#919191"/>
<path d="M93.712 546.291C103.403 545.633 109.597 547.108 116.928 553.463C114.999 560.136 109.753 585.693 107.139 588.801C105.252 589.666 103.175 589.301 101.022 589.191C92.6222 588.771 84.1657 587.046 75.8975 585.492C77.2189 575.846 78.6763 561.111 83.7372 552.744C86.3441 548.436 89.0912 547.309 93.712 546.291Z" fill="#919191"/>
<path d="M266.882 457.53C272.275 460.129 283.17 480.99 285.049 487.2C290.003 503.568 285.729 513.824 278.109 527.955C278.081 519.448 277.844 515.341 275.11 507.328L272.724 520.356C268.343 532.635 260.781 531.63 249.541 531.081C255.097 527.723 257.82 525.31 261.525 519.826C276.013 498.376 271.304 480.54 266.882 457.53Z" fill="#626262"/>
<path d="M340.314 400.042C346.564 399.617 352.792 399.457 356.791 405.121C357.325 410.507 344.385 410.834 340.363 411.256L339.643 412.496C340.977 415.466 344.213 415.673 345.083 417.867C346.009 420.204 343.484 428.932 344.705 430.972L345.97 431.06C348.588 429.153 349.378 424.707 350.104 421.66L351.051 421.232C354.875 421.829 356.51 426.132 359.912 428.735C362.084 429.666 361.897 429.173 362.804 430.813C362.147 436.384 353.309 440.703 348.679 442.41C347.98 442.185 347.288 441.941 346.603 441.676C330.572 435.476 318.786 418.774 333.996 403.426C335.6 401.808 338.177 400.883 340.314 400.042Z" fill="#FCFCFB"/>
<path d="M75.1521 590.964C84.6418 592.591 93.848 593.761 103.347 595.169C98.2268 602.805 93.2196 610.227 89.2815 618.551C87.7357 621.805 86.2363 625.077 84.7826 628.374C80.7475 627.838 75.8531 627.551 71.7363 627.21C72.4793 615.632 74.0294 602.567 75.1521 590.964Z" fill="#919191"/>
<path d="M66.4796 633.353C71.343 632.81 77.3194 633.438 82.1913 634.017C80.445 640.263 79.9714 645.412 80.1994 651.792C80.2872 654.254 81.516 658.593 80.3847 660.275C65.7854 657.673 58.5242 656.722 63.0815 638.91C63.6953 636.515 64.8662 635.156 66.4796 633.353Z" fill="#919191"/>
<path d="M157.095 672.694C157.37 672.907 157.64 673.12 157.908 673.34C168.924 682.456 155.38 695.795 147.118 700.975C143.382 703.321 140.736 703.54 136.409 703.845C134.09 702.681 132.86 701.621 130.831 700.03L131.591 699.707C143.918 694.461 152.2 685.021 157.095 672.694Z" fill="#FCFCFB"/>
<path d="M104.08 689.854C108.466 693.041 110.706 694.54 115.48 697.118C113.734 706.801 114.255 716.806 114.901 726.544C100.563 720.804 102.722 702.127 104.08 689.854Z" fill="#919191"/>
<path d="M321.609 428.904C321.344 428.75 328.33 436.167 328.348 436.209C330.868 442.079 349.874 447.528 351.46 449.523C351.254 451.853 350.235 453.463 349.164 455.519C336.212 455.201 324.538 446.307 318.629 435.165C319.479 433.178 320.653 430.884 321.609 428.904Z" fill="#FCFCFB"/>
<path d="M360.133 363.605C360.854 363.824 361.669 364.253 362.368 364.58C366.592 370.798 355.09 389.028 350.868 393.82C349.965 394.845 348.537 394.389 347.286 394.292C345.189 394.072 344.813 394.086 342.879 393.345C342.198 389.98 357.308 367.496 360.133 363.605Z" fill="#FCFCFB"/>
<path d="M130.196 547.437C132.525 547.083 136.734 547.431 138.048 549.557C136.43 550.801 130.735 555.054 129.744 556.449C127.001 560.307 125.153 567.022 121.673 570.343C119.974 571.995 118.388 574.036 116.869 575.876C118.715 565.029 119.832 553.354 130.196 547.437Z" fill="#919191"/>
<path d="M118.382 535.499C120.331 535.792 126.167 541.599 127.956 543.244C125.285 544.981 122.331 547.278 119.735 549.198C117.557 547.309 116.249 546.474 113.847 544.914C106.991 541.983 104.865 541.544 97.5498 541.069C105.461 538.26 110.004 536.48 118.382 535.499Z" fill="#919191"/>
<path d="M260.323 414.457C264.1 419.857 270.476 444.755 270.642 450.848L270.012 451.457C267.046 447.346 263.894 443.165 261.504 438.707C257.511 431.259 261.191 423.256 260.406 415.235L260.323 414.457Z" fill="#FCFCFB"/>
<path d="M256.082 554.53C261.505 556.809 266.369 588.527 265.549 595.065L265.137 593.597C262.512 581.385 257.892 569.691 251.462 558.984L256.082 554.53Z" fill="#919191"/>
<path d="M359.098 394.273C370.442 393.72 368.473 406.973 363.839 413.048C362.013 415.441 360.063 416.397 357.494 417.74C355.986 417.6 355.757 417.364 354.487 416.61L354.298 415.555C362.603 406.528 364.254 407.375 357.653 396.98C357.251 396.346 358.602 394.953 359.098 394.273Z" fill="#FCFCFB"/>
<path d="M164.923 514.244C175.738 514.378 183.753 522.995 182.572 533.829C177.299 533.732 167.71 518.839 164.923 514.244Z" fill="#626262"/>
<path d="M168.813 462.266C169.487 463.649 168.587 474.626 168.456 476.839C164.577 476.434 162.485 476.215 158.625 476.388C158.325 476.394 157.875 476.192 157.551 476.08C157.109 473.416 157.74 467.841 157.964 464.918C161.067 464.456 165.661 463.097 168.813 462.266Z" fill="#626262"/>
<path d="M373.143 407.106C378.808 413.747 371.175 422.815 363.746 424.818L362.438 423.506C362.373 423.105 362.308 422.705 362.243 422.304C364.379 420.325 367.343 416.88 369.064 414.776C370.835 412.612 372.09 409.508 373.143 407.106Z" fill="#ECECEC"/>
<path d="M156.438 621.025C156.448 626.223 147.29 645.375 142.528 647.179L141.7 645.589C141.413 643.127 153.816 626.052 156.438 621.025Z" fill="#ECECEC"/>
<path d="M248.538 393.672C251.151 396.744 254.656 400.949 256.025 404.809C252.473 401.485 250.588 397.827 246.794 394.355L248.538 393.672Z" fill="#BDBCBC"/>
<path d="M637.074 322.639C634.825 316.659 632.728 309.985 635.751 303.708C637.159 300.786 639.743 298.601 642.864 297.703C650.483 295.585 661.54 301.314 669.305 301.911C698.727 304.174 739.632 299.294 748.86 336.388C768.597 344.453 767.463 374.249 759.826 390.493C757.113 396.253 754.767 400.852 751.427 406.324C752.792 425.56 743.619 441.639 722.688 441.351C720.469 445.839 715.587 452.697 715.678 456.752C719.116 460.814 728.423 472.465 731.452 474.432C759.332 492.538 787.766 500.813 783.006 541.69C779.995 567.534 770.468 603.828 757.211 627.679L762.105 691.853C762.886 702.687 763.836 713.577 763.946 724.436C764.013 731.084 756.876 732.821 751.579 734.35L752.134 791.973C752.17 799.328 751.817 816.866 752.676 823.612C752.097 860.259 754.974 898.04 754.005 934.72C753.968 936.13 751.878 937.96 750.872 938.92C750.506 939.28 750.134 939.62 749.75 939.96C751.25 944.74 752.615 948.71 754.407 953.38C757.168 962.01 760.521 971.2 754.352 979.15C743.149 989.86 711.728 990.06 701.458 977.42C694.698 969.09 697.429 951.47 698.77 941.12C696.192 939.41 693.619 938.05 693.101 934.7C691.401 923.75 690.584 912.67 689.249 901.66C686 876.05 682.928 850.436 680.021 824.794C678.113 828.413 679.545 842.898 678.924 848.474C679.143 874.45 679.052 900.42 678.643 926.39C678.552 930.23 676.089 932.51 675.809 934.51C675.26 938.42 676.248 946.18 676.626 950.36C676.388 952.95 676.12 958.41 674.438 960.31C669.726 965.66 660.376 966.43 653.708 966.07C651.239 965.92 649.959 964.71 648.252 963.24C636.348 969.23 590.187 975.85 579.844 962.1C574.64 955.18 583.347 945.32 590.766 941.23C588.165 939.73 587.828 939.11 586.056 936.73C578.467 934.18 570.008 932.08 562.219 929.85C562.219 926.92 562.08 924.26 561.914 921.33C562.798 889.24 558.99 859.888 547.69 829.705C546.432 826.342 544.902 807 545.951 803.715C551.904 803.782 557.107 802.43 562.781 800.602C570.59 798.079 573.679 791.705 577.045 784.892C581.761 784.666 608.005 783.746 610.639 785.136C609.645 768.488 608.794 747.72 608.823 731.188C605.052 729.335 600.442 727.221 598.87 722.967C596.665 716.995 604.598 651.225 606.272 639.885C595.434 639.653 584.434 638.819 576.53 630.403C570.281 623.749 568.728 614.157 569.14 605.352C569.44 598.911 570.862 592.634 572.717 586.479C578.697 566.65 602.835 509.113 617.276 496.066C625.542 488.595 636.361 484.866 645.571 478.816C648.764 476.72 651.562 473.983 654.378 471.414C613.668 458.702 617.526 414.547 624.896 381.513C626.712 373.372 627.712 364.97 629.717 356.8C623.091 342.187 625.779 333.527 637.074 322.639Z" fill="#373737"/>
<path d="M577.045 784.892C581.761 784.666 608.005 783.746 610.639 785.136C611.791 816.707 614.314 849.041 615.57 880.72C615.954 890.47 616.771 920.33 618.733 927.94C609.351 933.48 600.752 937 590.766 941.23C588.165 939.73 587.828 939.11 586.056 936.73C578.467 934.18 570.008 932.08 562.219 929.85C562.219 926.92 562.08 924.26 561.914 921.33C562.798 889.24 558.99 859.888 547.69 829.705C546.432 826.342 544.902 807 545.951 803.715C551.904 803.783 557.107 802.43 562.781 800.602C570.59 798.079 573.679 791.705 577.045 784.892Z" fill="#FCFCFB"/>
<path d="M678.924 848.474C678.089 842.783 678.4 820.924 678.552 814.776C679.393 818.511 679.649 820.949 680.021 824.794C678.113 828.413 679.545 842.898 678.924 848.474Z" fill="#BDBCBC"/>
<path d="M653.763 701.481L654.214 701.98C657.395 717.038 662.211 735.368 679.466 738.994C700.434 743.4 724.163 741.194 744.88 736.544C745.593 747.994 745.228 763.155 745.337 774.953L746.258 847.292L747.282 899.22C747.52 909.27 748.269 923.23 747.428 932.88C739.699 942.12 710.18 938.55 699.654 934.72C698.331 929.16 697.429 918.92 696.728 912.82L692.278 874.12C688.073 837.822 683.27 801.601 677.869 765.459C677.053 760.109 676.26 755.081 675.206 749.767C671.555 747.677 658.681 738.982 655.207 740.755C656.225 744.314 665.179 750.395 668.562 752.802C672.975 777.878 672.347 812.515 672.353 838.517C672.573 868.596 672.353 898.68 671.707 928.75C658.596 932.42 636.093 933.39 624.53 925.37C623.609 917.32 623.5 907.66 623.171 899.42C622.707 887.74 622.116 876.05 621.403 864.379C619.014 822.862 615.893 774.216 615.43 733.052C642.371 740.261 647.68 724.527 653.763 701.481Z" fill="#FCFCFB"/>
<path d="M651.685 331.544C660.047 337.751 666.411 341.086 676.998 342.851C681.46 343.583 685.976 343.877 690.493 343.732C697.551 343.512 719.86 339.617 720.756 348.559C721.134 352.335 714.764 359.904 713.874 364.605C712.088 374.046 715.624 381.606 716.806 390.616C717.251 394.014 715.715 401.281 716.361 404.988C716.642 406.578 717.208 407.374 718.33 408.472C719.811 408.873 720.981 409.253 722.261 408.229C725.961 405.268 732.069 399.753 737.359 401.506C750.836 405.972 744.57 426.85 734.464 431.76C727.296 435.243 724.224 434.983 717.397 434.298C714.978 442.252 713.051 445.473 708.718 452.413C709.394 455.76 710.711 461.941 708.578 464.613C702.287 472.488 683.691 481.478 674.505 484.013L670.068 479.634C668.093 476.658 667.697 474.893 666.886 471.481C674.981 471.004 678.504 470.323 685.397 466.157C686.482 464.072 686.47 464.813 686.22 462.788C684.501 461.904 682.642 462.649 680.783 463.297C660.279 470.342 636.276 461.192 629.839 439.382C623.372 417.461 628.541 396.583 632.753 374.934C636.099 357.73 636.447 343.62 651.685 331.544Z" fill="#FCFCFB"/>
<path d="M666.886 471.481C674.98 471.004 678.503 470.323 685.397 466.157C684.507 475.036 675.504 474.765 670.067 479.634C668.093 476.658 667.696 474.893 666.886 471.481Z" fill="#ECECEC"/>
<path d="M654.89 388.104L656.914 389.752C659.175 395.921 647.972 403.352 646.686 408.784C645.613 413.32 652.58 413.469 654.695 416.925C654.311 418.898 653.714 419.156 652.135 420.609C642.578 418.72 637.495 410.835 643.736 402.508C647.375 397.66 651.282 393.053 654.89 388.104Z" fill="#373737"/>
<path d="M678.534 428.482C680.04 429.136 680.052 429.244 680.924 430.716C680.784 434.023 675.834 436.28 673.122 437.343C664.229 440.833 656.628 439.355 648.089 435.691C646.12 434.061 644.81 432.642 645.547 429.994C648.784 428.587 654.812 432.025 658.14 433.053C664.79 435.108 672.72 431.515 678.534 428.482Z" fill="#373737"/>
<path d="M681.649 383.79C690.682 386.395 687.933 398.059 681.235 402.729C672.707 400.421 675.121 388.412 681.649 383.79Z" fill="#373737"/>
<path d="M642.066 377.916C651.721 377.116 649.801 389.453 644.23 394.658C633.155 395.136 637.562 383.16 642.066 377.916Z" fill="#373737"/>
<path d="M679.004 364.781C686.879 363.684 704.128 367.053 699.953 377.79C697.088 376.889 693.59 372.222 688.616 370.659C685.105 369.556 680.314 369.92 678.589 368.641C678.108 366.382 678.187 367.202 679.004 364.781Z" fill="#373737"/>
<path d="M642.993 357.352C648.192 357.175 651.752 358.233 653.794 363.286C653.647 365.346 654.001 364.685 652.672 365.895C650.429 365.761 650.703 365.439 648.716 363.83C643.889 361.281 639.226 365.421 637.044 362.654C638.184 359.209 639.897 358.768 642.993 357.352Z" fill="#373737"/>
<path d="M731.288 482.886C742.515 488.309 769.432 503.659 773.997 516.877C783.841 545.383 758.174 634.199 731.257 647.155C716.476 654.272 656.006 642.243 638.75 633.95C649.532 630.964 662.04 626.857 672.115 621.921C674.401 620.799 675.102 619.69 676.12 617.363C679.594 616.552 680.874 615.937 684.153 614.431C684.598 612.481 685.001 609.837 685.366 607.814C693.217 606.345 701.116 605.675 709.089 606.668C713.295 607.192 719.512 611.055 722.931 607.856L722.889 607.003C720.658 603.853 716.812 602.573 713.319 601.397C721.194 582.86 725.388 561.867 734.159 543.518C735.768 540.149 739.254 532.72 738.785 529.296C732.726 527.498 716.531 574.816 714.898 579.776C707.017 576.327 702.305 576.132 694.016 575.895C700.312 563.384 721.694 537.516 725.583 526.736C724.016 523.08 721.243 519.509 718.915 516.231C736.633 512.739 731.337 503.769 731.495 489.29C731.513 487.188 731.355 484.994 731.288 482.886Z" fill="#FCFCFB"/>
<path d="M751.311 636.948C752.049 640.708 753.036 658.581 753.402 663.376C755.121 683.967 756.517 704.576 757.59 725.21C741.602 733.065 701.867 736.666 683.941 732.894C676.334 731.297 671.555 728.884 667.343 722.413C656.598 700.28 655.598 671.28 656.488 647.252C676.736 652.054 706.292 657.862 726.845 655.327C739.383 653.779 744.668 646.326 751.311 636.948Z" fill="#FCFCFB"/>
<path d="M640.031 489.04C641.457 490.747 632.491 498.985 633.247 504.305C633.802 508.211 634.533 508.187 638.02 511.41C634.667 513.982 631.973 515.932 629.029 519.009C628.365 534.957 632.095 558.472 635.734 573.823C628.182 566.151 626.755 564.755 616.522 561.641C617.43 555.572 621.154 527.26 619.368 523.001L618.564 523.123C614.199 530.496 613.261 550.386 611.079 560.087C609.403 561.568 608.065 561.434 605.607 561.964C600.52 567.308 594.488 572.385 590.707 578.637C588.806 581.781 589.452 582.975 590.375 586.297C589.312 587.771 588.959 588.1 588.433 589.8L589.373 591.086C590.67 591.665 617.247 586.449 621.483 586.004C633.509 584.73 645.712 582.726 657.829 581.976C661.297 581.745 664.765 581.568 668.24 581.452C664.808 594.279 664.217 604.2 668.38 616.997C652.295 625.083 610.237 635.955 592.986 631.829C587.171 630.44 581.982 627.375 578.881 622.14C573.556 613.152 575.415 601.391 577.998 591.824C582.656 574.572 606.776 516.883 617.698 504.683C623.854 497.809 632.138 493.556 640.031 489.04Z" fill="#FCFCFB"/>
<path d="M644.736 302.984C651.466 303.299 660.139 307.353 667.289 308.01C693.267 310.397 740.517 305.498 743.833 342.024C755.889 344.794 758.321 355.445 758.766 366.412C759.278 378.871 753.585 389.8 748.13 400.555C744.296 397.768 743.412 397.292 738.969 395.311C732.49 394.425 728.808 396.111 723.249 399.134C723.127 387.351 718.653 377.369 719.69 366.213C720.098 362.313 725.901 354.343 726.236 351.052C728.125 332.429 700.733 338.137 691.908 338.179C686.257 338.188 680.619 337.54 675.115 336.248C660.407 332.817 656.122 328.75 648.644 316.749L648.18 326.624C641.646 320.663 634.862 309.526 644.736 302.984Z" fill="#626262"/>
<path d="M612.108 639.605L629.656 636.083C637.232 640.232 642.84 643.444 651.038 646.149L651.05 652.414C650.928 660.165 652.282 673.23 651.203 680.183C646.607 709.823 641.414 744.259 604.477 720.859C606.626 696.136 608.952 671.432 611.456 646.74L612.108 639.605Z" fill="#FCFCFB"/>
<path d="M612.108 639.605L629.656 636.083C637.233 640.232 642.84 643.444 651.039 646.149L651.051 652.414C643.401 650.866 636.715 645.01 628.444 644.717C622.793 644.516 616.966 645.528 611.456 646.74L612.108 639.605Z" fill="#ECECEC"/>
<path d="M622.69 932.38C625.109 932.23 630.351 934.68 633.015 935.61C643.779 939.39 657.67 937.49 669.318 937.4C669.769 943.46 669.812 949.14 669.879 955.22C658.853 958.84 658.493 956.41 647.57 956.99C646.376 957.05 635.173 960.43 632.503 961.07C621.233 963.09 609.737 963.58 598.335 962.52C559.515 958.9 616.68 936.56 622.69 932.38Z" fill="#626262"/>
<path d="M720.055 470.331C728.649 476.665 726.559 498.096 726.516 508.272C722.396 510.021 714.575 510.734 712.558 514.244C712.399 518.01 717.91 523.872 720.415 527.041C711.631 541.52 698.49 559.667 688.707 574.432C688.128 575.194 687.695 575.486 686.97 576.108C685.093 576.217 679.729 574.987 676.968 574.694C687.403 539.856 707.676 505.195 720.055 470.331Z" fill="#FCFCFB"/>
<path d="M704.927 942.75C720.134 947 728.692 945.26 743.802 943.26C747.179 952.59 755.377 967.91 747.441 976C737.244 982.27 708.315 982.6 704.122 967.58C702.293 961.03 704.092 949.79 704.927 942.75Z" fill="#626262"/>
<path d="M653.635 480.875C654.726 482.215 652.404 492.136 652.105 494.775C648.966 522.379 648.253 548.747 649.844 576.486C647.016 576.973 643.986 577.223 641.115 577.509C640.677 574.255 640.104 571.86 639.336 568.655C635.685 553.256 633.789 537.486 633.691 521.66C637.184 517.663 643.474 515.304 643.34 510.277C642.347 507.894 639.957 506.322 637.903 504.64L638.11 504.147C641.243 496.718 648.021 486.755 653.635 480.875Z" fill="#FCFCFB"/>
<path d="M668.69 516.279C671.104 516.255 671.969 516.279 674.377 516.627C676.931 519.204 675.809 552.671 675.596 558.448C675.425 563.122 673.048 570.246 671.262 574.798C668.653 575.035 665.935 575.182 663.314 575.371L654.75 575.773C656.377 556.474 661.351 534.189 668.69 516.279Z" fill="#919191"/>
<path d="M714.234 466.941C717.373 472.229 704.372 496.591 699.99 501.021C698.082 502.946 695.132 505.615 692.974 507.425L688.646 500.375C685.678 495.902 683.142 492.185 679.869 487.931C691.535 483.964 706.17 476.337 714.234 466.941Z" fill="#FCFCFB"/>
<path d="M690.268 582.378C698.661 581.671 704.774 582.055 712.211 585.974C711.229 589.471 709.547 596.827 707.194 599.66C706.603 600.367 705.658 600.062 704.464 600.014C695.955 599.794 691.633 600.202 683.258 601.744C683.301 594.95 682.015 583.877 690.268 582.378Z" fill="#FCFCFB"/>
<path d="M685.891 506.334C687.939 508.772 689.31 511.813 691.724 512.91C694.198 513.044 695.613 511.941 697.837 510.722C693.65 520.911 688.573 531.495 684.178 541.77L680.283 551.465C680.697 539.862 680.064 527.425 679.759 515.743L685.891 506.334Z" fill="#FCFCFB"/>
<path d="M673.877 490.503C677.711 493.02 681.076 498.473 683.502 502.355C681.155 506.609 680.137 509.156 675.956 511.624C673.816 511.465 670.702 510.85 668.513 510.478C663.704 499.674 665.588 497.815 673.877 490.503Z" fill="#919191"/>
<path d="M675.937 581.001C677.748 580.934 678.644 581.001 680.454 581.19C680.875 583.103 678.833 586.589 678.589 589.977C678.107 596.778 678.711 602.146 679.363 608.88C678.351 610.793 677.821 610.647 675.742 611.86C674.718 612.055 674.682 611.939 673.603 611.835C669.251 607.332 670.299 584.523 675.937 581.001Z" fill="#FCFCFB"/>
<path d="M661.73 505.256C662.065 505.688 664.534 511.715 664.96 512.739C661.864 523.866 658.036 531.69 654.934 544.896L654.598 546.145L654.214 546.212C653.971 534.999 655.104 522.16 655.811 510.832L655.927 511.356C658.633 509.028 659.475 508.059 661.73 505.256Z" fill="#FCFCFB"/>
<path d="M661.431 474.714C665.082 479.831 663.198 480.196 670.122 487.084C666.331 490.673 664.247 493.385 661.425 497.73L657.469 503.05C657.743 493.605 658.609 483.763 661.431 474.714Z" fill="#FCFCFB"/>
<path d="M610.414 566.254C617.015 566.894 628.432 571.41 630.656 578.094L629.498 578.789L625.737 579.295C622.982 576.711 619.472 573.232 616.454 571.05C614.656 569.752 611.292 569.301 609.334 567.528L610.414 566.254Z" fill="#FCFCFB"/>
<path d="M640.36 327.185C641.603 327.518 644.164 329.625 645.34 330.5C639.056 335.381 636.721 337.523 633.911 344.91C633.71 345.743 633.582 345.736 633.082 346.5C629.224 340.88 636.849 331.035 640.36 327.185Z" fill="#626262"/>
<path d="M601.501 572.506C606.704 571.836 618.021 574.45 618.856 580.142C618.289 580.185 616.655 580.422 616.247 580.392C613.321 580.178 602.899 575.919 601.033 574.115L601.501 572.506Z" fill="#FCFCFB"/>
<path d="M596.873 579.654C599.094 579.569 604.033 579.697 605.207 581.836L603.887 582.445C601.015 583.14 598.194 584.2 595.615 582.933C595.511 581.019 595.55 581.617 596.873 579.654Z" fill="#ECECEC"/>
<path d="M406.464 471.906C417.679 451.119 428.99 437.574 450.795 426.546C470.196 416.734 498.553 415.316 519.101 422.589C543.714 431.08 563.339 449.975 572.75 474.246C577.062 485.536 576.369 493.55 583.741 503.757C587.743 509.296 585.061 529.375 582.161 535.962C578.087 545.219 574.036 550.715 564.016 555.115C552.44 574.322 536.289 584.493 514.973 590.318C529.658 596.162 557.903 607.381 559.665 625.37C584.764 652.365 596.844 700.798 588.313 736.617C586.917 742.473 582.717 752.625 582.077 757.312C580.486 768.944 581.846 773.247 577.046 784.892C573.68 791.705 570.591 798.079 562.781 800.602C557.107 802.43 551.905 803.782 545.951 803.715C544.903 807 546.432 826.342 547.691 829.705C558.99 859.888 562.799 889.24 561.915 921.33C560.301 929 563.326 937.22 558.976 945.21C555.787 951.07 549.249 954.33 542.634 956.14C526.786 960.46 502.865 961.49 487.621 954.74C484.427 953.32 481.22 949.03 480.467 945.67C478.33 936.15 482.372 926 487.085 918.03C483.933 892.71 484.751 868.742 486.436 843.471C487.961 820.601 485.134 800.803 488.381 777.33C481.976 777.141 478.567 777.013 472.267 775.94C470.687 790.815 471.5 808.706 469.894 824.696C479.841 843.026 482.5 903.08 477.278 924.85C476.192 929.38 473.996 934.69 469.315 936.96C450.332 945.62 416.661 947.84 396.508 942.57C367.157 934.9 393.214 902.68 409 894.57L409.611 894.26C409.276 876.01 409.898 856.743 411.747 838.584C412.065 832.435 415.071 825.044 415.318 819.133C416.436 792.338 418.456 765.751 427 740.042C417.661 719.305 415.541 707.605 412.992 684.552C406.484 688.556 395.61 694.022 387.726 693.181C355.854 689.756 341.2 650.08 342.455 622.055C337.314 614.919 330.527 600.891 328.913 591.988C327.981 588.448 331.421 579.142 335.071 578.161C341.782 576.358 340.945 575.194 345.338 570.014C347.321 569.277 349.933 568.661 352.015 568.101C348.931 559.057 340.302 534.347 360.172 539.941C367.353 541.958 374.917 569.551 377.205 576.638C391.975 582.128 390.158 599.313 387.114 611.598C390.441 617.399 393.754 623.968 396.904 629.922C405.055 621.043 415.595 610.781 424.471 602.622C428.883 598.563 443.126 592.53 449.258 589.282C445.53 587.619 441.869 585.809 438.282 583.865C414.575 570.928 405.493 556.151 398.152 531.331C385.16 521.325 387.426 500.149 392.738 486.658C395.768 478.959 398.998 475.07 406.464 471.906Z" fill="#373737"/>
<path d="M483.693 425.159C501.122 423.751 518.537 428.05 533.307 437.407C552.727 449.51 564.864 467.354 569.952 489.503C552.565 486.92 546.45 499.022 542.086 513.952C537.935 528.15 538.75 550.898 556.064 555.438C542.706 572.202 525.137 581.866 504.313 586.242C502.609 586.498 500.901 586.735 499.192 586.949C416.02 597.21 374.914 519.564 424.805 455.723C439.403 437.045 460.551 427.759 483.693 425.159Z" fill="#FCFCFB"/>
<path d="M445.907 463.556C462.235 462.772 488.02 467.606 504.428 471.481C533.884 478.438 536.711 514.725 519.984 535.487C513.49 543.549 505.163 545.444 495.074 546.187C477.219 546.51 433.973 540.776 419.102 530.618C402.645 519.381 407.996 488.23 419.686 475.153C427.11 466.846 434.69 464.429 445.907 463.556Z" fill="#373737"/>
<path d="M490.104 493.745C504.011 492.788 503.042 513.19 492.397 520.612C478.052 522.763 479.905 500.198 490.104 493.745Z" fill="#FCFCFB"/>
<path d="M437.89 486.481C438.664 486.365 439.446 486.316 440.229 486.322C451.879 486.469 448.108 507.005 440.028 513.354C424.725 513.677 429.771 493.921 437.89 486.481Z" fill="#FCFCFB"/>
<path d="M446.732 548.345C450.519 549.423 453.457 552.263 457.618 553.037C461.682 553.793 471.257 550.045 473.012 554.14C472.609 556.382 471.414 557.467 469.956 559.185C459.957 565.31 440.148 559.771 446.732 548.345Z" fill="#373737"/>
<path d="M449.623 596.625C449.691 598.21 449.577 601.525 449.992 602.853C455.281 619.709 482.304 617.332 495.056 613.396C504.482 610.489 511.627 606.01 516.061 597.649C522.822 600.062 528.049 602.67 534.265 606.144C525.575 609.313 520.333 614.919 516.212 623.219C510.706 634.334 509.904 647.191 513.984 658.904C516.85 667.142 521.43 672.962 529.285 676.728C532.209 677.55 532.838 677.227 534.521 680.232C541.546 692.76 535.327 715.99 531.344 729.091C528.305 727.598 527.249 727.068 523.687 727.233C503.737 730.92 481.466 749.201 481.531 770.785C408.141 766.483 402.377 628.404 449.623 596.625Z" fill="#FCFCFB"/>
<path d="M529.285 676.728C532.209 677.55 532.838 677.227 534.521 680.232C541.547 692.76 535.328 715.99 531.344 729.091C528.305 727.598 527.25 727.068 523.688 727.233C527.783 714.43 529.065 707.306 529.466 693.547C529.607 688.708 528 680.469 529.285 676.728Z" fill="#ECECEC"/>
<path d="M524.25 827.834C543.876 825.635 546.446 843.154 550.008 858.468C554.861 879.34 556.002 901.25 555.791 922.62C548.133 913.53 540.828 907.3 528.916 904.73C513.864 902.15 504.995 904.74 492.601 912.85C491.17 889.65 490.538 872.1 491.926 848.413C507.145 861.813 510.981 838.133 519.207 830.522C520.492 829.334 522.617 828.505 524.25 827.834Z" fill="#FCFCFB"/>
<path d="M457.293 824.123C470.523 826.409 471.314 853.599 472.335 864.964C472.933 871.64 477.204 911.96 469.193 913.49C461.88 914.88 450.627 902.31 442.808 897.61C433.242 892.57 426.837 891.45 416.353 891.81C415.593 874.1 416.32 856.378 418.527 838.797C429.97 854.848 442.785 834.757 451.12 827.268C452.865 825.696 455.092 824.867 457.293 824.123Z" fill="#FCFCFB"/>
<path d="M523.826 754.149L529.969 754.106C525.79 760.529 521.185 770.322 522.803 778.207C524.293 785.465 528.174 784.788 531.085 786.696C531.566 793.441 521.563 800.37 538.628 803.435C539.561 810.388 539.886 817.554 540.127 824.556L539.551 824.312C530.748 820.76 524.839 821.131 516.332 824.654C510.51 827.286 500.438 832.764 494.354 829.888C491.518 822.503 492.721 787.549 494.863 778.938C495.888 774.764 497.715 770.827 500.244 767.354C506.356 758.945 513.9 755.703 523.826 754.149Z" fill="#FCFCFB"/>
<path d="M515.234 910.12C535.605 908.38 542.129 918.32 555.189 929.9C555.226 935.43 555.299 939.08 551.486 943.59C546.446 949.55 533.682 951.72 526.168 952.29C524.408 952.65 520.713 952.71 518.851 952.7C505.892 952.65 481.708 953.46 486.786 933.52C490.367 919.45 501.979 912.84 515.234 910.12Z" fill="#FCFCFB"/>
<path d="M418.929 898.49C419.301 898.45 419.673 898.42 420.046 898.39C433.374 897.43 443.759 904.58 453.016 913.18C459.962 919.64 463.359 920.17 472.439 919.51C471.757 922.24 471.039 925.4 469.364 927.65C464.123 934.69 450.426 936.08 442.053 937.03C431.459 939.48 403.744 938.41 392.959 934.22C386.583 931.74 390.87 921.31 393.775 917.02C400.295 907.38 407.34 901.12 418.929 898.49Z" fill="#FCFCFB"/>
<path d="M563.156 690.134C571.213 689.372 583.468 692.188 584.292 701.804C585.522 716.154 584.309 735.636 577.787 748.756C576.226 751.894 569.352 752.284 566.225 752.613C559.247 751.791 546.072 748.518 544.706 740.091C542.76 728.092 543.044 710.274 548.08 699C550.169 694.327 558.598 691.2 563.156 690.134Z" fill="#FCFCFB"/>
<path d="M383.783 618.484C385.918 619.782 388.731 628.27 389.984 631C396.11 644.364 402.13 661.341 391.462 674.193C383.84 683.37 374.212 682.011 365.823 674.948C354.82 661.859 350.359 644.358 347.928 627.801C363.393 635.607 373.168 630.184 383.783 618.484Z" fill="#FCFCFB"/>
<path d="M428.569 756.873C429.355 757.957 430.655 760.505 431.401 761.766C439.185 774.971 450.129 781.924 465.623 782.911C465.792 793.746 464.66 807.39 464 818.414L457.493 817.713C443.731 817.932 434.356 823.648 421.783 816.939C421.254 801.26 425.17 772.034 428.569 756.873Z" fill="#FCFCFB"/>
<path d="M543.754 624.882C546.38 624.663 548.842 624.724 551.121 626.217C563.507 634.303 576.159 662.2 579.411 675.613C571.019 672.931 566.301 672.834 558.12 676.106C550.491 679.909 548.46 682.237 543.874 689.5C539.385 671.694 520.094 638.429 543.754 624.882Z" fill="#FCFCFB"/>
<path d="M542.415 749.042C551.076 758.506 563.56 760.23 575.651 758.256C575.472 768.847 572.73 788.536 562.386 793.795C562.287 790.352 570.846 785.745 566.539 780.255C561.148 783.033 559.587 794.843 549.113 797.226L548.439 796.799C550.723 793.996 551.685 792.625 553.552 789.523C554.76 786.635 556.696 783.167 555.695 780.315C550.998 780.651 544.223 799.779 535.905 796.903C533.428 791.583 547.363 771.796 542.308 765.642L540.531 765.502C537.324 767.385 535.377 780.352 530.353 779.889C529.457 778.603 529.202 775.709 529.296 774.112C529.943 763.149 535.07 756.221 542.415 749.042Z" fill="#ECECEC"/>
<path d="M368.244 582.25C371.804 582.031 375.296 581.708 378.102 584.279C386.707 591.884 382.785 611.049 375.56 618.411C365.309 628.849 355.584 626.174 346.32 617.277C343.803 614.047 342.999 612.25 341.39 608.514C342.017 608.563 345.536 608.776 345.884 608.587C352.783 604.919 356.386 606.254 361.066 599.435C363.978 599.264 372.903 597.923 372.963 594.279L371.753 593.195C369.364 592.47 366.086 593.237 363.481 593.627C361.135 592.451 359.119 591.738 357.628 589.557C356.452 584.109 364.285 583.085 368.244 582.25Z" fill="#ECECEC"/>
<path d="M535.291 611.439C541.014 611.22 546.617 612.932 549.471 618.344C539.875 619.635 535.941 620.964 531.036 630.196C525.135 641.311 525.539 653.505 529.212 665.308C529.794 667.252 530.303 667.679 529.703 669.287L528.383 669.153C510.332 656.838 514.057 621.202 535.291 611.439Z" fill="#919191"/>
<path d="M571.042 502.282C585.804 502.3 579.364 535.268 568.199 543.86C560.047 543.592 560.14 530.393 560.924 524.738C562.132 516.023 563.953 507.998 571.042 502.282Z" fill="#ECECEC"/>
<path d="M523.568 732.79C526.086 732.87 527.169 733.144 528.475 735.277C528.741 738.695 526.746 743.729 525.633 747.281C524.858 747.379 524.084 747.488 523.311 747.61C508.227 749.835 499.87 756.976 491.047 768.859C490.357 769.798 490.22 769.798 489.307 770.565C488.574 770.047 488.221 770.041 488.183 769.097C487.448 750.572 508.096 735.727 523.568 732.79Z" fill="#919191"/>
<path d="M414.209 620.97L414.795 621.537C418.368 641.89 413.04 655.351 413.132 676.094C410.863 677.764 405.476 682.163 403.166 682.907L402.896 682.291L404.569 679.695C413.45 660.683 404.559 653.444 399.201 636.351C403.036 631.975 410.029 624.687 414.209 620.97Z" fill="#FCFCFB"/>
<path d="M561.378 494.464C563.983 494.202 569.28 494.208 570.483 496.871C566.879 498.851 564.566 499.71 562.164 503.422C556.147 512.715 554.027 525.682 555.621 536.523C556.523 542.659 558.978 545.846 563.907 549.204C538.16 553.597 543.264 505.158 561.378 494.464Z" fill="#ECECEC"/>
<path d="M508.253 595.449C509.623 596.193 509.037 595.657 509.757 597.381C509.588 598.021 509.295 599.057 508.788 599.502C495.695 611.001 471.631 615.863 457.38 605.035C456.158 603.347 454.614 600.337 455.395 598.228L456.219 597.966C470.681 607.625 494.144 604.09 508.253 595.449Z" fill="#919191"/>
<path d="M354.845 545.072C355.417 545.194 356.999 545.566 357.384 545.816C362.637 549.216 368.811 569.813 370.446 575.486L369.298 575.864L362.577 577.345C359.53 568.637 350.981 553.39 354.845 545.072Z" fill="#FCFCFB"/>
<path d="M421.531 823.222C429.708 826.896 436.333 825.592 445.137 824.818C442.917 827.962 441.057 830.272 438.595 833.228C426.738 844.763 417.404 837.493 421.531 823.222Z" fill="#919191"/>
<path d="M431.597 747.72C432.171 748.012 432.249 748.031 432.622 748.573C438.247 756.763 445.703 764.752 454.493 769.511C457.196 770.974 460.295 771.961 463.055 773.253C465.273 774.295 465.253 774.654 465.894 776.483C455.869 781.266 436.325 763.82 433.649 754.764C432.942 752.376 432.171 750.17 431.597 747.72Z" fill="#919191"/>
<path d="M457.263 590.708C468.804 593.53 481.188 595.833 493.098 594.2C495.382 593.889 497.319 593.725 499.627 593.725L499.96 594.279L498.524 595.608C490.207 599.721 459.615 602.488 457.263 590.708Z" fill="#919191"/>
<path d="M350.929 573.993L352.888 574.225C354.923 575.456 355.912 577.375 357.272 579.398C344.651 589.703 355.108 589.892 356.043 597.667C355.196 598.076 354.249 598.466 353.38 598.85C346.299 597.546 344.962 586.492 345.879 580.721C346.447 577.144 348.239 575.943 350.929 573.993Z" fill="#FCFCFB"/>
<path d="M565.24 679.208C570.739 678.824 583.066 680.652 582.152 688.221C581.261 688.349 573.457 684.68 569.146 683.894C559.371 683.748 557.231 685.241 548.722 689.927C554.047 683.784 557.275 681.383 565.24 679.208Z" fill="#919191"/>
<path d="M508.828 834.556L509.203 835.025C508.922 835.775 508.631 836.518 508.332 837.255C506.259 842.356 503.348 849.815 496.99 845.951C495.482 843.879 493.867 841.332 493.921 838.73C496.219 835.372 500.157 837.146 503.856 836.28C505.616 835.866 507.167 835.232 508.828 834.556Z" fill="#919191"/>
<path d="M338.844 582.579C340.8 584.712 340.361 590.647 341.685 593.841C343.033 597.095 344.608 597.911 346.022 601.299C344.948 602.914 344.81 602.567 342.709 603.536C341.369 602.762 340.136 601.817 339.04 600.72C333.329 595.114 332.819 588.259 338.844 582.579Z" fill="#ECECEC"/>
<path d="M402.699 661.908C403.59 663.322 403.356 663.291 403.405 664.882C403.783 677.215 395.174 686.581 383.006 686.856L382.62 686.447L382.676 685.783C395.082 682.157 399.253 673.248 402.699 661.908Z" fill="#989797"/>
<path d="M402.067 482.672C402.273 483.72 400.046 492.861 399.596 494.305C397.135 502.209 397.729 511.648 396.333 518.955C393.085 508.638 395.789 491.466 402.067 482.672Z" fill="#ECECEC"/>
<path d="M431.017 605.321C431.063 606.625 424.554 617.521 423.513 620.318C422.284 623.621 421.624 625.815 420.691 629.331C417.358 620.525 423.533 610.087 431.017 605.321Z" fill="#919191"/>
<path d="M536.769 732.644C537.67 733.765 537.598 741.632 537.661 743.655L533.631 749.317L532.544 748.073C531.775 744.265 535.288 736.532 536.769 732.644Z" fill="#ECECEC"/>
<path d="M265.506 188.648C278.672 172.628 294.116 150.813 306.722 133.887L357.175 67.376C369.665 50.797 384.669 28.813 399.755 14.776C404.433 11.101 411.945 9.804 417.56 10.636C426.626 11.979 432.765 18.759 438.143 25.538C447.942 37.888 456.814 51.003 466.309 63.587C497.48 104.9 526.158 148.227 556.783 189.888C562.975 183.202 568.965 175.738 574.927 168.794C588.325 153.333 601.541 137.718 614.577 121.951C623.208 111.614 631.583 100.953 641.097 91.422C650.344 82.163 662.991 81.883 672.055 91.585C696.6 117.86 718.836 146.377 741.87 173.993C771.615 209.654 801.993 244.802 832 280.234V293.745C803.499 258.433 771.163 224.169 743.01 188.44C741.821 186.937 739.925 184.938 738.597 183.463C726.601 190.08 702.33 166.465 690.255 173.353C682.27 177.906 677.76 193.708 671.811 201.666C660.931 213.698 637.501 176.025 627.042 172.857C612.492 168.451 586.822 195.403 574.438 182.469C572.825 184.195 571.36 185.657 570.068 187.656L562.02 197.206C574.716 215.541 587.699 232.463 601.806 249.741C605.794 254.625 626.402 278.799 626.042 283.012C624.67 284.272 625.237 283.893 622.988 284.066C618.868 282.477 609.379 270.473 606.001 266.506C575.834 230.931 547.673 193.702 521.652 154.993C520.034 152.618 518.576 150.937 516.718 148.757C499 163.934 469.197 119.652 451.7 133.498C440.485 142.372 434.808 172.541 418.905 174.747C405.291 174.63 373.744 131.31 365.026 131.475C348.704 131.782 322.549 167.568 300.289 156.765C299.257 158.239 297.613 160.435 296.816 161.958C283.933 177.907 272.29 194.777 259.411 210.789C245.355 228.263 229.912 244.37 214.655 260.786C212.081 263.556 210.611 266.273 206.604 264.462C205.313 260.375 211.047 255.077 213.662 252.032C228.965 234.216 245.182 216.843 259.015 197.83L260.06 196.638C259.862 194.532 258.627 193.622 257.141 191.994C240.923 199.506 216.337 178.285 203.715 181.853C195.304 184.23 189.51 204.689 178.043 210.427C166.109 210.813 153.993 188.406 142.669 185.503C134.785 183.481 127.693 189.609 120.86 193.47C111.194 198.932 103.28 204.087 91.6041 200.936L88.0031 206.131C76.6415 217.865 65.3854 231.514 54.2899 243.708C35.8718 263.949 17.2175 284.555 0 305.813V292.089C27.1417 259.899 56.4054 229.182 83.7833 196.971C100.179 177.291 116.768 157.773 133.548 138.421C142.58 127.944 151.937 116.972 161.968 107.444C166.981 102.757 177.612 98.697 184.099 102.527C197.208 110.907 208.224 124.844 218.615 136.578C233.741 153.656 251.279 171.059 265.506 188.648Z" fill="#373737"/>
<path d="M300.289 156.765C309.298 145.342 318.363 132.672 327.15 120.963L358.016 80.394C371.18 62.842 384.378 45.323 398.225 28.291C405.507 19.333 416.487 13.884 425.496 24.213C437.364 37.82 448.567 53.515 459.236 68.19C478.859 94.713 498.023 121.573 516.719 148.757C499.001 163.934 469.198 119.652 451.7 133.498C440.486 142.372 434.809 172.541 418.905 174.747C405.292 174.63 373.744 131.31 365.027 131.475C348.705 131.782 322.549 167.568 300.289 156.765Z" fill="#FCFCFB"/>
<path d="M574.438 182.469C599.235 156.774 620.922 125.009 645.571 98.9C650.423 93.761 656.085 91.411 662.802 94.367C661.906 104.684 663.271 116.981 664.155 127.412C665.191 140.389 666.386 153.353 667.751 166.299C669.123 178.292 670.903 189.566 671.811 201.666C660.931 213.698 637.501 176.024 627.041 172.857C612.492 168.451 586.822 195.403 574.438 182.469Z" fill="#FCFCFB"/>
<path d="M91.6045 200.936C97.5406 193.24 107.995 181.643 114.596 173.727C124.845 161.384 135.309 149.222 145.984 137.246C151.409 131.091 156.771 124.685 162.487 118.821C168.175 112.986 174.118 107.706 182.558 111.035C179.926 133.496 179.157 153.326 178.779 175.971C178.622 185.368 179.699 201.701 178.043 210.427C166.109 210.813 153.994 188.406 142.67 185.503C134.785 183.481 127.693 189.609 120.86 193.47C111.194 198.932 103.281 204.087 91.6045 200.936Z" fill="#FCFCFB"/>
<path d="M182.558 111.035C207.173 135.14 233.758 166.042 257.141 191.994C240.924 199.506 216.338 178.285 203.715 181.853C195.304 184.23 189.511 204.689 178.043 210.427C179.699 201.701 178.622 185.368 178.779 175.971C179.157 153.326 179.926 133.496 182.558 111.035Z" fill="#ECECEC"/>
<path d="M662.803 94.367C690.646 123.433 712.655 154.556 738.597 183.463C726.601 190.08 702.33 166.465 690.255 173.353C682.271 177.906 677.76 193.708 671.811 201.666C670.903 189.566 669.123 178.292 667.752 166.299C666.387 153.353 665.192 140.389 664.156 127.412C663.272 116.981 661.907 104.684 662.803 94.367Z" fill="#ECECEC"/>
<path d="M300.288 156.765C322.549 167.568 348.704 131.782 365.026 131.475C373.743 131.31 405.291 174.63 418.905 174.747C434.808 172.541 440.485 142.372 451.7 133.498C469.197 119.652 499 163.934 516.718 148.757C518.576 150.937 520.033 152.618 521.652 154.993C509.836 159.947 507.438 158.804 495.265 155.345C486.494 152.853 464.8 133.821 457.423 138.482C443.255 147.433 438.596 187.093 415.414 180.793C400.993 174.493 386.781 159.823 376.067 148.494C360.951 132.508 363.077 138.097 346.993 148.197C333.608 156.602 312.113 173.953 296.815 161.958C297.613 160.435 299.257 158.239 300.288 156.765Z" fill="#919191"/>
<path d="M671.811 201.666C677.76 193.708 682.27 177.906 690.255 173.353C702.33 166.465 726.601 190.08 738.596 183.462C739.925 184.938 741.821 186.937 743.009 188.44C728.795 197.407 709.169 179.694 695.857 178.987C685.799 181.362 684.038 198.508 677.4 205.025C657.889 225.732 635.922 181.223 623.342 179.291C610.005 177.243 587.815 202.794 570.067 187.656C571.36 185.657 572.825 184.195 574.438 182.469C586.822 195.403 612.492 168.451 627.041 172.857C637.501 176.024 660.931 213.698 671.811 201.666Z" fill="#919191"/>
<path d="M178.042 210.427C189.51 204.689 195.303 184.23 203.715 181.853C216.337 178.285 240.923 199.506 257.141 191.994C258.627 193.622 259.862 194.532 260.06 196.638L259.015 197.83C242.212 202.667 231.957 196.987 216.895 190.39C194.97 180.786 199.279 211.176 177.271 216.826C160.714 213.313 154.359 199.362 139.828 190.709C125.868 196.231 102.274 216.499 88.0029 206.131L91.604 200.936C103.28 204.087 111.193 198.932 120.86 193.47C127.693 189.609 134.784 183.481 142.669 185.503C153.993 188.406 166.109 210.813 178.042 210.427Z" fill="#919191"/>
<path d="M220.479 983.32C225.251 960.28 245.276 958.09 261.994 947.14C264.312 945.62 267.449 934.21 269.403 930.5C274.143 921.48 303.81 904.9 312.886 912.76L313.392 913.82C309.916 917.19 291.522 920.2 282.899 926.43C270.022 935.74 273.536 945.2 267.238 951.54C260.843 957.98 238.862 963.94 231.953 973.74C229.284 977.53 228.467 980.9 226.69 983.74C223.927 983.81 223.175 983.73 220.479 983.32Z" fill="#BDBCBC"/>
<path d="M396.803 203.2C401.12 204.592 409.838 211.404 415.11 213.418C425.371 218.525 431.572 222.664 436.672 233.142C451.807 264.237 353.33 280.985 381.538 305.394C398.746 320.094 441.347 332.668 448.265 356.959C457.664 389.963 409.069 402.067 394.485 431.767C393.795 432.716 393.852 432.656 392.813 433.208C391.778 432.508 391.232 431.983 391.095 430.494C390.299 407.025 430.403 392.78 439.837 375.844C454.617 349.311 407.902 330.025 391.081 319.856C380.017 313.169 371.914 309.33 368.556 296.253C374.644 269.435 423.202 265.122 431.752 238.674C427.488 222.158 409.002 218.832 397.975 209.734C396.118 208.202 396.596 205.551 396.803 203.2Z" fill="#BDBCBC"/>
<path d="M393.286 195.134C395.47 195.393 395.984 195.083 397.48 196.333C397.012 199.234 392.395 201.515 391.098 204.437C386.839 214.031 410.078 221.307 413.616 230.101C421.102 248.703 344.403 270.222 334.259 295.031C324.996 317.686 387.064 334.967 395.759 355.267C397.855 360.161 397.669 365.512 395.606 370.386C392.564 377.569 384.784 383.814 377.651 386.652C375.717 386.782 374.421 386.963 373.226 385.532C374.676 379.729 391.185 372.275 389.96 364.164C386.687 342.52 345.743 330.914 333.547 316.158C301.253 277.797 387.034 256.77 404.897 237.956C418.084 224.067 364.688 219.311 393.286 195.134Z" fill="#BDBCBC"/>
<path d="M394.646 733.448C395.245 733.388 395.844 733.339 396.444 733.296C398.923 733.119 401.263 732.943 403.203 734.618L403.211 736.026C399.954 737.745 394.913 738.007 391.231 739.225C387.079 740.596 383.022 742.333 379.036 744.173C373.361 746.788 367.714 749.859 362.75 753.661C360.943 755.051 357.01 759.518 355.477 760.255C348.065 763.808 342.929 764.984 335.545 769.286C332.884 770.718 331.976 771.638 329.357 771.004L328.796 769.98C331.147 763.46 344.698 759.457 350.466 755.916C354.085 753.692 356.882 750.115 360.136 747.939C369.335 741.797 383.796 735.051 394.646 733.448Z" fill="#BDBCBC"/>
<path d="M401.561 753.844C403.691 754.228 402.775 753.795 404.426 755.167L404.41 756.934C401.442 759.962 397.808 762.607 394.637 765.502C383.815 775.367 380.648 783.125 364.957 784.142L362.84 783.941L362.666 783.308C365.074 781.022 367.151 780.809 369.861 779.231C382.781 771.681 387.823 760.901 401.561 753.844Z" fill="#BDBCBC"/>
<path d="M218.967 908.11C220.635 907.9 222.649 908.06 223.707 909.36C221.463 912.81 210.167 916.98 205.971 918.48C203.892 919.36 203.209 919.34 201.328 918.19L201.552 916.95C205.681 912.14 213.05 909.73 218.967 908.11Z" fill="#BDBCBC"/>
</g>
<defs>
<clipPath id="clip0_6_908">
<rect width="832" height="1000" fill="white"/>
</clipPath>
</defs>
</svg>
