<svg width="832" height="704" viewBox="0 0 832 704" fill="none" xmlns="http://www.w3.org/2000/svg">
<g clip-path="url(#clip0_6_1039)">
<path d="M0 0H832V704H0V0Z" fill="none"/>
<path d="M154.225 153.725C150.266 147.326 148.811 141.157 146.621 133.765C139.207 108.735 137.613 89.003 142.699 63.301C147.485 39.117 169.402 9.588 188.823 42.504C200.988 63.122 202.758 96.028 202.426 119.888C219.807 117.842 233.1 115.235 250.54 120.626C255.922 97.288 262.017 75.296 276.182 55.41C282.111 46.693 291.434 35.007 303.351 37.287C307.101 38.004 311.358 41.876 313.044 45.201C327.703 74.115 313 123.765 295.38 147.774C311.185 167.941 319.369 188.535 322.588 214.039C328.149 258.091 335.152 304.677 295.846 335.13C293.533 336.9 291.191 338.632 288.821 340.325C307.311 356.263 310.554 368.688 317.004 391.619C319.148 399.243 321.984 409.544 323.139 417.259C324.469 408.73 326.075 400.245 327.953 391.819C335.538 356.263 343.293 345.023 377.558 329.999C381.529 328.258 395.937 315.994 398.684 312.576C383.705 300.981 373.627 286.813 371.208 267.58C371.053 266.296 370.941 265.007 370.872 263.715C353.962 255.302 349.776 227.421 365.093 215.746C359.279 196.1 350.34 171.204 368.98 155.176C366.252 148.538 363.459 140.648 366.174 133.651C369.634 124.737 381.462 129.756 388.689 128.767C399.413 127.299 410.164 124.617 420.851 123.059C436.965 120.831 455.228 122.417 469.854 129.778C475.069 132.403 483.217 138.214 485.827 143.413C491.651 155.016 502.195 159.439 505.913 172.624C509.769 186.302 505.648 206.318 500.218 219.032C516.556 236.829 506.011 264.386 482.588 269.396C477.523 284.785 472.295 293.593 461.482 305.413C459.086 308.032 466.861 316.167 468.668 317.406C484.439 333.423 512.858 336.349 527.152 353.778C534.281 335.87 556.452 308.229 574.554 299.557C579.173 297.344 599.803 292.895 606.176 291.32C579.126 280.269 562.365 271.277 550.248 242.462C549.601 240.912 549.028 239.333 548.528 237.731C527.892 228.363 529.704 199.904 536.535 181.559C538.869 175.291 543.771 171.653 549.785 169.058C560.977 142.323 576.14 123.33 603.317 111.68C653.184 90.305 713.399 112.88 733.806 163.503C734.568 165.414 735.312 167.33 736.037 169.252C739.633 171.972 744.79 175.617 746.85 179.641C756.212 197.924 755.231 234.136 732.075 241.708C721.335 262.596 708.072 275.304 686.775 285.339C685.05 286.153 680.942 287.236 680.96 288.905C682.74 290.573 699.417 295.758 702.769 296.2C722.554 298.806 729.07 304.115 741.919 320.373C742.034 313.454 739.194 291.039 744.223 286.499C751.75 279.697 757.797 289.374 760.686 295.923C765.666 278.798 767.421 255.538 784.006 267.143C784.262 267.325 795.368 263.875 796.179 267.871C796.989 270.5 796.276 273.983 799.415 276.292C801.817 276.699 804.962 276.884 806.272 279.241C808.704 283.612 808.509 291.357 807.583 296.164C804.431 312.442 802.152 336.369 791.071 349.17C791.315 369.039 787.456 389.118 780.886 407.836C779.727 411.131 774.949 419.02 774.626 421.366C769.085 461.786 786.322 502.918 727.43 503.497C726.492 503.503 725.559 503.497 724.626 503.485C724.389 506.313 724.102 512.303 723.158 514.88C708.748 554.283 723.255 636.567 660.102 633.77C652.459 633.434 645.626 630.235 640.695 624.781C617.545 640.083 587.34 633.885 577.993 606.232C569.783 581.936 564.761 551.126 563.698 525.459C555.1 516.373 556.487 502.742 556.463 490.274C535.793 491.273 522.819 474.692 513.909 458.099C513.713 482.09 514.04 503.272 516.124 527.153L519.188 561.735C520.511 576.22 524.807 580.675 510.682 588.731C510.261 603.758 509.946 621.369 508.914 636.268C508.88 641.1 508.688 645.476 508.422 650.296C506.732 652.319 503.713 653.099 501.558 651.454C501.598 645.628 501.355 636.78 502.191 631.338C502.08 619.212 503.012 603.874 503.499 591.546C499.738 592.234 495.971 592.887 492.197 593.496C454.06 599.486 444.922 592.07 439.459 554.721C428.178 555.739 419.137 555.239 407.978 553.984C406.167 567.969 404.185 585.099 389.938 591.997C379.898 596.86 367.279 594.343 357.147 590.93C356.801 603.642 358.092 616.323 358.28 629.047C358.792 637.036 359.602 646.249 359.748 654.165C358.353 654.647 357.311 654.385 355.835 654.226C354.254 655.012 354.301 654.927 353.316 656.371C352.543 647.413 351.881 638.449 351.33 629.473L350.558 613.764L348.682 613.069C344.658 626.804 327.894 618.316 321.87 610.571C310.634 596.122 311.791 582.399 313.556 565.654C312.57 564.874 311.433 564.039 310.642 563.058C307.771 559.493 312.024 509.524 312.449 501.151C307.649 502.51 302.83 503.796 297.992 505.015C298.361 516.087 299.787 527.884 299.788 539.067C299.79 562.04 298.5 589.413 294.781 612.015C294.12 622.429 291.919 635.189 290.821 645.951C288.967 646.152 285.294 646.006 283.266 645.975C284.874 635.165 285.73 622.228 287.697 611.948C288.223 601.229 289.689 588.45 290.949 577.853C295.873 536.434 289.039 497.239 284.962 456.259C283.826 444.845 287.179 430.744 287.489 419.135C288.698 399.589 280.741 365.414 270.52 349.066C266.588 350.973 257.814 355.954 254.504 356.87L253.637 356.367C253.639 354.597 253.955 353.267 255.456 352.063C268.394 341.68 284.711 336.557 297.275 325.33C313.391 310.927 319.519 288.479 319.536 267.49C319.358 230.448 315.412 178.754 288.239 150.882C272.098 134.34 249.998 124.957 226.883 124.832C216.865 124.744 211.151 125.818 201.642 128.49C200.799 132.288 199.964 135.442 196.964 138.178L195.884 138.45C192.246 135.496 194.348 126.787 194.699 122.112C196.246 102.087 194.095 81.265 188.525 61.973C186.799 55.992 184.314 48.053 180.561 43.177C168.227 27.151 159.049 40.317 154.159 53C142.92 82.152 146.817 113.962 157.272 142.686C159.153 147.814 165.957 157.906 163.611 162.995C159.189 163.555 159.61 159.69 156.847 163.098C136.003 188.812 123.995 234.243 126.449 266.466C127.797 284.161 147.782 309.943 162.122 320.189C169.763 325.648 175.028 328.887 183.043 333.48C191.288 338.206 211.895 347.438 217.023 354.036L216.646 354.676C211.634 354.267 195.102 345.403 188.616 342.904C190.072 353.806 192.024 365.238 191.969 376.243C191.75 420.549 167.257 463.266 134.205 491.791C127.957 520.322 126.849 546.94 128.959 576.031C129.815 587.841 131.893 604.733 131.704 615.927C132.243 620.223 133.576 633.349 133.529 637.535C133.42 640.357 133.33 643.02 133.337 645.841C132.019 646.329 127.965 647.944 126.843 647.944C125.9 637.401 125.137 626.841 124.552 616.274C122.129 586.909 119.851 563.332 120.754 533.863C101.051 531.535 76.8313 529.713 74.7998 504.686C73.7057 491.212 75.1399 477.727 75.7817 464.241C76.2821 453.718 73.6563 434.09 83.2197 427.039C83.6269 426.74 84.045 426.454 84.4729 426.186C87.0152 404.47 90.7266 377.813 100.267 358.222C77.0386 329.903 60.2578 296.866 51.0908 261.408C47.8078 248.697 44.7756 239.37 49.8723 226.698C46.263 218.452 44.3519 213.198 47.0388 204.381C40.353 195.581 35.2986 185.185 30.2813 175.323C25.9552 166.821 15.7557 151.74 28.6259 146.393C22.3248 123.752 35.3635 136.098 38.4347 125.48C42.3906 111.803 52.6808 123.401 54.6395 121.325C68.938 106.164 78.2558 145.084 81.955 154.555C85.0294 147.645 89.3241 136.915 99.0704 141.18C107.302 144.783 99.9689 162.448 99.839 169.501C99.7135 176.302 98.3524 185.151 95.5449 191.195C99.5477 196.503 100.894 202.385 101.707 208.849C114.218 221.088 114.116 232.225 119.144 248.184C121.107 216.66 133.808 178.394 154.225 153.725Z" fill="#2C2C2B"/>
<path d="M287.696 611.948L287.739 612.344C288.239 616.713 286.508 622.24 287.727 624.483C289.319 625.829 289.53 625.982 291.585 626.25C292.577 625.122 293.494 614.94 293.776 612.636L294.78 612.015C294.119 622.429 291.918 635.189 290.82 645.951C288.967 646.152 285.294 646.006 283.266 645.975C284.874 635.165 285.729 622.228 287.696 611.948Z" fill="#656663"/>
<path d="M124.551 616.274L125.474 616.859C125.901 619.51 126.54 631.222 126.984 632.222C129.713 632.569 128.798 632.794 130.96 631.832C133.773 627.432 129.034 621.076 131.704 615.927C132.242 620.223 133.576 633.349 133.529 637.535C133.42 640.357 133.33 643.02 133.337 645.841C132.019 646.329 127.965 647.944 126.842 647.944C125.9 637.401 125.136 626.841 124.551 616.274Z" fill="#6A6B67"/>
<path d="M351.33 629.473C353.657 632.813 352.4 637.17 352.945 640.723C353.234 642.605 355.975 641.996 357.077 644.086L355.132 646.329L356.701 646.128C360.297 641.588 355.487 633.331 358.28 629.047C358.791 637.036 359.601 646.25 359.748 654.165C358.353 654.647 357.311 654.385 355.834 654.226C354.253 655.012 354.301 654.927 353.316 656.371C352.542 647.413 351.88 638.45 351.33 629.473Z" fill="#696967"/>
<path d="M502.191 631.338C502.342 635.019 502.322 646.061 504.597 648.431C505.939 648.626 505.521 648.553 507.016 647.493C508.364 645.342 507.588 640.174 508.914 636.268C508.88 641.1 508.687 645.476 508.422 650.296C506.731 652.319 503.712 653.099 501.558 651.454C501.597 645.628 501.355 636.78 502.191 631.338Z" fill="#60605E"/>
<path d="M348.682 613.069C348.637 611.07 348.359 609.858 349.489 608.279C351.094 609.486 350.646 611.856 350.557 613.764L348.682 613.069Z" fill="#FAFAF9"/>
<path d="M633.704 111.92C650.697 109.754 670.135 113.68 685.385 121.302C705.53 131.358 720.847 148.997 727.985 170.342C713.631 179.954 712.6 214.677 718.293 229.406C720.073 234.012 721.487 235.684 724.949 239.122C722.755 244.222 721.213 246.228 718.05 250.688C702.629 272.438 680.954 282.626 655.256 286.454C630.528 290.618 600.524 285.474 580.337 270.147C541.988 241.03 542.399 181.755 570.673 145.917C587.006 125.215 607.835 114.892 633.704 111.92Z" fill="#FAFAF9"/>
<path d="M624.031 158.297C640.238 157.886 671.653 158.263 684.8 169.411C699.234 181.657 700.794 215.698 687.732 229.572C676.188 241.837 652.55 241.504 636.575 241.949C618.85 242.199 586.335 242.213 572.673 230.43C558.21 217.957 561.246 184.451 573.944 171.389C586.525 158.447 607.321 158.782 624.031 158.297Z" fill="#2C2C2B"/>
<path d="M656.451 187.284C672.414 186.329 673.609 205.67 662.564 214.143C647.503 216.989 646.278 195.438 656.451 187.284Z" fill="#D2D1D0"/>
<path d="M595.648 186.669C610.194 185.475 610.969 207.281 599.061 214.403C585.164 214.198 583.726 194.452 595.648 186.669Z" fill="#D2D1D0"/>
<path d="M614.553 251.373C616.905 252.078 620.118 254.856 623.11 255.591C629.516 257.163 634.38 253.902 640.402 252.875C641.433 252.699 641.835 253.599 642.383 254.309C642.603 256.385 642.481 256.624 641.445 258.452C631.961 265.725 607.818 264.115 614.553 251.373Z" fill="#2C2C2B"/>
<path d="M683.41 298.659C689.847 299.67 693.754 300.667 699.709 303.009C673.847 342.155 684.349 395.398 718.391 426.283C718.903 436.003 719.713 513.808 713.094 520.194C704.183 528.792 666.307 533.381 651.27 533.795C628.827 534.417 588.199 533.308 567.877 519.859C563.954 517.111 564.275 494.613 564.062 488.373C584.603 479.787 607.138 453.126 615.729 433.291C616.247 431.512 616.375 429.099 616.558 427.204C629.102 419.781 640.548 397.865 649.21 385.463C653.708 379.024 653.403 373.661 646.9 368.639C645.778 362.922 654.037 355.823 638.537 353.405C635.654 350.348 637.653 344.197 629.815 343.968C628.913 343.942 624.146 345.441 623.963 345.123C611.511 323.252 597.595 361.501 593.553 370.934C591.84 364.998 589.367 357.389 582.05 357.333C573.109 357.263 573.796 370.616 574.251 376.3C574.928 384.764 574.775 393.076 574.668 401.392C570.654 404.854 567.025 408.32 563.189 411.976C564.531 403.927 564.066 393.481 565.34 384.612C569.093 358.486 576.734 331.924 588.302 308.139C591.447 301.672 595.828 301.251 602.148 299.509C603.286 311.131 608.667 317.892 620.361 320.818C641.432 326.091 676.309 322.942 683.41 298.659Z" fill="#FAFAF9"/>
<path d="M467.205 324.078C476.009 328.748 481.081 348.936 483.668 358.174C478.366 360.726 474.318 362.559 469.551 366.064C472.823 370.226 478.794 375.117 482.889 378.653C478.387 390.068 444.028 465.722 445.458 470.853L446.407 470.683C451.906 464.833 486.704 386.684 489.455 376.987C486.842 374.2 481.661 369.744 478.643 366.991C481.936 365.095 486.583 363.139 488.992 360.615C490.373 357.175 484.203 339.97 482.701 335.362C496.082 342.867 517.491 349.192 525.388 363.253C535.991 382.129 544.658 403.141 553.765 422.932C549.859 426.795 540.813 438.246 542.45 443.907L543.522 444.242C544.026 443.968 569.571 414.965 572.714 411.297C574.895 428.587 586.47 439.281 603.95 439.696C601.404 443.87 598.757 447.983 596.01 452.03C563.877 494.046 536.586 493.979 513.948 443.005C510.157 434.473 513.902 400.782 510.051 396.188L509.224 396.238C505.921 403.121 506.899 490.189 507.384 502.327C508.123 517.769 509.236 533.192 510.722 548.579C511.275 554.295 514.249 575.751 512.485 579.535C503.561 587.89 464.085 592.015 454.725 582.149C447.979 575.044 445.806 558.207 444.598 548.707C441.296 522.748 440.669 496.093 441.825 469.982C443.841 443.535 451.975 411.768 456.788 385.409C459.752 369.175 467.742 340.627 467.233 324.871L467.205 324.078Z" fill="#FAFAF9"/>
<path d="M391.417 326.615L392.221 327.172C392.421 374.173 402.482 416.546 406.924 462.669C409.334 487.69 405.978 527.732 402.232 552.979C400.512 561.479 399.279 572.704 394.536 579.98C385.972 593.106 358.521 586.476 347.966 579.164C349.677 554.996 352.773 530.956 353.934 506.715C355.409 475.911 354.32 445.211 353.273 414.418C353.113 409.698 353.593 395.034 351.656 391.607L350.918 391.413C346.787 398.883 348.144 449.842 348.073 461.908C348.018 473.242 347.763 484.57 347.31 495.899C346.399 516.191 344.969 536.459 343.021 556.678C342.829 558.274 342.622 559.865 342.398 561.455L341.413 562.162C335.186 562.857 327.68 561.674 321.319 560.718C313.439 559.536 317.446 549.048 317.255 543.814C317.163 541.26 317.594 538.019 317.708 535.49C320.162 481.414 325.749 426.527 339.751 374.118C345.166 353.849 359.941 347.309 376.847 338.597C374.745 342.249 368.173 355.724 368.991 360.37C369.307 362.168 375.386 365.419 377.503 366.654C374.359 370.016 370.357 373.414 366.89 376.513C368.786 386.565 397.529 463.986 402.82 469.695L403.611 469.604C404.67 463.26 392.285 433.962 389.582 425.894C384.32 410.191 378.188 394.882 373.922 378.63C376.606 376.028 384.632 369.604 385.457 366.885C384.906 363.495 378.143 359.968 374.931 357.545C379.278 344.95 381.792 336.354 391.417 326.615Z" fill="#FAFAF9"/>
<path d="M390.896 162.616C391.93 162.902 395.222 164.765 396.781 165.4C403.612 168.179 410.176 170.343 417.662 170.849C423.8 171.262 429.386 170.573 435.603 169.911C444.636 168.95 456.323 164.562 465.087 166.669C467.146 167.164 468.457 169.064 468.837 171.022C470.266 178.381 467.806 188.157 469.503 195.624C471.244 203.288 475.162 209.415 476.373 217.741C477.051 222.397 475.775 228.998 477.446 232.247C482.883 236.129 487.524 224.271 492 224.734C506.062 226.19 500.531 250.356 493.155 256.346C486.464 261.778 484.199 261.199 477.345 261.144C475.18 268.718 473.389 274.931 470.058 282.066C465.617 289.463 461.921 295.123 455.148 300.892C445.407 309.352 432.668 313.529 419.808 312.481C393.53 310.101 378.585 283.284 377.165 259.185C375.814 236.257 374.796 212.943 376.604 190.021C377.633 176.991 381.006 170.768 390.896 162.616Z" fill="#FAFAF9"/>
<path d="M441.003 267.926C442.166 267.67 442.965 267.779 444.164 267.8C444.828 268.336 445.402 268.57 445.459 269.349C446.308 280.886 430.781 289.806 420.533 288.225C415.716 287.482 413.685 286.47 410.425 284.52C404.02 278.844 403.121 276.391 401.007 268.204C406.878 268.201 413.64 269.031 419.733 269.161C427.443 269.327 433.322 268.761 441.003 267.926Z" fill="#2C2C2B"/>
<path d="M408.069 273.617C415.309 274.466 421.655 274.636 428.944 274.528C430.861 274.5 437.785 273.946 438.688 274.121C438.158 275.623 436.415 276.894 435.162 278.013C425.277 283.512 414.506 284.522 408.069 273.617Z" fill="#FAFAF9"/>
<path d="M415.553 225.962C418.26 226.706 419.541 227.644 419.349 230.716C418.956 236.988 415.695 244.197 413.555 250.117C417 252.738 420.096 252.592 422.999 255.301C423.526 257.228 423.449 256.493 422.549 258.698C399.965 258.455 411.938 238.957 415.553 225.962Z" fill="#202020"/>
<path d="M445.608 215.831C455.97 215.698 456.399 229.015 448.939 234.704C438.221 235.597 438.708 221.753 445.608 215.831Z" fill="#202020"/>
<path d="M396.788 215.146C406.768 216.401 406.943 228.883 399.078 234.616C388.799 233.424 389.036 220.307 396.788 215.146Z" fill="#202020"/>
<path d="M444.647 194.119C448.901 193.858 453.139 193.931 456.753 196.405C459.188 198.071 462.897 201.199 460.807 204.197C458.636 204.275 458.977 203.985 456.943 202.436C450.097 198.393 440.23 201.222 437.99 198.005L438.759 196.494C440.619 194.848 442.258 194.679 444.647 194.119Z" fill="#2C2C2B"/>
<path d="M392.649 194.059C396.666 193.495 404.583 193.792 407.072 197.572L406.873 198.18C403.279 200.759 398.663 199.525 394.219 199.19C390.114 200.246 386.889 203.79 383.049 202.523C383.651 198.754 389.486 195.484 392.649 194.059Z" fill="#2C2C2B"/>
<path d="M91.9107 198.421C92.6567 199.421 94.798 205.357 95.0503 206.704C96.9276 217.204 83.893 221.92 76.1551 224.419C70.4585 226.259 65.3415 226.67 59.4894 227.202C58.3448 227.305 58.557 227.429 57.9245 228.368C61.1986 234.233 84.2904 227.757 89.3616 224.746C92.0539 223.147 95.7293 216.685 99.0951 215.844C101.189 217.335 103.374 220.322 104.122 222.703C113.829 253.619 119.37 284.708 141.545 309.95C145.377 314.311 158.713 327.087 160.034 331.834C168.506 362.269 166.071 404.673 150.595 432.566C146.867 439.092 142.983 444.815 138.804 451.036C140.813 433.2 139.734 415.067 137.523 397.417C137.369 396.186 138.108 395.82 138.895 395.23L142.885 396.008C143.613 392.729 138.255 386.91 135.905 384.803C99.0579 351.767 71.2594 309.271 58.5741 261.22C55.2246 248.531 52.5278 239.325 56.6748 226.393C54.7252 220.284 53.5182 216.47 52.4121 210.179C67.7418 212.484 79.7001 207 91.9107 198.421Z" fill="#FAFAF9"/>
<path d="M570.944 530.474C612.065 546.099 670.263 545.264 711.412 530.554C708.705 554.234 706.011 572.119 700.276 595.324C699.672 597.676 698.813 601.619 697.911 603.825C693.906 612.996 681.984 613.63 673.463 614.562C660.132 616.025 650.746 614.367 638.311 609.687C634.051 610.802 629.735 611.674 625.377 612.289C613.997 613.861 597.928 613.776 588.357 606.908C581.495 601.985 580.661 588.475 578.942 580.528C575.36 563.972 573.24 547.232 570.944 530.474Z" fill="#FAFAF9"/>
<path d="M725.9 318.149C736.847 320.575 741.809 332.455 745.21 342.067C742.436 349.219 727.911 386.007 735.165 391.099C736.975 390.105 738.493 380.326 739.34 377.733C741.87 370.047 744.027 362.158 746.922 354.59C756.004 365.506 770.749 368.699 783.866 363.727C782.799 371.1 781.501 378.435 779.959 385.723C776.881 397.006 771.992 417.198 762.904 423.986C743.808 437.076 730.228 420.982 722.846 404.375C713.892 384.247 707.133 333.662 725.9 318.149Z" fill="#FAFAF9"/>
<path d="M430.501 129.009C438.852 127.895 452.642 130.524 460.825 133.414C465.344 134.418 479.224 142.841 480.711 147.494C483.915 157.517 494.634 162.639 498.286 170.933C504.948 186.059 499.224 203.372 493.631 218.011C487.709 218.396 486.295 219.253 482.911 223.929C481.203 211.806 477.404 204.291 474.027 192.826C472.806 188.681 473.32 181.13 473.523 176.633C473.716 171.858 474.248 168.655 470.699 164.719C463.363 156.585 446.039 162.347 435.698 163.736C429.649 164.579 423.528 164.77 417.439 164.306C408.462 163.57 398.496 160.877 390.889 155.524C389.977 154.882 385.315 149.237 384.33 148.076L383.621 148.315C380.943 152.073 383.9 153.699 383.997 157.974C382.459 158.021 380.624 158.712 379.486 157.73C374.593 153.508 369.083 142.109 373.29 136.235C376.994 134.915 386.755 136.157 391.207 135.399C404.643 133.111 416.805 129.969 430.501 129.009Z" fill="#60605E"/>
<path d="M422.359 370.938L430.243 371.583C435.28 397.398 437.975 423.048 438.854 449.336C438.695 453.419 438.195 457.758 437.606 461.792C434.663 481.98 435.816 501.627 436.521 521.955C434.007 526.757 428.117 534.46 424.777 539.06L424.076 539.786C422.092 539.048 413.096 527.044 411.213 524.655C411.822 509.451 413.106 495.892 413.029 480.384C412.993 473.01 410.975 453.815 411.408 448.916C412.973 431.207 416.963 385.951 422.359 370.938Z" fill="#7E7E7C"/>
<path d="M258.513 122.829C262.974 95.881 273.159 64.888 294.553 46.431C298.145 43.333 303.456 43.024 305.976 47.507C313.311 60.554 312.062 81.976 309.101 96.112C306.071 110.254 300.856 123.837 293.642 136.374C291.429 140.186 290.689 143.881 286.238 140.214C283.048 138.109 278.724 134.595 275.296 132.2C275.523 124.462 278.383 115.375 280.591 107.874L280.229 107.549C279.709 105.804 281.353 101.896 282.021 100.049L281.422 99.568C279.829 100.966 278.852 106.326 277.304 109.241L276.458 109.139C273.669 114.524 272.16 122.84 270.924 128.841C266.852 126.705 262.713 124.7 258.513 122.829Z" fill="#FAFAF9"/>
<path d="M296.036 71.798C299.402 75.287 301.47 78.085 301.871 83.025C303.258 100.109 295.874 117.03 288.445 132.033C286.917 135.119 286.388 136.704 286.238 140.214C283.048 138.109 278.724 134.595 275.296 132.2C275.523 124.462 278.383 115.375 280.591 107.874C282.194 104.784 286.902 90.744 286.388 87.312C287.979 81.854 292.436 76.161 296.036 71.798Z" fill="#D2D1D0"/>
<path d="M286.388 87.312C286.902 90.744 282.194 104.784 280.591 107.874L280.229 107.549C279.709 105.804 281.353 101.896 282.021 100.049L281.422 99.568C279.829 100.966 278.852 106.326 277.304 109.241L276.458 109.139C278.396 102.388 282.158 92.921 286.388 87.312Z" fill="#202020"/>
<path d="M60.2994 123.126C67.8996 127.534 75.4656 154.382 79.1722 164.079C72.2742 168.627 67.5979 174.602 68.2519 183.387C68.3921 185.274 68.6786 186.257 70.0854 187.449C72.0145 183.897 71.2398 182.398 71.789 178.869C72.6862 173.097 79.7945 168.993 84.3037 166.326C85.975 160.754 89.1726 145.675 96.3942 147.452C98.9683 150.701 94.6839 158.937 94.4523 162.923C92.9706 188.416 88.4357 204.737 57.5238 203.617C47.3043 198.306 41.2838 182.931 36.1538 172.521C34.3633 169.283 26.1167 156.19 30.4212 153.309C36.161 154.944 39.9458 166.843 43.9046 169.379C45.7603 169.622 45.2374 169.843 46.4154 168.979C47.3952 162.135 27.3887 140.719 35.2402 135.233C40.4058 135.523 51.7911 158.09 52.3956 162.61L52.4417 162.98L53.2103 163.26L55.0928 162.359C59.1356 154.704 39.1725 134.063 44.6524 125.657L45.9468 125.408C52.7688 128.462 58.8412 145.826 62.1165 152.775C62.9936 154.636 62.7266 156.039 64.0834 157.402C65.7187 156.867 65.1409 157.199 66.2838 155.63C67.9167 146.585 54.1238 131.989 60.2994 123.126Z" fill="#FAFAF9"/>
<path d="M614.979 344.106C625.56 347.588 604.046 369.662 609.938 374.223C615.613 372.085 622.177 348.372 630.168 350.088C636.239 357.375 618.258 371.014 619.41 379.1L620.111 379.613C626.627 377.263 635.057 355.82 641.987 360.249C644.608 367.018 625.262 383.329 628.907 388.845C634.697 387.744 640.018 373.265 645.76 374.945L646.357 376.038C646.327 381.538 637.568 392.363 633.99 397.245C628.388 406.04 621.604 418.788 611.73 422.755C597.016 428.666 580.914 413.254 580.457 398.77C580.137 388.69 580.846 378.973 579.652 368.884C579.497 367.577 579.938 365.838 580.455 364.658C582.001 363.332 581.139 363.615 583.094 363.682C587.566 366.592 589.444 378.788 590.616 383.957C591.451 384.447 592.269 384.967 593.067 385.516C601.762 391.591 598.365 401.706 601.906 404.023C603.371 401.868 603.723 396.578 603.26 393.966C602.217 388.093 598.948 385.104 594.469 381.741C599.99 368.896 605.591 354.444 614.979 344.106Z" fill="#FAFAF9"/>
<path d="M758.918 312.035C766.537 307.07 769.676 267.468 777.887 270.241C781.056 274.352 776.515 288.818 775.82 294.02C775.241 298.314 774.315 301.413 769.945 302.542L769.561 303.379C771.511 304.568 790.851 311.792 792.369 311.428C792.082 309.43 791.235 309.051 789.736 307.32C790.998 301.586 794.521 285.582 799.007 282.356C800.988 282.306 800.207 282.018 801.804 283.516C803.353 287.615 802.012 293.278 801.365 297.721C798.318 316.696 793.265 358.677 765.727 350.31C746.252 344.393 746.478 323.933 747.24 307.201C747.429 303.035 746.472 295.847 747.545 292.176C748.3 291.434 748.41 290.997 749.202 291.084C758.059 292.062 755.206 308.376 758.918 312.035Z" fill="#FAFAF9"/>
<path d="M758.918 312.035C766.616 313.82 772.498 324.433 768.39 331.424C766.61 328.737 766.641 324.273 765.202 321.493C764.081 319.323 759.089 315.497 758.601 313.209L758.918 312.035Z" fill="#1C1B19"/>
<path d="M297.166 361.272C297.467 361.574 297.751 361.891 298.018 362.223C307.203 373.496 317.39 420.232 319.253 436.356C319.469 438.233 317.231 454.948 316.849 458.02C315.361 469.519 314.121 481.048 313.13 492.602C311.227 493.485 309.339 494.107 307.362 494.801L296.905 497.056C296.112 483.089 291.488 465.064 292.172 450.762C292.406 445.869 297.628 436.387 299.198 430.208C305.739 404.468 302.581 386.387 297.166 361.272Z" fill="#FAFAF9"/>
<path d="M709.778 407.62L709.443 407.203C691.901 384.996 687.177 352.706 695.186 325.689C697.844 316.74 701.074 309.661 708.547 303.797C715.807 305.684 718.836 307.555 725.138 311.292C721.061 313.514 717.69 316.817 715.788 321.032C703.866 347.385 707.779 375.892 715.471 401.832C713.765 404.013 711.802 405.732 709.778 407.62Z" fill="#7D7C7B"/>
<path d="M83.645 462.602C94.6962 465.241 98.3735 465.545 109.829 465.935C108.693 482.559 105.883 507.355 114.23 521.346C113.563 523.546 113.804 524.204 111.607 525.276C99.8565 523.253 85.8179 521.894 83.2104 507.885C80.4498 493.059 82.4893 477.532 83.645 462.602Z" fill="#7E7E7C"/>
<path d="M166.029 331.232C169.848 332.805 177.933 337.699 181.755 339.96C189.946 371.764 186.348 407.663 170.048 436.393L168.834 437.715C165.547 438.215 159.719 434.224 156.723 432.45C173.556 404.241 172.762 362.249 166.029 331.232Z" fill="#7E7E7C"/>
<path d="M126.375 385.678C135.089 392.614 134.876 446.88 132.638 458.702C128.086 465.332 121.135 469.982 117.384 477.459C113.077 486.045 117.56 494.277 125.768 498.177C124.915 502.754 124.245 508.104 123.556 512.766C123.072 515.758 122.174 518.61 121.332 521.523C119.576 519.719 118.102 517.653 116.959 515.411C115.445 512.339 114.452 509.037 114.022 505.642C113.09 498.702 113.755 484.016 114.157 476.679C115.433 453.388 116.541 429.787 121.433 406.944C123.124 399.049 123.701 393.508 126.375 385.678Z" fill="#60605E"/>
<path d="M765.977 430.366L766.525 431.274C765.861 469.019 772.584 495.868 724.511 496.276C724.572 495.904 724.633 495.533 724.694 495.161C728.704 493.918 732.867 492.242 735.958 489.323C740.633 484.905 741.218 478.409 741.584 472.383C742.339 459.829 742.473 447.282 742.675 434.711C753.079 436.07 757.584 436.247 765.977 430.366Z" fill="#7E7E7C"/>
<path d="M105.334 364.248C106.776 365.194 120.228 379.493 121.896 381.435C119.321 391.406 117.803 401.324 116.017 411.43C115.401 414.915 113.77 429.952 112.15 431.646L110.149 431.427C103.946 430.519 97.3351 429.282 91.1167 428.239C92.2894 412.995 98.0031 377.314 105.334 364.248Z" fill="#7E7E7C"/>
<path d="M729.862 176.867C750.147 175.621 749.385 221.256 735.232 233.076C718.702 239.283 720.171 208.781 721.176 199.302C722.018 191.388 723.395 182.111 729.862 176.867Z" fill="#D2D1D0"/>
<path d="M555.093 324.291C555.085 325.242 552.842 334.518 552.5 336.012C550.296 345.648 549.356 353.466 549.429 363.231C549.528 376.64 554.01 382.93 556.888 395.029C557.312 396.813 556.376 409.293 556.24 412.513L551.03 401.194C544.925 387.021 538.739 374.108 532.016 360.225C536.245 349.445 546.903 332.345 555.093 324.291Z" fill="#FAFAF9"/>
<path d="M319.627 567.859C327.638 568.926 333.854 569.352 341.934 569.694C341.673 578.322 340.208 582.753 348.165 588.158C347.817 593.203 348.532 604.251 342.193 604.501C335.599 600.656 336.872 584.441 332.493 582.04C330.793 583.271 331.102 583.575 330.301 585.812C330.782 591.954 330.952 597.664 333.537 603.356C335.265 607.164 341.994 610.619 342.313 613.228C336.927 617.487 325.619 606.329 323.31 601.119C317.993 589.115 318.738 580.339 319.627 567.859Z" fill="#FAFAF9"/>
<path d="M154.089 437.015C158.643 440.104 161.718 441.737 166.761 443.797C154.737 462.285 147.504 473.394 130.126 487.136C127.428 489.22 126.483 490.566 123.046 489.652C120.583 486.935 121.234 483.65 121.332 479.908C124.747 474.668 131.8 468.105 136.179 463.242C143.285 455.351 149.295 446.478 154.089 437.015Z" fill="#60605E"/>
<path d="M583.832 303.115C583.737 306.895 576.427 319.702 574.824 324.397C570.833 336.084 567.351 347.613 564.182 359.515C563.476 362.166 559.657 381.535 559.426 381.945L558.647 380.862C552.387 360.489 555.994 336.432 564.874 317.234C569.417 307.41 574.233 306.408 583.832 303.115Z" fill="#7E7E7C"/>
<path d="M675.828 294.448C678.376 296.549 678.302 301.271 676.053 303.6C661.413 318.767 626.694 321.594 610.152 308.624C607.005 304.051 607.898 301.398 609.501 296.59C626.968 310.545 658.755 307.693 675.828 294.448Z" fill="#7E7E7C"/>
<path d="M725.254 427.271C730.563 427.13 733.452 429.769 738.127 432.615C738.042 444.717 739.218 475.631 733.452 484.991C730.027 487.428 728.668 487.891 724.687 489.323C724.675 470.03 724.553 446.228 725.254 427.271Z" fill="#60605E"/>
<path d="M85.8769 433.163C94.6882 434.644 103.523 435.979 112.377 437.179C111.591 444.882 110.895 453.449 109.614 461.012C103.946 460.878 85.6282 459.921 82.5483 455.485C81.8034 449.744 83.2425 438.696 85.8769 433.163Z" fill="#7E7E7C"/>
<path d="M440.968 358.845C449.226 368.109 449.824 367.852 456.87 358.356C455.41 364.257 454.478 370.783 453.092 376.764C450.144 389.491 447.495 402.022 445.104 414.866L442.341 428.855C441.579 411.736 438.046 388.409 434.96 371.412C436.913 367.028 438.965 363.683 440.968 358.845Z" fill="#FAFAF9"/>
<path d="M454.229 309.783C455.73 311.817 454.782 315.803 454.467 318.505C448.211 326.536 435.624 332.932 426.139 336.473C419.906 334 417.424 332.419 412.255 328.127C409.777 325.775 405.423 320.771 406.079 317.15C407.898 316.176 414.201 319.13 417.017 319.489C431.358 321.316 442.769 317.022 454.229 309.783Z" fill="#EBEAEA"/>
<path d="M412.201 358.89C413.828 361.553 415.384 366.479 417.593 370.247C413.077 385.973 409.837 410.543 408.316 427.137C407.588 423.73 407.252 421.207 406.847 417.74C404.251 398.742 401.11 378.47 399.209 359.481C401.503 362.591 401.898 364.628 405.976 364.678C408.366 363.698 410.43 360.913 412.201 358.89Z" fill="#FAFAF9"/>
<path d="M459.395 318.756C460.827 320.27 462.026 325.348 461.947 327.461C461.408 341.842 458.034 350.01 448.732 360.187C447.048 358.339 445.263 356.162 443.615 354.245C440.413 349.323 436.898 344.521 433.476 339.741C443.747 335.494 453.358 328.149 459.395 318.756Z" fill="#FAFAF9"/>
<path d="M293.161 404.45C291.387 389.217 288.711 378.66 283.902 364.068C282.415 359.558 277.078 349.931 276.858 346.43C278.668 344.446 281.791 343.556 283.499 346.149C297.672 367.663 300.487 410.467 292.322 434.358C292.983 426.728 294.83 414.626 293.297 407.534L293.161 404.45Z" fill="#60605E"/>
<path d="M397.511 327.34C398.566 324.423 398.991 323.221 400.524 320.539C401.633 322.637 402.874 325.139 404.121 327.104C409.649 333.649 413.09 336.087 420.295 340.132C415.516 344.972 409.102 353.698 405.1 359.433C397.704 346.734 396.602 342.066 397.511 327.34Z" fill="#FAFAF9"/>
<path d="M397.511 327.34C398.566 324.423 398.991 323.221 400.524 320.539C401.633 322.637 402.874 325.139 404.122 327.104C402.414 327.009 399.322 327.253 397.511 327.34Z" fill="#FAFAF9"/>
<path d="M424.827 343.192C430.814 343.006 434.37 350.137 437.515 354.678C436.312 357.951 434.489 364.717 431.052 365.724L420.273 366.064C418.301 361.4 417.769 358.767 416.7 353.912C418.27 348.218 419.855 346.241 424.827 343.192Z" fill="#7E7E7C"/>
<path d="M668.38 291.055C669.416 290.956 669.007 290.95 670.05 291.346C669.324 293.382 666.557 294.738 664.704 295.691C650.85 302.819 632.387 302.193 618.228 297.198C615.302 295.316 614.266 294.078 611.858 291.531C632.314 295.975 648.247 294.126 668.38 291.055Z" fill="#7E7E7C"/>
<path d="M374.081 160.341C385.499 166.27 377.425 165.355 375.045 173.559C372.192 183.396 370.97 193.809 369.78 203.957C369.494 203.88 369.208 203.805 368.922 203.729C365.951 195.25 363.213 188.572 364.42 179.3C365.354 172.116 368.245 164.88 374.081 160.341Z" fill="#4E4E4C"/>
<path d="M788.419 270.967L790.492 271.712C791.857 273.053 791.692 273.09 792.265 274.859C793.728 279.363 787.535 303.007 785.676 305.499L783.701 305.09L777.588 303.117C779.733 294.233 782.598 277.249 788.419 270.967Z" fill="#FAFAF9"/>
<path d="M409.866 538.64C415.131 538.689 415.346 538.579 418.986 542.51C424.787 548.774 426.643 545.569 430.286 539.487C432.735 539.304 434.654 538.987 437.027 539.585C438.532 541.102 438.077 540.462 438.25 543.156C438.563 545.471 439.046 547.415 438.45 549.627C434.311 551.004 414.043 549.158 408.936 548.603C409.309 545.343 409.567 541.918 409.866 538.64Z" fill="#7E7E7C"/>
<path d="M547.044 178.53C547.842 181.102 542.317 209.259 545.04 215.285C545.426 216.138 546.401 227.123 546.09 227.725L544.295 226.331C535.654 213.474 536.859 190.463 547.044 178.53Z" fill="#D2D1D0"/>
<path d="M592.304 616.89C602.88 619.973 614.059 620.851 625.091 619.492C628.663 619.047 633.222 617.103 636.642 617.249L636.965 617.889L635.167 619.876C630.729 623.666 624.61 625.616 618.88 626.128C607.389 627.164 600.893 623.873 592.304 616.89Z" fill="#7E7E7C"/>
<path d="M645.827 620.089C655.976 621.655 666.271 622.106 676.523 621.43C678.492 621.283 685.147 619.955 686.001 620.449L685.489 620.96L685.794 620.156C684.904 621.399 684.843 621.35 683.587 622.106C682.746 622.581 681.899 623.045 681.039 623.495C672.744 627.834 650.795 630.205 645.827 620.089Z" fill="#7E7E7C"/>
<path d="M366.697 223.304C367.595 223.58 368.671 223.675 368.904 224.576C369.738 227.801 369.83 251.536 369.287 253.559L368.195 253.167C362.635 244.86 360.309 231.755 366.697 223.304Z" fill="#FAFAF9"/>
<path d="M749.543 347.193C751.36 347.611 754.017 350.059 755.779 351.138C769.383 359.458 771.114 357.015 783.658 355.294L784.25 356.006L783.598 357.661C772.443 364.434 754.17 360.445 749.543 347.193Z" fill="#7E7E7C"/>
<path d="M578.491 411.346C580.063 412.32 585.238 424.79 594.464 428.02C598.204 429.33 607.492 430.409 608.825 430.903L608.78 432.231C597.651 437.38 584.036 427.642 580.066 417.405C579.37 415.608 578.892 413.248 578.491 411.346Z" fill="#D2D1D0"/>
<path d="M715.471 401.832C717.245 407.265 723.547 417.204 722.962 420.141C719.604 419.568 712.326 410.63 709.778 407.62C711.802 405.732 713.765 404.013 715.471 401.832Z" fill="#60605E"/>
<path d="M114.23 521.346C117.04 524.009 118.645 524.594 122.185 526.27C119.701 526.05 113.795 525.703 111.607 525.276C113.804 524.204 113.563 523.546 114.23 521.346Z" fill="#60605E"/>
<path d="M293.297 407.534C293.239 409.567 293.335 415.027 292.426 416.552C291.77 411.871 291.883 408.944 293.161 404.449L293.297 407.534Z" fill="#202020"/>
<path d="M244.655 148.503C255.768 146.995 269.98 153.257 279.426 159.979C294.004 170.352 304.429 190.017 306.294 207.757C306.899 213.52 303.81 222.21 304.188 227.06C304.744 234.171 307.094 242.357 307.97 249.777C311.367 278.545 312.348 303.058 284.719 320.486C278.952 324.124 272.517 326.603 266.987 329.861C256.782 335.871 247.172 345.42 240.093 354.805C244.585 368.824 247.406 383.324 248.5 398.005C250.101 421.78 246.711 447.161 246.095 470.926C245.936 490.304 245.764 509.701 245.654 529.079C245.638 532.022 244.847 537.354 241.932 538.646L240.845 537.665C239.602 535.032 240.152 531.468 240.342 528.469C241.46 511.114 240.177 492.462 240.901 475.076C242.014 448.367 245.65 420.409 243.436 393.766C242.877 387.041 239.609 363.227 236.318 358.085C223.103 339.504 199.436 330.362 181.975 315.86C138.524 279.774 155.738 215.694 187.097 177.903C202.207 159.695 220.889 150.421 244.655 148.503Z" fill="#2C2C2B"/>
<path d="M268.381 179.649C290.981 198.029 291.229 222.386 289.748 248.797C289.194 258.674 288.705 267.302 285.807 276.855C268.827 332.83 208.927 328.888 183.46 281.421C181.941 278.751 179.373 272.05 177.579 268.499C163.819 269.903 161.967 267.974 162.904 254.027C163.381 246.93 163.826 241.725 166.041 234.854C169.156 236.417 172.89 239.272 176.325 241.227C185.91 234.57 189.124 225.491 192.7 214.911C195.865 214.503 203.818 211.871 205.228 212.236C204.297 213.854 203.462 214.889 203.426 216.719C205.717 218.539 211.334 213.772 214.601 212.866C219.685 211.455 224.3 216.476 228.252 212.785L228.213 211.555C225.509 208.72 221.226 207.621 217.549 206.515C225.496 203.675 228.608 201.34 235.439 196.632C233.498 199.853 231.264 202.508 234.5 205.503C237.259 206.344 240.179 205.687 242.825 204.681C257.198 199.216 262.08 192.339 268.381 179.649Z" fill="#FAFAF9"/>
<path d="M220.96 275.147C238.197 278.62 243.434 278.129 260.545 278.941C263.819 283.562 257.533 289.696 254.468 292.938C237.572 307.418 213.029 285.285 220.96 275.147Z" fill="#2C2C2B"/>
<path d="M225.288 280.532C236.132 283.89 244.575 283.536 255.695 283.54C254.375 285.271 252.797 287.128 251.409 288.826C250.029 289.918 248.855 290.846 247.203 291.533C243.419 293.089 239.176 293.102 235.383 291.569C230.081 289.448 227.457 285.542 225.288 280.532Z" fill="#FAFAF9"/>
<path d="M215.917 227.206C227.073 228.724 226.701 244.246 218.113 250.209C206.551 249.504 208.751 233.928 215.917 227.206Z" fill="#2C2C2B"/>
<path d="M267.951 228.471C278.661 228.16 279.02 243.51 271.398 249.672C260.028 251.147 261.401 235.192 267.951 228.471Z" fill="#202020"/>
<path d="M251.711 247.459C254.102 248.281 257.726 252.632 258.517 255.009C261.144 262.901 257.587 266.282 251.338 268.851C249.112 268.303 248.425 268.379 247.041 266.708L247.223 265.424C249.206 263.425 252.275 262.516 254.956 261.484C253.492 257.345 249.995 251.415 251.711 247.459Z" fill="#202020"/>
<path d="M270.274 208.053C275.769 207.725 280.734 208.943 283.289 214.558C283.806 215.694 283.398 216.019 282.873 216.941C280.937 216.869 280.431 216.02 278.629 214.711C272.925 212.03 268.655 215.803 263.461 213.2L263.337 212.13C265.053 209.73 267.596 208.84 270.274 208.053Z" fill="#2C2C2B"/>
<path d="M246.243 154.6C247.053 154.601 247.862 154.628 248.67 154.683C253.349 155.002 261.39 155.313 264.501 158.859C266.015 163.192 265.285 172.975 263.604 177.295C259.146 188.751 250.703 194.879 240.204 199.859C242.173 191.719 245.638 185.129 247.347 176.459C238.852 188.312 224.849 197.15 211.804 203.22C195.073 208.85 191.163 210.562 173.368 210.724C177.168 200.589 185.753 187.721 193.184 179.881C208.869 163.336 223.469 155.776 246.243 154.6Z" fill="#60605E"/>
<path d="M298.912 233.997C299.195 234.497 299.56 235.084 299.677 235.664C306.651 270.055 312.547 310.864 267.535 320.928C265.797 320.927 261.773 321.162 260.772 319.759C262.807 318.089 264.837 317.458 266.816 315.979C284.384 302.861 293.355 282.847 294.872 261.325C295.515 252.214 293.499 241.575 298.912 233.997Z" fill="#4E4E4C"/>
<path d="M191.441 302.836C205.116 318.002 220.441 324.287 240.447 325.708C240.231 332.586 240.875 334.895 241.795 341.717C242.031 343.463 240.251 344.688 238.948 345.974L236.739 348.347C233.001 345.566 229.107 342.304 225.641 339.168C214.783 329.343 202.271 323.203 190.678 314.087C191.104 310.377 191.246 306.571 191.441 302.836Z" fill="#FAFAF9"/>
<path d="M270.414 161.783C292.37 173.044 306.401 201.707 297.367 225.437C297.312 225.67 297.031 226.048 296.884 226.279C295.811 224.294 295.054 216.65 294.73 214.011C292.417 195.187 283.348 185.789 270.599 173.282L270.414 161.783Z" fill="#4E4E4C"/>
<path d="M164.252 273.828C167.559 275.422 171.19 275.372 174.85 275.613C178.375 283.603 182.353 291.454 185.792 299.443C187.082 302.439 186.047 306.443 185.397 309.606L184.612 310.14C174.561 305.848 165.501 284.326 164.252 273.828Z" fill="#4E4E4C"/>
<path d="M171.003 215.474C174.088 215.942 183.113 216.165 186.698 216.367C184.669 222.319 182.701 225.341 179.345 230.502C177.832 232.532 178.426 232.328 176.39 233.212C173.803 233.002 169.371 230.441 166.576 229.219L171.003 215.474Z" fill="#4E4E4C"/>
<path d="M180.176 144.051C179.07 146.334 176.889 149.137 174.164 148.251C172.361 146.462 171.354 144.785 170.456 142.342C161.371 117.649 156.063 94.613 166.626 69.377C167.492 67.308 168.068 66.989 169.826 66.331C175.779 67.532 181.122 77.795 180.851 83.041C184.374 95.79 187.846 132.744 180.176 144.051Z" fill="#D2D1D0"/>
<path d="M180.851 83.041C184.374 95.79 187.846 132.744 180.176 144.051C177.956 140.71 180.374 133.957 180.618 129.624C181.064 120.905 181.09 112.17 180.696 103.448C180.526 99.237 179.397 85.632 180.851 83.041Z" fill="#1D1C1D"/>
<path d="M424.075 605.367C420.107 603.782 413.225 600.936 410.734 597.53L410.954 596.713C414.774 595.056 427.686 599.376 429.48 601.863C433.35 607.237 434.269 627.81 434.898 634.08C432.771 634.982 430.855 635.701 428.889 636.926L429.229 641.216L428.013 642.203L427.685 640.93C425.446 643.605 427.343 643.922 425.375 646.725L424.169 647.06C421.147 644.671 423.757 644.434 421.46 641.722C422.607 629.48 421.86 617.993 424.075 605.367Z" fill="#2B2B2A"/>
<path d="M427.685 640.93C427.767 639.223 427.844 638.175 428.126 636.493L428.889 636.926L429.229 641.216L428.013 642.203L427.685 640.93Z" fill="#D2D1D0"/>
<path d="M216.072 616.707C216.633 610.973 218.74 578.268 220.68 575.983C224.497 573.697 242.818 566.33 246.691 567.305C246.661 571.747 230.898 578.645 226.49 580.218C225.875 589.108 224.686 613.252 222.942 621.192C223.13 621.162 219.371 623.946 218.03 624.617L216.971 624.221C215.916 622.137 216.848 619.687 216.072 616.707Z" fill="#2D2D2C"/>
<path d="M283.266 645.975C285.294 646.006 288.967 646.152 290.82 645.951L289.72 654.281C288.082 664.464 286.312 675.512 285.419 685.755C285.328 686.797 285.449 686.633 285.086 687.821C283.343 683.781 285.463 678.577 285.745 673.921C284.299 673.94 282.55 673.958 280.498 673.988C278.837 676.316 279.833 685.286 278.572 686.541C278.351 686.206 278.13 685.871 277.908 685.536C279.105 675.755 281.1 662.398 282.479 653.111L283.266 645.975Z" fill="#B4B4B3"/>
<path d="M283.266 645.975C285.294 646.006 288.967 646.152 290.82 645.951L289.72 654.281C287.624 655.482 287.25 655.774 284.867 655.932C282.806 655.025 283.491 655.683 282.479 653.111L283.266 645.975Z" fill="#888987"/>
<path d="M133.529 637.536C134.386 642.471 137.475 681.35 136.831 683.854C136.356 682.19 136.019 676.066 135.85 673.933C133.836 673.537 134.333 673.318 132.843 674.061C133.231 675.804 133.623 676.091 134.767 677.547L134.08 678.705L134.736 678.327C131.036 678.077 133.059 675.902 130.822 677.62L130.332 680.411C129.34 669.546 127.76 658.565 126.842 647.944C127.965 647.944 132.018 646.329 133.337 645.841C133.329 643.02 133.42 640.357 133.529 637.536Z" fill="#B2B2B0"/>
<path d="M501.558 651.454C503.713 653.099 506.732 652.319 508.422 650.296C508.109 658.059 507.098 669.247 507.126 676.627C507.042 678.68 506.824 685.438 505.712 686.87C504.673 686.292 503.874 683.269 502.817 681.417L501.798 681.173C500.605 682.763 501.401 685.225 500.753 687.888C500.476 681.752 499.845 670.113 500.95 664.232L501.558 651.454Z" fill="#7C7C79"/>
<path d="M500.95 664.232L501.235 675.158C502.715 675.56 505.744 676.481 507.126 676.627C507.042 678.68 506.824 685.438 505.712 686.87C504.673 686.292 503.874 683.269 502.817 681.417L501.798 681.173C500.605 682.763 501.401 685.225 500.753 687.888C500.476 681.752 499.845 670.113 500.95 664.232Z" fill="#D2D1D0"/>
<path d="M436.649 650.948C436.816 652.557 437.118 654.756 437.051 656.322C438.989 667.102 439.034 680.344 440.925 691.197L440.42 692.062L439.656 691.812C439.545 689.844 439.138 679.777 438.564 678.613C436.643 679.722 434.692 679.296 433.395 680.765C433.351 683.275 435.523 684.792 435.39 685.158C435.085 686.005 434.257 690.374 434.178 692.355C432.949 684.963 432.218 673.659 431.61 665.981L430.492 655.372C431.253 651.77 433.431 652.063 436.649 650.948Z" fill="#BDBCBB"/>
<path d="M436.649 650.948C436.816 652.557 437.118 654.756 437.051 656.322C436.871 662.788 437.452 662.898 431.61 665.981L430.492 655.372C431.253 651.77 433.431 652.063 436.649 650.948Z" fill="#797877"/>
<path d="M353.316 656.371C354.301 654.927 354.253 655.012 355.834 654.226C357.311 654.385 358.353 654.647 359.748 654.165C360.84 665.622 361.122 678.394 362.282 689.515C362.113 686.456 362.038 684.281 359.721 682.044C357.979 681.319 357.924 681.313 356.142 681.752C356.208 683.939 356.863 692.525 356.332 693.787C355.086 690.039 353.441 661.49 353.316 656.371Z" fill="#949492"/>
<path d="M216.072 616.707C216.848 619.687 215.916 622.137 216.971 624.221L218.03 624.617C219.371 623.946 223.13 621.162 222.942 621.192C222.808 628.261 220.076 644.123 220.483 648.9C218.634 646.719 215.441 646.621 213.146 648.273C213.744 637.968 215.025 627.042 216.072 616.707Z" fill="#605F5E"/>
<path d="M426.689 663.032C426.245 673.836 425.572 682.239 425.642 693.08L425.056 693.507C424.752 691.435 424.747 690.167 424.726 688.114C422.942 687.48 421.371 686.608 419.681 687.132C419.119 688.54 419.247 689.783 419.233 691.307L418.691 690.965C418.93 687.2 419.714 666.395 420.329 664.506L421.323 664.945C423.482 664.482 424.97 664.385 426.689 663.032Z" fill="#C6C6C5"/>
<path d="M210.798 668.467C213.124 665.938 215.283 666.846 218.682 666.999C217.963 672.696 217.755 678.979 216.669 684.537C216.093 687.486 213.84 687.858 211.242 688.333L209.869 688.595C208.681 684.658 210.822 673.117 210.798 668.467Z" fill="#D1D1D0"/>
<path d="M213.146 648.273C215.442 646.621 218.635 646.719 220.483 648.9L220.076 650.893L218.682 666.999C215.283 666.846 213.124 665.938 210.798 668.467C211.028 664.738 211.855 657.17 212.517 653.574C212.615 651.466 212.773 650.357 213.146 648.273Z" fill="#AAAAA8"/>
<path d="M213.146 648.273C215.442 646.621 218.634 646.719 220.483 648.9L220.076 650.893L219.7 651.192C218.55 652.118 218.497 651.917 217.996 653.142L216.012 653.038L216.381 652.77C214.595 652.532 214.255 652.837 212.517 653.574C212.615 651.466 212.773 650.357 213.146 648.273Z" fill="#7E7E7C"/>
<path d="M421.46 641.722C423.758 644.434 421.148 644.671 424.169 647.06L425.375 646.725C427.343 643.922 425.446 643.605 427.685 640.93L428.013 642.203C427.607 649.15 427.166 656.091 426.689 663.032C424.97 664.385 423.482 664.482 421.324 664.945L420.33 664.506C420.467 656.901 420.993 649.309 421.46 641.722Z" fill="#60605F"/>
<path d="M434.898 634.08C435.683 639.754 436.148 645.238 436.649 650.948C433.431 652.063 431.254 651.77 430.492 655.372C430.105 650.649 429.684 645.933 429.229 641.216L428.889 636.926C430.855 635.701 432.771 634.982 434.898 634.08Z" fill="#565655"/>
</g>
<defs>
<clipPath id="clip0_6_1039">
<rect width="832" height="704" fill="white"/>
</clipPath>
</defs>
</svg>
