<svg width="832" height="927" viewBox="0 0 832 927" fill="none" xmlns="http://www.w3.org/2000/svg">
<g clip-path="url(#clip0_6_195)">
<path d="M0 0H832V927H0V0Z" fill="none"/>
<path d="M137.033 151.561C127.066 116.884 129.9 80.359 145.65 47.63C152.833 32.704 172.097 9.774 187.519 30.018C202.969 50.298 200.813 87.659 198.046 111.886C218.09 106.445 230.551 107.296 250.266 112.06C252.56 105.283 259.794 87.737 263.336 80.825C271.708 65.83 283.794 44.114 300.2 37.471C310.598 33.26 319.712 42.316 321.967 52.167C326.811 73.324 321.772 97.32 313.723 117.159C310.229 125.771 304.743 135.014 300.261 143.191C335.418 182.121 332.587 233.609 325.802 282.091C325.936 285.758 326.306 289.953 326.801 293.555C329.745 314.974 316.313 340.316 293.466 345.095C288.502 351.314 285.467 354.32 279.625 359.572C294.147 374.794 300.634 385.457 307.292 405.768C309.006 410.995 311.124 417.656 311.799 423.085C326.022 423.39 338.841 422.72 353.004 422.275C360.85 393.308 376.839 372.813 401.426 355.74C404.445 353.643 409.556 352.458 413.149 351.583C384.822 339.508 366.281 322.707 358.336 291.947C353.356 288.181 349.068 284.871 346.476 278.774C340.747 265.298 341.49 249.839 346.081 236.146C348.709 228.31 355.445 224.201 358.406 218.509C361.271 213 363.786 205.857 366.685 199.941C377.545 177.789 392.911 162.919 414.901 152.191C440.033 139.928 468.701 138.661 494.814 147.902C522.076 157.55 543.94 178.657 555.306 205.013C557.923 211.082 558.699 214.19 560.645 220.429C561.391 222.819 568.092 229.419 569.199 232.375C574.211 245.747 575.364 263.935 570.29 277.278C566.688 286.748 558.908 294.973 549.961 298.987C542.788 312.286 540.935 315.124 530.947 326.555C540.644 326.749 551.923 328.268 561.37 330.571C568.036 332.196 574.033 334.427 580.951 335.633C593.631 327.91 606.42 325.111 619.557 315.363C618.862 314.976 618.191 314.56 617.533 314.115C599.065 301.558 589.374 277.693 588.677 255.934C588.272 243.275 589.447 229.555 588.495 216.83C587.904 208.925 582.267 201.353 581.111 193.049C579.366 180.519 581.828 172.643 588.874 162.693L588.533 161.837C585.273 153.494 583.202 139.689 594.576 135.634C601.129 133.298 611.804 134.391 618.929 133.084C644.206 128.452 670.202 120.587 694.869 132.698C702.141 136.148 710.071 143.318 712.741 151.268C727.979 157.202 734.866 168.221 737.067 184.179C738.938 197.782 735.208 209.732 731.746 222.631C745.972 243.875 734.452 270.147 709.681 274.575C706.944 282.813 705.189 287.056 700.977 294.617C703.897 296.676 706.975 298.72 709.62 301.118C713.137 304.299 716.41 308.449 720.482 310.882C724.529 313.297 729.338 314.95 733.678 316.817C748.934 323.382 772.285 331.821 782.421 345.519C797.452 365.836 806.839 464.821 802.511 491.896C799.89 508.313 790.418 517.941 777.515 527.228C778.685 536.185 787.858 586.983 781.013 591.888C758.65 607.915 721.073 620.651 693.906 624.606C693.394 637.786 692.797 650.973 692.121 664.148C691.797 672.015 691.877 680.345 690.719 688.096C690.213 691.472 686.574 691.747 683.916 690.991C683.307 690.443 682.246 689.675 682.319 688.718C684.166 664.959 685.062 640.967 685.922 617.129C686.037 613.832 684.751 603.838 685.946 601.986C687.634 600.84 686.757 600.998 688.622 601.315C691.523 603.338 692.468 605.746 693.437 608.957C703.616 608.677 730.856 602.034 736.281 593.363C722.371 580.383 721.433 564.57 704.476 557.977C697.173 560 686.671 564.521 680.43 565.99C671.068 568.19 652.282 564.631 641.292 564.162C631.467 569.536 626.524 574.564 623.446 585.344C618.941 600.816 620.636 617.214 620.331 633.137C619.971 651.491 620.593 669.907 620.325 688.255C620.282 691.235 618.179 692.984 615.26 692.362C612.834 690.132 611.98 686.445 611.962 683.282C611.883 667.512 611.95 651.528 612.023 635.763C607.225 636.592 599.759 637.415 594.931 637.524C594.029 639.115 594.154 641.376 593.702 643.326L591.926 675.275C591.682 679.175 591.857 687.859 589.622 690.503C587.267 691.655 588.302 691.46 585.707 691.265C584.777 690.601 583.335 689.699 583.371 688.395C584.142 660.211 588.123 631.425 584.615 603.284C584.307 600.81 583.637 597.732 584.967 595.453L585.985 595.38C589.773 598.872 591.592 604.813 592.716 609.688C599.033 608.902 606.451 607.787 612.712 607.275C613.894 590.475 614.571 575.85 628.145 564.143C628.529 563.814 628.913 563.491 629.297 563.175C607.614 561.151 585.743 560.871 564.071 558.818C559.122 558.354 545.646 557.629 541.528 556.593C532.862 560.591 529.355 565.679 525.939 574.838C524.288 579.25 523.187 583.851 522.663 588.537C521.864 595.977 522.304 604.795 522.28 612.339C522.218 632.052 523.803 651.796 523.584 671.534C523.531 676.287 525.924 688.133 521.937 691.21C520.119 691.253 519.756 691.235 518.268 689.955C517.103 688.95 515.388 686.146 515.281 684.611C514.636 675.361 514.889 665.927 514.625 656.653C514.326 646.104 514.917 635.434 514.286 624.923C506.995 628.445 492.25 632.911 483.883 635.641C483.643 642.893 484.747 686.5 472.371 679.608C470.674 678.663 471.559 671.016 472.02 669.334C477.394 643.082 480.112 608.335 446.756 600.621C432.724 597.379 421.268 611.669 420.542 624.386C418.706 640.657 419.054 656.622 417.99 672.838C417.805 675.659 415.277 677.085 412.629 677.268C411.634 676.719 410.221 675.976 410.161 674.635C409.529 660.406 411.388 639.444 412.342 625.66C409.459 626.129 406.391 626.708 403.492 626.812C403.553 635.708 402.944 662.491 397.132 670.126C396.661 670.748 394.695 671.899 393.878 672.32C390.664 672.85 384.1 672.259 382.258 669.163C381.686 659.7 385.355 647.323 386.609 637.646C387.579 630.163 387.851 618.396 390.601 611.882C385.266 602.869 374.464 596.294 364.92 592.479C373.458 616.233 371.197 639.371 369.779 664.276C369.477 669.565 369.113 681.607 363.977 684.276C357.577 683.087 360.435 672.082 360.891 667.542C361.876 658.073 362.887 648.554 363.095 639.03C363.603 615.611 364.103 600.426 347.988 582.09C328.42 583.662 308.878 585.563 289.372 587.781C297.287 598.598 301.826 611.602 303.545 624.819C304.218 629.992 304.409 635.19 304.373 640.401C304.337 645.495 302.551 685.598 300.284 688.243C299.42 689.248 298.204 689.9 296.868 689.973C295.192 690.059 294.1 689.163 292.923 688.103C291.37 684.733 294.96 653.819 295.266 647.616C296.279 627.061 294.019 605.362 279.572 589.439C251.692 584.277 224.209 575.411 196.425 569.415C193.693 568.823 181.64 564.338 180.117 564.375C150.228 565.088 123.281 561.273 98.6357 542.943C95.6722 547.361 91.4476 552.894 87.7545 556.642C88.3476 560.134 88.4707 566.502 88.6359 570.383C89.3734 587.732 90.8314 603.442 103.354 616.86C107.474 621.297 112.372 624.935 117.805 627.604C134.734 636.001 182.164 646.062 201.004 646.665C201.153 641.455 202.608 629.432 209.06 628.938L210.178 629.986C210.764 634.155 208.319 640.681 208.379 645.513C208.545 658.926 208.978 671.753 211.201 685.001C212.002 689.778 208.654 693.776 203.593 690.631C200.875 687.164 200.08 661.406 199.785 655.495C174.162 651.473 139.361 647.14 115.924 636.354C87.2449 623.149 79.9551 596.587 79.7813 567.007C74.7125 568.05 69.5011 568.208 64.3799 567.465C17.7034 560.792 26.0068 523.468 28.4981 488.362C29.4747 474.602 22.8547 457.344 36.7287 447.363C37.9334 433.433 40.6755 420.465 42.502 406.506C45.3799 384.514 44.2699 356.826 59.4121 338.737C69.2549 326.98 95.6881 319.792 110.517 319.141C102.357 303.333 97.7982 291.657 97.1424 273.488C95.7106 233.837 110.222 181.305 137.033 151.561Z" fill="#353534"/>
<path d="M390.601 611.882C400.874 630.821 392.726 649.608 391.549 669.218C391.455 670.784 392.696 671.637 393.878 672.32C390.664 672.85 384.1 672.259 382.258 669.163C381.686 659.699 385.355 647.323 386.609 637.646C387.578 630.163 387.851 618.396 390.601 611.882Z" fill="#DEDEDD"/>
<path d="M736.28 593.363C740.608 595.989 744.088 598.061 748.971 599.761C728.369 610.072 715.221 610.602 694.284 615.946L693.437 608.957C703.616 608.677 730.856 602.034 736.28 593.363Z" fill="#DEDEDD"/>
<path d="M593.732 618.372C599.852 616.879 606.02 615.965 612.511 614.325C612.645 621.114 612.23 628.914 612.023 635.763C607.225 636.592 599.759 637.415 594.931 637.524C594.029 639.115 594.154 641.376 593.702 643.326C593.662 635.008 593.672 626.69 593.732 618.372Z" fill="#DEDEDD"/>
<path d="M437.561 348.104C431.053 348.211 424.583 347.083 418.495 344.781C396.254 336.188 378.744 323.319 369.388 300.94C356.395 269.949 356.658 247.314 368.279 216.415C388.017 163.929 442.214 136.567 495.311 157.62C523.95 168.976 539.223 188.46 551.285 216.642L550.065 216.584C543.893 216.312 539.724 216.656 535.025 221.178C520.439 235.214 517.221 276.811 530.939 291.556C534.705 295.149 535.856 296.754 540.833 298.041C528.853 326.369 495.181 345.297 465.57 347.869C458.529 348.48 444.46 349.55 437.561 348.104Z" fill="#FCFCFC"/>
<path d="M530.939 291.556C534.706 295.149 535.856 296.754 540.833 298.041C528.853 326.369 495.182 345.297 465.57 347.869C458.529 348.48 444.461 349.55 437.562 348.104C442.853 348.083 449.517 347.125 454.735 346.092C489.085 339.294 518.347 326.61 530.939 291.556Z" fill="#DEDEDD"/>
<path d="M422.453 211.267C423.349 211.217 424.245 211.182 425.142 211.164C445.446 210.767 481.936 209.04 497.126 223.996C512.108 238.748 513.361 274.088 497.608 289.126C484.396 301.739 468.864 301.746 451.81 301.766C417.76 301.804 365.579 307.643 364.48 259.231C364.196 246.683 367.202 234.063 376.169 224.73C390.107 210.224 404.102 211.582 422.453 211.267Z" fill="#353534"/>
<path d="M462.044 241.989C474.231 240.869 475.869 252.432 474.312 262.056C473.636 266.231 471.774 268.831 468.228 271.161C456.131 272.307 454.008 262.622 455.394 252.428C456.012 247.88 458.23 244.584 462.044 241.989Z" fill="#FCFCFC"/>
<path d="M398.346 241.44C403.027 242.244 406.104 244.149 407.549 248.849C410.182 257.416 409.375 268.136 399.917 271.402C388.725 269.5 387.61 256.085 391.249 247.268C392.801 243.506 394.751 242.746 398.346 241.44Z" fill="#FCFCFC"/>
<path d="M419.701 311.384C441.652 323.238 439.63 310.587 450.008 313.263C452.04 315.902 450.4 318.363 448.379 320.418C439.665 324.806 428.036 325.508 419.492 320.445C415.546 318.108 417.35 314.035 419.701 311.384Z" fill="#353534"/>
<path d="M168.98 31.848C197.549 28.157 191.146 99.975 189.956 116.557C189.532 122.478 183.304 134.909 187.203 139.27L188.476 139.009C192.359 135.724 195.695 127.029 197.234 122.177C207.207 117.771 218.113 115.885 228.987 116.687C254.283 118.713 282.258 134.059 298.365 153.566C324.739 185.511 323.4 229.35 320.304 267.999C318.29 259.701 311.432 242.702 307.942 234.37C311.805 225.673 315.43 216.052 314.254 206.484C312.438 190.117 303.428 174.083 290.808 164.009C252.191 133.183 201.994 161.832 179.342 198.231C164.205 222.552 152.142 255.797 156.458 285.938C161.742 322.836 179.602 340.131 208.332 361.962C227.07 376.762 227.722 376.487 231.507 400.484C236.899 434.676 235.158 467.564 230.731 501.701C230.74 501.853 230.749 502.005 230.759 502.164C225.695 503.858 221.202 505.613 216.239 507.587C207.943 497.502 205.099 500.5 193.261 496.948C190.595 496.143 185.657 492.158 182.603 490.89C174.337 487.46 165.94 484.413 157.577 481.232C161.575 476.235 168.089 465.187 170.756 459.282C180.363 438.015 181.593 410.355 176.526 387.743C174.924 380.594 170.971 370.09 168.328 363.184C171.49 364.91 201.206 378.999 202.472 378.991L202.797 378.194C200.51 372.293 167.741 357.133 160.323 352.521C129.605 333.424 108.494 316.105 106.084 277.681C104.153 246.906 109.936 217.443 123.257 189.414C128.374 178.648 133.226 169.094 141.252 159.999C142.108 161.068 143.002 162.04 143.916 163.056C145.751 163.782 145.878 163.93 147.69 163.452C148.322 162.467 148.845 161.555 148.435 160.362C139.233 133.817 136.373 102.475 144.528 75.325C148.561 61.897 156.243 38.862 168.98 31.848Z" fill="#FCFCFC"/>
<path d="M166.556 149.897C165.893 150.979 162.993 150.851 161.905 150.702C160.872 149.533 160.183 147.041 159.754 145.36C153.367 120.345 153.661 90.414 164.851 66.745C165.65 65.078 168.786 61.101 170.641 60.959C175.954 60.551 178.043 73.516 178.514 76.784C182.338 92.573 179.56 138.109 166.556 149.897Z" fill="#DEDEDD"/>
<path d="M178.514 76.784C182.339 92.572 179.56 138.109 166.556 149.897C165.332 146.841 170.129 134.494 171.02 130.495C173.855 117.768 174.925 105.027 176.42 92.115C176.964 87.411 177.227 81.098 178.514 76.784Z" fill="#303031"/>
<path d="M460.036 425.712C469.497 425.236 479.475 423.256 475.582 436.863C465.208 473.133 456.483 509.787 447.422 546.392C445.488 554.204 443.908 556.484 435.49 557.197C422.521 558.293 409.543 559.335 396.578 560.487L289.734 568.897C285.126 569.213 276.481 570.907 272.927 568.799C272.805 568.391 272.7 568.117 272.65 567.708C272.11 563.309 299.653 454.182 303.425 441.446C304.038 439.368 304.938 435.718 306.478 434.145C308.38 432.208 313.049 431.592 315.658 431.294C329.808 429.667 344.6 429.941 358.86 429.35L460.036 425.712Z" fill="#DEDEDD"/>
<path d="M394.659 468.52C396.949 469.099 397.586 469.3 397.898 471.695C396.053 476.844 388.799 480.287 384.125 482.676C386.548 482.323 390.521 481.604 392.513 482.786C409.033 492.597 397.597 521.42 379.58 521.518C374.246 521.548 373.034 520.981 368.604 518.623C350.369 504.065 363.677 476.997 384.048 483.023C381.285 480.379 375.925 476.077 376.869 471.915L378.061 471.585C382.076 472.822 383.109 474.218 385.311 477.509C388.336 473.523 390.446 471.189 394.659 468.52Z" fill="#353534"/>
<path d="M499.09 432.128C499.485 432.098 499.88 432.08 500.275 432.067C504.745 431.903 514.774 432.823 519.788 433.091L556.842 434.816C587.583 436.181 618.307 437.29 649.009 439.465C655.543 439.928 657.499 443.402 658.889 449.422C660.748 457.46 661.912 465.754 663.522 473.858L674.737 532.34C676.023 539.391 678.193 547.733 678.4 554.875C678.467 557.282 677.083 558.123 675.541 559.512C670.988 559.457 658.676 557.903 653.257 557.489L593.571 552.864C575.684 551.499 557.76 550.585 539.863 549.342C534.068 548.946 528.268 548.671 522.525 547.757C518.866 539.47 515.039 520.445 512.951 511.055L503.292 468.74C501.063 458.917 498.187 448.709 496.391 438.819C495.857 435.876 497.329 434.249 499.09 432.128Z" fill="#DEDEDD"/>
<path d="M561.933 471.884C575.655 473.261 592.663 473.779 606.473 474.358C606.668 478.605 607.636 484.87 608.201 489.251L614.68 489.714C615.284 494.766 617.85 501.664 616.539 505.016C614.363 506.387 613.918 505.918 611.011 505.96C611.846 510.019 613.199 517.38 612.864 521.256L612.096 521.853C606.793 522.359 605.813 516.521 604.058 512.231L602.928 512.645C602.57 515.229 602.798 518.587 602.889 521.25C594.939 520.738 596.096 518.958 595.415 511.518C591.664 510.969 588.205 510.86 584.436 510.689C584.894 513.523 586.3 517.977 583.947 519.683C581.919 519.945 581.681 519.927 579.838 519.044C578.286 517.112 578.542 514.741 578.058 511.883C576.685 510.232 577.431 510.689 575.365 510.11C573.472 511.792 576.24 514.723 574.547 518.227C572.386 518.91 573.312 518.849 571.001 518.337C567.704 515.759 567.413 508.44 566.602 503.797L559.974 503.334C559.363 499.409 556.37 488.697 558.831 485.814C560.22 486.21 560.972 486.594 562.336 486.156C564.615 482.895 562.558 476.692 561.933 471.884Z" fill="#353534"/>
<path d="M567.253 488.544L577 489.538L578.368 496.728C574.831 496.655 571.059 497.149 568.493 494.973C567.205 492.975 567.383 490.994 567.253 488.544Z" fill="#FCFCFC"/>
<path d="M594.671 490.58C602.809 490.756 603.792 490.403 604.93 498.782C601.901 498.575 598.14 498.8 595.908 497.106C594.506 495.138 594.758 493.096 594.671 490.58Z" fill="#FCFCFC"/>
<path d="M723.413 321.571C729.576 324.044 735.701 327.597 741.705 330.494C757.565 338.15 774.875 340.937 780.386 360.074C791.765 399.584 795.654 442.738 795.758 483.755C795.831 515.32 756.175 531.676 731.221 539.902C733.989 520.817 725.272 504.553 708.248 495.735C717.068 490.915 744.137 476.296 752.299 474.596C757.705 473.468 768.122 476.284 771.547 474.797C772.279 474.48 772.279 473.67 772.511 472.975C771.224 468.6 760.003 466.851 756.09 466.589C752.695 466.753 749.519 467.765 746.24 468.66C744.284 450.83 742.997 432.939 742.4 415.011C742.29 410.532 743.997 391.588 741.279 389.356C732.788 396.629 737.591 458.929 738.316 471.988C725.65 477.899 708.218 489.075 695.205 493.56C692.901 494.352 681.759 493.096 674.786 494.486C673.432 488.544 672.232 482.573 671.177 476.576C683.612 453.859 697.448 432.128 708.712 408.674C714.204 397.24 720.372 386.266 724.846 374.291C722.383 370.132 717.196 365.646 713.563 362.333C719.549 359.41 722.92 357.332 727.918 352.956C727.479 344.926 724.163 332.215 723.413 321.571Z" fill="#FCFCFC"/>
<path d="M607.284 168.8C626.804 180.317 640.549 180.305 662.626 175.884C668.764 174.66 675.596 171.811 681.795 171.398C694.674 170.54 687.567 186.394 687.964 193.392C688.585 204.495 695.54 213.32 698.838 223.535C700.3 228.06 697.917 235.468 701.916 239.25C708.858 241.454 711.107 225.169 718.318 225.029C733.763 224.731 731.453 248.078 724.626 255.974C718.001 263.63 712.716 265.299 703.878 266.589C699.807 278.501 700.41 281.286 693.084 292.986C693.193 296.259 693.608 300.226 693.864 303.545C690.505 310.185 687.171 313.147 681.771 317.946C674.188 323.327 661.705 331.323 652.94 333.305L652.544 333.167C645.169 330.53 643.066 328.176 639.72 321.22C650.118 321.516 672.982 320.888 675.962 308.434C675.225 306.364 675.73 307.093 673.658 305.786C667.478 306.726 661.644 311.528 655.391 313.042C644.383 315.706 632.893 314.337 623.159 308.434C609.871 300.374 602.144 285.806 598.544 271.08C595.168 257.268 595.301 202.372 598.587 188.101C600.257 180.845 603.464 175.078 607.284 168.8Z" fill="#FCFCFC"/>
<path d="M629.809 231.191C642.725 234.775 625.128 253.201 628.206 259.725C631.82 262.141 635.904 259.909 638.354 263.497C638.446 265.787 637.757 266.43 636.501 268.381C631.893 269.668 623.616 265.598 621.745 261.179C619.075 254.873 624.933 248.05 626.658 242.207C627.797 238.365 628.267 234.896 629.809 231.191Z" fill="#353534"/>
<path d="M659.352 274.153C661.705 275.708 661.809 276.196 661.711 278.852C655.988 289.079 634.045 288.749 624.567 284.013C622.988 281.924 621.288 279.047 623.732 277.137C626.737 276.899 630.156 279.194 633.496 280.022C643.328 282.456 651.209 278.73 659.352 274.153Z" fill="#353534"/>
<path d="M660.669 223.1C672.232 223.541 671.275 239.308 663.375 243.409C651.605 243.208 652.258 228.286 660.669 223.1Z" fill="#353534"/>
<path d="M611.98 222.996C622.543 223.624 622.543 238.708 614.693 243.054L613.961 243.005C602.127 242.151 603.765 228.795 611.98 222.996Z" fill="#353534"/>
<path d="M660.114 203.74C666.648 203.556 678.717 206.593 677.772 215.01L676.614 215.831C674.353 215.636 673.042 214.214 671.183 212.747C668.477 211.112 666.478 210.477 663.497 209.391C660.255 210.345 652.306 213.446 650.484 209.308C651.41 205.616 656.927 204.406 660.114 203.74Z" fill="#353534"/>
<path d="M607.574 203.123C612.852 202.439 621.038 203.418 621.977 209.902L620.989 210.884C618.326 211.15 615.558 209.212 612.316 208.001C607.443 208.869 603.489 213.844 599.827 212.343C598.572 208.112 604.583 204.556 607.574 203.123Z" fill="#353534"/>
<path d="M279.383 186.212C282.306 188.113 288.457 196.182 290.243 199.177C304.12 222.445 296.607 252.621 293.781 277.85C293.198 283.769 293.134 290.148 291.377 295.882C282.895 323.565 256.145 345.914 226.467 338.038C204.951 332.242 186.602 318.174 175.421 298.904C173.23 294.948 170.513 285.242 167.599 283.318L164.611 283.931L163.868 283.172C162.55 277.953 164.251 264.05 164.784 258.044C179.124 255.782 185.702 237.278 189.349 225.528C198.692 224.692 202.004 223.679 210.881 220.658C207.677 222.692 204.741 224.165 203.304 227.754C203.429 229.769 203.061 228.951 204.222 230.378C207.394 229.889 212.599 225.818 215.666 224.892C220.473 223.439 226.36 225.951 230.459 228.165L231.208 227.69C234.001 220.268 222.614 218.924 217.76 218.698C229.964 212.677 232.198 211.293 243.135 202.93C240.635 206.623 236.165 210.919 238.966 215.423C241.437 216.636 244.401 216.025 246.905 215.068C262.634 209.057 271.897 200.667 279.383 186.212Z" fill="#FCFCFC"/>
<path d="M218.165 242.477C231.441 242.507 230.905 260.809 221.214 267.876L218.523 268.171C208.866 264.539 210.35 248.614 218.165 242.477Z" fill="#353534"/>
<path d="M276.282 242.489C287.465 244.156 287.543 261.932 277.147 267.473C267.96 267.584 265.71 248.899 276.282 242.489Z" fill="#353534"/>
<path d="M224.436 293.341C227.682 293.967 233.928 300.71 241.213 302.554C249.78 304.721 260.345 300.841 263.332 301.834L263.791 302.954C263.212 304.721 262.216 305.391 260.85 306.67C249.892 312.326 237.982 309.625 227.645 303.862C222.867 301.199 221.445 297.754 224.436 293.341Z" fill="#353534"/>
<path d="M258.603 264.147C265.952 265.503 270.924 278.101 266.313 284.217C262.896 288.75 261.431 288.824 256.36 289.97C254.522 289.577 252.676 288.406 251.983 286.653C254.59 281.662 266.374 284.805 261.504 275.321C259.583 271.579 258.169 268.437 258.603 264.147Z" fill="#353534"/>
<path d="M278.905 220.19C285.16 219.834 289.875 220.631 293.064 226.659C293.127 228.753 293.416 228.037 292.164 229.388C290.029 229.395 289.37 228.441 287.286 227.092C278.813 224.539 279.927 227.616 272.312 228.242C271.675 228.294 271.651 227.939 270.98 227.218C270.534 224.82 270.42 225.722 271.152 223.62C273.651 221.728 275.935 221.173 278.905 220.19Z" fill="#353534"/>
<path d="M117.673 364.566C130.536 363.168 137.165 371.783 142.164 382.338C152.363 403.869 151.566 426.681 148.948 449.782C147.886 459.16 147.354 469.483 144.079 478.496C137.858 477.027 122.252 473.743 117.697 482.183C117.132 483.231 117.765 483.883 118.284 484.852C120.506 485.437 130.877 481.11 138.167 483.736C153.404 489.215 175.05 495.065 188.559 503.59C176.001 514.875 171.272 523.449 169.998 540.561C169.862 547.16 170.478 549.068 172.515 555.271C140.318 555.472 100.225 545.515 84.5159 514.973C81.7627 509.623 78.5078 496.04 78.9046 489.8C80.9191 458.137 86.264 425.322 94.8266 394.763C98.1125 383.414 107.201 369.465 117.673 364.566Z" fill="#FCFCFC"/>
<path d="M501.363 352.746C505.825 354.405 513.233 356.078 518.219 357.583C511.558 361.886 507.956 366.54 503.996 373.217C494.402 389.391 492.741 406.758 491.696 425.072C491.53 427.973 489.491 435.023 489.728 437.107C491.022 448.496 494.583 460.982 497.297 472.128C499.324 480.452 500.957 488.733 503.086 496.856C494.253 501.061 487.191 506.113 478.607 510.22C472.264 509.361 469.347 509.16 463.089 510.372C467.608 492.731 473.074 475.394 477.014 457.6C478.004 453.121 479.704 448.253 481.126 443.865C491.308 411.922 466.536 418.29 444.949 419.076C429.713 419.575 414.474 419.99 399.234 420.331C402.436 397.557 405.1 374.9 422.296 357.877C422.319 362.238 423.217 366.55 424.937 370.558C433.226 389.563 461.78 387.252 477.929 380.688C490.314 375.654 496.886 364.929 501.363 352.746Z" fill="#FCFCFC"/>
<path d="M654.641 133.786C664.74 132.348 679.18 133.998 688.317 137.832C700.068 142.762 704.14 148.455 708.882 159.352C735.488 164.418 731.855 198.835 724.766 218.254C714.74 218.19 712.186 218.533 705.707 226.377C701.038 208.381 691.596 206.166 694.107 186.098C694.68 179.761 695.034 177.753 694.759 171.457C688.774 161.49 679.265 164.551 669.739 167.178C649.691 172.705 621.988 176.335 605.906 160.201C604.477 158.767 604.254 156.99 602.271 155.821C600.548 157.71 601.795 161.734 599.977 163.954L599.18 163.497L600.493 163.323L598.689 162.823C596.307 158.306 591.101 150.284 594.423 145.135C595.245 143.859 596.157 143.038 597.719 142.851C603.549 142.156 609.428 142.427 615.223 141.193C628.864 138.628 640.731 135.585 654.641 133.786Z" fill="#605F5F"/>
<path d="M262.326 343.509C271.062 347.243 273.97 347.051 283.367 346.658C273.237 360.181 253.766 367.717 244.865 379.817C250.023 378.113 255.847 374.881 260.637 372.276C266.034 381.419 266.994 389.589 269.127 399.771C275.867 431.946 274.815 459.697 269.755 491.896L266.999 503.974C254.123 499.221 248.972 498.946 235.645 500.97C241.531 457.21 241.854 422.232 232.276 378.477C240.039 365.167 254.523 354.966 262.326 343.509Z" fill="#FCFCFC"/>
<path d="M470.69 561.791C483.413 563.053 484.93 560.353 497.067 558.537C498.097 558.385 503.268 559.329 504.631 559.579C511.199 561.889 515.359 563.814 519.983 569.22C515.479 580.505 515.435 584.472 514.404 596.483C514.14 602.857 513.856 609.518 513.825 615.885C503.044 621.242 498.626 622.156 486.996 625.172C487.109 619.268 487.176 615.727 485.597 609.865C475.588 566.66 425.949 565.856 416.389 608.768C415.7 611.864 415.068 615.337 412.614 617.476C407.596 619.584 407.368 617.19 407.065 613.082C405.984 598.445 400.78 589.615 392.185 578.031C406.155 577.087 420.34 576.307 434.233 574.454C440.956 573.564 440.79 569.39 444.719 569.317C446.59 570.725 447.665 571.151 449.743 572.108C460.531 569.299 461.147 570.158 470.69 561.791Z" fill="#FCFCFC"/>
<path d="M514.405 596.483C514.14 602.857 513.856 609.517 513.826 615.885C503.044 621.242 498.626 622.156 486.996 625.172C487.11 619.267 487.177 615.727 485.597 609.865C497.569 606.178 505.39 599.426 514.405 596.483Z" fill="#DEDEDD"/>
<path d="M470.69 561.791C483.413 563.053 484.93 560.353 497.067 558.537C498.097 558.385 503.268 559.329 504.631 559.579C501.235 564.808 474.873 569.89 467.949 572.187C464.002 573.491 453.879 573.552 449.743 572.108C460.531 569.299 461.147 570.158 470.69 561.791Z" fill="#DEDEDD"/>
<path d="M244.828 158.701C254.268 158.274 273.773 158.072 279.999 165.817C280.151 168.505 278.351 174.485 277.299 177.105C270.58 193.84 261.123 200.734 245.859 207.89C249.797 198.228 250.192 195.17 249.763 184.862C241.241 197.3 240.465 198.048 227.726 206.901C213.923 215.474 193.637 220.249 177.421 218.792C186.044 190.364 215.592 164.031 244.828 158.701Z" fill="#605F5F"/>
<path d="M608.769 331.073C608.77 330.949 599.653 348.862 598.562 352.275C600.388 355.534 603.838 359.352 606.307 362.297C603.033 364.676 598.471 366.713 596.472 370.372C593.382 376.03 608.394 421.208 611.078 430.41C602.471 430.203 592.644 429.465 583.938 429.027C584.044 415.243 583.634 401.109 582.791 387.334C582.637 384.807 582.41 383.403 580.655 381.486L579.129 382.901C577.317 387.286 577.439 421.525 577.356 428.509C570.461 428.436 562.73 427.924 555.704 427.717C560.841 405.345 562.857 381.915 570.639 359.515C577.012 341.172 591.863 338.982 608.769 331.073Z" fill="#FCFCFC"/>
<path d="M704.646 306.796C716.129 311.951 719.104 339.031 721.048 350.577C716.19 353.273 705.475 357.375 703.945 361.456C704.725 365.335 713.185 372.167 716.69 375.499C711.259 390.446 704.152 403.378 696.868 417.363C691.078 428.759 685.123 440.069 679.016 451.299C675.724 457.673 672.841 463.237 669.062 469.373C668.306 466.046 666.258 458.088 666.593 455.059C667.648 445.705 671.244 435.285 673.798 426.126L694.735 351.767C697.673 341.291 706.292 316.376 704.646 306.796Z" fill="#FCFCFC"/>
<path d="M258.517 114.888C265.085 94.438 273.974 75.656 287.637 58.961C292.293 53.545 298.912 44.561 307.116 46.668C309.3 47.229 312.199 50.26 312.878 52.394C321.138 78.364 308.381 115.152 293.852 136.753L293.016 137.012C292.061 136.124 291.08 135.246 290.188 134.297C286.642 131.3 283.068 128.337 279.467 125.407C282.205 111.965 287.695 98.352 292.904 85.694C294.218 82.498 299.025 73.667 299.237 70.912C289.961 77.689 278.141 111.218 274.27 122.687C269.411 120.311 263.17 117.45 258.517 114.888Z" fill="#FCFCFC"/>
<path d="M299.237 70.912C322.284 70.713 290.954 123.414 290.188 134.297C286.643 131.3 283.068 128.337 279.467 125.407C282.205 111.965 287.695 98.352 292.904 85.694C294.218 82.498 299.025 73.667 299.237 70.912Z" fill="#DEDEDD"/>
<path d="M768.975 532.011C769.835 531.999 769.408 531.956 770.316 532.651C773.468 548.818 775.132 567.69 775.339 584.088C775.467 594.277 759.954 593.936 753.305 592.833C744.473 591.37 739.755 588.007 734.482 580.968C727.369 569.756 726.022 563.333 714.228 554.698C724.316 549.738 737.878 546.228 748.508 542.243C756.34 539.305 761.807 536.258 768.975 532.011Z" fill="#FCFCFC"/>
<path d="M247.121 506.655C259.326 506.582 268.37 512.743 276.767 520.646L274.465 529.007C269.163 523.169 260.036 513.187 251.04 515.631C251.19 518.264 259.612 522.846 262.509 525.192C264.589 526.904 266.508 528.806 268.24 530.865C270.875 534.028 274.723 539.287 270.001 542.34C261.391 543.644 251.764 521.298 241.81 525.058L241.426 526.362C242.403 528.568 244.325 529.226 246.554 530.457C249.946 532.694 252.965 535.454 255.499 538.629C258.303 542.151 260.036 544.436 259.574 548.848C254.565 556.953 239.217 539.104 234.281 540.177C227.541 542.249 222.885 547.672 215.728 549.592C203.128 552.967 198.384 549.744 200.811 536.722C203.933 519.97 211.76 516.771 226.774 511.896C233.755 509.629 239.812 508.032 247.121 506.655Z" fill="#FCFCFC"/>
<path d="M36.7815 486.131C45.3403 489.355 58.5529 490.756 67.7512 491.847C67.8171 499.732 66.7912 507.453 66.6035 515.272C66.2232 531.176 61.5749 549.183 77.0599 559.342C64.4385 559.774 49.1622 559.244 41.082 547.812C32.6133 535.826 34.4619 519.403 35.1727 505.552C35.4973 499.227 35.8203 492.377 36.7815 486.131Z" fill="#969695"/>
<path d="M134.003 345.562C136.642 345.18 140.059 348.621 142.343 349.765C157.791 357.5 161.501 363.611 166.889 379.397C174.4 401.403 174.769 422.123 168.756 444.566C166.828 451.763 160.085 468.246 154.373 472.231L153.689 471.604L153.859 468.508C156.663 439.045 162.331 413.53 150.374 385.005C143.89 369.535 132.386 351.489 112.891 359.634C121.662 351.956 123.726 350.367 134.003 345.562Z" fill="#818080"/>
<path d="M70.6912 340.794C87.4702 339.379 97.2354 345.496 93.0912 363.349C90.797 373.233 88.8709 384.102 87.0106 394.125L75.4669 393.689C67.0737 392.204 60.116 390.934 51.7876 388.959C52.2933 380.112 53.7744 369.092 56.2485 360.593C59.1806 350.52 61.7471 345.765 70.6912 340.794Z" fill="#969695"/>
<path d="M51.6493 396.459C62.8674 399.455 73.6602 400.377 85.1899 401.088C82.1966 418.57 77.9659 437.978 74.7214 455.858C74.6232 456.973 74.541 456.887 74.1222 457.966C73.4158 456.881 72.0395 454.773 70.957 454.249C63.8804 450.842 52.043 448.685 44.2061 446.833C46.4579 430.008 48.9391 413.213 51.6493 396.459Z" fill="#969695"/>
<path d="M625.146 319.261C625.646 321.275 623.061 334.282 623.025 337.694C622.708 367.927 625.871 401.613 631.662 431.227L616.942 430.654C615.516 426.815 614.126 421.69 612.913 417.674C608.792 404.382 604.796 387.619 600.972 373.837C605.96 369.351 612.224 366.925 617.052 362.008C614.76 359.314 608.652 354.672 605.496 351.695C609.411 340.522 616.948 327.782 625.146 319.261Z" fill="#FCFCFC"/>
<path d="M304.976 246.169C305.333 246.553 305.462 246.742 305.7 247.211C313.413 262.414 319.065 280.15 319.512 297.245C319.91 312.433 312.652 329.153 298.679 336.118C300.922 332.098 304.925 323.574 301.273 319.259L300.347 319.486C298.417 321.722 296.65 327.139 294.752 330.625C288.792 339.897 277.998 343.428 267.881 338.595C282.37 329.387 296.485 309.419 298.737 292.411C300.569 278.573 304.224 259.926 304.976 246.169Z" fill="#605F5F"/>
<path d="M464.838 517.557C467.938 517.301 470.765 517.252 473.886 517.276C485.807 517.051 498.712 529.567 497.337 541.645C495.863 554.588 478.827 553.144 469.812 554.631C467.33 555.039 462.018 559.524 459.892 561.2C456.744 563.406 449.71 565.551 447.863 560.975C448.848 552.632 466.837 541.938 466.706 535.698C465.512 534.485 466.219 534.82 464.503 534.692C461.611 535.856 458.13 539.293 455.676 541.45C457.364 534.65 457.902 526.606 460.384 520.098C461.01 518.459 463.126 518.123 464.838 517.557Z" fill="#DEDEDD"/>
<path d="M543.086 376.062C548.838 376.278 553.64 385.406 555.508 390.104C553.14 402.452 550.508 414.828 548.936 427.29C543.657 426.863 538.472 426.742 533.181 426.583C529.321 426.577 524.343 426.132 520.41 425.888C521.212 411.812 524.281 396.244 531.906 384.051C534.909 379.248 537.843 377.754 543.086 376.062Z" fill="#FCFCFC"/>
<path d="M649.466 368.793L658.054 368.897C658.535 375.4 660.029 383.43 660.937 390.102C663.235 406.98 665.368 424.005 664.204 441.062C661.991 438.253 661.321 437.308 658.493 435.194C651.91 432.963 645.486 432.482 638.616 431.83C638.945 413.811 644.76 385.914 649.466 368.793Z" fill="#969695"/>
<path d="M522.469 333.512C532.318 333.277 563.352 338.692 572.432 342.106C565.288 350.231 559.442 373.337 558.346 374.276L557.06 372.66C543.67 354.855 524.764 352.361 503.811 345.35C510.087 342.074 516.59 337.528 522.469 333.512Z" fill="#818080"/>
<path d="M525.485 360.244C531.143 360.144 542.539 363.937 543.814 369.767C543.491 369.709 542.658 369.561 542.388 369.579C521.999 370.939 515.164 407.507 514.21 422.409C514.134 423.597 514.074 423.366 513.564 424.53C510.579 425.687 502.103 425.511 498.407 425.565C498.452 404.619 503.661 369.359 525.485 360.244Z" fill="#818080"/>
<path d="M204.947 558.726C208.087 559.08 221.365 562.718 225.648 563.717C235.366 567.008 251.877 568.708 260.842 572.078C276.259 577.867 274.888 576.965 290.856 575.441C310.54 573.558 333.943 572.285 353.257 570.706C364.863 569.756 434.396 562.608 437.642 564.277C437.25 566.386 437.236 565.831 435.462 567.678C428.101 568.872 415.359 569.549 407.763 570.146L365.69 573.692C338.025 575.892 310.236 578.72 282.527 580.603C278.89 580.852 274.395 580.645 271.069 580.207C262.955 579.122 205.199 564.619 202.141 561.877C202.731 560.134 203.368 560.042 204.947 558.726Z" fill="#969695"/>
<path d="M284.916 378.851C293.295 383.962 302.159 415.84 304.636 426.169C297.221 433.286 293.709 452.238 291.117 462.353L280.711 503.121L278.218 511.768C276.826 510.872 275.307 509.568 273.999 508.507C276.029 499.001 277.58 489.806 278.364 480.129C278.486 478.624 278.79 475.217 279.177 473.828C288.249 441.19 295.897 412.141 284.916 378.851Z" fill="#FCFCFC"/>
<path d="M195.922 505.327C201.514 505.448 203.93 507.612 208.6 510.604C198.698 517.069 193.496 531.956 192.747 543.297C192.423 548.208 195.067 551.487 197.534 555.478C196.508 556.928 195.457 557.075 193.674 557.922C190.565 557.922 186.964 557.977 184.023 556.88C180.838 555.728 178.233 553.37 176.77 550.317C170.355 536.703 182.076 511.963 195.922 505.327Z" fill="#FCFCFC"/>
<path d="M40.4895 453.475C45.7132 453.268 62.772 456.613 67.0514 459.179C71.1371 461.622 69.2853 479.867 67.6664 484.193C67.3988 484.906 66.3462 484.803 65.6343 484.9C55.8192 484.644 45.1465 482.633 36.0788 478.861C34.8461 471.122 34.6443 459.276 40.4895 453.475Z" fill="#969695"/>
<path d="M675.956 501.585C677.839 501.445 679.729 501.414 681.612 501.488C712.442 502.664 725.212 536.131 705.292 534.369C693.315 532.413 694.748 529.043 681.289 533.571C681.015 531.176 680.875 528.452 680.686 526.021C682.697 523.596 685.373 520.994 685.983 518.05L685.227 517.118C682.838 516.71 680.893 517.8 678.662 518.739C677.541 513.261 676.742 507.13 675.956 501.585Z" fill="#FCFCFC"/>
<path d="M556.586 229.736C569.019 234.16 569.492 277.04 554.865 284.468L554.422 284.242C546.261 280.173 545.492 269.54 545.534 261.375C545.584 251.529 546.442 234.308 556.586 229.736Z" fill="#DEDEDD"/>
<path d="M114.97 325.586C116.706 326.053 120.175 331.616 121.901 333.48C124.002 335.749 125.85 337.603 128.153 339.693C112.487 350.257 109.696 353.096 98.9003 368.403C99.3922 365.798 99.7134 363.54 100.051 360.913C100.114 360.357 100.163 359.8 100.199 359.242C101.496 340.795 91.8707 335.846 75.188 334.94C81.7288 333.554 88.6914 331.12 95.3053 329.659C101.899 328.202 108.383 327.121 114.97 325.586Z" fill="#969695"/>
<path d="M545.579 223.232C547.628 223.136 550.091 222.711 551.626 223.829C551.097 226.155 546.852 230.086 545.281 232.783C542.379 237.764 540.343 246.236 539.757 251.959C538.839 260.918 538.375 276.191 543.629 283.65C546.114 287.18 549.445 288.144 551.079 290.219L549.504 291.397C546.689 291.461 543.513 291.341 540.667 291.296C525.893 281.234 527.742 252.806 532.924 237.838C535.382 230.738 538.874 226.356 545.579 223.232Z" fill="#DEDEDD"/>
<path d="M184.504 323.269C197.892 336.711 211.882 342.781 230.058 347.194C231.129 354.095 231.65 356.732 234.914 363.092L230.978 368.372C230.464 369.252 230.457 369.174 229.537 369.647C216.618 358.495 193.615 343.596 183.302 329.454C182.534 328.401 183.981 324.835 184.504 323.269Z" fill="#DEDEDD"/>
<path d="M669.099 355.732C676.87 360.037 674.883 372.926 686.799 356.451C682.155 369.967 677.748 389.437 673.597 403.962C672.287 408.905 671.007 414.14 669.349 418.96C667.892 400.107 665.362 386.511 662.888 368.126C665.052 364.043 667.124 359.91 669.099 355.732Z" fill="#FCFCFC"/>
<path d="M697.551 310.671C699.782 318.167 691.529 339.03 687.409 345.957C685.3 349.5 680.734 354.196 678.053 357.932C675.931 354.122 674.273 351.885 671.72 348.416C668.721 344.458 665.618 340.584 662.412 336.799C677.071 329.775 687.585 324.117 697.551 310.671Z" fill="#FCFCFC"/>
<path d="M411.279 359.733L411.423 359.802C411.45 361.137 408.307 363.72 407.449 365.54C398.962 383.539 393.842 400.451 392.385 420.252C389.202 420.532 385.469 420.611 382.237 420.764L381.604 419.655C381.815 409.636 385.115 390.663 388.939 381.344C393.654 369.859 400.429 364.362 411.279 359.733Z" fill="#818080"/>
<path d="M492.499 353.363L493.45 354.17C493.479 367.103 468.315 378.368 457.397 378.243C447.061 378.123 440.921 377.691 432.915 370.803C430.452 367.535 429.449 364.059 428.198 360.242C440.426 369.762 454.564 368.972 469.047 365.343C478.216 363.046 484.807 358.517 492.499 353.363Z" fill="#818080"/>
<path d="M72.5637 505.674C74.0534 508.404 75.2219 513.358 77.3381 517.252C81.6432 525.174 86.6102 531.085 92.0581 538.19C90.6648 541.749 88.4674 545.308 86.5517 548.647C72.259 563.68 69.3625 533.321 70.7114 524.887C71.6677 518.91 71.4361 511.951 72.5637 505.674Z" fill="#605F5F"/>
<path d="M446.348 583.966C470.748 582.242 480.581 602.461 480.174 624.069C478.645 619.529 476.345 615.179 473.933 611.059C463.994 595.441 445.624 586.507 428.611 597.025C429.237 596.014 429.873 595.014 430.516 594.021C435.345 586.581 437.861 585.752 446.348 583.966Z" fill="#605F5F"/>
<path d="M639.622 355.138C641.073 356.507 643.59 365.693 644.377 368.232C641.689 377.811 639.324 387.401 637.471 397.181C636.447 402.587 636.118 410.837 634.734 415.779L634.051 414.975C633.795 405.654 628.462 364.088 629.583 359.34C630.815 360.801 630.949 361.18 632.674 361.761C635.88 361.239 637.696 357.804 639.622 355.138Z" fill="#FCFCFC"/>
<path d="M504.037 505.844C506.59 507.575 511.648 539.671 514.552 546.337C510.593 547.605 506.656 549.226 502.782 550.755L504.084 545.972C507.551 532.188 497.65 520.159 486.757 513.2L504.037 505.844Z" fill="#FCFCFC"/>
<path d="M380.566 579.25C389.778 576.203 404.494 610.712 401.311 615.849C399.805 614.332 397.144 607.366 393.912 603.125C387.257 594.917 378.077 590.596 368.381 587.123C365.481 586.081 361.813 584.868 359.304 583.247L359.137 582.321C362.568 580.182 375.682 579.676 380.566 579.25Z" fill="#605F5F"/>
<path d="M285.639 169.226C299.929 178.187 309.366 198.958 307.356 215.649C307.061 218.096 306.619 220.61 306.178 223.038C302.731 214.619 302.872 203.966 296.664 195.421C292.516 189.714 287.401 186.151 283.808 180.416C282.283 177.982 284.688 172.032 285.639 169.226Z" fill="#605F5F"/>
<path d="M272.753 366.307C276.439 367.242 278.942 378.973 279.661 382.328C283.761 400.883 284.101 420.069 280.661 438.758L280.282 437.552C278.1 412.543 277.921 392.616 266.492 369.45L272.753 366.307Z" fill="#7C7C7B"/>
<path d="M656.487 338.989C659.62 340.594 663.972 347.847 666.1 351.012C662.26 358.205 662.205 363.694 653.226 363.382C645.565 363.154 645.345 355.711 643.626 349.342C647.68 343.396 649.1 340.427 656.487 338.989Z" fill="#969695"/>
<path d="M381.076 383.99C381.327 385.257 379.89 389.96 379.519 391.481C377.139 401.229 376.376 411.117 375.344 421.099L362.234 421.787C360.882 411.867 374.573 391.511 381.076 383.99Z" fill="#FCFCFC"/>
<path d="M630.857 320.361C631.912 321.222 633.271 323.515 634.137 324.711C638.775 331.129 639.793 333.134 646.437 337.528C644.206 340.495 639.982 345.068 637.422 347.987C635.691 350.263 633.893 352.959 632.235 355.33C629.175 344.11 628.188 331.743 630.857 320.361Z" fill="#FCFCFC"/>
<path d="M722.493 539.372L724.102 539.336C725.181 540.774 725.175 540.951 725.681 542.724C723.395 544.589 690.743 555.1 686.165 556.392C685.86 556.478 684.873 556.575 684.519 556.624C684.19 556.155 683.806 555.667 683.642 555.106C683.361 554.138 683.386 552.815 683.873 551.919C684.154 551.401 718.177 540.841 722.493 539.372Z" fill="#969695"/>
<path d="M479.527 353.773C479.829 353.726 480.124 353.904 480.417 353.993C470.374 363.083 449.829 364.238 437.648 359.884C435.419 358.691 433.176 357.431 430.957 356.211C451.514 357.158 459.434 357.195 479.527 353.773Z" fill="#818080"/>
<path d="M174.217 224.334C176.585 224.952 180.212 225.023 182.759 225.167C180.284 235.055 179.784 237.543 172.674 244.98L166.941 249.922C167.912 242.187 171.392 231.555 174.217 224.334Z" fill="#605F5F"/>
<path d="M595.722 167.392C597.097 167.734 599.948 168.886 601.397 169.421C601.237 170.876 599.702 172.734 598.772 173.945C593.053 181.389 591.451 190.121 590.7 199.344C590.829 199.84 590.756 200.172 590.735 200.716C583.746 192.702 589.29 174.796 595.722 167.392Z" fill="#605F5F"/>
<path d="M240.869 549.841C245.185 553.955 247.196 555.905 252.717 558.184C243.656 558.409 239.846 559.744 230.378 558.141C226.923 557.782 220.331 556.398 216.687 555.746C227.217 554.942 231.241 553.936 240.869 549.841Z" fill="#969695"/>
<path d="M703.214 500.378C716.313 502.072 731.35 529.391 723.956 532.943C721.993 533.461 721.128 533.663 719.11 533.864C719.068 532.493 719.287 532.73 720.402 531.316C723.243 518.782 712.466 507.063 703.214 500.378Z" fill="#FCFCFC"/>
<path d="M355.129 235.897C355.883 236.738 354.397 242.254 354.072 244.037C351.943 255.746 354.434 266.673 355.207 277.61L354.529 277.587C348.229 265.307 347.425 247.749 355.129 235.897Z" fill="#DEDEDD"/>
<path d="M165.86 294.919C166.791 295.839 169.8 302.605 171.001 304.721C173.621 309.339 176.38 313.536 179.275 317.994C180.027 319.152 179.482 319.744 179.008 321.248L177.208 321.977C172.87 319.141 166.189 300.592 165.86 294.919Z" fill="#605F5F"/>
<path d="M690.651 538.141C693.217 537.837 699.166 539.33 701.885 539.903C699.014 541.2 694.68 542.639 691.627 543.754C688.756 544.564 683.977 546.472 682.045 543.534C683.709 539.714 686.921 539.36 690.651 538.141Z" fill="#969695"/>
<path d="M263.743 560.335L265.486 560.189L266.17 561.005C266.129 563.327 265.887 565.003 265.58 567.27L253.092 564.223C250.666 563.583 247.709 562.998 245.22 562.431C251.485 562.053 257.532 561.17 263.743 560.335Z" fill="#969695"/>
<path d="M513.786 554.211C516.658 553.772 527.425 554.887 529.169 556.971L528.069 558.263C526.492 559.396 525.469 560.615 523.597 560.323C520.445 559.823 515.505 556.764 513.786 554.211Z" fill="#605F5F"/>
<path d="M267.97 549.025L268.687 550.097C269.137 555.387 267.141 555.88 262.4 556.593L261.968 556.252C262.597 554.418 266.428 550.676 267.97 549.025Z" fill="#969695"/>
<path d="M116.674 774.463C130.323 771.587 147.473 760.118 158.463 762.33C169.87 765.158 181.565 769.527 192.704 773.202C201.11 775.968 199.094 793.287 199.115 800.56L199.055 837.66C199.066 854.51 199.444 871.39 198.966 888.25C198.82 893.41 199.867 903.2 195.381 906.2C190.768 906.75 165.367 896.62 156.173 894.73C150.69 894.02 124.657 906.14 116.575 908.02C110.412 906.29 106.11 903.49 100.347 901.09C94.2881 898.56 87.8862 896.19 81.7331 893.85C74.3225 896.21 45.5653 907.1 40.9798 906.39C39.7869 905.64 37.7903 903.84 37.7458 902.3C36.6205 863.5 38.1487 824.5 37.3767 785.615C37.3455 784.049 37.7542 778.223 38.6908 776.949C43.0273 771.044 75.3069 762.922 79.8253 761.953C88.7079 760.996 107.454 770.874 116.674 774.463Z" fill="#353534"/>
<path d="M117.689 783.299C129.348 780.618 142.182 773.141 154.113 769.277C164.287 771.904 181.118 778.052 190.604 782.391C190.474 820.47 191.352 858.95 190.603 897C181.676 893.92 162.334 887.39 153.613 886.38C141.448 890.3 129.834 895.25 117.023 899.28C109.608 896.9 99.838 892.91 92.734 889.56C77.0936 882.19 62.1871 893.07 45.3675 897.33C46.3778 865.83 44.9176 833.55 45.435 801.98C45.5464 795.182 45.3163 788.57 45.6734 781.739C55.4236 777.199 72.4137 772.221 82.9396 769.868C86.4535 769.375 108.162 781.105 117.689 783.299Z" fill="#FCFCFC"/>
<path d="M86.0981 779.137C94.7527 783.037 107.081 786.961 114.983 791.306L115.721 793.372C117.219 797.65 115.58 820.55 116.135 826.75L119.298 828.14L120.609 827.25C121.942 824.21 121.121 797.12 121.39 790.794C130.638 788.046 141.218 782.604 152.147 779.259C151.907 783.263 150.865 795.846 152.528 798.783L153.765 798.887C163.854 780.465 187.001 794.755 177.451 811.06C173.579 817.67 165.548 818.54 159.003 814.93C154.616 822.47 144.589 841.77 135.961 843.99C133.898 844.49 131.717 844.1 129.964 842.9C123.7 838.64 121.638 834.14 112.968 830.29C108.165 832.08 104.239 834.07 99.0986 831.66C89.1774 827 89.1073 810 75.0852 814.05C68.4042 815.98 58.8528 824.82 53.2067 824.96L52.127 824.11L52.2737 822.82C52.6672 811.54 52.5006 799.35 52.4896 788.022C60.0272 784.609 71.5798 781.812 79.8255 779.631C79.8913 786.699 80.2869 801.85 79.5024 808.14C82.0807 808.64 85.4008 809.6 87.7792 808.81L88.3923 808.61C84.0385 804.46 85.9232 785.663 86.0981 779.137Z" fill="#353534"/>
<path d="M121.39 790.794C130.639 788.046 141.218 782.604 152.147 779.259C151.907 783.263 150.866 795.846 152.528 798.783L153.765 798.887C152.478 804.54 152.278 806.77 155.203 812.03C148.336 822.8 144.748 831.33 134.523 840.03C129.221 836.31 123.93 831.2 119.298 828.14L120.609 827.25C121.942 824.21 121.121 797.12 121.39 790.794Z" fill="#DEDEDD"/>
<path d="M52.4898 788.022C60.0275 784.609 71.5801 781.812 79.8257 779.631C79.8916 786.699 80.2872 801.85 79.5027 808.14C70.77 810.29 59.9472 818.09 52.2739 822.82C52.6675 811.54 52.5008 799.35 52.4898 788.022Z" fill="#DEDEDD"/>
<path d="M115.721 793.372C117.219 797.65 115.58 820.55 116.136 826.75C110.785 825.2 107.388 826.71 101.982 828.09C97.8688 824.4 93.2492 816.85 90.0303 812.01C97.6304 807.94 110.769 800.43 115.721 793.372Z" fill="#DEDEDD"/>
<path d="M86.0982 779.137C94.7528 783.037 107.081 786.961 114.984 791.306C109.305 795.365 103.686 799.4 97.8809 803.3C94.8077 805.36 91.0884 806.87 88.3924 808.61C84.0386 804.46 85.9233 785.663 86.0982 779.137Z" fill="#DEDEDD"/>
<path d="M164.657 795.596C169.012 794.804 173.203 797.638 174.09 801.98C174.978 806.31 172.238 810.56 167.921 811.54C165.042 812.2 162.034 811.25 160.058 809.05C158.083 806.86 157.45 803.77 158.405 800.98C159.359 798.18 161.751 796.12 164.657 795.596Z" fill="#DEDEDD"/>
<path d="M85.9039 828.32C89.3989 833.23 98.354 841.7 98.9959 844.7L99.5493 844.5C105.254 842.44 109.247 836.07 115.745 839.87C123.391 844.33 126.568 848.91 134.955 853.72C140.187 848.59 148.184 841.62 155.257 839.61C159.266 838.48 171.555 847.84 175.246 850.35C178.275 852.41 180.357 853.19 183.419 854.79C183.514 856.19 183.584 856.31 183.276 857.73C173.703 858.17 166.967 849.22 157.034 844.36C156.1 844.55 153.983 844.93 153.189 845.21C152.633 856.3 152.334 867.39 152.293 878.5C142.147 882.49 131.889 886.87 121.295 889.39C121.398 876.45 121.333 863.5 121.1 850.56L120.485 850.05C119.533 850.13 117.987 850.04 117.745 850.67C114.92 858.03 116.484 884.25 116.369 891.82C107.035 888 96.2871 884.16 87.3808 879.43C85.6894 878.53 84.8013 876.17 84.0284 874.45C78.6311 878.79 74.8222 880.55 68.2734 882.93L67.6401 881.55C69.2017 878.12 77.9789 876.33 82.0694 868.08C83.7297 865.47 86.1904 858.37 87.3588 855.17C85.0945 850.4 85.938 834.22 85.9039 828.32Z" fill="#DEDEDD"/>
<path d="M153.188 845.21C152.633 856.3 152.334 867.39 152.292 878.5C142.147 882.49 131.889 886.87 121.295 889.39C121.398 876.45 121.333 863.5 121.1 850.56C141.203 865.14 135.926 853.96 153.188 845.21Z" fill="#DEDEDD"/>
<path d="M85.9039 828.32C89.3989 833.23 98.354 841.7 98.9959 844.7L99.5493 844.5C105.254 842.44 109.247 836.07 115.745 839.87C123.391 844.33 126.568 848.91 134.955 853.72C140.187 848.59 148.184 841.62 155.257 839.61C159.266 838.48 171.555 847.84 175.246 850.35C178.275 852.41 180.357 853.19 183.419 854.79C183.514 856.19 183.584 856.31 183.276 857.73C173.703 858.17 166.967 849.22 157.034 844.36C156.1 844.55 153.983 844.93 153.189 845.21C135.926 853.96 141.203 865.14 121.1 850.56L120.485 850.05C117.397 846.7 115.312 844.81 111.391 842.38C105.189 847.54 105.072 847.91 97.0551 849.87C91.1038 856.27 89.1216 866.31 84.0284 874.45C78.6311 878.79 74.8222 880.55 68.2734 882.93L67.6401 881.55C69.2017 878.12 77.9789 876.33 82.0694 868.08C83.7297 865.47 86.1904 858.37 87.3588 855.17C85.0945 850.4 85.938 834.22 85.9039 828.32Z" fill="#353534"/>
<path d="M85.904 828.32C89.399 833.23 98.3541 841.7 98.996 844.7C92.9818 844.21 89.8294 850.49 87.359 855.17C85.0946 850.4 85.9382 834.22 85.904 828.32Z" fill="#DEDEDD"/>
<path d="M52.3594 831.28C61.15 828.01 70.1222 824.4 78.8707 820.97C81.0967 836.41 78.7714 851.2 80.8547 866.48C80.8547 866.48 81.9586 867.93 82.0695 868.08C77.979 876.33 69.2019 878.12 67.6403 881.55L68.2736 882.93C63.6601 883.6 57.0638 886.41 52.5745 888.14L52.3594 831.28Z" fill="#DEDEDD"/>
<path d="M157.034 844.36C166.967 849.22 173.703 858.17 183.276 857.73C183.029 859.01 184.022 883.54 184.021 887.23C174.749 885.06 166.867 881.79 157.872 878.68C157.829 869.29 158.104 853.21 157.034 844.36Z" fill="#DEDEDD"/>
<path d="M501.401 756.499C544.577 751.733 583.425 782.903 588.122 826.07C592.818 869.25 561.579 908.03 518.388 912.66C475.298 917.27 436.609 886.13 431.924 843.05C427.238 799.98 458.326 761.252 501.401 756.499Z" fill="#353534"/>
<path d="M504.159 763.171C543.513 759.978 578.016 789.253 581.265 828.59C584.513 867.94 555.279 902.47 515.934 905.77C476.512 909.08 441.884 879.78 438.629 840.37C435.374 800.95 464.728 766.371 504.159 763.171Z" fill="#DEDEDD"/>
<path d="M505.014 774.652C537.937 771.891 566.919 796.206 569.922 829.1C572.924 861.99 548.823 891.15 515.944 894.39C482.719 897.67 453.181 873.27 450.147 840.03C447.113 806.78 471.744 777.437 505.014 774.652Z" fill="#353534"/>
<path d="M502.44 781.124C532.13 776.919 559.583 797.644 563.658 827.35C567.733 857.05 546.878 884.4 517.151 888.34C487.611 892.26 460.46 871.57 456.41 842.06C452.36 812.54 472.935 785.304 502.44 781.124Z" fill="#FCFCFC"/>
<path d="M538.474 797.168C541.497 796.955 542.43 796.864 544.504 798.923C545.696 803.68 533.115 825.25 530.542 830.56C520.594 851.06 497.891 859.65 479.986 871.75C479.083 872.02 478.603 871.91 477.638 871.9C475.48 870.8 473.034 868.36 474.597 865.76C481.579 854.15 486.967 838.03 494.94 827.33C504.021 815.13 525.074 803.93 538.474 797.168Z" fill="#353534"/>
<path d="M532.874 807.53L533.334 808.17C531.581 814.99 520.698 832.31 516.494 839.32C516.477 835.33 516.581 833.94 515.04 830.31C512.067 826.99 508.942 826.33 504.797 824.92C514.101 818.61 525.037 813.01 532.874 807.53Z" fill="#DEDEDD"/>
<path d="M502.304 827.95C503.314 829.54 504.259 834.61 506.685 838.94C508.698 839.53 512.102 840.1 514.278 840.54C508.551 845.24 500.824 850.35 494.589 854.3C492.06 856.11 488.91 857.98 486.243 859.65C491.545 849.39 496.405 837.85 502.304 827.95Z" fill="#DEDEDD"/>
<path d="M676.7 766.748C693.894 768.217 711.125 769.003 728.338 770.283C734.726 770.758 742.315 770.374 748.386 772.3C755.73 774.64 789.309 849.53 802.962 861.21C804.096 860.99 806.175 859.95 806.839 859.92C813.8 859.67 809.887 871.16 807.778 873.5C801.524 876.17 792.753 858.84 790.083 853.94C789.132 859.99 788.785 865.65 787.2 871.59C775.485 875.69 761.332 877.64 749.184 880.48C744.838 881.5 738.834 882.29 734.818 883.94L734.702 884.93C735.287 886.27 735.616 887.55 736.78 888.32C739.164 885.78 739.218 884.95 742.4 886.56C744.387 892.05 741.906 898.13 735.872 897.78C731.825 895.63 730.685 889.3 728.966 884.55C725.266 885.64 716.843 887.89 713.253 887.42C694.485 884.95 675.95 879.36 657.25 876.24C648.783 874.83 641.621 873.32 633.49 870.64C632.838 865.36 632.064 861.66 630.912 856.47C626.079 861.42 620.648 870.98 615.302 873.43C611.048 873.35 610.121 865.66 610.365 862.31C611.176 860.6 611.218 860.57 612.907 859.62C615.369 860.01 615.394 860.87 617.564 862.89C628.078 852.67 652.422 807.8 661.815 793.244C666.697 785.676 667.807 776.614 676.7 766.748Z" fill="#353534"/>
<path d="M680.85 774.104C701.641 774.829 725.095 777.278 746.612 778.32C753.176 788.04 759.978 802.82 765.818 813.33C772.364 825.12 779.544 836.87 785.889 848.65L773.705 851.26C766.318 852.57 758.247 854.68 750.829 856.24C741.577 858.2 731.611 859.96 722.566 862.51C716.062 850.1 710.601 837.24 704.433 824.78C696.429 808.61 687.232 790.996 680.85 774.104Z" fill="#FCFCFC"/>
<path d="M679.778 786.029C679.345 785.578 716.367 862.39 718.61 867.44C716.611 871.45 715.593 873.89 714.039 878.04C713.637 879.46 713.722 879.4 712.668 880.4C708.047 881.54 700.032 879.33 695.229 878.3C688.268 850.82 673.603 815.82 679.778 786.029Z" fill="#FCFCFC"/>
<path d="M674.335 784.158C674.993 786.742 674.45 792.781 674.164 795.566C671.409 822.1 662.059 844.75 648.905 867.53L637.897 865.54C636.239 860.33 635.477 855.35 634.85 849.95C639.64 840.09 650.539 825.22 656.396 815.05C662.132 805.1 668.337 793.805 674.335 784.158Z" fill="#FCFCFC"/>
<path d="M675.718 817.17C676.315 818.53 678.345 835.86 678.766 838.62C679.668 844.52 689.505 872.93 688.536 875.95C686.123 876.91 675.883 873.65 672.92 872.84C667.209 871.25 661.486 869.7 655.75 868.18C663.095 851.22 670.75 835.14 675.718 817.17Z" fill="#605F5F"/>
<path d="M783.78 854.61L784.317 855.34C783.616 858.82 782.683 862.4 781.836 865.85C773.638 868.42 738.34 877.62 730.398 877.81L729.393 876.76L724.547 866.91C737.737 865.89 769.627 857.87 783.78 854.61Z" fill="#DEDEDD"/>
<path d="M721.804 873.31C722.95 875.1 724.059 876.44 724.309 878.51C723.011 880.31 722.481 879.99 719.994 880.77C719.189 880.91 719.213 880.82 718.366 880.71C718.397 878.75 720.725 875.21 721.804 873.31Z" fill="#DEDEDD"/>
<path d="M305.763 809.56L306.316 808.94C313.145 801.21 319.209 791.623 325.912 783.531C332.108 776.048 341.789 756.797 353.087 769.716C356.011 773.013 358.197 776.529 360.772 780.069L375.918 800.57C383.617 811.15 391.053 821.91 399.601 831.8C400.369 832.69 401.039 834.1 401.059 835.29C398.534 838.86 388.709 838.13 384.753 838.16C371.385 838.24 359.422 837.56 347.434 844.5C343.215 846.95 336.583 850.54 337.176 856.45C340.595 864.51 378.654 875.96 368.407 898.64C366.687 902.45 362.834 908.09 358.14 907.3C357.62 906.59 357.05 906.17 357.258 905.61C360.506 896.78 361.972 896.78 362.485 887.42C356.345 874.76 342.694 870.09 332.162 862.6C331.05 861.8 330.005 858.14 329.557 856.62C331.85 845.53 337.056 843.89 346.23 838.45C331.529 837.5 308.84 843.29 296.631 852.19C295.307 853.15 292.617 857.18 293.188 858.44C297.444 867.83 303.161 871.41 305.729 882.23C301.258 894.62 291.139 899.04 280.035 904.81C277.304 906.23 274.053 907.59 270.98 907.65C264.045 906.28 244.695 906.87 236.46 906.94C235.593 899.51 236.056 887.57 236.125 879.81C236.244 865.85 236.281 851.87 236.237 837.91C236.141 836.23 235.82 835.4 236.914 833.96C247.582 819.95 257.752 805.51 268.529 791.58C270.978 788.418 275.44 785.03 279.453 784.396C283.583 785.176 301.133 805.01 305.763 809.56Z" fill="#353534"/>
<path d="M236.237 837.91L283.869 838.44C291.345 838.5 302.921 838.23 310.045 838.99C304.085 841.68 288.246 849 286.331 854.94C284.139 861.74 295.955 874.66 298.613 882.3C292.31 893.27 282.103 894.88 272.599 901.9C270.215 903.66 269.876 905 270.98 907.65C264.045 906.28 244.695 906.87 236.46 906.94C235.593 899.51 236.056 887.57 236.125 879.81C236.244 865.85 236.281 851.87 236.237 837.91Z" fill="#DEDEDD"/>
<path d="M344.798 772.86C351.876 779.107 358.402 788.284 363.284 796.346C372.63 807.67 381.345 819.97 389.959 831.9C342.572 832.68 295.174 832.66 247.787 831.84C256.893 820.51 268.562 800.92 278.695 791.312C283.587 794.981 289.597 800.75 293.955 805.16C299.281 810.54 309.433 823.75 315.434 827.25C317.232 826.58 317.108 826.97 317.787 825.69C316.396 822.99 311.69 817.31 309.62 814.66C314.79 808.14 319.521 802.61 325.001 796.401C329.397 791.069 340.323 776.249 344.798 772.86Z" fill="#DEDEDD"/>
<path d="M344.798 772.86C351.876 779.107 358.402 788.284 363.284 796.346C359.283 796.699 355.762 795.834 351.812 795.133C349.113 797.022 346.058 800.53 343.727 803.01C341.036 800.13 338.915 797.101 335.874 793.927C332.251 795.615 328.784 798.32 325.001 796.401C329.397 791.069 340.323 776.249 344.798 772.86Z" fill="#FCFCFC"/>
</g>
<defs>
<clipPath id="clip0_6_195">
<rect width="832" height="927" fill="white"/>
</clipPath>
</defs>
</svg>
