<svg width="832" height="1248" viewBox="0 0 832 1248" fill="none" xmlns="http://www.w3.org/2000/svg">
<g clip-path="url(#clip0_6_195)">
<path d="M0 0H832V1248H0V0Z" fill="none"/>
<path d="M137.033 352.561C127.066 317.884 129.9 281.359 145.65 248.63C152.833 233.704 172.097 210.774 187.519 231.018C202.969 251.298 200.813 288.659 198.046 312.886C218.09 307.445 230.551 308.296 250.266 313.06C252.56 306.283 259.794 288.737 263.336 281.825C271.708 266.83 283.794 245.114 300.2 238.471C310.598 234.26 319.712 243.316 321.967 253.167C326.811 274.324 321.772 298.32 313.723 318.159C310.229 326.771 304.743 336.014 300.261 344.191C335.418 383.121 332.587 434.609 325.802 483.091C325.936 486.758 326.306 490.953 326.801 494.555C329.745 515.974 316.313 541.316 293.466 546.095C288.502 552.314 285.467 555.32 279.625 560.572C294.147 575.794 300.634 586.457 307.292 606.768C309.006 611.995 311.124 618.656 311.799 624.085C326.022 624.39 338.841 623.72 353.004 623.275C360.85 594.308 376.839 573.813 401.426 556.74C404.445 554.643 409.556 553.458 413.149 552.583C384.822 540.508 366.281 523.707 358.336 492.947C353.356 489.181 349.068 485.871 346.476 479.774C340.747 466.298 341.49 450.839 346.081 437.146C348.709 429.31 355.445 425.201 358.406 419.509C361.271 414 363.786 406.857 366.685 400.941C377.545 378.789 392.911 363.919 414.901 353.191C440.033 340.928 468.701 339.661 494.814 348.902C522.076 358.55 543.94 379.657 555.306 406.013C557.923 412.082 558.699 415.19 560.645 421.429C561.391 423.819 568.092 430.419 569.199 433.375C574.211 446.747 575.364 464.935 570.29 478.278C566.688 487.748 558.908 495.973 549.961 499.987C542.788 513.286 540.935 516.124 530.947 527.555C540.644 527.749 551.923 529.268 561.37 531.571C568.036 533.196 574.033 535.427 580.951 536.633C593.631 528.91 606.42 526.111 619.557 516.363C618.862 515.976 618.191 515.56 617.533 515.115C599.065 502.558 589.374 478.693 588.677 456.934C588.272 444.275 589.447 430.555 588.495 417.83C587.904 409.925 582.267 402.353 581.111 394.049C579.366 381.519 581.828 373.643 588.874 363.693L588.533 362.837C585.273 354.494 583.202 340.689 594.576 336.634C601.129 334.298 611.804 335.391 618.929 334.084C644.206 329.452 670.202 321.587 694.869 333.698C702.141 337.148 710.071 344.318 712.741 352.268C727.979 358.202 734.866 369.221 737.067 385.179C738.938 398.782 735.208 410.732 731.746 423.631C745.972 444.875 734.452 471.147 709.681 475.575C706.944 483.813 705.189 488.056 700.977 495.617C703.897 497.676 706.975 499.72 709.62 502.118C713.137 505.299 716.41 509.449 720.482 511.882C724.529 514.297 729.338 515.95 733.678 517.817C748.934 524.382 772.285 532.821 782.421 546.519C797.452 566.836 806.839 665.821 802.511 692.896C799.89 709.313 790.418 718.941 777.515 728.228C778.685 737.185 787.858 787.983 781.013 792.888C758.65 808.915 721.073 821.651 693.906 825.606C693.394 838.786 692.797 851.973 692.121 865.148C691.797 873.015 691.877 881.345 690.719 889.096C690.213 892.472 686.574 892.747 683.916 891.991C683.307 891.443 682.246 890.675 682.319 889.718C684.166 865.959 685.062 841.967 685.922 818.129C686.037 814.832 684.751 804.838 685.946 802.986C687.634 801.84 686.757 801.998 688.622 802.315C691.523 804.338 692.468 806.746 693.437 809.957C703.616 809.677 730.856 803.034 736.281 794.363C722.371 781.383 721.433 765.57 704.476 758.977C697.173 761 686.671 765.521 680.43 766.99C671.068 769.19 652.282 765.631 641.292 765.162C631.467 770.536 626.524 775.564 623.446 786.344C618.941 801.816 620.636 818.214 620.331 834.137C619.971 852.491 620.593 870.907 620.325 889.255C620.282 892.235 618.179 893.984 615.26 893.362C612.834 891.132 611.98 887.445 611.962 884.282C611.883 868.512 611.95 852.528 612.023 836.763C607.225 837.592 599.759 838.415 594.931 838.524C594.029 840.115 594.154 842.376 593.702 844.326L591.926 876.275C591.682 880.175 591.857 888.859 589.622 891.503C587.267 892.655 588.302 892.46 585.707 892.265C584.777 891.601 583.335 890.699 583.371 889.395C584.142 861.211 588.123 832.425 584.615 804.284C584.307 801.81 583.637 798.732 584.967 796.453L585.985 796.38C589.773 799.872 591.592 805.813 592.716 810.688C599.033 809.902 606.451 808.787 612.712 808.275C613.894 791.475 614.571 776.85 628.145 765.143C628.529 764.814 628.913 764.491 629.297 764.175C607.614 762.151 585.743 761.871 564.071 759.818C559.122 759.354 545.646 758.629 541.528 757.593C532.862 761.591 529.355 766.679 525.939 775.838C524.288 780.25 523.187 784.851 522.663 789.537C521.864 796.977 522.304 805.795 522.28 813.339C522.218 833.052 523.803 852.796 523.584 872.534C523.531 877.287 525.924 889.133 521.937 892.21C520.119 892.253 519.756 892.235 518.268 890.955C517.103 889.95 515.388 887.146 515.281 885.611C514.636 876.361 514.889 866.927 514.625 857.653C514.326 847.104 514.917 836.434 514.286 825.923C506.995 829.445 492.25 833.911 483.883 836.641C483.643 843.893 484.747 887.5 472.371 880.608C470.674 879.663 471.559 872.016 472.02 870.334C477.394 844.082 480.112 809.335 446.756 801.621C432.724 798.379 421.268 812.669 420.542 825.386C418.706 841.657 419.054 857.622 417.99 873.838C417.805 876.659 415.277 878.085 412.629 878.268C411.634 877.719 410.221 876.976 410.161 875.635C409.529 861.406 411.388 840.444 412.342 826.66C409.459 827.129 406.391 827.708 403.492 827.812C403.553 836.708 402.944 863.491 397.132 871.126C396.661 871.748 394.695 872.899 393.878 873.32C390.664 873.85 384.1 873.259 382.258 870.163C381.686 860.7 385.355 848.323 386.609 838.646C387.579 831.163 387.851 819.396 390.601 812.882C385.266 803.869 374.464 797.294 364.92 793.479C373.458 817.233 371.197 840.371 369.779 865.276C369.477 870.565 369.113 882.607 363.977 885.276C357.577 884.087 360.435 873.082 360.891 868.542C361.876 859.073 362.887 849.554 363.095 840.03C363.603 816.611 364.103 801.426 347.988 783.09C328.42 784.662 308.878 786.563 289.372 788.781C297.287 799.598 301.826 812.602 303.545 825.819C304.218 830.992 304.409 836.19 304.373 841.401C304.337 846.495 302.551 886.598 300.284 889.243C299.42 890.248 298.204 890.9 296.868 890.973C295.192 891.059 294.1 890.163 292.923 889.103C291.37 885.733 294.96 854.819 295.266 848.616C296.279 828.061 294.019 806.362 279.572 790.439C251.692 785.277 224.209 776.411 196.425 770.415C193.693 769.823 181.64 765.338 180.117 765.375C150.228 766.088 123.281 762.273 98.6357 743.943C95.6722 748.361 91.4476 753.894 87.7545 757.642C88.3476 761.134 88.4707 767.502 88.6359 771.383C89.3734 788.732 90.8314 804.442 103.354 817.86C107.474 822.297 112.372 825.935 117.805 828.604C134.734 837.001 182.164 847.062 201.004 847.665C201.153 842.455 202.608 830.432 209.06 829.938L210.178 830.986C210.764 835.155 208.319 841.681 208.379 846.513C208.545 859.926 208.978 872.753 211.201 886.001C212.002 890.778 208.654 894.776 203.593 891.631C200.875 888.164 200.08 862.406 199.785 856.495C174.162 852.473 139.361 848.14 115.924 837.354C87.2449 824.149 79.9551 797.587 79.7813 768.007C74.7125 769.05 69.5011 769.208 64.3799 768.465C17.7034 761.792 26.0068 724.468 28.4981 689.362C29.4747 675.602 22.8547 658.344 36.7287 648.363C37.9334 634.433 40.6755 621.465 42.502 607.506C45.3799 585.514 44.2699 557.826 59.4121 539.737C69.2549 527.98 95.6881 520.792 110.517 520.141C102.357 504.333 97.7982 492.657 97.1424 474.488C95.7106 434.837 110.222 382.305 137.033 352.561Z" fill="#353534"/>
<path d="M390.601 812.882C400.874 831.821 392.726 850.608 391.549 870.218C391.455 871.784 392.696 872.637 393.878 873.32C390.664 873.85 384.1 873.259 382.258 870.163C381.686 860.699 385.355 848.323 386.609 838.646C387.578 831.163 387.851 819.396 390.601 812.882Z" fill="#DEDEDD"/>
<path d="M736.28 794.363C740.608 796.989 744.088 799.061 748.971 800.761C728.369 811.072 715.221 811.602 694.284 816.946L693.437 809.957C703.616 809.677 730.856 803.034 736.28 794.363Z" fill="#DEDEDD"/>
<path d="M593.732 819.372C599.852 817.879 606.02 816.965 612.511 815.325C612.645 822.114 612.23 829.914 612.023 836.763C607.225 837.592 599.759 838.415 594.931 838.524C594.029 840.115 594.154 842.376 593.702 844.326C593.662 836.008 593.672 827.69 593.732 819.372Z" fill="#DEDEDD"/>
<path d="M437.561 549.104C431.053 549.211 424.583 548.083 418.495 545.781C396.254 537.188 378.744 524.319 369.388 501.94C356.395 470.949 356.658 448.314 368.279 417.415C388.017 364.929 442.214 337.567 495.311 358.62C523.95 369.976 539.223 389.46 551.285 417.642L550.065 417.584C543.893 417.312 539.724 417.656 535.025 422.178C520.439 436.214 517.221 477.811 530.939 492.556C534.705 496.149 535.856 497.754 540.833 499.041C528.853 527.369 495.181 546.297 465.57 548.869C458.529 549.48 444.46 550.55 437.561 549.104Z" fill="#FCFCFC"/>
<path d="M530.939 492.556C534.706 496.149 535.856 497.754 540.833 499.041C528.853 527.369 495.182 546.297 465.57 548.869C458.529 549.48 444.461 550.55 437.562 549.104C442.853 549.083 449.517 548.125 454.735 547.092C489.085 540.294 518.347 527.61 530.939 492.556Z" fill="#DEDEDD"/>
<path d="M422.453 412.267C423.349 412.217 424.245 412.182 425.142 412.164C445.446 411.767 481.936 410.04 497.126 424.996C512.108 439.748 513.361 475.088 497.608 490.126C484.396 502.739 468.864 502.746 451.81 502.766C417.76 502.804 365.579 508.643 364.48 460.231C364.196 447.683 367.202 435.063 376.169 425.73C390.107 411.224 404.102 412.582 422.453 412.267Z" fill="#353534"/>
<path d="M462.044 442.989C474.231 441.869 475.869 453.432 474.312 463.056C473.636 467.231 471.774 469.831 468.228 472.161C456.131 473.307 454.008 463.622 455.394 453.428C456.012 448.88 458.23 445.584 462.044 442.989Z" fill="#FCFCFC"/>
<path d="M398.346 442.44C403.027 443.244 406.104 445.149 407.549 449.849C410.182 458.416 409.375 469.136 399.917 472.402C388.725 470.5 387.61 457.085 391.249 448.268C392.801 444.506 394.751 443.746 398.346 442.44Z" fill="#FCFCFC"/>
<path d="M419.701 512.384C441.652 524.238 439.63 511.587 450.008 514.263C452.04 516.902 450.4 519.363 448.379 521.418C439.665 525.806 428.036 526.508 419.492 521.445C415.546 519.108 417.35 515.035 419.701 512.384Z" fill="#353534"/>
<path d="M168.98 232.848C197.549 229.157 191.146 300.975 189.956 317.557C189.532 323.478 183.304 335.909 187.203 340.27L188.476 340.009C192.359 336.724 195.695 328.029 197.234 323.177C207.207 318.771 218.113 316.885 228.987 317.687C254.283 319.713 282.258 335.059 298.365 354.566C324.739 386.511 323.4 430.35 320.304 468.999C318.29 460.701 311.432 443.702 307.942 435.37C311.805 426.673 315.43 417.052 314.254 407.484C312.438 391.117 303.428 375.083 290.808 365.009C252.191 334.183 201.994 362.832 179.342 399.231C164.205 423.552 152.142 456.797 156.458 486.938C161.742 523.836 179.602 541.131 208.332 562.962C227.07 577.762 227.722 577.487 231.507 601.484C236.899 635.676 235.158 668.564 230.731 702.701C230.74 702.853 230.749 703.005 230.759 703.164C225.695 704.858 221.202 706.613 216.239 708.587C207.943 698.502 205.099 701.5 193.261 697.948C190.595 697.143 185.657 693.158 182.603 691.89C174.337 688.46 165.94 685.413 157.577 682.232C161.575 677.235 168.089 666.187 170.756 660.282C180.363 639.015 181.593 611.355 176.526 588.743C174.924 581.594 170.971 571.09 168.328 564.184C171.49 565.91 201.206 579.999 202.472 579.991L202.797 579.194C200.51 573.293 167.741 558.133 160.323 553.521C129.605 534.424 108.494 517.105 106.084 478.681C104.153 447.906 109.936 418.443 123.257 390.414C128.374 379.648 133.226 370.094 141.252 360.999C142.108 362.068 143.002 363.04 143.916 364.056C145.751 364.782 145.878 364.93 147.69 364.452C148.322 363.467 148.845 362.555 148.435 361.362C139.233 334.817 136.373 303.475 144.528 276.325C148.561 262.897 156.243 239.862 168.98 232.848Z" fill="#FCFCFC"/>
<path d="M166.556 350.897C165.893 351.979 162.993 351.851 161.905 351.702C160.872 350.533 160.183 348.041 159.754 346.36C153.367 321.345 153.661 291.414 164.851 267.745C165.65 266.078 168.786 262.101 170.641 261.959C175.954 261.551 178.043 274.516 178.514 277.784C182.338 293.573 179.56 339.109 166.556 350.897Z" fill="#DEDEDD"/>
<path d="M178.514 277.784C182.339 293.572 179.56 339.109 166.556 350.897C165.332 347.841 170.129 335.494 171.02 331.495C173.855 318.768 174.925 306.027 176.42 293.115C176.964 288.411 177.227 282.098 178.514 277.784Z" fill="#303031"/>
<path d="M460.036 626.712C469.497 626.236 479.475 624.256 475.582 637.863C465.208 674.133 456.483 710.787 447.422 747.392C445.488 755.204 443.908 757.484 435.49 758.197C422.521 759.293 409.543 760.335 396.578 761.487L289.734 769.897C285.126 770.213 276.481 771.907 272.927 769.799C272.805 769.391 272.7 769.117 272.65 768.708C272.11 764.309 299.653 655.182 303.425 642.446C304.038 640.368 304.938 636.718 306.478 635.145C308.38 633.208 313.049 632.592 315.658 632.294C329.808 630.667 344.6 630.941 358.86 630.35L460.036 626.712Z" fill="#DEDEDD"/>
<path d="M394.659 669.52C396.949 670.099 397.586 670.3 397.898 672.695C396.053 677.844 388.799 681.287 384.125 683.676C386.548 683.323 390.521 682.604 392.513 683.786C409.033 693.597 397.597 722.42 379.58 722.518C374.246 722.548 373.034 721.981 368.604 719.623C350.369 705.065 363.677 677.997 384.048 684.023C381.285 681.379 375.925 677.077 376.869 672.915L378.061 672.585C382.076 673.822 383.109 675.218 385.311 678.509C388.336 674.523 390.446 672.189 394.659 669.52Z" fill="#353534"/>
<path d="M499.09 633.128C499.485 633.098 499.88 633.08 500.275 633.067C504.745 632.903 514.774 633.823 519.788 634.091L556.842 635.816C587.583 637.181 618.307 638.29 649.009 640.465C655.543 640.928 657.499 644.402 658.889 650.422C660.748 658.46 661.912 666.754 663.522 674.858L674.737 733.34C676.023 740.391 678.193 748.733 678.4 755.875C678.467 758.282 677.083 759.123 675.541 760.512C670.988 760.457 658.676 758.903 653.257 758.489L593.571 753.864C575.684 752.499 557.76 751.585 539.863 750.342C534.068 749.946 528.268 749.671 522.525 748.757C518.866 740.47 515.039 721.445 512.951 712.055L503.292 669.74C501.063 659.917 498.187 649.709 496.391 639.819C495.857 636.876 497.329 635.249 499.09 633.128Z" fill="#DEDEDD"/>
<path d="M561.933 672.884C575.655 674.261 592.663 674.779 606.473 675.358C606.668 679.605 607.636 685.87 608.201 690.251L614.68 690.714C615.284 695.766 617.85 702.664 616.539 706.016C614.363 707.387 613.918 706.918 611.011 706.96C611.846 711.019 613.199 718.38 612.864 722.256L612.096 722.853C606.793 723.359 605.813 717.521 604.058 713.231L602.928 713.645C602.57 716.229 602.798 719.587 602.889 722.25C594.939 721.738 596.096 719.958 595.415 712.518C591.664 711.969 588.205 711.86 584.436 711.689C584.894 714.523 586.3 718.977 583.947 720.683C581.919 720.945 581.681 720.927 579.838 720.044C578.286 718.112 578.542 715.741 578.058 712.883C576.685 711.232 577.431 711.689 575.365 711.11C573.472 712.792 576.24 715.723 574.547 719.227C572.386 719.91 573.312 719.849 571.001 719.337C567.704 716.759 567.413 709.44 566.602 704.797L559.974 704.334C559.363 700.409 556.37 689.697 558.831 686.814C560.22 687.21 560.972 687.594 562.336 687.156C564.615 683.895 562.558 677.692 561.933 672.884Z" fill="#353534"/>
<path d="M567.253 689.544L577 690.538L578.368 697.728C574.831 697.655 571.059 698.149 568.493 695.973C567.205 693.975 567.383 691.994 567.253 689.544Z" fill="#FCFCFC"/>
<path d="M594.671 691.58C602.809 691.756 603.792 691.403 604.93 699.782C601.901 699.575 598.14 699.8 595.908 698.106C594.506 696.138 594.758 694.096 594.671 691.58Z" fill="#FCFCFC"/>
<path d="M723.413 522.571C729.576 525.044 735.701 528.597 741.705 531.494C757.565 539.15 774.875 541.937 780.386 561.074C791.765 600.584 795.654 643.738 795.758 684.755C795.831 716.32 756.175 732.676 731.221 740.902C733.989 721.817 725.272 705.553 708.248 696.735C717.068 691.915 744.137 677.296 752.299 675.596C757.705 674.468 768.122 677.284 771.547 675.797C772.279 675.48 772.279 674.67 772.511 673.975C771.224 669.6 760.003 667.851 756.09 667.589C752.695 667.753 749.519 668.765 746.24 669.66C744.284 651.83 742.997 633.939 742.4 616.011C742.29 611.532 743.997 592.588 741.279 590.356C732.788 597.629 737.591 659.929 738.316 672.988C725.65 678.899 708.218 690.075 695.205 694.56C692.901 695.352 681.759 694.096 674.786 695.486C673.432 689.544 672.232 683.573 671.177 677.576C683.612 654.859 697.448 633.128 708.712 609.674C714.204 598.24 720.372 587.266 724.846 575.291C722.383 571.132 717.196 566.646 713.563 563.333C719.549 560.41 722.92 558.332 727.918 553.956C727.479 545.926 724.163 533.215 723.413 522.571Z" fill="#FCFCFC"/>
<path d="M607.284 369.8C626.804 381.317 640.549 381.305 662.626 376.884C668.764 375.66 675.596 372.811 681.795 372.398C694.674 371.54 687.567 387.394 687.964 394.392C688.585 405.495 695.54 414.32 698.838 424.535C700.3 429.06 697.917 436.468 701.916 440.25C708.858 442.454 711.107 426.169 718.318 426.029C733.763 425.731 731.453 449.078 724.626 456.974C718.001 464.63 712.716 466.299 703.878 467.589C699.807 479.501 700.41 482.286 693.084 493.986C693.193 497.259 693.608 501.226 693.864 504.545C690.505 511.185 687.171 514.147 681.771 518.946C674.188 524.327 661.705 532.323 652.94 534.305L652.544 534.167C645.169 531.53 643.066 529.176 639.72 522.22C650.118 522.516 672.982 521.888 675.962 509.434C675.225 507.364 675.73 508.093 673.658 506.786C667.478 507.726 661.644 512.528 655.391 514.042C644.383 516.706 632.893 515.337 623.159 509.434C609.871 501.374 602.144 486.806 598.544 472.08C595.168 458.268 595.301 403.372 598.587 389.101C600.257 381.845 603.464 376.078 607.284 369.8Z" fill="#FCFCFC"/>
<path d="M629.809 432.191C642.725 435.775 625.128 454.201 628.206 460.725C631.82 463.141 635.904 460.909 638.354 464.497C638.446 466.787 637.757 467.43 636.501 469.381C631.893 470.668 623.616 466.598 621.745 462.179C619.075 455.873 624.933 449.05 626.658 443.207C627.797 439.365 628.267 435.896 629.809 432.191Z" fill="#353534"/>
<path d="M659.352 475.153C661.705 476.708 661.809 477.196 661.711 479.852C655.988 490.079 634.045 489.749 624.567 485.013C622.988 482.924 621.288 480.047 623.732 478.137C626.737 477.899 630.156 480.194 633.496 481.022C643.328 483.456 651.209 479.73 659.352 475.153Z" fill="#353534"/>
<path d="M660.669 424.1C672.232 424.541 671.275 440.308 663.375 444.409C651.605 444.208 652.258 429.286 660.669 424.1Z" fill="#353534"/>
<path d="M611.98 423.996C622.543 424.624 622.543 439.708 614.693 444.054L613.961 444.005C602.127 443.151 603.765 429.795 611.98 423.996Z" fill="#353534"/>
<path d="M660.114 404.74C666.648 404.556 678.717 407.593 677.772 416.01L676.614 416.831C674.353 416.636 673.042 415.214 671.183 413.747C668.477 412.112 666.478 411.477 663.497 410.391C660.255 411.345 652.306 414.446 650.484 410.308C651.41 406.616 656.927 405.406 660.114 404.74Z" fill="#353534"/>
<path d="M607.574 404.123C612.852 403.439 621.038 404.418 621.977 410.902L620.989 411.884C618.326 412.15 615.558 410.212 612.316 409.001C607.443 409.869 603.489 414.844 599.827 413.343C598.572 409.112 604.583 405.556 607.574 404.123Z" fill="#353534"/>
<path d="M279.383 387.212C282.306 389.113 288.457 397.182 290.243 400.177C304.12 423.445 296.607 453.621 293.781 478.85C293.198 484.769 293.134 491.148 291.377 496.882C282.895 524.565 256.145 546.914 226.467 539.038C204.951 533.242 186.602 519.174 175.421 499.904C173.23 495.948 170.513 486.242 167.599 484.318L164.611 484.931L163.868 484.172C162.55 478.953 164.251 465.05 164.784 459.044C179.124 456.782 185.702 438.278 189.349 426.528C198.692 425.692 202.004 424.679 210.881 421.658C207.677 423.692 204.741 425.165 203.304 428.754C203.429 430.769 203.061 429.951 204.222 431.378C207.394 430.889 212.599 426.818 215.666 425.892C220.473 424.439 226.36 426.951 230.459 429.165L231.208 428.69C234.001 421.268 222.614 419.924 217.76 419.698C229.964 413.677 232.198 412.293 243.135 403.93C240.635 407.623 236.165 411.919 238.966 416.423C241.437 417.636 244.401 417.025 246.905 416.068C262.634 410.057 271.897 401.667 279.383 387.212Z" fill="#FCFCFC"/>
<path d="M218.165 443.477C231.441 443.507 230.905 461.809 221.214 468.876L218.523 469.171C208.866 465.539 210.35 449.614 218.165 443.477Z" fill="#353534"/>
<path d="M276.282 443.489C287.465 445.156 287.543 462.932 277.147 468.473C267.96 468.584 265.71 449.899 276.282 443.489Z" fill="#353534"/>
<path d="M224.436 494.341C227.682 494.967 233.928 501.71 241.213 503.554C249.78 505.721 260.345 501.841 263.332 502.834L263.791 503.954C263.212 505.721 262.216 506.391 260.85 507.67C249.892 513.326 237.982 510.625 227.645 504.862C222.867 502.199 221.445 498.754 224.436 494.341Z" fill="#353534"/>
<path d="M258.603 465.147C265.952 466.503 270.924 479.101 266.313 485.217C262.896 489.75 261.431 489.824 256.36 490.97C254.522 490.577 252.676 489.406 251.983 487.653C254.59 482.662 266.374 485.805 261.504 476.321C259.583 472.579 258.169 469.437 258.603 465.147Z" fill="#353534"/>
<path d="M278.905 421.19C285.16 420.834 289.875 421.631 293.064 427.659C293.127 429.753 293.416 429.037 292.164 430.388C290.029 430.395 289.37 429.441 287.286 428.092C278.813 425.539 279.927 428.616 272.312 429.242C271.675 429.294 271.651 428.939 270.98 428.218C270.534 425.82 270.42 426.722 271.152 424.62C273.651 422.728 275.935 422.173 278.905 421.19Z" fill="#353534"/>
<path d="M117.673 565.566C130.536 564.168 137.165 572.783 142.164 583.338C152.363 604.869 151.566 627.681 148.948 650.782C147.886 660.16 147.354 670.483 144.079 679.496C137.858 678.027 122.252 674.743 117.697 683.183C117.132 684.231 117.765 684.883 118.284 685.852C120.506 686.437 130.877 682.11 138.167 684.736C153.404 690.215 175.05 696.065 188.559 704.59C176.001 715.875 171.272 724.449 169.998 741.561C169.862 748.16 170.478 750.068 172.515 756.271C140.318 756.472 100.225 746.515 84.5159 715.973C81.7627 710.623 78.5078 697.04 78.9046 690.8C80.9191 659.137 86.264 626.322 94.8266 595.763C98.1125 584.414 107.201 570.465 117.673 565.566Z" fill="#FCFCFC"/>
<path d="M501.363 553.746C505.825 555.405 513.233 557.078 518.219 558.583C511.558 562.886 507.956 567.54 503.996 574.217C494.402 590.391 492.741 607.758 491.696 626.072C491.53 628.973 489.491 636.023 489.728 638.107C491.022 649.496 494.583 661.982 497.297 673.128C499.324 681.452 500.957 689.733 503.086 697.856C494.253 702.061 487.191 707.113 478.607 711.22C472.264 710.361 469.347 710.16 463.089 711.372C467.608 693.731 473.074 676.394 477.014 658.6C478.004 654.121 479.704 649.253 481.126 644.865C491.308 612.922 466.536 619.29 444.949 620.076C429.713 620.575 414.474 620.99 399.234 621.331C402.436 598.557 405.1 575.9 422.296 558.877C422.319 563.238 423.217 567.55 424.937 571.558C433.226 590.563 461.78 588.252 477.929 581.688C490.314 576.654 496.886 565.929 501.363 553.746Z" fill="#FCFCFC"/>
<path d="M654.641 334.786C664.74 333.348 679.18 334.998 688.317 338.832C700.068 343.762 704.14 349.455 708.882 360.352C735.488 365.418 731.855 399.835 724.766 419.254C714.74 419.19 712.186 419.533 705.707 427.377C701.038 409.381 691.596 407.166 694.107 387.098C694.68 380.761 695.034 378.753 694.759 372.457C688.774 362.49 679.265 365.551 669.739 368.178C649.691 373.705 621.988 377.335 605.906 361.201C604.477 359.767 604.254 357.99 602.271 356.821C600.548 358.71 601.795 362.734 599.977 364.954L599.18 364.497L600.493 364.323L598.689 363.823C596.307 359.306 591.101 351.284 594.423 346.135C595.245 344.859 596.157 344.038 597.719 343.851C603.549 343.156 609.428 343.427 615.223 342.193C628.864 339.628 640.731 336.585 654.641 334.786Z" fill="#605F5F"/>
<path d="M262.326 544.509C271.062 548.243 273.97 548.051 283.367 547.658C273.237 561.181 253.766 568.717 244.865 580.817C250.023 579.113 255.847 575.881 260.637 573.276C266.034 582.419 266.994 590.589 269.127 600.771C275.867 632.946 274.815 660.697 269.755 692.896L266.999 704.974C254.123 700.221 248.972 699.946 235.645 701.97C241.531 658.21 241.854 623.232 232.276 579.477C240.039 566.167 254.523 555.966 262.326 544.509Z" fill="#FCFCFC"/>
<path d="M470.69 762.791C483.413 764.053 484.93 761.353 497.067 759.537C498.097 759.385 503.268 760.329 504.631 760.579C511.199 762.889 515.359 764.814 519.983 770.22C515.479 781.505 515.435 785.472 514.404 797.483C514.14 803.857 513.856 810.518 513.825 816.885C503.044 822.242 498.626 823.156 486.996 826.172C487.109 820.268 487.176 816.727 485.597 810.865C475.588 767.66 425.949 766.856 416.389 809.768C415.7 812.864 415.068 816.337 412.614 818.476C407.596 820.584 407.368 818.19 407.065 814.082C405.984 799.445 400.78 790.615 392.185 779.031C406.155 778.087 420.34 777.307 434.233 775.454C440.956 774.564 440.79 770.39 444.719 770.317C446.59 771.725 447.665 772.151 449.743 773.108C460.531 770.299 461.147 771.158 470.69 762.791Z" fill="#FCFCFC"/>
<path d="M514.405 797.483C514.14 803.857 513.856 810.517 513.826 816.885C503.044 822.242 498.626 823.156 486.996 826.172C487.11 820.267 487.177 816.727 485.597 810.865C497.569 807.178 505.39 800.426 514.405 797.483Z" fill="#DEDEDD"/>
<path d="M470.69 762.791C483.413 764.053 484.93 761.353 497.067 759.537C498.097 759.385 503.268 760.329 504.631 760.579C501.235 765.808 474.873 770.89 467.949 773.187C464.002 774.491 453.879 774.552 449.743 773.108C460.531 770.299 461.147 771.158 470.69 762.791Z" fill="#DEDEDD"/>
<path d="M244.828 359.701C254.268 359.274 273.773 359.072 279.999 366.817C280.151 369.505 278.351 375.485 277.299 378.105C270.58 394.84 261.123 401.734 245.859 408.89C249.797 399.228 250.192 396.17 249.763 385.862C241.241 398.3 240.465 399.048 227.726 407.901C213.923 416.474 193.637 421.249 177.421 419.792C186.044 391.364 215.592 365.031 244.828 359.701Z" fill="#605F5F"/>
<path d="M608.769 532.073C608.77 531.949 599.653 549.862 598.562 553.275C600.388 556.534 603.838 560.352 606.307 563.297C603.033 565.676 598.471 567.713 596.472 571.372C593.382 577.03 608.394 622.208 611.078 631.41C602.471 631.203 592.644 630.465 583.938 630.027C584.044 616.243 583.634 602.109 582.791 588.334C582.637 585.807 582.41 584.403 580.655 582.486L579.129 583.901C577.317 588.286 577.439 622.525 577.356 629.509C570.461 629.436 562.73 628.924 555.704 628.717C560.841 606.345 562.857 582.915 570.639 560.515C577.012 542.172 591.863 539.982 608.769 532.073Z" fill="#FCFCFC"/>
<path d="M704.646 507.796C716.129 512.951 719.104 540.031 721.048 551.577C716.19 554.273 705.475 558.375 703.945 562.456C704.725 566.335 713.185 573.167 716.69 576.499C711.259 591.446 704.152 604.378 696.868 618.363C691.078 629.759 685.123 641.069 679.016 652.299C675.724 658.673 672.841 664.237 669.062 670.373C668.306 667.046 666.258 659.088 666.593 656.059C667.648 646.705 671.244 636.285 673.798 627.126L694.735 552.767C697.673 542.291 706.292 517.376 704.646 507.796Z" fill="#FCFCFC"/>
<path d="M258.517 315.888C265.085 295.438 273.974 276.656 287.637 259.961C292.293 254.545 298.912 245.561 307.116 247.668C309.3 248.229 312.199 251.26 312.878 253.394C321.138 279.364 308.381 316.152 293.852 337.753L293.016 338.012C292.061 337.124 291.08 336.246 290.188 335.297C286.642 332.3 283.068 329.337 279.467 326.407C282.205 312.965 287.695 299.352 292.904 286.694C294.218 283.498 299.025 274.667 299.237 271.912C289.961 278.689 278.141 312.218 274.27 323.687C269.411 321.311 263.17 318.45 258.517 315.888Z" fill="#FCFCFC"/>
<path d="M299.237 271.912C322.284 271.713 290.954 324.414 290.188 335.297C286.643 332.3 283.068 329.337 279.467 326.407C282.205 312.965 287.695 299.352 292.904 286.694C294.218 283.498 299.025 274.667 299.237 271.912Z" fill="#DEDEDD"/>
<path d="M768.975 733.011C769.835 732.999 769.408 732.956 770.316 733.651C773.468 749.818 775.132 768.69 775.339 785.088C775.467 795.277 759.954 794.936 753.305 793.833C744.473 792.37 739.755 789.007 734.482 781.968C727.369 770.756 726.022 764.333 714.228 755.698C724.316 750.738 737.878 747.228 748.508 743.243C756.34 740.305 761.807 737.258 768.975 733.011Z" fill="#FCFCFC"/>
<path d="M247.121 707.655C259.326 707.582 268.37 713.743 276.767 721.646L274.465 730.007C269.163 724.169 260.036 714.187 251.04 716.631C251.19 719.264 259.612 723.846 262.509 726.192C264.589 727.904 266.508 729.806 268.24 731.865C270.875 735.028 274.723 740.287 270.001 743.34C261.391 744.644 251.764 722.298 241.81 726.058L241.426 727.362C242.403 729.568 244.325 730.226 246.554 731.457C249.946 733.694 252.965 736.454 255.499 739.629C258.303 743.151 260.036 745.436 259.574 749.848C254.565 757.953 239.217 740.104 234.281 741.177C227.541 743.249 222.885 748.672 215.728 750.592C203.128 753.967 198.384 750.744 200.811 737.722C203.933 720.97 211.76 717.771 226.774 712.896C233.755 710.629 239.812 709.032 247.121 707.655Z" fill="#FCFCFC"/>
<path d="M36.7815 687.131C45.3403 690.355 58.5529 691.756 67.7512 692.847C67.8171 700.732 66.7912 708.453 66.6035 716.272C66.2232 732.176 61.5749 750.183 77.0599 760.342C64.4385 760.774 49.1622 760.244 41.082 748.812C32.6133 736.826 34.4619 720.403 35.1727 706.552C35.4973 700.227 35.8203 693.377 36.7815 687.131Z" fill="#969695"/>
<path d="M134.003 546.562C136.642 546.18 140.059 549.621 142.343 550.765C157.791 558.5 161.501 564.611 166.889 580.397C174.4 602.403 174.769 623.123 168.756 645.566C166.828 652.763 160.085 669.246 154.373 673.231L153.689 672.604L153.859 669.508C156.663 640.045 162.331 614.53 150.374 586.005C143.89 570.535 132.386 552.489 112.891 560.634C121.662 552.956 123.726 551.367 134.003 546.562Z" fill="#818080"/>
<path d="M70.6912 541.794C87.4702 540.379 97.2354 546.496 93.0912 564.349C90.797 574.233 88.8709 585.102 87.0106 595.125L75.4669 594.689C67.0737 593.204 60.116 591.934 51.7876 589.959C52.2933 581.112 53.7744 570.092 56.2485 561.593C59.1806 551.52 61.7471 546.765 70.6912 541.794Z" fill="#969695"/>
<path d="M51.6493 597.459C62.8674 600.455 73.6602 601.377 85.1899 602.088C82.1966 619.57 77.9659 638.978 74.7214 656.858C74.6232 657.973 74.541 657.887 74.1222 658.966C73.4158 657.881 72.0395 655.773 70.957 655.249C63.8804 651.842 52.043 649.685 44.2061 647.833C46.4579 631.008 48.9391 614.213 51.6493 597.459Z" fill="#969695"/>
<path d="M625.146 520.261C625.646 522.275 623.061 535.282 623.025 538.694C622.708 568.927 625.871 602.613 631.662 632.227L616.942 631.654C615.516 627.815 614.126 622.69 612.913 618.674C608.792 605.382 604.796 588.619 600.972 574.837C605.96 570.351 612.224 567.925 617.052 563.008C614.76 560.314 608.652 555.672 605.496 552.695C609.411 541.522 616.948 528.782 625.146 520.261Z" fill="#FCFCFC"/>
<path d="M304.976 447.169C305.333 447.553 305.462 447.742 305.7 448.211C313.413 463.414 319.065 481.15 319.512 498.245C319.91 513.433 312.652 530.153 298.679 537.118C300.922 533.098 304.925 524.574 301.273 520.259L300.347 520.486C298.417 522.722 296.65 528.139 294.752 531.625C288.792 540.897 277.998 544.428 267.881 539.595C282.37 530.387 296.485 510.419 298.737 493.411C300.569 479.573 304.224 460.926 304.976 447.169Z" fill="#605F5F"/>
<path d="M464.838 718.557C467.938 718.301 470.765 718.252 473.886 718.276C485.807 718.051 498.712 730.567 497.337 742.645C495.863 755.588 478.827 754.144 469.812 755.631C467.33 756.039 462.018 760.524 459.892 762.2C456.744 764.406 449.71 766.551 447.863 761.975C448.848 753.632 466.837 742.938 466.706 736.698C465.512 735.485 466.219 735.82 464.503 735.692C461.611 736.856 458.13 740.293 455.676 742.45C457.364 735.65 457.902 727.606 460.384 721.098C461.01 719.459 463.126 719.123 464.838 718.557Z" fill="#DEDEDD"/>
<path d="M543.086 577.062C548.838 577.278 553.64 586.406 555.508 591.104C553.14 603.452 550.508 615.828 548.936 628.29C543.657 627.863 538.472 627.742 533.181 627.583C529.321 627.577 524.343 627.132 520.41 626.888C521.212 612.812 524.281 597.244 531.906 585.051C534.909 580.248 537.843 578.754 543.086 577.062Z" fill="#FCFCFC"/>
<path d="M649.466 569.793L658.054 569.897C658.535 576.4 660.029 584.43 660.937 591.102C663.235 607.98 665.368 625.005 664.204 642.062C661.991 639.253 661.321 638.308 658.493 636.194C651.91 633.963 645.486 633.482 638.616 632.83C638.945 614.811 644.76 586.914 649.466 569.793Z" fill="#969695"/>
<path d="M522.469 534.512C532.318 534.277 563.352 539.692 572.432 543.106C565.288 551.231 559.442 574.337 558.346 575.276L557.06 573.66C543.67 555.855 524.764 553.361 503.811 546.35C510.087 543.074 516.59 538.528 522.469 534.512Z" fill="#818080"/>
<path d="M525.485 561.244C531.143 561.144 542.539 564.937 543.814 570.767C543.491 570.709 542.658 570.561 542.388 570.579C521.999 571.939 515.164 608.507 514.21 623.409C514.134 624.597 514.074 624.366 513.564 625.53C510.579 626.687 502.103 626.511 498.407 626.565C498.452 605.619 503.661 570.359 525.485 561.244Z" fill="#818080"/>
<path d="M204.947 759.726C208.087 760.08 221.365 763.718 225.648 764.717C235.366 768.008 251.877 769.708 260.842 773.078C276.259 778.867 274.888 777.965 290.856 776.441C310.54 774.558 333.943 773.285 353.257 771.706C364.863 770.756 434.396 763.608 437.642 765.277C437.25 767.386 437.236 766.831 435.462 768.678C428.101 769.872 415.359 770.549 407.763 771.146L365.69 774.692C338.025 776.892 310.236 779.72 282.527 781.603C278.89 781.852 274.395 781.645 271.069 781.207C262.955 780.122 205.199 765.619 202.141 762.877C202.731 761.134 203.368 761.042 204.947 759.726Z" fill="#969695"/>
<path d="M284.916 579.851C293.295 584.962 302.159 616.84 304.636 627.169C297.221 634.286 293.709 653.238 291.117 663.353L280.711 704.121L278.218 712.768C276.826 711.872 275.307 710.568 273.999 709.507C276.029 700.001 277.58 690.806 278.364 681.129C278.486 679.624 278.79 676.217 279.177 674.828C288.249 642.19 295.897 613.141 284.916 579.851Z" fill="#FCFCFC"/>
<path d="M195.922 706.327C201.514 706.448 203.93 708.612 208.6 711.604C198.698 718.069 193.496 732.956 192.747 744.297C192.423 749.208 195.067 752.487 197.534 756.478C196.508 757.928 195.457 758.075 193.674 758.922C190.565 758.922 186.964 758.977 184.023 757.88C180.838 756.728 178.233 754.37 176.77 751.317C170.355 737.703 182.076 712.963 195.922 706.327Z" fill="#FCFCFC"/>
<path d="M40.4895 654.475C45.7132 654.268 62.772 657.613 67.0514 660.179C71.1371 662.622 69.2853 680.867 67.6664 685.193C67.3988 685.906 66.3462 685.803 65.6343 685.9C55.8192 685.644 45.1465 683.633 36.0788 679.861C34.8461 672.122 34.6443 660.276 40.4895 654.475Z" fill="#969695"/>
<path d="M675.956 702.585C677.839 702.445 679.729 702.414 681.612 702.488C712.442 703.664 725.212 737.131 705.292 735.369C693.315 733.413 694.748 730.043 681.289 734.571C681.015 732.176 680.875 729.452 680.686 727.021C682.697 724.596 685.373 721.994 685.983 719.05L685.227 718.118C682.838 717.71 680.893 718.8 678.662 719.739C677.541 714.261 676.742 708.13 675.956 702.585Z" fill="#FCFCFC"/>
<path d="M556.586 430.736C569.019 435.16 569.492 478.04 554.865 485.468L554.422 485.242C546.261 481.173 545.492 470.54 545.534 462.375C545.584 452.529 546.442 435.308 556.586 430.736Z" fill="#DEDEDD"/>
<path d="M114.97 526.586C116.706 527.053 120.175 532.616 121.901 534.48C124.002 536.749 125.85 538.603 128.153 540.693C112.487 551.257 109.696 554.096 98.9003 569.403C99.3922 566.798 99.7134 564.54 100.051 561.913C100.114 561.357 100.163 560.8 100.199 560.242C101.496 541.795 91.8707 536.846 75.188 535.94C81.7288 534.554 88.6914 532.12 95.3053 530.659C101.899 529.202 108.383 528.121 114.97 526.586Z" fill="#969695"/>
<path d="M545.579 424.232C547.628 424.136 550.091 423.711 551.626 424.829C551.097 427.155 546.852 431.086 545.281 433.783C542.379 438.764 540.343 447.236 539.757 452.959C538.839 461.918 538.375 477.191 543.629 484.65C546.114 488.18 549.445 489.144 551.079 491.219L549.504 492.397C546.689 492.461 543.513 492.341 540.667 492.296C525.893 482.234 527.742 453.806 532.924 438.838C535.382 431.738 538.874 427.356 545.579 424.232Z" fill="#DEDEDD"/>
<path d="M184.504 524.269C197.892 537.711 211.882 543.781 230.058 548.194C231.129 555.095 231.65 557.732 234.914 564.092L230.978 569.372C230.464 570.252 230.457 570.174 229.537 570.647C216.618 559.495 193.615 544.596 183.302 530.454C182.534 529.401 183.981 525.835 184.504 524.269Z" fill="#DEDEDD"/>
<path d="M669.099 556.732C676.87 561.037 674.883 573.926 686.799 557.451C682.155 570.967 677.748 590.437 673.597 604.962C672.287 609.905 671.007 615.14 669.349 619.96C667.892 601.107 665.362 587.511 662.888 569.126C665.052 565.043 667.124 560.91 669.099 556.732Z" fill="#FCFCFC"/>
<path d="M697.551 511.671C699.782 519.167 691.529 540.03 687.409 546.957C685.3 550.5 680.734 555.196 678.053 558.932C675.931 555.122 674.273 552.885 671.72 549.416C668.721 545.458 665.618 541.584 662.412 537.799C677.071 530.775 687.585 525.117 697.551 511.671Z" fill="#FCFCFC"/>
<path d="M411.279 560.733L411.423 560.802C411.45 562.137 408.307 564.72 407.449 566.54C398.962 584.539 393.842 601.451 392.385 621.252C389.202 621.532 385.469 621.611 382.237 621.764L381.604 620.655C381.815 610.636 385.115 591.663 388.939 582.344C393.654 570.859 400.429 565.362 411.279 560.733Z" fill="#818080"/>
<path d="M492.499 554.363L493.45 555.17C493.479 568.103 468.315 579.368 457.397 579.243C447.061 579.123 440.921 578.691 432.915 571.803C430.452 568.535 429.449 565.059 428.198 561.242C440.426 570.762 454.564 569.972 469.047 566.343C478.216 564.046 484.807 559.517 492.499 554.363Z" fill="#818080"/>
<path d="M72.5637 706.674C74.0534 709.404 75.2219 714.358 77.3381 718.252C81.6432 726.174 86.6102 732.085 92.0581 739.19C90.6648 742.749 88.4674 746.308 86.5517 749.647C72.259 764.68 69.3625 734.321 70.7114 725.887C71.6677 719.91 71.4361 712.951 72.5637 706.674Z" fill="#605F5F"/>
<path d="M446.348 784.966C470.748 783.242 480.581 803.461 480.174 825.069C478.645 820.529 476.345 816.179 473.933 812.059C463.994 796.441 445.624 787.507 428.611 798.025C429.237 797.014 429.873 796.014 430.516 795.021C435.345 787.581 437.861 786.752 446.348 784.966Z" fill="#605F5F"/>
<path d="M639.622 556.138C641.073 557.507 643.59 566.693 644.377 569.232C641.689 578.811 639.324 588.401 637.471 598.181C636.447 603.587 636.118 611.837 634.734 616.779L634.051 615.975C633.795 606.654 628.462 565.088 629.583 560.34C630.815 561.801 630.949 562.18 632.674 562.761C635.88 562.239 637.696 558.804 639.622 556.138Z" fill="#FCFCFC"/>
<path d="M504.037 706.844C506.59 708.575 511.648 740.671 514.552 747.337C510.593 748.605 506.656 750.226 502.782 751.755L504.084 746.972C507.551 733.188 497.65 721.159 486.757 714.2L504.037 706.844Z" fill="#FCFCFC"/>
<path d="M380.566 780.25C389.778 777.203 404.494 811.712 401.311 816.849C399.805 815.332 397.144 808.366 393.912 804.125C387.257 795.917 378.077 791.596 368.381 788.123C365.481 787.081 361.813 785.868 359.304 784.247L359.137 783.321C362.568 781.182 375.682 780.676 380.566 780.25Z" fill="#605F5F"/>
<path d="M285.639 370.226C299.929 379.187 309.366 399.958 307.356 416.649C307.061 419.096 306.619 421.61 306.178 424.038C302.731 415.619 302.872 404.966 296.664 396.421C292.516 390.714 287.401 387.151 283.808 381.416C282.283 378.982 284.688 373.032 285.639 370.226Z" fill="#605F5F"/>
<path d="M272.753 567.307C276.439 568.242 278.942 579.973 279.661 583.328C283.761 601.883 284.101 621.069 280.661 639.758L280.282 638.552C278.1 613.543 277.921 593.616 266.492 570.45L272.753 567.307Z" fill="#7C7C7B"/>
<path d="M656.487 539.989C659.62 541.594 663.972 548.847 666.1 552.012C662.26 559.205 662.205 564.694 653.226 564.382C645.565 564.154 645.345 556.711 643.626 550.342C647.68 544.396 649.1 541.427 656.487 539.989Z" fill="#969695"/>
<path d="M381.076 584.99C381.327 586.257 379.89 590.96 379.519 592.481C377.139 602.229 376.376 612.117 375.344 622.099L362.234 622.787C360.882 612.867 374.573 592.511 381.076 584.99Z" fill="#FCFCFC"/>
<path d="M630.857 521.361C631.912 522.222 633.271 524.515 634.137 525.711C638.775 532.129 639.793 534.134 646.437 538.528C644.206 541.495 639.982 546.068 637.422 548.987C635.691 551.263 633.893 553.959 632.235 556.33C629.175 545.11 628.188 532.743 630.857 521.361Z" fill="#FCFCFC"/>
<path d="M722.493 740.372L724.102 740.336C725.181 741.774 725.175 741.951 725.681 743.724C723.395 745.589 690.743 756.1 686.165 757.392C685.86 757.478 684.873 757.575 684.519 757.624C684.19 757.155 683.806 756.667 683.642 756.106C683.361 755.138 683.386 753.815 683.873 752.919C684.154 752.401 718.177 741.841 722.493 740.372Z" fill="#969695"/>
<path d="M479.527 554.773C479.829 554.726 480.124 554.904 480.417 554.993C470.374 564.083 449.829 565.238 437.648 560.884C435.419 559.691 433.176 558.431 430.957 557.211C451.514 558.158 459.434 558.195 479.527 554.773Z" fill="#818080"/>
<path d="M174.217 425.334C176.585 425.952 180.212 426.023 182.759 426.167C180.284 436.055 179.784 438.543 172.674 445.98L166.941 450.922C167.912 443.187 171.392 432.555 174.217 425.334Z" fill="#605F5F"/>
<path d="M595.722 368.392C597.097 368.734 599.948 369.886 601.397 370.421C601.237 371.876 599.702 373.734 598.772 374.945C593.053 382.389 591.451 391.121 590.7 400.344C590.829 400.84 590.756 401.172 590.735 401.716C583.746 393.702 589.29 375.796 595.722 368.392Z" fill="#605F5F"/>
<path d="M240.869 750.841C245.185 754.955 247.196 756.905 252.717 759.184C243.656 759.409 239.846 760.744 230.378 759.141C226.923 758.782 220.331 757.398 216.687 756.746C227.217 755.942 231.241 754.936 240.869 750.841Z" fill="#969695"/>
<path d="M703.214 701.378C716.313 703.072 731.35 730.391 723.956 733.943C721.993 734.461 721.128 734.663 719.11 734.864C719.068 733.493 719.287 733.73 720.402 732.316C723.243 719.782 712.466 708.063 703.214 701.378Z" fill="#FCFCFC"/>
<path d="M355.129 436.897C355.883 437.738 354.397 443.254 354.072 445.037C351.943 456.746 354.434 467.673 355.207 478.61L354.529 478.587C348.229 466.307 347.425 448.749 355.129 436.897Z" fill="#DEDEDD"/>
<path d="M165.86 495.919C166.791 496.839 169.8 503.605 171.001 505.721C173.621 510.339 176.38 514.536 179.275 518.994C180.027 520.152 179.482 520.744 179.008 522.248L177.208 522.977C172.87 520.141 166.189 501.592 165.86 495.919Z" fill="#605F5F"/>
<path d="M690.651 739.141C693.217 738.837 699.166 740.33 701.885 740.903C699.014 742.2 694.68 743.639 691.627 744.754C688.756 745.564 683.977 747.472 682.045 744.534C683.709 740.714 686.921 740.36 690.651 739.141Z" fill="#969695"/>
<path d="M263.743 761.335L265.486 761.189L266.17 762.005C266.129 764.327 265.887 766.003 265.58 768.27L253.092 765.223C250.666 764.583 247.709 763.998 245.22 763.431C251.485 763.053 257.532 762.17 263.743 761.335Z" fill="#969695"/>
<path d="M513.786 755.211C516.658 754.772 527.425 755.887 529.169 757.971L528.069 759.263C526.492 760.396 525.469 761.615 523.597 761.323C520.445 760.823 515.505 757.764 513.786 755.211Z" fill="#605F5F"/>
<path d="M267.97 750.025L268.687 751.097C269.137 756.387 267.141 756.88 262.4 757.593L261.968 757.252C262.597 755.418 266.428 751.676 267.97 750.025Z" fill="#969695"/>
<path d="M116.674 975.463C130.323 972.587 147.473 961.118 158.463 963.33C169.87 966.158 181.565 970.527 192.704 974.202C201.11 976.968 199.094 994.287 199.115 1001.56L199.055 1038.66C199.066 1055.51 199.444 1072.39 198.966 1089.25C198.82 1094.41 199.867 1104.2 195.381 1107.2C190.768 1107.75 165.367 1097.62 156.173 1095.73C150.69 1095.02 124.657 1107.14 116.575 1109.02C110.412 1107.29 106.11 1104.49 100.347 1102.09C94.2881 1099.56 87.8862 1097.19 81.7331 1094.85C74.3225 1097.21 45.5653 1108.1 40.9798 1107.39C39.7869 1106.64 37.7903 1104.84 37.7458 1103.3C36.6205 1064.5 38.1487 1025.5 37.3767 986.615C37.3455 985.049 37.7542 979.223 38.6908 977.949C43.0273 972.044 75.3069 963.922 79.8253 962.953C88.7079 961.996 107.454 971.874 116.674 975.463Z" fill="#353534"/>
<path d="M117.689 984.299C129.348 981.618 142.182 974.141 154.113 970.277C164.287 972.904 181.118 979.052 190.604 983.391C190.474 1021.47 191.352 1059.95 190.603 1098C181.676 1094.92 162.334 1088.39 153.613 1087.38C141.448 1091.3 129.834 1096.25 117.023 1100.28C109.608 1097.9 99.838 1093.91 92.734 1090.56C77.0936 1083.19 62.1871 1094.07 45.3675 1098.33C46.3778 1066.83 44.9176 1034.55 45.435 1002.98C45.5464 996.182 45.3163 989.57 45.6734 982.739C55.4236 978.199 72.4137 973.221 82.9396 970.868C86.4535 970.375 108.162 982.105 117.689 984.299Z" fill="#FCFCFC"/>
<path d="M86.0981 980.137C94.7527 984.037 107.081 987.961 114.983 992.306L115.721 994.372C117.219 998.65 115.58 1021.55 116.135 1027.75L119.298 1029.14L120.609 1028.25C121.942 1025.21 121.121 998.12 121.39 991.794C130.638 989.046 141.218 983.604 152.147 980.259C151.907 984.263 150.865 996.846 152.528 999.783L153.765 999.887C163.854 981.465 187.001 995.755 177.451 1012.06C173.579 1018.67 165.548 1019.54 159.003 1015.93C154.616 1023.47 144.589 1042.77 135.961 1044.99C133.898 1045.49 131.717 1045.1 129.964 1043.9C123.7 1039.64 121.638 1035.14 112.968 1031.29C108.165 1033.08 104.239 1035.07 99.0986 1032.66C89.1774 1028 89.1073 1011 75.0852 1015.05C68.4042 1016.98 58.8528 1025.82 53.2067 1025.96L52.127 1025.11L52.2737 1023.82C52.6672 1012.54 52.5006 1000.35 52.4896 989.022C60.0272 985.609 71.5798 982.812 79.8255 980.631C79.8913 987.699 80.2869 1002.85 79.5024 1009.14C82.0807 1009.64 85.4008 1010.6 87.7792 1009.81L88.3923 1009.61C84.0385 1005.46 85.9232 986.663 86.0981 980.137Z" fill="#353534"/>
<path d="M121.39 991.794C130.639 989.046 141.218 983.604 152.147 980.259C151.907 984.263 150.866 996.846 152.528 999.783L153.765 999.887C152.478 1005.54 152.278 1007.77 155.203 1013.03C148.336 1023.8 144.748 1032.33 134.523 1041.03C129.221 1037.31 123.93 1032.2 119.298 1029.14L120.609 1028.25C121.942 1025.21 121.121 998.12 121.39 991.794Z" fill="#DEDEDD"/>
<path d="M52.4898 989.022C60.0275 985.609 71.5801 982.812 79.8257 980.631C79.8916 987.699 80.2872 1002.85 79.5027 1009.14C70.77 1011.29 59.9472 1019.09 52.2739 1023.82C52.6675 1012.54 52.5008 1000.35 52.4898 989.022Z" fill="#DEDEDD"/>
<path d="M115.721 994.372C117.219 998.65 115.58 1021.55 116.136 1027.75C110.785 1026.2 107.388 1027.71 101.982 1029.09C97.8688 1025.4 93.2492 1017.85 90.0303 1013.01C97.6304 1008.94 110.769 1001.43 115.721 994.372Z" fill="#DEDEDD"/>
<path d="M86.0982 980.137C94.7528 984.037 107.081 987.961 114.984 992.306C109.305 996.365 103.686 1000.4 97.8809 1004.3C94.8077 1006.36 91.0884 1007.87 88.3924 1009.61C84.0386 1005.46 85.9233 986.663 86.0982 980.137Z" fill="#DEDEDD"/>
<path d="M164.657 996.596C169.012 995.804 173.203 998.638 174.09 1002.98C174.978 1007.31 172.238 1011.56 167.921 1012.54C165.042 1013.2 162.034 1012.25 160.058 1010.05C158.083 1007.86 157.45 1004.77 158.405 1001.98C159.359 999.18 161.751 997.12 164.657 996.596Z" fill="#DEDEDD"/>
<path d="M85.9039 1029.32C89.3989 1034.23 98.354 1042.7 98.9959 1045.7L99.5493 1045.5C105.254 1043.44 109.247 1037.07 115.745 1040.87C123.391 1045.33 126.568 1049.91 134.955 1054.72C140.187 1049.59 148.184 1042.62 155.257 1040.61C159.266 1039.48 171.555 1048.84 175.246 1051.35C178.275 1053.41 180.357 1054.19 183.419 1055.79C183.514 1057.19 183.584 1057.31 183.276 1058.73C173.703 1059.17 166.967 1050.22 157.034 1045.36C156.1 1045.55 153.983 1045.93 153.189 1046.21C152.633 1057.3 152.334 1068.39 152.293 1079.5C142.147 1083.49 131.889 1087.87 121.295 1090.39C121.398 1077.45 121.333 1064.5 121.1 1051.56L120.485 1051.05C119.533 1051.13 117.987 1051.04 117.745 1051.67C114.92 1059.03 116.484 1085.25 116.369 1092.82C107.035 1089 96.2871 1085.16 87.3808 1080.43C85.6894 1079.53 84.8013 1077.17 84.0284 1075.45C78.6311 1079.79 74.8222 1081.55 68.2734 1083.93L67.6401 1082.55C69.2017 1079.12 77.9789 1077.33 82.0694 1069.08C83.7297 1066.47 86.1904 1059.37 87.3588 1056.17C85.0945 1051.4 85.938 1035.22 85.9039 1029.32Z" fill="#DEDEDD"/>
<path d="M153.188 1046.21C152.633 1057.3 152.334 1068.39 152.292 1079.5C142.147 1083.49 131.889 1087.87 121.295 1090.39C121.398 1077.45 121.333 1064.5 121.1 1051.56C141.203 1066.14 135.926 1054.96 153.188 1046.21Z" fill="#DEDEDD"/>
<path d="M85.9039 1029.32C89.3989 1034.23 98.354 1042.7 98.9959 1045.7L99.5493 1045.5C105.254 1043.44 109.247 1037.07 115.745 1040.87C123.391 1045.33 126.568 1049.91 134.955 1054.72C140.187 1049.59 148.184 1042.62 155.257 1040.61C159.266 1039.48 171.555 1048.84 175.246 1051.35C178.275 1053.41 180.357 1054.19 183.419 1055.79C183.514 1057.19 183.584 1057.31 183.276 1058.73C173.703 1059.17 166.967 1050.22 157.034 1045.36C156.1 1045.55 153.983 1045.93 153.189 1046.21C135.926 1054.96 141.203 1066.14 121.1 1051.56L120.485 1051.05C117.397 1047.7 115.312 1045.81 111.391 1043.38C105.189 1048.54 105.072 1048.91 97.0551 1050.87C91.1038 1057.27 89.1216 1067.31 84.0284 1075.45C78.6311 1079.79 74.8222 1081.55 68.2734 1083.93L67.6401 1082.55C69.2017 1079.12 77.9789 1077.33 82.0694 1069.08C83.7297 1066.47 86.1904 1059.37 87.3588 1056.17C85.0945 1051.4 85.938 1035.22 85.9039 1029.32Z" fill="#353534"/>
<path d="M85.904 1029.32C89.399 1034.23 98.3541 1042.7 98.996 1045.7C92.9818 1045.21 89.8294 1051.49 87.359 1056.17C85.0946 1051.4 85.9382 1035.22 85.904 1029.32Z" fill="#DEDEDD"/>
<path d="M52.3594 1032.28C61.15 1029.01 70.1222 1025.4 78.8707 1021.97C81.0967 1037.41 78.7714 1052.2 80.8547 1067.48C80.8547 1067.48 81.9586 1068.93 82.0695 1069.08C77.979 1077.33 69.2019 1079.12 67.6403 1082.55L68.2736 1083.93C63.6601 1084.6 57.0638 1087.41 52.5745 1089.14L52.3594 1032.28Z" fill="#DEDEDD"/>
<path d="M157.034 1045.36C166.967 1050.22 173.703 1059.17 183.276 1058.73C183.029 1060.01 184.022 1084.54 184.021 1088.23C174.749 1086.06 166.867 1082.79 157.872 1079.68C157.829 1070.29 158.104 1054.21 157.034 1045.36Z" fill="#DEDEDD"/>
<path d="M501.401 957.499C544.577 952.733 583.425 983.903 588.122 1027.07C592.818 1070.25 561.579 1109.03 518.388 1113.66C475.298 1118.27 436.609 1087.13 431.924 1044.05C427.238 1000.98 458.326 962.252 501.401 957.499Z" fill="#353534"/>
<path d="M504.159 964.171C543.513 960.978 578.016 990.253 581.265 1029.59C584.513 1068.94 555.279 1103.47 515.934 1106.77C476.512 1110.08 441.884 1080.78 438.629 1041.37C435.374 1001.95 464.728 967.371 504.159 964.171Z" fill="#DEDEDD"/>
<path d="M505.014 975.652C537.937 972.891 566.919 997.206 569.922 1030.1C572.924 1062.99 548.823 1092.15 515.944 1095.39C482.719 1098.67 453.181 1074.27 450.147 1041.03C447.113 1007.78 471.744 978.437 505.014 975.652Z" fill="#353534"/>
<path d="M502.44 982.124C532.13 977.919 559.583 998.644 563.658 1028.35C567.733 1058.05 546.878 1085.4 517.151 1089.34C487.611 1093.26 460.46 1072.57 456.41 1043.06C452.36 1013.54 472.935 986.304 502.44 982.124Z" fill="#FCFCFC"/>
<path d="M538.474 998.168C541.497 997.955 542.43 997.864 544.504 999.923C545.696 1004.68 533.115 1026.25 530.542 1031.56C520.594 1052.06 497.891 1060.65 479.986 1072.75C479.083 1073.02 478.603 1072.91 477.638 1072.9C475.48 1071.8 473.034 1069.36 474.597 1066.76C481.579 1055.15 486.967 1039.03 494.94 1028.33C504.021 1016.13 525.074 1004.93 538.474 998.168Z" fill="#353534"/>
<path d="M532.874 1008.53L533.334 1009.17C531.581 1015.99 520.698 1033.31 516.494 1040.32C516.477 1036.33 516.581 1034.94 515.04 1031.31C512.067 1027.99 508.942 1027.33 504.797 1025.92C514.101 1019.61 525.037 1014.01 532.874 1008.53Z" fill="#DEDEDD"/>
<path d="M502.304 1028.95C503.314 1030.54 504.259 1035.61 506.685 1039.94C508.698 1040.53 512.102 1041.1 514.278 1041.54C508.551 1046.24 500.824 1051.35 494.589 1055.3C492.06 1057.11 488.91 1058.98 486.243 1060.65C491.545 1050.39 496.405 1038.85 502.304 1028.95Z" fill="#DEDEDD"/>
<path d="M676.7 967.748C693.894 969.217 711.125 970.003 728.338 971.283C734.726 971.758 742.315 971.374 748.386 973.3C755.73 975.64 789.309 1050.53 802.962 1062.21C804.096 1061.99 806.175 1060.95 806.839 1060.92C813.8 1060.67 809.887 1072.16 807.778 1074.5C801.524 1077.17 792.753 1059.84 790.083 1054.94C789.132 1060.99 788.785 1066.65 787.2 1072.59C775.485 1076.69 761.332 1078.64 749.184 1081.48C744.838 1082.5 738.834 1083.29 734.818 1084.94L734.702 1085.93C735.287 1087.27 735.616 1088.55 736.78 1089.32C739.164 1086.78 739.218 1085.95 742.4 1087.56C744.387 1093.05 741.906 1099.13 735.872 1098.78C731.825 1096.63 730.685 1090.3 728.966 1085.55C725.266 1086.64 716.843 1088.89 713.253 1088.42C694.485 1085.95 675.95 1080.36 657.25 1077.24C648.783 1075.83 641.621 1074.32 633.49 1071.64C632.838 1066.36 632.064 1062.66 630.912 1057.47C626.079 1062.42 620.648 1071.98 615.302 1074.43C611.048 1074.35 610.121 1066.66 610.365 1063.31C611.176 1061.6 611.218 1061.57 612.907 1060.62C615.369 1061.01 615.394 1061.87 617.564 1063.89C628.078 1053.67 652.422 1008.8 661.815 994.244C666.697 986.676 667.807 977.614 676.7 967.748Z" fill="#353534"/>
<path d="M680.85 975.104C701.641 975.829 725.095 978.278 746.612 979.32C753.176 989.04 759.978 1003.82 765.818 1014.33C772.364 1026.12 779.544 1037.87 785.889 1049.65L773.705 1052.26C766.318 1053.57 758.247 1055.68 750.829 1057.24C741.577 1059.2 731.611 1060.96 722.566 1063.51C716.062 1051.1 710.601 1038.24 704.433 1025.78C696.429 1009.61 687.232 991.996 680.85 975.104Z" fill="#FCFCFC"/>
<path d="M679.778 987.029C679.345 986.578 716.367 1063.39 718.61 1068.44C716.611 1072.45 715.593 1074.89 714.039 1079.04C713.637 1080.46 713.722 1080.4 712.668 1081.4C708.047 1082.54 700.032 1080.33 695.229 1079.3C688.268 1051.82 673.603 1016.82 679.778 987.029Z" fill="#FCFCFC"/>
<path d="M674.335 985.158C674.993 987.742 674.45 993.781 674.164 996.566C671.409 1023.1 662.059 1045.75 648.905 1068.53L637.897 1066.54C636.239 1061.33 635.477 1056.35 634.85 1050.95C639.64 1041.09 650.539 1026.22 656.396 1016.05C662.132 1006.1 668.337 994.805 674.335 985.158Z" fill="#FCFCFC"/>
<path d="M675.718 1018.17C676.315 1019.53 678.345 1036.86 678.766 1039.62C679.668 1045.52 689.505 1073.93 688.536 1076.95C686.123 1077.91 675.883 1074.65 672.92 1073.84C667.209 1072.25 661.486 1070.7 655.75 1069.18C663.095 1052.22 670.75 1036.14 675.718 1018.17Z" fill="#605F5F"/>
<path d="M783.78 1055.61L784.317 1056.34C783.616 1059.82 782.683 1063.4 781.836 1066.85C773.638 1069.42 738.34 1078.62 730.398 1078.81L729.393 1077.76L724.547 1067.91C737.737 1066.89 769.627 1058.87 783.78 1055.61Z" fill="#DEDEDD"/>
<path d="M721.804 1074.31C722.95 1076.1 724.059 1077.44 724.309 1079.51C723.011 1081.31 722.481 1080.99 719.994 1081.77C719.189 1081.91 719.213 1081.82 718.366 1081.71C718.397 1079.75 720.725 1076.21 721.804 1074.31Z" fill="#DEDEDD"/>
<path d="M305.763 1010.56L306.316 1009.94C313.145 1002.21 319.209 992.623 325.912 984.531C332.108 977.048 341.789 957.797 353.087 970.716C356.011 974.013 358.197 977.529 360.772 981.069L375.918 1001.57C383.617 1012.15 391.053 1022.91 399.601 1032.8C400.369 1033.69 401.039 1035.1 401.059 1036.29C398.534 1039.86 388.709 1039.13 384.753 1039.16C371.385 1039.24 359.422 1038.56 347.434 1045.5C343.215 1047.95 336.583 1051.54 337.176 1057.45C340.595 1065.51 378.654 1076.96 368.407 1099.64C366.687 1103.45 362.834 1109.09 358.14 1108.3C357.62 1107.59 357.05 1107.17 357.258 1106.61C360.506 1097.78 361.972 1097.78 362.485 1088.42C356.345 1075.76 342.694 1071.09 332.162 1063.6C331.05 1062.8 330.005 1059.14 329.557 1057.62C331.85 1046.53 337.056 1044.89 346.23 1039.45C331.529 1038.5 308.84 1044.29 296.631 1053.19C295.307 1054.15 292.617 1058.18 293.188 1059.44C297.444 1068.83 303.161 1072.41 305.729 1083.23C301.258 1095.62 291.139 1100.04 280.035 1105.81C277.304 1107.23 274.053 1108.59 270.98 1108.65C264.045 1107.28 244.695 1107.87 236.46 1107.94C235.593 1100.51 236.056 1088.57 236.125 1080.81C236.244 1066.85 236.281 1052.87 236.237 1038.91C236.141 1037.23 235.82 1036.4 236.914 1034.96C247.582 1020.95 257.752 1006.51 268.529 992.58C270.978 989.418 275.44 986.03 279.453 985.396C283.583 986.176 301.133 1006.01 305.763 1010.56Z" fill="#353534"/>
<path d="M236.237 1038.91L283.869 1039.44C291.345 1039.5 302.921 1039.23 310.045 1039.99C304.085 1042.68 288.246 1050 286.331 1055.94C284.139 1062.74 295.955 1075.66 298.613 1083.3C292.31 1094.27 282.103 1095.88 272.599 1102.9C270.215 1104.66 269.876 1106 270.98 1108.65C264.045 1107.28 244.695 1107.87 236.46 1107.94C235.593 1100.51 236.056 1088.57 236.125 1080.81C236.244 1066.85 236.281 1052.87 236.237 1038.91Z" fill="#DEDEDD"/>
<path d="M344.798 973.86C351.876 980.107 358.402 989.284 363.284 997.346C372.63 1008.67 381.345 1020.97 389.959 1032.9C342.572 1033.68 295.174 1033.66 247.787 1032.84C256.893 1021.51 268.562 1001.92 278.695 992.312C283.587 995.981 289.597 1001.75 293.955 1006.16C299.281 1011.54 309.433 1024.75 315.434 1028.25C317.232 1027.58 317.108 1027.97 317.787 1026.69C316.396 1023.99 311.69 1018.31 309.62 1015.66C314.79 1009.14 319.521 1003.61 325.001 997.401C329.397 992.069 340.323 977.249 344.798 973.86Z" fill="#DEDEDD"/>
<path d="M344.798 973.86C351.876 980.107 358.402 989.284 363.284 997.346C359.283 997.699 355.762 996.834 351.812 996.133C349.113 998.022 346.058 1001.53 343.727 1004.01C341.036 1001.13 338.915 998.101 335.874 994.927C332.251 996.615 328.784 999.32 325.001 997.401C329.397 992.069 340.323 977.249 344.798 973.86Z" fill="#FCFCFC"/>
</g>
<defs>
<clipPath id="clip0_6_195">
<rect width="832" height="1248" fill="white"/>
</clipPath>
</defs>
</svg>
