<svg width="832" height="1248" viewBox="0 0 832 1248" fill="none" xmlns="http://www.w3.org/2000/svg">
<g clip-path="url(#clip0_6_3)">
<path d="M0 0H832V712.487V722.573V834.149V839.408V844.259V877.104V882.594V890.01V1248H0V0Z" fill="none"/>
<path d="M354.204 277.816C357.467 274.705 362.923 270.283 367.715 271.732C371.348 275.285 380.546 298.769 383.968 305.672C386.104 300.31 394.069 274.977 397.508 272.954C398.907 272.132 400.921 272.71 402.375 273.161C404.885 273.94 408.954 275.739 410.065 278.242C411.673 281.862 396.656 320.112 394.218 326.906C427.883 333.359 463.868 342.016 497.638 349.173C549.132 359.784 600.711 369.983 652.367 379.767C655.415 374.073 666.746 345.391 670.117 343.357C671.226 342.687 672.463 342.755 673.695 343.04C676.285 343.644 681.003 345.738 682.216 348.174C684.111 351.973 669.263 380.908 667.203 386.597C680.832 414.441 693.242 443.29 706.694 471.304C745.966 553.09 789.717 632.306 832 712.487V722.572V834.149V839.408V844.259V877.104V882.594V890.01C813.818 894.904 797.111 898.487 778.813 902.381C763.746 905.592 750.153 910.242 734.348 911.997C734.629 921.009 738.292 939.65 734.178 947.103C734.69 950.247 735.189 953.264 735.525 956.432C741.218 958.443 751.622 961.837 754.444 967.499C755.036 968.687 755.182 970.034 754.737 971.301C753.579 974.586 749.117 976.67 746.118 977.901C713.557 991.24 630.888 988.065 598.265 974.08C595.05 972.697 591.57 971.301 589.709 968.175C588.993 962.526 595.26 960.424 599.828 959.973C604.82 949.473 619.88 943.916 629.76 938.511C629.571 935.878 629.614 933.386 628.596 930.991C623.945 927.469 622.586 936.006 612.224 933.441L611.578 933.276C605.4 934.117 594.424 934.818 588.382 933.867C585.912 933.477 585.178 932.636 583.836 930.644C561.871 937.176 539.855 943.501 518 950.418C511.427 952.502 508.045 952.398 501.305 951.557C503.258 963.867 504.835 975.11 504.828 987.693C505.116 992.946 508.789 1006.35 505.468 1010.87C498.944 1019.45 481.576 1022.36 471.741 1024.15C462.28 1025.88 435.77 1026.59 434.924 1013.66C434.135 1001.62 448.686 988.674 458.026 983.196C454.228 972.532 450.772 961.746 447.664 950.857C439.074 948.492 430.278 946.957 421.396 946.268C421.37 948.559 421.442 951.521 421.125 953.733C421.204 961.222 420.68 968.376 420.015 975.676C418.986 986.968 424.888 995.28 412.653 1001.29C394.353 1010.3 316.414 1018.67 356.116 978.339C361.167 973.208 368.716 970.119 375.342 967.627C373.5 959.839 371.761 947.408 370.393 939.236C366.062 938.559 364.149 937.012 358.883 937.085C358.905 943.02 360.402 968.01 357.582 971.082C355.76 973.068 352.841 973.33 350.303 973.294C348.131 973.263 346.104 972.928 344.543 971.277C341.282 967.834 343.13 934.812 342.925 927.907C305.908 922.082 266.91 916.725 230.204 910.144C228.731 916.987 227.098 925.287 225.228 931.923C222.798 940.54 220.58 944.592 219.41 953.739C229.19 956.445 239.7 961.265 244.905 970.484C245.271 971.124 245.61 971.782 245.917 972.453C245.913 973.111 245.933 975.25 245.799 975.798C242.161 990.551 207.683 986.682 198.592 985.695C197.849 988.437 196.982 992.538 194.85 994.457C191.167 997.772 186.176 998.827 182.906 994.317C180.162 990.533 181.287 987.443 182.051 983.202C173.521 979.205 172.898 975.884 173.54 967.042C162.24 967.407 150.983 967.602 139.687 968.053C130.326 968.431 120.28 969.918 111.118 970.29C125.1 979.954 133.92 995.268 110.559 999.247C96.6499 1001.61 53.3363 998.881 55.928 977.968C57.931 969.29 62.2935 959.869 64.3762 950.527C65.4532 945.695 65.9628 937.755 67.0441 934.678C76.4149 908.011 82.9198 904.428 83.7652 875.538C78.1679 875.989 63.8106 876.61 59.7752 879.413C57.7332 883.246 61.406 885.58 56.79 890.797C44.9616 904.166 27.1049 859.676 45.6014 864.021C51.0621 865.306 54.0064 872.04 56.3702 876.354C65.3874 863.235 73.0266 849.847 81.1223 836.178L80.2372 828.323C38.1595 823.765 40.6633 813.089 44.5313 775.716C45.6958 764.461 39.2909 759.763 50.21 749.738C52.821 735.18 55.8938 713.743 61.4151 700.397C66.4748 688.161 79.2553 683.755 90.7241 679.703C84.6563 673.993 79.9916 666.955 77.0945 659.137C67.291 632.373 73.2009 603.059 84.7727 577.927C71.7514 559.343 60.253 522.493 70.3002 500.343C73.4776 493.338 82.0877 491.453 88.428 495.984C104.921 507.768 110.09 531.479 114.286 550.073C123.762 545.043 129.214 543.901 139.595 542.556C139.482 536.453 139.658 530.348 140.119 524.261C141.112 511.901 143.89 491.77 153.23 483.473C163.627 475.764 170.591 487.428 173.168 495.535C178.845 513.395 177.648 529.852 174.439 548.133C205.616 563.554 208.004 582.324 213.01 612.787C215.424 627.48 218.443 635.962 218.722 651.623C222.446 646.309 228.559 634.463 231.737 628.418L251.087 591.697C272.003 552.738 292.267 513.433 311.872 473.798C322.17 452.879 332.641 430.977 341.719 409.509C345.024 399.953 341.119 387.267 344.072 377.811C345.2 374.198 355.818 369.728 358.676 377.313L359.249 377.059C362.137 371.072 364.567 363.376 366.81 357.016C369.964 348.14 373.18 339.288 376.46 330.459C371.07 316.45 357.756 291.278 354.204 277.816Z" fill="#333334"/>
<path d="M395.373 332.197C404.266 333.88 413.51 336.426 422.463 338.327C455.597 345.617 488.78 352.68 522.01 359.516L602.326 375.419C622.793 379.301 642.219 382.441 662.559 387.25C670.952 405.032 678.906 423.412 687.287 441.327C701.751 471.722 716.52 501.971 731.587 532.07C756.066 580.087 780.965 627.888 806.278 675.474C814.702 691.245 823.601 706.656 832 722.573V834.149C799.384 842.93 763.837 851.035 730.801 859.012C730.234 852.863 730.38 844.935 730.13 838.555C729.265 816.24 729.832 793.9 728.991 771.578C733.556 769.19 735.921 767.715 739.468 764.01C739.791 756.18 737.213 744.224 735.866 736.21C733.318 721.037 729.862 705.126 729.911 689.691C729.935 681.495 729.277 666.327 730.411 658.899C733.068 641.568 739.511 626.121 734.482 608.025C729.24 589.185 709.614 586.2 694.796 578.537C691.023 576.585 689.493 572.393 682.411 568.491C683.008 564.891 683.66 561.696 684.453 558.133C698.886 553.923 704.415 540.862 697.131 527.657C698.295 524.102 699.203 520.915 700.069 517.259C702.879 505.416 700.824 485.065 686.062 482.23C673.103 458.757 649.179 467.473 628.407 471.111C616.991 473.109 600.001 468.543 607.709 488.843C605.028 493.664 602.651 499.372 603.012 505.02C603.249 511.575 608.492 518.251 608.569 524.764C608.827 546.494 606.879 575.24 631.016 585.89C611.682 591.977 603.093 605.681 591.631 620.667C588.767 610.521 585.186 599.893 574.307 595.214C568.244 592.607 563.231 594.889 557.6 597.373C553.641 592.008 546.147 583.908 541.535 578.422C529.815 564.485 519.534 551.167 509.043 536.203C482.444 497.958 458.385 458.009 437.021 416.613C422.592 388.909 409.165 360.32 395.373 332.197Z" fill="#FBFBFA"/>
<path d="M488.906 472.789C491.381 475.493 500.366 494.268 502.788 499.013C516.946 526.744 533.725 552.08 551.829 577.374C555.059 581.887 562.182 589.299 564.475 593.551L562.597 593.815C547.903 584.136 488.805 488.966 488.906 472.789Z" fill="#C0C0BF"/>
<path d="M731.417 869.267C740.23 866.97 748.977 864.435 757.76 862.132C763.209 860.706 769.359 859.755 774.93 858.439C793.984 853.826 813.007 849.103 832 844.259V877.104C808.783 883.929 784.914 888.865 761.472 894.843C752.079 897.238 742.949 899.645 733.428 901.558C732.654 890.803 731.983 880.041 731.417 869.267Z" fill="#949493"/>
<path d="M142.957 901.247C156.966 909.504 167.881 905.958 177.109 909.638C176.281 915.543 174.581 925.653 174.627 931.424C174.683 938.322 176.105 946.201 175.799 953.306C175.588 958.2 173.896 962.471 173.54 967.042C162.239 967.407 150.983 967.602 139.687 968.053C130.326 968.431 120.28 969.918 111.117 970.29L105.785 966.938C110.163 957.986 113.788 954.738 119.276 946.56C129.726 930.985 137.483 918.992 142.957 901.247Z" fill="#FBFBFA"/>
<path d="M672.981 920.54C677.394 920.059 682.313 918.81 686.689 917.822C687.762 926.457 689.036 938.809 690.95 947.548C690.377 951.57 685.025 954.598 682.02 956.786C675.456 961.557 664.18 969.528 671.89 978.449C674.706 981.703 681.703 982.52 685.818 982.514C694.784 982.507 704.274 981.63 712.862 978.87C714.825 978.224 719.079 974.963 721.268 974.421C725.632 973.343 729.911 974.671 733.312 971.082C736.695 967.499 735.756 961.167 735.524 956.432C741.217 958.443 751.622 961.837 754.444 967.499C755.035 968.687 755.181 970.034 754.737 971.301C753.578 974.586 749.117 976.67 746.118 977.901C713.557 991.24 630.887 988.065 598.264 974.08C595.049 972.697 591.569 971.301 589.709 968.175C588.993 962.526 595.26 960.424 599.828 959.973C599.137 969.254 607.752 970.753 614.954 971.265C627.706 972.173 639.604 971.051 651.319 965.61C653.885 966.499 655.439 966.463 657.999 966.493C674.145 966.725 671.073 954.3 671.878 943.434C672.475 935.378 673.066 928.736 672.981 920.54Z" fill="#E1E0E0"/>
<path d="M734.348 911.997C734.263 910.68 734.238 909.267 734.196 907.938C734.44 907.542 734.683 907.146 734.921 906.75C760.058 900.071 809.576 888.255 832 882.594V890.01C813.818 894.904 797.111 898.487 778.813 902.381C763.745 905.592 750.153 910.242 734.348 911.997Z" fill="#E1E0E0"/>
<path d="M731.105 863.996C746.533 859.456 763.465 855.952 779.179 852.126C796.702 847.86 814.427 843.357 832 839.408V844.259C813.007 849.103 793.984 853.826 774.93 858.439C769.359 859.755 763.209 860.706 757.76 862.132C748.977 864.435 740.23 866.97 731.416 869.267L731.105 863.996Z" fill="#777777"/>
<path d="M152.658 892.247C152.724 893.49 152.772 896.781 153.658 897.25C158.474 899.803 172.808 901.168 178.056 901.887L177.109 909.638C167.881 905.958 156.966 909.504 142.957 901.247L145.235 892.052C147.539 892.954 149.505 894.032 151.884 893.764L152.658 892.247Z" fill="#E1E0E0"/>
<path d="M420.195 938.742C428.37 940.308 437.262 941.466 445.63 942.983C446.192 945.573 446.971 948.285 447.664 950.857C439.073 948.492 430.277 946.957 421.395 946.268C421.37 948.559 421.442 951.521 421.125 953.733C420.542 951.064 420.328 941.954 420.195 938.742Z" fill="#E1E0E0"/>
<path d="M607.354 923.77C608.13 928.505 608.113 929.986 611.578 933.276C605.4 934.117 594.424 934.818 588.382 933.867C585.911 933.477 585.178 932.636 583.836 930.644C591.598 928.499 599.737 925.696 607.354 923.77Z" fill="#E1E0E0"/>
<path d="M150.905 863.746C151.36 873.253 151.945 882.753 152.658 892.247L151.884 893.764C149.505 894.032 147.539 892.954 145.235 892.052C147.134 883.643 148.908 871.175 150.905 863.746Z" fill="#FBFBFA"/>
<path d="M358.778 930.479L369.393 931.899L370.392 939.236C366.062 938.559 364.149 937.012 358.883 937.085L358.778 930.479Z" fill="#E1E0E0"/>
<path d="M514.272 607.31C517.6 609.54 531.446 625.639 536.117 629.856C552.263 644.457 566.688 653.287 585.422 663.871C586.385 672.135 589.134 681.878 595.669 687.369C591.679 710.86 589.266 737.862 587.033 761.676C584.959 783.796 582.742 807.397 581.519 829.506C564.847 828.043 547.071 825.886 530.429 824.003C517.817 823.327 501.284 821.09 488.69 819.359C493.97 799.098 491.545 787.178 485.024 767.764C490.965 758.154 493.116 738.538 493.476 727.259C493.897 714.096 493.054 716.759 497.552 704.7C499.886 698.356 499.585 691.348 496.717 685.23C490.281 671.422 472.417 666.614 459.062 661.598C476.599 654.676 484.107 648.771 495.453 633.628C508.314 628.79 511.29 619.954 514.272 607.31Z" fill="#949493"/>
<path d="M342.206 503.814C343.758 505.478 343.069 610.862 343.074 622.617C325.777 629.009 329.573 635.694 325.319 649.996C318.939 671.44 304.475 715.059 330.959 728.94C330.664 741.03 331.208 750.104 343.177 755.296C343.014 783.205 343.362 811.462 342.982 839.286C332.782 840.627 320.383 843.162 310.106 844.953L247.501 855.739C242.599 856.702 237.47 857.427 232.523 858.201C240.48 829.043 248.69 799.945 257.153 770.926C258.361 770.494 261.258 769.525 262.068 768.599C267.58 762.322 271.727 750.616 272.31 742.414C272.735 736.43 271.17 734.181 267.655 730.281C269.728 724.693 270.613 718.928 272.844 713.042C286.995 707.941 290.836 691.159 290.408 677.07C290.313 673.981 286.913 671.806 284.499 670.099C295.415 639.685 302.968 604.327 313.537 573.462C321.262 550.902 334.66 526.204 342.206 503.814Z" fill="#C0C0BF"/>
<path d="M134.861 772.017C147.758 779.202 162.133 783.339 176.879 784.095L179.515 784.022C186.666 784.296 191.719 783.595 198.695 782.407C198.446 791.121 199.005 813.546 192.828 819.043C189.037 822.412 178.952 827.933 173.575 828.506L173.2 829.347C177.397 831.9 188.413 825.654 192.546 823.375C199.548 831.901 210.512 848.756 215.991 858.42L203.221 904.611C199.752 917.64 196.738 930.759 192.958 943.666C192.548 944.751 191.637 946.95 191.357 947.968C190.989 950.448 190.119 952.727 189.326 955.116C180.983 952.971 179.745 952.77 180.616 944.05C180.672 943.642 180.534 940.668 180.515 940.107C175.906 929.181 187.681 900.766 180.682 890.455C173.414 879.755 160.434 869.133 151.824 858.81C159.042 855.721 163.683 853.862 170.011 849.048L169.94 847.525C166.434 847.604 148.107 853.868 147.162 856.416C143.563 866.117 143.559 878.585 140.711 888.81C136.252 910.772 128.038 923.995 115.895 942.325C113.182 946.42 107.784 955.512 103.501 957.413L102.031 959.546C102.171 960.18 102.151 960.485 102.474 960.978C102.477 962.703 101.721 964.287 100.081 965.079C91.9654 969.004 73.8937 967.438 68.8224 959.01C67.3236 956.518 68.617 953.678 69.474 951.106C70.1122 950.308 70.562 948.498 70.9082 947.414C68.553 931.978 86.1012 909.382 87.9621 892.722C89.7693 876.543 88.3394 857.586 86.8619 841.334C85.4502 825.801 83.4534 820.292 85.5228 804.448C106.87 800.201 121.738 788.732 134.861 772.017Z" fill="#FBFBFA"/>
<path d="M70.9082 947.414C79.7878 954.982 91.3663 958.614 102.978 957.468L103.501 957.413L102.031 959.546C102.171 960.18 102.151 960.485 102.474 960.978C102.477 962.703 101.721 964.287 100.081 965.079C91.9654 969.004 73.8937 967.438 68.8224 959.01C67.3236 956.518 68.617 953.678 69.474 951.106C70.1122 950.308 70.562 948.498 70.9082 947.414Z" fill="#FBFBFA"/>
<path d="M70.9083 947.414C79.7879 954.982 91.3664 958.614 102.978 957.468L103.501 957.413L102.031 959.546C102.171 960.18 102.151 960.485 102.474 960.978C101.391 961.07 100.306 961.143 99.2213 961.204C87.769 961.819 78.0373 958.754 69.4741 951.106C70.1123 950.308 70.5621 948.498 70.9083 947.414Z" fill="#646364"/>
<path d="M176.879 784.095L179.515 784.022C178.711 794.211 175.847 824.082 167.632 830.481L166.758 830.359C166.735 829.103 170.254 819.445 170.892 817.19C173.976 806.276 174.323 795.045 176.879 784.095Z" fill="#4B4A4B"/>
<path d="M180.617 944.05C184.643 946.548 186.603 947.42 191.357 947.968C190.99 950.448 190.119 952.727 189.326 955.116C180.984 952.971 179.746 952.77 180.617 944.05Z" fill="#FBFBFA"/>
<path d="M180.515 940.107C185.281 943.014 187.324 943.136 192.958 943.666C192.548 944.751 191.637 946.95 191.357 947.968C186.603 947.42 184.642 946.548 180.616 944.05C180.673 943.642 180.534 940.668 180.515 940.107Z" fill="#777777"/>
<path d="M95.1333 822.132C99.2506 822.784 104.152 826.032 108.315 827.287C120.058 830.828 132.262 832.918 144.549 832.833C147.057 832.815 153.483 831.894 155.354 832.815L155.291 834.033C141.098 836.983 121.449 834.271 107.947 829.268C104.814 828.11 96.5328 825.027 95.1333 822.132Z" fill="#262626"/>
<path d="M644.474 746.838C650.21 747.526 654.653 747.721 660.444 747.904C664.625 776.484 671.604 783.285 701.135 779.257C709.248 778.154 716.026 776.173 723.822 773.681C724.633 815.191 724.553 856.068 728.351 897.524C729.679 912.076 730.88 928.425 730.825 942.971C729.765 943.562 728.68 944.111 727.577 944.61C717.83 948.974 705.061 948.602 695.101 944.805C691.889 925.525 690.213 904.605 687.019 885.001C682.612 857.97 678.15 831.413 672.908 804.509C671.604 797.093 670.568 789.263 668.124 782.157C666.801 778.318 657.957 773.614 654.397 775.186L654.501 776.441C656.634 779.33 660.267 780.987 663.449 782.773C669.221 805.594 668.953 815.892 667.606 838.817C665.704 871.333 669.983 904.946 667.648 937.578C656.61 942.307 644.852 940.387 634.179 935.817C632.692 907.554 630.425 879.34 627.377 851.205C632.418 849.347 642.853 845.782 642.554 839.018C641.579 817.117 637.58 795.344 635.289 773.547C635.715 773.248 636.142 772.937 636.556 772.614C642.901 767.715 643.45 754.735 644.474 746.838Z" fill="#FBFBFA"/>
<path d="M430.5 530.992C465.568 528.34 488.312 546.414 501.015 577.606C499.093 577.566 494.844 577.447 493.178 578.152C478.146 584.521 473.379 608.042 478.227 622.117C480.336 628.241 484.181 631.355 489.767 633.884C480.089 647.083 466.519 654.481 450.965 658.588C431.208 662.939 406.301 660.581 390.093 647.747C361.209 624.884 363.243 583.156 384.586 556.058C396.473 540.967 411.654 533.19 430.5 530.992Z" fill="#FBFBFA"/>
<path d="M396.223 566.842C409.82 565.868 440.227 567.195 452.631 574.063C458.381 577.544 462.593 584.169 463.76 590.684C467.261 610.216 461.299 625.213 441.146 629.612C426.339 631.69 394.489 629.411 381.272 621.471C367.598 613.251 370.091 588.87 378.109 577.486C382.808 570.815 388.214 568.348 396.223 566.842Z" fill="#333334"/>
<path d="M433.677 590.876C444.202 590.245 442.707 605.293 436.433 611.215C424.563 611.27 427.182 597.153 433.677 590.876Z" fill="#FBFBFA"/>
<path d="M391.96 588C402.591 587.946 399.226 603.023 393.599 608.401C389.074 607.779 387.458 605.813 387.185 601.027C386.929 596.215 388.654 591.508 391.96 588Z" fill="#FBFBFA"/>
<path d="M404.275 635.304C406.896 636.188 409.741 637.668 413.023 638.759C415.812 638.265 419.986 636.242 422.206 637.985L421.887 640.021C416.092 644.804 403.537 644.365 404.275 635.304Z" fill="#262626"/>
<path d="M77.8931 498.887C100.865 497.46 108.066 547.357 110.934 563.01C111.118 564.015 112.074 564.129 112.811 564.315C115.031 562.585 114.845 557.872 114.817 555.329C119.497 553.359 126.254 550.027 131.055 549.098C153.684 544.722 181.761 551.647 195.771 571.038C202.768 580.722 204.27 592.192 206.517 603.607C208.254 612.672 210.159 621.709 212.228 630.703C208.352 625.237 201.219 612.001 201.449 605.412C202.087 587.154 200.739 576.449 184.997 565.46C162.424 549.703 140.798 561.662 127.017 582.248C115.148 600.322 110.197 624.999 114.761 646.449C122.344 677.473 138.391 681.555 162.908 696.107C173.712 702.524 175.351 722.335 177.041 733.864C169.138 731.287 162.399 727.137 156.084 721.786C154.58 714.169 151.005 707.539 147.214 700.897C149.71 701.677 155.566 703.761 157.839 702.938C149.548 694.48 108.906 689.014 96.6859 677.808C84.7856 666.894 79.81 657.138 78.0577 640.91C76.3528 624.536 78.4008 607.983 84.0474 592.514C85.0775 589.637 86.2295 585.931 88.0947 583.615C89.9245 584.492 90.2987 584.698 92.2913 585.001L93.2324 584.264C93.5822 579.995 86.1905 572.095 84.1559 567.753C82.2682 563.725 80.7048 560.236 79.0646 556.043C74.801 545.345 72.3476 534.013 71.8052 522.51C71.3328 513.648 71.7789 505.656 77.8931 498.887Z" fill="#FBFBFA"/>
<path d="M87.4213 519.566C99.8983 522.209 106.415 559.162 104.968 570.443C104.666 572.791 103.304 575.078 102.049 577.045C90.4336 566.281 76.3847 533.663 87.4213 519.566Z" fill="#E1E0E0"/>
<path d="M390.112 364.127C392.241 368.014 401.663 397.626 403.17 403.643C403.631 405.485 403.744 418.561 403.773 421.363L404.012 450.965L404.729 533.315C403.611 533.807 402.506 534.328 401.415 534.877C385.386 542.914 372.857 561.905 367.35 578.604C355.416 614.792 370.913 650.179 408.302 662.409C401.615 666.339 399.301 667.899 392.139 670.276C384.386 672.689 367.963 680.745 358.942 684.255L358.89 663.36C361.952 659.21 362.396 656.65 363.599 651.672C366.59 649.417 368.6 647.753 369.691 643.975C370.896 639.899 370.361 635.505 368.211 631.837C365.888 627.833 363.324 625.907 358.958 624.75C357.993 591.961 358.938 556.544 358.849 523.382L358.772 487.055C358.77 482.539 358.352 468.232 359.523 464.73C370.72 431.23 381.725 398.569 390.112 364.127Z" fill="#C0C0BF"/>
<path d="M390.147 350.514C392.999 348.431 394.763 347.001 397.377 344.627C401.82 352.211 408.745 368.892 412.857 377.452C423.006 398.652 433.644 419.613 444.765 440.32C475.305 497.769 512.631 555.347 556.767 603.435C561.976 609.111 569.256 613.507 574.14 618.449C582.777 627.199 592.222 636.261 600.662 645.03C596.424 645.547 595.724 645.889 591.958 647.662C583.428 640.788 573.703 633.963 564.6 627.79L564.228 631.002C572.111 637.54 580.092 643.957 588.171 650.252C586.255 653.354 585.596 654.639 584.178 657.997C559.804 643.293 547.369 634.481 527.179 614.012C503.424 589.922 507.587 559.378 480.023 539.78C474.959 536.179 468.001 532.766 464.748 527.423C457.056 514.785 450.62 501.4 444.283 488.048C431.528 461.296 420.006 433.974 409.752 406.169C402.988 387.942 396.963 368.974 390.147 350.514Z" fill="#FBFBFA"/>
<path d="M520.359 586.517C524.646 590.213 530.969 597.064 535.233 601.25C544.637 610.515 554.435 619.369 564.6 627.79L564.228 631.002C556.511 628.875 524.341 595.398 520.359 586.517Z" fill="#BEBDBE"/>
<path d="M488.128 824.972C515.105 825.947 553.929 830.877 581.306 834.228C580.907 844.545 579.687 859.67 580.815 869.791C581.592 876.769 593.56 878.231 600.77 882.759L601.345 883.131C592.79 885.769 584.186 888.243 575.535 890.553C561.383 894.337 547.361 898.865 533.187 902.521C527.732 903.935 514.548 908.59 509.551 908.645C504.516 908.7 492.716 906.762 487.186 905.958C485.211 903.904 483.473 901.351 481.788 899.023C491.099 884.398 489.767 842.504 488.128 824.972Z" fill="#777777"/>
<path d="M342.31 421.583C342.218 426.2 334.44 448.173 332.627 453.93L319.254 497.816L300.712 559.844C297.136 572.025 294.119 584.803 289.606 596.656C282.689 614.823 250.054 679.88 238.32 692.713C235.139 696.193 230.861 698.076 226.64 699.977C220.981 699.185 214.287 696.619 208.897 694.651L202.123 692.311C204.785 686.833 209.103 679.996 212.223 674.529C217.419 665.236 222.552 655.907 227.624 646.541C246.79 611.081 265.629 575.448 284.138 539.643C297.529 513.699 310.589 487.586 323.315 461.31C328.154 451.312 337.209 430.127 342.31 421.583Z" fill="#FBFBFA"/>
<path d="M88.3022 786.216C88.3608 780.195 89.4853 769.909 90.2948 763.76C92.3745 747.953 91.8497 716.966 103.431 705.327C118.616 690.592 140.244 715.808 151.641 725.15C173.249 742.871 188.401 740.976 215.049 741.116C219.027 740.957 223.507 740.598 227.397 741.232C229.191 748.306 228.995 761.152 228.52 768.532C225.548 769.641 222.563 770.798 219.523 771.694C218.411 771.92 217.416 772.029 216.439 772.59C190.456 784.351 154.108 779.269 130.901 763.931C123.265 758.885 113.791 751.865 105.867 747.825L105.126 747.453C109.302 755.332 112.02 756.862 119.155 762.231C111.747 773.821 100.9 781.243 88.3022 786.216Z" fill="#FBFBFA"/>
<path d="M215.049 741.116C219.028 740.957 223.507 740.598 227.397 741.232C229.191 748.306 228.995 761.152 228.52 768.532C225.548 769.641 222.563 770.798 219.523 771.694C218.411 771.92 217.417 772.029 216.439 772.59L215.049 741.116Z" fill="#FBFBFA"/>
<path d="M215.049 741.116C219.028 740.957 223.507 740.598 227.397 741.232C224.061 741.518 222.038 741.609 218.701 741.518C219.16 751.816 219.543 761.39 219.523 771.694C218.411 771.92 217.417 772.029 216.439 772.59L215.049 741.116Z" fill="#5C5C5C"/>
<path d="M609.542 686.309C611.998 687.802 614.571 689.264 617.051 690.72C618.789 708.21 624.03 727.137 626.383 744.681C630.626 776.24 636.16 808.976 637.739 840.779C627.706 846.519 619.587 849.451 610.328 857.123C604.297 862.113 592.76 866.111 585.181 868.195C585.029 823.528 590.666 777.989 594.606 733.541C595.902 718.91 597.128 703.377 599.686 688.941C601.512 688.21 603.807 687.448 605.693 686.772C605.989 694.096 607.61 706.211 608.421 713.858C609.096 718.197 609.749 722.542 610.377 726.887L611.889 724.577C612.291 717.423 610.475 693.353 609.542 686.309Z" fill="#FBFBFA"/>
<path d="M608.421 713.858C609.096 718.197 609.75 722.542 610.377 726.887L611.889 724.577L612.224 730.184C612.706 735.686 612.559 744.547 612.712 750.409C613.242 768.915 613.358 787.428 613.059 805.935C612.249 802.98 612.901 800.231 611.938 797.099L611.261 797.209C610.658 795.886 609.841 773.979 609.957 770.817C610.591 753.517 606.029 730.409 608.421 713.858Z" fill="#B1B0B0"/>
<path d="M611.889 724.577L612.224 730.184L611.742 732.31L611.297 732.152L610.377 726.887L611.889 724.577Z" fill="#262626"/>
<path d="M611.261 797.209L611.937 797.099C612.9 800.231 612.248 802.98 613.059 805.935C613.272 808.842 613.272 812.992 612.9 815.843C611.462 813.12 611.346 800.64 611.261 797.209Z" fill="#777777"/>
<path d="M177.574 576.778C196.645 590.239 195.113 609.193 199.62 629.399C208.5 669.21 170.381 692.347 138.047 669.38C134.795 667.071 127.302 657.772 125.671 657.339L123.327 657.668C120.74 652.769 119.755 646.772 118.677 641.318C127.942 635.066 129.656 624.841 129.801 614.299C133.451 612.617 140.898 607.682 142.488 607.099L143.548 607.077C143.999 606.593 144.435 606.104 144.847 605.587L145.771 605.784L146.258 604.696C151.385 599.393 153.588 597.351 157.36 590.949C156.823 593.667 156.097 595.947 156.954 598.56L158.072 599.846C166.487 599.995 174.883 583.728 177.574 576.778Z" fill="#FBFBFA"/>
<path d="M146.259 604.696C149.61 603.784 155.464 602.242 156.558 606.912L155.827 607.452C154.079 607.16 149.132 606.14 147.752 606.989C146.051 608.036 141.427 613.184 139.863 613.446C138.981 610.758 140.828 609.156 142.488 607.099L143.549 607.077C143.999 606.593 144.435 606.104 144.847 605.587L145.771 605.784L146.259 604.696Z" fill="#262626"/>
<path d="M184.82 647.693L186.146 648.192C188.716 654.06 178.408 671.684 163.712 659.971C161.565 657.595 159.126 654.993 158.772 651.727C161.193 645.608 173.446 652.872 184.171 647.991L184.82 647.693Z" fill="#262626"/>
<path d="M176.748 653.512C179.22 653.293 179.13 652.854 180.643 653.945C180.412 659.435 174.052 660.136 169.816 659.849C167.953 658.795 166.157 657.65 165.053 655.809L165.361 654.706C168.164 653.555 173.417 653.719 176.748 653.512Z" fill="#777777"/>
<path d="M152.177 618.985C153.653 619.332 154.928 619.57 156.066 620.618C157.967 622.397 159.004 624.908 158.907 627.51C158.784 631.191 157.846 632.397 155.396 634.658C148.092 633.098 146.563 623.299 152.177 618.985Z" fill="#333334"/>
<path d="M185.201 612.568C192.689 612.964 193.313 621.233 190.644 626.882C189.282 626.98 188.846 626.846 187.543 626.602C182.596 623.159 183.202 617.474 185.201 612.568Z" fill="#262626"/>
<path d="M179.248 627.949C183.068 628.619 186.318 632.586 185.753 636.474C185.269 639.807 183.853 640.618 181.434 642.525C180.495 642.038 179.521 641.459 178.596 640.928C178.556 639.539 182.202 636.992 182.23 635.871C182.311 632.641 179.084 631.952 179.248 627.949Z" fill="#262626"/>
<path d="M183.96 597.194C187.385 597.151 189.688 597.246 191.564 600.41L191.213 601.409C189.254 601.677 189.594 601.427 187.449 600.457C184.444 600.695 181.467 602.913 179.198 601.057L179.285 601.49C180.334 599.093 181.631 598.743 183.96 597.194Z" fill="#262626"/>
<path d="M618.77 494.337C640.311 506.213 664.162 492.631 668.794 496.95C669.41 502.35 666.667 506.475 667.996 512.59C669.458 519.308 672.39 522.392 675.505 528.293C676.882 530.904 675.432 533.114 677.157 535.448C681.911 536.123 684.672 528.599 690.944 528.471C696.472 530.75 696.43 540.502 694.114 545.203C691.121 551.29 686.476 552.717 680.363 553.996C678.028 562.594 677.291 565.722 679.028 574.585C675.273 579.915 660.876 593.688 654.165 593.537C652.526 593.571 648.923 593.429 647.662 594.066C646.156 593.61 645.51 591.729 644.87 590.43C646.711 589.97 646.041 588.893 648.564 588.214C653.483 587.965 665.18 584.015 665.631 578.282L664.991 577.582C662.833 577.616 660.163 580.135 657.969 580.88C619.118 594.086 611.09 557.665 613.571 527.815C614.772 513.377 610.012 508.221 618.77 494.337Z" fill="#FBFBFA"/>
<path d="M644.87 590.429C646.711 589.97 646.04 588.893 648.564 588.214C649.472 590.439 652.154 592.166 654.165 593.537C652.526 593.571 648.923 593.429 647.662 594.066C646.156 593.61 645.51 591.729 644.87 590.429Z" fill="#4B4A4B"/>
<path d="M631.704 533.964C633.204 534.63 632.545 534.153 633.594 535.636C634.203 540.821 631.466 546.976 629.699 551.95C632.905 552.771 635.483 552.878 637.159 555.414L636.501 557.283C619.697 556.149 628.169 544.512 631.704 533.964Z" fill="#262626"/>
<path d="M651.624 560.634C652.892 561.69 652.855 562.329 652.758 563.813C648.345 569.415 638.373 569.106 632.15 567.304C631.095 566.247 631.052 566.311 630.607 564.81C634.045 562.406 640.518 568.579 651.624 560.634Z" fill="#262626"/>
<path d="M650.362 527.935C657.414 530.224 656.951 536.081 652.977 541.144C645.571 540.653 647.223 532.389 650.362 527.935Z" fill="#262626"/>
<path d="M621.788 528.003C628.151 530.482 627.206 536.48 623.372 540.873C616.271 538.775 617.271 532.332 621.788 528.003Z" fill="#262626"/>
<path d="M647.558 515.725C651.782 515.169 663.674 514.633 662.126 521.824L661.102 521.605C653.342 517.684 649.137 520.793 645.882 518.698L645.845 517.442L647.558 515.725Z" fill="#262626"/>
<path d="M620.203 514.917C623.226 515.28 624.933 515.468 626.731 518.21L626.408 519.258C624.14 519.9 624.171 519.496 621.696 518.818C619.392 519.79 617.545 521.092 615.314 519.655L615.351 518.409C616.594 516.29 617.99 515.916 620.203 514.917Z" fill="#262626"/>
<path d="M694.711 583.852C704.774 587.91 724.389 595.368 728.363 606.257C735.519 625.877 726.607 654.511 719.177 672.89C715.782 681.281 709.498 693.993 701.123 696.68C685.556 701.683 655.33 698.514 639.793 696.315C643.493 685.267 643.944 675.596 642.286 664.146C656.799 664.889 671.159 665.59 685.69 665.492C689.036 665.468 693.303 668.448 695.936 667.046L696.271 665.992C694.254 663.067 690.524 661.8 687.281 660.745C690.213 651.617 693.65 642.33 696.466 633.317C696.375 630.715 696.399 629.637 696.68 627.077L696.351 626.803C695.967 628.601 695.004 629.777 693.407 630.545L693.132 631.099C688.908 639.752 686.373 649.417 682.728 658.29C682.106 659.801 678.869 661.05 677.157 660.562C675.718 657.052 693.638 621.514 696.101 615.621L689.579 609.466C691.919 607.864 695.522 605.558 697.521 603.718C697.1 598.839 695.741 588.736 694.711 583.852Z" fill="#FBFBFA"/>
<path d="M693.406 630.545C694.991 626.133 696.515 621.739 699.337 617.955L700.44 617.455C702.019 620.417 697.752 630.033 696.466 633.317C696.375 630.715 696.399 629.637 696.679 627.077L696.35 626.803C695.966 628.601 695.003 629.777 693.406 630.545Z" fill="#262626"/>
<path d="M724.474 673.201C724.809 675.498 724.626 682.006 724.645 684.627C724.657 690.909 725.01 697.186 725.699 703.432C727.82 722.505 732.282 742.621 734.994 762.078C722.444 771.201 687.622 779.537 673.841 771.56C663.583 759.787 661.047 720.001 660.261 703.706C695.747 704.76 708.956 709.965 724.474 673.201Z" fill="#FBFBFA"/>
<path d="M230.276 873.679C267.193 879.511 306.71 882.82 343.127 889.858C343.085 894.465 343.828 920.613 342.355 922.831C305.274 916.573 268.104 910.851 230.859 905.659C232.984 893.49 232.935 885.787 230.276 873.679Z" fill="#949493"/>
<path d="M463.305 811.206C466.041 811.011 468.722 810.883 471.41 811.572C475.124 812.516 478.298 814.923 480.205 818.25C487.664 831.005 484.685 873.99 481.206 888.761C480.611 891.284 479.276 893.039 476.99 894.294C472.844 893.356 466.923 888.061 460.983 886.208L460.214 885.976C450.743 884.209 446.666 887.055 441.243 894.288C440.85 892.862 440.516 891.424 440.241 889.968C435.844 866.848 432.256 817.141 463.305 811.206Z" fill="#FBFBFA"/>
<path d="M600.563 887.914L601.75 888.036C603.521 890.4 606.246 914.014 606.908 918.547C577.682 927.767 547.208 936.049 517.787 945.104L512.844 946.786C512.561 935.72 512.567 924.647 512.862 913.581C522.888 909.852 533.033 907.14 543.281 904.172L600.563 887.914Z" fill="#949493"/>
<path d="M479.918 905.281C488.825 908.755 502.966 975.725 498.565 985.487C493.964 989.089 483.393 981.727 477.619 980.698C473.655 979.997 473.447 979.93 469.181 980.058C466.836 980.49 465.482 980.838 463.061 980.643C456.806 971.021 447.519 929.912 445.187 918.182C449.093 920.638 451.963 922.271 456.67 922.716C469.084 923.904 472.499 911.137 479.918 905.281Z" fill="#FBFBFA"/>
<path d="M408.822 667.729L410.295 668.18C410.987 671.22 413.336 677.003 416.04 678.57C431.743 687.674 450.617 681.446 460.359 667.412C465.688 668.411 470.157 670.081 475.079 672.202C465.727 676.028 461.994 679.356 457.382 688.192C454.595 693.53 449.252 697.6 445.083 702.25C439.383 709.306 433.623 716.497 427.356 723.054C413.357 722.676 400.399 722.95 386.427 723.072C386.061 705.534 393.125 677.369 408.822 667.729Z" fill="#FBFBFA"/>
<path d="M339.82 844.819C341.821 844.582 341.275 844.338 342.569 845.258C343.629 854.332 343.132 875.385 343.132 885.16C329.574 883.691 314.801 880.876 301.091 879.145C283.867 876.97 266.219 874.746 249.154 871.705C245.411 871.193 233.613 869.883 230.811 868.737C230.63 866.69 230.767 866.519 231.421 864.514C233.653 862.071 329.731 846.154 339.82 844.819Z" fill="#777777"/>
<path d="M482.769 778.763L483.596 779.476C487.686 789.049 487.111 801.042 486.18 811.194C474.621 787.008 449.389 796.788 438.858 815.959C434.254 824.344 433.793 830.743 433.988 839.932C422.246 838.329 417.422 836.903 408.117 829.231C393.388 816.118 389.197 800.761 388.612 781.871C410.63 796.307 461.539 794.412 482.769 778.763Z" fill="#FBFBFA"/>
<path d="M407.999 417.321C410.036 419.35 422.121 450.069 424.317 455.282C431.953 473.323 440.143 491.124 448.876 508.66C450.341 511.576 458.207 525.833 458.094 527.46C456.348 528.317 455.5 527.68 453.182 527.202C436.062 523.855 425.651 525.377 409.547 530.824C407.914 493.659 408.344 454.674 407.999 417.321Z" fill="#949493"/>
<path d="M405.835 900.943C415.158 905.458 416.979 960.156 415.177 971.856C413.443 983.111 392.446 969.351 387.075 967.724C385.19 967.395 382.308 967.182 380.319 966.987C376.817 950.326 372.85 926.603 371.771 909.699C386.325 922.179 394.541 910.016 405.835 900.943Z" fill="#FBFBFA"/>
<path d="M388.461 810.78C390.089 812.126 391.77 816.928 393.073 819.043C401.567 832.833 408.79 839.036 423.706 843.29C421.377 855.739 416.174 873.576 410.48 885.056C409.05 887.939 407.604 889.62 404.493 890.498C393.28 886.44 386.154 869.578 371.635 882.168C373.561 855.928 377.249 834.685 388.461 810.78Z" fill="#FBFBFA"/>
<path d="M656.408 470.7C670.257 470.58 676.437 474.002 682.862 486.021C700.587 488.077 697.667 512.913 693.736 525.083C687.226 524.069 685.525 524.538 680.235 528.271C674.914 520.117 670.933 514.843 671.921 504.987C672.354 502.237 674.255 491.727 668.733 491.925C652.55 492.507 637.105 499.696 621.397 491.162C616.418 488.454 607.525 485.877 611.456 478.15C613.845 475.896 624.981 476.125 629.266 475.346C638.111 473.738 647.497 471.135 656.408 470.7Z" fill="#5C5C5C"/>
<path d="M233.701 769.665C235.88 770.006 238.284 770.189 240.493 770.408C237.424 779.653 235.088 789.451 232.448 798.878L217.515 851.791C216.137 849.03 214.502 846.312 212.946 843.643C207.84 835.861 203.35 829.067 197.751 821.62C203.872 811.98 203.509 792.998 203.555 781.755C211.087 779.909 228.444 775.247 233.701 769.665Z" fill="#C0C0BF"/>
<path d="M251.472 765.954L252.611 766.125L253.189 767.063C252.927 770.408 251.913 772.358 251.129 775.417C245.737 796.496 239.456 817.349 233.741 838.323L204.995 944.69C201.002 959.114 197.476 973.763 192.961 988.053C192.107 990.752 191.792 990.618 189.743 991.599C187.818 990.807 187.166 990.734 185.903 989.186C185.884 984.208 192.963 959.674 194.704 953.257C200.368 931.612 206.216 910.01 212.245 888.463L234.589 807.135C237.187 797.836 242.553 776.52 245.907 768.367C247.526 766.679 249.152 766.539 251.472 765.954Z" fill="#949493"/>
<path d="M367.924 758.373C369.759 758.111 379.885 761.347 382.703 762.084C383.628 766.094 384.173 767.825 386.118 771.487C382.553 783.291 383.379 791.901 386.171 803.626C381.006 812.48 377.867 822.461 374.982 832.236L374.513 833.241C371.833 834.411 362.374 835.551 358.966 836.044C358.798 810.213 358.784 784.381 358.924 758.556C362.027 758.727 364.821 758.532 367.924 758.373Z" fill="#C0C0BF"/>
<path d="M342.382 438.632C344.054 440.896 342.905 459.637 342.096 462.919C339.903 471.812 336.887 480.918 334.241 489.718L315.541 550.73C309.253 571.88 303.006 593.091 296.922 614.293C291.696 632.501 286.812 651.525 280.06 669.234C278.601 670.075 275.976 669.667 274.156 669.569L273.478 668.381C273.608 661.556 285.638 625.743 287.97 617.882C305.715 558.022 323.108 498.009 342.382 438.632Z" fill="#949493"/>
<path d="M487.949 721.975C490.736 724.876 485.935 754.662 483.828 759.421C481.671 764.29 477.308 767.544 472.416 769.238C449.33 777.246 415.683 778.751 393.051 769.05C391.147 767.977 389.108 766.563 388.633 764.363C390.993 762.529 416.409 766.947 422.992 765.186C427.487 763.986 430.079 763.309 435.063 761.445C456.075 753.565 474.416 739.879 487.949 721.975Z" fill="#FBFBFA"/>
<path d="M378.354 728.246C383.909 727.801 392.574 728.179 398.392 728.136C407.651 728.063 417.935 727.709 427.101 728.246C434.752 737.094 436.77 750.256 427.94 759.019C413.617 763.096 388.962 758.221 374.765 754.431C379.286 744.211 379.42 739.16 378.354 728.246Z" fill="#FBFBFA"/>
<path d="M467.319 985.42C476.634 984.732 480.712 986.341 488.988 990.332C493.646 992.574 495.038 992.654 499.891 991.362C501.395 997.833 501.748 1001.03 501.872 1007.44C494.486 1014.27 484.148 1016.2 474.551 1018.13C465.253 1020.11 432.084 1023.65 442.776 1004.7C448.257 994.988 456.725 988.62 467.319 985.42Z" fill="#FBFBFA"/>
<path d="M244.658 695.285C246.222 696.199 246.118 697.204 246.909 699.27C249.341 705.632 251.403 708.386 255.68 713.365L252.525 725.467C242.143 727.569 238.86 729.842 231.216 736.485C223.613 735.772 214.046 736.935 206.093 735.839L205.447 734.894C205.719 717.789 203.929 711.969 198.862 695.882C205.807 698.642 213.709 701.909 220.728 704.328C228.752 707.1 237.434 699.63 244.658 695.285Z" fill="#FBFBFA"/>
<path d="M463.052 692.317C474.356 691.781 487.351 702.481 485.813 713.663C484.424 723.755 463.548 739.86 455.347 746.015C454.238 746.887 453.489 747.307 452.293 748.008C448.728 744.376 455.515 731.616 434.723 722.956C440.552 715.699 455.181 696.412 463.052 692.317Z" fill="#FBFBFA"/>
<path d="M378.349 972.063C397.462 971.179 395.971 984.659 414.834 980.423C415.512 985.396 416.863 989.442 413.643 993.848C409.661 999.296 394.224 1001.01 387.557 1002.24C379.932 1003.57 342.737 1008.06 352.356 990.35C356.907 981.971 369.203 974.799 378.349 972.063Z" fill="#FBFBFA"/>
<path d="M72.3371 694.188C80.0232 693.81 83.5505 693.268 90.2662 697.357C87.8537 705.571 85.6686 713.859 83.7138 722.195C82.7307 726.564 77.9825 754.997 76.6714 756.478L74.4814 756.368C66.7325 756.088 61.9081 755.211 54.6055 752.925C56.0701 739.617 61.757 701.519 72.3371 694.188Z" fill="#777777"/>
<path d="M347.569 405.663C350.091 405.513 351.018 405.382 353.564 405.927L354.088 406.789C354.731 415.184 354.272 427.615 354.211 436.434L354.11 483.175C354.45 527.713 354.483 572.254 354.21 616.791C354.188 618.583 354.442 620.533 353.47 621.898C351.15 621.715 350.031 622.05 348.484 620.813C346.926 614.683 347.949 575.962 347.945 566.9L347.679 469.369C347.68 448.592 348.155 426.302 347.569 405.663Z" fill="#C0C0BF"/>
<path d="M348.12 756.911L353.179 757.581C354.506 759.354 354.103 763.833 354.118 766.49C354.359 807.282 354.06 848.14 354.153 888.92L354.147 940.692C354.134 948.718 354.165 956.877 354.126 964.903C354.116 966.889 353.97 966.907 352.867 968.041C351.045 967.913 349.598 968.047 348.178 967.011C347.457 964.89 347.906 936.817 347.885 933.02C347.635 898.121 347.641 863.228 347.904 828.33C347.69 804.521 347.762 780.719 348.12 756.911Z" fill="#C0C0BF"/>
<path d="M159.041 563.225C159.402 563.184 159.763 563.147 160.125 563.114C161.34 563.003 165.359 562.623 166.284 562.804C184.585 566.368 166.75 589.074 161.223 594.579C161.061 588.901 160.463 584.903 159.148 579.444C154.344 591.704 149.8 596.377 139.255 603.437C131.916 608.889 128.104 610.801 119.05 612.458C123.813 592.725 136.695 566.252 159.041 563.225Z" fill="#5C5C5C"/>
<path d="M145.094 542.23C144.856 525.653 144.977 506.799 153.444 491.788C155.015 489.002 156.808 486.819 160.172 486.537C173.283 489.761 173.8 537.106 169.449 546.015C168.052 546.606 167.741 546.145 165.85 545.645C161.106 544.138 157.697 543.756 152.812 543.088L145.094 542.23Z" fill="#FBFBFA"/>
<path d="M152.812 543.088C153.059 534.766 152.858 509.126 162.027 506.722C170.034 509.762 167.286 538.845 165.85 545.645C161.106 544.138 157.697 543.756 152.812 543.088Z" fill="#E1E0E0"/>
<path d="M629.784 591.691L630.412 591.828C629.802 594.132 625.481 601.63 624.116 604.123L629.126 609.515C627.029 611.276 625.073 613.098 623.055 614.951C624.853 630.746 630.522 647.534 631.808 661.02C626.621 655.724 622.951 652.458 617.057 648.089C617.332 638.387 617.252 628.68 616.832 618.979C616.631 617.918 616.539 618.01 615.985 617.017L615.022 617.608C611.718 624.579 612.529 638.607 612.602 646.797C604.117 644.292 597.458 635.578 591.156 628.93C592.509 626.888 593.933 625.091 595.426 623.171C606.782 608.582 612.34 599.551 629.784 591.691Z" fill="#FBFBFA"/>
<path d="M66.4649 964.299C72.8319 967.352 86.6047 974.525 92.6762 971.935C103.642 967.255 129.624 986.316 114.066 992.696C99.3974 996.389 84.4397 993.726 70.1769 989.527C55.9965 985.353 62.1159 973.72 66.4649 964.299Z" fill="#FBFBFA"/>
<path d="M728.466 949.504C730.856 949.851 732.678 964.561 728.625 968.193C722.377 969.851 724.169 964.19 716.514 970.558C708.578 977.157 690.109 977.486 679.997 975.981C678.382 975.634 677.919 975.268 676.45 974.452C671.805 966.737 690.524 956.463 695.631 951.393L696.168 950.857C710.534 952.752 714.472 952.855 728.466 949.504Z" fill="#5C5C5C"/>
<path d="M632.984 941.338C635.197 941.326 638.83 942.313 641.109 942.813C650.88 944.964 657.085 945.531 666.868 943.069C667.77 953.056 669.891 958.26 658.852 961.429C651.221 957.42 649.021 961.447 641.444 964.336C634.776 965.152 607.753 968.979 605.109 961.131C605.963 957.212 611.779 953.983 615.143 952.27C621.635 948.967 627.054 945.585 632.984 941.338Z" fill="#5C5C5C"/>
<path d="M603.757 649.21C614.37 649.819 627.158 659.783 631.644 668.966C631.497 690.27 625.451 689.465 608.239 680.873C604.809 681.69 602.085 682.439 598.897 684.34C598.162 684.151 597.52 683.987 596.971 683.847L596.377 682.238C598.178 679.453 604.374 676.553 607.556 673.774L607.088 672.915C602.474 672.811 600.993 673.981 597.017 676.193C595.83 677.613 595.689 678.039 593.998 678.448L593.136 677.826C592.705 669.91 600.402 668.265 606.381 665.962C606.949 664.322 606.924 665.127 606.474 663.469L605.647 663.146C600.672 663.597 595.3 668.076 590.504 670.41C585.56 660.892 604.153 660.148 605.683 655.876L604.644 654.847C598.847 653.817 591.474 660.508 588.967 661.007C583.756 654.176 598.955 649.685 603.757 649.21Z" fill="#FBFBFA"/>
<path d="M50.4364 774.711C59.9117 776.88 63.646 777.441 73.4228 777.983C72.4927 789.323 70.4953 800.786 70.6099 812.175C70.6415 815.295 72.1422 819.628 72.4457 823.034C48.1083 819.664 45.7149 811.267 48.0637 787.763C48.4335 784.065 48.9301 778.032 50.4364 774.711Z" fill="#777777"/>
<path d="M328.309 657.266C334.452 661.72 331.527 663.652 342.94 664.993C343.276 679.459 342.594 693.499 343.125 708.222L337.038 709.879C334.577 710.233 330.633 710.592 328.249 709.922C325.563 709.148 323.307 707.32 321.994 704.858C316.924 695.315 325.221 667.698 328.309 657.266Z" fill="#FBFBFA"/>
<path d="M252.884 730.842C259.063 730.714 267.41 733.182 268.013 740.531C268.145 742.146 268.407 741.42 267.415 742.718C263.974 742.572 261.753 740.08 257.862 739.276C259.468 743.882 269.811 748.91 263.738 754.693C260.754 752.005 258.826 750.061 255.138 748.313L254.442 747.99C256.107 751.28 259.352 755.686 261.464 759.348C261.453 761.627 261.212 763.986 259.082 765.131C247.857 754.802 242.052 769.05 234.021 764.168C233.061 760.793 233.001 746.777 232.574 741.902C240.068 735.857 243.357 732.128 252.884 730.842Z" fill="#FBFBFA"/>
<path d="M686.007 576.817C692.157 584.04 692.09 593.036 693.217 602.451C690.529 603.799 685.653 605.697 684.001 607.853C683.422 611.532 687.841 614.287 690.67 616.425C685.281 630.027 678.26 645.304 671.299 658.253C669.909 660.831 668.288 660.514 665.575 660.288C663.534 657.223 670.891 636.218 671.64 631.044C670.884 630.715 670.939 630.636 670.293 630.063C669.44 626.797 672.555 620.978 674.036 617.858L675.048 617.87C678.144 609.203 684.836 585.715 686.007 576.817Z" fill="#FBFBFA"/>
<path d="M671.641 631.044C670.885 630.715 670.94 630.636 670.293 630.063C669.44 626.797 672.555 620.977 674.036 617.857L675.048 617.87C673.969 622.318 672.945 626.645 671.641 631.044Z" fill="#262626"/>
<path d="M413.083 900.211C421.794 901.26 430.494 902.399 439.181 903.636C440.464 915.604 441.896 925.519 443.97 937.456C436.417 936.146 427.484 935.098 419.763 933.94C418.759 923.819 416.234 909.791 413.083 900.211Z" fill="#949493"/>
<path d="M621.507 690.94C633.813 692.28 625.432 699.825 641.938 701.025C640.67 721.988 641.432 742.31 636.952 762.864C636.562 764.327 636.507 765.162 635.441 766.234C634.471 765.204 634.124 763.852 633.911 762.468C630.156 738.562 626.145 714.699 621.507 690.94Z" fill="#FBFBFA"/>
<path d="M379.653 680.647C380.346 680.66 380.445 680.794 381.133 681.044L385.837 694.511C383.615 702.073 382.237 707.826 381.359 715.68C376.295 717.204 372.084 718.362 366.79 718.447C364.704 717.984 362.343 717.198 360.273 716.576C360.66 705.608 360.256 700.854 358.843 689.867L379.653 680.647Z" fill="#FBFBFA"/>
<path d="M187.503 676.851C189.853 677.783 192.009 677.972 194.506 678.35C194.986 685.681 178 697.862 179.49 701.695C181.658 701.659 183.859 699.459 185.751 697.996C191.645 709.361 195.175 719.19 197.383 731.719C197.559 732.962 197.578 733.34 197.566 734.602C194.732 736.747 185.052 735.089 180.977 734.748C178.614 720.86 177.829 713.468 172.318 700.726C176.875 693.128 182.577 685.041 187.503 676.851Z" fill="#FBFBFA"/>
<path d="M355.187 720.714C360.189 720.738 366.626 723.931 370.945 726.18C371.48 727.021 371.988 727.874 372.468 728.745C375.961 735.162 374.888 749.732 367.546 753.614C359.976 753.955 355.63 754.272 348.826 750.963C345.624 740.013 346.909 729.032 355.187 720.714Z" fill="#FBFBFA"/>
<path d="M213.665 957.925C219.419 957.523 238.754 966.353 239.678 973.19C240.532 979.509 230.163 980.259 225.705 980.887C216.98 981.788 208.177 981.587 199.502 980.283C201.525 974.196 203.247 967.115 205.147 960.802C207.896 959.955 210.913 958.858 213.665 957.925Z" fill="#FBFBFA"/>
<path d="M432.618 844.661C433.768 845.995 432.988 852.674 432.975 854.978C432.883 871.358 433.969 882.546 437.597 898.463C431.74 898.103 423.653 896.878 417.667 896.147C415.361 895.611 411.936 895.215 409.504 894.861L409.706 894.617C420.453 881.351 423.795 862.229 428.099 846.434C429.645 844.77 430.036 845.154 432.618 844.661Z" fill="#777777"/>
<path d="M480.38 770.281L480.967 770.646C482.068 772.712 481.984 771.914 481.893 774.077C476.854 780.987 454.285 786.465 445.522 787.093C429.327 788.251 407.071 787.983 392.593 779.902C391.043 778.562 390.133 777.002 389.731 775.015C390.101 774.315 390.739 773.614 391.474 773.699C398.62 774.522 408.259 778.215 415.18 779.007C435.129 781.274 462.218 779.202 480.38 770.281Z" fill="#949493"/>
<path d="M454.591 889.846C464.012 890.742 469.962 895.781 477.836 900.924C471.354 906.921 471.054 911.625 465.213 916.153C463.764 916.981 462.217 917.627 460.608 918.066C443.855 922.819 436.24 894.16 454.591 889.846Z" fill="#949493"/>
<path d="M378.561 882.448C390.129 881.449 394.214 889.901 404.396 895.83C400.772 899.328 397.155 903.045 393.597 906.628C378.919 917.579 368.784 904.258 372.229 889.578C373.189 885.483 375.123 884.362 378.561 882.448Z" fill="#949493"/>
<path d="M500.894 588.011C514.005 586.94 511.099 619.777 499.263 625.944C484.867 620.612 490.331 595.377 500.894 588.011Z" fill="#E1E0E0"/>
<path d="M364.964 276.774C367.192 278.868 392.394 336.022 393.936 340.538C392.128 343.223 391.564 343.673 389.113 345.802C379.298 323.5 368.855 302.86 359.585 279.685L364.964 276.774Z" fill="#949493"/>
<path d="M371.976 838.628L372.64 838.762C373.175 840.413 371.694 846.428 371.25 848.573C368.488 861.949 366.979 874.648 366.733 888.31L360.387 887.555L359.571 887.396C358.018 885.105 358.476 846.922 358.675 841.2C364.024 840.584 366.813 839.956 371.976 838.628Z" fill="#5C5C5C"/>
<path d="M386.169 355.155L386.84 356.185C385.747 367.336 382.188 379.181 379.147 389.968C373.571 410.414 367.006 430.578 359.477 450.388L359.391 450.38L358.886 449.746C358.812 446.332 358.464 436.693 359.129 433.812C362.044 421.196 367.373 408.025 371.695 395.762C376.022 383.483 380.871 366.517 386.169 355.155Z" fill="#E1E0E0"/>
<path d="M123.426 764.881C124.731 765.661 128.756 768.934 130.166 770.025C118.751 785.88 105.406 794.406 86.703 799.195C84.6361 799.78 84.4368 799.896 82.3357 799.786C80.5809 798.781 80.509 798.757 79.4819 797.069C79.8739 792.943 83.1817 791.749 86.7792 790.835C102.819 786.758 112.302 777.063 123.426 764.881Z" fill="#777777"/>
<path d="M638.519 587.862C639.329 590.803 637.111 603.476 637.373 608.259C637.933 618.54 638.354 628.869 639.043 639.155C639.25 642.269 640.603 656.772 640.14 658.966C638.299 659.198 638.189 659.271 636.538 658.564C635.069 656.742 634.605 653.348 634.069 650.922C631.253 639.131 628.608 628.345 627.59 616.249C631.247 613.677 633.015 612.318 635.605 608.707L629.223 603.447C631.692 598.366 634.569 591.783 638.519 587.862Z" fill="#FBFBFA"/>
<path d="M375.471 346.674L382.633 349.198C381.38 354.667 378.467 361.345 376.686 366.893C371.643 382.599 365.837 398.078 360.272 413.617L358.408 418.579C358.366 414.117 358.115 403.983 358.803 400.096C361.978 382.173 370.434 364.255 375.471 346.674Z" fill="#949493"/>
<path d="M489.277 910.936C495.858 911.546 502.418 912.374 508.946 913.417C508.983 924.483 508.88 935.549 508.638 946.609L500.287 946.262C496.317 934.105 493.919 923.745 489.277 910.936Z" fill="#949493"/>
<path d="M653.178 616.084C655.037 616.096 655.354 616.127 657.134 616.669C658.865 619.375 660.206 654.95 660.004 660.063L651.642 659.904L645.303 659.673C645.534 651.117 650.301 624.049 653.178 616.084Z" fill="#949493"/>
<path d="M622.08 854.874C623.573 856.531 624.957 876.811 625.542 880.87C616.338 879.98 607.228 878.274 598.324 875.782C595.496 874.91 592.137 873.417 589.344 872.265C606.281 866.111 607.708 865.063 622.08 854.874Z" fill="#C0C0BF"/>
<path d="M478.021 676.516C484.582 675.907 490.531 682.006 492.43 687.814C495.207 696.302 494.162 701.61 490.639 709.404C489.579 706.753 488.596 704.706 487.328 702.146C481.009 691.561 474.615 688.009 462.483 687.759L462.733 687.369C467.215 680.587 470.304 678.125 478.021 676.516Z" fill="#949493"/>
<path d="M679.089 874.593L679.735 874.666C682.057 877.293 685.288 907.445 685.897 912.789L678.516 914.769L673.036 915.708C672.939 902.49 672.713 889.267 672.354 876.05L679.089 874.593Z" fill="#949493"/>
<path d="M91.5494 704.913L93.3061 707.381C94.1149 709.428 93.1543 711.549 92.5466 713.737C86.0521 737.149 87.1755 762.334 83.547 786.179C80.1824 787.989 78.5513 788.848 76.2577 792.035L75.2666 790.408C76.1474 782.297 78.1838 775.271 79.3583 767.502C81.758 751.634 84.5393 736.034 87.4741 720.263C88.3811 715.382 90.3602 710.397 91.4403 705.431L91.5494 704.913Z" fill="#777777"/>
<path d="M50.3181 756.009C59.3656 758.715 66.7625 759.927 76.1035 761.061C75.6402 765.363 75.23 769.665 74.8735 773.979C69.0373 774.15 51.7651 773.608 48.4483 767.989C47.6824 763.925 49.1299 759.903 50.3181 756.009Z" fill="#5C5C5C"/>
<path d="M645.565 702L655.878 703.231C656.366 713.487 656.884 721.409 658.212 731.628L655.049 734.967C652.507 736.893 653.44 736.759 651.026 736.649C648.722 735.619 646.54 732.207 644.937 730.074C644.705 722.182 645.4 710.385 645.565 702Z" fill="#949493"/>
<path d="M203.433 623.232C209.89 639.838 220.482 643.281 210.365 664.603C210.596 661.531 210.572 658.533 210.585 655.462C208.876 657.93 205.74 664.444 203.949 667.558C201.9 670.69 198.116 675.206 193.829 674.28C192.583 672.537 193.099 672.64 194.598 670.562C199.697 663.512 202.312 657.01 204.057 648.448C205.772 640.033 203.275 631.477 203.433 623.232Z" fill="#5C5C5C"/>
<path d="M226.942 880.937C231.431 892.521 221.533 927.944 217.085 939.967C216.218 942.307 213.209 942.831 211.051 943.447L210.525 942.819C210.358 938.188 224.852 887.037 226.942 880.937Z" fill="#FBFBFA"/>
<path d="M349.168 625.962C353.445 626.316 355.262 627.626 356.528 631.861C358.376 638.052 359.361 649.411 356.485 655.23C354.268 656.681 353.776 656.23 350.729 656.413C348.957 657.028 348.754 657.113 346.906 657.241C346.496 656.413 346.766 649.862 346.869 648.698C347.234 644.536 342.715 630.301 343.145 628.296C344.882 626.754 346.915 626.492 349.168 625.962Z" fill="#FBFBFA"/>
<path d="M264.782 669.015C265.85 669.039 266.675 669.295 267.706 669.545C271.683 672.518 274.191 683.347 267.43 684.383C264.924 683.445 263.089 680.757 261.066 678.637L260.249 679.002C259.288 683.365 260.406 685.267 262.046 689.416C259.843 693.749 259.529 695.693 258.837 700.495C258.265 702.981 257.791 705.827 257.313 708.362C253.712 703.255 252.196 700.641 249.911 694.895C253.675 684.822 254.033 673.865 264.782 669.015Z" fill="#FBFBFA"/>
<path d="M350.043 661.08C351.501 661.056 352.769 660.831 353.977 661.544C354.523 666.217 354.47 711.342 353.674 715.156L352.31 715.985C350.54 715.705 349.044 715.729 347.842 714.535C347.263 709.885 347.798 702.213 347.785 697.119C347.76 686.863 347.716 676.449 348.018 666.199C348.115 662.921 348.108 662.842 350.043 661.08Z" fill="#C0C0BF"/>
<path d="M606.32 883.271L613.699 884.715C614.827 889.224 620.447 924.72 619.764 928.322C617.881 928.773 614.997 929.644 613.297 928.834C612.23 925.123 611.334 917.487 610.743 913.392C609.345 903.338 607.87 893.301 606.32 883.271Z" fill="#949493"/>
<path d="M399.787 277.182C401.941 277.861 403.794 278.746 405.85 279.665C401.621 294.714 396.536 305.701 391.27 320.085L391.069 320.67L390.346 320.566C388.671 317.526 388.233 316.274 387.129 312.95C388.469 306.969 397.015 282.135 399.787 277.182Z" fill="#949493"/>
<path d="M496.707 582.051C497.916 582.257 498.066 582.397 499.183 582.859C498.637 585.099 493.912 587.125 493.095 588.691C486.636 601.053 482.932 618.741 494.682 628.79L495.085 629.125L494.299 629.698C473.233 627.882 478.672 585.881 496.707 582.051Z" fill="#949493"/>
<path d="M358.484 892.137L366.992 893.228C366.929 904.977 367.454 914.154 368.61 925.854C365.19 925.744 362.049 925.312 358.67 924.891C358.484 914.13 358.595 902.966 358.484 892.137Z" fill="#949493"/>
<path d="M338.149 630.496C342.661 634.238 345.006 652.957 341.516 658.101C339.168 659.508 340.155 659.112 336.9 659.063C327.316 651.727 329.144 637.607 338.149 630.496Z" fill="#FBFBFA"/>
<path d="M156.104 871.711C160.564 874.185 175.819 891.138 178.142 896.11C173.486 895.982 162.367 894.215 157.232 893.569C156.474 888.731 156.348 877.14 156.104 871.711Z" fill="#949493"/>
<path d="M681.149 578.139C682.185 582.064 678.418 593.798 676.821 597.564C674.645 602.68 672.439 604.582 668.251 608.053L665.71 604.293L660.382 596.05C668.989 590.304 674.67 586.523 681.149 578.139Z" fill="#FBFBFA"/>
<path d="M81.9024 844.996C83.2013 850.084 83.325 864.66 83.4591 870.571C78.1721 871.29 72.3951 871.778 67.052 872.333C66.312 872.387 66.7027 872.467 65.9536 871.857C66.8265 868.628 79.3412 848.896 81.9024 844.996Z" fill="#FBFBFA"/>
<path d="M568.426 598.466C577.813 600.666 591.06 615.359 587.062 623.915C585.357 623.659 585.123 622.702 583.761 621.032C578.077 613.769 568.731 608.672 561.009 601.209C563.577 600.076 565.772 599.354 568.426 598.466Z" fill="#FBFBFA"/>
<path d="M671.957 347.381C674.292 348.243 675.956 349.202 678.132 350.385C673.554 361.431 668.788 371.626 663.698 382.458C661.589 381.922 659.322 381.66 658.438 379.605C660.602 372.432 668.648 355.116 671.957 347.381Z" fill="#949493"/>
<path d="M344.075 719.824C345.535 719.678 348.282 719.337 349.314 720.239C346.992 726.253 342.94 731.914 343.14 740.074C343.216 743.218 344.25 747.216 343.971 750.281L342.602 750.39C339.311 747.77 338.936 747.331 337.779 743.297C336.133 737.557 334.018 729.361 337.218 723.797C338.805 721.037 341.286 720.421 344.075 719.824Z" fill="#FBFBFA"/>
<path d="M112.481 691.866C117.546 692.232 132.722 696.595 137.338 699.032C145.04 703.097 147.52 710.044 149.799 717.722C146.173 714.425 143.868 711.799 139.86 708.539C126.58 696.912 115.651 690.976 99.6729 701.512C103.176 696.241 106.242 693.658 112.481 691.866Z" fill="#5C5C5C"/>
<path d="M619.349 885.983C621.903 885.916 622.866 885.806 625.408 886.488C626.907 888.859 628.602 918.968 629.083 924.519L625.347 924.282C622.976 922.399 619.922 890.791 619.349 885.983Z" fill="#949493"/>
<path d="M433.362 726.942C443.484 729.111 453.077 746.064 443.127 753.084L435.944 755.85C439.976 738.764 435.691 740.872 433.362 726.942Z" fill="#949493"/>
<path d="M673.304 609.292C673.372 611.38 664.887 640.441 663.528 645.231C663.04 644.225 662.912 642.147 662.766 640.935C662.711 633.025 661.62 623.604 661.083 615.481L664.283 608.967L667.532 614.695C669.544 613.074 671.452 611.106 673.304 609.292Z" fill="#FBFBFA"/>
<path d="M95.5125 683.243C99.0593 685.181 102.57 687.186 106.041 689.258C100.597 693.383 98.5814 694.566 94.9334 700.434L94.2142 696.577C90.2352 691.372 84.0303 690.337 77.7437 689.337C83.3994 686.595 89.3654 684.554 95.5125 683.243Z" fill="#777777"/>
<path d="M280.04 626.882C280.797 630.1 271.336 659.49 269.635 664.749C266.061 664.743 264.073 664.865 260.519 665.285C260.474 663.963 278.016 631.416 280.04 626.882Z" fill="#C0C0BF"/>
<path d="M453.854 667.266L454.307 667.613C450.072 675.681 433.357 681.165 424.953 677.93C421.367 676.546 420.271 675.791 417.425 673.25C416.756 672.116 415.62 669.953 416.13 668.765C428.629 675.236 441.953 675.175 453.854 667.266Z" fill="#949493"/>
<path d="M262.794 704.243C264.449 704.943 267.696 705.906 269.516 706.509C267.529 713.511 265.729 720.885 263.897 727.947C261.481 727.624 259.875 727.582 257.733 726.345C256.727 723.724 261.739 708.35 262.794 704.243Z" fill="#949493"/>
<path d="M464.392 801.529C473.295 801.304 476.189 803.51 480.862 810.828C470.269 806.13 463.376 804.716 452.588 810.28C446.578 814.198 444.948 816.301 440.393 821.681C441.619 819.329 442.96 817.032 444.411 814.808C449.687 806.666 455.121 803.485 464.392 801.529Z" fill="#949493"/>
<path d="M673.207 832.266C674.267 836.702 679.948 867.336 678.833 869.383L672.311 871.126C672.268 858.609 671.884 844.618 673.207 832.266Z" fill="#FBFBFA"/>
<path d="M177.84 566.43C189.351 569.438 196.442 582.468 196.903 593.754C194.945 592.408 191.477 584.597 189.485 582.194C183.997 575.575 178.379 575.843 177.84 566.43Z" fill="#5C5C5C"/>
<path d="M180.792 957.273L188.218 959.735C186.647 965.701 185.232 971.843 183.699 977.858L182.97 978.144C175.297 975.518 179.308 963.203 180.792 957.273Z" fill="#FBFBFA"/>
<path d="M654.251 598.288C655.823 598.234 655.921 598.344 657.384 598.786C659.675 600.431 660.523 602.893 661.742 605.473C660.12 609.231 659.907 610.112 657.268 613.257C647.893 611.648 647.753 603.78 654.251 598.288Z" fill="#949493"/>
<path d="M646.516 608.663C646.497 608.635 649.057 614.628 649.295 615.158C647.156 623.269 645.735 632.611 644.017 640.947L643.925 641.002C642.895 638.192 641.694 615.524 642.371 612.373C644.742 611.252 645.199 610.941 646.516 608.663Z" fill="#FBFBFA"/>
<path d="M264.283 694.553C268.783 694.688 278.626 694.992 280.801 699.3C280.952 701.543 280.111 702.311 278.824 704.218C277.821 705.065 276.865 705.644 275.771 706.351L274.694 706.083C273.622 699.562 268.38 703.402 264.667 699.556C263.661 697.613 264 696.747 264.283 694.553Z" fill="#FBFBFA"/>
<path d="M139.523 675.663C140.753 675.961 145.522 678.295 146.847 678.917C154.887 682.658 158.883 683.298 167.373 683.7C167.798 687.21 168.602 691.366 169.19 694.907C166.584 693.438 162.459 690.318 159.554 688.502C152.95 684.371 145.079 680.983 139.523 675.663Z" fill="#E1E0E0"/>
<path d="M75.2664 790.408L76.2575 792.035C75.9417 798.757 75.5041 800.536 80.6003 805.252C79.5757 811.237 79.8573 817.739 80.081 823.79C71.0649 816.288 74.4222 801.17 75.2664 790.408Z" fill="#5C5C5C"/>
<path d="M349.68 377.555C351.202 377.659 351.315 377.705 352.793 378.14C354.662 380.695 355.898 393.581 353.49 395.526C351.189 395.57 350.42 395.591 348.172 395.168C346.404 392.722 347.381 380.149 349.68 377.555Z" fill="#C0C0BF"/>
<path d="M275.973 683.78C279.162 684.554 282.347 685.346 285.527 686.156C285.016 688.929 284.02 691.89 283.183 694.614C281.251 693.853 279.314 693.103 277.372 692.372C273.102 691.281 267.114 690.306 262.7 689.483C269.556 687.85 271.204 689.24 275.973 683.78Z" fill="#FBFBFA"/>
<path d="M342.566 712.597L343.358 714.236C342.521 716.357 336.9 717.905 334.982 719.836C333.584 721.244 332.47 722.865 331.327 724.462L327.13 720.549C325.883 718.855 323.682 716.156 323.778 714.139C326.134 713.06 331.825 714.504 334.91 714.12C337.747 713.767 339.782 713.28 342.566 712.597Z" fill="#949493"/>
<path d="M123.691 616.182C124.323 616.237 124.534 616.401 125.152 616.645C126.624 622.16 122.302 630.959 119.057 635.34L118.342 635.596L117.697 635.03C117.616 630.356 116.957 622.544 119.113 618.351C119.969 616.687 121.864 616.627 123.691 616.182Z" fill="#4B4A4B"/>
<path d="M449.776 663.804C450.047 663.92 450.318 664.042 450.589 664.158C443.769 669.782 429.496 670.239 421.46 666.863C420.063 665.888 420.115 665.943 419.159 664.536C431.174 665.498 437.692 666.047 449.776 663.804Z" fill="#949493"/>
<path d="M342.878 475.457C343.634 491.361 342.262 490.909 337.048 505.683C336.75 504.952 336.64 504.951 336.127 504.315L333.884 505.01C336.743 496.332 341.142 484.153 342.878 475.457Z" fill="#FBFBFA"/>
<path d="M635.727 664.517C640.713 667.796 639.08 685.76 635.953 690.215C632.381 689.075 631.643 688.941 633.35 685.364C636.422 678.923 636.075 671.489 635.727 664.517Z" fill="#E1E0E0"/>
<path d="M647.662 594.066C648.966 595.5 648.881 594.977 649.076 596.585C647.723 599.575 646.126 604.322 643.249 605.422C641.737 602.58 641.694 591.554 643.858 589.419L644.87 590.43C645.51 591.729 646.156 593.61 647.662 594.066Z" fill="#E1E0E0"/>
<path d="M275.695 673.853C276.855 673.829 278.014 673.871 279.169 673.969C285.156 674.493 286.393 676.644 285.655 682.165C282.246 681.19 279.048 681.616 276.458 679.983C275.078 677.497 275.612 677.15 275.695 673.853Z" fill="#FBFBFA"/>
<path d="M189.188 693.786C190.571 693.865 191.565 693.914 192.523 695.065C196.29 699.611 200.671 717.46 200.425 722.859C199.281 721.683 195.823 708.624 194.42 705.315C192.772 701.433 191.154 697.759 189.188 693.786Z" fill="#777777"/>
<path d="M393.308 674.407L393.85 674.633L394.148 675.443C392.957 678.082 389.181 687.241 387.828 688.789C386.804 685.943 385.825 682.695 384.875 679.788C388.178 677.217 389.587 676.4 393.308 674.407Z" fill="#949493"/>
<path d="M611.688 492.051L613.273 493.227C613.791 495.292 610.091 505.984 609.823 512.071L609.434 511.99C605.021 507.851 609.102 496.55 611.688 492.051Z" fill="#5C5C5C"/>
<path d="M46.1735 882.107C44.381 879.139 41.0223 872.07 44.2189 869.365C47.3653 869.749 48.6452 873.106 50.05 875.654C48.6386 877.774 47.852 879.206 46.6716 881.443L46.1735 882.107Z" fill="#949493"/>
<path d="M333.884 505.01L336.127 504.315C336.64 504.951 336.75 504.952 337.048 505.683C336.12 508.451 328.289 528.015 326.888 530.486L326.733 530.013L327.433 529.692L326.901 529.142C329.289 521.116 331.617 513.072 333.884 505.01Z" fill="#E1E0E0"/>
<path d="M46.6714 881.443L47.0943 881.065C48.5544 879.742 48.8131 879.639 49.5818 877.914L50.7673 877.555C54.857 879.944 54.8026 887.329 50.7127 887.957C48.985 887.159 46.8097 883.874 46.1733 882.107L46.6714 881.443Z" fill="#949493"/>
<path d="M214.749 946.609C215.156 946.835 215.282 947.231 215.602 947.743C215.374 951.893 212.135 953.666 208.657 954.994C207.089 954.58 207.238 953.97 206.88 952.685C208.156 947.219 210.115 947.078 214.749 946.609Z" fill="#E1E0E0"/>
<path d="M360.599 630.405C365.932 634.122 366.331 639.978 364.593 645.663L363.182 646.267C361.476 644.877 361.132 634.061 360.599 630.405Z" fill="#E1E0E0"/>
<path d="M204.759 676.327C205.087 679.185 198.88 689.282 195.5 690.83C195.2 690.001 195.271 689.837 195.196 688.935C197.448 684.042 199.76 678.594 204.759 676.327Z" fill="#E1E0E0"/>
<path d="M94.2142 696.577L94.9334 700.434C93.8381 703.073 92.9768 704.547 93.306 707.381L91.5493 704.913C93.1457 701.348 93.6235 700.385 94.2142 696.577Z" fill="#5C5C5C"/>
<path d="M346.254 400.676C349.107 400.113 351.844 399.578 354.457 401.02C351.578 401.668 348.933 402.125 346.254 400.676Z" fill="#5C5C5C"/>
<path d="M111.118 970.29C120.28 969.918 130.326 968.431 139.687 968.053C150.983 967.602 162.24 967.407 173.54 967.042C172.898 975.884 173.521 979.205 182.052 983.202C181.287 987.443 180.162 990.533 182.906 994.317C186.176 998.827 191.167 997.772 194.85 994.457C196.982 992.538 197.849 988.437 198.592 985.695C207.683 986.682 242.161 990.551 245.799 975.798C245.933 975.25 245.913 973.111 245.917 972.453C245.93 972.611 245.934 972.764 245.954 972.916C246.52 977.309 254.966 981.173 251.161 985.981C247.986 989.991 239.912 991.977 235.176 993.104C219.172 996.913 201.942 997.912 185.58 999.54C172.939 1000.79 160.366 1002.58 147.658 1003.12C126.626 1004 61.3951 1003.69 47.2893 990.746C46.0037 989.57 44.778 988.022 44.8204 986.182C44.8564 984.622 45.9698 983.038 47.1106 982.05C49.3971 980.064 53.0806 978.937 55.9281 977.968C53.3364 998.881 96.65 1001.61 110.559 999.247C133.921 995.268 125.1 979.954 111.118 970.29Z" fill="#E1E0E0"/>
<path d="M272.576 1003.09C273.255 980.387 271.939 945.732 272.945 921.838C273.25 921.418 273.555 920.997 273.86 920.571C277.364 919.608 318.313 937.444 325.215 939.248C326.974 939.705 332.065 942.142 332.885 944.123C332.265 945.336 331.629 946.298 330.256 946.835C312.739 953.708 295.383 961.49 277.798 968.151C277.451 979.461 277.753 991.459 277.881 1002.83C277.937 1005.15 278.27 1006.9 277.074 1008.78C275.359 1009.97 276.255 1009.8 274.338 1009.5C272.277 1007.14 272.494 1006.71 272.576 1003.09Z" fill="#333334"/>
<path d="M277.501 926C293.182 931.777 309.606 938.37 325.318 943.715C319.943 946.225 315.314 948.188 309.793 950.357C300.856 953.562 286.258 959.607 277.652 963.44C277.274 951.478 277.535 938.078 277.501 926Z" fill="#E1E0E0"/>
<path d="M277.881 1002.83C283.018 1003.21 291.859 1003.35 295.323 1007.27C295.958 1009.62 296.027 1008.71 295.291 1010.8C290.13 1015.96 256.1 1016.4 256.737 1007.75C259.316 1004.57 263.716 1003.98 267.51 1003.58C269.197 1003.4 270.886 1003.24 272.576 1003.09C272.494 1006.71 272.277 1007.14 274.338 1009.5C276.254 1009.8 275.358 1009.97 277.074 1008.78C278.27 1006.9 277.937 1005.15 277.881 1002.83Z" fill="#E1E0E0"/>
<path d="M60.5762 676.284C62.1072 676.418 61.4971 676.114 62.5308 677.077C61.6726 679.319 54.7351 684.121 52.4508 687.058C44.0889 697.82 41.678 709.971 38.5704 722.792C37.0826 722.457 37.7236 722.816 36.6838 721.518C36.4997 719.184 36.9161 716.838 37.4772 714.571C41.0741 700.056 47.3175 684.45 60.5762 676.284Z" fill="#262626"/>
<path d="M50.6827 665.974C50.9102 666.096 51.578 666.778 51.798 666.991C51.3906 668.594 47.3957 671.891 46.008 673.341C35.9759 683.853 32.5646 696.808 28.5814 710.355C27.5727 709.77 27.8335 709.879 27.0283 708.953C26.1582 695.815 39.4878 673 50.6827 665.974Z" fill="#202020"/>
</g>
<defs>
<clipPath id="clip0_6_3">
<rect width="832" height="1248" fill="white"/>
</clipPath>
</defs>
</svg>
