<svg width="832" height="938" viewBox="0 0 832 938" fill="none" xmlns="http://www.w3.org/2000/svg">
<g clip-path="url(#clip0_6_322)">
<path d="M0 0H832V938H0V0Z" fill="none"/>
<path d="M143.445 134.746C135.019 101.838 139.21 63.462 155.989 33.859C161.497 24.142 175.752 9.737 186.509 17.914C208.496 34.627 204.547 84.923 200.217 106.592C217.422 104.279 228.416 104.393 245.142 109.237C252.168 81.7 268.045 51.005 291.923 34.401C299.022 29.465 310.388 29.955 314.597 38.317C321.647 52.321 319.31 72.637 315.313 87.231C310.25 105.15 301.637 121.87 289.986 136.398C326.781 179.198 325.466 232.934 308.911 284.285C313.502 284.074 340.826 280.436 339.188 287.592C338.147 292.143 334.891 301.102 333.326 306.058C329.71 317.875 326.181 329.718 322.741 341.587C330.123 344.362 330.993 345.44 334.66 352.036C337.439 357.033 337.387 369.385 338.563 371.079C345.193 371.71 356.287 356.428 361.32 351.314C372.987 339.46 386.56 329.82 400.806 321.357C403.255 319.898 412.908 317.639 416.169 316.513C397.35 311.589 377.136 296.459 367.707 279.452C365.147 274.835 362.906 269.791 360.252 265.239C357.86 261.093 353.034 256.989 350.817 252.914C345.178 242.542 345.879 227.125 348.692 216.194C351.423 205.578 355.253 202.914 361.739 195.971C363.793 193.774 367.296 180.877 369.661 177.882C390.803 137.049 438.876 118.631 482.57 130.972C507.092 137.781 525.615 152.86 538.637 174.491C542.094 180.232 547.853 198.635 549.573 200.684C562.128 215.64 563.335 229.581 559.001 248.711C557.489 255.384 552.879 263.43 546.712 267.474C545.738 268.156 541.311 271.82 540.725 272.701C529.629 289.383 519.728 299.825 501.734 309.53C499.714 310.617 497.626 311.571 495.483 312.387C504.72 314.513 513.04 316.812 521.989 319.866C527.649 321.797 533.417 321.771 538.877 325.094C544.41 328.226 546.381 334.195 549.645 339.28C551.729 342.527 555.592 346.368 557.07 349.869C569.228 378.658 559.338 419.257 533.817 437.417C534.205 441.725 534.619 445.716 534.605 450.061C539.77 445.394 560.209 428.057 562.007 423.925C576.043 391.642 572.846 345.571 592.847 316.044C596.69 310.371 619.002 297.425 625.475 293.386C608.978 287.095 598.886 276.8 591.883 260.852C581.689 236.764 585.888 208.479 583.077 183.026C582.219 175.256 575.975 168.609 575.861 159.937C575.735 150.247 578.274 143.346 584.062 135.6C580.964 128.523 579.469 121.637 582.185 114.106C586.337 102.6 597.65 107.807 607.212 107.408C616.295 107.028 624.11 104.462 632.923 102.24C659.328 94.927 695.125 97.012 708.297 125.202C737.201 136.888 733.373 172.32 725.047 196.515C736.238 216.774 726.528 240.955 703.445 245.926C700.349 254.375 696.777 258.885 697.478 267.452C702.781 271.712 709.376 279.516 714.24 282.59C729.929 292.513 764.629 303.273 773.937 320.781C789.028 349.18 793.594 392.363 798.366 424.053C802.791 453.419 800.012 479.835 769.707 493.047C772.248 511.425 775.436 541.608 775.448 560.09C780.404 561.126 786.511 561.796 790.193 565.154C792.923 570.029 792.46 585.245 791.009 590.498C789.668 595.33 774.485 599.657 769.664 601.448C768.39 663.507 770.091 726.236 769.609 788.362C769.542 797.076 769.42 806.259 769.688 814.95C774.077 816.73 784.548 820.35 787.066 823.69C787.919 828.89 772.468 831.89 769.591 835.75C767.994 847.53 752.128 846.85 744.509 842.6C729.374 850.87 720.213 854.25 704.231 860.91L668.19 876.26L622.269 895.65C606.141 902.66 589.058 910.46 572.759 916.86C569.38 927.27 549.006 927.61 543.83 918.35C542.402 918.01 536.576 917.34 534.581 917.01C527.574 915.8 520.587 914.48 513.624 913.04L391.66 888.61C375.874 885.57 360.013 882.49 344.332 878.96C337.102 877.34 329.709 875.5 322.302 875.06C311.784 880.63 295.413 889.68 284.805 894.34C264.322 885.43 239.946 876.15 218.945 868.37L218.3 868.5C212.084 869.81 139.78 852.82 128.011 849.67C121.329 847.91 114.751 845.78 108.31 843.28C107.185 848.03 104.249 851.05 99.5125 851.9C90.2307 853.57 81.9381 852.19 79.4122 842.25C79.2233 841.54 78.8259 837.06 78.615 836.95C72.4423 833.72 61.0613 832.58 56.2842 827.34C53.847 819.65 73.5895 814.52 78.9898 812.7C79.027 808.16 78.3419 776.278 79.5957 774.237L79.6292 657.383L79.7365 622.277C79.753 616.287 80.0017 607.158 79.358 601.32C75.0676 600.626 59.9692 598.932 57.9704 595.489C55.3474 590.973 54.0222 568.95 60.0244 566.092C65.6882 563.399 74.3093 561.571 80.4826 559.664C79.653 553.149 79.4378 539.481 80.3954 532.949C40.7442 529.451 27.2076 511.267 31.4489 472.602C32.1581 466.137 33.1988 458.794 33.8081 452.267C33.1885 440.829 29.4677 425.369 40.3576 416.424C40.8124 416.05 41.2734 415.685 41.7404 415.328C44.046 397.313 47.0143 379.388 50.6395 361.591C53.5942 346.313 54.9883 330.123 68.8632 320.315C82.6823 310.546 98.7415 306.525 115.507 306.448C79.1684 256.328 101.831 174.397 143.445 134.746Z" fill="#353434"/>
<path d="M452.356 666.182L462.541 668.004C463.298 684.476 469.319 748.612 480.413 758.844C462.078 771.196 438.855 801.299 473.587 808.49C495.97 813.12 535.583 804.303 533.582 775.26C537.03 775.979 539.796 775.851 543.283 775.839L543.289 870.94C543.332 884.09 542.674 906.43 543.831 918.35C542.403 918.01 536.576 917.34 534.582 917.01C527.574 915.8 520.587 914.48 513.625 913.04L391.66 888.61C375.874 885.57 360.013 882.49 344.332 878.96C337.103 877.34 329.709 875.5 322.302 875.06C311.784 880.63 295.414 889.68 284.806 894.34C264.322 885.43 239.946 876.15 218.945 868.37L218.3 868.5C212.085 869.81 139.78 852.82 128.012 849.67C121.329 847.91 114.751 845.78 108.311 843.28C108.378 835.77 108.071 827.43 107.964 819.82C121.241 826.81 133.409 833.4 149.037 835.55C160.845 837.18 187.502 839.38 190.211 822.49C191.164 816.55 186.526 809.49 182.838 805.004C187.396 806.424 195.859 807.99 200.821 808.98C218.483 812.48 237.036 816.7 255.06 813.75C260.219 812.9 266.407 811.45 269.578 806.893C271.38 804.297 271.729 799.123 271.057 796.168C268.2 783.603 250.233 777.113 240.181 770.373L243.212 769.849C255.108 767.923 275.382 759.112 287.78 757.948C287.645 763.597 287.053 768.831 291.207 773.268C296.247 778.673 306.984 777.728 312.14 773.03C315.722 769.764 314.585 758.899 314.507 754.273C328.606 754.785 343.808 758.015 358.123 758.253C361.525 758.307 365.076 759.477 368.276 759.514C363.47 765.267 361.965 768.441 360.583 775.797C361.993 780.629 363.712 784.687 368.748 786.857C385.501 794.084 406.454 790.72 423.267 786.077C447.592 779.367 452.47 769.154 444.396 744.408C452.153 726.925 451.882 686.487 452.356 666.182Z" fill="#E7E7E6"/>
<path d="M286.953 812.39C307.726 820.39 328.943 827.19 350.498 832.76C358.238 834.7 366.607 836.37 374.476 837.69C376.137 837.97 376.894 838.65 377.78 839.85C376.907 845.46 329.918 871.18 322.302 875.06C311.784 880.63 295.413 889.68 284.805 894.34C264.322 885.43 239.946 876.15 218.945 868.37C213.948 866.46 195.65 860.34 193.472 857.39C194.894 853.16 205.241 850.77 209.488 849.24C237.015 839.25 261.633 827.16 286.953 812.39Z" fill="#353434"/>
<path d="M287.172 818.37C292.192 819.14 297.984 822.41 303.01 823.91C324.712 830.39 346.652 838.13 369.018 841.76C341.464 858.18 314.341 874.34 285.455 888.43C282.912 888.65 213.138 860.35 203.711 856.72C231.686 847.53 261.877 833.45 287.172 818.37Z" fill="#FCFCFB"/>
<path d="M243.529 849.03C245.447 848.92 247.138 848.89 249.018 849.35C255.927 851.02 299.979 865.57 302.061 868.98L300.595 871.09C298.69 871.05 247.512 853.36 242.274 851.23L243.529 849.03Z" fill="#DCDCDB"/>
<path d="M228.903 855.16C231.806 855.1 234.384 855.45 237.187 856.19C244.468 858.09 286.876 873.01 290.332 876.07L289.381 877.35C287.991 877.57 286.687 877.66 285.293 877.39C278.55 876.06 232.093 859.38 228.368 856.68L228.903 855.16Z" fill="#DCDCDB"/>
<path d="M256.123 841.54C258.476 841.84 260.834 842.45 263.131 843.04C270.015 844.8 312.937 858.31 315.005 861.81L314.338 863.95C313.787 863.97 313.275 863.99 312.729 863.89C308.568 863.17 256.766 845.04 255.638 843.6L256.123 841.54Z" fill="#DCDCDB"/>
<path d="M283.312 828.75L283.677 828.79C294.092 829.93 311.168 836.97 322.092 840.35C328.604 842.37 335.688 843.75 341.958 846.38L342.261 847.34L340.783 848.63C339.304 848.9 337.872 849.06 336.379 848.81C331.528 848.01 284.339 833.53 282.358 830.79L283.312 828.75Z" fill="#DCDCDB"/>
<path d="M270.695 835.68C272.012 835.65 273.35 835.73 274.644 835.98C279.438 836.9 326.367 851.94 328.374 853.5C328.694 853.75 328.838 854.17 329.07 854.5L328.276 856.4C322.689 855.95 272.717 840.18 270.085 837.47L270.695 835.68Z" fill="#DCDCDB"/>
<path d="M449.7 842.33C451.849 842.11 453.667 842.36 455.742 842.88C468.81 846.21 481.716 851.05 494.657 854.92C500.595 856.69 511.495 858.68 516.413 861.22C517.837 861.95 518.339 862.38 518.798 863.87C517.11 866.72 472.848 888.35 467.928 890.26C463.402 889.18 399.234 867.67 398.031 866.53C397.384 865.92 397.573 865.18 397.531 864.33C404.485 860.5 412.363 858.26 419.676 855.19C429.714 850.98 439.473 846.08 449.7 842.33Z" fill="#353434"/>
<path d="M450.615 846.54C455.022 846.14 502.885 861.53 510.548 864.11C496.424 871.8 481.744 878.65 467.435 886.02C447.12 878.54 426.37 871.36 405.663 865.05C420.795 859.31 435.677 852.77 450.615 846.54Z" fill="#FCFCFB"/>
<path d="M671.104 778.07C675.511 772.506 674.072 750.471 674.054 742.366L673.688 680.094C673.597 673.714 671.859 644.653 675.041 640.509C675.888 640.674 677.089 640.686 677.181 641.314C681.551 671.752 683.891 709.685 686.659 739.63C687.957 753.719 689.115 779.471 692.553 787.131C684.513 796.058 660.114 819.54 674.084 831.8C680.905 837.8 696.478 837.36 705.237 836.53C720.207 835.28 729.965 827.3 741.815 819.25C741.674 826.21 740.114 837.67 744.509 842.6C729.374 850.87 720.213 854.25 704.231 860.91L668.19 876.26L622.269 895.65C606.141 902.66 589.058 910.46 572.759 916.86C573.494 902.88 572.95 883.63 572.964 869.23L573.151 773.633C574.246 775.285 573.833 780.19 573.802 782.494C578.068 782.707 590.331 784.462 594.001 786.186C585.734 791.994 574.285 800.653 581.189 812.17C583.827 816.56 591.272 818.11 595.763 818.7C615.052 821.2 633.203 817 651.44 811.02C656.353 809.41 663.826 809.99 668.257 806.083C675.517 799.794 672.463 786.132 671.104 778.07Z" fill="#E7E7E6"/>
<path d="M314.577 646.889C325.649 651.131 336.56 655.78 347.289 660.826C351.129 657.706 354.365 653.788 357.655 650.076C366.602 651.795 375.559 653.465 384.524 655.079C384.533 675.896 384.419 725.371 393.481 743.018C380.392 748.539 378.561 750.117 368.275 759.514C365.075 759.477 361.524 758.308 358.123 758.253C343.807 758.015 328.605 754.785 314.506 754.273C314.476 719.222 313.741 681.691 314.577 646.889Z" fill="#FCFCFB"/>
<path d="M255.157 632.35C264.83 634.671 277.6 636.219 288.103 638.462C287.19 650.369 287.719 668.668 287.719 681.094L287.78 757.948C275.382 759.112 255.107 767.923 243.211 769.849L240.181 770.373C238.549 769.313 236.497 767.753 234.878 766.589C237.005 764.493 238.531 762.622 239.281 759.715C242.871 745.773 244.254 729.71 245.94 715.371L255.157 632.35Z" fill="#FCFCFB"/>
<path d="M573.014 683.519C584.415 678.949 595.773 674.269 607.084 669.485C608.451 693.159 609.969 716.821 611.639 740.471C612.145 747.784 613.047 767.156 614.205 773.877C606.436 778.179 601.253 781.141 594.002 786.186C590.332 784.462 578.069 782.707 573.803 782.494C573.834 780.19 574.247 775.285 573.152 773.633L573.014 683.519Z" fill="#FCFCFB"/>
<path d="M532.808 680.783C536.347 681.447 539.89 682.099 543.436 682.727C543.03 713.762 542.979 744.804 543.283 775.839C539.796 775.851 537.03 775.979 533.582 775.26C532.525 767.667 531.613 763.512 528.965 756.303C538.258 741.988 533.918 698.711 532.808 680.783Z" fill="#FCFCFB"/>
<path d="M78.9902 812.7C79.0274 808.16 78.3423 776.278 79.5961 774.237L79.7362 821.74C79.7417 825 79.952 839.71 79.4126 842.25C79.2236 841.54 78.8262 837.06 78.6153 836.95C72.4427 833.72 61.0617 832.58 56.2845 827.34C53.8473 819.65 73.5898 814.52 78.9902 812.7Z" fill="#E7E7E6"/>
<path d="M769.688 814.95C774.077 816.73 784.549 820.35 787.066 823.69C787.919 828.89 772.468 831.89 769.591 835.75C769.189 830.66 769.603 820.41 769.688 814.95Z" fill="#E7E7E6"/>
<path d="M452.598 134.491C493.812 133.86 527.215 156.736 540.271 196.129C537.51 196.158 532.002 196.081 529.815 197.428C511.578 208.671 510.337 244.383 518.283 262.013C521.209 268.505 525.452 271.876 531.505 273.923C527.383 278.743 524.196 283.451 519.542 288.041C503.886 303.481 487.787 309.215 466.939 313.213C440.115 317.894 408.056 310.789 387.384 292.65C351.278 260.968 358.215 197.564 387.982 164.106C405.207 144.744 427.138 135.938 452.598 134.491Z" fill="#FCFCFB"/>
<path d="M410.863 190.53C428.5 188.288 470.684 189.942 485.36 200.801C504.128 214.685 505.058 252.837 486.47 267.716C478.03 274.472 470.205 275.958 459.724 277.318C445.687 278.046 432.117 277.704 418.252 276.923C393.924 275.552 373.699 268.015 370.877 240.739C369.567 228.077 371.651 214.215 379.444 203.785C386.246 194.682 400.3 191.759 410.863 190.53Z" fill="#353434"/>
<path d="M459.353 218.981C472.76 219.909 472.331 243.986 462.071 250.648C447.816 251.236 449.58 222.789 459.353 218.981Z" fill="#FCFCFB"/>
<path d="M399.241 218.284C414.329 216.381 412.343 241.103 404.279 248.25C390.257 251.098 391.426 225.895 399.241 218.284Z" fill="#FCFCFB"/>
<path d="M177.154 23.282C180.326 23.305 184.446 25.353 186.207 28.083C199.65 48.924 196.983 78.453 194.128 101.904C193.198 109.54 189.75 117.463 188.659 125.12C188.447 126.505 188.91 126.753 189.636 127.628C195.757 127.709 197.006 120.442 198.068 115.748C212.017 111.187 227.858 112.248 241.855 116.168C265.946 122.748 286.405 138.684 298.676 160.429C315.142 189.953 316.286 233.72 307.208 265.485C306.01 250.906 304.587 236.943 299.981 222.967C311.438 202.701 307.016 179.117 291.574 162.29C280.69 150.552 265.585 143.62 249.586 143.023C205.226 141.343 169.255 185.047 155.965 223.165C151.445 236.129 150.033 248.341 149.513 261.919C151.74 302.351 170.494 316.874 200.424 339.464C203.978 342.146 208.797 347.5 211.922 350.831C188.918 353.434 182.373 365.898 176.339 386.05C172.709 387.252 169.654 388.705 166.192 390.283C168.602 375.631 166.057 351.437 158.924 338.445C169.613 343.139 180.476 348.241 191.824 350.949C185.42 346.322 175.532 340.501 168.285 337.173C115.93 313.123 95.7233 274.72 107.765 217.417C112.448 194.088 122.529 172.178 137.201 153.443C139.014 151.094 142.977 145.611 145.15 144.191C147.519 144.283 148.121 145.49 150.502 147.136C153.684 145.102 151.539 138.171 150.571 135.006C141.584 105.599 146.467 39.391 177.154 23.282Z" fill="#FCFCFB"/>
<path d="M173.319 134.869C171.828 135.708 168.773 137.828 167.403 136.497C163.74 132.939 162.208 122.684 161.728 117.786C159.888 99.007 161.107 76.572 171.323 60.223C172.381 58.724 174.353 57.289 176.217 57.256C183.322 57.132 184.34 70.69 184.55 75.887C185.059 86.297 182.305 129.83 173.319 134.869Z" fill="#DCDCDB"/>
<path d="M173.319 134.869C172.937 133.01 175.84 119.401 176.84 116.665C180.578 106.441 179.933 85.407 183.25 76.424L184.55 75.887C185.059 86.297 182.305 129.83 173.319 134.869Z" fill="#252525"/>
<path d="M456.135 526.075C447.857 531.358 435.793 537.781 426.739 543.259C417.384 548.847 407.213 553.826 398.122 559.785C396.415 560.907 396.058 563.783 394.744 564.733C392.065 566.677 387.576 567.847 386.618 571.333C388.511 577.92 401.453 574.971 406.987 577.731C429 579.621 463.684 585.544 485.597 590.486C487.839 593.849 488.229 594.495 491.418 596.945C494.258 597.81 505.466 600.266 506.374 600.644C509.739 599.779 512.361 598.718 515.576 597.469C535.153 602.186 554.633 606.524 574.045 611.972C581.967 614.196 590.44 615.945 598.203 618.584C603.735 620.357 608.107 621.704 613.754 623.02C626.365 616.207 640.841 605.184 653.849 598.127C657.609 596.086 663.65 591.692 667.423 590.315C676.511 582.814 704 571.406 709.218 562.79C707.017 559.267 701.891 558.755 701.416 557C702.793 555.8 703.952 555.794 705.993 556.074C718.342 557.774 731.819 559.59 744.028 561.766C754.036 563.551 770.298 565.306 779.612 567.884C753.347 578.938 727.156 589.023 700.806 599.779L564.46 655.354C550.034 652.075 533.117 649.479 518.361 646.883L424.872 630.619C412.974 628.547 400.357 626.841 388.603 624.525C392.426 622.228 396.261 619.955 400.108 617.706C409.988 611.844 431.979 599.163 441.956 594.891C443.164 593.49 443.138 593.533 443.865 591.832C442.365 587.823 433.258 587.189 428.9 586.525C401.921 582.399 377.328 571.016 353.06 558.902C349.668 560.413 342.357 564.666 339.1 565.41C321.802 569.359 305.585 576.086 288.613 581.132C285.647 582.015 282.34 582.96 279.741 584.593L279.61 586.043C281.584 589.218 285.889 589.998 289.503 591.113C280.814 594.91 271.781 599.553 263.233 603.758C257.518 603.398 250.041 601.747 244.241 600.662C234.495 598.816 224.738 597.024 214.973 595.287L116.635 577.993C101.603 575.367 81.9282 571.083 67.2393 569.462C76.1322 568.146 131.273 551.961 133.825 553.04C134.36 555.057 133.354 559.261 133.189 562.162C133.618 562.333 134.05 562.497 134.485 562.656C141.854 565.318 231.539 587.25 236.955 586.927C240.434 586.72 320.067 559.858 325.963 556.799C328.178 555.648 328.777 554.088 329.569 551.857C326.271 548.006 318.846 544.764 325.47 537.622C325.531 536.075 325.307 534.064 326.085 533.058C338.129 535.106 389.771 545.63 397.808 544.271C403.876 543.241 410.165 540.547 416.014 538.567C424.017 535.861 432.11 533.588 440.162 531.059C445.452 529.396 450.735 527.312 456.135 526.075Z" fill="#E7E7E6"/>
<path d="M329.568 551.857C331.117 553.649 331.348 553.893 331.6 556.227C328.938 561.936 299.044 569.487 291.035 572.271C277.691 577.037 264.31 581.686 250.89 586.226C246.771 587.597 241.743 589.913 237.527 590.4C236.114 590.565 137.841 567.457 135.008 566.214C133.802 565.684 133.547 563.387 133.189 562.162C133.618 562.332 134.05 562.497 134.485 562.655C141.854 565.318 231.539 587.25 236.955 586.927C240.433 586.72 320.067 559.858 325.963 556.799C328.178 555.648 328.777 554.088 329.568 551.857Z" fill="#DCDCDB"/>
<path d="M456.135 526.075C447.857 531.358 435.793 537.781 426.739 543.259C426.542 542.893 426.485 542.753 426.183 542.412C422.432 538.146 402.202 547.756 394.901 547.659C382.563 547.494 371.119 544.447 359.097 542.156C347.901 540.023 336.818 538.549 325.47 537.622C325.531 536.075 325.308 534.064 326.085 533.058C338.13 535.106 389.771 545.63 397.809 544.271C403.876 543.241 410.165 540.547 416.014 538.567C424.017 535.861 432.11 533.588 440.162 531.059C445.452 529.396 450.735 527.312 456.135 526.075Z" fill="#DCDCDB"/>
<path d="M506.373 600.644C509.738 599.779 512.36 598.718 515.575 597.469C535.152 602.186 554.633 606.524 574.044 611.972C581.967 614.196 590.439 615.945 598.203 618.584C597.975 618.639 597.747 618.688 597.519 618.742C594.105 620.016 585.924 618.291 582.094 617.195C564.02 612.033 546.09 607.585 527.705 603.642C522.245 602.472 516.63 603.746 511.272 602.825C510.601 602.71 508.116 601.235 507.008 600.851L506.373 600.644Z" fill="#DCDCDB"/>
<path d="M406.986 577.731C429 579.621 463.684 585.544 485.597 590.486C487.838 593.849 488.229 594.495 491.418 596.945C491.162 597.03 489.276 597.597 489.13 597.554C473.757 592.96 457.235 586.677 441.064 586.866C438.891 585.33 437.616 584.374 435.181 583.149C429.83 580.461 409.705 580.632 406.986 577.731Z" fill="#DCDCDB"/>
<path d="M709.218 562.79C711.498 565.58 710.175 567.256 708.98 570.547C698.722 575.471 687.275 583.551 676.212 589.072L675.706 588.712C678.601 585.087 693.59 580.37 695.546 575.995C688 577.469 672.811 590.254 667.423 590.315C676.511 582.814 704 571.406 709.218 562.79Z" fill="#DCDCDB"/>
<path d="M400.107 617.706C409.987 611.844 431.978 599.163 441.955 594.891C442.736 595.507 443.502 596.141 444.255 596.787C443.025 598.81 438.627 600.169 436.293 601.156C424.789 606.012 414.385 613.368 402.886 618.145C401.943 618.535 401.024 618.005 400.107 617.706Z" fill="#DCDCDB"/>
<path d="M473.973 602.265C498.699 605.635 524.317 612.49 549.035 616.646C549.319 617.036 549.601 617.42 549.885 617.81L549.559 618.834C547.35 621.052 521.797 634.83 518.563 635.037C508.729 633.696 443.599 623.045 441.302 619.065C443.705 615.903 469.319 603.947 473.973 602.265Z" fill="#353434"/>
<path d="M473.635 605.933C496.726 610.071 519.775 615.031 542.968 618.511C535.11 623.27 527.043 627.682 518.791 631.722C509.149 630.704 499.622 628.639 490.105 626.835L447.978 618.882C456.504 614.489 465.199 610.522 473.635 605.933Z" fill="#FCFCFB"/>
<path d="M702.867 279.617C713.259 289.754 714.789 309.628 716.544 324.167C710.766 327.332 705.012 329.856 699.02 332.554C701.562 335.793 709.724 342.723 713.357 346.191C706.475 365.925 697.521 384.364 688.988 403.335C685.264 411.605 668.746 442.858 670.361 449.811L670.781 449.927C675.469 446.795 716.825 355.737 720.031 344.377C717.538 341.639 711.571 336.794 708.541 334.213C713.033 332.53 718.507 329.519 722.469 326.847C722.353 318.375 718.574 299.993 716.392 291.416C734.574 300.299 762.399 311.964 771.511 330.912C782.373 353.494 798.397 441 790.364 463.266C786.237 474.704 776.948 482.005 766.312 487.038C750.208 495.003 728.729 500.371 711.107 503.924C712.857 487.806 709.48 468.812 696.503 457.867C705.079 454.954 713.71 452.535 722.323 449.373C731.52 445.997 741.456 440.854 751.013 439.086C752.147 438.873 763.398 440.287 765.245 440.476C766.312 439.178 766.019 439.921 765.995 438.117C762.094 432.627 748.435 433.614 742.565 434.821C737.713 406.734 732.386 370.836 742.425 343.901C742.998 342.362 744.698 338.477 744.454 337.098L743.516 336.939C742.571 337.517 741.535 338.226 740.937 339.168C725.133 364.142 733.099 409.684 736.08 436.82C717.952 444.351 695.766 450.147 678.937 458.19L664.168 455.247C672.281 410.681 683.051 366.953 693.596 322.932C697.107 308.28 701.416 294.799 702.867 279.617Z" fill="#FCFCFB"/>
<path d="M671.33 143.604C674.475 143.736 677.327 143.763 679.644 146.16C680.521 148.245 678.504 157.86 678.382 161.344C677.882 175.936 684.453 182.889 689.701 195.206C691.194 198.707 690.207 206.568 693.4 209.987C702.421 213.506 701.964 198.032 711.741 198.094C728.6 198.204 723.371 223.841 715.593 231.493C708.681 238.29 706.152 238.754 697.777 239.311C695.327 248.712 693.943 253.134 689.67 261.805C690.749 266.592 690.804 272.024 690.822 276.931C682.911 289.57 669.989 299.751 656.25 305.411C650.027 302.51 648.259 300.806 644.821 294.964C651.496 293.8 657.024 292.599 663.223 289.71C666.435 287.886 675.06 282.419 674.682 278.266C672.549 277.093 666.88 280.992 664.57 282.211C659.785 284.7 654.72 286.596 649.472 287.856C638.361 290.44 627.883 289.064 618.411 282.921C593.57 266.807 591.957 239.662 591.294 213.114C590.721 190.175 586.559 165.446 599.678 144.841C612.815 149.339 633.375 150.637 647.125 148.092C655.171 146.603 663.138 144.257 671.33 143.604Z" fill="#FCFCFB"/>
<path d="M652.172 245.226C653.629 245.603 655.835 246.759 655.634 248.421C653.44 266.461 638.58 275.188 623.604 265.082C620.136 261.942 614.924 255.378 615.15 250.52C615.71 249.569 615.973 248.574 617.283 248.726C630.107 250.22 639.756 248.845 652.172 245.226Z" fill="#353434"/>
<path d="M649.173 251.34L649.941 251.517C650.191 253.084 649.63 254.283 648.758 255.635C642.98 264.622 635.599 266.942 626.261 261.657C623.475 259.33 622.39 257.345 620.653 254.22C632.752 254.825 637.58 254.237 649.173 251.34Z" fill="#868686"/>
<path d="M620.428 202.594C632.808 205.729 616.808 225.028 617.734 231.328C621.05 236.229 624.622 233.447 629.016 236.344C629.693 238.302 629.638 237.472 628.645 239.792C624.744 240.618 616.606 240.887 614.156 237.139C609.004 229.266 616.021 220.471 618.6 213.17C619.532 210.535 620.02 205.517 620.428 202.594Z" fill="#353434"/>
<path d="M652.678 196.302C662.858 199.574 661.169 211.464 654.019 216.78C644.925 215.462 644.596 201.325 652.678 196.302Z" fill="#353434"/>
<path d="M604.821 196.943C615.79 196.614 614.687 210.115 608.999 216.241C598.819 218.51 598.938 203.512 604.821 196.943Z" fill="#353434"/>
<path d="M648.387 174.615C655.311 174.088 664.893 175.393 668.867 182.287C669.519 183.419 669.208 183.762 668.727 184.825C666.478 185.232 666.788 184.875 664.436 183.543C653.598 177.867 647.156 184.004 642.858 181.518C641.237 177.748 645.492 175.929 648.387 174.615Z" fill="#353434"/>
<path d="M604.263 174.61C607.986 174.939 612.48 175.784 614.448 179.312C614.491 181.373 614.765 180.696 613.686 182.19C611.693 182.61 606.64 180.845 603.685 180.619L603.287 180.805C600.307 182.198 597.648 183.964 594.595 182.86L594.187 181.789C596.049 177.53 600.031 175.658 604.263 174.61Z" fill="#353434"/>
<path d="M234.508 289.802C238.732 290.442 247.899 290.587 252.678 290.865C278.886 292.386 305.403 291.157 331.633 290.153C326.518 307.103 321.418 324.549 315.599 341.22C304.852 341.565 292.899 343.645 295.675 357.441C286.282 367.231 293.189 367.373 289.262 380.555C292.426 388.251 291.636 390.936 297.916 396.366C295.804 405.613 292.316 418.252 289.266 427.094L282.673 427.502C276.536 428.325 266.108 428.776 259.672 429.227C241.077 430.464 222.467 431.5 203.849 432.335C206.114 422.524 210.533 416.454 215.664 407.972C219.999 408.731 225.845 409.027 228.494 404.746C234.336 395.282 236.288 383.923 233.94 373.052C237.04 370.93 241.746 368.47 241.823 364.319C242.023 353.575 225.576 350.875 217.679 350.438C219.69 343.533 221.561 335.066 223.503 327.871C226.983 315.127 230.652 302.437 234.508 289.802Z" fill="#FCFCFB"/>
<path d="M273.461 178.482C281.831 185.093 289.565 203.866 289.679 214.072C289.931 236.643 287.164 264.405 278.583 285.189C262.358 284.787 246.474 283.649 230.358 283.189C227.101 290.002 221.66 310.06 219.409 317.877C202.358 313.506 196.132 309.417 183.504 297.97C173.267 287.98 168.827 278.169 162.973 265.447L156.57 264.471C156.376 257.88 156.661 251.283 157.423 244.733C172.177 240.663 182.486 228.673 187.875 214.775C209.9 212.636 211.489 208.967 229.703 200.561C227.929 203.174 225.759 205.177 226.886 208.264C233.021 212.253 248.434 203.127 253.774 199.754C261.88 194.636 267.983 186.231 273.461 178.482Z" fill="#FCFCFB"/>
<path d="M207.778 221.269C210.539 222.218 218.237 227.531 222.213 229.073C225.319 230.277 228.436 231.776 232.007 232.755C233.322 233.116 233.277 233.825 233.57 234.807L232.775 236.253C230.646 237.605 228.768 236.197 225.361 236.74C224.281 242.294 228.304 241.707 224.624 250.587C222.997 252.48 221.016 254.7 218.319 254.872C217.021 254.951 215.747 254.491 214.8 253.601C209.087 248.336 212.276 238.299 217.344 233.441C212.613 230.67 205.292 227.646 207.778 221.269Z" fill="#353434"/>
<path d="M251.959 252.147C257.126 252.217 260.251 260.701 261.823 264.818C259.789 272.266 258.69 273.768 251.064 275.405C249.219 275.04 247.259 274.383 246.668 272.492C247.861 270.141 252.524 269.513 255.593 266.68C257.393 260.691 248.87 259.638 251.959 252.147Z" fill="#353434"/>
<path d="M279.841 227.369C281.217 227.396 281.442 227.685 282.564 228.458C283.488 233.985 268.026 239.068 263.826 240.208C263.074 240.1 262.366 239.598 261.652 239.207L261.205 237.6C262.515 234.345 274.302 230.953 279.841 227.369Z" fill="#353434"/>
<path d="M268.54 245.815C271.716 245.699 280.751 246.404 278.756 251.467C276.279 252.814 276.414 252.351 273.219 252.332C268.742 252.588 264.898 253.409 261.213 250.869L261.057 249.738C262.667 247.543 266.021 246.588 268.54 245.815Z" fill="#353434"/>
<path d="M108.015 606.189L183.249 619.632L180.651 642.599C177.816 660.74 165.948 764.7 159.502 772.64C156.181 776.729 147.565 777.875 142.736 778.24C134.545 778.862 115.534 777.868 109.236 771.5C108.468 770.727 108.463 769.258 108.403 768.222C107.488 752.579 108.364 736.431 108.356 720.74L108.377 625.031C108.32 618.846 108.361 612.332 108.015 606.189Z" fill="#FCFCFB"/>
<path d="M108.015 606.189L183.249 619.632L180.651 642.599C165.173 640.893 147.853 635.975 132.611 632.173C124.917 630.253 116.263 626.457 108.377 625.031C108.32 618.846 108.361 612.332 108.015 606.189Z" fill="#E7E7E6"/>
<path d="M630.705 296.849C631.771 298 628.328 322.289 628.242 326.307C627.279 370.775 633.307 414.724 635.752 459.159C629.083 461.67 605.819 469.671 604.195 473.815C596.348 493.845 625.432 486.441 630.284 485.301C629.827 496.319 631.839 493.589 633.289 503.449C633.923 507.726 633.527 519.627 633.46 524.502C618.898 522.565 611.755 522.242 597.241 523.4C599.525 470.262 599.664 417.85 598.605 364.688C598.54 361.416 600.143 346.958 597.29 345.412C598.095 346.261 597.835 345.781 598.131 346.887L596.25 348.17L596.31 347.672C592.251 366.772 593.051 399.327 592.911 419.117C592.797 435.314 592.535 453.699 593.122 469.762C584.245 477.916 579.435 482.657 569.284 489.262C569.298 486.41 568.931 483.199 568.672 480.329C565.921 465.594 558.694 454.619 543.403 451.256C550.888 443.748 561.158 434.23 569.564 427.642C572.976 424.967 581.731 427.417 586.067 428.374C587.476 427.618 586.93 428.16 587.628 426.57L587.112 425.43C583.045 421.859 575.827 421.14 570.703 421.061C578.002 397.756 584.002 339.424 596.579 322.679C602.034 315.417 610.651 310.645 618.143 305.714C613.888 312.954 610.92 317.979 608.85 326.251C610.926 328.559 613.474 331.049 615.662 333.298C612.443 336.108 606.815 339.935 605.366 343.979C602.673 351.492 625.737 435.278 631.308 446.307L632.107 446.496C633.509 444.741 633.198 441.676 632.643 439.598C624.189 407.991 614.388 377.612 610.719 344.94L623.293 333.14L614.473 324.431C618.6 315.001 623.348 304.062 630.705 296.849Z" fill="#FCFCFB"/>
<path d="M114.036 336.633C143.669 335.797 142.906 385.951 138.99 405.604C132.307 409.403 109.234 421.433 109.064 429.775L109.847 430.586C110.726 430.598 111.101 430.64 111.874 430.104C126.285 420.068 142.168 410.278 157.96 402.599C157.727 404.287 157.537 405.982 157.389 407.68C156.075 424.291 167.083 440.951 184.598 442.28L179.053 448.757C149.161 480.877 88.7246 512.047 83.3315 440.214C81.4231 414.8 89.08 350.583 114.036 336.633Z" fill="#FCFCFB"/>
<path d="M741.096 613.916L741.4 614.215C742.845 619.065 741.699 649.43 741.699 656.615L741.748 783.968C738.481 785.108 735.354 786.241 731.928 786.826C722.804 788.38 706.847 788.325 699.039 782.518C696.869 780.897 696.649 779.361 696.265 776.845C692.809 743.335 690.548 709.686 687.281 676.152C686.043 663.403 685.129 650.521 683.228 637.852C692.754 634.074 702.22 630.15 711.625 626.073C721.365 621.759 730.898 617.109 741.096 613.916Z" fill="#DCDCDB"/>
<path d="M189.376 620.534C208.953 624.251 228.57 627.761 248.223 631.064C247.745 636.134 246.836 649.772 245.964 654.104C244.806 666.213 235.658 755.943 231.772 759.545C225.559 765.297 211.584 765.242 203.425 764.889C197.76 764.651 188.303 763.859 184.316 759.148C178.964 752.823 182.399 687.791 183.288 676.737C184.154 665.969 185.722 655.183 187.045 644.458C187.884 636.561 188.853 628.438 189.376 620.534Z" fill="#FCFCFB"/>
<path d="M189.376 620.534C208.954 624.251 228.571 627.761 248.223 631.064C247.746 636.134 246.836 649.772 245.964 654.104C244.876 650.259 239.346 651.192 235.91 651.173C219.357 651.1 203.209 647.487 187.045 644.458C187.884 636.561 188.853 628.438 189.376 620.534Z" fill="#E7E7E6"/>
<path d="M352.855 565.032C355.095 565.038 373.729 574.733 377.096 576.171C395.838 584.185 415.69 589.096 435.615 592.667C396.039 614.166 378.937 620.595 345.973 653.983L339.224 650.978C320.505 642.874 300.598 636.17 281.57 628.742C271.909 624.97 262.061 620.528 252.541 616.348C260.465 612.545 267.93 606.902 275.839 603.185C301.646 591.052 327.049 577.006 352.855 565.032Z" fill="#FCFCFB"/>
<path d="M291.17 603.941C291.455 603.935 291.74 603.935 292.024 603.953C296.516 604.233 354.7 625.354 356.625 627.542L356.347 629.455C353.271 629.778 349.966 628.462 347.102 627.298C329.26 620.04 310.115 615.409 292.8 607.091C291.216 606.329 291.419 605.464 291.17 603.941Z" fill="#E7E7E6"/>
<path d="M314.055 592.167C314.384 592.088 316.159 591.765 316.385 591.802C324.953 593.069 375.533 608.365 379.664 611.801L379.36 613.026C373.85 614.83 356.872 607.316 350.763 605.415C338.992 601.753 326.978 598.286 315.305 594.386C314.185 594.008 314.216 593.063 314.055 592.167Z" fill="#DCDCDB"/>
<path d="M303.863 597.999C308.218 597.926 313.41 599.535 317.534 601.003C333.511 606.695 349.942 611.107 365.863 616.853C367.015 617.268 367.101 619.017 367.358 620.089C360.267 620.187 314.969 604.562 306.037 600.772C304.167 599.98 304.335 599.559 303.863 597.999Z" fill="#DCDCDB"/>
<path d="M329.141 585.769C338.911 585.489 377.1 601.07 389.132 602.935C391.463 603.295 393.23 604.111 393.377 606.591C392.778 606.793 392.938 606.762 392.2 606.902C388.818 607.542 334.072 590.998 329.709 587.786C329.178 587.39 329.237 586.415 329.141 585.769Z" fill="#DCDCDB"/>
<path d="M340.764 580.437C349.053 579.182 374.258 589.608 383.438 591.327C384.983 591.613 403.985 598.048 404.422 598.383L404.492 599.961C398.095 601.985 354.327 585.72 345.241 583.661C343.298 583.222 341.401 582.436 340.764 580.437Z" fill="#DCDCDB"/>
<path d="M602.473 528.744C629.425 526.032 667.038 539.146 692.242 547.982L635.636 585.958C626.426 592.204 616.503 599.937 607.215 605.623L600.794 602.734C575.036 592.326 534.923 579.925 507.27 584.867C521.461 574.258 536.332 564.746 551.18 555.063C564.036 546.684 576.569 537.47 590.759 531.352C595.394 529.353 597.436 529.146 602.473 528.744Z" fill="#FCFCFB"/>
<path d="M574.883 549.353C587.884 549.103 630.918 560.559 642.737 565.897C643.224 567.39 642.944 567.098 642.005 569.042C627.566 563.612 610.639 560.626 595.818 555.983C591.547 554.642 576.293 553.807 573.899 550.797L574.883 549.353Z" fill="#DCDCDB"/>
<path d="M562.459 556.678C571.248 556.013 629.425 568.115 632.344 574.197L631.637 575.934C628.864 575.666 627.468 574.928 624.902 574.032C608.884 568.426 591.906 565.343 575.459 561.193C572.395 560.425 564.194 559.7 562.376 558.177L562.459 556.678Z" fill="#DCDCDB"/>
<path d="M550.994 563.953C563.737 562.595 606.865 573.033 619.453 580.37C620.349 580.894 620.136 581.369 620.227 582.417C615.595 582.442 594.78 575.641 589.306 574.026C583.318 572.302 577.269 570.797 571.17 569.511C567.254 568.664 552.908 566.854 550.784 565.416L550.994 563.953Z" fill="#DCDCDB"/>
<path d="M583.162 542.479C592.511 541.766 642.297 552.802 652.397 558.231C654.293 559.249 654.134 559.974 654.525 561.668C648.326 561.266 639.707 557.074 633.417 555.568C616.953 551.62 601.046 547.768 584.279 545.337C582.994 544.277 583.4 544.703 583.162 542.479Z" fill="#DCDCDB"/>
<path d="M539.784 571.144C549.418 570.858 605.872 582.027 609.926 588.182L609.251 589.84C598.946 588.097 584.57 582.326 574.039 579.974C562.978 577.5 551.255 575.062 540.038 573.831C539.339 573.758 539.523 573.624 538.92 572.747L539.784 571.144Z" fill="#DCDCDB"/>
<path d="M591.987 537.281C609.135 535.295 645.114 544.594 662.217 551.498C663.851 552.156 664.095 553.308 664.527 554.709C662.321 554.551 659.413 553.911 657.298 553.283C638.501 547.732 619.288 541.285 599.664 539.615C597.109 539.402 594.675 539.731 592.36 538.506L591.987 537.281Z" fill="#DCDCDB"/>
<path d="M507.422 509.463C516.305 515.386 518.709 510.645 523.953 512.541C528.727 514.265 528.906 523.814 540.646 513.546C558.531 518.518 567.342 519.207 584.972 528.457C579.867 531.882 573.569 535.191 568.187 538.744C546.053 553.356 523.129 567.427 501.861 583.265C485.452 567.396 428.886 563.557 405.859 561.918C414.793 556.007 486.377 514.265 490.687 515.441L491.297 516.587C494.459 517.842 495.75 517.623 499.181 517.275C503.166 515.094 504.578 512.991 507.422 509.463Z" fill="#FCFCFB"/>
<path d="M491.297 516.587C494.459 517.842 495.749 517.623 499.18 517.275C500.946 518.293 509.004 519.079 511.609 519.396C519.514 520.353 557.082 527.903 559.529 533.619L558.705 534.131C553.988 534.301 533.239 527.153 525.79 525.557C516.213 523.509 502.232 521.693 492.45 519.53C491.929 519.414 491.535 517.397 491.297 516.587Z" fill="#DCDCDB"/>
<path d="M457.535 540.163C466.436 540.748 519.331 549.042 522.806 555.288L522.083 556.952C508.602 552.875 494.708 549.853 480.962 546.812C477.073 545.953 458.188 544.295 456.719 541.309L457.535 540.163Z" fill="#DCDCDB"/>
<path d="M470.431 532.827C480.869 533.619 531.716 541.199 535.525 549.085C528.356 549.463 513.594 544.155 505.899 542.132C500.726 540.803 495.501 539.682 490.237 538.774C487.274 538.244 472.429 536.038 470.822 535.008L470.431 532.827Z" fill="#DCDCDB"/>
<path d="M443.559 548.859C453.128 547.604 507.471 555.94 510.942 564.088C508.474 564.008 505.405 563.746 503.074 563.052C485.655 557.823 468.162 553.289 450.023 551.443C447.909 551.224 445.484 551.193 443.672 550.054L443.559 548.859Z" fill="#DCDCDB"/>
<path d="M483.325 525.526C492.505 525.386 541.07 534.368 547.147 540.517L546.997 542.254C545.162 542.278 525.518 536.416 522.592 535.52C515.986 533.497 486.267 529.128 482.871 527.482L483.325 525.526Z" fill="#DCDCDB"/>
<path d="M197.548 436.46L201.139 439.086C207.615 438.623 214.106 438.379 220.599 438.355C220.331 455.655 219.404 477.264 218.228 494.521C197.64 500.798 176.547 505.661 156.029 512.126C150.259 513.948 131.241 518.165 128.346 522.425C128.536 525.819 132.559 527.848 133.511 530.956C134.39 533.826 129.936 534.582 127.684 538.805C127.462 543.375 129.334 541.675 131.508 544.99L130.944 546.02C127.624 548.104 117.901 549.883 113.685 550.815C104.904 553.399 96.0383 555.684 87.1039 557.665C86.9948 541.077 87.1058 531.522 89.8413 515.021C104.759 509.14 112.238 502.413 123.349 491.218C155.887 483.327 178.146 463.09 197.548 436.46Z" fill="#FCFCFB"/>
<path d="M666.021 644.891L666.795 645.591C667.483 653.617 667.203 661.813 667.24 669.863L667.398 710.465L667.502 746.961C667.52 755.09 667.855 763.371 667.038 771.464C665.509 773.901 662.979 775.248 660.303 776.089C647.899 779.995 631.997 777.314 620.861 771.354C618.466 764.633 618.929 750.617 618.411 743.098C616.661 717.595 615.278 692.032 613.224 666.554C631.016 659.991 648.424 652.008 666.021 644.891Z" fill="#DCDCDB"/>
<path d="M495.893 318.812C498.583 320.005 510.25 323.196 514.287 324.54C506.253 328.716 500.219 338.303 497.218 346.572C492.622 359.489 493.331 373.7 499.19 386.095C482.137 388.876 466.411 393.112 451.265 401.495C437.742 398.671 428.373 399.381 416.461 405.08C416.666 404.982 401.154 403.993 400.263 403.855L399.651 402.829C395.608 379.66 395.893 332.391 421.231 320.983C421.039 322.503 420.438 325.404 420.527 326.724C422.183 350.836 460.025 348.535 475.112 340.424C484.724 335.257 492.271 329.339 495.893 318.812Z" fill="#FCFCFB"/>
<path d="M651.429 105.239C667.471 103.53 687.909 107.581 698.405 120.771C700.69 123.65 701.946 126.639 703.433 129.966C731.081 139.569 726.303 170.61 719.543 192.904C708.998 190.918 704.506 193.001 697.265 200.976C692.437 178.187 680.527 178.566 685.458 151.549C685.605 150.678 685.733 148.739 685.757 147.83C685.836 145.509 684.898 143.269 683.191 141.695C667.618 127.086 631.327 160.5 600.944 129.61L600.259 130.473C600.26 134.592 606.189 139.22 609.33 141.349C597.356 138.048 581.964 133.976 588.548 115.369C589.936 111.446 597.947 113.796 601.715 113.911C618.978 114.433 634.069 106.769 651.429 105.239Z" fill="#646464"/>
<path d="M239.738 149.67C276.883 143.854 311.991 180.058 296.035 216.184C293.916 198.262 290.331 186.368 277.728 173.509C275.801 171.543 276.822 166.355 273.251 165.731C272.089 166.95 270.048 170.665 269.174 172.234C261.109 186.713 251.711 196.5 235.331 200.821C241.156 192.471 242.612 188.427 244.626 178.744L239.579 184.003C227.688 198.971 203.617 207.007 185.09 208.232C182.221 208.422 179.455 208.641 176.583 208.958C174.923 210.23 175.325 209.563 174.766 211.418L175.303 212.192C177.359 213.522 179.204 213.501 181.619 213.729C176.378 225.235 170.473 232.828 158.508 237.341C163.111 221.68 169.734 203.999 179.649 190.882C195.17 170.35 213.511 153.559 239.738 149.67Z" fill="#646464"/>
<path d="M225.746 499.329C229.804 498.976 242.185 501.925 246.774 502.711C271.512 506.934 295.784 512.876 320.241 518.061L267.652 534.838C257.596 538.134 245.235 542.784 235.34 545.569C216.756 540.931 198.099 536.593 179.378 532.54C166.247 529.591 151.654 525.977 138.509 523.68C167.192 515.642 196.916 506.599 225.746 499.329Z" fill="#FCFCFB"/>
<path d="M690.176 506.556C699.831 510.81 702.879 513.199 713.6 510.877C730.96 507.111 746.911 502.065 763.514 495.886C763.758 499.22 764.045 502.553 764.362 505.886C766.3 522.065 768.36 542.711 768.64 558.877C760.223 557.665 701.861 550.115 699.27 547.561C698.856 546.196 698.624 544.472 697.283 543.893C687.318 539.591 674.749 535.727 664.454 532.321C664.43 527.464 664.528 522.053 664.369 517.245C671.19 515.508 672.872 514.07 677.096 508.506C682.46 508.598 685.014 507.982 690.176 506.556Z" fill="#FCFCFB"/>
<path d="M690.176 506.556C699.831 510.81 702.879 513.199 713.6 510.877C730.96 507.111 746.911 502.065 763.514 495.886C763.758 499.22 764.045 502.553 764.362 505.886C759.357 504.619 740.742 512.534 734.172 514.003C726.986 515.606 719.994 516.91 712.723 518.141C701.428 520.048 694.388 515.807 684.325 515.88C674.896 515.947 675.462 519.664 664.369 517.245C671.19 515.508 672.872 514.07 677.096 508.506C682.46 508.598 685.014 507.982 690.176 506.556Z" fill="#E7E7E6"/>
<path d="M784.664 571.114L785.45 571.552C786.011 574.319 785.67 584.617 785.621 588.036C764.166 598.401 734.811 609.547 712.076 619.035L568.543 678.699L567.744 678.047C567.195 673.525 567.487 664.305 567.514 659.412C626.316 634.903 685.3 610.814 744.448 587.152C757.845 581.65 771.163 576.884 784.664 571.114Z" fill="#DCDCDB"/>
<path d="M378.123 432.109C381.233 431.78 393.982 435.253 397.868 436.235C398.811 442.517 400.652 450.689 408.676 451.256C412.78 451.548 415.065 447.971 417.797 447.599C424.406 446.698 424.028 447.837 428.981 443.151C438.55 446.551 463.302 451.073 473.726 452.743C458.61 458.343 443.588 464.199 428.666 470.305C421.067 473.413 411.36 477.105 404.398 481.085L397.359 484.936C386.979 483.041 372.836 479.171 362.239 476.746C343.078 472.492 323.876 468.428 304.637 464.546C323.603 458.867 359.692 442.304 378.123 432.109Z" fill="#FCFCFB"/>
<path d="M345.864 458.526C355.488 457.892 396.801 468.135 408.607 471.28C405.463 472.84 401.801 474.388 398.567 475.844C394.32 477.111 389.492 475.978 385.252 474.893C369.22 470.804 352.204 468.263 336.284 463.943C339.729 461.091 341.742 460.207 345.864 458.526Z" fill="#DCDCDB"/>
<path d="M549.589 683.562C555.871 684.604 560.524 685.329 566.848 685.755L566.74 753.091L566.696 861.47C566.639 878.24 566.718 895.09 566.565 911.86C566.467 922.59 550.403 917.02 550.38 916.4C549.814 901.45 548.358 879.74 549.692 864.91C549.112 860.34 549.359 847.73 549.345 842.7C549.269 827.61 549.301 812.52 549.44 797.429C549.656 759.435 548.983 721.69 549.589 683.562Z" fill="#DCDCDB"/>
<path d="M549.589 683.562C555.871 684.604 560.524 685.329 566.848 685.755L566.74 753.091C565.494 747.339 566.12 713.5 566.109 705.341C561.155 704.951 554.764 704.622 549.948 703.988L549.973 814.77L550.004 846.62C550.012 850.91 550.233 860.9 549.692 864.91C549.113 860.34 549.359 847.73 549.345 842.7C549.269 827.61 549.301 812.52 549.44 797.429C549.656 759.435 548.983 721.69 549.589 683.562Z" fill="#E7E7E6"/>
<path d="M469.139 670.783C471.128 672.727 471.852 675.615 473.594 677.736C477.317 682.276 485.992 684.762 491.619 684.945C499.439 685.195 506.779 682.599 512.44 677.218C516.802 678.077 521.187 678.845 525.561 679.643C527.869 699.18 530.418 730.569 525.663 749.301C525.061 750.306 524.442 751.33 523.693 752.232C520.093 756.559 513.742 758.521 508.36 759.124C501.64 759.88 490.96 759.551 485.534 754.852C475.366 746.041 469.74 686.517 469.139 670.783Z" fill="#FCFCFB"/>
<path d="M390.722 659.327C391.996 660.789 392.978 662.459 394.245 663.921C398.68 669.046 406.313 672.093 412.977 672.398C421.565 672.788 429.606 669.509 435.93 663.787L445.644 665.347C445.845 687.797 444.524 710.234 441.689 732.507C441.029 735.407 440.175 738.186 438.004 740.349C433.66 744.676 426.07 745.297 420.288 745.352C413.214 745.419 404.452 743.902 399.287 738.631C391.084 730.258 390.62 672.526 390.722 659.327Z" fill="#FCFCFB"/>
<path d="M382.051 628.931C389.541 629.419 397.289 631.228 404.704 632.447C421.468 635.183 438.205 638.09 454.911 641.161C491.138 647.523 527.811 652.666 563.776 660.277L563.768 679.576C558.317 678.827 552.877 677.998 547.451 677.09C506.292 669.515 465.083 662.215 423.826 655.195C403.415 651.636 383.025 648.59 362.776 644.129C369.349 639.297 375.58 633.916 382.051 628.931Z" fill="#DCDCDB"/>
<path d="M85.9095 619.687C91.1051 620.656 96.3762 623.611 101.879 624.781C102.869 668.297 101.706 713.689 102.018 757.412C102.17 777.04 102.161 796.662 101.991 816.29C101.971 821.59 102.285 838.81 101.476 843.05C98.6577 846.4 91.2934 846.29 87.649 844.5C84.7599 841.48 85.9131 823.43 85.9113 818.04L85.8729 769.173L85.9095 619.687Z" fill="#DCDCDB"/>
<path d="M62.3763 573.338C76.3441 575.014 99.7602 580.364 114.428 582.911L256.622 607.841C251.56 610.863 247.633 613.386 243.351 617.457C247.595 620.12 251.323 621.777 255.845 623.885L265.44 627.95L137.421 605.104C113.016 600.747 86.6987 596.774 62.6292 591.369C62.2495 586.123 62.4116 578.743 62.3763 573.338Z" fill="#DCDCDB"/>
<path d="M747.813 631.283C752.689 630.052 758.864 626.622 763.283 624.135L763.258 768.746L763.289 814.61C763.277 821.01 763.222 827.43 763.264 833.83C763.307 840.45 752.86 839.56 749.044 837.35C746.947 834.89 747.77 815.14 747.782 810.95L747.856 770.428L747.813 631.283Z" fill="#DCDCDB"/>
<path d="M251.882 111.524C258.724 85.671 272.983 57.133 295.101 41.127C298.877 38.394 307.375 38.444 308.888 43.097C317.951 70.99 302.165 110.731 284.441 131.611L279.427 127.044C276.48 124.809 273.192 122.573 270.156 120.424C274.116 106.49 278.088 95.275 285.087 82.394C287.85 77.31 291.194 72.546 293.811 67.664L294.063 67.186C282.91 70.907 269.606 106.652 265.334 117.778C260.895 115.597 256.411 113.511 251.882 111.524Z" fill="#FCFCFB"/>
<path d="M294.064 67.186C310.855 74.404 284.359 118.024 279.428 127.044C276.481 124.809 273.192 122.573 270.156 120.424C274.116 106.49 278.088 95.275 285.088 82.394C287.85 77.31 291.195 72.546 293.811 67.664L294.064 67.186Z" fill="#DCDCDB"/>
<path d="M80.3901 330.077C88.6638 329.707 97.3294 332.732 94.7999 342.696C92.6477 351.172 88.2664 359.345 86.0148 367.868C81.1411 386.311 78.5994 405.32 76.182 424.218L65.3684 421.64C59.531 420.056 53.7212 418.368 47.9419 416.582C50.1726 403.731 58.1723 344.327 64.1329 336.659C68.2125 331.412 74.2486 330.784 80.3901 330.077Z" fill="#E7E7E6"/>
<path d="M500.302 392.829C501.733 392.699 503.168 392.608 504.605 392.555C517.749 392.169 528.893 402.751 529.039 415.848C529.052 421.658 526.762 427.234 522.671 431.359C514.994 439.208 498.669 440.646 488.093 440.744C481.981 440.829 476.102 440.317 470.009 439.879C470.551 438.928 471.071 437.965 471.568 436.99C477.682 424.918 474.968 409.419 462.173 403.124C477.042 397.899 484.564 395.035 500.302 392.829Z" fill="#FCFCFB"/>
<path d="M472.817 464.656L474.551 467.172C474.534 467.562 474.516 467.959 474.498 468.355C462.493 474.643 419.86 489.201 412.01 497.221C421.322 494.625 465.548 473.998 471.306 475.125C472.962 476.612 472.504 475.832 472.961 478.105C469.322 482.45 408.647 502.364 396.682 510.146L396.141 510.505C405.657 509.049 415.963 504.625 425.177 501.224L454.634 490.505C458.031 489.256 471.198 482.133 472.366 487.654C470.601 489.847 409.783 512.053 401.654 515.508C394.111 513.186 384.891 511.596 377.155 510.28C359.003 506.374 340.358 503.875 322.17 500.152C316.55 499.006 307.195 498.245 302.151 496.264C301.343 493.808 303.157 496.52 303.782 491.828C306.68 489.11 373.891 505.319 384.382 504.034C385.127 503.942 385.26 503.394 385.69 502.821L385.193 503.833L385.494 502.461C383.707 500.42 381.325 500.347 378.847 500.018C353.523 496.624 328.166 490.31 302.866 487.069L303.198 486.874C306.161 485.076 306.785 484.954 309.009 482.175C336.854 488.531 368.306 492.65 397.167 498.628C413.151 488.452 439.039 478.982 456.482 471.255C461.917 468.842 467.347 467.392 472.817 464.656Z" fill="#DCDCDB"/>
<path d="M655.306 460.457C662.077 460.067 677.974 464.162 684.404 466.423C698.99 482.797 698.454 508.257 670.708 500.761C667.514 499.902 664.656 502.693 664.448 505.88C667.398 507.538 668.014 505.283 670.416 506.855L670.05 508.043C666.752 510.968 660.858 511.364 657.28 508.689C653.361 501.352 663.888 496.672 661.273 492.297C655.251 490.981 651.795 503.491 651.161 508.086C646.108 503.418 645.492 502.742 646.864 495.953C648.753 491.615 654.013 486.776 654.208 482.169L653.178 482.066C646.004 486.301 643.231 492.193 640.927 499.969C626.341 487.648 647.808 477.44 647.028 472.486C643.347 470.682 617.302 487.635 609.847 479.72C609.416 472.663 649.021 461.201 655.306 460.457Z" fill="#FCFCFB"/>
<path d="M652.196 340.36C654.793 340.172 656.823 339.699 658.7 341.28C662.394 357.029 663.869 407.198 664.289 425.144C664.399 429.934 660.004 449.172 658.609 454.498L650.337 454.961C647.918 455.436 643.925 456.77 641.438 457.526C640.957 451.109 639.829 436.332 640.11 430.708C641.164 409.119 644.839 359.067 652.196 340.36Z" fill="#646464"/>
<path d="M317.617 530.438L320.387 536.099C308.231 541.736 286.724 547.049 273.589 551.675C269.002 553.296 257.916 556.056 254.315 558.238L253.598 560.2C261.525 560.316 297.394 546.367 307.817 544.313C310.398 543.801 313.345 542.059 316.367 542.333C317.124 543.82 317.058 543.923 316.847 545.648C314.007 549.2 251.37 567.159 242.832 571.339C239.453 572.997 233.345 572.893 229.486 571.869C213.351 567.591 197.199 563.6 180.906 559.871C171.17 557.677 161.446 555.434 151.734 553.137C147.484 552.119 138.316 551.004 136.72 546.909C141.099 543.789 225.173 567.598 231.141 564.459C225.914 560.632 146.371 542.778 135.123 539.926L139.571 536.361C161.61 540.943 183.697 547.08 205.838 551.534C215.875 553.558 226.892 556.038 236.653 558.865C243.163 555.952 249.768 554.264 256.35 551.809C276.64 544.246 297.593 538.622 317.617 530.438Z" fill="#DCDCDB"/>
<path d="M254.315 558.238L253.598 560.2C251.453 560.584 247.649 561.461 245.749 560.645C247.804 559.334 251.763 558.762 254.315 558.238Z" fill="#646464"/>
<path d="M158.428 790.483C165.904 796.851 174.703 803.718 180.238 811.9C182.149 814.72 183.913 818.44 183.077 821.92C182.517 824.25 180.86 825.79 178.798 826.88C167.446 832.88 146.22 828.36 134.358 824.99C126.653 822.35 114.512 817.4 109.103 811.24C108.985 804.523 109.274 798.331 110.539 791.726C113.856 793.347 117.238 794.968 120.801 795.973C133.136 799.44 147.403 796.704 158.428 790.483Z" fill="#646464"/>
<path d="M533.015 340.875C545.373 340.945 551.185 349.366 553.723 360.553C557.999 379.393 554.412 399.825 544.412 416.284C544.229 409.858 543.557 406.781 541.513 400.691C534.957 385.486 521.38 380.592 506.201 385.887C509.774 367.744 513.584 348.174 533.015 340.875Z" fill="#FCFCFB"/>
<path d="M40.5003 453.973C50.4729 458.458 61.2698 460.817 72.2034 460.902C70.5418 475.405 68.2677 489.817 69.9311 504.399C71.347 516.824 77.5154 513.296 81.7229 518.098C82.519 520.56 81.7711 523.406 81.3511 526.069C68.6919 525.837 52.0179 521.358 44.3005 510.834C33.1671 495.661 38.18 471.231 40.5003 453.973Z" fill="#E7E7E6"/>
<path d="M211.762 357.382C217.644 357.044 232.482 357.242 235.622 362.966C234.75 366.125 232.637 366.746 229.591 366.873C224.771 367.074 204.36 362.842 203.401 369.975C206.631 372.971 232.497 367.796 228.713 381.324C223.901 381.086 210.472 374.3 206.163 380.025L206.367 381.335C210.32 383.506 232.439 382.012 226.707 392.303C224.905 391.991 223.558 391.174 221.807 390.716C216.953 389.446 212.447 390.25 207.645 391.132C206.677 392.449 206.981 391.716 206.845 393.456C210.309 396.168 219.117 393.334 224.459 397.22C225.527 399.138 225.392 398.291 225.158 400.389C222.241 403.509 215.893 401.729 212.02 403.044C209.669 404.267 208.064 408.865 206.751 411.062C197.243 426.978 183.682 424.376 179.666 406.496C177.262 395.792 184.944 379.152 190.032 369.701C194.346 361.685 203.431 359.061 211.762 357.382Z" fill="#FCFCFB"/>
<path d="M618.728 778.234C623.677 777.411 631.107 782.28 636.386 783.091C646.358 784.614 655.61 783.085 665.338 781.037C666.502 786.68 667.1 793.913 665.265 799.428C661.803 802.719 639.842 807.69 633.625 809.51C621.117 812.15 609.182 813.41 596.445 811.68C593.267 811.24 588.443 810.51 586.495 807.64C585.8 806.613 585.648 805.357 585.92 804.169C588.023 794.974 610.798 782.835 618.728 778.234Z" fill="#646464"/>
<path d="M698.24 789.776C714.405 794.352 725.449 794.651 741.772 790.586C741.833 797.332 741.766 804.078 741.571 810.82C734.196 816.76 727.138 822.64 718.159 826.04C714.423 827.34 710.644 828.42 706.718 829.04C699.666 830.16 684.91 831.34 679.028 826.67C677.528 825.49 676.663 823.77 676.559 821.87C676.035 812.38 692.34 796.808 698.24 789.776Z" fill="#646464"/>
<path d="M294.45 640.29C299.055 641.923 303.699 643.361 308.374 644.775C308.338 660.387 309.414 764.45 307.363 769.197C305.946 769.672 304.511 770.19 303.013 770.33C300.096 770.617 297.139 770.586 294.815 768.606C292.575 764.194 293.683 653.099 294.45 640.29Z" fill="#E7E7E6"/>
<path d="M247.176 436.838L254.792 436.46C254.682 450.975 254.485 484.43 256.833 497.781C248.935 496.867 241.356 495.332 233.586 493.735C230.154 492.961 226.923 492.888 223.428 492.693C222.181 491.31 224.616 443.584 224.825 438.422C230.581 437.447 241.189 437.124 247.176 436.838Z" fill="#FCFCFB"/>
<path d="M233.541 775.169C240.687 776.101 256.972 787.308 261.872 792.737C263.669 794.73 265.509 797.338 265.219 800.153C265.055 801.744 263.973 802.987 262.719 803.889C252.875 811 226.88 807.06 215.578 805.028C209.183 803.596 188.918 801.738 185.566 796.552C182.511 791.829 184.707 783.901 185.647 778.703C187.734 779.855 190.019 780.8 192.276 781.573C207.497 786.771 219.96 781.994 233.541 775.169Z" fill="#646464"/>
<path d="M525.375 766.266C525.645 766.753 525.589 766.577 525.729 767.119C527.386 773.511 528.525 780.355 525.019 786.333C520.36 794.285 510.058 798.581 501.534 800.708C490.401 803.493 475.074 803.98 465.01 797.972C464.363 797.265 463.803 796.43 463.361 795.577C462.121 793.2 462.804 789.788 463.623 787.35C466.53 778.691 474.554 770.166 482.62 766.095C487.251 767.85 491.949 769.557 496.789 770.635C507.229 772.975 516.3 771.964 525.375 766.266Z" fill="#FCFCFB"/>
<path d="M394.671 749.575C398.177 750.063 404.861 756.528 409.775 758.058C420.105 761.281 430.728 758.984 440.082 754.091C440.739 759.173 441.755 765.395 439.151 770.075C435.478 776.68 423.518 778.612 416.846 780.537C404.338 783.67 389.332 785.79 376.659 782.408C373.56 781.586 370.025 780.093 368.495 777.076C367.549 775.212 367.683 773.182 368.353 771.245C371.683 761.629 385.868 753.798 394.671 749.575Z" fill="#FCFCFB"/>
<path d="M323.872 410.331C324.433 415.979 316.435 434.857 313.298 440.262C301.104 461.262 284.652 472.322 261.609 459.708L261.496 450.195L261.322 436.088C264.288 435.863 267.483 435.448 270.461 435.126C269.591 438.605 267.963 444.565 269.52 447.922C272.759 445.96 273.973 438.843 274.978 434.998C280.965 434.473 288.143 433.919 293.896 432.505C296.144 427.825 297.75 420.805 299.085 415.668C309.743 419.075 315.851 418.288 323.872 410.331Z" fill="#FCFCFB"/>
<path d="M614.034 609.718C617.868 610.114 684.959 566.623 693.663 563.039C695.906 562.113 696.997 561.827 699.404 562.741L699.307 563.655C697.545 565.398 696.247 566.098 694.187 567.39C672.335 581.113 649.478 593.143 627.883 607.286C623.025 610.461 617.71 614.111 612.48 616.536C597.814 612.557 583.02 607.042 568.281 603.575C550.299 599.346 531.169 593.904 513.048 590.735C510.7 592.533 509.405 593.24 506.802 594.672C502.395 594.282 499.048 593.514 494.912 592.052L490.503 585.909C485.538 584.203 478.909 583.149 473.707 581.948C457.512 578.195 441.608 576.05 425.16 573.959C415.492 572.728 406.147 571.01 396.342 569.901C398.036 568.877 400.413 567.658 402.198 566.683C426.188 567.47 467.17 572.564 489.561 581.071C494.157 582.82 497.581 586.324 500.99 589.754C505.601 589.657 510.308 588.81 514.89 588.517C523.808 587.951 533.539 589.017 542.285 590.784C557.965 594.111 573.443 598.328 588.643 603.417C594.414 605.348 600.049 607.755 605.753 609.864C607.586 610.54 608.088 610.059 609.676 609.401C611.7 610.004 611.877 609.919 614.034 609.718Z" fill="#868686"/>
<path d="M536.258 462.23C548.748 460.518 558.282 475.911 554.83 487.056C552.236 495.435 546.073 499.823 539.925 505.569C536.547 508.72 534.705 513.052 529.502 511.236C526.099 504.052 541.935 491.73 534.359 484.156C532.49 482.285 526.682 480.944 524.016 481.097L517.152 482.602C510.023 489.238 502.763 509.999 495.86 510.755C494.184 509.957 494.737 510.566 494.031 508.982C494.308 501.669 502.194 484.716 506.036 478.086C512.296 467.294 524.905 464.68 536.258 462.23Z" fill="#FCFCFB"/>
<path d="M124.046 322.004C134.296 321.341 145.913 330.001 151.404 338.072C161.173 352.43 162.623 377.478 159.321 394.222C157.584 395.453 148.324 401.062 146.529 400.91C148.425 379.969 148.491 348.674 129.161 334.67C124.002 330.933 118.858 329.133 112.797 331.326C111.58 331.766 110.456 331.1 109.542 330.403C112.685 327.008 119.533 323.433 124.046 322.004Z" fill="#E7E7E6"/>
<path d="M385.057 339.65L385.383 339.867C382.523 352.242 381.811 364.239 391.024 374.214C390.649 381.99 390.821 387.158 391.81 394.861C385.496 401.921 382.943 403.994 375.389 409.596C376.469 405.29 376.669 401.739 376.613 397.338C374.394 381.942 368.024 373.47 352.587 370.527C364.266 357.979 371.374 350.137 385.057 339.65Z" fill="#FCFCFB"/>
<path d="M314.563 347.149C328.284 347.58 331.907 355.81 331.042 368.705C330.27 377.493 327.869 390.796 320.514 396.336C313.008 401.989 308.121 403.024 304.423 394.218C304.448 394.28 299.186 388.801 298.435 387.903C299.305 385.386 311.846 387.803 315.609 385.845C315.792 384.07 315.984 384.794 314.706 383.199C310.856 381.268 306.773 381.39 302.476 381.218C300.346 381.318 299.839 381.388 297.775 381.009C295.886 379.536 296.233 380.232 295.618 378.237C300.001 369.897 314.64 375.818 319.206 373.63C320.257 371.872 320.19 372.576 319.821 370.899C314.941 367.045 299.645 370.023 296.684 368.896C292.812 357.684 318.902 362.25 323.465 359.796L323.546 358.723C318.129 354.184 305.156 357.267 300.384 353.158L300.497 352.04C303.787 348.388 310.054 347.538 314.563 347.149Z" fill="#FCFCFB"/>
<path d="M336.402 377.51C353.883 377.086 363.31 387.015 360.367 405.654C359.483 411.251 355.094 416.185 350.23 419.099C341.737 421.981 337.292 420.988 328.595 419.623C330.465 411.073 331.364 405.152 329.519 396.37C333.098 389.288 334.432 385.16 336.402 377.51Z" fill="#FCFCFB"/>
<path d="M392.868 403.474C393.752 404.609 393.396 403.971 393.635 405.644C381.362 423.371 395.381 420.708 399.79 427.1C399.656 427.898 399.817 428.106 399.106 428.611C396.652 430.366 381.381 425.979 377.555 425.278C371.711 427.868 364.552 432.06 358.655 435.065C346.354 441.347 333.801 447.118 321.025 452.371C317.203 453.687 313.452 455.186 309.688 456.655C317.626 447.898 322.791 436.954 326.759 425.924C352.277 432.572 374.46 419.812 392.868 403.474Z" fill="#FCFCFB"/>
<path d="M262.209 468.879C277.955 475.405 284.445 469.884 296.963 471.17C299.512 473.339 298.061 476.606 302.594 480.414L303.181 480.902C299.977 482.62 293.735 485.234 296.077 489.165C298.331 492.955 296.96 493.339 294.309 496.404C294.145 497.428 294.36 497.836 294.631 498.842C295.988 500.03 296.325 500.195 297.929 501.066C298.13 503.12 297.221 503.571 295.779 505.685C288.551 505.228 271.331 501.285 263.346 499.664C263.386 490.627 262.523 478.233 262.209 468.879Z" fill="#FCFCFB"/>
<path d="M482.734 447.258C500.387 448.184 511.23 445.223 527.739 439.074C528.171 445.29 528.405 450.415 528.419 456.636C518.011 460.384 512.471 462.73 503.443 468.995C496.877 473.553 483.013 475.539 475.031 474.869C477.416 473.376 481.158 471.591 482.516 469.58C482.584 466.271 481.312 465.789 478.82 463.803C478.246 461.158 477.63 458.532 477.266 455.85C478.878 454.473 480.171 453.705 480.804 451.743C480.445 449.97 480.179 449.44 478.413 448.239C479.484 447.648 481.431 447.478 482.734 447.258Z" fill="#FCFCFB"/>
<path d="M469.397 493.796C471.051 494.856 471.17 495.911 471.112 497.751C469.881 499.469 469.664 499.579 467.546 500.347C455.086 504.564 442.83 509.183 430.485 513.698C420.955 517.19 409.75 522.559 400.059 524.978C399.707 524.746 399.355 524.509 399.003 524.277L398.52 523.978C393.741 521.017 313.6 508.476 303.056 506.861L302.152 506.166C303.424 504.216 304.408 502.553 305.553 500.542C335.935 506.477 373.621 511.011 402.405 519.433L469.397 493.796Z" fill="#E7E7E6"/>
<path d="M470.998 458.434L472.21 458.733L472.758 459.951C470.738 463.967 440.26 473.254 434.247 476.801C424.535 482.535 406.856 488.385 398.273 495.46C386.89 492.437 309.866 480.518 306.247 476.508C306.039 471.932 305.801 472.943 303.021 470.396C306.321 468.958 385.925 487.641 397.027 489.701C406.973 485.253 416.754 479.835 426.721 475.637C441.206 469.543 456.295 464.004 470.998 458.434Z" fill="#DCDCDB"/>
<path d="M44.1121 422.176C47.3106 422.457 54.6918 424.742 58.1012 425.723C64.6599 427.612 69.0863 428.55 75.8812 429.41C75.4442 433.815 73.4919 453.401 71.7554 456.058C62.8594 455.405 53.2938 454.199 45.2268 450.14C34.8069 444.9 39.6059 429.867 44.1121 422.176Z" fill="#E7E7E6"/>
<path d="M592.412 479.841C592.478 479.939 590.697 520.609 590.583 525.246C578.772 517.604 573.692 516.239 560.267 512.004C555.069 510.517 551.385 509.542 546.08 508.555C552.38 502.071 549.244 504.034 556.663 503.662C565.496 503.223 586.259 485.192 592.412 479.841Z" fill="#FCFCFB"/>
<path d="M318.177 523.674L319.41 523.686C319.71 525.496 318.445 527.098 317.469 529.079C291.206 537.744 264.413 544.362 238.158 555.142C219.842 551.595 199.989 546.708 181.723 542.497C168.021 539.341 153.932 536.513 140.389 532.82L139.536 532.589C138.575 530.828 138.801 531.577 138.987 529.414L139.932 528.652C171.202 536.458 204.157 542.912 235.861 550.419C243.504 548.42 252.847 544.734 260.581 542.199C279.705 535.794 298.905 529.621 318.177 523.674Z" fill="#E7E7E6"/>
<path d="M677.748 334.997C682.679 331.726 684.245 329.718 687.817 325.152C685.269 333.282 683.178 343.314 681.21 351.708C678.412 363.236 675.724 374.791 673.152 386.371C671.811 392.707 670.366 399.021 668.818 405.311C668.349 384.01 665.911 361.968 663.271 340.83C665.472 336.185 667.465 331.352 669.482 326.62C672.433 330.048 674.121 332.186 677.748 334.997Z" fill="#FCFCFB"/>
<path d="M317.136 551.016C319.679 551.358 319.337 550.888 320.636 552.357C318.914 554.721 245.918 578.432 236.429 581.973C205.788 573.795 175.008 567.744 144.714 559.81C141.35 559.487 141.441 559.523 139.404 557.579L139.806 555.837L139.199 557.195L139.988 555.763C143.175 554.91 149.821 556.403 153.004 557.293C179.505 564.727 209.485 568.146 235.431 576.787C243.688 575.068 258.322 569.682 266.987 566.878L317.136 551.016Z" fill="#E7E7E6"/>
<path d="M545.106 209.648C554.723 210.088 555.001 227.633 554.776 234.564C554.476 243.84 551.846 254.733 544.794 261.227C529.78 254.94 532.153 219.089 545.106 209.648Z" fill="#DCDCDB"/>
<path d="M695.875 279.086C696.813 280.2 697.088 282.001 696.978 283.458C695.558 302.388 690.371 315.148 677.723 328.529L673.005 321.183C669.854 316.699 666.611 312.279 663.277 307.928C676.711 299.8 687.847 293.123 695.875 279.086Z" fill="#FCFCFB"/>
<path d="M437.878 406.267C444.457 406.36 450.813 406.752 455.906 411.601C461.113 416.558 463.85 426.807 457.915 432.347C453.957 436.04 449.67 435.875 444.559 435.528C439.821 433.712 440.801 433.261 440.389 428.55C439.431 417.563 429.151 413.272 419.794 410.155C426.914 407.511 430.35 406.878 437.878 406.267Z" fill="#FCFCFB"/>
<path d="M535.212 201.884C539.245 202.287 540.873 202.958 544.749 204.314C533.172 209.691 530.467 222.871 529.636 234.703C529.039 243.188 529.969 254.309 535.588 261.097C536.96 262.753 538.659 263.364 540.064 264.909L539.302 265.92C514.67 275.81 512.705 212.265 535.212 201.884Z" fill="#DCDCDB"/>
<path d="M472.004 511.468L473.122 511.992L473.349 513.473C473.037 514.198 472.152 515.996 471.162 516.276C446.473 523.186 420.458 533.003 395.798 539.127C393.1 539.798 372.309 535.569 368.79 535.087C354.408 533.113 339.653 530.797 325.547 528.244L324.77 527.598C325.063 526.203 326.351 523.071 328.196 523.357C337.836 524.868 347.437 526.879 357.037 528.665C367.281 530.529 377.553 532.236 387.849 533.783C396.852 535.142 399.422 535.605 408.055 532.498C429.127 524.905 450.911 518.969 472.004 511.468Z" fill="#DDDCDC"/>
<path d="M172.559 394.494C173.007 395.085 173.535 402.851 173.716 404.413C175.375 418.758 181.033 422.213 192.324 429.129C193.544 433.98 187.228 436.497 183.475 437.429C182.577 437.331 181.684 437.191 180.797 437.021C164.618 433.998 160.518 415.774 163.414 401.745C166.268 398.033 168.53 396.781 172.559 394.494Z" fill="#FCFCFB"/>
<path d="M97.656 485.18C104.599 488.519 107.738 489.744 115.223 491.03C105.455 499.89 102.561 502.973 90.1119 507.83C76.6694 512.607 75.4382 509.305 74.2515 497.001C84.0922 493.967 89.3823 490.956 97.656 485.18Z" fill="#E7E7E6"/>
<path d="M175.203 732.482C176.109 738.125 175.464 744.426 175.54 750.166C175.639 757.546 177.367 761.781 182.669 766.942C178.251 777.357 176.584 788.965 178.732 800.117L172.835 794.937C167.192 790.598 163.066 787.813 160.717 780.757C162.558 779.307 164.499 777.777 165.789 775.797C172.144 766.022 171.741 744.92 175.043 733.043L175.203 732.482Z" fill="#FCFCFB"/>
<path d="M175.419 298.352C176.949 299.402 182.13 306.216 184.504 308.127C194.402 316.096 205.848 321.308 217.766 324.996L213.44 341.228C213.363 341.44 212.942 341.827 212.756 342.023C209.695 339.508 206.626 335.58 203.076 332.883C191.92 324.406 183.027 316.746 172.872 307.101C174.092 303.959 174.621 301.639 175.419 298.352Z" fill="#E7E7E6"/>
<path d="M642.809 326.688C644.473 328.861 646.284 338.538 645.991 341.534C645.004 347.165 644.278 355.45 642.675 360.901C639.676 371.118 640.03 391.286 636.83 400.018L636.452 399.699C635.824 389.699 632.021 336.907 634.227 331.003C635.081 331.785 635.952 332.545 636.848 333.28C639.024 331.782 641.103 328.84 642.809 326.688Z" fill="#FCFCFB"/>
<path d="M521.994 327.479C530.095 327.349 534.372 329.866 539.906 335.402C521.675 334.599 510.816 348.689 505.01 364.431C503.638 368.211 502.375 374.583 501.44 378.672C499.295 359.809 499.978 334.471 521.994 327.479Z" fill="#868686"/>
<path d="M498.474 477.416C499.08 478.617 492.76 491.761 491.783 494.406C489.788 499.811 488.634 503.796 487.58 509.475L480.86 512.041C479.285 510.133 477.273 508.141 475.529 506.331C474.982 505.801 474.193 504.74 473.689 504.107C473.663 501.815 475.209 500.926 477.074 498.671C478.174 493.388 473.05 493.906 478.748 487.739L479.032 487.44C478.906 485.582 477.342 484.052 476.112 482.48C484.775 481.121 490.279 480.329 498.474 477.416Z" fill="#E7E7E6"/>
<path d="M104.197 313.582C112.087 312.631 117.464 313.23 124.929 315.609C112.765 319.477 106.397 324.418 99.6748 335.552C98.4064 332.786 98.1827 332.387 96.1316 330.107C95.4983 329.694 94.8516 329.301 94.1927 328.93C86.4164 324.575 78.3664 324.957 70.083 327.267C80.4157 319.784 91.7577 315.77 104.197 313.582Z" fill="#E7E7E6"/>
<path d="M295.775 231.631C300.588 242.692 301.716 272.099 302.288 284.771L292.114 285.163L285.766 285.387C293.735 261.789 292.309 254.527 295.775 231.631Z" fill="#646464"/>
<path d="M488.243 318.089C489.002 318.401 489.284 318.738 489.957 319.28L489.914 320.648C488.201 323.679 486.279 325.908 483.648 328.215C473.674 336.808 460.715 341.123 447.58 340.223C439.452 339.696 432.969 337.705 427.557 331.541C426.428 328.555 426.169 327.945 425.89 324.77C427.228 323.711 431.268 328.066 433.261 328.951C453.931 338.14 472.068 331.851 488.243 318.089Z" fill="#646464"/>
<path d="M653.562 311.013C661.242 310.714 662.955 315.109 666.783 320.798C665.509 323.933 661.784 333.963 659.968 335.903L650.161 335.766C648.174 329.805 647.333 326.117 646.004 319.922C648.838 315.893 650.197 314.434 653.562 311.013Z" fill="#646464"/>
<path d="M321.714 512.766C323.503 512.845 339.243 515.996 342.154 516.507L375.253 522.272C378.491 522.833 388.66 524.387 391.253 525.362C392.196 526.855 391.801 528.36 391.653 530.225C391.261 530.237 390.869 530.255 390.477 530.267C373.47 527.568 356.443 524.624 339.477 521.657C336.441 521.127 331.035 520.213 329.373 517.568C327.738 514.966 324.448 513.912 321.714 512.766Z" fill="#DCDCDB"/>
<path d="M609.676 609.401C620.288 601.997 687.396 555.349 694.314 554.088L695.101 554.575C693.229 559.206 684.665 562.601 681.435 565.367C673.127 572.491 616.192 605.976 614.034 609.718C611.876 609.919 611.699 610.004 609.676 609.401Z" fill="#DEDEDD"/>
<path d="M747.728 610.54L763.392 603.977C763.685 610.388 763.398 617.652 763.283 624.135C758.864 626.622 752.689 630.052 747.813 631.283C747.709 624.422 747.758 617.414 747.728 610.54Z" fill="#E7E7E6"/>
<path d="M467.007 504.82C468.101 505.539 469.16 506.952 470.062 507.988C454.42 513.479 439.185 518.72 423.296 523.509C414.662 526.117 406.553 529.743 397.596 531.833C395.992 530.036 395.612 527.519 396.658 525.343C399.169 524.32 401.589 527.622 404.088 526.66C424.838 518.634 445.811 511.578 467.007 504.82Z" fill="#DCDCDB"/>
<path d="M640.433 505.849C647.46 512.089 649.892 513.753 659.035 516.319L658.907 530.791C653.403 529.018 645.589 527.086 639.921 526.038C639.848 520.889 639.5 510.676 640.433 505.849Z" fill="#646464"/>
<path d="M85.9342 601.966C91.3571 603.088 96.4143 604.117 101.884 604.97C102.015 611.57 102.013 618.176 101.879 624.781C96.3759 623.611 91.1048 620.656 85.9092 619.687L85.9342 601.966Z" fill="#E7E7E6"/>
<path d="M78.3208 456.441C79.2113 457.355 80.6272 463.565 81.6488 465.765C85.0164 473.01 87.051 476.429 92.6367 482.041C90.3857 483.833 87.7434 485.515 85.3364 487.123C81.7963 488.891 78.6073 489.987 74.9111 491.328C75.0909 479.628 76.2314 467.959 78.3208 456.441Z" fill="#E7E7E6"/>
<path d="M112.647 780.617C126.924 785.87 139.688 785.443 154.261 782.268L154.915 782.865C155.228 784.48 155.438 785.394 154.729 786.912C148.261 789.788 140.688 791.61 133.613 791.762C127.559 791.896 117.962 791.256 113.573 786.314C112.135 784.699 112.612 782.615 112.647 780.617Z" fill="#FCFCFB"/>
<path d="M476.415 318.473C477.948 318.169 477.299 318.015 478.467 318.598C476.793 321.167 470.847 323.68 467.909 324.977C458.951 328.933 445.44 329.233 436.595 325.349C434.121 323.8 431.962 321.732 429.778 319.781C447.938 321.848 458.338 321.338 476.415 318.473Z" fill="#868686"/>
<path d="M686.47 460.939C692.998 460.573 695.759 463.468 699.111 469.183C703.646 476.923 707.614 488.744 705.914 497.794C705.536 499.798 703.866 500.371 702.287 501.261C700.282 501.785 698.24 502.602 696.362 502.035C697.307 497.885 700.336 497.087 699.447 489.165C698.13 477.447 695.302 468.763 686.47 460.939Z" fill="#FCFCFB"/>
<path d="M415.743 415.8C418.3 415.679 420.585 415.276 422.504 416.869C421.319 423.194 407.984 427.106 411.702 444.632C410.432 444.991 409.679 445.058 408.394 445.211C398.409 442.237 405.719 423.407 411.144 418.739C412.604 417.478 414.064 416.686 415.743 415.8Z" fill="#E7E7E6"/>
<path d="M228.181 768.703C228.572 768.734 229.285 769.112 229.659 769.264L229.692 770.373C228.444 771.811 227.02 772.567 225.334 773.39C213.314 779.258 203.57 779.849 190.893 775.443C190.329 775.126 189.747 774.797 189.25 774.377C188.111 773.42 187.776 772.39 187.591 770.97C188.658 769.416 188.982 769.337 190.858 769.66C204.216 771.964 214.897 772.457 228.181 768.703Z" fill="#FCFCFB"/>
<path d="M637.744 294.838C638.214 295.059 646.899 305.868 649.825 308.182C646.869 311.354 643.504 316.205 640.865 319.784C639.085 322.468 638 323.94 635.934 326.402C635.007 316.133 634.758 304.8 637.744 294.838Z" fill="#FCFCFB"/>
<path d="M428.342 420.549C431.295 420.391 433.791 421.64 434.869 424.388C434.354 427.697 425.993 437.185 423.054 441.335C410.556 445.838 417.644 426.289 428.342 420.549Z" fill="#DCDCDB"/>
<path d="M402.801 326.694C403.88 326.665 403.827 326.701 404.844 327.095C404.479 328.927 403.539 330.026 402.573 331.587C396.471 341.447 393.956 353.35 392.142 364.636C384.344 351.128 389.949 334.816 402.801 326.694Z" fill="#646464"/>
<path d="M518.798 389.032L519.171 389.113C538.131 393.444 545.035 415.061 533.198 429.903L531.275 430.768L530.637 430.36C538.652 411.775 534.124 401.306 518.798 389.032Z" fill="#646464"/>
<path d="M357.553 377.747C368.002 380.798 374.11 395.966 370.971 405.818C369.525 410.355 368.038 412.076 364.682 415.321C363.531 415.981 362.824 416.2 361.601 416.643C360.862 415.647 363.714 411.597 364.347 409.921C368.909 397.837 365.485 387.537 357.553 377.747Z" fill="#646464"/>
<path d="M526.353 498.446C524.462 503.363 523.153 505.764 517.742 507.477C514.437 508.525 512.336 506.081 511.412 503.187C511.543 498.598 515.394 493.54 517.936 489.847C519.724 487.251 521.099 487.136 524.035 486.782L523.388 487.757C521.051 488.799 521.278 488.769 520.528 490.688C520.881 494.223 523.728 496.197 526.353 498.446Z" fill="#DCDCDB"/>
<path d="M396.328 657.206C403.337 657.7 421.111 660.235 427.097 662.898L426.066 663.793C419.086 666.572 410.705 667.328 403.666 664.202C400.614 662.843 397.524 660.393 396.328 657.206Z" fill="#646464"/>
<path d="M588.302 139.66C589.627 140.382 592.535 142.425 593.914 143.339C588.556 152.965 587.025 156.654 585.228 167.62L585.017 168.854L584.374 169.267C583.811 168.62 583.68 168.509 583.431 167.666C580.225 156.814 583.31 149.067 588.302 139.66Z" fill="#646464"/>
<path d="M157.998 271.212C158.658 271.868 161.229 276.674 161.79 277.866C165.333 285.408 171.63 291.518 169.005 300.114L168.33 300.299C168.163 300.163 167.439 299.595 167.348 299.452C161.221 289.728 157.58 282.35 157.998 271.212Z" fill="#646464"/>
<path d="M302.659 403.372C310.923 407.273 315.126 406.87 323.169 402.943C321.42 405.671 320.501 406.808 318.366 409.264C311.852 414.028 307.483 412.883 300.098 411.08C300.976 408.968 301.935 405.643 302.659 403.372Z" fill="#FCFCFB"/>
<path d="M475.29 670.363C477.134 670.423 503.309 675.932 503.668 676.158L503.275 676.919C497.045 679.235 490.422 679.924 484.033 677.669C480.108 676.28 477.143 674.141 475.29 670.363Z" fill="#646464"/>
<path d="M400.453 410.44C403.443 410.168 409.097 409.048 410.4 412.021C409.649 414.448 406.138 417.685 404.249 419.672C401.082 420.074 397.644 419.647 395.383 417.24C394.612 415.009 394.641 415.964 395.335 413.636C396.906 411.697 398.186 411.374 400.453 410.44Z" fill="#E7E7E6"/>
<path d="M358.722 209.036C359.41 215.99 354.916 228.753 356.621 237.016C357.134 239.503 357.708 249.144 357.602 251.768L356.891 251.092C356.287 249.523 355.744 247.931 355.262 246.32C351.761 234.261 352.63 220.117 358.722 209.036Z" fill="#E7E7E6"/>
<path d="M460.48 408.268C470.342 410.85 473.498 429.934 463.991 437.478H461.904L461.417 436.813C464.232 430.732 466.868 430.116 465.933 422.542C465.206 416.649 463.151 413.362 460.48 408.268Z" fill="#868686"/>
<path d="M538.869 456.131C557.458 455.192 571.565 483.528 558.817 496.209L558.089 496.045C557.596 494.917 557.97 494.911 558.428 493.674C565.799 473.729 556.768 462.767 538.869 456.131Z" fill="#E7E7E6"/>
<path d="M402.451 748.399C407.48 748.82 412.265 750.751 417.516 751.001C423.833 751.3 429.591 749.197 435.745 748.795L435.022 749.606C432.51 751.251 429.961 752.543 427.022 753.231C418.331 755.279 409.912 752.963 402.451 748.399Z" fill="#646464"/>
<path d="M311.088 578.773L311.445 580.224C306.622 582.521 295.659 589.096 291.125 586.512C292.432 584.13 307.135 580.193 311.088 578.773Z" fill="#E7E7E6"/>
<path d="M521.135 762.104L521.417 762.25C520.663 763.14 519.951 763.621 518.907 764.157C511.187 768.143 499.77 766.778 491.824 764.328L491.026 764.03L491.193 763.548C502.693 765.163 509.864 765.035 521.135 762.104Z" fill="#646464"/>
<path d="M478.414 448.239C474.897 448.556 453.4 443.901 451.99 442.146C453.91 441.908 476.993 446.722 482.735 447.258C481.431 447.478 479.484 447.648 478.414 448.239Z" fill="#DCDCDB"/>
<path d="M524.035 486.782C527.92 485.966 529.943 485.929 531.393 489.78C530.918 492.035 531.4 491.316 529.771 492.681C526.112 492.547 525.456 490.621 523.388 487.757L524.035 486.782Z" fill="#E7E7E6"/>
<path d="M311.088 578.773C314.063 577.664 318.282 575.855 321.321 575.611L321.318 575.696L319.973 575.788L319.861 576.628C317.621 577.591 313.6 579.48 311.445 580.224L311.088 578.773Z" fill="#868686"/>
</g>
<defs>
<clipPath id="clip0_6_322">
<rect width="832" height="938" fill="white"/>
</clipPath>
</defs>
</svg>
