<svg width="832" height="1248" viewBox="0 0 832 1248" fill="none" xmlns="http://www.w3.org/2000/svg">
<g clip-path="url(#clip0_6_322)">
<path d="M0 0H832V1248H0V0Z" fill="none"/>
<path d="M143.445 327.746C135.019 294.838 139.21 256.462 155.989 226.859C161.497 217.142 175.752 202.737 186.509 210.914C208.496 227.627 204.547 277.923 200.217 299.592C217.422 297.279 228.416 297.393 245.142 302.237C252.168 274.7 268.045 244.005 291.923 227.401C299.022 222.465 310.388 222.955 314.597 231.317C321.647 245.321 319.31 265.637 315.313 280.231C310.25 298.15 301.637 314.87 289.986 329.398C326.781 372.198 325.466 425.934 308.911 477.285C313.502 477.074 340.826 473.436 339.188 480.592C338.147 485.143 334.891 494.102 333.326 499.058C329.71 510.875 326.181 522.718 322.741 534.587C330.123 537.362 330.993 538.44 334.66 545.036C337.439 550.033 337.387 562.385 338.563 564.079C345.193 564.71 356.287 549.428 361.32 544.314C372.987 532.46 386.56 522.82 400.806 514.357C403.255 512.898 412.908 510.639 416.169 509.513C397.35 504.589 377.136 489.459 367.707 472.452C365.147 467.835 362.906 462.791 360.252 458.239C357.86 454.093 353.034 449.989 350.817 445.914C345.178 435.542 345.879 420.125 348.692 409.194C351.423 398.578 355.253 395.914 361.739 388.971C363.793 386.774 367.296 373.877 369.661 370.882C390.803 330.049 438.876 311.631 482.57 323.972C507.092 330.781 525.615 345.86 538.637 367.491C542.094 373.232 547.853 391.635 549.573 393.684C562.128 408.64 563.335 422.581 559.001 441.711C557.489 448.384 552.879 456.43 546.712 460.474C545.738 461.156 541.311 464.82 540.725 465.701C529.629 482.383 519.728 492.825 501.734 502.53C499.714 503.617 497.626 504.571 495.483 505.387C504.72 507.513 513.04 509.812 521.989 512.866C527.649 514.797 533.417 514.771 538.877 518.094C544.41 521.226 546.381 527.195 549.645 532.28C551.729 535.527 555.592 539.368 557.07 542.869C569.228 571.658 559.338 612.257 533.817 630.417C534.205 634.725 534.619 638.716 534.605 643.061C539.77 638.394 560.209 621.057 562.007 616.925C576.043 584.642 572.846 538.571 592.847 509.044C596.69 503.371 619.002 490.425 625.475 486.386C608.978 480.095 598.886 469.8 591.883 453.852C581.689 429.764 585.888 401.479 583.077 376.026C582.219 368.256 575.975 361.609 575.861 352.937C575.735 343.247 578.274 336.346 584.062 328.6C580.964 321.523 579.469 314.637 582.185 307.106C586.337 295.6 597.65 300.807 607.212 300.408C616.295 300.028 624.11 297.462 632.923 295.24C659.328 287.927 695.125 290.012 708.297 318.202C737.201 329.888 733.373 365.32 725.047 389.515C736.238 409.774 726.528 433.955 703.445 438.926C700.349 447.375 696.777 451.885 697.478 460.452C702.781 464.712 709.376 472.516 714.24 475.59C729.929 485.513 764.629 496.273 773.937 513.781C789.028 542.18 793.594 585.363 798.366 617.053C802.791 646.419 800.012 672.835 769.707 686.047C772.248 704.425 775.436 734.608 775.448 753.09C780.404 754.126 786.511 754.796 790.193 758.154C792.923 763.029 792.46 778.245 791.009 783.498C789.668 788.33 774.485 792.657 769.664 794.448C768.39 856.507 770.091 919.236 769.609 981.362C769.542 990.076 769.42 999.259 769.688 1007.95C774.077 1009.73 784.548 1013.35 787.066 1016.69C787.919 1021.89 772.468 1024.89 769.591 1028.75C767.994 1040.53 752.128 1039.85 744.509 1035.6C729.374 1043.87 720.213 1047.25 704.231 1053.91L668.19 1069.26L622.269 1088.65C606.141 1095.66 589.058 1103.46 572.759 1109.86C569.38 1120.27 549.006 1120.61 543.83 1111.35C542.402 1111.01 536.576 1110.34 534.581 1110.01C527.574 1108.8 520.587 1107.48 513.624 1106.04L391.66 1081.61C375.874 1078.57 360.013 1075.49 344.332 1071.96C337.102 1070.34 329.709 1068.5 322.302 1068.06C311.784 1073.63 295.413 1082.68 284.805 1087.34C264.322 1078.43 239.946 1069.15 218.945 1061.37L218.3 1061.5C212.084 1062.81 139.78 1045.82 128.011 1042.67C121.329 1040.91 114.751 1038.78 108.31 1036.28C107.185 1041.03 104.249 1044.05 99.5125 1044.9C90.2307 1046.57 81.9381 1045.19 79.4122 1035.25C79.2233 1034.54 78.8259 1030.06 78.615 1029.95C72.4423 1026.72 61.0613 1025.58 56.2842 1020.34C53.847 1012.65 73.5895 1007.52 78.9898 1005.7C79.027 1001.16 78.3419 969.278 79.5957 967.237L79.6292 850.383L79.7365 815.277C79.753 809.287 80.0017 800.158 79.358 794.32C75.0676 793.626 59.9692 791.932 57.9704 788.489C55.3474 783.973 54.0222 761.95 60.0244 759.092C65.6882 756.399 74.3093 754.571 80.4826 752.664C79.653 746.149 79.4378 732.481 80.3954 725.949C40.7442 722.451 27.2076 704.267 31.4489 665.602C32.1581 659.137 33.1988 651.794 33.8081 645.267C33.1885 633.829 29.4677 618.369 40.3576 609.424C40.8124 609.05 41.2734 608.685 41.7404 608.328C44.046 590.313 47.0143 572.388 50.6395 554.591C53.5942 539.313 54.9883 523.123 68.8632 513.315C82.6823 503.546 98.7415 499.525 115.507 499.448C79.1684 449.328 101.831 367.397 143.445 327.746Z" fill="#353434"/>
<path d="M452.356 859.182L462.541 861.004C463.298 877.476 469.319 941.612 480.413 951.844C462.078 964.196 438.855 994.299 473.587 1001.49C495.97 1006.12 535.583 997.303 533.582 968.26C537.03 968.979 539.796 968.851 543.283 968.839L543.289 1063.94C543.332 1077.09 542.674 1099.43 543.831 1111.35C542.403 1111.01 536.576 1110.34 534.582 1110.01C527.574 1108.8 520.587 1107.48 513.625 1106.04L391.66 1081.61C375.874 1078.57 360.013 1075.49 344.332 1071.96C337.103 1070.34 329.709 1068.5 322.302 1068.06C311.784 1073.63 295.414 1082.68 284.806 1087.34C264.322 1078.43 239.946 1069.15 218.945 1061.37L218.3 1061.5C212.085 1062.81 139.78 1045.82 128.012 1042.67C121.329 1040.91 114.751 1038.78 108.311 1036.28C108.378 1028.77 108.071 1020.43 107.964 1012.82C121.241 1019.81 133.409 1026.4 149.037 1028.55C160.845 1030.18 187.502 1032.38 190.211 1015.49C191.164 1009.55 186.526 1002.49 182.838 998.004C187.396 999.424 195.859 1000.99 200.821 1001.98C218.483 1005.48 237.036 1009.7 255.06 1006.75C260.219 1005.9 266.407 1004.45 269.578 999.893C271.38 997.297 271.729 992.123 271.057 989.168C268.2 976.603 250.233 970.113 240.181 963.373L243.212 962.849C255.108 960.923 275.382 952.112 287.78 950.948C287.645 956.597 287.053 961.831 291.207 966.268C296.247 971.673 306.984 970.728 312.14 966.03C315.722 962.764 314.585 951.899 314.507 947.273C328.606 947.785 343.808 951.015 358.123 951.253C361.525 951.307 365.076 952.477 368.276 952.514C363.47 958.267 361.965 961.441 360.583 968.797C361.993 973.629 363.712 977.687 368.748 979.857C385.501 987.084 406.454 983.72 423.267 979.077C447.592 972.367 452.47 962.154 444.396 937.408C452.153 919.925 451.882 879.487 452.356 859.182Z" fill="#E7E7E6"/>
<path d="M286.953 1005.39C307.726 1013.39 328.943 1020.19 350.498 1025.76C358.238 1027.7 366.607 1029.37 374.476 1030.69C376.137 1030.97 376.894 1031.65 377.78 1032.85C376.907 1038.46 329.918 1064.18 322.302 1068.06C311.784 1073.63 295.413 1082.68 284.805 1087.34C264.322 1078.43 239.946 1069.15 218.945 1061.37C213.948 1059.46 195.65 1053.34 193.472 1050.39C194.894 1046.16 205.241 1043.77 209.488 1042.24C237.015 1032.25 261.633 1020.16 286.953 1005.39Z" fill="#353434"/>
<path d="M287.172 1011.37C292.192 1012.14 297.984 1015.41 303.01 1016.91C324.712 1023.39 346.652 1031.13 369.018 1034.76C341.464 1051.18 314.341 1067.34 285.455 1081.43C282.912 1081.65 213.138 1053.35 203.711 1049.72C231.686 1040.53 261.877 1026.45 287.172 1011.37Z" fill="#FCFCFB"/>
<path d="M243.529 1042.03C245.447 1041.92 247.138 1041.89 249.018 1042.35C255.927 1044.02 299.979 1058.57 302.061 1061.98L300.595 1064.09C298.69 1064.05 247.512 1046.36 242.274 1044.23L243.529 1042.03Z" fill="#DCDCDB"/>
<path d="M228.903 1048.16C231.806 1048.1 234.384 1048.45 237.187 1049.19C244.468 1051.09 286.876 1066.01 290.332 1069.07L289.381 1070.35C287.991 1070.57 286.687 1070.66 285.293 1070.39C278.55 1069.06 232.093 1052.38 228.368 1049.68L228.903 1048.16Z" fill="#DCDCDB"/>
<path d="M256.123 1034.54C258.476 1034.84 260.834 1035.45 263.131 1036.04C270.015 1037.8 312.937 1051.31 315.005 1054.81L314.338 1056.95C313.787 1056.97 313.275 1056.99 312.729 1056.89C308.568 1056.17 256.766 1038.04 255.638 1036.6L256.123 1034.54Z" fill="#DCDCDB"/>
<path d="M283.312 1021.75L283.677 1021.79C294.092 1022.93 311.168 1029.97 322.092 1033.35C328.604 1035.37 335.688 1036.75 341.958 1039.38L342.261 1040.34L340.783 1041.63C339.304 1041.9 337.872 1042.06 336.379 1041.81C331.528 1041.01 284.339 1026.53 282.358 1023.79L283.312 1021.75Z" fill="#DCDCDB"/>
<path d="M270.695 1028.68C272.012 1028.65 273.35 1028.73 274.644 1028.98C279.438 1029.9 326.367 1044.94 328.374 1046.5C328.694 1046.75 328.838 1047.17 329.07 1047.5L328.276 1049.4C322.689 1048.95 272.717 1033.18 270.085 1030.47L270.695 1028.68Z" fill="#DCDCDB"/>
<path d="M449.7 1035.33C451.849 1035.11 453.667 1035.36 455.742 1035.88C468.81 1039.21 481.716 1044.05 494.657 1047.92C500.595 1049.69 511.495 1051.68 516.413 1054.22C517.837 1054.95 518.339 1055.38 518.798 1056.87C517.11 1059.72 472.848 1081.35 467.928 1083.26C463.402 1082.18 399.234 1060.67 398.031 1059.53C397.384 1058.92 397.573 1058.18 397.531 1057.33C404.485 1053.5 412.363 1051.26 419.676 1048.19C429.714 1043.98 439.473 1039.08 449.7 1035.33Z" fill="#353434"/>
<path d="M450.615 1039.54C455.022 1039.14 502.885 1054.53 510.548 1057.11C496.424 1064.8 481.744 1071.65 467.435 1079.02C447.12 1071.54 426.37 1064.36 405.663 1058.05C420.795 1052.31 435.677 1045.77 450.615 1039.54Z" fill="#FCFCFB"/>
<path d="M671.104 971.07C675.511 965.506 674.072 943.471 674.054 935.366L673.688 873.094C673.597 866.714 671.859 837.653 675.041 833.509C675.888 833.674 677.089 833.686 677.181 834.314C681.551 864.752 683.891 902.685 686.659 932.63C687.957 946.719 689.115 972.471 692.553 980.131C684.513 989.058 660.114 1012.54 674.084 1024.8C680.905 1030.8 696.478 1030.36 705.237 1029.53C720.207 1028.28 729.965 1020.3 741.815 1012.25C741.674 1019.21 740.114 1030.67 744.509 1035.6C729.374 1043.87 720.213 1047.25 704.231 1053.91L668.19 1069.26L622.269 1088.65C606.141 1095.66 589.058 1103.46 572.759 1109.86C573.494 1095.88 572.95 1076.63 572.964 1062.23L573.151 966.633C574.246 968.285 573.833 973.19 573.802 975.494C578.068 975.707 590.331 977.462 594.001 979.186C585.734 984.994 574.285 993.653 581.189 1005.17C583.827 1009.56 591.272 1011.11 595.763 1011.7C615.052 1014.2 633.203 1010 651.44 1004.02C656.353 1002.41 663.826 1002.99 668.257 999.083C675.517 992.794 672.463 979.132 671.104 971.07Z" fill="#E7E7E6"/>
<path d="M314.577 839.889C325.649 844.131 336.56 848.78 347.289 853.826C351.129 850.706 354.365 846.788 357.655 843.076C366.602 844.795 375.559 846.465 384.524 848.079C384.533 868.896 384.419 918.371 393.481 936.018C380.392 941.539 378.561 943.117 368.275 952.514C365.075 952.477 361.524 951.308 358.123 951.253C343.807 951.015 328.605 947.785 314.506 947.273C314.476 912.222 313.741 874.691 314.577 839.889Z" fill="#FCFCFB"/>
<path d="M255.157 825.35C264.83 827.671 277.6 829.219 288.103 831.462C287.19 843.369 287.719 861.668 287.719 874.094L287.78 950.948C275.382 952.112 255.107 960.923 243.211 962.849L240.181 963.373C238.549 962.313 236.497 960.753 234.878 959.589C237.005 957.493 238.531 955.622 239.281 952.715C242.871 938.773 244.254 922.71 245.94 908.371L255.157 825.35Z" fill="#FCFCFB"/>
<path d="M573.014 876.519C584.415 871.949 595.773 867.269 607.084 862.485C608.451 886.159 609.969 909.821 611.639 933.471C612.145 940.784 613.047 960.156 614.205 966.877C606.436 971.179 601.253 974.141 594.002 979.186C590.332 977.462 578.069 975.707 573.803 975.494C573.834 973.19 574.247 968.285 573.152 966.633L573.014 876.519Z" fill="#FCFCFB"/>
<path d="M532.808 873.783C536.347 874.447 539.89 875.099 543.436 875.727C543.03 906.762 542.979 937.804 543.283 968.839C539.796 968.851 537.03 968.979 533.582 968.26C532.525 960.667 531.613 956.512 528.965 949.303C538.258 934.988 533.918 891.711 532.808 873.783Z" fill="#FCFCFB"/>
<path d="M78.9902 1005.7C79.0274 1001.16 78.3423 969.278 79.5961 967.237L79.7362 1014.74C79.7417 1018 79.952 1032.71 79.4126 1035.25C79.2236 1034.54 78.8262 1030.06 78.6153 1029.95C72.4427 1026.72 61.0617 1025.58 56.2845 1020.34C53.8473 1012.65 73.5898 1007.52 78.9902 1005.7Z" fill="#E7E7E6"/>
<path d="M769.688 1007.95C774.077 1009.73 784.549 1013.35 787.066 1016.69C787.919 1021.89 772.468 1024.89 769.591 1028.75C769.189 1023.66 769.603 1013.41 769.688 1007.95Z" fill="#E7E7E6"/>
<path d="M452.598 327.491C493.812 326.86 527.215 349.736 540.271 389.129C537.51 389.158 532.002 389.081 529.815 390.428C511.578 401.671 510.337 437.383 518.283 455.013C521.209 461.505 525.452 464.876 531.505 466.923C527.383 471.743 524.196 476.451 519.542 481.041C503.886 496.481 487.787 502.215 466.939 506.213C440.115 510.894 408.056 503.789 387.384 485.65C351.278 453.968 358.215 390.564 387.982 357.106C405.207 337.744 427.138 328.938 452.598 327.491Z" fill="#FCFCFB"/>
<path d="M410.863 383.53C428.5 381.288 470.684 382.942 485.36 393.801C504.128 407.685 505.058 445.837 486.47 460.716C478.03 467.472 470.205 468.958 459.724 470.318C445.687 471.046 432.117 470.704 418.252 469.923C393.924 468.552 373.699 461.015 370.877 433.739C369.567 421.077 371.651 407.215 379.444 396.785C386.246 387.682 400.3 384.759 410.863 383.53Z" fill="#353434"/>
<path d="M459.353 411.981C472.76 412.909 472.331 436.986 462.071 443.648C447.816 444.236 449.58 415.789 459.353 411.981Z" fill="#FCFCFB"/>
<path d="M399.241 411.284C414.329 409.381 412.343 434.103 404.279 441.25C390.257 444.098 391.426 418.895 399.241 411.284Z" fill="#FCFCFB"/>
<path d="M177.154 216.282C180.326 216.305 184.446 218.353 186.207 221.083C199.65 241.924 196.983 271.453 194.128 294.904C193.198 302.54 189.75 310.463 188.659 318.12C188.447 319.505 188.91 319.753 189.636 320.628C195.757 320.709 197.006 313.442 198.068 308.748C212.017 304.187 227.858 305.248 241.855 309.168C265.946 315.748 286.405 331.684 298.676 353.429C315.142 382.953 316.286 426.72 307.208 458.485C306.01 443.906 304.587 429.943 299.981 415.967C311.438 395.701 307.016 372.117 291.574 355.29C280.69 343.552 265.585 336.62 249.586 336.023C205.226 334.343 169.255 378.047 155.965 416.165C151.445 429.129 150.033 441.341 149.513 454.919C151.74 495.351 170.494 509.874 200.424 532.464C203.978 535.146 208.797 540.5 211.922 543.831C188.918 546.434 182.373 558.898 176.339 579.05C172.709 580.252 169.654 581.705 166.192 583.283C168.602 568.631 166.057 544.437 158.924 531.445C169.613 536.139 180.476 541.241 191.824 543.949C185.42 539.322 175.532 533.501 168.285 530.173C115.93 506.123 95.7233 467.72 107.765 410.417C112.448 387.088 122.529 365.178 137.201 346.443C139.014 344.094 142.977 338.611 145.15 337.191C147.519 337.283 148.121 338.49 150.502 340.136C153.684 338.102 151.539 331.171 150.571 328.006C141.584 298.599 146.467 232.391 177.154 216.282Z" fill="#FCFCFB"/>
<path d="M173.319 327.869C171.828 328.708 168.773 330.828 167.403 329.497C163.74 325.939 162.208 315.684 161.728 310.786C159.888 292.007 161.107 269.572 171.323 253.223C172.381 251.724 174.353 250.289 176.217 250.256C183.322 250.132 184.34 263.69 184.55 268.887C185.059 279.297 182.305 322.83 173.319 327.869Z" fill="#DCDCDB"/>
<path d="M173.319 327.869C172.937 326.01 175.84 312.401 176.84 309.665C180.578 299.441 179.933 278.407 183.25 269.424L184.55 268.887C185.059 279.297 182.305 322.83 173.319 327.869Z" fill="#252525"/>
<path d="M456.135 719.075C447.857 724.358 435.793 730.781 426.739 736.259C417.384 741.847 407.213 746.826 398.122 752.785C396.415 753.907 396.058 756.783 394.744 757.733C392.065 759.677 387.576 760.847 386.618 764.333C388.511 770.92 401.453 767.971 406.987 770.731C429 772.621 463.684 778.544 485.597 783.486C487.839 786.849 488.229 787.495 491.418 789.945C494.258 790.81 505.466 793.266 506.374 793.644C509.739 792.779 512.361 791.718 515.576 790.469C535.153 795.186 554.633 799.524 574.045 804.972C581.967 807.196 590.44 808.945 598.203 811.584C603.735 813.357 608.107 814.704 613.754 816.02C626.365 809.207 640.841 798.184 653.849 791.127C657.609 789.086 663.65 784.692 667.423 783.315C676.511 775.814 704 764.406 709.218 755.79C707.017 752.267 701.891 751.755 701.416 750C702.793 748.8 703.952 748.794 705.993 749.074C718.342 750.774 731.819 752.59 744.028 754.766C754.036 756.551 770.298 758.306 779.612 760.884C753.347 771.938 727.156 782.023 700.806 792.779L564.46 848.354C550.034 845.075 533.117 842.479 518.361 839.883L424.872 823.619C412.974 821.547 400.357 819.841 388.603 817.525C392.426 815.228 396.261 812.955 400.108 810.706C409.988 804.844 431.979 792.163 441.956 787.891C443.164 786.49 443.138 786.533 443.865 784.832C442.365 780.823 433.258 780.189 428.9 779.525C401.921 775.399 377.328 764.016 353.06 751.902C349.668 753.413 342.357 757.666 339.1 758.41C321.802 762.359 305.585 769.086 288.613 774.132C285.647 775.015 282.34 775.96 279.741 777.593L279.61 779.043C281.584 782.218 285.889 782.998 289.503 784.113C280.814 787.91 271.781 792.553 263.233 796.758C257.518 796.398 250.041 794.747 244.241 793.662C234.495 791.816 224.738 790.024 214.973 788.287L116.635 770.993C101.603 768.367 81.9282 764.083 67.2393 762.462C76.1322 761.146 131.273 744.961 133.825 746.04C134.36 748.057 133.354 752.261 133.189 755.162C133.618 755.333 134.05 755.497 134.485 755.656C141.854 758.318 231.539 780.25 236.955 779.927C240.434 779.72 320.067 752.858 325.963 749.799C328.178 748.648 328.777 747.088 329.569 744.857C326.271 741.006 318.846 737.764 325.47 730.622C325.531 729.075 325.307 727.064 326.085 726.058C338.129 728.106 389.771 738.63 397.808 737.271C403.876 736.241 410.165 733.547 416.014 731.567C424.017 728.861 432.11 726.588 440.162 724.059C445.452 722.396 450.735 720.312 456.135 719.075Z" fill="#E7E7E6"/>
<path d="M329.568 744.857C331.117 746.649 331.348 746.893 331.6 749.227C328.938 754.936 299.044 762.487 291.035 765.271C277.691 770.037 264.31 774.686 250.89 779.226C246.771 780.597 241.743 782.913 237.527 783.4C236.114 783.565 137.841 760.457 135.008 759.214C133.802 758.684 133.547 756.387 133.189 755.162C133.618 755.332 134.05 755.497 134.485 755.655C141.854 758.318 231.539 780.25 236.955 779.927C240.433 779.72 320.067 752.858 325.963 749.799C328.178 748.648 328.777 747.088 329.568 744.857Z" fill="#DCDCDB"/>
<path d="M456.135 719.075C447.857 724.358 435.793 730.781 426.739 736.259C426.542 735.893 426.485 735.753 426.183 735.412C422.432 731.146 402.202 740.756 394.901 740.659C382.563 740.494 371.119 737.447 359.097 735.156C347.901 733.023 336.818 731.549 325.47 730.622C325.531 729.075 325.308 727.064 326.085 726.058C338.13 728.106 389.771 738.63 397.809 737.271C403.876 736.241 410.165 733.547 416.014 731.567C424.017 728.861 432.11 726.588 440.162 724.059C445.452 722.396 450.735 720.312 456.135 719.075Z" fill="#DCDCDB"/>
<path d="M506.373 793.644C509.738 792.779 512.36 791.718 515.575 790.469C535.152 795.186 554.633 799.524 574.044 804.972C581.967 807.196 590.439 808.945 598.203 811.584C597.975 811.639 597.747 811.688 597.519 811.742C594.105 813.016 585.924 811.291 582.094 810.195C564.02 805.033 546.09 800.585 527.705 796.642C522.245 795.472 516.63 796.746 511.272 795.825C510.601 795.71 508.116 794.235 507.008 793.851L506.373 793.644Z" fill="#DCDCDB"/>
<path d="M406.986 770.731C429 772.621 463.684 778.544 485.597 783.486C487.838 786.849 488.229 787.495 491.418 789.945C491.162 790.03 489.276 790.597 489.13 790.554C473.757 785.96 457.235 779.677 441.064 779.866C438.891 778.33 437.616 777.374 435.181 776.149C429.83 773.461 409.705 773.632 406.986 770.731Z" fill="#DCDCDB"/>
<path d="M709.218 755.79C711.498 758.58 710.175 760.256 708.98 763.547C698.722 768.471 687.275 776.551 676.212 782.072L675.706 781.712C678.601 778.087 693.59 773.37 695.546 768.995C688 770.469 672.811 783.254 667.423 783.315C676.511 775.814 704 764.406 709.218 755.79Z" fill="#DCDCDB"/>
<path d="M400.107 810.706C409.987 804.844 431.978 792.163 441.955 787.891C442.736 788.507 443.502 789.141 444.255 789.787C443.025 791.81 438.627 793.169 436.293 794.156C424.789 799.012 414.385 806.368 402.886 811.145C401.943 811.535 401.024 811.005 400.107 810.706Z" fill="#DCDCDB"/>
<path d="M473.973 795.265C498.699 798.635 524.317 805.49 549.035 809.646C549.319 810.036 549.601 810.42 549.885 810.81L549.559 811.834C547.35 814.052 521.797 827.83 518.563 828.037C508.729 826.696 443.599 816.045 441.302 812.065C443.705 808.903 469.319 796.947 473.973 795.265Z" fill="#353434"/>
<path d="M473.635 798.933C496.726 803.071 519.775 808.031 542.968 811.511C535.11 816.27 527.043 820.682 518.791 824.722C509.149 823.704 499.622 821.639 490.105 819.835L447.978 811.882C456.504 807.489 465.199 803.522 473.635 798.933Z" fill="#FCFCFB"/>
<path d="M702.867 472.617C713.259 482.754 714.789 502.628 716.544 517.167C710.766 520.332 705.012 522.856 699.02 525.554C701.562 528.793 709.724 535.723 713.357 539.191C706.475 558.925 697.521 577.364 688.988 596.335C685.264 604.605 668.746 635.858 670.361 642.811L670.781 642.927C675.469 639.795 716.825 548.737 720.031 537.377C717.538 534.639 711.571 529.794 708.541 527.213C713.033 525.53 718.507 522.519 722.469 519.847C722.353 511.375 718.574 492.993 716.392 484.416C734.574 493.299 762.399 504.964 771.511 523.912C782.373 546.494 798.397 634 790.364 656.266C786.237 667.704 776.948 675.005 766.312 680.038C750.208 688.003 728.729 693.371 711.107 696.924C712.857 680.806 709.48 661.812 696.503 650.867C705.079 647.954 713.71 645.535 722.323 642.373C731.52 638.997 741.456 633.854 751.013 632.086C752.147 631.873 763.398 633.287 765.245 633.476C766.312 632.178 766.019 632.921 765.995 631.117C762.094 625.627 748.435 626.614 742.565 627.821C737.713 599.734 732.386 563.836 742.425 536.901C742.998 535.362 744.698 531.477 744.454 530.098L743.516 529.939C742.571 530.517 741.535 531.226 740.937 532.168C725.133 557.142 733.099 602.684 736.08 629.82C717.952 637.351 695.766 643.147 678.937 651.19L664.168 648.247C672.281 603.681 683.051 559.953 693.596 515.932C697.107 501.28 701.416 487.799 702.867 472.617Z" fill="#FCFCFB"/>
<path d="M671.33 336.604C674.475 336.736 677.327 336.763 679.644 339.16C680.521 341.245 678.504 350.86 678.382 354.344C677.882 368.936 684.453 375.889 689.701 388.206C691.194 391.707 690.207 399.568 693.4 402.987C702.421 406.506 701.964 391.032 711.741 391.094C728.6 391.204 723.371 416.841 715.593 424.493C708.681 431.29 706.152 431.754 697.777 432.311C695.327 441.712 693.943 446.134 689.67 454.805C690.749 459.592 690.804 465.024 690.822 469.931C682.911 482.57 669.989 492.751 656.25 498.411C650.027 495.51 648.259 493.806 644.821 487.964C651.496 486.8 657.024 485.599 663.223 482.71C666.435 480.886 675.06 475.419 674.682 471.266C672.549 470.093 666.88 473.992 664.57 475.211C659.785 477.7 654.72 479.596 649.472 480.856C638.361 483.44 627.883 482.064 618.411 475.921C593.57 459.807 591.957 432.662 591.294 406.114C590.721 383.175 586.559 358.446 599.678 337.841C612.815 342.339 633.375 343.637 647.125 341.092C655.171 339.603 663.138 337.257 671.33 336.604Z" fill="#FCFCFB"/>
<path d="M652.172 438.226C653.629 438.603 655.835 439.759 655.634 441.421C653.44 459.461 638.58 468.188 623.604 458.082C620.136 454.942 614.924 448.378 615.15 443.52C615.71 442.569 615.973 441.574 617.283 441.726C630.107 443.22 639.756 441.845 652.172 438.226Z" fill="#353434"/>
<path d="M649.173 444.34L649.941 444.517C650.191 446.084 649.63 447.283 648.758 448.635C642.98 457.622 635.599 459.942 626.261 454.657C623.475 452.33 622.39 450.345 620.653 447.22C632.752 447.825 637.58 447.237 649.173 444.34Z" fill="#868686"/>
<path d="M620.428 395.594C632.808 398.729 616.808 418.028 617.734 424.328C621.05 429.229 624.622 426.447 629.016 429.344C629.693 431.302 629.638 430.472 628.645 432.792C624.744 433.618 616.606 433.887 614.156 430.139C609.004 422.266 616.021 413.471 618.6 406.17C619.532 403.535 620.02 398.517 620.428 395.594Z" fill="#353434"/>
<path d="M652.678 389.302C662.858 392.574 661.169 404.464 654.019 409.78C644.925 408.462 644.596 394.325 652.678 389.302Z" fill="#353434"/>
<path d="M604.821 389.943C615.79 389.614 614.687 403.115 608.999 409.241C598.819 411.51 598.938 396.512 604.821 389.943Z" fill="#353434"/>
<path d="M648.387 367.615C655.311 367.088 664.893 368.393 668.867 375.287C669.519 376.419 669.208 376.762 668.727 377.825C666.478 378.232 666.788 377.875 664.436 376.543C653.598 370.867 647.156 377.004 642.858 374.518C641.237 370.748 645.492 368.929 648.387 367.615Z" fill="#353434"/>
<path d="M604.263 367.61C607.986 367.939 612.48 368.784 614.448 372.312C614.491 374.373 614.765 373.696 613.686 375.19C611.693 375.61 606.64 373.845 603.685 373.619L603.287 373.805C600.307 375.198 597.648 376.964 594.595 375.86L594.187 374.789C596.049 370.53 600.031 368.658 604.263 367.61Z" fill="#353434"/>
<path d="M234.508 482.802C238.732 483.442 247.899 483.587 252.678 483.865C278.886 485.386 305.403 484.157 331.633 483.153C326.518 500.103 321.418 517.549 315.599 534.22C304.852 534.565 292.899 536.645 295.675 550.441C286.282 560.231 293.189 560.373 289.262 573.555C292.426 581.251 291.636 583.936 297.916 589.366C295.804 598.613 292.316 611.252 289.266 620.094L282.673 620.502C276.536 621.325 266.108 621.776 259.672 622.227C241.077 623.464 222.467 624.5 203.849 625.335C206.114 615.524 210.533 609.454 215.664 600.972C219.999 601.731 225.845 602.027 228.494 597.746C234.336 588.282 236.288 576.923 233.94 566.052C237.04 563.93 241.746 561.47 241.823 557.319C242.023 546.575 225.576 543.875 217.679 543.438C219.69 536.533 221.561 528.066 223.503 520.871C226.983 508.127 230.652 495.437 234.508 482.802Z" fill="#FCFCFB"/>
<path d="M273.461 371.482C281.831 378.093 289.565 396.866 289.679 407.072C289.931 429.643 287.164 457.405 278.583 478.189C262.358 477.787 246.474 476.649 230.358 476.189C227.101 483.002 221.66 503.06 219.409 510.877C202.358 506.506 196.132 502.417 183.504 490.97C173.267 480.98 168.827 471.169 162.973 458.447L156.57 457.471C156.376 450.88 156.661 444.283 157.423 437.733C172.177 433.663 182.486 421.673 187.875 407.775C209.9 405.636 211.489 401.967 229.703 393.561C227.929 396.174 225.759 398.177 226.886 401.264C233.021 405.253 248.434 396.127 253.774 392.754C261.88 387.636 267.983 379.231 273.461 371.482Z" fill="#FCFCFB"/>
<path d="M207.778 414.269C210.539 415.218 218.237 420.531 222.213 422.073C225.319 423.277 228.436 424.776 232.007 425.755C233.322 426.116 233.277 426.825 233.57 427.807L232.775 429.253C230.646 430.605 228.768 429.197 225.361 429.74C224.281 435.294 228.304 434.707 224.624 443.587C222.997 445.48 221.016 447.7 218.319 447.872C217.021 447.951 215.747 447.491 214.8 446.601C209.087 441.336 212.276 431.299 217.344 426.441C212.613 423.67 205.292 420.646 207.778 414.269Z" fill="#353434"/>
<path d="M251.959 445.147C257.126 445.217 260.251 453.701 261.823 457.818C259.789 465.266 258.69 466.768 251.064 468.405C249.219 468.04 247.259 467.383 246.668 465.492C247.861 463.141 252.524 462.513 255.593 459.68C257.393 453.691 248.87 452.638 251.959 445.147Z" fill="#353434"/>
<path d="M279.841 420.369C281.217 420.396 281.442 420.685 282.564 421.458C283.488 426.985 268.026 432.068 263.826 433.208C263.074 433.1 262.366 432.598 261.652 432.207L261.205 430.6C262.515 427.345 274.302 423.953 279.841 420.369Z" fill="#353434"/>
<path d="M268.54 438.815C271.716 438.699 280.751 439.404 278.756 444.467C276.279 445.814 276.414 445.351 273.219 445.332C268.742 445.588 264.898 446.409 261.213 443.869L261.057 442.738C262.667 440.543 266.021 439.588 268.54 438.815Z" fill="#353434"/>
<path d="M108.015 799.189L183.249 812.632L180.651 835.599C177.816 853.74 165.948 957.7 159.502 965.64C156.181 969.729 147.565 970.875 142.736 971.24C134.545 971.862 115.534 970.868 109.236 964.5C108.468 963.727 108.463 962.258 108.403 961.222C107.488 945.579 108.364 929.431 108.356 913.74L108.377 818.031C108.32 811.846 108.361 805.332 108.015 799.189Z" fill="#FCFCFB"/>
<path d="M108.015 799.189L183.249 812.632L180.651 835.599C165.173 833.893 147.853 828.975 132.611 825.173C124.917 823.253 116.263 819.457 108.377 818.031C108.32 811.846 108.361 805.332 108.015 799.189Z" fill="#E7E7E6"/>
<path d="M630.705 489.849C631.771 491 628.328 515.289 628.242 519.307C627.279 563.775 633.307 607.724 635.752 652.159C629.083 654.67 605.819 662.671 604.195 666.815C596.348 686.845 625.432 679.441 630.284 678.301C629.827 689.319 631.839 686.589 633.289 696.449C633.923 700.726 633.527 712.627 633.46 717.502C618.898 715.565 611.755 715.242 597.241 716.4C599.525 663.262 599.664 610.85 598.605 557.688C598.54 554.416 600.143 539.958 597.29 538.412C598.095 539.261 597.835 538.781 598.131 539.887L596.25 541.17L596.31 540.672C592.251 559.772 593.051 592.327 592.911 612.117C592.797 628.314 592.535 646.699 593.122 662.762C584.245 670.916 579.435 675.657 569.284 682.262C569.298 679.41 568.931 676.199 568.672 673.329C565.921 658.594 558.694 647.619 543.403 644.256C550.888 636.748 561.158 627.23 569.564 620.642C572.976 617.967 581.731 620.417 586.067 621.374C587.476 620.618 586.93 621.16 587.628 619.57L587.112 618.43C583.045 614.859 575.827 614.14 570.703 614.061C578.002 590.756 584.002 532.424 596.579 515.679C602.034 508.417 610.651 503.645 618.143 498.714C613.888 505.954 610.92 510.979 608.85 519.251C610.926 521.559 613.474 524.049 615.662 526.298C612.443 529.108 606.815 532.935 605.366 536.979C602.673 544.492 625.737 628.278 631.308 639.307L632.107 639.496C633.509 637.741 633.198 634.676 632.643 632.598C624.189 600.991 614.388 570.612 610.719 537.94L623.293 526.14L614.473 517.431C618.6 508.001 623.348 497.062 630.705 489.849Z" fill="#FCFCFB"/>
<path d="M114.036 529.633C143.669 528.797 142.906 578.951 138.99 598.604C132.307 602.403 109.234 614.433 109.064 622.775L109.847 623.586C110.726 623.598 111.101 623.64 111.874 623.104C126.285 613.068 142.168 603.278 157.96 595.599C157.727 597.287 157.537 598.982 157.389 600.68C156.075 617.291 167.083 633.951 184.598 635.28L179.053 641.757C149.161 673.877 88.7246 705.047 83.3315 633.214C81.4231 607.8 89.08 543.583 114.036 529.633Z" fill="#FCFCFB"/>
<path d="M741.096 806.916L741.4 807.215C742.845 812.065 741.699 842.43 741.699 849.615L741.748 976.968C738.481 978.108 735.354 979.241 731.928 979.826C722.804 981.38 706.847 981.325 699.039 975.518C696.869 973.897 696.649 972.361 696.265 969.845C692.809 936.335 690.548 902.686 687.281 869.152C686.043 856.403 685.129 843.521 683.228 830.852C692.754 827.074 702.22 823.15 711.625 819.073C721.365 814.759 730.898 810.109 741.096 806.916Z" fill="#DCDCDB"/>
<path d="M189.376 813.534C208.953 817.251 228.57 820.761 248.223 824.064C247.745 829.134 246.836 842.772 245.964 847.104C244.806 859.213 235.658 948.943 231.772 952.545C225.559 958.297 211.584 958.242 203.425 957.889C197.76 957.651 188.303 956.859 184.316 952.148C178.964 945.823 182.399 880.791 183.288 869.737C184.154 858.969 185.722 848.183 187.045 837.458C187.884 829.561 188.853 821.438 189.376 813.534Z" fill="#FCFCFB"/>
<path d="M189.376 813.534C208.954 817.251 228.571 820.761 248.223 824.064C247.746 829.134 246.836 842.772 245.964 847.104C244.876 843.259 239.346 844.192 235.91 844.173C219.357 844.1 203.209 840.487 187.045 837.458C187.884 829.561 188.853 821.438 189.376 813.534Z" fill="#E7E7E6"/>
<path d="M352.855 758.032C355.095 758.038 373.729 767.733 377.096 769.171C395.838 777.185 415.69 782.096 435.615 785.667C396.039 807.166 378.937 813.595 345.973 846.983L339.224 843.978C320.505 835.874 300.598 829.17 281.57 821.742C271.909 817.97 262.061 813.528 252.541 809.348C260.465 805.545 267.93 799.902 275.839 796.185C301.646 784.052 327.049 770.006 352.855 758.032Z" fill="#FCFCFB"/>
<path d="M291.17 796.941C291.455 796.935 291.74 796.935 292.024 796.953C296.516 797.233 354.7 818.354 356.625 820.542L356.347 822.455C353.271 822.778 349.966 821.462 347.102 820.298C329.26 813.04 310.115 808.409 292.8 800.091C291.216 799.329 291.419 798.464 291.17 796.941Z" fill="#E7E7E6"/>
<path d="M314.055 785.167C314.384 785.088 316.159 784.765 316.385 784.802C324.953 786.069 375.533 801.365 379.664 804.801L379.36 806.026C373.85 807.83 356.872 800.316 350.763 798.415C338.992 794.753 326.978 791.286 315.305 787.386C314.185 787.008 314.216 786.063 314.055 785.167Z" fill="#DCDCDB"/>
<path d="M303.863 790.999C308.218 790.926 313.41 792.535 317.534 794.003C333.511 799.695 349.942 804.107 365.863 809.853C367.015 810.268 367.101 812.017 367.358 813.089C360.267 813.187 314.969 797.562 306.037 793.772C304.167 792.98 304.335 792.559 303.863 790.999Z" fill="#DCDCDB"/>
<path d="M329.141 778.769C338.911 778.489 377.1 794.07 389.132 795.935C391.463 796.295 393.23 797.111 393.377 799.591C392.778 799.793 392.938 799.762 392.2 799.902C388.818 800.542 334.072 783.998 329.709 780.786C329.178 780.39 329.237 779.415 329.141 778.769Z" fill="#DCDCDB"/>
<path d="M340.764 773.437C349.053 772.182 374.258 782.608 383.438 784.327C384.983 784.613 403.985 791.048 404.422 791.383L404.492 792.961C398.095 794.985 354.327 778.72 345.241 776.661C343.298 776.222 341.401 775.436 340.764 773.437Z" fill="#DCDCDB"/>
<path d="M602.473 721.744C629.425 719.032 667.038 732.146 692.242 740.982L635.636 778.958C626.426 785.204 616.503 792.937 607.215 798.623L600.794 795.734C575.036 785.326 534.923 772.925 507.27 777.867C521.461 767.258 536.332 757.746 551.18 748.063C564.036 739.684 576.569 730.47 590.759 724.352C595.394 722.353 597.436 722.146 602.473 721.744Z" fill="#FCFCFB"/>
<path d="M574.883 742.353C587.884 742.103 630.918 753.559 642.737 758.897C643.224 760.39 642.944 760.098 642.005 762.042C627.566 756.612 610.639 753.626 595.818 748.983C591.547 747.642 576.293 746.807 573.899 743.797L574.883 742.353Z" fill="#DCDCDB"/>
<path d="M562.459 749.678C571.248 749.013 629.425 761.115 632.344 767.197L631.637 768.934C628.864 768.666 627.468 767.928 624.902 767.032C608.884 761.426 591.906 758.343 575.459 754.193C572.395 753.425 564.194 752.7 562.376 751.177L562.459 749.678Z" fill="#DCDCDB"/>
<path d="M550.994 756.953C563.737 755.595 606.865 766.033 619.453 773.37C620.349 773.894 620.136 774.369 620.227 775.417C615.595 775.442 594.78 768.641 589.306 767.026C583.318 765.302 577.269 763.797 571.17 762.511C567.254 761.664 552.908 759.854 550.784 758.416L550.994 756.953Z" fill="#DCDCDB"/>
<path d="M583.162 735.479C592.511 734.766 642.297 745.802 652.397 751.231C654.293 752.249 654.134 752.974 654.525 754.668C648.326 754.266 639.707 750.074 633.417 748.568C616.953 744.62 601.046 740.768 584.279 738.337C582.994 737.277 583.4 737.703 583.162 735.479Z" fill="#DCDCDB"/>
<path d="M539.784 764.144C549.418 763.858 605.872 775.027 609.926 781.182L609.251 782.84C598.946 781.097 584.57 775.326 574.039 772.974C562.978 770.5 551.255 768.062 540.038 766.831C539.339 766.758 539.523 766.624 538.92 765.747L539.784 764.144Z" fill="#DCDCDB"/>
<path d="M591.987 730.281C609.135 728.295 645.114 737.594 662.217 744.498C663.851 745.156 664.095 746.308 664.527 747.709C662.321 747.551 659.413 746.911 657.298 746.283C638.501 740.732 619.288 734.285 599.664 732.615C597.109 732.402 594.675 732.731 592.36 731.506L591.987 730.281Z" fill="#DCDCDB"/>
<path d="M507.422 702.463C516.305 708.386 518.709 703.645 523.953 705.541C528.727 707.265 528.906 716.814 540.646 706.546C558.531 711.518 567.342 712.207 584.972 721.457C579.867 724.882 573.569 728.191 568.187 731.744C546.053 746.356 523.129 760.427 501.861 776.265C485.452 760.396 428.886 756.557 405.859 754.918C414.793 749.007 486.377 707.265 490.687 708.441L491.297 709.587C494.459 710.842 495.75 710.623 499.181 710.275C503.166 708.094 504.578 705.991 507.422 702.463Z" fill="#FCFCFB"/>
<path d="M491.297 709.587C494.459 710.842 495.749 710.623 499.18 710.275C500.946 711.293 509.004 712.079 511.609 712.396C519.514 713.353 557.082 720.903 559.529 726.619L558.705 727.131C553.988 727.301 533.239 720.153 525.79 718.557C516.213 716.509 502.232 714.693 492.45 712.53C491.929 712.414 491.535 710.397 491.297 709.587Z" fill="#DCDCDB"/>
<path d="M457.535 733.163C466.436 733.748 519.331 742.042 522.806 748.288L522.083 749.952C508.602 745.875 494.708 742.853 480.962 739.812C477.073 738.953 458.188 737.295 456.719 734.309L457.535 733.163Z" fill="#DCDCDB"/>
<path d="M470.431 725.827C480.869 726.619 531.716 734.199 535.525 742.085C528.356 742.463 513.594 737.155 505.899 735.132C500.726 733.803 495.501 732.682 490.237 731.774C487.274 731.244 472.429 729.038 470.822 728.008L470.431 725.827Z" fill="#DCDCDB"/>
<path d="M443.559 741.859C453.128 740.604 507.471 748.94 510.942 757.088C508.474 757.008 505.405 756.746 503.074 756.052C485.655 750.823 468.162 746.289 450.023 744.443C447.909 744.224 445.484 744.193 443.672 743.054L443.559 741.859Z" fill="#DCDCDB"/>
<path d="M483.325 718.526C492.505 718.386 541.07 727.368 547.147 733.517L546.997 735.254C545.162 735.278 525.518 729.416 522.592 728.52C515.986 726.497 486.267 722.128 482.871 720.482L483.325 718.526Z" fill="#DCDCDB"/>
<path d="M197.548 629.46L201.139 632.086C207.615 631.623 214.106 631.379 220.599 631.355C220.331 648.655 219.404 670.264 218.228 687.521C197.64 693.798 176.547 698.661 156.029 705.126C150.259 706.948 131.241 711.165 128.346 715.425C128.536 718.819 132.559 720.848 133.511 723.956C134.39 726.826 129.936 727.582 127.684 731.805C127.462 736.375 129.334 734.675 131.508 737.99L130.944 739.02C127.624 741.104 117.901 742.883 113.685 743.815C104.904 746.399 96.0383 748.684 87.1039 750.665C86.9948 734.077 87.1058 724.522 89.8413 708.021C104.759 702.14 112.238 695.413 123.349 684.218C155.887 676.327 178.146 656.09 197.548 629.46Z" fill="#FCFCFB"/>
<path d="M666.021 837.891L666.795 838.591C667.483 846.617 667.203 854.813 667.24 862.863L667.398 903.465L667.502 939.961C667.52 948.09 667.855 956.371 667.038 964.464C665.509 966.901 662.979 968.248 660.303 969.089C647.899 972.995 631.997 970.314 620.861 964.354C618.466 957.633 618.929 943.617 618.411 936.098C616.661 910.595 615.278 885.032 613.224 859.554C631.016 852.991 648.424 845.008 666.021 837.891Z" fill="#DCDCDB"/>
<path d="M495.893 511.812C498.583 513.005 510.25 516.196 514.287 517.54C506.253 521.716 500.219 531.303 497.218 539.572C492.622 552.489 493.331 566.7 499.19 579.095C482.137 581.876 466.411 586.112 451.265 594.495C437.742 591.671 428.373 592.381 416.461 598.08C416.666 597.982 401.154 596.993 400.263 596.855L399.651 595.829C395.608 572.66 395.893 525.391 421.231 513.983C421.039 515.503 420.438 518.404 420.527 519.724C422.183 543.836 460.025 541.535 475.112 533.424C484.724 528.257 492.271 522.339 495.893 511.812Z" fill="#FCFCFB"/>
<path d="M651.429 298.239C667.471 296.53 687.909 300.581 698.405 313.771C700.69 316.65 701.946 319.639 703.433 322.966C731.081 332.569 726.303 363.61 719.543 385.904C708.998 383.918 704.506 386.001 697.265 393.976C692.437 371.187 680.527 371.566 685.458 344.549C685.605 343.678 685.733 341.739 685.757 340.83C685.836 338.509 684.898 336.269 683.191 334.695C667.618 320.086 631.327 353.5 600.944 322.61L600.259 323.473C600.26 327.592 606.189 332.22 609.33 334.349C597.356 331.048 581.964 326.976 588.548 308.369C589.936 304.446 597.947 306.796 601.715 306.911C618.978 307.433 634.069 299.769 651.429 298.239Z" fill="#646464"/>
<path d="M239.738 342.67C276.883 336.854 311.991 373.058 296.035 409.184C293.916 391.262 290.331 379.368 277.728 366.509C275.801 364.543 276.822 359.355 273.251 358.731C272.089 359.95 270.048 363.665 269.174 365.234C261.109 379.713 251.711 389.5 235.331 393.821C241.156 385.471 242.612 381.427 244.626 371.744L239.579 377.003C227.688 391.971 203.617 400.007 185.09 401.232C182.221 401.422 179.455 401.641 176.583 401.958C174.923 403.23 175.325 402.563 174.766 404.418L175.303 405.192C177.359 406.522 179.204 406.501 181.619 406.729C176.378 418.235 170.473 425.828 158.508 430.341C163.111 414.68 169.734 396.999 179.649 383.882C195.17 363.35 213.511 346.559 239.738 342.67Z" fill="#646464"/>
<path d="M225.746 692.329C229.804 691.976 242.185 694.925 246.774 695.711C271.512 699.934 295.784 705.876 320.241 711.061L267.652 727.838C257.596 731.134 245.235 735.784 235.34 738.569C216.756 733.931 198.099 729.593 179.378 725.54C166.247 722.591 151.654 718.977 138.509 716.68C167.192 708.642 196.916 699.599 225.746 692.329Z" fill="#FCFCFB"/>
<path d="M690.176 699.556C699.831 703.81 702.879 706.199 713.6 703.877C730.96 700.111 746.911 695.065 763.514 688.886C763.758 692.22 764.045 695.553 764.362 698.886C766.3 715.065 768.36 735.711 768.64 751.877C760.223 750.665 701.861 743.115 699.27 740.561C698.856 739.196 698.624 737.472 697.283 736.893C687.318 732.591 674.749 728.727 664.454 725.321C664.43 720.464 664.528 715.053 664.369 710.245C671.19 708.508 672.872 707.07 677.096 701.506C682.46 701.598 685.014 700.982 690.176 699.556Z" fill="#FCFCFB"/>
<path d="M690.176 699.556C699.831 703.81 702.879 706.199 713.6 703.877C730.96 700.111 746.911 695.065 763.514 688.886C763.758 692.22 764.045 695.553 764.362 698.886C759.357 697.619 740.742 705.534 734.172 707.003C726.986 708.606 719.994 709.91 712.723 711.141C701.428 713.048 694.388 708.807 684.325 708.88C674.896 708.947 675.462 712.664 664.369 710.245C671.19 708.508 672.872 707.07 677.096 701.506C682.46 701.598 685.014 700.982 690.176 699.556Z" fill="#E7E7E6"/>
<path d="M784.664 764.114L785.45 764.552C786.011 767.319 785.67 777.617 785.621 781.036C764.166 791.401 734.811 802.547 712.076 812.035L568.543 871.699L567.744 871.047C567.195 866.525 567.487 857.305 567.514 852.412C626.316 827.903 685.3 803.814 744.448 780.152C757.845 774.65 771.163 769.884 784.664 764.114Z" fill="#DCDCDB"/>
<path d="M378.123 625.109C381.233 624.78 393.982 628.253 397.868 629.235C398.811 635.517 400.652 643.689 408.676 644.256C412.78 644.548 415.065 640.971 417.797 640.599C424.406 639.698 424.028 640.837 428.981 636.151C438.55 639.551 463.302 644.073 473.726 645.743C458.61 651.343 443.588 657.199 428.666 663.305C421.067 666.413 411.36 670.105 404.398 674.085L397.359 677.936C386.979 676.041 372.836 672.171 362.239 669.746C343.078 665.492 323.876 661.428 304.637 657.546C323.603 651.867 359.692 635.304 378.123 625.109Z" fill="#FCFCFB"/>
<path d="M345.864 651.526C355.488 650.892 396.801 661.135 408.607 664.28C405.463 665.84 401.801 667.388 398.567 668.844C394.32 670.111 389.492 668.978 385.252 667.893C369.22 663.804 352.204 661.263 336.284 656.943C339.729 654.091 341.742 653.207 345.864 651.526Z" fill="#DCDCDB"/>
<path d="M549.589 876.562C555.871 877.604 560.524 878.329 566.848 878.755L566.74 946.091L566.696 1054.47C566.639 1071.24 566.718 1088.09 566.565 1104.86C566.467 1115.59 550.403 1110.02 550.38 1109.4C549.814 1094.45 548.358 1072.74 549.692 1057.91C549.112 1053.34 549.359 1040.73 549.345 1035.7C549.269 1020.61 549.301 1005.52 549.44 990.429C549.656 952.435 548.983 914.69 549.589 876.562Z" fill="#DCDCDB"/>
<path d="M549.589 876.562C555.871 877.604 560.524 878.329 566.848 878.755L566.74 946.091C565.494 940.339 566.12 906.5 566.109 898.341C561.155 897.951 554.764 897.622 549.948 896.988L549.973 1007.77L550.004 1039.62C550.012 1043.91 550.233 1053.9 549.692 1057.91C549.113 1053.34 549.359 1040.73 549.345 1035.7C549.269 1020.61 549.301 1005.52 549.44 990.429C549.656 952.435 548.983 914.69 549.589 876.562Z" fill="#E7E7E6"/>
<path d="M469.139 863.783C471.128 865.727 471.852 868.615 473.594 870.736C477.317 875.276 485.992 877.762 491.619 877.945C499.439 878.195 506.779 875.599 512.44 870.218C516.802 871.077 521.187 871.845 525.561 872.643C527.869 892.18 530.418 923.569 525.663 942.301C525.061 943.306 524.442 944.33 523.693 945.232C520.093 949.559 513.742 951.521 508.36 952.124C501.64 952.88 490.96 952.551 485.534 947.852C475.366 939.041 469.74 879.517 469.139 863.783Z" fill="#FCFCFB"/>
<path d="M390.722 852.327C391.996 853.789 392.978 855.459 394.245 856.921C398.68 862.046 406.313 865.093 412.977 865.398C421.565 865.788 429.606 862.509 435.93 856.787L445.644 858.347C445.845 880.797 444.524 903.234 441.689 925.507C441.029 928.407 440.175 931.186 438.004 933.349C433.66 937.676 426.07 938.297 420.288 938.352C413.214 938.419 404.452 936.902 399.287 931.631C391.084 923.258 390.62 865.526 390.722 852.327Z" fill="#FCFCFB"/>
<path d="M382.051 821.931C389.541 822.419 397.289 824.228 404.704 825.447C421.468 828.183 438.205 831.09 454.911 834.161C491.138 840.523 527.811 845.666 563.776 853.277L563.768 872.576C558.317 871.827 552.877 870.998 547.451 870.09C506.292 862.515 465.083 855.215 423.826 848.195C403.415 844.636 383.025 841.59 362.776 837.129C369.349 832.297 375.58 826.916 382.051 821.931Z" fill="#DCDCDB"/>
<path d="M85.9095 812.687C91.1051 813.656 96.3762 816.611 101.879 817.781C102.869 861.297 101.706 906.689 102.018 950.412C102.17 970.04 102.161 989.662 101.991 1009.29C101.971 1014.59 102.285 1031.81 101.476 1036.05C98.6577 1039.4 91.2934 1039.29 87.649 1037.5C84.7599 1034.48 85.9131 1016.43 85.9113 1011.04L85.8729 962.173L85.9095 812.687Z" fill="#DCDCDB"/>
<path d="M62.3763 766.338C76.3441 768.014 99.7602 773.364 114.428 775.911L256.622 800.841C251.56 803.863 247.633 806.386 243.351 810.457C247.595 813.12 251.323 814.777 255.845 816.885L265.44 820.95L137.421 798.104C113.016 793.747 86.6987 789.774 62.6292 784.369C62.2495 779.123 62.4116 771.743 62.3763 766.338Z" fill="#DCDCDB"/>
<path d="M747.813 824.283C752.689 823.052 758.864 819.622 763.283 817.135L763.258 961.746L763.289 1007.61C763.277 1014.01 763.222 1020.43 763.264 1026.83C763.307 1033.45 752.86 1032.56 749.044 1030.35C746.947 1027.89 747.77 1008.14 747.782 1003.95L747.856 963.428L747.813 824.283Z" fill="#DCDCDB"/>
<path d="M251.882 304.524C258.724 278.671 272.983 250.133 295.101 234.127C298.877 231.394 307.375 231.444 308.888 236.097C317.951 263.99 302.165 303.731 284.441 324.611L279.427 320.044C276.48 317.809 273.192 315.573 270.156 313.424C274.116 299.49 278.088 288.275 285.087 275.394C287.85 270.31 291.194 265.546 293.811 260.664L294.063 260.186C282.91 263.907 269.606 299.652 265.334 310.778C260.895 308.597 256.411 306.511 251.882 304.524Z" fill="#FCFCFB"/>
<path d="M294.064 260.186C310.855 267.404 284.359 311.024 279.428 320.044C276.481 317.809 273.192 315.573 270.156 313.424C274.116 299.49 278.088 288.275 285.088 275.394C287.85 270.31 291.195 265.546 293.811 260.664L294.064 260.186Z" fill="#DCDCDB"/>
<path d="M80.3901 523.077C88.6638 522.707 97.3294 525.732 94.7999 535.696C92.6477 544.172 88.2664 552.345 86.0148 560.868C81.1411 579.311 78.5994 598.32 76.182 617.218L65.3684 614.64C59.531 613.056 53.7212 611.368 47.9419 609.582C50.1726 596.731 58.1723 537.327 64.1329 529.659C68.2125 524.412 74.2486 523.784 80.3901 523.077Z" fill="#E7E7E6"/>
<path d="M500.302 585.829C501.733 585.699 503.168 585.608 504.605 585.555C517.749 585.169 528.893 595.751 529.039 608.848C529.052 614.658 526.762 620.234 522.671 624.359C514.994 632.208 498.669 633.646 488.093 633.744C481.981 633.829 476.102 633.317 470.009 632.879C470.551 631.928 471.071 630.965 471.568 629.99C477.682 617.918 474.968 602.419 462.173 596.124C477.042 590.899 484.564 588.035 500.302 585.829Z" fill="#FCFCFB"/>
<path d="M472.817 657.656L474.551 660.172C474.534 660.562 474.516 660.959 474.498 661.355C462.493 667.643 419.86 682.201 412.01 690.221C421.322 687.625 465.548 666.998 471.306 668.125C472.962 669.612 472.504 668.832 472.961 671.105C469.322 675.45 408.647 695.364 396.682 703.146L396.141 703.505C405.657 702.049 415.963 697.625 425.177 694.224L454.634 683.505C458.031 682.256 471.198 675.133 472.366 680.654C470.601 682.847 409.783 705.053 401.654 708.508C394.111 706.186 384.891 704.596 377.155 703.28C359.003 699.374 340.358 696.875 322.17 693.152C316.55 692.006 307.195 691.245 302.151 689.264C301.343 686.808 303.157 689.52 303.782 684.828C306.68 682.11 373.891 698.319 384.382 697.034C385.127 696.942 385.26 696.394 385.69 695.821L385.193 696.833L385.494 695.461C383.707 693.42 381.325 693.347 378.847 693.018C353.523 689.624 328.166 683.31 302.866 680.069L303.198 679.874C306.161 678.076 306.785 677.954 309.009 675.175C336.854 681.531 368.306 685.65 397.167 691.628C413.151 681.452 439.039 671.982 456.482 664.255C461.917 661.842 467.347 660.392 472.817 657.656Z" fill="#DCDCDB"/>
<path d="M655.306 653.457C662.077 653.067 677.974 657.162 684.404 659.423C698.99 675.797 698.454 701.257 670.708 693.761C667.514 692.902 664.656 695.693 664.448 698.88C667.398 700.538 668.014 698.283 670.416 699.855L670.05 701.043C666.752 703.968 660.858 704.364 657.28 701.689C653.361 694.352 663.888 689.672 661.273 685.297C655.251 683.981 651.795 696.491 651.161 701.086C646.108 696.418 645.492 695.742 646.864 688.953C648.753 684.615 654.013 679.776 654.208 675.169L653.178 675.066C646.004 679.301 643.231 685.193 640.927 692.969C626.341 680.648 647.808 670.44 647.028 665.486C643.347 663.682 617.302 680.635 609.847 672.72C609.416 665.663 649.021 654.201 655.306 653.457Z" fill="#FCFCFB"/>
<path d="M652.196 533.36C654.793 533.172 656.823 532.699 658.7 534.28C662.394 550.029 663.869 600.198 664.289 618.144C664.399 622.934 660.004 642.172 658.609 647.498L650.337 647.961C647.918 648.436 643.925 649.77 641.438 650.526C640.957 644.109 639.829 629.332 640.11 623.708C641.164 602.119 644.839 552.067 652.196 533.36Z" fill="#646464"/>
<path d="M317.617 723.438L320.387 729.099C308.231 734.736 286.724 740.049 273.589 744.675C269.002 746.296 257.916 749.056 254.315 751.238L253.598 753.2C261.525 753.316 297.394 739.367 307.817 737.313C310.398 736.801 313.345 735.059 316.367 735.333C317.124 736.82 317.058 736.923 316.847 738.648C314.007 742.2 251.37 760.159 242.832 764.339C239.453 765.997 233.345 765.893 229.486 764.869C213.351 760.591 197.199 756.6 180.906 752.871C171.17 750.677 161.446 748.434 151.734 746.137C147.484 745.119 138.316 744.004 136.72 739.909C141.099 736.789 225.173 760.598 231.141 757.459C225.914 753.632 146.371 735.778 135.123 732.926L139.571 729.361C161.61 733.943 183.697 740.08 205.838 744.534C215.875 746.558 226.892 749.038 236.653 751.865C243.163 748.952 249.768 747.264 256.35 744.809C276.64 737.246 297.593 731.622 317.617 723.438Z" fill="#DCDCDB"/>
<path d="M254.315 751.238L253.598 753.2C251.453 753.584 247.649 754.461 245.749 753.645C247.804 752.334 251.763 751.762 254.315 751.238Z" fill="#646464"/>
<path d="M158.428 983.483C165.904 989.851 174.703 996.718 180.238 1004.9C182.149 1007.72 183.913 1011.44 183.077 1014.92C182.517 1017.25 180.86 1018.79 178.798 1019.88C167.446 1025.88 146.22 1021.36 134.358 1017.99C126.653 1015.35 114.512 1010.4 109.103 1004.24C108.985 997.523 109.274 991.331 110.539 984.726C113.856 986.347 117.238 987.968 120.801 988.973C133.136 992.44 147.403 989.704 158.428 983.483Z" fill="#646464"/>
<path d="M533.015 533.875C545.373 533.945 551.185 542.366 553.723 553.553C557.999 572.393 554.412 592.825 544.412 609.284C544.229 602.858 543.557 599.781 541.513 593.691C534.957 578.486 521.38 573.592 506.201 578.887C509.774 560.744 513.584 541.174 533.015 533.875Z" fill="#FCFCFB"/>
<path d="M40.5003 646.973C50.4729 651.458 61.2698 653.817 72.2034 653.902C70.5418 668.405 68.2677 682.817 69.9311 697.399C71.347 709.824 77.5154 706.296 81.7229 711.098C82.519 713.56 81.7711 716.406 81.3511 719.069C68.6919 718.837 52.0179 714.358 44.3005 703.834C33.1671 688.661 38.18 664.231 40.5003 646.973Z" fill="#E7E7E6"/>
<path d="M211.762 550.382C217.644 550.044 232.482 550.242 235.622 555.966C234.75 559.125 232.637 559.746 229.591 559.873C224.771 560.074 204.36 555.842 203.401 562.975C206.631 565.971 232.497 560.796 228.713 574.324C223.901 574.086 210.472 567.3 206.163 573.025L206.367 574.335C210.32 576.506 232.439 575.012 226.707 585.303C224.905 584.991 223.558 584.174 221.807 583.716C216.953 582.446 212.447 583.25 207.645 584.132C206.677 585.449 206.981 584.716 206.845 586.456C210.309 589.168 219.117 586.334 224.459 590.22C225.527 592.138 225.392 591.291 225.158 593.389C222.241 596.509 215.893 594.729 212.02 596.044C209.669 597.267 208.064 601.865 206.751 604.062C197.243 619.978 183.682 617.376 179.666 599.496C177.262 588.792 184.944 572.152 190.032 562.701C194.346 554.685 203.431 552.061 211.762 550.382Z" fill="#FCFCFB"/>
<path d="M618.728 971.234C623.677 970.411 631.107 975.28 636.386 976.091C646.358 977.614 655.61 976.085 665.338 974.037C666.502 979.68 667.1 986.913 665.265 992.428C661.803 995.719 639.842 1000.69 633.625 1002.51C621.117 1005.15 609.182 1006.41 596.445 1004.68C593.267 1004.24 588.443 1003.51 586.495 1000.64C585.8 999.613 585.648 998.357 585.92 997.169C588.023 987.974 610.798 975.835 618.728 971.234Z" fill="#646464"/>
<path d="M698.24 982.776C714.405 987.352 725.449 987.651 741.772 983.586C741.833 990.332 741.766 997.078 741.571 1003.82C734.196 1009.76 727.138 1015.64 718.159 1019.04C714.423 1020.34 710.644 1021.42 706.718 1022.04C699.666 1023.16 684.91 1024.34 679.028 1019.67C677.528 1018.49 676.663 1016.77 676.559 1014.87C676.035 1005.38 692.34 989.808 698.24 982.776Z" fill="#646464"/>
<path d="M294.45 833.29C299.055 834.923 303.699 836.361 308.374 837.775C308.338 853.387 309.414 957.45 307.363 962.197C305.946 962.672 304.511 963.19 303.013 963.33C300.096 963.617 297.139 963.586 294.815 961.606C292.575 957.194 293.683 846.099 294.45 833.29Z" fill="#E7E7E6"/>
<path d="M247.176 629.838L254.792 629.46C254.682 643.975 254.485 677.43 256.833 690.781C248.935 689.867 241.356 688.332 233.586 686.735C230.154 685.961 226.923 685.888 223.428 685.693C222.181 684.31 224.616 636.584 224.825 631.422C230.581 630.447 241.189 630.124 247.176 629.838Z" fill="#FCFCFB"/>
<path d="M233.541 968.169C240.687 969.101 256.972 980.308 261.872 985.737C263.669 987.73 265.509 990.338 265.219 993.153C265.055 994.744 263.973 995.987 262.719 996.889C252.875 1004 226.88 1000.06 215.578 998.028C209.183 996.596 188.918 994.738 185.566 989.552C182.511 984.829 184.707 976.901 185.647 971.703C187.734 972.855 190.019 973.8 192.276 974.573C207.497 979.771 219.96 974.994 233.541 968.169Z" fill="#646464"/>
<path d="M525.375 959.266C525.645 959.753 525.589 959.577 525.729 960.119C527.386 966.511 528.525 973.355 525.019 979.333C520.36 987.285 510.058 991.581 501.534 993.708C490.401 996.493 475.074 996.98 465.01 990.972C464.363 990.265 463.803 989.43 463.361 988.577C462.121 986.2 462.804 982.788 463.623 980.35C466.53 971.691 474.554 963.166 482.62 959.095C487.251 960.85 491.949 962.557 496.789 963.635C507.229 965.975 516.3 964.964 525.375 959.266Z" fill="#FCFCFB"/>
<path d="M394.671 942.575C398.177 943.063 404.861 949.528 409.775 951.058C420.105 954.281 430.728 951.984 440.082 947.091C440.739 952.173 441.755 958.395 439.151 963.075C435.478 969.68 423.518 971.612 416.846 973.537C404.338 976.67 389.332 978.79 376.659 975.408C373.56 974.586 370.025 973.093 368.495 970.076C367.549 968.212 367.683 966.182 368.353 964.245C371.683 954.629 385.868 946.798 394.671 942.575Z" fill="#FCFCFB"/>
<path d="M323.872 603.331C324.433 608.979 316.435 627.857 313.298 633.262C301.104 654.262 284.652 665.322 261.609 652.708L261.496 643.195L261.322 629.088C264.288 628.863 267.483 628.448 270.461 628.126C269.591 631.605 267.963 637.565 269.52 640.922C272.759 638.96 273.973 631.843 274.978 627.998C280.965 627.473 288.143 626.919 293.896 625.505C296.144 620.825 297.75 613.805 299.085 608.668C309.743 612.075 315.851 611.288 323.872 603.331Z" fill="#FCFCFB"/>
<path d="M614.034 802.718C617.868 803.114 684.959 759.623 693.663 756.039C695.906 755.113 696.997 754.827 699.404 755.741L699.307 756.655C697.545 758.398 696.247 759.098 694.187 760.39C672.335 774.113 649.478 786.143 627.883 800.286C623.025 803.461 617.71 807.111 612.48 809.536C597.814 805.557 583.02 800.042 568.281 796.575C550.299 792.346 531.169 786.904 513.048 783.735C510.7 785.533 509.405 786.24 506.802 787.672C502.395 787.282 499.048 786.514 494.912 785.052L490.503 778.909C485.538 777.203 478.909 776.149 473.707 774.948C457.512 771.195 441.608 769.05 425.16 766.959C415.492 765.728 406.147 764.01 396.342 762.901C398.036 761.877 400.413 760.658 402.198 759.683C426.188 760.47 467.17 765.564 489.561 774.071C494.157 775.82 497.581 779.324 500.99 782.754C505.601 782.657 510.308 781.81 514.89 781.517C523.808 780.951 533.539 782.017 542.285 783.784C557.965 787.111 573.443 791.328 588.643 796.417C594.414 798.348 600.049 800.755 605.753 802.864C607.586 803.54 608.088 803.059 609.676 802.401C611.7 803.004 611.877 802.919 614.034 802.718Z" fill="#868686"/>
<path d="M536.258 655.23C548.748 653.518 558.282 668.911 554.83 680.056C552.236 688.435 546.073 692.823 539.925 698.569C536.547 701.72 534.705 706.052 529.502 704.236C526.099 697.052 541.935 684.73 534.359 677.156C532.49 675.285 526.682 673.944 524.016 674.097L517.152 675.602C510.023 682.238 502.763 702.999 495.86 703.755C494.184 702.957 494.737 703.566 494.031 701.982C494.308 694.669 502.194 677.716 506.036 671.086C512.296 660.294 524.905 657.68 536.258 655.23Z" fill="#FCFCFB"/>
<path d="M124.046 515.004C134.296 514.341 145.913 523.001 151.404 531.072C161.173 545.43 162.623 570.478 159.321 587.222C157.584 588.453 148.324 594.062 146.529 593.91C148.425 572.969 148.491 541.674 129.161 527.67C124.002 523.933 118.858 522.133 112.797 524.326C111.58 524.766 110.456 524.1 109.542 523.403C112.685 520.008 119.533 516.433 124.046 515.004Z" fill="#E7E7E6"/>
<path d="M385.057 532.65L385.383 532.867C382.523 545.242 381.811 557.239 391.024 567.214C390.649 574.99 390.821 580.158 391.81 587.861C385.496 594.921 382.943 596.994 375.389 602.596C376.469 598.29 376.669 594.739 376.613 590.338C374.394 574.942 368.024 566.47 352.587 563.527C364.266 550.979 371.374 543.137 385.057 532.65Z" fill="#FCFCFB"/>
<path d="M314.563 540.149C328.284 540.58 331.907 548.81 331.042 561.705C330.27 570.493 327.869 583.796 320.514 589.336C313.008 594.989 308.121 596.024 304.423 587.218C304.448 587.28 299.186 581.801 298.435 580.903C299.305 578.386 311.846 580.803 315.609 578.845C315.792 577.07 315.984 577.794 314.706 576.199C310.856 574.268 306.773 574.39 302.476 574.218C300.346 574.318 299.839 574.388 297.775 574.009C295.886 572.536 296.233 573.232 295.618 571.237C300.001 562.897 314.64 568.818 319.206 566.63C320.257 564.872 320.19 565.576 319.821 563.899C314.941 560.045 299.645 563.023 296.684 561.896C292.812 550.684 318.902 555.25 323.465 552.796L323.546 551.723C318.129 547.184 305.156 550.267 300.384 546.158L300.497 545.04C303.787 541.388 310.054 540.538 314.563 540.149Z" fill="#FCFCFB"/>
<path d="M336.402 570.51C353.883 570.086 363.31 580.015 360.367 598.654C359.483 604.251 355.094 609.185 350.23 612.099C341.737 614.981 337.292 613.988 328.595 612.623C330.465 604.073 331.364 598.152 329.519 589.37C333.098 582.288 334.432 578.16 336.402 570.51Z" fill="#FCFCFB"/>
<path d="M392.868 596.474C393.752 597.609 393.396 596.971 393.635 598.644C381.362 616.371 395.381 613.708 399.79 620.1C399.656 620.898 399.817 621.106 399.106 621.611C396.652 623.366 381.381 618.979 377.555 618.278C371.711 620.868 364.552 625.06 358.655 628.065C346.354 634.347 333.801 640.118 321.025 645.371C317.203 646.687 313.452 648.186 309.688 649.655C317.626 640.898 322.791 629.954 326.759 618.924C352.277 625.572 374.46 612.812 392.868 596.474Z" fill="#FCFCFB"/>
<path d="M262.209 661.879C277.955 668.405 284.445 662.884 296.963 664.17C299.512 666.339 298.061 669.606 302.594 673.414L303.181 673.902C299.977 675.62 293.735 678.234 296.077 682.165C298.331 685.955 296.96 686.339 294.309 689.404C294.145 690.428 294.36 690.836 294.631 691.842C295.988 693.03 296.325 693.195 297.929 694.066C298.13 696.12 297.221 696.571 295.779 698.685C288.551 698.228 271.331 694.285 263.346 692.664C263.386 683.627 262.523 671.233 262.209 661.879Z" fill="#FCFCFB"/>
<path d="M482.734 640.258C500.387 641.184 511.23 638.223 527.739 632.074C528.171 638.29 528.405 643.415 528.419 649.636C518.011 653.384 512.471 655.73 503.443 661.995C496.877 666.553 483.013 668.539 475.031 667.869C477.416 666.376 481.158 664.591 482.516 662.58C482.584 659.271 481.312 658.789 478.82 656.803C478.246 654.158 477.63 651.532 477.266 648.85C478.878 647.473 480.171 646.705 480.804 644.743C480.445 642.97 480.179 642.44 478.413 641.239C479.484 640.648 481.431 640.478 482.734 640.258Z" fill="#FCFCFB"/>
<path d="M469.397 686.796C471.051 687.856 471.17 688.911 471.112 690.751C469.881 692.469 469.664 692.579 467.546 693.347C455.086 697.564 442.83 702.183 430.485 706.698C420.955 710.19 409.75 715.559 400.059 717.978C399.707 717.746 399.355 717.509 399.003 717.277L398.52 716.978C393.741 714.017 313.6 701.476 303.056 699.861L302.152 699.166C303.424 697.216 304.408 695.553 305.553 693.542C335.935 699.477 373.621 704.011 402.405 712.433L469.397 686.796Z" fill="#E7E7E6"/>
<path d="M470.998 651.434L472.21 651.733L472.758 652.951C470.738 656.967 440.26 666.254 434.247 669.801C424.535 675.535 406.856 681.385 398.273 688.46C386.89 685.437 309.866 673.518 306.247 669.508C306.039 664.932 305.801 665.943 303.021 663.396C306.321 661.958 385.925 680.641 397.027 682.701C406.973 678.253 416.754 672.835 426.721 668.637C441.206 662.543 456.295 657.004 470.998 651.434Z" fill="#DCDCDB"/>
<path d="M44.1121 615.176C47.3106 615.457 54.6918 617.742 58.1012 618.723C64.6599 620.612 69.0863 621.55 75.8812 622.41C75.4442 626.815 73.4919 646.401 71.7554 649.058C62.8594 648.405 53.2938 647.199 45.2268 643.14C34.8069 637.9 39.6059 622.867 44.1121 615.176Z" fill="#E7E7E6"/>
<path d="M592.412 672.841C592.478 672.939 590.697 713.609 590.583 718.246C578.772 710.604 573.692 709.239 560.267 705.004C555.069 703.517 551.385 702.542 546.08 701.555C552.38 695.071 549.244 697.034 556.663 696.662C565.496 696.223 586.259 678.192 592.412 672.841Z" fill="#FCFCFB"/>
<path d="M318.177 716.674L319.41 716.686C319.71 718.496 318.445 720.098 317.469 722.079C291.206 730.744 264.413 737.362 238.158 748.142C219.842 744.595 199.989 739.708 181.723 735.497C168.021 732.341 153.932 729.513 140.389 725.82L139.536 725.589C138.575 723.828 138.801 724.577 138.987 722.414L139.932 721.652C171.202 729.458 204.157 735.912 235.861 743.419C243.504 741.42 252.847 737.734 260.581 735.199C279.705 728.794 298.905 722.621 318.177 716.674Z" fill="#E7E7E6"/>
<path d="M677.748 527.997C682.679 524.726 684.245 522.718 687.817 518.152C685.269 526.282 683.178 536.314 681.21 544.708C678.412 556.236 675.724 567.791 673.152 579.371C671.811 585.707 670.366 592.021 668.818 598.311C668.349 577.01 665.911 554.968 663.271 533.83C665.472 529.185 667.465 524.352 669.482 519.62C672.433 523.048 674.121 525.186 677.748 527.997Z" fill="#FCFCFB"/>
<path d="M317.136 744.016C319.679 744.358 319.337 743.888 320.636 745.357C318.914 747.721 245.918 771.432 236.429 774.973C205.788 766.795 175.008 760.744 144.714 752.81C141.35 752.487 141.441 752.523 139.404 750.579L139.806 748.837L139.199 750.195L139.988 748.763C143.175 747.91 149.821 749.403 153.004 750.293C179.505 757.727 209.485 761.146 235.431 769.787C243.688 768.068 258.322 762.682 266.987 759.878L317.136 744.016Z" fill="#E7E7E6"/>
<path d="M545.106 402.648C554.723 403.088 555.001 420.633 554.776 427.564C554.476 436.84 551.846 447.733 544.794 454.227C529.78 447.94 532.153 412.089 545.106 402.648Z" fill="#DCDCDB"/>
<path d="M695.875 472.086C696.813 473.2 697.088 475.001 696.978 476.458C695.558 495.388 690.371 508.148 677.723 521.529L673.005 514.183C669.854 509.699 666.611 505.279 663.277 500.928C676.711 492.8 687.847 486.123 695.875 472.086Z" fill="#FCFCFB"/>
<path d="M437.878 599.267C444.457 599.36 450.813 599.752 455.906 604.601C461.113 609.558 463.85 619.807 457.915 625.347C453.957 629.04 449.67 628.875 444.559 628.528C439.821 626.712 440.801 626.261 440.389 621.55C439.431 610.563 429.151 606.272 419.794 603.155C426.914 600.511 430.35 599.878 437.878 599.267Z" fill="#FCFCFB"/>
<path d="M535.212 394.884C539.245 395.287 540.873 395.958 544.749 397.314C533.172 402.691 530.467 415.871 529.636 427.703C529.039 436.188 529.969 447.309 535.588 454.097C536.96 455.753 538.659 456.364 540.064 457.909L539.302 458.92C514.67 468.81 512.705 405.265 535.212 394.884Z" fill="#DCDCDB"/>
<path d="M472.004 704.468L473.122 704.992L473.349 706.473C473.037 707.198 472.152 708.996 471.162 709.276C446.473 716.186 420.458 726.003 395.798 732.127C393.1 732.798 372.309 728.569 368.79 728.087C354.408 726.113 339.653 723.797 325.547 721.244L324.77 720.598C325.063 719.203 326.351 716.071 328.196 716.357C337.836 717.868 347.437 719.879 357.037 721.665C367.281 723.529 377.553 725.236 387.849 726.783C396.852 728.142 399.422 728.605 408.055 725.498C429.127 717.905 450.911 711.969 472.004 704.468Z" fill="#DDDCDC"/>
<path d="M172.559 587.494C173.007 588.085 173.535 595.851 173.716 597.413C175.375 611.758 181.033 615.213 192.324 622.129C193.544 626.98 187.228 629.497 183.475 630.429C182.577 630.331 181.684 630.191 180.797 630.021C164.618 626.998 160.518 608.774 163.414 594.745C166.268 591.033 168.53 589.781 172.559 587.494Z" fill="#FCFCFB"/>
<path d="M97.656 678.18C104.599 681.519 107.738 682.744 115.223 684.03C105.455 692.89 102.561 695.973 90.1119 700.83C76.6694 705.607 75.4382 702.305 74.2515 690.001C84.0922 686.967 89.3823 683.956 97.656 678.18Z" fill="#E7E7E6"/>
<path d="M175.203 925.482C176.109 931.125 175.464 937.426 175.54 943.166C175.639 950.546 177.367 954.781 182.669 959.942C178.251 970.357 176.584 981.965 178.732 993.117L172.835 987.937C167.192 983.598 163.066 980.813 160.717 973.757C162.558 972.307 164.499 970.777 165.789 968.797C172.144 959.022 171.741 937.92 175.043 926.043L175.203 925.482Z" fill="#FCFCFB"/>
<path d="M175.419 491.352C176.949 492.402 182.13 499.216 184.504 501.127C194.402 509.096 205.848 514.308 217.766 517.996L213.44 534.228C213.363 534.44 212.942 534.827 212.756 535.023C209.695 532.508 206.626 528.58 203.076 525.883C191.92 517.406 183.027 509.746 172.872 500.101C174.092 496.959 174.621 494.639 175.419 491.352Z" fill="#E7E7E6"/>
<path d="M642.809 519.688C644.473 521.861 646.284 531.538 645.991 534.534C645.004 540.165 644.278 548.45 642.675 553.901C639.676 564.118 640.03 584.286 636.83 593.018L636.452 592.699C635.824 582.699 632.021 529.907 634.227 524.003C635.081 524.785 635.952 525.545 636.848 526.28C639.024 524.782 641.103 521.84 642.809 519.688Z" fill="#FCFCFB"/>
<path d="M521.994 520.479C530.095 520.349 534.372 522.866 539.906 528.402C521.675 527.599 510.816 541.689 505.01 557.431C503.638 561.211 502.375 567.583 501.44 571.672C499.295 552.809 499.978 527.471 521.994 520.479Z" fill="#868686"/>
<path d="M498.474 670.416C499.08 671.617 492.76 684.761 491.783 687.406C489.788 692.811 488.634 696.796 487.58 702.475L480.86 705.041C479.285 703.133 477.273 701.141 475.529 699.331C474.982 698.801 474.193 697.74 473.689 697.107C473.663 694.815 475.209 693.926 477.074 691.671C478.174 686.388 473.05 686.906 478.748 680.739L479.032 680.44C478.906 678.582 477.342 677.052 476.112 675.48C484.775 674.121 490.279 673.329 498.474 670.416Z" fill="#E7E7E6"/>
<path d="M104.197 506.582C112.087 505.631 117.464 506.23 124.929 508.609C112.765 512.477 106.397 517.418 99.6748 528.552C98.4064 525.786 98.1827 525.387 96.1316 523.107C95.4983 522.694 94.8516 522.301 94.1927 521.93C86.4164 517.575 78.3664 517.957 70.083 520.267C80.4157 512.784 91.7577 508.77 104.197 506.582Z" fill="#E7E7E6"/>
<path d="M295.775 424.631C300.588 435.692 301.716 465.099 302.288 477.771L292.114 478.163L285.766 478.387C293.735 454.789 292.309 447.527 295.775 424.631Z" fill="#646464"/>
<path d="M488.243 511.089C489.002 511.401 489.284 511.738 489.957 512.28L489.914 513.648C488.201 516.679 486.279 518.908 483.648 521.215C473.674 529.808 460.715 534.123 447.58 533.223C439.452 532.696 432.969 530.705 427.557 524.541C426.428 521.555 426.169 520.945 425.89 517.77C427.228 516.711 431.268 521.066 433.261 521.951C453.931 531.14 472.068 524.851 488.243 511.089Z" fill="#646464"/>
<path d="M653.562 504.013C661.242 503.714 662.955 508.109 666.783 513.798C665.509 516.933 661.784 526.963 659.968 528.903L650.161 528.766C648.174 522.805 647.333 519.117 646.004 512.922C648.838 508.893 650.197 507.434 653.562 504.013Z" fill="#646464"/>
<path d="M321.714 705.766C323.503 705.845 339.243 708.996 342.154 709.507L375.253 715.272C378.491 715.833 388.66 717.387 391.253 718.362C392.196 719.855 391.801 721.36 391.653 723.225C391.261 723.237 390.869 723.255 390.477 723.267C373.47 720.568 356.443 717.624 339.477 714.657C336.441 714.127 331.035 713.213 329.373 710.568C327.738 707.966 324.448 706.912 321.714 705.766Z" fill="#DCDCDB"/>
<path d="M609.676 802.401C620.288 794.997 687.396 748.349 694.314 747.088L695.101 747.575C693.229 752.206 684.665 755.601 681.435 758.367C673.127 765.491 616.192 798.976 614.034 802.718C611.876 802.919 611.699 803.004 609.676 802.401Z" fill="#DEDEDD"/>
<path d="M747.728 803.54L763.392 796.977C763.685 803.388 763.398 810.652 763.283 817.135C758.864 819.622 752.689 823.052 747.813 824.283C747.709 817.422 747.758 810.414 747.728 803.54Z" fill="#E7E7E6"/>
<path d="M467.007 697.82C468.101 698.539 469.16 699.952 470.062 700.988C454.42 706.479 439.185 711.72 423.296 716.509C414.662 719.117 406.553 722.743 397.596 724.833C395.992 723.036 395.612 720.519 396.658 718.343C399.169 717.32 401.589 720.622 404.088 719.66C424.838 711.634 445.811 704.578 467.007 697.82Z" fill="#DCDCDB"/>
<path d="M640.433 698.849C647.46 705.089 649.892 706.753 659.035 709.319L658.907 723.791C653.403 722.018 645.589 720.086 639.921 719.038C639.848 713.889 639.5 703.676 640.433 698.849Z" fill="#646464"/>
<path d="M85.9342 794.966C91.3571 796.088 96.4143 797.117 101.884 797.97C102.015 804.57 102.013 811.176 101.879 817.781C96.3759 816.611 91.1048 813.656 85.9092 812.687L85.9342 794.966Z" fill="#E7E7E6"/>
<path d="M78.3208 649.441C79.2113 650.355 80.6272 656.565 81.6488 658.765C85.0164 666.01 87.051 669.429 92.6367 675.041C90.3857 676.833 87.7434 678.515 85.3364 680.123C81.7963 681.891 78.6073 682.987 74.9111 684.328C75.0909 672.628 76.2314 660.959 78.3208 649.441Z" fill="#E7E7E6"/>
<path d="M112.647 973.617C126.924 978.87 139.688 978.443 154.261 975.268L154.915 975.865C155.228 977.48 155.438 978.394 154.729 979.912C148.261 982.788 140.688 984.61 133.613 984.762C127.559 984.896 117.962 984.256 113.573 979.314C112.135 977.699 112.612 975.615 112.647 973.617Z" fill="#FCFCFB"/>
<path d="M476.415 511.473C477.948 511.169 477.299 511.015 478.467 511.598C476.793 514.167 470.847 516.68 467.909 517.977C458.951 521.933 445.44 522.233 436.595 518.349C434.121 516.8 431.962 514.732 429.778 512.781C447.938 514.848 458.338 514.338 476.415 511.473Z" fill="#868686"/>
<path d="M686.47 653.939C692.998 653.573 695.759 656.468 699.111 662.183C703.646 669.923 707.614 681.744 705.914 690.794C705.536 692.798 703.866 693.371 702.287 694.261C700.282 694.785 698.24 695.602 696.362 695.035C697.307 690.885 700.336 690.087 699.447 682.165C698.13 670.447 695.302 661.763 686.47 653.939Z" fill="#FCFCFB"/>
<path d="M415.743 608.8C418.3 608.679 420.585 608.276 422.504 609.869C421.319 616.194 407.984 620.106 411.702 637.632C410.432 637.991 409.679 638.058 408.394 638.211C398.409 635.237 405.719 616.407 411.144 611.739C412.604 610.478 414.064 609.686 415.743 608.8Z" fill="#E7E7E6"/>
<path d="M228.181 961.703C228.572 961.734 229.285 962.112 229.659 962.264L229.692 963.373C228.444 964.811 227.02 965.567 225.334 966.39C213.314 972.258 203.57 972.849 190.893 968.443C190.329 968.126 189.747 967.797 189.25 967.377C188.111 966.42 187.776 965.39 187.591 963.97C188.658 962.416 188.982 962.337 190.858 962.66C204.216 964.964 214.897 965.457 228.181 961.703Z" fill="#FCFCFB"/>
<path d="M637.744 487.838C638.214 488.059 646.899 498.868 649.825 501.182C646.869 504.354 643.504 509.205 640.865 512.784C639.085 515.468 638 516.94 635.934 519.402C635.007 509.133 634.758 497.8 637.744 487.838Z" fill="#FCFCFB"/>
<path d="M428.342 613.549C431.295 613.391 433.791 614.64 434.869 617.388C434.354 620.697 425.993 630.185 423.054 634.335C410.556 638.838 417.644 619.289 428.342 613.549Z" fill="#DCDCDB"/>
<path d="M402.801 519.694C403.88 519.665 403.827 519.701 404.844 520.095C404.479 521.927 403.539 523.026 402.573 524.587C396.471 534.447 393.956 546.35 392.142 557.636C384.344 544.128 389.949 527.816 402.801 519.694Z" fill="#646464"/>
<path d="M518.798 582.032L519.171 582.113C538.131 586.444 545.035 608.061 533.198 622.903L531.275 623.768L530.637 623.36C538.652 604.775 534.124 594.306 518.798 582.032Z" fill="#646464"/>
<path d="M357.553 570.747C368.002 573.798 374.11 588.966 370.971 598.818C369.525 603.355 368.038 605.076 364.682 608.321C363.531 608.981 362.824 609.2 361.601 609.643C360.862 608.647 363.714 604.597 364.347 602.921C368.909 590.837 365.485 580.537 357.553 570.747Z" fill="#646464"/>
<path d="M526.353 691.446C524.462 696.363 523.153 698.764 517.742 700.477C514.437 701.525 512.336 699.081 511.412 696.187C511.543 691.598 515.394 686.54 517.936 682.847C519.724 680.251 521.099 680.136 524.035 679.782L523.388 680.757C521.051 681.799 521.278 681.769 520.528 683.688C520.881 687.223 523.728 689.197 526.353 691.446Z" fill="#DCDCDB"/>
<path d="M396.328 850.206C403.337 850.7 421.111 853.235 427.097 855.898L426.066 856.793C419.086 859.572 410.705 860.328 403.666 857.202C400.614 855.843 397.524 853.393 396.328 850.206Z" fill="#646464"/>
<path d="M588.302 332.66C589.627 333.382 592.535 335.425 593.914 336.339C588.556 345.965 587.025 349.654 585.228 360.62L585.017 361.854L584.374 362.267C583.811 361.62 583.68 361.509 583.431 360.666C580.225 349.814 583.31 342.067 588.302 332.66Z" fill="#646464"/>
<path d="M157.998 464.212C158.658 464.868 161.229 469.674 161.79 470.866C165.333 478.408 171.63 484.518 169.005 493.114L168.33 493.299C168.163 493.163 167.439 492.595 167.348 492.452C161.221 482.728 157.58 475.35 157.998 464.212Z" fill="#646464"/>
<path d="M302.659 596.372C310.923 600.273 315.126 599.87 323.169 595.943C321.42 598.671 320.501 599.808 318.366 602.264C311.852 607.028 307.483 605.883 300.098 604.08C300.976 601.968 301.935 598.643 302.659 596.372Z" fill="#FCFCFB"/>
<path d="M475.29 863.363C477.134 863.423 503.309 868.932 503.668 869.158L503.275 869.919C497.045 872.235 490.422 872.924 484.033 870.669C480.108 869.28 477.143 867.141 475.29 863.363Z" fill="#646464"/>
<path d="M400.453 603.44C403.443 603.168 409.097 602.048 410.4 605.021C409.649 607.448 406.138 610.685 404.249 612.672C401.082 613.074 397.644 612.647 395.383 610.24C394.612 608.009 394.641 608.964 395.335 606.636C396.906 604.697 398.186 604.374 400.453 603.44Z" fill="#E7E7E6"/>
<path d="M358.722 402.036C359.41 408.99 354.916 421.753 356.621 430.016C357.134 432.503 357.708 442.144 357.602 444.768L356.891 444.092C356.287 442.523 355.744 440.931 355.262 439.32C351.761 427.261 352.63 413.117 358.722 402.036Z" fill="#E7E7E6"/>
<path d="M460.48 601.268C470.342 603.85 473.498 622.934 463.991 630.478H461.904L461.417 629.813C464.232 623.732 466.868 623.116 465.933 615.542C465.206 609.649 463.151 606.362 460.48 601.268Z" fill="#868686"/>
<path d="M538.869 649.131C557.458 648.192 571.565 676.528 558.817 689.209L558.089 689.045C557.596 687.917 557.97 687.911 558.428 686.674C565.799 666.729 556.768 655.767 538.869 649.131Z" fill="#E7E7E6"/>
<path d="M402.451 941.399C407.48 941.82 412.265 943.751 417.516 944.001C423.833 944.3 429.591 942.197 435.745 941.795L435.022 942.606C432.51 944.251 429.961 945.543 427.022 946.231C418.331 948.279 409.912 945.963 402.451 941.399Z" fill="#646464"/>
<path d="M311.088 771.773L311.445 773.224C306.622 775.521 295.659 782.096 291.125 779.512C292.432 777.13 307.135 773.193 311.088 771.773Z" fill="#E7E7E6"/>
<path d="M521.135 955.104L521.417 955.25C520.663 956.14 519.951 956.621 518.907 957.157C511.187 961.143 499.77 959.778 491.824 957.328L491.026 957.03L491.193 956.548C502.693 958.163 509.864 958.035 521.135 955.104Z" fill="#646464"/>
<path d="M478.414 641.239C474.897 641.556 453.4 636.901 451.99 635.146C453.91 634.908 476.993 639.722 482.735 640.258C481.431 640.478 479.484 640.648 478.414 641.239Z" fill="#DCDCDB"/>
<path d="M524.035 679.782C527.92 678.966 529.943 678.929 531.393 682.78C530.918 685.035 531.4 684.316 529.771 685.681C526.112 685.547 525.456 683.621 523.388 680.757L524.035 679.782Z" fill="#E7E7E6"/>
<path d="M311.088 771.773C314.063 770.664 318.282 768.855 321.321 768.611L321.318 768.696L319.973 768.788L319.861 769.628C317.621 770.591 313.6 772.48 311.445 773.224L311.088 771.773Z" fill="#868686"/>
</g>
<defs>
<clipPath id="clip0_6_322">
<rect width="832" height="1248" fill="white"/>
</clipPath>
</defs>
</svg>
