<svg width="832" height="912" viewBox="0 0 832 912" fill="none" xmlns="http://www.w3.org/2000/svg">
<g clip-path="url(#clip0_6_504)">
<path d="M0 0H832V912H0V0Z" fill="none"/>
<path d="M153.701 145.402C149.539 128.32 148.401 110.642 150.34 93.168C152.941 69.409 161.47 39.264 180.176 22.839C188.676 15.376 199.726 16.842 205.849 26.365C220.768 49.565 220.272 85.436 216.155 111.499C233.337 107.561 246.002 108.701 262.919 112.455C271.053 89.273 291.427 42.551 318.576 33.552C328.934 30.119 335.825 43.841 336.96 52.831C340.59 81.592 328.498 115.035 311.917 138.24C328.171 155.327 330.843 160.667 333.967 183.722C336.543 202.725 339.75 210.63 328.859 228.947L333.677 228.797C337.723 222.084 340.178 216.835 347.299 213.202C350.184 206.582 353.033 199.408 356.519 193.123C381.091 148.829 436.914 129.546 483.106 149.924C507.215 160.387 526.089 180.12 535.466 204.665C536.975 208.588 538.099 212.254 539.223 216.304C547.156 221.598 551.74 229.241 553.119 238.643C555.844 257.225 554.452 287.92 533.319 294.576C524.219 312.4 515.923 323.204 498.662 334.73C494.956 337.204 483.462 342.343 480.862 344.501C482.415 346.552 488.318 347.385 490.87 347.954C513.681 353.045 533.478 367.175 548.117 385.314C552.728 367.508 556.495 347.706 573.936 337.541C575.541 336.625 577.176 335.763 578.839 334.957C580.036 329.157 580.171 328.239 584.351 324.181C573.642 319 559.929 310.399 574.861 298.931C559.756 272.987 560.738 257.43 561.624 227.904C561.738 224.14 562.363 209.744 561.854 206.83C559.3 192.221 550.985 187.578 555.636 169.729C557.407 162.938 561.366 157.724 565.685 152.171C557.557 139.274 560.054 117.186 580.528 123.331C582.037 123.785 592.19 124.258 593.915 123.983C631.412 117.998 675.627 104.631 698.911 145.819C731.843 163.944 723.858 198.041 714.642 227.27C722.066 250.729 712.253 271.262 686.964 274.962C684.44 280.304 681.094 286.331 678.808 291.372C688.476 296.907 692.565 302.566 701.001 309.271C704.969 312.427 714.283 314.804 719 317.419C738.164 326.601 762.13 337.159 767.64 359.967C773.528 384.322 767.36 411.685 759.656 434.957C758.376 438.833 752.756 450.966 752.61 453.787C752.213 461.617 753.195 472.446 753.676 480.386C754.78 500.349 756.316 520.288 758.278 540.19C759.247 550.501 765.135 592.664 760.997 599.458C757.571 605.083 749.568 607.63 743.613 609.555C743.863 663.436 743.497 717.323 742.516 771.192C742.138 788.559 743.138 807.15 740.876 824.43C740.602 826.53 738.158 829.87 736.829 831.62C738.072 837.68 738.341 843.18 738.572 849.34C745.667 850.69 760.454 854.16 764.422 860.61C769.695 869.34 753.323 874.79 747.392 876.38C713.173 885.52 676.797 888.79 641.658 892.56C620.367 894.85 598.26 895.15 576.978 896.39C491.06 901.56 404.935 902.33 318.939 898.71C266.199 896.69 212.78 894.49 160.488 887.38C137.931 884.38 113.658 882.09 92.0674 874.57C59.8066 863.32 88.6254 853.94 103.141 849.01C103.628 840.14 105.383 830.37 106.801 821.53C104.261 819.18 101.317 816.22 101.043 812.62C99.3128 789.772 100.189 765.921 100.408 743.088C100.624 695.361 101.483 647.647 102.982 599.946C101.99 599.019 101.027 598.063 100.093 597.075C95.2497 591.865 96.509 583.206 96.8046 576.564C75.4695 575.376 42.65 569.733 35.3582 546.357C29.4722 527.485 35.2336 504.31 36.7235 484.865C37.0591 480.49 36.1107 476.053 35.9984 471.684C35.8052 464.116 36.8238 453.824 39.9349 446.871C41.6398 443.062 44.8942 441.916 48.4355 440.698C51.694 419.839 54.497 398.988 58.5099 378.487C63.4935 353.027 66.7398 334.184 94.7597 326.339C107.858 322.672 117.067 321.223 130.792 320.398C117.692 306.326 109.773 288.217 108.334 269.049C104.792 225.557 125.925 178.152 153.701 145.402Z" fill="#2F2E2E"/>
<path d="M326.281 831.87C308.528 858.05 311.023 872.4 344.495 874.27C362.884 875.3 385.391 873.34 400.528 861.9C411.376 853.7 404.662 838.76 405.563 829.12C408.304 830.73 439.441 830.09 445.324 830.1C438.689 858.03 444.805 865.74 473.855 872.09C487.301 875.02 529.808 880.97 535.429 861.97C537.627 854.54 529.171 838.86 524.431 832.04C524.082 831.53 523.72 831.04 523.347 830.55C526.614 830.38 556.917 832.96 559.246 833.63C553.888 837.21 549.704 841.55 548.38 848.1C545.609 861.78 556.769 865.1 567.605 866.47C586.874 868.8 606.419 867.1 624.993 861.46C629.504 863.07 632.015 863.2 636.806 863.27C638.738 878.95 652.885 879.75 665.862 880.59C684.276 881.79 701.824 877.87 718.653 870.58C721.182 869.49 726.869 870.28 730.508 868.75C732.483 867.91 734.202 866.56 735.482 864.83C738.694 860.47 738.456 854.65 738.572 849.34C745.667 850.69 760.454 854.16 764.422 860.61C769.694 869.34 753.322 874.79 747.392 876.38C713.173 885.52 676.797 888.79 641.658 892.56C620.367 894.85 598.26 895.15 576.977 896.39C491.06 901.56 404.935 902.33 318.939 898.71C266.199 896.69 212.78 894.49 160.487 887.38C137.931 884.38 113.658 882.09 92.067 874.57C59.8063 863.32 88.6251 853.94 103.14 849.01C103.149 852.17 103.36 855.96 104.069 859.03C106.41 869.15 119.039 872.56 128.109 869.94C141.966 876.98 157.739 878.39 173.033 878.76C182.453 878.99 199.44 878.68 206.099 871.68C209.427 868.18 209.296 866.42 209.364 861.99C212.55 861.96 218.724 860.82 220.481 861.02C224.415 861.48 230.114 862.65 234.216 863.35C241.202 864.51 248.258 865.21 255.337 865.44C265.552 865.79 279.356 865.72 288.947 862.27C302.853 857.26 296.786 841.16 288.987 833.71C296.926 832.22 318.602 830.43 326.281 831.87Z" fill="#D9D8D8"/>
<path d="M279.327 606.228C286.471 597.764 283.309 592.261 285.368 581.914C286.291 577.277 290.471 571.36 291.257 566.978C293.43 554.864 292.544 540.05 292.591 527.503C307.377 541.031 322.909 539.441 340.09 532.609C342.164 549.483 337.926 566.454 347.148 582.993L345.398 596.417C332.535 609.695 336.323 665.648 337.484 684.667C338.079 694.405 340.419 704.38 345.627 712.698C335.298 725.361 338.456 755.519 339.604 771.417C340.555 784.592 341.385 802.76 344.165 815.48C335.402 821.3 332.466 823.49 326.282 831.87C318.603 830.43 296.927 832.22 288.988 833.71C276.625 824.83 263.142 822.42 254.896 813.43C261.012 807.46 261.143 794.641 262.22 786.152C264.116 770.54 265.838 754.903 267.386 739.255C271.804 696.038 277.15 649.628 279.327 606.228Z" fill="#FBFBFA"/>
<path d="M523.723 533.463C533.303 538.594 553.451 542.92 564.43 542.366C563.656 554.98 563.002 567.606 562.468 580.232C561.909 593.51 558.376 604.107 573.471 609.245C574.792 624.985 574.79 643.101 575.694 659.335L582.207 762.85C582.912 775.244 583.682 787.645 584.518 800.034C584.924 805.54 585.427 814.8 586.793 819.85C579.094 824.73 567.633 829.38 559.246 833.63C556.917 832.96 526.614 830.38 523.347 830.55C517.453 823.98 514.563 821.29 506.448 817.15C511.183 794.616 512.877 769.108 513.75 746.031C514.12 736.244 513.654 724.879 508.234 716.403C508.048 716.117 507.856 715.83 507.659 715.55C511.051 710.218 513.628 704.216 514.259 697.902C516.313 677.312 522.832 613.394 509.679 599.409L508.26 584.693C515.994 568.636 516.43 558.575 516.212 540.97L523.723 533.463Z" fill="#FBFBFA"/>
<path d="M418.529 636.349C425.812 637.519 429.04 637.934 436.605 637.136C429.822 649.475 436.633 679.061 436.916 693.533C437.061 700.968 439.876 710.773 443.542 717.293C440.737 721.491 438.209 726.775 438.096 731.845C437.415 762.295 439.475 800.338 445.324 830.1C439.441 830.09 408.305 830.73 405.563 829.12C409.372 807.28 412.015 785.256 413.482 763.142C414.484 749.76 417.201 728.054 409.383 716.683C412.205 711.991 413.35 709.304 414.749 703.954C417.726 692.583 422.076 649.975 419.657 640.243C419.33 638.933 418.954 637.635 418.529 636.349Z" fill="#FBFBFA"/>
<path d="M331.14 271.541L333.364 270.79C335.9 276.57 340.589 282.903 346.519 285.538C357.381 317.341 372.815 332.863 403.357 346.126C399.479 347.21 393.945 348.584 390.311 350.005C370.995 326.331 333.004 349.241 337.705 376.754C331.728 382.578 327.257 387.831 322.739 394.919C320.203 391.113 315.838 387.6 314.745 385.679C306.701 371.537 307.438 368.032 293.658 358.27C296.859 353.06 300.142 347.834 306.277 345.474L307.006 347.736C309.04 348.522 310.941 347.826 312.895 346.99C341.409 334.789 343.207 297.478 331.611 272.509C331.461 272.183 331.304 271.86 331.14 271.541Z" fill="#FBFBFA"/>
<path d="M328.859 228.947L333.677 228.797C331.083 240.612 329.991 249.835 331.632 262.049C331.982 264.655 333.148 268.93 333.364 270.79L331.14 271.541C330.315 271.001 329.048 268.535 328.407 267.619C321.966 258.415 323.812 243.829 325.361 233.224C326.581 231.559 327.507 230.478 328.859 228.947Z" fill="#737272"/>
<path d="M189.346 26.48C190.528 26.369 191.719 26.415 192.889 26.619C213.731 30.177 211.978 98.36 208.623 113.655C207.4 119.227 202.09 132.194 204.91 135.802L206.374 135.813C211.173 133.217 213.347 124.99 214.997 119.802C239.137 113.533 263.122 118.182 285.161 129.25C301.376 137.393 318.916 151.715 324.633 169.41C319.17 162.669 314.775 158.888 306.802 155.005C290.515 147.209 271.798 146.198 254.766 152.193C213.573 166.608 189.648 205.592 178.463 245.682C168.755 278.278 175.027 310.201 197.959 335.781C211.771 351.187 231.504 363.07 245.165 378.722C247.61 381.524 249.013 395.264 249.405 399.707C253.044 440.856 249.251 482.409 245.898 523.463C243.966 546.808 243.405 568.325 232.783 589.818C212.27 592.852 179.337 590.317 158.768 588.178C149.261 587.191 119.877 578.605 115.63 579.458L115.683 580.299C124.555 587.435 148.98 591.323 160.332 593.09C182.248 596.771 208.93 596.308 230.995 594.894C229.865 600.939 228.968 605.21 227.281 611.103C190.187 615.856 148.161 611.079 113.443 597.148C97.8372 590.884 105.832 584.443 103.396 574.73C99.4915 559.154 98.7125 556.473 101.053 540.489C108.658 539.794 115.201 537.935 122.301 535.266C149.418 525.059 172.338 506.083 187.412 481.343C192.868 472.379 197.068 462.97 201.389 453.44C216.005 451.721 217.596 437.108 218.583 425.152C218.81 422.41 219.065 419.68 218.821 416.932C218.495 413.251 216.377 410.637 218.196 406.966C218.614 404.171 217.813 400.729 216.606 398.223C213.665 392.116 208.683 389.192 202.676 386.966C200.186 379.265 197.738 371.282 194.747 363.783C199.144 366.663 223.421 380.646 227.03 378.516L226.936 377.422C221.542 371.716 210.151 367.154 203.267 362.594C186.085 351.214 168.148 341.154 151.235 329.355C97.1729 291.638 113.472 220.786 142.76 172.785C146.759 166.233 151.46 160.03 156.007 153.786C157.618 157.232 158.852 160.723 163.403 160.138C164.085 158.837 164.528 157.891 164.132 156.345C161.017 144.212 158.517 133.073 157.619 120.462C156.241 103.076 158.031 85.584 162.905 68.838C167.312 53.949 175.188 34.187 189.346 26.48Z" fill="#FBFBFA"/>
<path d="M189.097 143.386C186.079 146.135 183.729 149.109 179.622 146.831C178.116 144.81 177.462 142.834 176.967 140.102C172.671 116.406 172.221 84.591 183.626 62.819C184.443 61.495 186.396 59.538 188.05 59.516C195.664 59.413 196.641 71.502 197.242 76.517C200.54 90.626 197.936 131.219 189.097 143.386Z" fill="#D9D8D8"/>
<path d="M197.242 76.517C200.54 90.626 197.935 131.218 189.097 143.386C188.758 143.004 188.604 142.858 188.318 142.391C186.689 139.727 193.062 115.999 193.737 111.255C195.372 99.772 194.949 87.854 197.242 76.517Z" fill="#242424"/>
<path d="M179.277 516.01C180.878 516.449 180.788 516.516 181.87 517.863C182.877 523.085 178.742 532.073 176.759 537.021C172.617 547.35 163.34 562.438 153.514 568.148C152.759 567.874 152.197 567.277 151.544 566.735C151.099 563.578 156.318 558.447 158.817 556.156C170.161 545.735 172.12 527.04 179.277 516.01Z" fill="#2F2E2E"/>
<path d="M607.333 560.062C617.521 562.237 629.09 562.664 639.44 562.889C642.128 576.521 643.121 592.164 648.704 604.924C651.679 611.713 654.69 614.174 661.346 616.612C686.239 623.254 711.638 617.422 736.226 612.212V670.712C736.214 676.739 736.506 694.356 735.787 699.962C736.244 715.148 735.732 820.16 733.105 823.92C731.539 826.16 726.132 827.65 723.548 828.17C711.857 830.51 684.8 831.2 674.822 824.5C673.585 823.68 673.11 822.86 672.683 821.45C671.501 817.53 671.348 812.79 670.824 808.73C669.44 797.992 668.154 787.237 666.96 776.475L655.049 674.533C653.654 662.333 652.173 650.146 650.6 637.964C648.558 622.078 650.838 618.056 634.112 611.895C630.23 610.463 624.848 606.819 620.587 607.855L620.422 608.934C623.921 614.077 636.392 620.622 642.292 623.918C644.919 646.24 647.571 668.994 650.24 691.333C651.161 699.042 650.393 711.778 650.344 719.858C650.356 739.273 649.948 758.688 649.113 778.084C648.79 787.127 648.692 809.95 647.254 817.82C640.055 827.04 602.439 821.37 592.611 815.49C591.871 791.832 589.323 767.773 588.09 744.105C585.787 699.926 581.456 655.338 581.276 611.097C599.073 613.053 601.932 599.872 604.099 585.296C605.342 576.942 606.289 568.447 607.333 560.062Z" fill="#FBFBFA"/>
<path d="M661.346 616.612C686.239 623.254 711.637 617.422 736.226 612.212V670.712C736.214 676.739 736.506 694.356 735.787 699.962C735.129 695.447 735.445 678.878 735.445 673.637L735.689 618.537C723.188 620.341 665.716 630.701 661.346 616.612Z" fill="#D9D8D8"/>
<path d="M109.671 607.886C109.731 605.588 109.306 605.04 110.592 603.742C114.182 603.791 117.632 606.923 121.301 608.02C128.698 610.226 136.358 612.194 143.874 613.888C186.488 623.12 230.762 621.255 272.448 608.471C272.061 612.115 271.716 615.771 271.411 619.427C268.158 662.534 264.137 705.587 259.352 748.554C257.444 766.061 255.799 784.531 252.843 801.88C252.41 804.42 251.45 807.07 248.818 808.29C235.085 814.69 217.126 813.94 202.521 811.31C199.839 810.83 195.866 808.49 195.198 806.55C193.705 802.22 193.367 790.966 193.541 786.469C194.003 774.598 192.172 755.488 193.422 744.349C195.066 729.7 198.456 711.638 201.143 696.934C204.271 679.828 207.006 658.214 211.084 641.797C216.669 639.012 231.546 635.283 233.564 629.665L233.027 628.933C228.243 627.617 205.538 635.216 204.441 639.616C201.852 649.993 199.919 662.065 198.136 672.729L183.335 760.369C181.501 771.881 179.515 783.361 177.379 794.817C176.153 801.45 174.749 810.37 172.464 816.54C158.308 824.06 119.689 824.57 109.065 813.91C106.098 810.94 107.709 747.158 107.775 739.955L109.671 607.886Z" fill="#FBFBFA"/>
<path d="M109.671 607.886C109.732 605.588 109.307 605.04 110.592 603.742C114.183 603.791 117.633 606.923 121.302 608.02C128.698 610.226 136.359 612.194 143.875 613.888C186.489 623.12 230.763 621.255 272.448 608.471C272.062 612.115 271.716 615.771 271.412 619.427L270.784 615.655C266.866 612.998 236.631 621.207 230.032 622.096C204.48 625.564 179.038 623.211 153.738 619.768C146.444 618.775 112.134 607.538 109.671 607.886Z" fill="#D9D8D8"/>
<path d="M435.518 149.789C473.701 145.06 513.709 169.998 527.718 205.031C529.18 208.686 530.422 212.313 531.633 216.053C529.275 217.298 526.255 218.844 524.743 221.083C514.556 236.164 509.809 280.563 525.525 292.621C523.068 298.207 519.996 303.502 516.365 308.406C500.874 329.026 479.155 338.864 454.246 342.451C453.811 342.507 453.375 342.559 452.939 342.608C316.93 358.03 317.908 162.687 435.518 149.789Z" fill="#FBFBFA"/>
<path d="M408.19 207.722L408.828 207.68C429.161 206.462 459.148 207.394 478.296 212.589C506.724 220.301 513.301 265.434 494.094 285.264C483.893 295.795 469.571 297.885 455.771 298.394C436.695 299.129 419.822 298.284 400.743 296.225C378.218 295.085 359.835 280.544 359.773 256.346C359.685 221.971 377.158 209.348 408.19 207.722Z" fill="#2F2E2E"/>
<path d="M462.004 239.097C477.27 238.606 477.795 263.61 465.354 270.688C449.262 270.077 450.257 245.669 462.004 239.097Z" fill="#FBFBFA"/>
<path d="M395.462 237.355C410.21 235.101 412.122 260.301 399.92 268.448C384.247 269.067 383.612 244.933 395.462 237.355Z" fill="#FBFBFA"/>
<path d="M413.227 306.597C419.177 307.068 421.771 310.734 427.605 311.765C432.421 312.616 444.774 305.623 446.89 310.52C446.61 312.484 445.743 313.116 444.397 314.609C433.918 321.689 407.061 319.424 413.227 306.597Z" fill="#2F2E2E"/>
<path d="M435.46 378.357C478.997 374.611 517.333 406.851 521.095 450.374C524.857 493.902 492.623 532.238 449.088 536.016C405.53 539.794 367.16 507.552 363.395 464C359.631 420.454 391.9 382.104 435.46 378.357Z" fill="#FBFBFA"/>
<path d="M487.87 403.58C490.503 403.3 491.183 403.334 492.984 404.59C493.442 406.045 493.283 407.065 492.826 408.505C490.076 417.182 483.16 426.304 478.709 434.354C472.943 444.78 466.334 459.314 458.619 468.205C452.397 475.377 406.37 501.44 395.208 507.247C392.884 507.924 392.193 508.228 390.701 506.272C390.445 504.926 390.463 503.871 390.852 502.543C393.044 495.078 399.711 487.906 403.626 481.129C410.345 469.497 418.767 452.629 427.417 442.794C431.507 438.144 479.367 408.363 487.87 403.58Z" fill="#2F2E2E"/>
<path d="M428.205 452.245C430.035 464.847 434.839 469.216 447.452 469.009C435.924 476.035 424.792 483.153 413.036 490.191C407.811 493.055 404.604 495.358 399.738 498.868C409.88 484.225 418.103 467.431 428.205 452.245Z" fill="#D9D8D8"/>
<path d="M440.813 444.275C446.007 442.696 451.494 445.633 453.061 450.831C454.628 456.029 451.679 461.508 446.479 463.062C441.294 464.615 435.832 461.678 434.269 456.493C432.707 451.313 435.634 445.847 440.813 444.275Z" fill="#D9D8D8"/>
<path d="M583.703 159.042C601.381 172.064 626.407 171.178 646.503 166.027C651.763 164.679 661.126 162.471 666.093 164.042C670.866 168.602 663.155 181.702 663.765 189.164C664.789 201.676 669.708 209.252 674.645 220.433C676.882 225.5 675.571 234.035 679.18 237.276C687.549 239.238 689.17 225.507 697.136 225.236C705.773 224.943 709.406 229.832 710.01 237.638C710.686 245.754 707.998 253.792 702.573 259.872C696.405 266.82 690.206 267.41 681.709 267.861C678.217 278.049 676.925 281.473 671.232 290.572C673.219 295.297 673.761 296.749 673.42 301.823C665.789 313.585 656.896 319.285 645.388 326.696C647.174 319.412 656.755 305.411 647.466 300.479C634.52 293.61 627.456 308.973 622.464 317.943C618.715 316.189 614.235 313.181 610.688 310.919C601.209 304.874 594.57 301.756 583.583 299.261C560.646 265.084 569.622 230.703 570.184 191.729C570.355 179.862 575.963 167.942 583.703 159.042Z" fill="#FBFBFA"/>
<path d="M618.362 277.75C637.861 273.795 632.68 296.901 612.37 296.291C610.335 295.716 606.955 294.789 605.317 293.522C584.075 277.097 609.027 279.035 618.362 277.75Z" fill="#2F2E2E"/>
<path d="M599.174 231.38C600.595 231.816 600.573 231.884 601.686 232.768C604.645 239.253 597.056 248.551 595.661 254.923C594.12 261.959 603.854 259.66 606.434 263.867C606.005 265.865 606.212 265.195 604.087 266.765C599.098 266.688 592.378 265.525 590.111 260.386C587.167 253.714 592.659 246.729 595.211 240.863C596.583 237.711 597.86 234.55 599.174 231.38Z" fill="#2F2E2E"/>
<path d="M630.967 218.817C640.866 221.639 640.5 236.322 632.448 241.485C620.989 239.753 623.506 225.154 630.967 218.817Z" fill="#2F2E2E"/>
<path d="M583.305 218.218C592.554 219.43 593.108 233.569 585.57 239.302C575.703 238.629 576.802 223.925 583.305 218.218Z" fill="#2F2E2E"/>
<path d="M630.485 196.657C637.184 196.082 649.551 198.772 650.88 207.56C651.063 208.774 650.41 209.075 649.63 209.791C647.29 209.618 647.57 209.27 645.528 207.54C634.746 200.269 627.7 206.061 622.439 202.555L622.366 201.393C624.682 197.915 626.505 197.757 630.485 196.657Z" fill="#2F2E2E"/>
<path d="M581.688 195.365C582.292 195.327 582.895 195.303 583.499 195.294C587.768 195.238 594.815 197.445 594.658 202.534L593.414 203.44C590.773 204.102 586.435 202.13 582.838 201.425C579.646 202.117 577.162 203.847 574.416 205.555C572.244 205.408 572.75 205.766 571.364 204.598C571.368 200.371 577.909 196.38 581.688 195.365Z" fill="#2F2E2E"/>
<path d="M301.364 182.111C322.988 196.202 318.531 226.691 317.151 248.36C315.655 271.846 317.808 295.611 302.318 315.486C287.907 333.976 265.286 345.339 242.265 335.82C239.172 334.548 229.98 330.228 227.535 330.59C225.511 337.24 242.872 342.783 247.254 344.386C246.637 352.934 248.758 357.788 251.714 365.563L247.553 371.236C240.315 364.229 232.137 357.309 224.526 350.643C216.243 344.333 205.644 334.928 199.868 326.286C201.92 322.361 202.817 318.415 203.903 314.132L205.667 313.166C206.015 310.483 200.138 304.235 198.886 300.94C196.655 295.068 195.205 289.05 193.23 283.072C189.597 284.408 185.882 286.337 182.588 283.777C178.757 276.302 183.681 254.157 185.852 245.903C188.045 248.069 193.101 255.067 195.278 255.134C205.741 255.458 214.453 229.407 216.134 223.33C233.379 220.148 250.61 213.5 263.211 200.83C260.839 204.468 256.95 208.711 260.645 212.503C263.164 213.387 265.916 212.773 268.386 211.919C285.445 206.02 293.5 197.306 301.364 182.111Z" fill="#FBFBFA"/>
<path d="M251.245 292.64C255.074 292.814 265.288 298.018 270.864 299.455C275.443 300.636 283.632 300.407 285.557 301.262C287.097 302.949 286.785 302.165 287.146 304.279C286.128 307.721 283.318 309.957 280.665 312.229C262.501 324.903 240.874 304.753 251.245 292.64Z" fill="#2F2E2E"/>
<path d="M250.37 239C261.521 243.105 261.196 258.523 251.41 264.342C240.734 263.681 240.993 244.771 250.37 239Z" fill="#2F2E2E"/>
<path d="M301.874 240.16C311.942 242.753 310.392 259.148 302.823 264.438C291.345 261.984 293.98 246.007 301.874 240.16Z" fill="#2F2E2E"/>
<path d="M286.005 260.078C293.237 261.315 306.432 283.913 285.536 288.555C283.281 288.409 280.808 288.635 280.217 286.14C281.26 284.287 287.308 281.517 289.235 280.011C295.216 275.337 284.652 270.009 286.005 260.078Z" fill="#2F2E2E"/>
<path d="M249.648 214.928C253.574 214.796 263.717 216.608 262.551 221.794C257.366 224.623 252.663 219.454 244.141 222.763L243.487 223.02C239.845 224.971 236.611 229.427 232.743 228.276C231.79 222.224 244.624 216.075 249.648 214.928Z" fill="#2F2E2E"/>
<path d="M302.82 215.499C307.831 215.315 318.847 218.886 314.633 224.36C312.409 224.524 312.106 223.873 309.854 222.671C303.778 221.099 301.52 224.528 296.39 222.505L296.006 221.361C297.608 218.097 299.753 217.053 302.82 215.499Z" fill="#2F2E2E"/>
<path d="M702.5 317.89C718.616 325.323 748.897 337.72 757.309 353.517C767.494 373.943 761.88 404.223 755.651 424.714C747.544 451.404 720.5 517.15 684.056 504.956C660.175 496.967 620.501 443.025 608.767 420.57C613.614 415.061 626.273 404.703 632.216 399.91C638.025 395.518 643.389 391.311 649.332 386.959C655.445 393.732 660.541 402.021 666.289 409.198C670.202 414.08 703.988 452.361 705.81 452.854C706.73 453.104 706.688 452.897 707.431 452.44C709.065 446.377 698.215 434.927 694.601 430.661C701.909 409.195 710.65 388.451 718.775 367.421C718.97 366.919 718.062 366.522 717.726 366.298C710.314 369.663 693.461 415.482 689.213 425.75C686.19 422.453 684.318 420.271 681.588 416.652C686.104 404.247 692.62 392.678 698.417 380.842C700.215 377.16 701.824 374.346 703.012 370.411C700.202 367.246 694.211 361.918 690.968 358.877C696.082 356.286 700.33 356.204 704.884 351.816C706.487 347.882 703.153 324.017 702.5 317.89Z" fill="#FBFBFA"/>
<path d="M745.509 468.034C746.582 470.38 747.667 499.082 747.996 503.938C749.361 522.159 750.97 540.355 752.823 558.532C753.896 569.995 755.347 583.377 755.194 594.821C740.986 608.952 697.808 611.914 678.388 612.096C656.902 612.298 652.624 603.065 649.856 583.346C642.871 545.096 642.298 518.576 643.28 480.222C650.862 489.856 662.662 502.202 673.445 508.21C708.169 527.552 730.874 493.664 745.509 468.034Z" fill="#FBFBFA"/>
<path d="M732.922 532.957L735.963 532.756C737.53 533.725 736.939 533.097 737.828 534.681L737.371 536.071C731.081 541.677 699.416 544.328 689.7 545.035C688.481 544.992 687.147 544.773 685.934 544.614C684.142 543.207 684.532 543.92 683.989 541.945C684.849 540.812 685.117 540.41 686.689 540.245C702.305 538.594 717.623 536.644 732.922 532.957Z" fill="#2F2E2E"/>
<path d="M134.953 353.16C157.692 351.573 166.332 378.522 171.178 396.319C165.947 403.63 163.425 407.46 159.717 415.597C154.069 417.285 150.905 419.193 145.627 421.453C143.105 422.307 139.353 422.075 136.945 422.916C129.029 425.689 91.2047 439.741 90.0905 448.321L91.1639 449.076C95.8706 449.028 115.609 438.199 121.794 435.78C130.178 432.495 132.917 430.941 142.265 428.809C141.114 446.212 146.009 465.42 160.809 476.084L163.511 477.315L163.861 478.32C162.64 480.868 159.554 482.702 157.459 484.627C140.788 499.984 106.556 515.315 84.8346 504.883C77.5788 501.403 72.0163 495.163 69.3831 487.558C58.5281 456.036 103.894 363.659 134.953 353.16Z" fill="#FBFBFA"/>
<path d="M271.027 344.692C277.848 349.228 282.154 350.044 290.062 351.469C286.359 355.734 283.147 359.504 278.826 363.181C275.536 365.981 262.951 373.892 263.026 378.503C266.774 379.037 274.208 373.306 277.412 370.996C280.699 378.015 282.243 384.636 283.827 392.162C282.17 395.171 280.738 397.634 279.769 400.975C278.222 406.31 281.084 407.526 281.689 411.515C283.32 422.264 283.991 435.012 289.862 444.427C289.692 449.637 289.464 457.876 288.233 462.684C284.943 475.529 281.12 484.56 280.626 498.064C280.061 505.456 283.388 512.208 284.512 519.295C285.529 525.705 285.363 532.908 285.495 539.428C285.643 546.723 285.784 554.127 284.761 561.366C284.097 566.07 282.837 569.958 281.083 574.346C279.726 577.015 278.389 578.825 276.672 581.268C272.785 581.591 266.296 583.675 262.189 584.796C253.624 587.136 247.127 588.599 238.303 589.184C249.722 563.097 248.997 541.683 251.373 513.676C255.389 466.34 258.989 425.823 250.853 378.758C257.553 365.106 266.928 361.591 271.027 344.692Z" fill="#FBFBFA"/>
<path d="M571.039 128.934C585.852 131.418 595.232 131.163 609.914 128.158C634.996 123.025 671.951 118.019 688.938 142.217C691.151 145.361 693.138 149.558 696.259 152.035C703.025 156.653 707.663 158.434 711.412 166.354C719.988 184.453 715.319 203.714 709.339 221.656C698.471 216.1 691.444 219.423 683.02 227.283C679.911 214.265 672.884 206.256 670.281 193.397C668.544 184.785 675.456 169.908 673.719 164.357C669.336 150.338 636.099 163.449 624.207 163.135C610.133 162.764 602.131 162.905 589.698 155.174C587.139 154.671 584.268 154.728 581.906 155.93L580.543 156.373C579.378 156.008 578.595 155.685 577.553 155.04C572.777 152.013 569.421 147.189 568.247 141.658C567.034 136.081 568.088 133.49 571.039 128.934Z" fill="#5B5B5A"/>
<path d="M581.906 155.93C580.772 153.023 579.536 150.481 580.455 147.41L581.466 147.04C584.251 148.434 587.453 152.67 589.698 155.174C587.139 154.671 584.268 154.728 581.906 155.93Z" fill="#2F2E2E"/>
<path d="M347.279 540.982C358.04 546.04 364.125 546.162 374.808 549.916C379.975 552.128 384.65 556.369 389.575 558.88C431.875 580.391 471.826 572.914 509.476 547.04C508.838 557.375 508.271 565.406 505.557 575.382C495.13 574.126 492.458 575.637 483.843 581.512C478.079 586.448 474.813 590.208 469.869 596.24C461.841 605.728 450.908 625.21 438.647 629.067C400.518 641.078 393.465 587.246 365.684 574.614C359.834 571.957 355.8 571.908 350.357 573.98C347.665 563.822 347.48 551.439 347.279 540.982Z" fill="#ECECEB"/>
<path d="M349.991 602.371C354.464 602.547 362.064 604.516 365.614 607.477C378.335 618.08 401.245 633.242 413.22 642.163C415.644 643.967 410.265 694.283 409.034 699.67C406.978 708.67 406.836 716.33 395.508 713.624C390.578 707.128 390.622 700.651 379.753 695.684C371.185 691.766 362.565 693.155 356.131 700.267C354.057 702.564 353.237 705.069 350.929 705.91C340.33 702.333 340.757 611.847 349.991 602.371Z" fill="#FBFBFA"/>
<path d="M503.625 605.527C505.144 605.558 505.178 605.686 506.485 606.38C513.344 615.448 511.034 699.079 503.383 709.481C502.784 709.365 495.92 700.803 492.201 698.945C477.648 691.656 466.751 701.15 459.66 713.911C458.973 714.258 458.322 714.514 457.588 714.758C455.612 715.416 453.401 716.013 451.479 714.849C447.895 712.692 445.854 706.44 444.91 702.619C443.066 695.172 438.416 647.318 441.681 642.705C444.772 638.342 452.96 637.081 457.527 634.308C469.082 627.3 478.829 617.258 490.403 610.512C494.756 607.983 498.63 606.374 503.625 605.527Z" fill="#FBFBFA"/>
<path d="M349.313 720.303C353.163 725.592 353.104 733.009 358.294 737.78C362.354 741.522 369.803 744.038 375.291 743.679C385.327 743.027 389.204 734.642 395.245 728.201C397.001 726.324 400.829 724.38 403.49 724.429C404.691 724.447 405.632 724.88 406.42 725.806C411.308 731.552 403.401 797.377 401.849 808.76C400.852 816.03 399.981 822.42 397.547 829.36C382.683 814.69 372.149 808.72 350.636 812.59L349.857 807.24C347.68 791.795 341.342 730.888 349.313 720.303Z" fill="#FBFBFA"/>
<path d="M503.684 723.332C504.069 723.691 504.232 723.801 504.522 724.203C511.32 733.581 502.488 800.332 500.404 814.1C478.545 810.66 468.649 816.83 452.693 830.52C450.774 824.4 449.813 815.74 449.105 809.37C446.162 785.39 444.899 759.419 444.276 735.196C444.187 731.784 445.219 727.372 447.826 724.995C457.52 720.852 463.993 743.66 475.191 745.111C492.335 747.329 500.031 738.682 503.684 723.332Z" fill="#FBFBFA"/>
<path d="M573.3 346.297C574.065 349.443 570.907 353.834 571.6 357.847C572.901 365.378 580.566 370.004 582.232 377.445C584.072 385.663 584.074 395.056 585.267 403.491C586.807 414.385 588.283 425.475 590.58 436.231C592.283 444.208 594.594 452.087 596.55 460.009C598.686 468.656 600.269 476.998 603.458 485.346C607.751 496.583 599.154 586.667 593.149 599.141C592.13 601.262 590.932 603.291 588.547 604.004C582.653 605.759 574.241 601.798 569.296 598.952C569.12 586.052 570.327 571.262 570.575 557.966C571.072 552 571.438 546.4 571.418 540.41C623.043 518.752 587.808 460.563 574.32 425.378C573.392 422.959 574.63 407.767 574.029 403.554C573.294 398.411 574.745 384.771 572.374 380.527L571.665 380.719C568.82 386.286 568.6 408.96 568.385 416.17C563.789 407.142 559.067 400.52 553.174 392.311C556.615 377.663 561.591 355.951 573.3 346.297Z" fill="#FBFBFA"/>
<path d="M274.131 155.307C283.089 154.264 291.586 156.621 299.771 159.876C299.492 182.6 287.714 199.321 265.616 205.678C267.736 201.888 274.026 187.426 269.689 184.407C267.931 185.04 266.907 187.016 265.615 188.696C253.865 204.151 236.297 214.121 217 216.284C210.561 217.016 203.324 216.591 197.311 217.491C197.356 218.477 197.222 219.815 197.733 220.45C199.565 222.734 207.146 223.052 210.047 223.433C206.408 235.53 204.061 238.302 197.091 248.781C193.62 244.233 191.879 242.608 187.164 239.375C200.016 200.215 229.929 159.183 274.131 155.307Z" fill="#5B5B5A"/>
<path d="M433.889 352.738C442.861 352.012 452.778 352.181 461.673 353.578C486.921 357.715 509.518 371.641 524.558 392.334C541.594 415.847 545.484 441.094 540.95 469.18C536.411 470.069 534.02 470.721 529.635 472.086L530.049 469.454C538.3 415.561 509.244 372.243 454.234 364.145C393.16 358.51 345.054 406.509 351.158 467.565C346.833 465.706 344.237 465.207 339.722 464.293C336.338 406.565 375.874 358.29 433.889 352.738Z" fill="#D9D8D8"/>
<path d="M578.389 304.957C591.465 305.165 606.001 314.477 616.009 322.674C619.252 325.333 624.286 332.479 627.565 333.011C628.254 332.134 628.547 321.006 629.79 317.186C631.637 311.523 638.653 302.16 645.059 306.806C646.028 309.818 643.358 313.914 642.023 316.725C637.001 327.291 641.127 337.647 640.335 348.633C639.719 357.199 636.976 365.577 636.538 374.407C629.668 378.497 623.055 383.012 616.74 387.927L609.111 393.663C594.403 386.662 591.541 379.724 584.108 366.075C581.942 362.097 576.694 357.996 579.224 353.194C581.751 352.173 582.68 354.176 585.934 353.528C587.87 348.199 578.352 348.353 581.123 342.976C584.267 336.875 592.186 346.02 595.32 341.784C594.654 337.781 590.25 338.28 586.306 334.639C585.93 333.495 585.55 333.35 586.017 332.344C590.269 323.192 598.634 333.197 603.769 330.669L604.068 329.427C599.533 320.147 575.902 316.235 575.193 308.106C576.19 306.077 576.428 306.341 578.389 304.957Z" fill="#FBFBFA"/>
<path d="M44.2466 482.683C50.4137 484.134 55.6593 485.164 61.9073 486.23C68.0824 506.352 78.9923 511.799 98.338 514.962C92.6231 521.592 90.4751 531.622 95.1965 539.355C92.5158 549.898 91.9392 557.368 94.3315 568.039L94.3285 568.831C92.2854 569.848 86.729 568.745 84.3323 568.295C67.5521 565.132 41.7572 558.392 40.2482 537.503C39.1038 521.659 41.2512 498.418 44.2466 482.683Z" fill="#737272"/>
<path d="M113.698 824.49C116.181 825.02 119.457 826.33 122.682 827C138.729 830.32 150.839 828.84 166.701 825.79C173.895 839.53 186.756 841.18 197.422 850.92C202.401 855.46 205.868 863.21 199.759 868.5C184.817 873.91 159.279 871.37 144.198 868.09C139.743 867.13 132.092 864.17 128.445 863.54C119.82 862.04 119.632 863.78 110.939 859.93C108.626 846.96 110.892 837.15 113.698 824.49Z" fill="#5B5B5A"/>
<path d="M270.048 114.576C277.786 93.59 285.905 75.721 299.662 58.311C337.524 10.397 332.663 76.654 323.632 98.719C321.668 103.516 319.838 108.308 317.562 113.016C314.067 120.288 310.205 127.378 305.991 134.259L299.468 129.307L289.29 122.971C293.833 107.659 297.332 99.227 304.533 85.212L300.757 85.292C294.532 96.597 289.181 108.363 284.753 120.485L270.048 114.576Z" fill="#FBFBFA"/>
<path d="M310.85 71.848C312.567 70.751 312.802 70.722 314.836 70.912C316.02 71.608 317.029 71.97 317.293 73.707C319.621 89.052 313.883 103.394 306.389 116.401C303.848 120.812 300.646 124.813 299.468 129.307L289.29 122.971C293.833 107.659 297.332 99.227 304.533 85.212C306.211 81.662 311.165 74.806 310.85 71.848Z" fill="#D9D8D8"/>
<path d="M310.849 71.848C311.165 74.806 306.211 81.662 304.533 85.212L300.757 85.292C303.779 79.926 306.591 76.302 310.849 71.848Z" fill="#050404"/>
<path d="M247.293 816.38L248.369 816.3C250.856 817.33 254.1 823.14 256.993 824.68C266.376 829.67 278.215 832.72 285.723 840.53C288.62 843.55 292.834 852.04 287.616 854.41C274.871 860.18 252.103 858.72 238.876 856.95C236.59 856.94 226.946 854.9 223.835 854.52C217.921 853.81 213.297 853.7 207.307 853.51C204.422 849.71 200.003 845.12 196.665 841.48C196.82 834.13 197.801 824.81 198.936 817.54C215.582 821.4 230.902 819.47 247.293 816.38Z" fill="#5B5B5A"/>
<path d="M385.11 862.37C378.1 864.46 371.575 865.96 364.072 866.75C356.749 867.53 321.513 868.55 322.474 857.16C323.87 840.62 343.869 817.24 362.018 818.11C374.297 818.71 381.982 822.89 390.516 831.57C394.129 834.19 395.604 834.95 399.805 836.52C400.459 850.26 399.423 857.32 385.11 862.37Z" fill="#FBFBFA"/>
<path d="M390.516 831.57C394.128 834.19 395.604 834.95 399.805 836.52C400.458 850.26 399.423 857.32 385.109 862.37C389.769 852.59 393.326 842.6 390.516 831.57Z" fill="#D9D8D8"/>
<path d="M487.373 820.09C507.187 818.41 525.937 839.15 528.951 857.63C530.88 869.45 499.009 867.52 491.949 867.35L490.73 867.22C480.166 866.08 459.904 863.91 453.139 855.16C448.602 849.3 449.682 843.28 450.439 836.55C465.655 833.92 465.038 822.56 487.373 820.09Z" fill="#FBFBFA"/>
<path d="M84.7886 338.503C93.4438 337.124 104.15 339.243 109.489 346.723C113.054 369.345 102.449 370.098 92.0791 388.364C83.9999 402.595 76.2949 418.577 70.7263 433.952L66.4108 444.311L55.3164 441.1C56.7899 416.719 64.578 388.239 68.6295 363.947C70.4075 353.286 75.3739 344.269 84.7886 338.503Z" fill="#737272"/>
<path d="M676.456 832.48C692.736 838.92 713.179 836.33 729.941 833.62C731.922 841.26 731.532 850.75 731.252 858.56C729.893 860.2 728.027 861.82 726.449 863.29C724.224 862.9 721.365 862.17 719.11 861.67C710.559 866.49 708.041 867.74 698.642 869.78C683.91 873.27 659.718 877.11 645.583 868.02C644.413 867.26 643.121 864.58 643.298 863.1C644.773 850.89 659.773 846.61 668.245 839.92C672.274 836.8 673.146 835.92 676.456 832.48Z" fill="#5B5B5A"/>
<path d="M594.048 822.9C596.058 823.67 598.731 825.24 600.596 825.66C614.333 828.79 631.515 830.72 645.071 826.97C646.028 832.29 646.369 841.12 646.479 846.54C644.589 849.23 640.499 853.7 638.226 856.34C624.914 854.6 623.116 854.95 610.011 858.16C595.977 860.86 581.591 861.18 567.453 859.12C562.992 858.47 552.241 856.39 554.521 849.55C557.974 839.17 571.555 835.43 580.332 830.7C585.032 828.16 589.471 825.66 594.048 822.9Z" fill="#5B5B5A"/>
<path d="M613.369 441.319C614.589 442.507 619.471 449.424 620.745 451.167C626.133 458.522 631.143 465.597 636.97 472.641C637.001 483.329 636.428 494.182 636.403 504.944C636.47 516.339 636.83 527.735 637.476 539.112C634.886 542.098 632.216 545.01 629.461 547.844C627.364 549.843 624.92 551.89 622.713 553.81C622.457 553.572 622.214 553.328 621.97 553.085C618.581 549.66 609.974 538.277 609.913 533.853C609.517 504.956 613.095 469.637 613.369 441.319Z" fill="#8C8C8A"/>
<path d="M334.509 470.855C347.231 470.124 356.951 476.797 360.971 488.984C363.663 497.071 362.942 505.907 358.973 513.457C355.308 520.41 350.514 524.158 343.138 526.418C312.752 530.458 301.014 476.638 334.509 470.855Z" fill="#FBFBFA"/>
<path d="M191.986 393.475C197.572 393.114 200.537 393.425 205.629 396.058C208.566 397.576 212.843 401.654 210.662 405.126C206.408 403.612 193.739 399.191 191.272 404.66C192.726 407.376 199.143 407.209 202.463 407.844C206.003 408.521 215.432 414.171 212.494 418.62C207.298 419.552 199.921 413.745 195.948 418.705C198.495 421.6 216.353 423.062 211.106 432.642C207.814 433.671 201.474 428.169 197.376 431.508L197.406 432.696C198.805 434.043 200.299 434.263 202.2 434.829C202.638 434.939 203.073 435.067 203.506 435.195C205.777 435.877 207.815 436.81 208.972 438.949C208.786 449.436 200.571 443.421 197.941 445C193.091 448.077 187.61 458.217 181.017 458.126C167.419 457.943 164.58 431.118 164.172 421.569C172.512 406.598 172.897 397.484 191.986 393.475Z" fill="#FBFBFA"/>
<path d="M538.238 476.315C564.368 475.353 569.93 497.54 558.202 518.106C554.175 525.163 548.133 529.173 540.16 530.861C527.365 531.019 517.938 523.097 515.384 510.642C513.748 502.89 515.308 494.804 519.712 488.217C524.415 481.148 530.16 477.997 538.238 476.315Z" fill="#FBFBFA"/>
<path d="M685.47 303.569C701.458 317.505 696.338 328.703 699.325 348.216C695.04 350.586 683.428 354.307 681.965 357.499C682.112 360.682 692.309 369.084 695.631 372.607C691.34 382.263 685.592 393.739 680.759 403.186L677.028 411.332C671.543 405.393 666.142 398.537 661.309 392.044C665.368 379.612 669.299 365.899 673.182 353.341C677.754 338.538 684.8 318.789 685.47 303.569Z" fill="#FBFBFA"/>
<path d="M368.716 505.748C379.325 517.692 384.914 523.975 399.424 531.263C435.136 549.203 481.499 540.69 508.439 510.087C509.435 514.535 513.114 519.995 510.888 523.585C509.176 525.26 507.386 526.857 505.523 528.368C483.789 546.058 455.923 554.413 428.037 551.598C403.932 549.057 379.703 536.613 364.366 517.692C366.946 513.286 367.723 510.715 368.716 505.748Z" fill="#D9D8D8"/>
<path d="M340.606 384.049C344.087 387.96 347.33 391.302 351.024 395.016C340.343 413.093 336.251 425.652 332.802 446.09C325.739 450.551 324.245 453.104 321.152 460.837C312 461.185 308.024 462.221 299.825 465.755C296.912 467.425 295.358 468.93 292.833 471.16C294.4 466.742 296.42 462.294 298.204 457.931C309.011 431.478 320.537 404.897 340.606 384.049Z" fill="#FBFBFA"/>
<path d="M532.727 380.94C552.191 391.898 572.784 439.485 581.536 460.173C582.513 462.483 586.05 471.3 586.265 473.592L585.441 472.946C579.33 467.065 571.819 464.817 563.833 463.049C563.154 460.356 562.235 457.73 561.089 455.195C558.496 449.564 555.078 447.254 549.566 445.122C547.522 422.215 542.358 405.372 528.78 386.224L532.727 380.94Z" fill="#FBFBFA"/>
<path d="M564.17 469.649C576.217 472.592 585.823 479.046 590.179 491.068C593.136 499.35 592.648 508.472 588.823 516.394C584.377 525.785 578.346 530.154 568.948 533.585C563.143 535.333 556.99 535.602 551.056 534.352C569.844 520.026 577.764 497.973 563.002 477.528L564.17 469.649Z" fill="#FBFBFA"/>
<path d="M189.373 462.111C189.85 462.641 189.635 462.446 189.702 463.458C183.164 475.596 177.64 486.364 168.121 496.571C151.077 514.834 124.973 532.207 99.5001 533.664C97.8879 531.628 99.3251 523.908 99.664 521.166C120.409 515.139 149.944 501.531 165.623 486.248C170.825 481.032 176.098 475.871 181.288 470.642C184.153 467.76 186.056 464.591 189.373 462.111Z" fill="#737272"/>
<path d="M312.885 468.406L320.65 467.827C308.989 480.532 305.77 490.112 309.727 507.735C312.021 517.948 318.519 525.364 327.331 530.708C322.148 531.019 318.097 531.171 312.939 530.397C308.693 529.221 305.258 528.35 301.669 525.992C282.157 513.183 282.302 480.392 304.891 470.764C307.929 469.472 309.699 469.021 312.885 468.406Z" fill="#F2F2F0"/>
<path d="M323.877 271.271C330.426 279.264 333.111 298.219 331.72 308.575C329.625 324.183 325.791 330.432 314.399 339.786L314.924 327.159C308.706 333.396 307.236 339.425 297.994 342.616C290.192 344.648 286.964 343.937 279.522 341.957C310.861 328.256 319.231 302.243 323.877 271.271Z" fill="#5B5B5A"/>
<path d="M148.03 341.123C158.127 340.904 166.378 347.238 175.203 351.849C187.676 358.367 192.883 373.085 196.127 386.362C190.372 387.292 185.777 388.119 180.295 390.13C178.877 391.128 178.536 391.527 176.884 391.832C175.344 389.726 174.043 384.621 173.172 381.896C166.586 361.298 156.694 344.304 132.319 347.187C138.559 343.296 140.816 341.878 148.03 341.123Z" fill="#737272"/>
<path d="M368.383 700.614C371.855 700.541 373.715 700.48 376.989 701.894C381.802 703.966 385.587 707.872 387.495 712.747C391.44 722.93 387.202 732.68 376.992 736.61C353.811 739.462 348.391 704.734 368.383 700.614Z" fill="#D9D8D8"/>
<path d="M437.135 369.173C461.982 365.446 494.159 378.853 508.467 399.282C510.691 402.458 515.878 408.754 516.588 412.435C512.863 409.181 511.075 403.955 507.933 400.899C479.439 373.191 444.097 367.636 408.218 382.741C384.143 393.447 366.1 414.33 359.007 439.698C358.258 442.294 357.277 451.227 356.288 452.324C355.633 447.206 357.13 443.318 357.992 438.437C365.202 397.576 397.121 373.592 437.135 369.173Z" fill="#5B5B5A"/>
<path d="M360.489 524.054C361.118 524.158 379.061 539.307 381.654 540.928C417.92 563.584 460.864 562.646 497.343 540.909C502.623 537.765 513.443 526.412 517.888 527.789C518.594 529.654 518.559 528.831 517.876 530.836C516.152 532.78 514.323 534.45 512.367 536.174C483.224 561.817 440.067 571.536 403.574 557.07C386.329 550.233 370.325 539.879 360.489 524.054Z" fill="#5B5B5A"/>
<path d="M478.487 703.6C495.298 701.674 501.101 715.398 495.03 729.87C493.041 734.611 488.538 737.225 483.72 738.731C480.867 738.901 478.028 738.749 475.301 737.798C471.544 736.525 468.469 733.776 466.787 730.187C461.555 719.06 468.012 708.353 478.487 703.6Z" fill="#D9D8D8"/>
<path d="M678.778 305.38C680.65 312.018 675.194 324.984 673.433 331.486C670.519 342.251 663.778 350.044 656.171 357.789L651.971 351.584C646.937 343.914 646.76 342.916 646.022 334.033C659.566 324.91 668.453 317.969 678.778 305.38Z" fill="#FBFBFA"/>
<path d="M588.572 386.814C593.518 392.271 596.683 394.606 602.635 398.53C602.288 399.272 601.964 400.024 601.664 400.785C599.818 405.534 602.226 409.605 604.167 414.05C599.079 421.929 603.308 425.5 607.759 432.471C607.791 444.092 606.63 458.467 605.898 470.252L604.007 470.581C599.788 451.075 595.327 432.715 592.467 412.813C591.202 404.006 589.228 395.862 588.572 386.814Z" fill="#FBFBFA"/>
<path d="M300.083 391.055C310.321 390.082 312.307 392.119 318.311 400.005C313.245 409.312 307.49 419.449 302.98 428.918C299.376 429.168 292.636 430.247 290.218 426.993L290.433 425.725C294.28 420.015 301.371 418.87 306.972 416.511C304.76 410.301 293.609 418.797 288.942 417.273C283.791 407.303 305.078 406.008 306.558 401.874L305.978 400.759C300.226 398.548 290.425 404.851 286.945 404.908C282.538 399.036 295.561 392.373 300.083 391.055Z" fill="#FBFBFA"/>
<path d="M156.294 423.623C157.391 423.927 156.875 423.672 157.694 424.671C157.801 429.912 158.563 435.116 159.964 440.167C162.929 450.959 167.582 460.021 177.511 465.597C174.401 468.595 172.849 470.112 169.264 472.635C156.43 472.525 149.819 455.847 148.031 445.335C147.09 439.802 147.224 434.336 147.473 428.778C150.221 426.724 153.264 425.225 156.294 423.623Z" fill="#FBFBFA"/>
<path d="M656.426 758.261L658.145 757.798L663.113 802.53C663.991 810.37 664.496 825.15 669.007 831.27C664.216 835.8 658.401 838.99 652.739 842.38C652.16 836.35 651.69 830.81 650.581 824.84L653.927 820.57C656.024 802.91 656.378 776.104 656.426 758.261Z" fill="#FBFBFA"/>
<path d="M276.41 585.26C276.92 585.26 277.126 585.442 277.657 585.674C278.223 588.66 277.491 594.705 277.226 597.965C266.001 604.692 247.086 608.361 234.083 609.933L233.304 609.921C232.653 608.044 235.337 597.283 235.921 594.498C252.084 591.798 260.52 590.64 276.41 585.26Z" fill="#FBFBFA"/>
<path d="M496.47 581.658C498.445 581.494 498.811 581.305 500.405 582.274C503.217 586.094 502.713 593.504 502.871 598.453C483.297 602.651 471.846 617.672 456.391 626.807C454.158 628.068 451.44 629.397 449.13 630.597C467.093 615.71 476.09 590.64 496.47 581.658Z" fill="#999998"/>
<path d="M355.834 578.995C371.89 580.043 381.567 598.379 389.597 610.159C392.188 613.961 397.534 620.085 399.352 623.955L398.031 623.833C379.014 610.786 376.434 602.749 352.124 595.192C352.843 588.916 352.917 584.65 355.834 578.995Z" fill="#9B9A99"/>
<path d="M304.625 161.223C327.152 168.764 334.955 200.961 326.048 221.097L325.748 221.795C324.785 221.098 325.978 189.567 303.109 176.747C304.582 171.071 304.721 166.923 304.625 161.223Z" fill="#5B5B5A"/>
<path d="M49.0244 447.589C54.5129 447.766 59.7141 448.833 65.1194 449.783C63.1196 456.688 62.006 461.593 61.4909 468.863C61.2916 471.678 61.2081 476.517 60.7661 479.015L59.0333 479.454C55.6615 478.68 44.9321 476.663 43.6029 474.073C40.6468 468.308 43.8197 451.429 49.0244 447.589Z" fill="#737272"/>
<path d="M533.938 221.96C535.451 222.463 536.578 223.124 537.983 223.867C539.281 225.898 538.239 225.388 536.85 227.761C528.842 241.44 528.795 261.082 531.051 276.446C531.516 279.608 535.52 284.636 535.356 286.512L533.102 287.663C520.073 288.21 521.345 261.823 521.837 252.982C522.405 242.775 524.536 227.777 533.938 221.96Z" fill="#D9D8D8"/>
<path d="M125.969 327.743C129.402 327.2 134.503 327.582 137.945 327.989L145.489 334.173C133.494 337.537 123.35 344.307 117.087 355.174C113.686 352.767 121.519 339.72 96.7725 333.558C106.292 330.677 116.071 328.728 125.969 327.743Z" fill="#737272"/>
<path d="M366.131 347.063C377.808 346.211 383.805 350.732 389.088 360.825C388.252 361.286 385.173 363.072 384.32 362.998C383.357 362.915 378.535 354.453 373.771 353.464C369.323 352.542 364.685 354.325 360.965 356.664C355.603 360.036 351.627 364.48 350.23 370.703C350.845 380.155 358.139 382.46 358.183 386.156C357.378 388.3 357.914 387.774 356.266 388.954C347.948 389.015 340.567 370.987 345.608 363.019C351.509 353.692 355.988 350.649 366.131 347.063Z" fill="#D9D8D8"/>
<path d="M541.952 229.704C549.688 237.074 547.459 258.808 545.4 268.672C544.414 273.397 542.529 277.13 540.132 281.236C531.314 270.753 534.353 240.182 541.952 229.704Z" fill="#D9D8D8"/>
<path d="M185.475 789.4C186.243 790.79 186.813 791.63 187.214 793.16C187.39 801.02 186.437 808.89 192.83 814.49C191.608 821.62 190.941 831.04 190.518 838.25C182.585 834.32 178.809 831.51 173.628 824.41C174.872 823.42 177.428 821.37 178.16 820.07C182.467 812.43 183.976 798.206 185.475 789.4Z" fill="#FBFBFA"/>
<path d="M647.271 355.249C649.716 358.633 652.117 361.683 654.708 364.944C660.053 361.916 661.723 360.023 665.594 355.197C664.021 361.705 662.26 368.167 660.303 374.572L656.743 385.533C653.367 380.617 653.982 381.803 649.405 379.658C649.594 379.744 644.12 373.335 643.236 372.471L647.271 355.249Z" fill="#FBFBFA"/>
<path d="M640.561 379.801L641.341 379.998C642.889 381.608 642.938 381.14 643.151 382.909C634.478 389.927 617.929 402.383 610.755 409.893C609.315 408.585 608.421 405.957 607.591 404.068C619.294 392.773 626.212 387.919 640.561 379.801Z" fill="#FBFBFA"/>
<path d="M181.633 290.036C184.413 290.886 185.875 290.993 188.75 291.303C191.034 298.072 195.31 306.858 198.26 313.696L196.299 320.064L195.884 320.913L195.047 320.877C187.59 309.99 185.016 302.429 181.633 290.036Z" fill="#5B5B5A"/>
<path d="M344.791 224.464L345.21 225.031C343.433 239.532 341.47 254.254 343.556 268.852C343.797 270.537 344.522 272.856 343.994 274.432L342.884 273.657C335.424 259.1 335.783 238.263 344.791 224.464Z" fill="#D9D8D8"/>
<path d="M288.575 364.028C292.138 367.66 295.234 379.65 296.856 385.054L290.218 388.472C289.822 388.08 283.074 370.087 282.108 367.807C284.181 366.523 286.455 365.256 288.575 364.028Z" fill="#5B5B5A"/>
<path d="M492.23 355.829C505.993 360.474 517.345 365.27 528.166 375.234C526.837 377.142 525.304 379.478 523.928 381.297C516.749 373.818 501.96 359.668 491.795 356.82L492.23 355.829Z" fill="#FBFBFA"/>
<path d="M570.432 157.454L575.168 160.541C568.179 168.911 565.414 180.159 564.106 190.77L563.759 191.547L563.044 191.648C561.568 188.63 561.14 182.832 561.392 179.51C562.151 169.48 563.201 164.198 570.432 157.454Z" fill="#5B5B5A"/>
<path d="M549.509 452.087C557.757 455.95 558.404 465.243 556.844 473.128C554.151 471.891 550.549 470.673 547.71 469.625C548.714 463.135 549.1 458.686 549.509 452.087Z" fill="#FBFBFA"/>
<path d="M252.749 346.007C257.315 346.489 261.779 346.281 266.366 346.185C264.782 349.195 263.437 351.416 261.606 354.29C259.841 356.638 257.595 359.021 255.611 361.225C253.735 355.42 253.246 351.911 252.749 346.007Z" fill="#D9D8D8"/>
<path d="M370.529 359.765C372.281 359.939 373.433 360.14 374.508 361.442C373.584 364.827 365.078 368.447 360.77 373.492L360.297 374.051C359.598 374.92 359.922 374.646 358.87 375.093L357.761 373.905C355.368 366.37 365.149 362.032 370.529 359.765Z" fill="#FBFBFA"/>
<path d="M355.005 528.539C356.438 528.917 364.455 538.886 366.089 540.824L358.841 538.441C354.375 536.54 350.238 534.59 345.862 532.5C349.966 531.208 351.232 530.629 355.005 528.539Z" fill="#D9D8D8"/>
<path d="M332.092 454.122C333.216 455.274 333.209 462.343 333.305 464.372L327.014 465.584L326.83 465.578L326.318 464.993C326.993 461.142 329.84 457.224 332.092 454.122Z" fill="#FBFBFA"/>
<path d="M637.574 547.497C638.586 549.3 638.732 553.493 638.939 555.772L630.205 556.034L629.455 555.76C629.748 554.425 635.88 549.185 637.574 547.497Z" fill="#8C8C8A"/>
<path d="M608.37 544.943C609.664 546.381 614.114 553.078 615.339 554.943C612.834 554.547 610.005 554.279 607.462 553.98C607.597 550.318 607.715 548.526 608.37 544.943Z" fill="#737272"/>
<path d="M298.34 433.617L299.327 433.653L299.961 434.403C299.768 436.944 298.521 439.418 296.169 440.576C294.338 438.906 293.089 438.053 293.078 435.554C294.569 433.988 296.128 434.013 298.34 433.617Z" fill="#D9D8D8"/>
<path d="M299.907 373.129C302.142 375.724 305.294 381.457 306.252 384.773C301.148 384.051 300.94 377.58 299.907 373.129Z" fill="#D9D8D8"/>
<path d="M408.377 346.868C410.902 347.89 413.976 348.064 416.957 349.075L416.169 349.546C413.363 350.015 411.397 351.187 408.8 350.821C407.679 349.42 408.142 349.135 408.377 346.868Z" fill="#D9D8D8"/>
<path d="M372.854 370.085L373.3 370.479C372.945 371.582 366.297 377.134 364.348 379.458L363.685 378.732C365.272 375.31 369.763 372.333 372.854 370.085Z" fill="#8C8C8A"/>
<path d="M491.795 356.82C489.416 356.188 484.429 354.882 483.527 352.665L483.37 353.468L482.888 352.846C485.251 352.52 489.891 354.811 492.23 355.829L491.795 356.82Z" fill="#5B5B5A"/>
<path d="M473.836 345.96L474.394 346.678L473.894 349.017C472.075 349.628 471.429 348.998 469.282 348.318C468.519 348.055 468.586 347.971 467.919 347.423C470.019 346.637 471.656 346.388 473.836 345.96Z" fill="#737272"/>
<path d="M656.427 758.261C656.366 754.721 656.665 750.869 656.86 747.317C657.396 750.802 658.012 754.276 658.146 757.798L656.427 758.261Z" fill="#D9D8D8"/>
<path d="M398.74 353.561C399.936 353.615 399.679 353.614 400.845 353.959C400.107 355.156 397.777 355.727 396.317 356.26L395.226 356.757L394.485 356.395C395.573 354.65 396.809 354.389 398.74 353.561Z" fill="#D9D8D8"/>
<path d="M186.632 781.125C187.134 785.774 187.21 788.541 187.214 793.16C186.813 791.631 186.243 790.79 185.475 789.4L186.632 781.125Z" fill="#D9D8D8"/>
<path d="M604.007 470.581L605.898 470.252C605.901 471.891 606.187 474.731 605.298 475.895C604.385 473.787 604.323 472.799 604.007 470.581Z" fill="#D9D8D8"/>
</g>
<defs>
<clipPath id="clip0_6_504">
<rect width="832" height="912" fill="white"/>
</clipPath>
</defs>
</svg>
