<svg width="832" height="779" viewBox="0 0 832 779" fill="none" xmlns="http://www.w3.org/2000/svg">
<g clip-path="url(#clip0_6_691)">
<path d="M0 0H832V779H0V0Z" fill="none"/>
<path d="M209.363 10.412C241.862 10.876 233.163 76.671 228.429 96.316C243.724 96.078 248.443 97 263.418 100.612C269.371 84.74 274.991 69.477 285.223 55.601C292.329 46.192 301.776 34.03 314.085 31.937C325.094 30.47 330.434 40.347 331.371 49.789C334.087 77.163 319.506 104.365 303.302 125.309C311.109 134.09 316.622 140.308 321.231 151.519C329.141 170.758 328.275 197.576 313.435 213.564C320.805 241.131 332.477 282.484 301.622 302.396C297.904 304.795 293.513 307.231 289.001 305.583C286.098 304.521 279.42 308.135 276.174 308.415C273.232 308.734 270.563 308.519 267.552 308.335C283.776 336.471 284.488 371.165 290.819 402.195C292.111 408.526 300.279 418.435 302.958 425.266C307.526 436.917 313.982 448.038 314.078 460.951C314.077 460.914 318.493 470.932 319.031 472.827C328.562 479.482 336.109 484.753 341.935 495.13C353.497 495.356 366.658 497.531 379.857 497.775C377.769 495.319 376.847 493.826 375.137 491.072C344.612 495.332 331.931 486.538 327.092 455.424C315.626 442.401 312.316 436.886 306.662 420.287C297.667 393.883 300.814 370.41 313.525 345.817C322.927 327.624 338.303 307.769 356.097 296.915C363.255 292.549 371.753 289.78 379.595 287.148C361.505 275.492 354.337 265.06 346.319 245.627C331.321 237.409 328.57 221.262 330.388 205.209C331.815 192.611 336.222 181.442 348.504 176.143C350.221 171.503 352.231 166.977 354.525 162.592C381.583 111.983 450.676 101.596 492.152 140.987C506.24 154.367 511.406 166.432 516.858 184.79C522.832 188.83 526.958 193.643 528.54 200.916C532.27 218.062 530.924 247.674 510.468 253.125C504.132 268.311 494.136 281.166 479.089 288.521C520.044 303.654 543.044 351.005 546.779 392.103L554.229 387.472C559.083 369.611 562.588 350.74 566.625 332.657C571.528 310.697 570.958 297.554 587.572 280.66C573.066 271.128 557.673 253.045 554.746 235.876C552.1 220.354 548.763 201.905 546.654 186.241C534.192 175.696 531.81 158.815 539.889 144.86C536.308 140.166 529.746 123.116 536.706 118.537C541.158 115.609 554.671 115.063 560.696 112.754C590.163 101.464 639.335 80.122 660.254 116.372C691.316 125.175 690.371 156.372 685.239 182.224C692.626 193.497 692.297 203.075 687.079 215.275C680.862 225.542 680.411 223.669 670.982 228.944C670.062 230.886 670.391 233.526 670.433 235.788C681.466 239.359 685.135 245.984 692.108 248.867C709.315 255.983 722.816 259.68 739.334 268.827C769.713 285.649 766.385 305.989 775.509 335.193C778.209 344.751 780.142 354.602 782.574 364.22C793.161 406.107 805.041 448.056 806.631 491.493C807.101 504.265 800.817 509.981 788.919 513.174C778.673 531.614 768.359 537.543 747.873 540.029C751.841 551.169 754.529 559.773 756.242 571.449C756.852 575.641 759.881 581.266 760.57 586.043C761.771 594.331 763.678 603.398 758.705 610.967C755.206 618.364 743.765 618.23 739.395 621.862C727.619 631.655 726.747 635.128 710.662 638.492C732.148 666.377 757.9 692.044 780.014 719.545C782.037 722.056 795.179 735.578 786.962 737.107C774.522 739.423 761.716 741.239 749.208 743.213L680.302 754.036C657.28 757.777 634.63 762.01 611.255 762.77C596.566 764.1 581.445 760.14 567.126 759.64C518.433 757.911 469.215 765.33 420.674 767.28C380.553 768.52 340.394 767.43 300.399 764.01C261.974 761.04 235.639 755.724 198.043 749.1C174.832 745.194 151.597 741.434 128.338 737.82L72.1199 729.405C64.6551 728.308 57.1375 727.497 49.6963 726.254C46.4246 725.712 44.2814 724.84 43.2135 721.465C46.0897 715.127 76.7809 684.847 83.7124 677.754C99.7643 661.325 116.162 643.026 132.178 626.713C121.146 621.868 121.731 617.024 113.878 612.332C103.988 606.415 92.5188 606.439 90.9835 590.644C89.4359 574.727 99.7618 559.633 109.822 547.927C97.2829 546.531 89.0793 543.82 78.9679 535.355C68.8218 526.867 63.4171 512.875 61.8458 499.945C61.4411 496.611 61.7629 487.038 61.1716 484.582C59.0791 475.874 57.9412 476.721 57.2574 467.367C43.3682 463.851 22.6012 452.298 23.1305 435.79C23.8467 413.45 31.8006 390.812 37.9905 369.441C38.917 366.241 42.7102 363.434 44.0426 360.34C52.4783 339.839 60.1444 308.767 74.8786 292.363C88.4003 277.309 114.523 272.83 133.976 272.231C122.707 256.589 121.206 243.416 122.524 224.784C124.873 191.603 146.015 141.463 171.611 119.779C168.782 86.972 172.064 57.554 189.021 28.279C193.421 20.683 200.478 12.533 209.363 10.412Z" fill="#2F2F2F"/>
<path d="M630.455 511.127C636.385 505.929 644.535 499.335 650.356 493.449C650.831 493.363 651.306 493.272 651.782 493.187C654.61 495.301 655.78 501.011 656.817 504.533C662.644 529.859 669.83 555.398 676.321 580.504C677.924 586.713 685.915 618.681 688.042 621.752C695.887 633.069 713.533 652.898 722.828 663.617L780.544 731.269C771.389 732.391 761.521 734.432 752.323 735.895L678.79 747.515C653.099 751.592 626.907 756.65 600.716 756.016C589.818 755.803 578.689 753.396 567.886 752.859C522.615 750.611 477.201 757.783 432.232 759.87C381.941 762.02 331.561 760.56 281.479 755.498C249.602 752.506 214.37 745.023 182.552 739.532C139.341 732.464 96.0431 725.931 52.6704 719.935C62.8308 708.089 75.8124 695.724 86.8534 684.299L133.67 634.891C141.579 626.621 152.846 616.091 159.805 607.798C162.662 604.391 171.272 585.287 173.784 579.754C184.612 555.903 198.944 526.458 207.101 501.639L209.213 495.6C215.243 497.629 217.903 498.707 224.111 496.989C229.615 503.82 234.194 508.183 240.805 513.96C237.532 532.211 251.447 528.152 262.388 531.595C271.239 528.488 270.007 530.687 277.17 529.432C281.831 524.228 282.29 526.105 285.657 518.409C289.806 525.886 291.684 529.615 297.463 535.867C302.222 537.299 304.538 536.702 308.694 534.447L310.112 533.027C316.752 522.412 303.027 503.26 297.083 494.204C310.22 498.141 315.249 504.545 322.294 515.63C327.529 523.863 336.441 530.986 342.291 518.53L342.792 516.745C346.965 517.72 360.003 517.958 364.872 518.207C391.148 519.554 415.512 519.816 441.805 518.268C442.112 518.116 492.791 512.315 496.885 512.297C499.201 514.844 500.244 513.984 503.582 513.29C506.365 512.382 512.703 511.541 515.943 510.938C524.555 509.573 533.537 507.799 542.051 506.178C546.766 505.283 564.803 500.316 567.924 501.322C564.296 508.464 555.853 522.315 558.402 529.67C559.309 532.339 561.311 534.496 563.906 535.593C574.225 539.907 581.518 523.911 585.356 516.836C587.661 520.615 591.22 526.105 595.83 527.421C597.496 527.897 600.366 527.202 601.914 527.409C609.416 528.421 621.415 531.004 627.943 526.306C631.503 523.741 632.472 520.48 633.807 516.44C632.716 514.588 631.747 512.845 630.455 511.127Z" fill="#CFCECE"/>
<path d="M630.455 511.127C636.385 505.929 644.535 499.335 650.356 493.449C650.831 493.363 651.307 493.272 651.782 493.187C654.61 495.301 655.78 501.011 656.817 504.533C649.972 505.654 642.487 514.838 642.791 522.077C642.34 519.317 642.011 515.752 640.585 513.448L639.506 514.332C639.366 516.215 639.488 516.306 640.402 518.043C633.051 531.51 633.819 530.243 621.3 538.865C616.021 542.491 611.273 556.299 603.475 559.761C633.185 569.968 613.187 598.901 615.454 615.385C617.003 626.664 642.31 642.898 616.606 656.066C600.574 663.623 586.022 631.716 568.622 641.234C564.117 643.257 557.625 645.884 552.836 646.048C551.078 645.89 548.544 645.914 546.718 645.865C545.321 645.817 542.299 645.317 541.685 646.316C538.806 651.002 539.132 650.673 534.062 651.13C531.425 652.727 527.916 657.121 525.597 658.534C520.508 661.648 514.335 662.8 509.776 666.578C510.193 666.231 505.822 674.945 505.867 674.744C504.733 679.107 504.06 681.112 501.141 684.609C494.521 690.258 485.436 694.311 477.014 696.218C474.222 700.593 470.456 706.919 467.057 710.575C464.125 707.455 462.224 705.115 459.624 701.782C445.628 701.148 431.613 696.584 418.075 692.897L416.778 692.781C391.462 686.029 391.918 692.141 370.259 703.518C368.857 704.256 361.982 703.914 360.169 705.017C343.879 712.653 335.511 723.981 317.245 712.763L313.14 709.411C306.982 703.592 307.338 699.783 300.323 695.334C281.905 700.082 266.076 698.966 253.598 681.112C249.568 675.341 247.468 666.517 240.693 662.568C232.442 657.767 224.053 653.227 215.289 649.491C212.135 648.175 203.038 649.619 202.159 643.775C200.69 634.013 216.417 636.889 222.169 636.079C225.035 635.677 227.965 635.354 230.899 634.878C224.536 624.592 233.961 618.212 240.885 624.251C243.244 628.029 240.618 629.772 240.238 633.647L241.547 634.251C249.385 633.94 265.855 621.856 271.778 615.848C271.939 614.434 272.335 610.924 273.151 610.126C286.253 597.231 306.065 598.139 320.653 589.809C321.516 589.315 321.141 586.415 321.159 584.867C323.08 582.07 325.715 581.217 327.955 579.084C337.533 569.968 352.566 562.619 362.628 575.397C366.533 579.992 367.841 586.378 371.23 591.192C374.11 595.281 376.754 595.373 380.324 592.637L384.222 598.633L386.237 601.332C387.475 602.789 388.988 604.458 390.055 606.012L394.698 600.973C395.277 599.864 396.201 598.663 396.945 597.621L397.515 597.926C403.306 600.961 437.636 610.04 433.995 618.395C432.074 619.76 431.14 620.327 429.089 621.436C449.116 637.883 449.116 626.146 469.025 618.194C464.82 616.427 455.235 616.177 450.601 610.467C448.53 613.24 446.388 615.951 444.178 618.608C437.164 611.643 427.783 597.694 427.078 587.567L426.562 586.165C421.764 586.811 419.252 586.933 414.397 586.86C414.625 583.654 414.594 580.266 414.581 577.037C414.513 558.426 413.792 539.804 413.615 521.187C419.567 520.992 436.914 520.535 441.857 519.225L441.805 518.268C442.112 518.116 492.791 512.315 496.886 512.297C499.201 514.844 500.244 513.984 503.582 513.29C506.365 512.382 512.703 511.541 515.943 510.938C524.555 509.573 533.537 507.799 542.051 506.178C546.766 505.283 564.803 500.316 567.924 501.322C564.296 508.464 555.853 522.315 558.402 529.67C559.309 532.339 561.311 534.496 563.906 535.593C574.225 539.907 581.518 523.911 585.356 516.836C587.661 520.615 591.22 526.105 595.83 527.421C597.496 527.897 600.366 527.202 601.914 527.409C609.416 528.421 621.415 531.004 627.943 526.306C631.503 523.741 632.472 520.48 633.807 516.44C632.716 514.588 631.747 512.845 630.455 511.127Z" fill="#959495"/>
<path d="M441.805 518.268C442.112 518.116 492.791 512.315 496.885 512.297C499.201 514.844 500.244 513.984 503.582 513.29C506.978 516.574 508.928 557.927 512.482 563.393C513.119 567.707 513.794 573.137 514.713 577.335L512.646 578.456C516.358 579.09 526.107 578.846 528.427 575.641C529.595 576.945 530.158 577.609 531.154 579.041C524.016 579.054 525.585 582.375 514.701 581.966C503.24 580.888 499.79 579.846 488.081 581.461C484.196 581.369 480.311 581.345 476.426 581.4C469.387 580.224 468.536 580.035 462.154 582.655L461.559 583.112C460.769 595.147 457.173 600.595 450.601 610.467C448.53 613.24 446.388 615.951 444.177 618.608C437.164 611.643 427.783 597.694 427.078 587.567L426.562 586.165C421.763 586.811 419.251 586.933 414.397 586.86C414.625 583.654 414.593 580.266 414.581 577.037C414.512 558.426 413.791 539.804 413.615 521.187C419.567 520.992 436.914 520.535 441.857 519.225L441.805 518.268Z" fill="#FAFAF9"/>
<path d="M426.562 586.165C428.891 569.036 445.134 562.795 457.613 574.855C459.713 578.316 460.284 579.31 461.559 583.112C460.769 595.147 457.173 600.595 450.601 610.467C448.53 613.24 446.388 615.951 444.178 618.608C437.165 611.643 427.783 597.694 427.078 587.567L426.562 586.165Z" fill="#2F2F2F"/>
<path d="M443.591 572.868C446.364 572.783 448.563 573.271 450.94 574.794C454.079 576.848 456.243 580.096 456.934 583.776C458.709 593.709 449.707 604.105 444.324 611.71C444.053 611.57 443.632 611.369 443.372 611.174C437.99 607.109 432.691 595.83 431.578 589.358C430.916 585.513 431.381 581.266 433.776 578.06C436.367 574.599 439.556 573.569 443.591 572.868Z" fill="#CFCECE"/>
<path d="M441.454 579.011C444.099 578.048 447.059 578.584 449.195 580.419C451.332 582.253 452.312 585.099 451.759 587.859C451.206 590.619 449.206 592.862 446.529 593.733C442.488 595.05 438.139 592.88 436.755 588.864C435.371 584.849 437.461 580.467 441.454 579.011Z" fill="#2F2F2F"/>
<path d="M442.29 581.814C443.827 581.156 445.597 581.381 446.926 582.393C448.254 583.405 448.935 585.056 448.709 586.707C448.483 588.365 447.385 589.772 445.833 590.388C443.472 591.332 440.79 590.205 439.819 587.853C438.849 585.501 439.95 582.807 442.29 581.814Z" fill="#FAFAF9"/>
<path d="M528.427 575.641C529.595 576.945 530.158 577.609 531.154 579.041C524.017 579.054 525.585 582.375 514.701 581.966C503.24 580.888 499.791 579.846 488.081 581.461C484.197 581.369 480.311 581.345 476.426 581.4C469.388 580.224 468.536 580.035 462.154 582.655C463.08 578.554 469.125 577.311 472.73 577.506C476.356 577.829 480.302 578.292 483.912 578.176C486.295 578.28 487.137 578.17 489.448 577.865C499.241 576.421 502.821 576.921 512.646 578.456C516.358 579.09 526.107 578.846 528.427 575.641Z" fill="#959495"/>
<path d="M457.613 574.855C462.516 574.172 467.572 576.647 472.73 577.506C469.125 577.311 463.079 578.554 462.154 582.655L461.559 583.112C460.284 579.31 459.712 578.316 457.613 574.855Z" fill="#ADACAB"/>
<path d="M483.913 578.176C483.943 575.361 481.816 566.47 481.149 562.777L481.869 563.082C481.909 564.782 481.913 565.477 482.227 567.128C483.155 566.531 483.647 563.636 484.043 562.241C484.782 563.691 483.753 574.106 486.3 576.872C487.285 577.945 487.479 577.591 489.449 577.865C487.138 578.17 486.296 578.28 483.913 578.176Z" fill="#CFCECE"/>
<path d="M463.292 556.056C458.939 549.054 454.388 541.358 456.415 532.656C457.409 528.354 460.122 524.642 463.923 522.388C467.983 519.987 472.844 519.323 477.4 520.554C487.864 523.326 491.896 533.137 488.868 542.985C485.894 552.655 479.013 561.022 473.12 569.096C465.877 571.65 461.87 568.17 457.619 562.984C460.186 560.285 461.269 559.139 463.292 556.056Z" fill="#2F2F2F"/>
<path d="M463.293 556.056C466.678 560.986 469.201 564.569 473.12 569.096C465.877 571.65 461.87 568.17 457.619 562.984C460.186 560.285 461.27 559.139 463.293 556.056Z" fill="#CFCECE"/>
<path d="M469.559 524.045C473.795 523.582 480.334 525.075 482.771 528.67C490.005 539.341 479.891 552.54 474.264 560.815C473.832 561.449 473.658 561.455 473.007 561.942C470.689 560.212 465.022 550.815 463.338 547.726C457.662 537.317 459.121 529.524 469.559 524.045Z" fill="#CFCECE"/>
<path d="M470.755 529.834C473.462 529.097 476.357 529.883 478.324 531.882C480.29 533.887 481.02 536.793 480.231 539.487C479.442 542.18 477.259 544.24 474.523 544.862C470.411 545.806 466.303 543.283 465.277 539.194C464.252 535.105 466.685 530.95 470.755 529.834Z" fill="#2F2F2F"/>
<path d="M470.759 532.93C472.248 532.235 473.994 532.4 475.331 533.35C476.668 534.307 477.388 535.904 477.218 537.537C477.047 539.17 476.011 540.584 474.506 541.242C472.217 542.241 469.551 541.211 468.525 538.938C467.499 536.659 468.495 533.984 470.759 532.93Z" fill="#E5E4E3"/>
<path d="M426.312 622.484C444.235 643.696 452.717 627.706 472.544 621.009C477.161 619.449 484.451 619.65 489.433 619.638L492.715 620.558C494.165 624.842 499.999 658.108 500.32 662.636C486.144 667.419 503.05 673.184 501.215 677.973C498.969 683.83 485.442 691.136 479.302 692.245C478.179 693.86 477.803 694.427 477.015 696.218C474.222 700.594 470.456 706.919 467.058 710.575C464.126 707.455 462.225 705.115 459.625 701.782C458.908 700.453 457.831 698.79 457.028 697.461C448.299 698.266 427.33 691.703 417.969 689.028L417.942 687.827L421.273 688.875L420.962 687.815L418.754 687.175L418.231 686.188C417.597 675.67 417.407 665.134 417.661 654.598L416.857 650.527C417.032 641.807 417.577 633.233 415.763 624.58C418.766 624.257 423.246 623.148 426.312 622.484Z" fill="#FAFAF9"/>
<path d="M451.439 686.121C439.476 649.717 500.196 654.628 479.301 692.245C478.179 693.86 477.803 694.427 477.014 696.218C474.222 700.593 470.456 706.919 467.057 710.575C464.125 707.455 462.224 705.115 459.624 701.782C458.908 700.453 457.83 698.79 457.028 697.461C454.378 692.921 453.383 691.032 451.439 686.121Z" fill="#2F2F2F"/>
<path d="M463.946 665.475C468.083 665.384 472.43 665.89 475.638 668.808C477.915 670.88 478.915 673.903 479.125 676.901C479.799 686.553 473.384 695.7 467.431 702.708L466.601 703.049C463.258 701.16 456.694 688.473 455.308 684.646C453.875 680.697 453.15 676.103 455.139 672.19C457.01 668.516 460.23 666.822 463.946 665.475Z" fill="#CFCECE"/>
<path d="M464.095 671.118C468.188 669.771 472.6 671.995 473.957 676.084C475.313 680.173 473.103 684.585 469.015 685.95C464.914 687.321 460.481 685.103 459.12 681.002C457.759 676.901 459.988 672.471 464.095 671.118Z" fill="#595957"/>
<path d="M464.688 674.165C467.079 673.22 469.786 674.366 470.778 676.736C471.77 679.107 470.682 681.837 468.331 682.873C466.767 683.567 464.952 683.36 463.585 682.33C462.219 681.307 461.514 679.619 461.743 677.925C461.971 676.231 463.098 674.792 464.688 674.165Z" fill="#FAFAF9"/>
<path d="M416.856 650.527L417.203 650.771C424.738 656.018 425.698 654.049 429.455 664.189C440.505 668.278 440.254 676.974 439.01 687.084C441.629 687.108 449.799 687.638 451.439 686.121C453.383 691.032 454.378 692.921 457.028 697.461C448.299 698.266 427.33 691.703 417.969 689.027L417.941 687.827L421.272 688.875L420.962 687.815L418.753 687.175L418.231 686.188C417.597 675.67 417.407 665.134 417.66 654.598L416.856 650.527Z" fill="#FAFAF9"/>
<path d="M416.856 650.527L417.203 650.771C424.738 656.018 425.698 654.049 429.455 664.189C440.505 668.278 440.254 676.974 439.01 687.084C441.629 687.108 449.799 687.638 451.439 686.121C453.383 691.032 454.378 692.921 457.028 697.461C448.299 698.266 427.33 691.703 417.969 689.027L417.941 687.827L421.272 688.875L420.962 687.815L418.753 687.175L418.231 686.188C425.409 687.583 429.682 687.309 436.989 687.205C437.086 683.104 437.234 675.579 436.084 671.691C434.878 669.503 431.314 668.29 429.414 666.517C422.868 660.387 427.035 658.193 417.66 654.598L416.856 650.527Z" fill="#E5E4E3"/>
<path d="M630.454 511.127C636.385 505.929 644.534 499.335 650.355 493.449C650.831 493.363 651.306 493.272 651.782 493.187C654.61 495.301 655.78 501.011 656.816 504.533C649.971 505.654 642.486 514.838 642.791 522.077C642.34 519.317 642.011 515.752 640.585 513.448L639.506 514.332C639.366 516.215 639.488 516.306 640.402 518.043C633.051 531.51 633.819 530.243 621.299 538.865C616.021 542.491 611.273 556.299 603.475 559.761C597.65 558.365 592.78 557.281 586.884 556.293C588.392 551.242 592.615 537.305 591.429 532.296C589.196 533.954 584.893 551.784 583.076 556.537C570.595 556.702 561.973 557.335 552.242 566.848C549.767 569.267 545.431 574.642 544.09 577.792L544.478 579.218L544.037 579.785C541.633 580.906 540.516 581.704 538.338 583.191L537.803 582.734C538.876 579.474 541.615 577.414 541.565 574.331C539.321 577.317 537.122 580.333 534.968 583.386L531.154 579.041C530.158 577.609 529.595 576.945 528.427 575.641C526.106 578.846 516.358 579.09 512.646 578.456L514.713 577.335C513.793 573.137 513.119 567.707 512.482 563.393C508.928 557.927 506.978 516.574 503.582 513.29C506.365 512.382 512.702 511.541 515.943 510.938C524.555 509.573 533.537 507.799 542.05 506.178C546.766 505.283 564.803 500.316 567.924 501.322C564.295 508.464 555.852 522.315 558.402 529.67C559.308 532.339 561.311 534.496 563.905 535.593C574.225 539.907 581.518 523.911 585.356 516.836C587.661 520.615 591.219 526.105 595.83 527.421C597.496 527.897 600.365 527.202 601.913 527.409C609.415 528.421 621.415 531.004 627.943 526.306C631.503 523.741 632.472 520.48 633.807 516.44C632.716 514.588 631.747 512.845 630.454 511.127Z" fill="#E5E4E3"/>
<path d="M528.428 575.641C521.243 564.636 508.946 546.513 525.272 536.403C529.293 533.887 534.169 533.125 538.766 534.295C543.164 535.38 546.943 538.183 549.253 542.077C556.259 554.155 547.244 564.557 541.566 574.331C539.322 577.317 537.123 580.333 534.968 583.386L531.155 579.041C530.159 577.609 529.596 576.945 528.428 575.641Z" fill="#2F2F2F"/>
<path d="M532.465 538.085C536.014 537.927 539.818 538.975 542.711 541.071C545.121 542.82 546.369 545.538 546.829 548.408C548.382 558.103 541.114 567.53 535.664 574.873L535.093 575.538L534.007 575.41C529.563 570.864 524.982 563.691 522.89 557.744C521.448 553.643 520.984 548.865 523.051 544.88C525.103 540.919 528.442 539.298 532.465 538.085Z" fill="#CFCECE"/>
<path d="M531.316 544.411C533.9 543.363 536.849 543.801 539.018 545.556C541.187 547.305 542.234 550.096 541.752 552.844C541.27 555.587 539.335 557.853 536.699 558.767C532.771 560.12 528.478 558.097 527.018 554.209C525.559 550.322 527.465 545.977 531.316 544.411Z" fill="#2F2F2F"/>
<path d="M533.041 547C535.315 546.33 537.716 547.561 538.5 549.797C539.285 552.034 538.178 554.496 535.983 555.392C534.461 556.013 532.718 555.745 531.452 554.697C530.186 553.643 529.603 551.979 529.936 550.37C530.268 548.762 531.462 547.464 533.041 547Z" fill="#FAFAF9"/>
<path d="M512.482 563.393C514.792 565.233 516.98 574.764 515.656 577.067L514.713 577.335C513.794 573.137 513.119 567.707 512.482 563.393Z" fill="#CFCECE"/>
<path d="M347.239 572.174L352.859 572.21C365.494 576.878 361.923 589.242 371.565 596.427C376.924 598.42 378.55 598.359 384.223 598.633L386.238 601.332C383.881 600.394 380.491 599.175 377.899 599.663L380.736 600.376C371.865 599.772 356.79 597.871 348.294 595.117C343.475 606.347 339.519 631.314 337.252 643.842C336.48 648.102 334.615 653.312 334.334 657.425C333.542 657.401 331.729 657.115 330.859 657.005C330.347 653.934 321.192 646.054 318.587 643.623C315.65 642.221 309.988 641.667 306.746 641.984L305.991 641.825C305.72 641.533 271.424 633.392 268.297 632.971L267.543 632.526L257.828 630.497L259.626 629.571C266.13 625.762 269.493 622.465 275.059 617.438C277.026 617.402 279.595 618.444 281.119 617.566C285.388 615.098 283.009 612.411 284.163 608.078C287.52 603.392 311.861 597.615 319.269 595.037C324.596 592.015 336.798 591.003 331.719 581.54L332.132 580.303C336.608 576.147 341.65 574.264 347.239 572.174Z" fill="#CFCECE"/>
<path d="M319.269 595.037C319.54 596.561 311.294 624.458 310.3 628.297C303.807 622.581 295.441 613.526 286.151 612.862L286.001 613.508C291.175 618.224 306.959 625.592 308.149 632.069L309.516 631.899C312.462 634.61 314.92 638.175 316.821 641.691C317.501 642.691 317.568 642.953 318.587 643.623C315.65 642.221 309.988 641.667 306.746 641.984L305.991 641.825C305.72 641.533 271.424 633.392 268.297 632.971L267.543 632.526L257.828 630.497L259.626 629.571C266.13 625.762 269.493 622.465 275.059 617.438C277.026 617.402 279.595 618.444 281.119 617.566C285.388 615.098 283.009 612.411 284.163 608.078C287.52 603.392 311.861 597.615 319.269 595.037Z" fill="#FAFAF9"/>
<path d="M257.828 630.497L259.626 629.571C273.135 631.454 291.899 637.694 306.369 640.064L308.149 632.069L309.516 631.899C312.462 634.61 314.92 638.175 316.821 641.691C317.501 642.691 317.568 642.953 318.587 643.623C315.65 642.221 309.988 641.667 306.746 641.984L305.991 641.825C305.72 641.533 271.424 633.392 268.297 632.971L267.543 632.526L257.828 630.497Z" fill="#CFCECE"/>
<path d="M309.515 631.899C312.461 634.61 314.919 638.175 316.82 641.691C314.161 640.692 310.993 640.539 308.13 640.265C308.5 637.389 308.987 634.744 309.515 631.899Z" fill="#FAFAF9"/>
<path d="M352.858 572.21C365.494 576.878 361.923 589.242 371.564 596.427C368.031 598.17 352.417 593.215 348.28 591.704C348.942 588.194 351.131 574.026 352.858 572.21Z" fill="#FAFAF9"/>
<path d="M332.132 580.303C336.608 576.147 341.65 574.264 347.239 572.174L349.168 572.911C350.187 576.701 347.635 587.067 346.538 591.095C342.743 587.877 336.498 582.247 332.132 580.303Z" fill="#FAFAF9"/>
<path d="M329.447 595.555C332.431 593.867 341.947 595.275 345.599 595.391C342.102 610.753 339.327 626.268 335.624 641.594L327.944 641.63C327.81 641.624 327.676 641.63 327.543 641.618C321.174 641.058 315.061 633.977 310.903 629.516C312.96 623.861 319.068 599.181 322.405 596.823C322.537 596.732 322.68 596.652 322.815 596.567C324.746 595.312 327.223 595.562 329.447 595.555Z" fill="#FAFAF9"/>
<path d="M268.296 632.971C271.424 633.392 305.719 641.533 305.991 641.825L306.746 641.984C309.988 641.667 315.65 642.221 318.587 643.623C321.191 646.054 330.347 653.934 330.859 657.005C328.832 657.821 327.67 658.071 326.463 659.93C325.795 662.191 327.163 665.359 326.34 666.322C320.477 673.165 310.669 684.469 302.179 687.4C301.232 688.491 299.631 691.179 298.79 692.507C289.649 693.866 280.425 696.108 271.799 691.709C267.174 689.35 261.534 685.609 258.136 681.672C256.186 679.137 254.997 676.072 253.59 673.172C248.48 662.635 243.684 659.826 233.962 654.61C238.154 649.095 263.474 641.807 268.296 632.971Z" fill="#FAFAF9"/>
<path d="M306.746 641.984C309.988 641.667 315.65 642.221 318.587 643.623C321.192 646.054 330.347 653.934 330.859 657.005C328.833 657.821 327.67 658.071 326.463 659.93C325.795 662.191 327.163 665.359 326.34 666.322C320.477 673.165 310.669 684.469 302.179 687.4L294.422 687.266C297.921 672.434 303.685 656.542 306.746 641.984Z" fill="#FAFAF9"/>
<path d="M305.991 641.825L306.746 641.984C303.685 656.542 297.921 672.434 294.422 687.266L302.179 687.4C301.232 688.491 299.631 691.179 298.79 692.507C289.649 693.866 280.425 696.108 271.799 691.709C267.174 689.35 261.534 685.609 258.136 681.672C259.054 679.814 258.526 680.216 260.108 679.363C270.491 683.245 281.59 685.566 292.478 687.461C295.557 675.42 301.89 653.257 305.991 641.825Z" fill="#DFDFDE"/>
<path d="M544.478 579.218C553.823 568.871 559.922 560.785 575.18 560.035C577.232 559.95 579.285 559.907 581.339 559.907C574.559 579.468 563.823 583.35 547.197 591.741C543.897 591.009 541.078 590.211 538.012 592.076C536.091 595.793 538.344 597.871 537.075 599.522C535.839 601.137 529.855 602.898 527.867 604.148C523.199 607.085 514.67 614.501 510.138 616.622C508.175 617.536 495.302 616.622 492.36 616.53C489.815 616.646 487.106 616.305 484.555 616.073C478.72 616.195 474.682 616.305 469.025 618.194C464.82 616.427 455.235 616.177 450.601 610.467C457.173 600.595 460.769 595.147 461.559 583.112L462.154 582.655C468.536 580.035 469.387 580.224 476.426 581.4C480.311 581.345 484.196 581.369 488.081 581.461C499.79 579.846 503.24 580.888 514.701 581.966C525.585 582.375 524.016 579.054 531.154 579.041L534.968 583.386C537.122 580.333 539.322 577.317 541.565 574.331C541.615 577.414 538.877 579.474 537.803 582.734L538.338 583.191C540.516 581.704 541.634 580.906 544.037 579.785L544.478 579.218Z" fill="#FAFAF9"/>
<path d="M462.154 582.655C468.536 580.035 469.387 580.224 476.426 581.4C480.311 581.345 484.196 581.369 488.081 581.461C485.762 586.774 494.032 608.815 492.36 616.53C489.815 616.646 487.106 616.305 484.555 616.073C478.72 616.195 474.682 616.305 469.025 618.194C464.82 616.427 455.235 616.177 450.601 610.467C457.173 600.595 460.769 595.147 461.559 583.112L462.154 582.655Z" fill="#FAFAF9"/>
<path d="M476.427 581.4C480.312 581.345 484.197 581.369 488.081 581.461C485.762 586.774 494.032 608.815 492.361 616.53C489.816 616.646 487.106 616.305 484.556 616.073C486.472 615.903 489.616 616.006 491.65 616.018C489.886 605.184 487.109 592.765 486.211 581.997C482.265 582.027 480.264 582.1 476.427 581.4Z" fill="#CFCECE"/>
<path d="M541.566 574.331C541.616 577.414 538.877 579.474 537.804 582.734L538.338 583.191C540.517 581.704 541.634 580.906 544.038 579.785C538.896 586.549 534.527 582.685 532.828 590.144C530.699 589.779 525.545 584.581 523.773 582.832C521.003 582.704 517.263 582.692 514.701 581.966C525.585 582.375 524.017 579.054 531.155 579.041L534.968 583.386C537.123 580.333 539.322 577.317 541.566 574.331Z" fill="#CFCECE"/>
<path d="M414.355 624.702L415.762 624.58C417.576 633.233 417.032 641.807 416.856 650.527L417.66 654.598C417.407 665.134 417.597 675.67 418.231 686.188L418.753 687.175L420.961 687.815L421.272 688.875L417.941 687.827L417.969 689.027L416.79 688.705C404.028 685.597 398.797 683.561 386.8 690.21L385.576 690.831C376.058 684.597 358.942 679.875 348.098 675.627C341.69 673.123 336.603 668.985 329.722 668.985C332.977 668.571 333.912 668.431 336.993 667.37C337.325 666.73 338.728 663.117 339.052 662.94C342.583 661.002 352.37 659.394 355.626 657.791C361.659 654.823 366.168 651.594 372.221 648.638L372.556 648.029C373.907 647.572 377.372 645.616 378.821 644.836C380.674 643.751 383.835 642.307 385.853 641.307C395.878 636.512 404.095 627.334 414.355 624.702Z" fill="#FAFAF9"/>
<path d="M372.221 648.638C368.908 658.863 363.63 667.169 358.273 676.395C347.748 673.97 346.382 672.696 337.208 667.803L336.993 667.37C337.326 666.731 338.728 663.117 339.053 662.94C342.584 661.002 352.37 659.394 355.626 657.791C361.659 654.823 366.168 651.594 372.221 648.638Z" fill="#FAFAF9"/>
<path d="M385.854 641.307C395.878 636.512 404.095 627.334 414.355 624.702C414.462 627.219 415.223 639.138 414.804 640.777C408.251 641.106 390.601 644.007 385.854 641.307Z" fill="#FAFAF9"/>
<path d="M372.221 648.638L372.556 648.029L374.973 649.053C372.824 654.671 363.384 672.27 359.976 676.974C365.918 679.869 383.788 686.103 386.8 690.21L385.576 690.831C376.058 684.597 358.942 679.875 348.098 675.627C341.69 673.123 336.603 668.985 329.722 668.985C332.977 668.571 333.912 668.431 336.993 667.37L337.208 667.803C346.381 672.696 347.747 673.97 358.272 676.395C363.629 667.169 368.907 658.863 372.221 648.638Z" fill="#CFCECE"/>
<path d="M414.354 624.702L415.762 624.58C417.576 633.233 417.032 641.807 416.856 650.527L417.66 654.598C417.406 665.134 417.597 675.67 418.23 686.188L418.753 687.175L420.961 687.815L421.272 688.875L417.941 687.827L417.968 689.027L416.79 688.705C415.959 681.118 417.704 657.59 415.154 652.678C414.876 652.142 415.722 645.073 414.871 642.179L414.804 640.777C415.222 639.138 414.462 627.219 414.354 624.702Z" fill="#CFCECE"/>
<path d="M385.854 641.307C390.602 644.007 408.252 641.106 414.805 640.777L414.872 642.179C403.45 643.075 392.033 643.733 380.722 645.482C380.348 645.536 379.206 645.037 378.821 644.836C380.674 643.751 383.835 642.307 385.854 641.307Z" fill="#CFCECE"/>
<path d="M348.293 595.117C356.79 597.871 371.864 599.772 380.736 600.376L377.899 599.663C380.491 599.175 383.881 600.394 386.237 601.332C387.475 602.789 388.988 604.458 390.055 606.012L394.698 600.973C402.609 603.13 409.347 606.287 416.983 608.785C416.128 611.454 415.958 617.127 416.298 619.912C417.308 620.455 417.118 620.442 418.207 620.717L413.042 621.155C404.763 623.337 396.199 631.606 389.395 635.147C379.202 640.448 347.275 660.545 336.86 658.937L334.334 657.425C334.614 653.312 336.48 648.102 337.251 643.842C339.519 631.314 343.475 606.347 348.293 595.117Z" fill="#FAFAF9"/>
<path d="M394.698 600.973C402.609 603.13 409.347 606.287 416.983 608.785C416.128 611.454 415.958 617.127 416.299 619.912C417.308 620.455 417.118 620.442 418.208 620.717L413.043 621.155C413.999 619.187 414.947 613.008 413.574 611.082C410.072 606.171 401.014 604.202 395.336 602.344C393.837 603.745 391.971 605.769 390.056 606.012L394.698 600.973Z" fill="#CFCECE"/>
<path d="M308.945 697.12C310.501 695.444 311.005 694.999 311.999 692.964C312.174 690.484 311.905 689.71 311.068 687.455C311.681 685.067 326.918 671.557 329.722 668.985C336.604 668.985 341.69 673.123 348.098 675.627C358.942 679.875 376.059 684.597 385.576 690.831C382.175 692.245 376.809 695.664 373.858 697.821C370.617 701.154 361.756 700.027 359.152 701.422C337.785 712.878 325.374 724.591 308.945 697.12Z" fill="#E5E4E3"/>
<path d="M489.433 619.638C490.778 619.711 493.549 619.766 494.723 620.077C500.278 620.29 505.839 620.363 511.399 620.296C514.739 624.16 515.859 624.044 521 624.83C525.467 629.546 528.356 633.044 530.709 639.254C530.613 640.997 530.742 640.375 529.292 641.965C528.966 643.05 528.248 644.732 528.545 645.597C528.932 646.725 529.495 649.369 528.867 650.375C525.483 655.798 512.327 661.344 506.43 663.458L501.757 662.087L500.319 662.635C499.998 658.108 494.164 624.842 492.714 620.558L489.433 619.638Z" fill="#FAFAF9"/>
<path d="M499.062 643.556C503.58 643.117 526.663 640.521 529.293 641.965C528.967 643.05 528.248 644.732 528.545 645.597C528.932 646.725 529.496 649.369 528.867 650.375C525.483 655.798 512.327 661.344 506.431 663.458L501.757 662.087C501.81 656.194 500.206 649.394 499.062 643.556Z" fill="#FAFAF9"/>
<path d="M489.433 619.638C490.778 619.711 493.549 619.766 494.723 620.077C493.758 622.648 498.226 637.925 498.774 642.282C503.687 641.911 528.236 641.387 530.709 639.254C530.613 640.997 530.742 640.375 529.292 641.965C526.662 640.521 503.58 643.117 499.061 643.556C500.205 649.394 501.81 656.194 501.757 662.087L500.319 662.635C499.998 658.108 494.164 624.842 492.714 620.558L489.433 619.638Z" fill="#CFCECE"/>
<path d="M257.828 630.497L267.543 632.526L268.297 632.971C263.474 641.807 238.155 649.095 233.963 654.61L230.874 653.056C225.746 650.204 221.372 648.931 216.247 646.225C215.68 644.354 216.016 642.813 216.206 640.844C223.277 638.133 225.196 641.246 234.319 635.725C235.58 636.164 236.854 636.56 238.14 636.914C245.151 638.778 252.025 633.873 257.828 630.497Z" fill="#FAFAF9"/>
<path d="M267.543 632.526L268.297 632.971C263.474 641.807 238.155 649.095 233.962 654.61L230.874 653.056C232.43 651.326 234.494 649.546 236.636 648.614C247.297 643.958 258.565 640.326 267.543 632.526Z" fill="#CFCECE"/>
<path d="M416.983 608.785C420.034 610.113 428.427 613.051 429.535 616.079C427.721 619.406 421.827 619.949 418.207 620.717C417.117 620.442 417.308 620.455 416.298 619.912C415.958 617.127 416.128 611.454 416.983 608.785Z" fill="#E5E4E3"/>
<path d="M585.076 559.852C589.397 560.285 592.851 560.791 597.105 561.504L605.225 563.874C618.667 570.272 617.143 582.838 615.015 595.952C613.955 601.503 610.292 608.535 611.291 614.263C613.559 627.237 636.971 642.867 615.515 652.556C608.9 655.542 592.842 645.616 589.717 640.71L589.706 640.271L586.204 637.615C582.29 637.48 576.586 636.627 572.577 636.152C561.529 639.315 553.679 645.256 541.243 642.471C538.795 639.887 537.635 640.997 535.569 639.406C532.412 636.969 529.883 626.341 524.654 623.672C522.041 622.331 523.023 620.314 523.508 618.791C524.028 617.158 523.147 615.756 522.607 613.94C525.806 606.372 541.058 603.672 547.621 600.071C549.041 598.56 548.914 597.786 549.087 595.683L549.143 594.958C550.742 593.319 552.72 592.947 554.873 592.003C571.607 584.69 578.413 576.177 585.076 559.852Z" fill="#FAFAF9"/>
<path d="M581.933 631.801C577.173 623.989 569.828 613.995 572.409 604.27C576.278 589.693 596.278 587.183 604.123 600.217C611.225 612.009 598.504 632.075 589.706 640.271L586.204 637.615L581.933 631.801Z" fill="#2F2F2F"/>
<path d="M586.597 595.939C590.505 595.854 594.279 596.482 597.577 598.736C599.794 600.254 601.08 602.746 601.587 605.336C603.566 615.439 595.901 625.287 590.537 633.081L589.451 633.556C585.286 630.491 580.653 622.234 578.536 617.487C576.615 613.179 575.444 608.145 577.361 603.611C579.133 599.425 582.537 597.457 586.597 595.939Z" fill="#CFCECE"/>
<path d="M586.993 601.064C591.159 599.797 595.581 602.07 596.973 606.195C598.366 610.321 596.224 614.806 592.14 616.317C589.388 617.341 586.301 616.78 584.08 614.867C581.859 612.947 580.856 609.973 581.462 607.103C582.068 604.233 584.186 601.923 586.993 601.064Z" fill="#2F2F2F"/>
<path d="M587.802 604.16C590.207 603.422 592.768 604.714 593.612 607.079C594.457 609.449 593.286 612.063 590.956 613.014C589.352 613.666 587.52 613.392 586.185 612.289C584.849 611.186 584.227 609.437 584.565 607.743C584.903 606.043 586.146 604.672 587.802 604.16Z" fill="#FAFAF9"/>
<path d="M581.932 631.801L586.204 637.615C582.29 637.48 576.586 636.627 572.577 636.152C576.296 635.165 579.072 636.262 581.932 631.801Z" fill="#CFCECE"/>
<path d="M597.105 561.504L605.225 563.874C602.47 564.38 599.839 565.8 597.74 565.19C596.57 563.387 596.9 564.087 597.105 561.504Z" fill="#E5E4E3"/>
<path d="M233.513 624.854C234.092 624.891 234.743 624.897 235.304 625.074C236.986 625.598 237.392 626.152 238.233 627.572C238.35 629.748 237.418 631.082 236.344 632.868C236.188 632.837 236.027 632.825 235.874 632.782C234.127 632.301 232.918 631.301 232.095 629.723C232.055 627.481 232.484 626.774 233.513 624.854Z" fill="#E5E4E3"/>
<path d="M499.765 665.055C500.363 665.067 500.97 665.085 501.564 665.152C503.408 665.372 504.325 666.036 505.413 667.45C505.359 669.588 504.815 670.003 503.549 671.642C503.407 671.648 503.265 671.672 503.122 671.672C501.267 671.63 499.828 670.88 498.617 669.582C498.36 667.468 498.827 666.889 499.765 665.055Z" fill="#CFCECE"/>
<path d="M207.909 639.406C209.573 638.693 211.502 639.443 212.242 641.1C212.982 642.752 212.257 644.689 210.615 645.451C209.531 645.957 208.26 645.841 207.289 645.14C206.317 644.446 205.796 643.282 205.925 642.093C206.053 640.905 206.811 639.881 207.909 639.406Z" fill="#E5E4E3"/>
<path d="M327.692 582.887C329.03 583.886 329.342 584.069 330.015 585.665C329.575 587.439 328.415 588.2 327.075 589.291C326.278 589.066 325.415 588.865 324.735 588.371C323.753 587.658 323.83 587.323 323.603 586.183C324.531 584.306 325.914 583.788 327.692 582.887Z" fill="#E5E4E3"/>
<path d="M533.633 642.691C535.021 641.898 536.784 642.362 537.611 643.727C538.436 645.092 538.026 646.865 536.683 647.73C535.781 648.309 534.636 648.352 533.693 647.846C532.75 647.334 532.156 646.353 532.144 645.287C532.132 644.214 532.701 643.221 533.633 642.691Z" fill="#CFCECE"/>
<path d="M305.654 688.79C307.341 689.576 307.956 689.728 309.041 691.294C308.711 693.19 307.973 693.86 306.824 695.298C305.104 694.445 304.077 694.177 303.014 692.483C303.254 690.776 304.466 689.905 305.654 688.79Z" fill="#E5E4E3"/>
<path d="M330.301 660.771C331.093 660.167 332.158 660.052 333.06 660.478C333.962 660.905 334.549 661.801 334.582 662.8C334.615 663.799 334.087 664.726 333.215 665.213C331.996 665.89 330.459 665.512 329.694 664.348C328.928 663.178 329.193 661.624 330.301 660.771Z" fill="#E5E4E3"/>
<path d="M277.395 610.083C278.666 609.547 280.135 610.126 280.692 611.387C281.248 612.655 280.684 614.129 279.426 614.702C278.6 615.074 277.635 614.976 276.901 614.446C276.167 613.91 275.776 613.02 275.878 612.118C275.981 611.216 276.56 610.443 277.395 610.083Z" fill="#E5E4E3"/>
<path d="M540.056 594.684C541.76 594.538 543.217 594.385 544.896 594.818C545.88 596.226 545.521 597.018 545.404 598.7C543.975 598.694 542.767 598.438 541.384 598.09C540.2 596.725 540.215 596.5 540.056 594.684Z" fill="#FAFAF9"/>
<path d="M297.083 494.204C310.22 498.141 315.249 504.545 322.294 515.63C327.529 523.863 336.441 530.986 342.292 518.531L342.792 516.745C346.965 517.72 360.003 517.958 364.873 518.208C391.148 519.554 415.512 519.816 441.805 518.268L441.857 519.225C436.914 520.535 419.568 520.992 413.616 521.187C413.792 539.804 414.513 558.426 414.582 577.037C414.594 580.266 414.626 583.654 414.397 586.86C419.252 586.933 421.764 586.811 426.562 586.165L427.078 587.567C427.783 597.694 437.165 611.643 444.178 618.608C446.388 615.951 448.53 613.24 450.601 610.467C455.235 616.177 464.82 616.427 469.026 618.194C449.116 626.146 449.116 637.883 429.09 621.436C431.141 620.327 432.074 619.76 433.995 618.395C437.636 610.04 403.306 600.961 397.516 597.926L396.945 597.621C396.201 598.663 395.277 599.864 394.698 600.973L390.056 606.012C388.988 604.458 387.476 602.789 386.238 601.332L384.222 598.633L380.325 592.637C376.754 595.373 374.11 595.281 371.23 591.192C367.842 586.378 366.533 579.992 362.628 575.397C352.566 562.619 337.534 569.968 327.955 579.084C325.716 581.217 323.081 582.07 321.159 584.867C321.142 586.415 321.516 589.315 320.653 589.809C306.065 598.139 286.253 597.231 273.151 610.126C272.335 610.924 271.939 614.434 271.778 615.848C265.855 621.856 249.385 633.94 241.548 634.251L240.238 633.647C240.618 629.772 243.244 628.029 240.885 624.251C233.961 618.212 224.536 624.592 230.899 634.878C227.965 635.354 225.036 635.677 222.17 636.079C216.417 636.889 200.691 634.013 202.159 643.775C203.038 649.619 212.135 648.175 215.289 649.491C224.054 653.227 232.443 657.767 240.694 662.568C247.468 666.517 249.568 675.341 253.598 681.112C266.076 698.966 281.905 700.082 300.323 695.334C307.338 699.783 306.982 703.592 313.14 709.411C313.694 713.823 315.412 713.506 314.214 719.015C312.675 726.096 310.332 732.141 309.308 739.344C299.392 737.802 287.336 736.79 277.18 735.62C279.324 728.564 287.929 705.56 287.911 699.594C286.392 701.258 277.151 731.873 276.653 735.279C265.234 734.274 255.029 732.001 243.81 730.13L174.313 718.436C153.498 715.06 132.771 712.854 112.1 709.094C107.213 708.211 101.273 708.101 96.7448 707.089L96.4443 706.224C99.1598 702.738 102.114 699.49 105.123 696.255C126.608 673.165 147.283 649.382 168.727 626.256C172.457 622.234 176.739 617.779 180.033 613.422L180.493 612.807C182.755 614.154 189.27 615.037 192.194 615.567C192.789 612.655 192.957 609.9 193.204 606.945C203.497 596.268 213.773 588.426 228.867 586.427C234.815 585.641 240.125 584.514 246.061 586.762C247.854 587.439 248.301 588.627 250.082 589.456C250.721 587.53 251.332 578.627 251.554 576.055C263.587 580.48 294.048 591.125 306.035 588.34C304.368 587.091 297.685 586.951 295.26 586.805L293.691 586.713C279.851 584.184 260.159 579.675 247.932 572.564C249.396 572.68 250.22 572.728 251.686 572.68C236.893 560.577 224.077 547.653 230.445 526.964C230.981 525.221 231.348 525.557 233.029 524.758L233.332 523.71C231.362 519.768 226.412 515.033 223.135 511.882C223.61 508.823 225.849 505.898 224.16 502.547L224.045 502.559L224.216 503.765L223.28 503.991C222.724 505.539 222.109 508.896 221.738 510.651C217.547 506.654 212.559 503.582 207.101 501.639L209.213 495.6C215.243 497.629 217.904 498.707 224.112 496.989C229.615 503.82 234.194 508.183 240.805 513.96C237.532 532.211 251.447 528.152 262.388 531.595C271.239 528.488 270.007 530.687 277.17 529.432C281.831 524.228 282.291 526.105 285.658 518.409C289.806 525.886 291.685 529.615 297.463 535.867C302.223 537.299 304.538 536.702 308.694 534.447L310.112 533.027C316.752 522.412 303.027 503.26 297.083 494.204Z" fill="#E5E4E3"/>
<path d="M380.325 592.637C375.904 584.934 371.381 577.335 373.922 567.987C375.131 563.362 378.165 559.42 382.331 557.067C386.44 554.77 391.257 554.38 395.751 555.678C400.216 556.927 403.999 559.901 406.259 563.947C412.883 576.019 404.027 588.28 396.945 597.621C396.202 598.663 395.277 599.864 394.699 600.973L390.056 606.012C388.988 604.458 387.476 602.789 386.238 601.332L384.223 598.633L380.325 592.637Z" fill="#2F2F2F"/>
<path d="M387.867 559.328C391.89 559.084 396.63 559.95 399.876 562.521C402.416 564.538 403.639 567.768 403.976 570.912C405.026 580.723 397.539 590.187 391.791 597.457L390.521 598.547C386.984 596.914 382.829 588.261 380.964 584.776C378.403 579.992 376.426 574.02 378.209 568.639C379.842 563.716 383.521 561.497 387.867 559.328Z" fill="#CFCECE"/>
<path d="M387.33 565.666C390.075 564.368 393.314 564.697 395.741 566.519C398.169 568.347 399.385 571.363 398.9 574.361C398.414 577.36 396.307 579.84 393.428 580.803C389.324 582.18 384.859 580.12 383.242 576.11C381.625 572.095 383.418 567.518 387.33 565.666Z" fill="#2F2F2F"/>
<path d="M389.397 568.085C391.193 567.561 393.132 568.073 394.436 569.413C395.741 570.754 396.197 572.71 395.621 574.489C395.046 576.269 393.534 577.585 391.691 577.908C389.049 578.377 386.502 576.695 385.892 574.087C385.282 571.473 386.821 568.84 389.397 568.085Z" fill="#FAFAF9"/>
<path d="M303.005 549.432C306.13 545.526 307.987 544.575 312.794 544.77C314.189 546.44 318.374 547.695 320.537 548.353C336.242 558.975 325.035 575.903 314.958 586.049C305.791 578.743 297.564 564.392 301.452 552.387C301.765 551.912 302.692 550.029 303.005 549.432Z" fill="#2F2F2F"/>
<path d="M307.933 548.164C311.143 548.554 316.394 550.261 319.112 552.016C321.886 553.813 323.89 556.391 324.448 559.712C325.621 566.677 320.869 572.643 317.051 577.896L314.604 581.455C311.282 576.854 307.327 572.04 305.356 566.683C302.939 560.114 305.098 554.197 307.933 548.164Z" fill="#CFCECE"/>
<path d="M312.722 555.294C316.412 554.459 320.075 556.781 320.896 560.474C321.718 564.167 319.385 567.823 315.692 568.633C312.011 569.444 308.369 567.122 307.55 563.441C306.732 559.767 309.046 556.117 312.722 555.294Z" fill="#2F2F2F"/>
<path d="M312.828 558.566C314.576 557.793 316.624 558.548 317.451 560.273C318.278 561.997 317.584 564.063 315.886 564.94C314.741 565.532 313.366 565.452 312.296 564.739C311.225 564.02 310.63 562.777 310.741 561.498C310.851 560.212 311.651 559.091 312.828 558.566Z" fill="#FAFAF9"/>
<path d="M277.17 529.432C281.831 524.228 282.291 526.105 285.658 518.409C289.806 525.886 291.685 529.615 297.463 535.867C302.223 537.299 304.538 536.702 308.694 534.447C310.599 536.928 312.553 541.029 313.078 544.069L312.794 544.77C307.987 544.575 306.13 545.526 303.005 549.432C302.693 550.029 301.765 551.912 301.452 552.387C297.401 546.763 293.586 539.913 289.862 534.039C283.725 524.368 281.878 530.346 277.17 529.432Z" fill="#BCBBBB"/>
<path d="M297.462 535.867C302.222 537.299 304.538 536.702 308.694 534.447C310.598 536.928 312.553 541.029 313.077 544.069L312.794 544.77C307.987 544.575 306.13 545.526 303.005 549.432C300.091 546.94 296.259 539.761 297.462 535.867Z" fill="#CFCECE"/>
<path d="M342.791 516.745C346.965 517.72 360.003 517.958 364.872 518.208C391.147 519.554 415.511 519.816 441.805 518.268L441.857 519.225C436.913 520.535 419.567 520.992 413.615 521.187C413.791 539.804 414.512 558.426 414.581 577.037C414.593 580.266 414.625 583.654 414.396 586.86C419.251 586.933 421.763 586.811 426.562 586.165L427.078 587.567L414.787 587.762C414.864 593.118 414.782 596.908 414.384 602.24C414.356 599.705 414.321 590.035 412.93 588.401L409.704 588.225C410.942 588.024 411.295 588.054 412.408 587.451C414.468 583.405 412.569 527.628 411.992 521.023C395.321 521.328 377.415 519.755 360.598 519.682C355.003 519.658 348.558 518.567 342.291 518.53L342.791 516.745Z" fill="#CFCECE"/>
<path d="M308.694 534.447L310.113 533.027C312.381 535.977 319.651 545.069 320.537 548.353C318.374 547.695 314.19 546.44 312.795 544.77L313.078 544.069C312.554 541.029 310.599 536.928 308.694 534.447Z" fill="#ADACAB"/>
<path d="M293.691 586.713C293.734 584.032 293.467 581.461 294.854 579.23L295.7 579.029C296.748 581.363 295.779 584.075 295.26 586.805L293.691 586.713Z" fill="#CFCECE"/>
<path d="M187.5 662.532C192.217 662.434 197.294 663.677 200.828 666.999C204.143 670.119 205.501 674.829 205.57 679.278C205.742 690.234 196.478 703.592 189.133 711.306C188.333 711.422 188.28 711.379 187.659 710.892C181.691 706.206 173.364 691.087 172.099 683.72C171.222 678.613 172.1 673.153 175.234 668.93C178.356 664.72 182.502 663.251 187.5 662.532Z" fill="#2F2F2F"/>
<path d="M185.869 666.633C190.12 666.42 193.684 666.895 197.111 669.582C199.637 671.563 200.832 674.597 201.189 677.699C202.302 687.394 195.668 696.218 190.042 703.409C189.615 704.03 189.301 704.183 188.667 704.56C184.633 702.44 180.702 693.842 178.736 689.734C176.574 685.219 174.938 679.856 176.832 674.945C178.416 670.844 182.03 668.376 185.869 666.633Z" fill="#CFCECE"/>
<path d="M185.97 672.812C188.701 671.758 191.791 672.318 193.978 674.262C196.165 676.206 197.082 679.204 196.354 682.038C195.626 684.878 193.374 687.065 190.521 687.711C186.528 688.625 182.51 686.298 181.314 682.379C180.118 678.461 182.15 674.287 185.97 672.812Z" fill="#595957"/>
<path d="M187.058 675.463C189.38 674.585 191.977 675.725 192.901 678.028C193.825 680.332 192.738 682.952 190.455 683.921C188.935 684.567 187.185 684.341 185.879 683.336C184.573 682.324 183.916 680.685 184.161 679.052C184.405 677.419 185.514 676.048 187.058 675.463Z" fill="#FAFAF9"/>
<path d="M357.465 535.617C359.449 537.665 364.595 537.579 367.088 539.645L359.116 536.958C358.203 543.832 357.19 550.699 356.078 557.549C355.632 560.157 355.459 562.893 354.28 565.3C353.863 566.147 353.591 567.079 352.662 567.384C352.666 559.036 359.161 544.868 357.465 535.617Z" fill="#CFCECE"/>
<path d="M283.016 556.665C287.26 559.06 292.862 561.857 295.78 565.848C297.236 567.841 296.818 569.675 296.529 571.967L295.391 571.881C294.103 562.649 286.483 563.679 283.016 556.665Z" fill="#CFCECE"/>
<path d="M207.101 501.639C212.559 503.582 217.547 506.654 221.738 510.651C214.243 531.656 206.055 552.399 197.186 572.862C191.341 586.147 184.89 598.864 179.218 612.319C175.331 611.052 169.852 608.949 165.921 608.822L165.592 609.059C169.468 610.747 174.375 612.082 178.48 613.331C149.127 645.415 121.914 676.328 91.551 707.699C108.694 710.733 127.337 713.543 144.517 715.883C206.226 724.28 266.979 739.691 329.444 741.58C337.752 741.83 346.147 742.5 354.507 742.677C385.755 743.53 417.025 742.89 448.212 740.77C490.729 738.076 533.643 732.561 576.202 736.705C582.914 737.357 591.131 740.05 597.614 739.843C603.572 738.667 606.622 739.124 612.401 738.74C620.044 738.186 627.669 737.394 635.27 736.376C667.812 732.031 699.806 725.791 732.306 721.209C736.719 720.587 741.51 719.844 745.88 718.997C736.859 709.734 728.826 698.918 720.39 689.046C709.028 675.755 697.899 662.946 687.567 648.778C681.655 640.686 673.39 632.417 668.824 623.349C665.063 614.275 661.9 600.107 659.566 590.473L648.271 545.312C646.601 538.463 644.705 528.451 642.791 522.077C642.487 514.838 649.972 505.654 656.817 504.533C662.644 529.859 669.83 555.398 676.321 580.504C677.924 586.713 685.915 618.681 688.042 621.752C695.887 633.069 713.533 652.898 722.828 663.617L780.544 731.269C771.389 732.391 761.521 734.432 752.323 735.895L678.79 747.515C653.099 751.592 626.907 756.65 600.716 756.016C589.818 755.803 578.689 753.396 567.886 752.859C522.615 750.611 477.201 757.783 432.232 759.87C381.941 762.02 331.561 760.56 281.479 755.498C249.602 752.506 214.37 745.023 182.552 739.532C139.341 732.464 96.0431 725.931 52.6704 719.935C62.8308 708.089 75.8124 695.724 86.8534 684.299L133.67 634.891C141.579 626.621 152.846 616.091 159.805 607.798C162.662 604.391 171.272 585.287 173.784 579.754C184.612 555.903 198.944 526.458 207.101 501.639Z" fill="#FAFAF9"/>
<path d="M640.402 518.043C648.991 552.924 656.616 587.707 665.813 622.545C659.444 623.16 630.29 626.975 625.42 629.095L625.445 629.376C637.842 627.219 654.074 626.762 665.899 623.172C676.523 638.949 691.566 655.5 702.769 671.088C692.108 673.184 682.319 674.476 671.714 676.249C659.426 678.309 647.991 680.527 635.416 681.429C631.461 676.432 622.635 660.82 619.386 658.644L619.733 659.089C619.459 662.209 630.449 677.778 632.716 681.618C627.73 682.245 624.329 682.44 619.319 682.605C611.231 681.343 593.641 685.639 584.39 683.762C583.285 683.537 574.512 683.11 573.575 683.19C571.154 683.135 569.813 683.263 567.514 682.446C564.835 678.187 552.177 649.174 552.836 646.048C557.625 645.884 564.117 643.257 568.622 641.234C586.022 631.716 600.574 663.623 616.607 656.066C642.31 642.898 617.003 626.664 615.455 615.385C613.187 598.901 633.186 569.968 603.476 559.761C611.273 556.3 616.021 542.491 621.3 538.865C633.82 530.243 633.052 531.51 640.402 518.043Z" fill="#FAFAF9"/>
<path d="M648.363 565.507L650.24 565.538C648.46 567.67 626.048 573.313 621.233 574.757C620.855 574.983 620.441 574.922 620.014 574.934L619.654 573.776C622.263 570.644 642.767 566.982 648.363 565.507Z" fill="#CFCECE"/>
<path d="M501.14 684.609C504.401 686.212 504.642 685.67 508.586 684.75C510.37 693.579 511.964 700.411 514.329 709.058C503.775 717.485 494.876 720.148 482.07 723.865C478.633 727.644 477.528 729.088 475.698 733.829C478.177 732.342 482.697 724.822 484.8 724.164C496.992 720.349 504.208 718.54 514.858 710.788C516.997 718.546 518.459 726.376 520.6 734.146C487.039 737.004 453.417 739.082 419.759 740.38C418.678 724.84 419.288 708.546 418.075 692.897C431.613 696.584 445.627 701.148 459.624 701.782C462.224 705.115 464.125 707.455 467.057 710.575C470.456 706.919 474.221 700.593 477.014 696.218C485.436 694.311 494.52 690.258 501.14 684.609Z" fill="#FAFAF9"/>
<path d="M317.245 712.763C335.511 723.981 343.879 712.653 360.17 705.017C361.982 703.914 368.858 704.256 370.259 703.518C391.918 692.141 391.463 686.029 416.778 692.781C416.415 696.364 417.323 706.687 417.531 710.947C417.998 720.764 418.27 730.587 418.345 740.41C391.166 742.262 364.3 741.239 337.116 740.026C328.123 739.624 319.617 739.642 310.565 738.978C311.099 734.603 315.541 716.937 317.245 712.763Z" fill="#FAFAF9"/>
<path d="M702.769 671.088C707.517 675.768 712.161 681.721 716.184 687.053C724.279 697.772 733.513 707.656 742.022 717.967C720.42 720.916 696.661 725.858 675.121 728.905C672.42 729.319 669.641 729.715 666.959 730.173C655.774 713.805 646.272 700.051 636.044 682.678C646.266 681.873 696.722 675.109 702.769 671.088Z" fill="#FAFAF9"/>
<path d="M573.575 683.19C574.512 683.11 583.285 683.537 584.39 683.762C593.641 685.639 611.231 681.343 619.319 682.605C622.293 684.622 629.925 683.257 633.759 682.836C636.965 687.504 639.915 692.33 642.865 697.163C649.777 708.503 657.39 719.399 664.905 730.343C644.291 734.316 616.283 738.356 595.337 737.936C586.77 720.343 577.159 702.458 568.933 684.896C571.978 682.745 570.141 685.481 573.575 683.19Z" fill="#E5E4E3"/>
<path d="M205.567 556.159C219.81 563.673 236.687 569.633 251.554 576.055C251.333 578.627 250.721 587.53 250.082 589.456C248.301 588.627 247.854 587.439 246.061 586.762C240.125 584.514 234.816 585.641 228.867 586.427C213.773 588.426 203.497 596.268 193.205 606.945C192.957 609.9 192.789 612.655 192.195 615.567C189.27 615.037 182.756 614.154 180.493 612.807C184.556 607.152 202.485 564.544 205.567 556.159Z" fill="#FAFAF9"/>
<path d="M505.868 674.744C505.822 674.945 510.193 666.231 509.776 666.578C514.335 662.8 520.508 661.648 525.597 658.534C527.916 657.121 531.425 652.727 534.062 651.13C539.132 650.673 538.806 651.002 541.685 646.316C542.299 645.317 545.321 645.817 546.718 645.865C547.792 646.103 550.63 646.408 551 647.425C555.324 659.357 560.499 670.959 565.456 682.653C553.352 682.123 540.781 682.471 528.647 682.653C522.656 682.745 515.836 683.75 509.93 683.689C509.532 681.209 509.233 677.858 507.911 675.859L505.868 674.744Z" fill="#FAFAF9"/>
<path d="M247.932 572.564C244.283 572.478 210.172 557.701 207.032 555.197C208.922 548.231 213.103 539.042 215.703 532.052C218.004 525.867 220.475 517.641 223.135 511.882C226.413 515.033 231.362 519.768 233.333 523.71L233.029 524.758C231.348 525.557 230.982 525.221 230.445 526.964C224.078 547.653 236.893 560.577 251.687 572.68C250.221 572.728 249.396 572.68 247.932 572.564Z" fill="#FAFAF9"/>
<path d="M516.777 709.119C516.164 707.217 515.115 707.108 514.564 704.506C513.422 699.107 509.94 691.221 510.877 685.731C514.08 682.245 556.423 684.061 563.66 683.47C567.966 683.117 577.854 707.425 580.913 712.958C584.717 718.698 590.472 731.08 593.363 737.485C586.052 736.51 577.099 734.956 569.964 734.414C554.298 733.213 537.568 733.427 521.847 733.896C520.614 728.728 515.745 713.476 516.777 709.119Z" fill="#FAFAF9"/>
<path d="M516.777 709.119C516.164 707.217 515.115 707.108 514.564 704.506C513.422 699.107 509.94 691.221 510.877 685.731C514.08 682.245 556.423 684.061 563.66 683.47C567.966 683.117 577.854 707.425 580.913 712.958C574.734 712.123 558.792 701.044 552.931 697.65C549.729 695.798 545.964 694.177 542.63 692.434C536.088 697.016 528.353 700.24 522.209 705.566C520.681 706.888 518.672 708.497 516.777 709.119Z" fill="#E5E4E3"/>
<path d="M351.551 234.172C351.564 222.948 352.076 212.684 352.919 201.576C354.156 185.264 354.363 174.236 363.76 160.073C402.516 101.655 494.936 117.306 510.432 186.761L510.149 187.411C503.47 203.056 507.038 236.668 502.554 253.689C501.154 258.999 497.039 264.509 493.598 268.706C465.301 303.381 387.984 300.424 362.989 263.216C356.79 255.335 351.904 244.258 351.551 234.172Z" fill="#FAFAF9"/>
<path d="M351.551 234.172C355.182 238.435 356.593 246.459 359.182 251.639C360.961 255.2 363.664 257.421 364.818 261.045C364.072 262.329 364.13 262.267 362.989 263.216C356.79 255.335 351.904 244.258 351.551 234.172Z" fill="#E5E4E3"/>
<path d="M396.613 181.125C408.691 180.42 420.514 181.402 432.758 182.155C446.908 183.024 464.456 181.986 477.178 189.242C483.793 193.532 489.139 201.857 490.158 209.743C493.476 235.425 487.38 255.067 460.658 260.049C442.104 261.377 420.424 259.284 401.844 257.958C383.945 256.68 366.64 246.477 365.034 227.214C363.121 204.255 371.815 183.804 396.613 181.125Z" fill="#2F2F2F"/>
<path d="M396.266 206.538C410.729 205.526 409.059 228.215 400.081 233.863C385.503 233.415 386.921 213.845 396.266 206.538Z" fill="#FAFAF9"/>
<path d="M456.034 210.138C468.795 210.048 469.101 230.598 458.472 236.938C445.081 235.701 446.361 216.411 456.034 210.138Z" fill="#FAFAF9"/>
<path d="M412.117 266.173C415.018 267.001 420.85 270.426 425.449 271.986C429.256 271.394 436.542 267.682 439.026 269.118C439.318 270.959 439.323 270.26 438.479 272.152C438.212 272.349 437.941 272.54 437.666 272.726C429.739 278.028 408.737 277.463 412.117 266.173Z" fill="#2F2F2F"/>
<path d="M173.61 127.714C174.428 130.802 175.064 133.723 178.228 134.996L179.568 134.385C181.195 131.849 178.753 118.601 178.324 114.668C177.356 105.731 177.263 96.72 178.045 87.764C179.89 65.185 187.501 37.1 204.289 20.694C209.061 16.029 216.468 17.203 219.446 23.018C229.245 42.16 226.416 67.865 222.902 88.321C221.36 97.302 218.331 105.645 216.635 114.422L217.366 115.433L218.792 115.567C222.367 113.426 224.815 107.433 226.746 103.599C257.802 101.227 284.455 114.461 304.995 137.711C312.506 146.213 316.539 157.379 319.191 168.258L317.72 169.995C312.374 155.233 306.152 144.029 291.293 137.313C245.616 117.017 203.479 162.732 186.472 200.681C176.701 222.483 172.403 240.47 179.379 264.191C187.819 292.889 225.965 306.297 227.86 334.13C227.802 365.282 226.447 381.695 214.873 410.488C212.609 413.767 208.558 421.896 205.729 426.387C197.389 421.634 187.651 416.417 179.677 411.293C178.296 405.29 176.222 392.957 176.637 386.869C176.894 383.097 181.499 374.864 182.84 370.452C189.704 347.862 189.469 330.119 182.529 308.072C186.121 310.306 203.449 319.485 206.874 319.129C206.509 314.948 173.262 296.696 167.555 292.836C161.093 288.521 154.959 283.735 149.203 278.516C137.365 267.604 128.471 254.147 128.713 237.472C129.289 197.828 146.64 156.346 173.61 127.714Z" fill="#FAFAF9"/>
<path d="M208.369 43.588C214.808 44.634 216.258 54.418 216.275 59.686C216.34 78.888 213.376 107.709 200.011 122.577L197.872 123.872L196.695 123.324C189.959 114.91 192.884 81.412 195.258 70.546C197.554 60.042 200.295 50.972 208.369 43.588Z" fill="#CFCECE"/>
<path d="M646.808 436.295C647.144 419.927 653.934 389.69 657.286 372.524L670.104 303.561C673.317 287.201 679.954 261.135 677.187 244.953C692.541 258.171 693.303 276.32 695.064 295.467C690.548 298.017 682.941 301.888 679.113 304.74C682.996 309.803 688.5 313.526 693.614 317.401C684.672 341.648 675.365 365.761 665.697 389.727C662.601 397.643 654.421 414.34 653.982 421.689H654.561C661.992 413.462 695.333 330.686 698.539 316.631C695.302 312.759 691.169 309.215 687.415 305.795C690.883 303.942 699.209 299.893 699.685 296.096C700.94 286.062 695.948 265.692 692.846 256.513C714.788 265.168 748.197 274.784 757.943 297.464C761.094 304.989 763.142 312.93 764.026 321.041C767.262 348.721 763.057 405.9 753.579 432.846C752.043 437.215 747.416 444.016 743.777 446.892C724.059 462.48 692.388 478.549 669.324 488.427C665.978 466.715 661.15 457.995 643.383 445.345C654.043 438.928 666.045 433.078 677.022 426.411C685.928 421 696.954 414.443 706.328 410.019C709.76 408.398 718.519 408.075 722.334 409.068C724.614 409.66 726.912 411.323 728.283 410.689C729.283 402.055 712.6 402.731 707.627 403.243C708.486 380.751 710.76 356.382 712.369 333.822C712.527 331.575 712.948 329.607 712.99 327.268C712.088 323.978 713.697 322.187 712.747 319.796C712.18 321.811 711.656 324.128 710.68 325.943L709.918 325.916C703.524 344.5 703.622 383.755 700.184 405.406C684.075 414.114 662.443 426.6 646.808 436.295Z" fill="#FAFAF9"/>
<path d="M709.918 325.916C712.691 313.097 717.799 297.201 729.264 289.587C731.081 288.382 735.347 286.225 737.505 286.963L737.865 288.001C735.847 289.25 728.868 293.443 727.588 294.574C720.207 301.104 716.245 313.28 714.032 322.646C713.673 324.184 713.325 325.725 712.99 327.268C712.088 323.978 713.697 322.187 712.746 319.796C712.179 321.811 711.655 324.128 710.68 325.943L709.918 325.916Z" fill="#060605"/>
<path d="M382.336 293.184C387.658 289.821 388.049 291.295 393.88 293.67C394.916 297.691 395.43 299.133 397.167 302.904C409.288 321.988 443.592 321.588 457.753 305.241C460.497 302.073 462.055 299.232 464.057 295.602C466.463 294.371 468.626 293.748 471.187 292.919C476.976 294.854 481.044 296.969 486.226 299.995C468.018 319.591 468.306 349.157 486.083 368.898C485.749 377.771 484.946 402.323 479.997 407.88C458.756 431.707 402.831 428.349 377.077 412.493C371.184 408.861 366.964 402.603 366.339 397.033C363.779 374.224 370.446 310.776 382.336 293.184Z" fill="#FAFAF9"/>
<path d="M382.336 293.184C387.658 289.821 388.05 291.295 393.88 293.67C394.917 297.691 395.43 299.133 397.167 302.904C394.17 301.857 385.256 295.36 382.336 293.184Z" fill="#E5E4E3"/>
<path d="M625.164 140.171C627.267 139.948 628.651 139.558 630.528 140.425C632.954 143.397 630.412 154.068 631.132 159.265C632.942 172.31 640.524 175.063 646.211 185.464C648.107 188.564 648.619 198.855 651.703 200.538C659.81 204.961 662.912 190.714 665.667 186.765C669.629 181.079 675.743 182.927 679.729 186.673C687.403 193.879 684.404 210.102 677.59 216.981C673.231 221.415 669.483 222.311 663.449 222.445C662.473 228.868 662.504 233.074 662.638 239.445C664.162 241.467 665.393 243.244 666.795 245.351C663.845 261.424 647.18 281.968 631.82 287.77C629.236 286.39 626.115 283.92 623.683 282.117C631.863 279.428 635.837 277.34 642.079 271.412C644.669 268.439 648.668 264.522 647.747 260.341L646.876 259.901C638.885 264.027 634.326 271.708 623.689 275.679C595.949 286.039 573.156 266.653 563.459 241.954C562.158 238.635 561.146 235.211 560.434 231.718C558.609 222.915 558.053 213.516 556.413 204.671C552.87 185.559 547.907 170.174 556.264 151.124C566.796 154.187 565.529 152.447 575.564 152.475C595.713 152.529 606.893 146.559 625.164 140.171Z" fill="#FAFAF9"/>
<path d="M620.714 238.075C623.104 238.513 622.409 238.02 623.622 239.677C624.158 242.996 622.701 246.714 620.982 249.522C614.607 259.909 604.907 264.396 594.102 257.815C591.26 255.76 585.571 250.362 586.697 246.598C588.228 245.839 589.755 245.941 591.441 245.83C601.491 245.17 611.614 242.429 620.714 238.075Z" fill="#2F2F2F"/>
<path d="M617.404 243.702C618.63 243.65 618.105 243.468 619.038 244.264C618.075 252.058 606.081 260.095 597.885 256.129C595.848 254.635 593.411 253.142 593.264 250.496C597.052 248.583 611.285 245.959 617.404 243.702Z" fill="#6D6D6C"/>
<path d="M610.134 193.405C619.484 194.688 621.513 207.404 615.442 213.74C606.177 212.063 603.612 199.902 610.134 193.405Z" fill="#2F2F2F"/>
<path d="M583.896 204.746C584.891 204.962 585.137 205.222 586.013 205.765C589.743 214.348 583.186 221.183 583.095 229.417C583.037 234.614 591.935 231.122 594.97 233.302C594.722 234.928 594.709 234.456 592.93 235.829C572.697 240.17 578.659 227.238 582.021 214.987C582.787 212.198 583.102 207.983 583.896 204.746Z" fill="#2F2F2F"/>
<path d="M608.003 171.911C612.98 171.537 625.244 173.245 625.006 179.837L623.628 180.577C621.184 180.818 618.63 179.154 616.363 178C607.822 176.019 604.389 181.129 598.382 179.33L598.398 177.852C602.131 173.744 602.728 173.471 608.003 171.911Z" fill="#2F2F2F"/>
<path d="M567.868 199.491C575.93 201.671 578.428 212.362 572.606 218.004C564.592 216.62 562.657 205.319 567.868 199.491Z" fill="#2F2F2F"/>
<path d="M565.495 178.663C568.137 178.82 571.514 179.659 572.426 182.476C570.095 185.377 564.672 182.633 559.409 186.396L557.511 188.637L556.255 188.739L555.39 187.676C554.708 181.651 560.77 179.446 565.495 178.663Z" fill="#2F2F2F"/>
<path d="M136.119 300.491C168.975 300.06 165.491 361.353 169.187 383.45C170.495 391.275 171.234 400.958 172.035 408.928C166.919 408.27 152.818 408.185 149.893 413.011C150.22 415.113 149.786 414.218 151.272 415.778C153.529 415.266 155.644 414.327 157.894 413.779C166.477 411.64 175.12 416.265 182.324 420.543C196.647 429.038 211.455 437.087 225.554 445.96C224.745 446.228 223.941 446.508 223.143 446.801C214.902 449.866 207.809 459.165 204.196 466.959C200.764 475.167 199.732 478.446 200.609 487.464C174.95 479.762 129.06 461.554 121.75 433.681C114.816 407.24 107.37 360.892 111.166 334.19C112.066 328.086 113.973 322.175 116.81 316.696C121.138 308.509 127.237 303.152 136.119 300.491Z" fill="#FAFAF9"/>
<path d="M292.816 162.894C300.795 169.808 304.114 187.122 304.131 197.324C304.147 207.062 301.284 216.669 300.113 225.989C297.643 245.66 296.876 264.228 280.889 278.471C263.749 295.006 242.703 297.761 222.204 285.306C219.525 283.677 212.876 278.328 210.438 278.313L209.96 279.379C211.344 288.145 222.134 293.165 229.469 295.918L223.523 307.68C218.701 303.431 206.594 292.068 202.495 287.631C200.317 285.016 198.662 282.812 196.675 280.044C198.808 275.78 200.036 272.473 202.501 267.999C195.923 257.739 195.653 255.51 193.499 243.57C190.493 243.538 185.846 243.824 184.119 240.969C181.426 236.514 184.286 226.949 185.278 221.845C201.07 221.809 208.565 208.784 215.019 196.453C221.754 196.423 225.14 195.316 231.164 195.127C229.895 196.871 229.565 197.348 228.709 199.318C230.156 201.431 237.017 196.378 240.236 195.669C245.553 194.497 246.091 197.196 251.352 198.961C253.25 198.573 252.696 198.966 253.823 197.676C253.093 192.091 244.768 191.781 240.271 191.258C247.929 187.747 254.113 183.897 261.252 179.516C259.801 181.604 254.449 188.074 254.63 189.874C267.937 198.652 288.563 174.461 292.816 162.894Z" fill="#FAFAF9"/>
<path d="M240.743 212.436C251.643 212.675 249.186 226.924 242.259 232.466C231.512 233.899 233.982 218.092 240.743 212.436Z" fill="#2F2F2F"/>
<path d="M287.497 216.869C297.162 219.917 292.039 232.732 285.835 237.049C277.633 232.117 280.318 220.435 287.497 216.869Z" fill="#2F2F2F"/>
<path d="M237.499 256.596C240.591 257.038 251.368 266.682 257.119 266.388C260.236 266.227 263.507 265.236 266.846 264.971L267.656 265.856L267.397 267.809C263.699 270.07 260.381 271.027 256.076 270.408C248.463 269.313 236.313 266.234 237.499 256.596Z" fill="#2F2F2F"/>
<path d="M270.183 232.208C272.604 232.972 273.759 234.956 274.997 237.034C280.513 246.291 280.368 252.97 268.614 254.655C267.02 254.231 265.116 253.532 264.203 252.107C266.635 248.847 278.42 251.625 272.377 241.663C270.477 238.532 269.311 235.947 270.183 232.208Z" fill="#2F2F2F"/>
<path d="M287.609 196.877C293.62 196.281 300.634 196.681 301.688 204.032C300.8 205.631 301.445 205.109 299.679 205.635L298.908 204.608C294.138 199.31 291.064 202.105 283.811 201.016L283.214 200.164C284.281 198.217 285.572 197.879 287.609 196.877Z" fill="#2F2F2F"/>
<path d="M130.345 461.926C134.778 461.846 141.764 469.33 146.728 471.95C163.752 480.914 184.084 490.938 202.874 495.179L200.421 501.371C198.752 506.16 196.068 514.082 193.807 518.841C183.024 541.541 178.687 565.861 153.992 577.829C147.407 581.022 136.727 578.944 130.59 576.086C120.088 571.193 116.103 566.5 112.099 556.172C117.65 545.928 137.356 526.495 147.284 519.256C149.841 517.385 160.604 511.919 164.049 510.152L164.409 508.762L163.547 507.836C150.416 505.502 123.642 532.388 115.127 541.303C85.27 541.193 68.3941 520.212 68.2368 491.505C68.26 489.829 68.3551 488.123 68.4282 486.447C69.8258 485.015 73.4787 485.984 76.9433 485.131C82.3772 483.79 85.5278 482.431 90.4473 480.14C101.903 473.876 117.9 464.564 130.345 461.926Z" fill="#FAFAF9"/>
<path d="M130.345 461.926C134.778 461.846 141.764 469.33 146.728 471.95C163.752 480.914 184.084 490.938 202.874 495.179L200.421 501.371C198.799 499.561 164.702 485.984 159.485 483.12C150.623 478.251 141.617 472.291 133.139 466.825C135.755 467.044 138.334 468.818 140.816 470.128L141.047 469.72C137.872 467.891 133.376 464.241 130.345 461.926Z" fill="#E5E4E3"/>
<path d="M90.4473 480.14C87.5069 488.903 77.1676 488.202 69.6271 489.475C69.1133 489.561 68.416 491.06 68.2368 491.505C68.26 489.829 68.3551 488.123 68.4282 486.447C69.8258 485.015 73.4787 485.984 76.9433 485.131C82.3772 483.79 85.5278 482.431 90.4473 480.14Z" fill="#E5E4E3"/>
<path d="M732.148 463.565C751.348 473.144 752.89 486.368 761.558 501.614C767.165 508.189 771.987 511.413 780.508 513.674C779.569 515.252 778.253 517.635 777.143 519.006C776.802 519.402 776.454 519.792 776.101 520.182C767.062 530.029 757.395 532.552 744.68 533.168C741.84 526.251 739.359 520.34 735.165 514.076C733.062 510.932 720.659 495.734 716.179 499.317C716.319 501.505 725.864 509.432 728.564 514.277C737.03 529.45 745.771 549.505 748.965 566.604C740.005 585.336 714.411 592.033 696.18 582.582C694.217 581.57 690.018 571.059 688.579 568.457C680.601 554.002 671.342 540.194 668.051 523.71C666.179 514.984 663.54 506.672 662.175 497.641C674.31 495.941 721.122 470.792 732.148 463.565Z" fill="#FAFAF9"/>
<path d="M761.557 501.614C767.165 508.189 771.986 511.413 780.507 513.674C779.569 515.252 778.252 517.635 777.143 519.006C771.907 515.441 759.893 509.372 761.557 501.614Z" fill="#E5E4E3"/>
<path d="M596.636 282.986L597.624 283.57C598.545 285.863 592.571 301.864 591.575 306.693C594.135 309.41 595.792 310.647 598.782 312.941C596.716 315.275 592.373 319.791 592.839 322.754C596.803 347.91 615.29 397.216 631.35 415.004C629.162 405.644 622.421 395.613 618.416 386.692C609.889 367.704 600.573 343.651 596.942 323.331C599.207 319.79 602.09 316.448 604.648 312.419C602.172 309.935 598.924 307.311 596.215 305.075C598.021 298.47 600.483 291.103 602.473 284.424L610.297 284.65C611.047 319.265 616.039 352.425 626.2 385.62C631.71 403.621 640.969 419.489 644.449 437.843L638.14 441.646C632.588 439.056 626.139 435.375 620.659 432.426C618.392 423.224 615.875 416.576 612.51 407.728C604.714 390.379 599.11 373.146 593.717 354.956C591.285 346.755 588.272 334.008 585.217 326.552C583.951 349.267 595.129 378.917 602.688 400.324C601.078 406.466 594.752 419.58 591.234 424.851C579.912 424.382 569.625 423.931 559.421 430.037C550.832 435.18 544.614 444.126 542.16 453.772C535.422 456.575 529.171 458.69 522.282 461.024C538.322 440.311 543.883 427.429 547.032 400.927C559.289 387.868 569.737 387.832 583.141 398.35C577.974 388.898 572.892 385.711 561.946 385.595C565.182 371.202 568.293 356.776 571.278 342.327C574.258 328.069 577.195 308.777 583.713 295.709C585.951 291.223 592.551 285.856 596.636 282.986Z" fill="#FAFAF9"/>
<path d="M613.79 103.12C619.94 101.758 632.088 103.042 637.885 105.21C648.625 109.225 651.331 113.149 656.036 122.524C682.593 124.749 683.648 157.199 679.436 177.301C663.692 178.242 660.474 181.272 655.214 196.227C653.787 191.619 652.032 185.71 649.502 181.661C644.163 173.201 636.684 165.796 635.605 155.315C634.849 147.943 639.591 141.884 633.533 135.758C608.565 129.245 591.638 164.172 556.808 135.02L556.058 135.192C553.741 140.16 563.04 145.806 566.596 148.048C548.395 144.585 540.318 145.156 540.546 123.963C549.664 122.417 558.65 120.177 567.426 117.261C587.168 110.545 592.774 106.177 613.79 103.12Z" fill="#595957"/>
<path d="M771.114 342.291C776.204 367.802 809.246 485.307 797.83 501.114C795.392 504.49 790.881 506.05 786.883 506.495C781.025 507.141 775.637 505.916 770.999 502.211C763.623 496.319 762.051 486.404 757.297 478.702C752.329 470.652 745.259 465.04 737.694 459.61L744.984 454.662C749.988 455.801 763.502 457.812 768.012 455.948L767.86 455.076C770.377 454.552 772.65 454.254 774.906 453.059L774.839 452.023L773.455 451.359C764.58 453.26 757.87 453.352 748.806 452.06C758.552 442.005 762.337 430.299 764.69 416.856C768.67 394.127 771.584 369.087 771.2 346.021C771.175 344.778 771.151 343.534 771.114 342.291Z" fill="#FAFAF9"/>
<path d="M773.455 451.359C775.826 449.86 776.003 449.202 778.489 449.147L779.117 450.073C778.142 454.461 771.852 455.686 768.012 455.948L767.859 455.076C770.377 454.552 772.65 454.254 774.905 453.059L774.838 452.023L773.455 451.359Z" fill="#060605"/>
<path d="M343.797 502.565C352.493 503.522 362.751 503.723 371.578 504.253C442.261 508.476 511.492 497.318 580.134 481.194C575.93 486.721 572.918 492.096 569.599 498.159L567.924 501.322C564.803 500.316 546.766 505.283 542.051 506.178C533.538 507.799 524.555 509.573 515.944 510.938C512.703 511.541 506.365 512.382 503.583 513.29C500.244 513.985 499.201 514.844 496.886 512.297C492.792 512.315 442.112 518.116 441.805 518.268C415.512 519.816 391.148 519.554 364.873 518.208C360.003 517.958 346.965 517.72 342.792 516.745C344.674 510.609 344.508 509.024 343.797 502.565Z" fill="#FAFAF9"/>
<path d="M569.599 498.159L567.925 501.322C564.803 500.316 546.766 505.283 542.051 506.178C533.538 507.799 524.555 509.573 515.944 510.938C512.703 511.541 506.365 512.382 503.583 513.29C500.244 513.984 499.201 514.844 496.886 512.297C503.907 512.754 561.593 501.096 569.599 498.159Z" fill="#CFCECE"/>
<path d="M268.369 327.049C273.908 332.862 282.34 391.768 284.345 403.962C277.035 402.633 269.954 403.523 264.952 409.446L265.162 410.318C283.428 405.333 286.881 406.491 295.259 424.565C297.16 428.666 307.743 452.304 307.076 455.405C305.455 456.112 304.483 455.527 302.452 455.101C295.977 454.156 291.804 455.619 286.121 458.659C277.094 446.527 266.788 441.731 252.17 439.428C248.176 432.383 246.405 423.401 244.594 415.534C253.944 400.915 254.114 393.267 259.068 377.826C264.827 359.876 270.281 346.982 268.369 327.049Z" fill="#FAFAF9"/>
<path d="M244.694 299.481C252.378 299.926 257.401 299.046 264.744 297.148C257.312 315.838 243.391 316.888 238.014 326.343L238.638 326.738C243.921 325.069 246.884 322.833 251.476 319.824C259.218 371.379 253.537 394.9 222.342 435.85C217.662 433.45 212.831 431.103 208.63 427.916C211.43 422.944 217.015 413.742 218.809 408.843L218.586 407.143L217.884 406.68C217.129 408.136 216.548 410.269 214.873 410.488C226.447 381.695 227.802 365.282 227.86 334.13C228.029 332.841 228.213 331.555 228.413 330.27C229.138 332.94 228.959 335.928 228.916 338.714L229.728 338.605C230.422 337.549 230.337 332.639 230.79 330.179L230.914 329.517C230.959 327.088 230.962 324.658 230.923 322.229C235.372 314.273 240.239 307.186 244.694 299.481Z" fill="#FAFAF9"/>
<path d="M227.86 334.13C228.028 332.841 228.212 331.555 228.412 330.27C229.138 332.94 228.959 335.928 228.916 338.714L229.728 338.605C230.422 337.549 230.337 332.639 230.79 330.179L230.914 329.517C231.968 353.074 229.976 387.411 218.809 408.843L218.586 407.143L217.883 406.68C217.129 408.136 216.548 410.269 214.873 410.488C226.447 381.695 227.802 365.282 227.86 334.13Z" fill="#060605"/>
<path d="M261.334 139.01C310.016 133.095 286.378 178.592 263.243 185.159C265.734 180.058 272.054 166.702 268.782 161.795C267.379 162.459 265.266 167.189 263.817 168.811C249.337 185.022 233.442 189.789 212.658 191.292C207.87 191.539 205.955 190.339 200.666 191.175L200.268 191.874C202.361 194.216 205.615 195.216 208.602 196.535C203.618 206.061 199.964 213.488 188.426 215.326L187.74 214.722C188.734 207.314 203.798 181.274 208.68 174.637C219.811 159.505 242.513 141.806 261.334 139.01Z" fill="#595957"/>
<path d="M630.454 459.415C637.848 458.617 644.912 471.042 646.863 476.874C647.57 478.988 647.753 481.889 647.899 484.125C641.255 498.141 631.235 498.653 624.481 510.999C623.323 513.113 625.164 516.684 626.31 518.78L625.7 520.487C623.884 522.345 620.921 523.308 618.544 521.833C611.2 517.269 616.996 506.654 615.113 501.06L614.174 501.054C608.897 508.153 613.016 517.793 610.035 522.315C607.344 522.558 608.655 522.498 606.529 521.413C598.55 517.33 605.528 498.366 602.775 496.252C597.825 500.328 599.325 514.862 598.632 520.103L596.956 520.822C584.594 512.455 593.955 501.425 593.539 490.097L592.911 489.518C588.602 492.553 577.246 529.755 566.575 529.432C564.772 528.061 565.162 528.719 564.322 526.794C564.329 523.217 566.421 518.171 568.037 515.088C572.967 505.685 584.715 482.139 592.583 475.606C598.227 470.92 622.86 462.054 630.454 459.415Z" fill="#FAFAF9"/>
<path d="M578.779 431.579C596.538 429.245 617.844 437.916 633.411 445.46C629.687 448.288 628.371 449.988 625.945 453.906C611.639 459.397 604.749 461.615 590.49 468.738C581.894 475.1 559.446 479.183 548.065 481.767C547.951 481.176 547.853 480.579 547.771 479.981C544.244 454.912 551.022 434.784 578.779 431.579Z" fill="#FAFAF9"/>
<path d="M240.347 464.156C246.457 463.681 253.26 467.715 259.06 469.494C281.504 476.471 291.012 495.167 301.325 514.119C313.031 535.63 299.877 535.014 291.571 517.361C289.707 513.4 280.12 496.014 277.665 493.546L277.044 493.912C276.836 502.309 282.027 506.209 279.104 518.89C277.756 520.871 276.158 523.253 273.609 523.509C269.391 520.176 273.791 502.126 266.659 499.116C265.223 502.656 272.087 525.685 261.367 524.929C259.753 523.704 259.677 522.723 260.136 520.456C260.748 517.434 259.439 505.271 256.128 504.582C254.387 509.238 258.634 524.508 249.629 523.674C245.914 520.432 249.703 515.855 246.657 511.602C238.582 500.322 230.974 499.494 225.109 485.405C228.943 475.125 231.42 471.06 240.347 464.156Z" fill="#FAFAF9"/>
<path d="M270.137 103.322C276.724 81.383 290.192 54.284 309.416 40.601C313.824 37.463 321.304 38.992 323.241 44.152C327.327 55.035 323.352 72.702 319.369 83.151C316.164 91.557 305.471 114.31 298.851 119.473C296.163 120.074 295.636 119.098 293.645 117.268C289.574 114.261 285.644 111.885 281.343 109.231C277.483 107.065 274.161 105.212 270.137 103.322Z" fill="#FAFAF9"/>
<path d="M281.344 109.231C285.872 103.049 301.365 54.894 313.195 60.797C321.785 71.942 301.172 107.693 293.646 117.268C289.574 114.261 285.645 111.885 281.344 109.231Z" fill="#E5E4E3"/>
<path d="M324.76 377.296C349.324 376.028 358.055 405.461 361.915 424.985C349.809 424.071 343.63 427.277 334.674 434.638C330.736 438.977 329.408 441.694 328.021 447.276C315.148 429.3 307.366 410.543 308.534 388.063C309.01 387.283 309.507 386.516 310.027 385.766C313.95 380.148 318.338 378.453 324.76 377.296Z" fill="#FAFAF9"/>
<path d="M90.3143 296.781C98.3107 296.011 100.51 296.489 107.67 299.962C95.9348 314.828 80.8271 360.721 73.9114 379.879L68.5714 378.191C60.3225 375.09 55.8786 372.408 48.7954 367.345C53.9316 350.442 63.6202 325.291 71.2527 309.102C74.5691 302.067 82.8538 298.67 90.3143 296.781Z" fill="#ADACAB"/>
<path d="M355.289 430.915C366.548 429.964 378.429 442.456 387 448.379C390.287 450.652 397.934 451.578 397.398 456.191C395.095 458.324 390.483 459.141 387.429 458.702C381.02 457.776 378.093 451.591 374.871 446.685C375.81 454.723 377.656 460.335 380.602 467.703C382.848 473.321 391.427 486.532 386.82 491.815C376.741 493.455 372.959 466.697 365.837 463.022C365.106 470.615 374.183 481.639 371.097 485.508C363.061 486.325 362.19 473.772 356.416 470.372L355.623 471.109C355.05 476.051 360.41 481.322 361.467 486.179C360.122 487.739 360.813 487.398 358.976 487.605C353.742 485.661 351.146 478.769 346.772 474.985L346.24 475.6C346.201 478.482 347.549 481.438 348.577 484.186C341.296 478.098 336.324 469.701 334.491 460.39C331.109 443.931 338.992 433.718 355.289 430.915Z" fill="#FAFAF9"/>
<path d="M488.389 433.346C490.654 433.011 492.952 432.962 495.229 433.206C502.077 433.894 508.36 437.313 512.657 442.688C521.327 453.638 517.338 471.164 510.287 481.925C508.638 484.442 505.887 486.477 503.537 488.324C505.428 485.508 510.011 477.824 508.621 474.601C505.257 475.911 501.147 488.281 493.832 490.999C490.423 489.232 499.822 477.416 497.844 471.578L497.007 471.194C493.182 475.009 488.538 495.459 478.811 493.119C478.728 490.749 479.663 489.945 480.921 487.574C483.014 483.022 487.93 469.506 486.637 465.015C483.465 465.905 476.096 491.7 469.195 493.473C460.779 487.775 480.395 460.463 475.584 451.396C473.111 452.596 470.848 459.445 468.008 460.542C464.207 462.011 459.974 463.26 456.022 461.987C454.481 460.481 454.868 461.292 454.715 458.994C457.353 455.783 463.319 452.627 466.568 449.622C473.711 443.029 479.204 437.155 488.389 433.346Z" fill="#FAFAF9"/>
<path d="M516.809 383.353C519.693 383.28 522.578 383.511 525.415 384.029C532.363 385.327 536.144 387.911 540.004 393.609C540.724 417.222 534.967 430.579 522.864 450.256C521.619 447.191 520.418 444.68 518.958 441.707C517.289 438.964 515.213 436.496 512.8 434.376C504.941 427.575 496.775 426.43 486.815 427.1C488.341 418.319 494.288 401.585 499.337 394.133C503.651 387.765 509.385 384.718 516.809 383.353Z" fill="#FAFAF9"/>
<path d="M500.647 311.156C514.437 313.539 534.044 358.75 537.202 372.055C530.079 367.674 526.089 367.106 517.951 367.472C507.547 369.502 504.356 371.092 497.852 379.441C489.046 361.313 478.954 323.626 500.647 311.156Z" fill="#FAFAF9"/>
<path d="M750.232 576.823C750.336 576.896 750.446 576.957 750.537 577.037C754.627 580.705 755.115 592.679 755.249 597.975C750.458 602.173 745.149 605.708 740.2 609.705C726.211 621.015 719.665 627.42 700.617 626.938L696.527 622.587C692.255 616.42 690.731 608.773 688.756 601.637C691.633 597.895 695.424 594.501 698.74 591.119C703.976 592.576 709.394 593.264 714.825 593.161C728.716 592.886 740.748 586.677 750.232 576.823Z" fill="#CFCECE"/>
<path d="M38.7951 387.966C47.8921 394.114 56.9965 399.873 68.1336 401.043C64.0284 414.541 54.1598 446.435 58.1204 459.123L57.969 459.927C57.3773 459.884 57.018 459.884 56.4526 459.732C22.6013 450.652 28.0685 430.933 34.9116 403.639C36.1662 398.636 37.5162 392.883 38.7951 387.966Z" fill="#ADACAB"/>
<path d="M360.624 302.112L361.166 303.059C357.933 314.228 354.682 327.857 358.651 338.996C364.463 355.309 358.373 360.898 350.098 375.126C343.318 366.571 340.338 364.094 329.656 361.363C322.699 360.516 319.493 361.139 313.083 363.633C319.936 343.48 341.573 312.119 360.624 302.112Z" fill="#FAFAF9"/>
<path d="M107.493 562.357C110.086 567.293 113.862 571.723 118.074 575.361C128.373 584.252 140.296 586.013 153.43 585.117C155.962 587.701 157.977 590.37 159.998 593.368C156.577 601.04 152.058 606.579 146.386 612.655C144.537 614.55 142.574 616.128 140.468 617.724C129.151 615.659 122.671 608.371 114.565 601.18C111.358 598.334 107.882 595.805 104.612 593.039C101.54 590.437 98.3068 587.957 98.0661 583.691C97.64 576.147 102.616 567.707 107.493 562.357Z" fill="#CFCECE"/>
<path d="M113.301 427.13C113.603 427.691 114.694 432.133 115.019 433.248C116.512 438.355 117.85 442.389 120.058 447.234C113.788 448.708 91.7786 455.387 87.9989 459.951C89.0144 460.293 90.7393 460.085 91.7408 459.701C101.99 455.801 111.313 453.401 122.04 451.121L127.02 456.173C119.032 458.263 113.674 461.152 106.356 464.893C74.7418 482.078 53.158 493.595 70.6927 444.345C87.6923 445.722 100.317 436.99 113.301 427.13Z" fill="#FAFAF9"/>
<path d="M632.295 319.971L640.792 319.669C643.419 330.701 650.697 358.411 651.495 368.173C651.867 372.664 645.894 402.987 644.882 410.178L644.053 414.87L643.413 414.754C624.408 376.12 629.266 360.962 632.295 319.971Z" fill="#CFCECE"/>
<path d="M307.564 217.75C307.714 217.985 308.218 218.808 308.276 219.01C315.264 243.428 325.035 285.128 295.196 298.603C297.175 294.678 302.177 283.957 297.196 280.579C294.476 282.476 293.589 288.867 290.709 293.179L290.301 293.781C286.427 297.544 273.777 307.596 269.539 300.488C269.328 297.974 270.089 296.29 270.86 293.872C299.525 275.84 305.485 249.496 307.564 217.75Z" fill="#595957"/>
<path d="M475.754 432.804C475.829 436.978 444.628 453.583 448.349 461.785C452.289 470.463 460.131 469.933 467.231 468.001C463.68 477.355 458.486 484.466 460.97 494.497L461.166 495.271C460.023 496.02 456.961 495.886 455.31 495.971C448.957 496.623 442.329 496.946 435.934 497.343C435.239 464.979 439.04 439.153 475.754 432.804Z" fill="#FAFAF9"/>
<path d="M144.353 287.7C145.788 287.505 148.43 287.127 149.64 287.878C159.061 293.722 173.801 300.804 177.627 311.642C185.482 333.889 183.091 354.516 174.691 375.827L173.346 363.937C170.67 338.963 166.775 281.855 126.741 298.225C133.199 292.117 135.543 289.906 144.353 287.7Z" fill="#ADACAB"/>
<path d="M103.981 345.87C104.628 348.645 104.853 363.812 105.116 367.631C105.923 379.367 106.746 391.433 108.832 403.023C101.089 410.531 92.8632 415.577 82.3977 418.508L78.916 418.861L78.0444 418.112C78.5345 408.301 99.6118 356.335 103.981 345.87Z" fill="#FAFAF9"/>
<path d="M366.873 414.705C369.233 416.253 372.632 423.803 374.95 426.332C391.99 444.948 419.028 445.881 442.004 442.608C439.052 447.002 435.986 452.456 433.963 457.325C432.661 460.585 431.555 464.223 430.461 467.581C422.782 467.507 413.669 467.355 406.826 463.425C402.038 461.316 404.414 451.487 400.793 449.281C389.986 442.682 379.254 433.742 369.011 426.728C368.13 423.206 367.476 418.374 366.873 414.705Z" fill="#FAFAF9"/>
<path d="M110.105 301.901C115.665 300.424 116.702 299.966 121.34 296.691C111.259 309.447 108.507 320.179 101.989 334.482C90.9797 358.638 82.5592 383.176 73.963 408.24C72.744 411.798 71.6231 416.076 69.4251 419.087C68.253 420.671 67.3296 421.701 66.636 423.62L65.4517 423.243C71.4859 398.679 94.7734 319.271 110.105 301.901Z" fill="#959495"/>
<path d="M302.015 474.089C305.441 473.747 308.426 474.247 311.429 475.88C326.186 483.906 332.92 490.316 338.699 505.673C334.827 500.859 328.53 490.883 322.474 489.884L321.638 490.511C322.282 491.724 329.659 500.274 331.49 502.735C333.744 506.453 338.13 513.613 336.136 517.854C326.806 523.223 322.972 489.092 293.341 489.232C292.366 479.031 291.943 477.885 302.015 474.089Z" fill="#FAFAF9"/>
<path d="M225.989 449.641C231.801 449.549 235.604 453.51 239.522 457.313C237.524 458.635 235.615 460.085 233.806 461.657C224.85 469.482 219.443 479.488 218.649 491.352C207.591 488.653 200.494 486.508 205.991 472.724C209.822 463.114 216.215 453.9 225.989 449.641Z" fill="#FAFAF9"/>
<path d="M672.104 249.068L672.659 249.809C673.75 258.157 669.209 282.256 666.283 290.626C665.777 292.07 658.755 303.82 657.433 306.135L649.277 298.435L640.951 290.16C655.921 277.298 664.942 268.019 672.104 249.068Z" fill="#FAFAF9"/>
<path d="M386.742 465.478C393.068 465.667 394.142 465.375 399.839 462.559C402.618 465.941 403.433 466.794 406.913 469.427L412.579 472.163C411.497 481.06 410.482 489.695 408.667 498.5L401.029 498.64L389.63 498.403C398.947 488.458 391.478 476.228 386.742 465.478Z" fill="#FAFAF9"/>
<path d="M406.912 469.427L412.579 472.163C411.497 481.06 410.482 489.695 408.667 498.5L401.029 498.64C407.562 489.025 408.141 480.542 406.912 469.427Z" fill="#E5E4E3"/>
<path d="M109.564 409.41C110.15 411.421 111.338 418.495 111.899 421.183C98.4638 432.17 88.3482 439.647 70.3008 438.617C68.2223 437.666 68.7361 438.258 67.7896 436.496C67.9755 432.743 69.9741 427.843 71.148 424.065C87.9575 424.108 96.5243 419.568 109.564 409.41Z" fill="#959495"/>
<path d="M234.325 444.784C260.601 445.936 282.457 449.543 287.008 479.768C284.451 477.897 280.842 473.199 276.932 470.853C268.153 465.582 257.177 461.712 247.685 457.751C243.102 450.177 240.99 450.585 234.325 444.784Z" fill="#FAFAF9"/>
<path d="M127.166 279.279C131.037 279.088 139.102 278.613 141.947 281.521C141.278 282.463 131.75 286.697 129.434 288.032C123.741 291.281 118.257 294.881 113.014 298.813C104.26 294.985 100.871 293.315 91.1702 294.002C83.9967 295.572 80.5712 297.982 75.4683 302.819C87.1595 285.864 107.685 280.666 127.166 279.279Z" fill="#ADACAB"/>
<path d="M515.142 192.033C520.005 194.407 522.382 201.352 523.049 206.357C524.761 219.237 523.447 232.88 515.568 243.528C513.918 244.819 512.538 246.004 510.496 246.084L509.767 245.284C508.662 235.862 512.17 200.847 515.142 192.033Z" fill="#CFCECE"/>
<path d="M648.997 305.626C656.853 313.065 658.871 314.596 664.332 304.556C661.669 317.319 659.383 331.384 656.756 344.474C655.775 348.118 655.22 352.038 654.598 355.775C651.148 344.697 647.503 328.702 644.389 317.149C645.742 313.483 647.528 309.294 648.997 305.626Z" fill="#FAFAF9"/>
<path d="M45.1408 369.995C55.0321 376.156 61.434 380.221 72.6103 383.402C71.3546 388.441 70.241 392.664 68.6484 397.6C61.0549 396.259 46.0281 390.873 41.6213 383.682C40.1816 381.336 44.0489 372.744 45.1408 369.995Z" fill="#959495"/>
<path d="M377.272 420.872C378.958 421.207 381.265 422.207 382.888 422.853C401.594 430.305 421.273 433.535 441.31 430.762C446.099 430.098 458.26 427.234 462.765 427.843L462.951 428.575L460.864 430.086C452.506 434.985 435.049 438.355 425.269 438.184C405.631 437.837 391.672 434.882 377.272 420.872Z" fill="#6D6D6C"/>
<path d="M347.581 183.794C348.409 184.823 348.422 185.274 348.32 186.931C347.258 204.158 346.094 220.817 346.17 238.08C344.683 236.645 343.246 235.006 341.846 233.474C332.975 219.915 334.43 194.694 347.581 183.794Z" fill="#CFCECE"/>
<path d="M293.134 145.247C299.67 148.82 308.641 161.79 311.16 168.627C315.958 181.647 316.686 192.626 311.441 205.376C310.823 206.646 310.734 206.718 309.893 207.771C308.181 205.803 309.383 193.503 308.688 188.809C306.342 172.972 302.575 168.224 293.795 155.982C293.682 152.503 293.362 148.743 293.134 145.247Z" fill="#595957"/>
<path d="M539.579 461.828C541.029 463.565 540.721 479.786 540.884 483.309C534.659 484.278 528.195 485.557 521.903 486.587L520.758 486.38C519.87 482.669 521.954 471.816 522.63 467.8C528.132 466.581 534.404 463.997 539.579 461.828Z" fill="#FAFAF9"/>
<path d="M401.261 297.361C424.751 305.714 432.151 304.362 456.15 298.486C454.865 300.124 453.393 301.705 451.999 303.262C440.987 312.802 420.335 313.89 407.898 306.139C405.334 304.54 401.815 300.396 401.261 297.361Z" fill="#6D6D6C"/>
<path d="M633.222 293.039C639.408 293.425 642.115 296.878 645.674 301.425C644.083 305.816 642.377 312.107 638.817 314.952C637.818 315.028 633.819 315.353 633.222 315.046C627.931 312.34 624.963 304.787 626.962 299.244C628.254 295.655 630.381 294.343 633.222 293.039Z" fill="#CFCECE"/>
<path d="M639.409 450.219C651.624 449.781 660.937 473.248 662.912 483.181C661.224 483.906 658.987 484.588 657.201 485.191C656.793 485.386 655.817 485.472 655.366 485.539C654.08 483.674 653.391 477.714 652.532 475.32C648.613 464.387 643.596 458.611 634.039 453.102L639.409 450.219Z" fill="#FAFAF9"/>
<path d="M623.013 308.178C625.061 311.343 626.639 314.816 628.285 318.214C625.987 332.421 626.67 345.785 625.17 359.036L624.628 358.1C623.092 350.227 616.411 319.335 617.893 313.328L619.928 313.336C621.647 311.829 622.123 310.255 623.013 308.178Z" fill="#FAFAF9"/>
<path d="M419.564 473.949C422.582 474.406 426.21 474.674 429.29 474.985C429.01 479.61 429.831 495.057 428.053 497.507L425.596 497.763C422.179 497.995 418.76 498.202 415.34 498.391C417.117 490.243 418.291 482.181 419.564 473.949Z" fill="#FAFAF9"/>
<path d="M491.658 303.809C493.488 304.165 495.344 305.61 496.974 306.668C482.702 315.027 480.336 338.506 483.336 353.234L483.202 354.138L482.494 353.536C476.165 336.645 476.221 315.713 491.658 303.809Z" fill="#959495"/>
<path d="M297.846 458.94C306.26 459.366 307.59 462.163 311.154 469.183C306.837 468.879 304.106 468.842 299.912 469.781C297.55 470.445 294.689 471.785 292.381 472.791C291.249 468.818 290.118 465.954 288.61 462.151C292.407 460.25 293.702 459.689 297.846 458.94Z" fill="#FAFAF9"/>
<path d="M372.851 295.901L373.657 296.688C373.986 298.327 372.289 302.817 371.658 304.721C368.07 315.549 366.202 326.44 364.174 337.643L363.589 336.996C361.271 326.51 361.914 301.549 372.851 295.901Z" fill="#6D6D6C"/>
<path d="M183.225 247.582C184.03 247.801 187.235 248.888 187.352 249.232C189.351 255.134 192.566 262.165 195.56 267.394C195.828 269.517 194.879 270.712 193.847 272.671C193.134 273.46 193.348 273.214 192.355 273.732C185.848 269.684 183.414 254.88 183.225 247.582Z" fill="#595957"/>
<path d="M256.86 316.17L261.571 312.57C263.781 329.16 264.115 335.524 261.186 352.151C260.985 353.651 260.972 355.184 260.043 356.315C259.397 353.517 259.675 348.905 259.731 345.897C259.489 335.162 258.362 326.845 256.86 316.17Z" fill="#959495"/>
<path d="M259.732 345.897C259.91 348.313 259.733 350.361 261.187 352.151C260.986 353.651 260.972 355.184 260.043 356.315C259.397 353.517 259.676 348.905 259.732 345.897Z" fill="#959495"/>
<path d="M517.111 373.554C529.686 372.415 534.242 374.029 539.765 385.382C534.653 381.549 533.156 380.166 527.047 378.533C516.023 376.497 509.879 378.606 500.511 383.804C506.087 377.07 508.561 375.504 517.111 373.554Z" fill="#6F6F6E"/>
<path d="M322.493 366.915C331.03 366.109 337.371 369.252 343.292 375.236C337.092 373.158 333.44 371.86 326.786 371.58C317.626 371.982 314.818 375.967 308.992 376.534L308.488 375.224C311.966 369.368 316.244 368.082 322.493 366.915Z" fill="#6D6D6C"/>
<path d="M606.235 410.36C607.811 411.543 613.62 427.021 612.627 428.678L608.794 427.892C605.387 427.088 601.952 426.198 598.551 425.357C601.13 420.695 603.787 415.162 606.235 410.36Z" fill="#FAFAF9"/>
<path d="M616.052 283C617.734 283.569 623.555 288.935 626.956 290.93C623.525 294.481 622.202 296.972 620.13 301.401L617.24 307.914C616.399 301.494 614.491 289.026 616.052 283Z" fill="#FAFAF9"/>
<path d="M239.896 422.712C240.385 423.45 243.856 436.082 244.849 438.629L232.076 438.739C230.921 438.788 229.7 438.66 228.539 438.574L228.396 438.008C232.602 432.785 236.011 428.191 239.896 422.712Z" fill="#FAFAF9"/>
<path d="M544.234 148.291L550.513 150.601C546.756 159.797 546.459 164.19 545.881 173.928L545.031 174.62C538.973 166.416 541.571 156.947 544.234 148.291Z" fill="#595957"/>
<path d="M680.088 567.043C682.721 569.535 688.999 583.319 691.37 587.579C691.291 589.364 690.218 589.974 689.024 591.211C688.219 592.143 687.555 592.704 686.518 593.368C684.988 591.777 680.844 570.65 680.088 567.043Z" fill="#FAFAF9"/>
<path d="M358.778 372.75L359.309 373.524C359.2 377.966 360.167 393.785 359.53 396.917L358.987 395.802C357.177 391.598 354.917 387.021 352.958 382.835C354.96 379.55 356.871 376.095 358.778 372.75Z" fill="#FAFAF9"/>
<path d="M481.043 417.289L481.498 417.77C481.669 420.19 480.578 423.334 479.902 425.771L470.639 425.686L470.201 425.436C470.518 424.705 479.462 418.617 481.043 417.289Z" fill="#FAFAF9"/>
<path d="M61.6861 439.562C63.2282 440.579 63.2727 440.622 64.2205 442.182C64.3802 445.6 62.5486 449.763 61.4069 453.175L60.8507 453.864L60.3181 453.516C59.6054 449.33 60.7705 443.663 61.6861 439.562Z" fill="#959495"/>
<path d="M722.584 626.944L723.279 627.084L722.499 628.127C717.324 630.826 711.6 631.911 705.859 632.612C705.432 632.374 705.237 632.033 704.944 631.655C706.194 630.625 719.171 628.267 722.584 626.944Z" fill="#959495"/>
<path d="M97.4277 592.052C101.41 594.416 106.469 600.144 110.27 603.331C109.558 603.209 108.996 603.1 108.324 602.819C103.435 600.796 99.26 597.024 97.4277 592.052Z" fill="#959495"/>
<path d="M166.24 578.243C166.418 580.443 164.966 583.283 163.841 585.105L162.634 585.312C161.916 584.44 161.575 583.782 161.183 582.746C161.951 580.608 164.413 579.456 166.24 578.243Z" fill="#CFCECE"/>
<path d="M491.473 384.31C494.578 388.149 493.337 391.311 491.437 395.205L491.08 395.711C490.311 393.889 491.259 386.753 491.473 384.31Z" fill="#FAFAF9"/>
<path d="M754.524 604.361C754.493 604.818 754.457 605.263 754.298 605.689C753.037 609.114 748.069 611.637 744.899 612.85C745.399 611.125 752.762 605.897 754.524 604.361Z" fill="#ADACAB"/>
<path d="M319.191 168.258C319.597 171.074 320.27 174.989 320.341 177.721L319.749 178.271L320.239 179.247L320.129 179.267L319.811 178.76L320.247 178.357C318.835 177.248 318.226 172.303 317.72 169.995L319.191 168.258Z" fill="#CFCECE"/>
<path d="M127.233 617.17C130.632 617.359 135.186 619.12 137.638 621.472C133.834 621.161 130.43 619.102 127.233 617.17Z" fill="#959495"/>
<path d="M66.6361 423.62C65.8401 426.113 64.899 430.031 63.3161 431.871C62.9217 429.714 64.6649 425.375 65.4518 423.243L66.6361 423.62Z" fill="#6D6D6C"/>
</g>
<defs>
<clipPath id="clip0_6_691">
<rect width="832" height="779" fill="white"/>
</clipPath>
</defs>
</svg>
