<svg width="832" height="1248" viewBox="0 0 832 1248" fill="none" xmlns="http://www.w3.org/2000/svg">
<g clip-path="url(#clip0_6_908)">
<path d="M0 0H832V409.234V422.745V913.356V1248H0V913.289V434.813V421.089V0Z" fill="none"/>
<path d="M0 0H832V409.234C801.993 373.802 771.615 338.654 741.87 302.993C718.836 275.377 696.6 246.86 672.055 220.585C662.991 210.883 650.344 211.163 641.097 220.422C631.583 229.953 623.208 240.614 614.577 250.951C601.541 266.718 588.325 282.333 574.927 297.794C568.965 304.738 562.975 312.202 556.783 318.888C526.158 277.227 497.48 233.9 466.309 192.587C456.814 180.003 447.942 166.888 438.143 154.538C432.765 147.759 426.626 140.979 417.56 139.636C411.945 138.804 404.433 140.101 399.755 143.776C384.669 157.813 369.665 179.797 357.175 196.376L306.722 262.887C294.116 279.813 278.672 301.628 265.506 317.648C251.279 300.059 233.741 282.656 218.615 265.578C208.224 253.844 197.208 239.907 184.099 231.527C177.612 227.697 166.981 231.757 161.968 236.444C151.937 245.972 142.58 256.944 133.548 267.421C116.768 286.773 100.179 306.291 83.7833 325.971C56.4054 358.181 27.1417 388.899 0 421.089V0Z" fill="#FCFCFB"/>
<path d="M752.78 913.258C779.185 913.557 805.595 913.587 832 913.356V1248H0V913.289C36.9073 913.41 74.1321 913.435 111.066 913.63C114.088 913.648 116.598 913.484 119.66 913.855C118.708 929.382 116.508 943.489 114.348 958.973C112.329 973.452 108.528 989.875 109.18 1004.43C109.307 1007.25 111.323 1009.9 112.801 1012.26C108.884 1023.27 102.883 1050.7 105.003 1062.37C94.5701 1067.16 64.701 1077.68 58.9542 1085.76L58.8031 1086.41C58.3531 1088.29 57.2361 1090.17 57.7281 1091.82C66.5058 1098.69 155.436 1106.67 171.641 1107.89L197.206 1109.76C206.761 1110.38 210.915 1109.88 220.478 1112.32C223.175 1112.73 223.927 1112.81 226.69 1112.74C254.009 1111.15 283.284 1113.19 311.097 1109.56C320.461 1108.34 327.647 1101.23 338.497 1099.99C346.782 1098.17 359.169 1103.61 366.766 1101.74C384.258 1097.44 400.516 1086.86 418.973 1085.49C432.807 1084.46 446.438 1088.38 460.24 1089.68C489.519 1092.46 519.736 1093.51 549.002 1090.16C555.93 1089.37 571.385 1084 577.247 1084.86C577.498 1086.32 577.1 1086.28 576.096 1087.98L577.284 1087.58C578.942 1092.44 581.659 1096.92 587.338 1098.06C601.858 1100.99 618.484 1100.33 633.137 1098.67C640.256 1097.87 645.041 1092.04 653.001 1096.04C660.376 1098.62 683.709 1092.27 676.626 1079.36C676.248 1075.18 675.261 1067.42 675.81 1063.51C676.09 1061.51 678.552 1059.23 678.644 1055.39C679.052 1029.42 679.144 1003.45 678.924 977.474C679.546 971.898 678.114 957.413 680.021 953.794C682.929 979.436 686.001 1005.05 689.25 1030.66C690.584 1041.67 691.401 1052.75 693.102 1063.7C693.62 1067.05 696.192 1068.41 698.77 1070.12C697.429 1080.47 694.699 1098.09 701.458 1106.42C711.729 1119.06 743.15 1118.86 754.353 1108.15C760.521 1100.2 757.169 1091.01 754.408 1082.38C752.616 1077.71 751.25 1073.74 749.751 1068.96C750.135 1068.62 750.507 1068.28 750.872 1067.92C751.878 1066.96 753.969 1065.13 754.005 1063.72C754.975 1027.04 752.098 989.259 752.677 952.612C753.579 946.305 752.872 921.052 752.78 913.258Z" fill="#FCFCFB"/>
<path d="M754.407 1082.38C763.873 1081.44 779.386 1088.3 785.39 1096.04C777.582 1103.39 765.159 1108.46 754.353 1108.15C760.521 1100.2 757.169 1091.01 754.407 1082.38Z" fill="#ECECEC"/>
<path d="M177.851 493.928C171.952 475.05 170.678 450.772 178.964 432.458C182.752 424.082 192.741 419.198 200.786 424.107C219.923 435.788 223.764 478.016 222.047 497.636C249.771 507.333 260.893 523.254 270.044 549.969C275.094 564.712 276.63 573.097 277.379 588.801C281.123 594.072 283.713 598.233 286.86 603.928C291.571 596.963 295.31 589.289 299.377 581.935C303.808 573.921 310.556 562.821 315.855 555.362C317.134 553.563 319.376 552.536 320.608 550.907C322.194 548.81 321.462 539.482 323.34 535.55C326.081 529.814 331.605 526.962 335.115 521.925C340.846 513.702 350.595 488.092 360.824 486.423C362.751 486.109 364.69 486.806 366.18 488.019C368.529 489.929 370.201 492.82 370.303 495.877C370.507 501.945 361.077 515.406 363.075 517.05C363.204 517.157 363.882 517.463 364 517.52C369.554 520.181 371.484 523.508 373.653 529.137C384.103 536.318 380.992 546.121 374.595 555.003C368.782 563.073 366.321 568.251 357.636 573.749C358.195 578.829 356.711 583.559 355.579 588.518C348.901 617.766 329.53 652.848 310.696 675.986C302.398 686.187 281.476 710.61 271.891 718.605C272.118 742.645 268.767 767.715 267.473 791.755C266.736 805.435 271.077 812.102 266.894 827.793C334.548 838.524 333.399 868.39 317.043 926.323C314.809 934.239 309.018 932.527 309.504 943.721C325.745 945.287 341.924 947.688 347.728 965.098C356.971 962.94 365.892 963.434 374.044 968.644C378.369 971.405 386.956 978.364 385.329 984.269C381.663 986.59 375.773 979.217 373.303 976.999C365.238 969.747 353.594 968.553 344.295 974.378C333.027 981.435 319.806 985.329 306.798 988.589C292.508 992.166 269.016 1001.45 255.853 992.026C239.206 996.182 224.878 998.558 214.704 1014.05C212.72 1017.07 206.98 1025.72 204.43 1027.35C194.861 1033.41 186.525 1037.09 177.459 1044.35C184.009 1050.8 197.022 1063.8 186.525 1073.46C179.037 1080.35 162.168 1080.74 152.37 1080.18C136.187 1078.9 122.438 1076.6 108.419 1068.39C102.608 1071.07 66.426 1087.73 61.9265 1088.29C60.1666 1087.48 60.1393 1087.37 58.9544 1085.76C64.7011 1077.68 94.5702 1067.16 105.003 1062.37C102.883 1050.7 108.884 1023.27 112.801 1012.26C111.324 1009.9 109.307 1007.25 109.18 1004.43C108.528 989.875 112.329 973.452 114.349 958.973C116.508 943.489 118.709 929.382 119.661 913.855C120.574 903.161 121.885 890.742 120.683 880.102C120.035 874.368 118.113 868.012 117.082 862.327C82.9252 862.247 53.4844 859.158 55.8522 815.971C56.1543 810.463 57.3272 796.746 57.1507 791.639C56.6408 776.892 50.7008 766.441 65.2265 755.278L68.7331 722.816C70.5988 705.559 71.6192 680.8 86.1533 669.027C92.5648 663.835 106.623 660.532 114.73 658.247C98.81 634.439 99.2422 603.344 104.63 576.211C106.631 565.606 109.748 555.242 113.929 545.293C93.8881 527.619 73.4325 500.194 71.7654 473.115C69.8692 442.304 97.6781 440.805 115.698 459.633C129.846 474.417 137.004 488.096 145.331 506.294C155.879 498.899 165.454 496.375 177.851 493.928Z" fill="#373737"/>
<path d="M177.507 690.33C182.878 692.14 206.926 702.225 210.212 701.939L210.835 700.879C209.916 698.21 204.708 696.375 202.334 694.986C167.773 674.785 124.291 683.122 111.517 635.816C104.157 608.558 108.45 577.523 118.978 551.232C119.784 549.221 124.932 552.827 127.247 549.514C126.53 545.393 119.175 540.653 115.81 537.741C110.52 533.085 105.68 527.941 101.355 522.379C90.3179 508.458 71.8841 479.122 80.7472 459.991C81.7748 457.773 85.4436 454.773 87.9451 454.551C109.427 452.644 124.805 481.161 134.023 497.061C137.562 503.521 140.944 519.682 145.645 522.529C147.457 522.314 146.649 522.668 148.037 521.21C148.746 518.819 147.757 515.277 147.244 512.718C178.65 493.827 222.619 494.877 248.538 522.672L246.794 523.355C195.713 484.133 152.088 553.854 151.683 599.576C151.343 637.918 158.532 657.54 193.305 678.71C210.806 689.368 224.526 696.485 227.448 717.429C233.142 745.552 232.316 771.652 230.276 799.975C210.656 802.181 202.564 802.821 182.948 802.236C177.43 816.124 171.975 827.952 160.995 838.159C158.895 840.115 154.823 843.442 156.164 846.337C159.93 846.818 168.789 837.263 171.28 834.417C178.398 826.27 182.294 816.904 185.641 806.819C203.133 807.532 212.843 806.624 230.235 804.978C230.558 823.394 228.637 833.814 222.938 850.937C208.079 855.428 187.102 854.124 171.853 851.998C168.934 851.595 164.181 848.963 161.373 850.2L161.064 851.315C161.571 852.363 162.091 853.74 163.318 854.167C183.183 861.004 205.991 859.14 226.254 854.789C233.484 853.241 255.016 842.839 252.967 834.113C250.427 833.515 245.609 840.761 243.252 842.504C238.566 845.965 233.297 847.958 227.977 850.17C234.411 835.148 234.659 819.811 234.514 803.796C239.581 802.888 252.047 801.273 255.261 797.794L255.198 796.484L254.128 795.618C250.698 795.691 239.547 798.178 235.168 798.909C236.457 761.828 239.568 738.258 227.559 700.666C229.185 696.321 231.275 690.873 233.629 686.93C238.889 678.113 242.891 674.438 246.212 664.389C251.293 665.949 254.351 666.047 259.563 666.102C256.841 672.238 255.15 674.493 251.216 679.605C247.748 684.115 238.442 693.091 236.841 697.619L237.254 698.484C240.645 698.344 244.395 693.938 246.989 691.458C253.573 702.64 257.988 716.595 260.577 729.166C265.139 751.323 262.117 773.797 261.138 796.106C261.047 798.178 261.496 801.164 261.668 803.303C262.147 809.293 262.906 815.435 262.077 821.425C261.72 823.698 257.129 830.243 255.784 832.23C256.889 836.056 264.903 833.985 268.576 834.88C288.768 839.902 316.952 844.539 318.846 870.547C319.704 882.332 315.78 917.67 308.429 927.81C305.554 931.777 266.318 939.998 260.888 933.41C255.92 927.383 267.177 891.443 263.298 887.055L261.963 887.549C260.025 889.212 259.722 891.162 259.024 893.6C250.804 892.613 242.564 891.79 234.311 891.144C227.405 890.595 218.554 890.242 211.931 888.767C216.633 885.983 234.308 875.117 233.827 869.993C230.586 869.755 211.347 882.418 206.008 885.178C200.911 896.957 196.966 915.799 193.323 928.742C189.75 941.442 170.693 1007 163.394 1013.07C158.324 1017.3 149.533 1016.69 143.384 1016.15C135.817 1015.47 121.657 1013.38 117.014 1007.07C113.146 1001.82 118.425 977.011 119.549 969.4C123.332 943.77 129.034 910.425 127.69 884.794C126.594 863.917 117.725 851.187 120.905 828.22C131.06 836.361 133.071 844.923 149.686 835.459C158.276 830.566 164.69 822.461 167.567 812.973C170.344 803.808 162.337 799.195 157.957 792.096C158.219 788.568 168.755 778.964 171.903 773.912C176.803 766.015 180.498 757.435 182.867 748.453C187.375 730.86 186.867 706.192 177.507 690.33Z" fill="#FCFCFB"/>
<path d="M136.48 533.697C136.256 535.859 134.548 536.801 132.779 537.404C120.816 535.82 84.9348 487.67 97.608 476.23C103.74 474.056 113.859 484.635 116.628 489.344C122.759 495.761 141.702 525.241 136.48 533.697Z" fill="#ECECEC"/>
<path d="M116.627 489.344C122.759 495.761 141.701 525.241 136.479 533.697C135.074 531.493 133.114 525.523 131.921 522.701C129.15 516.209 126.096 509.842 122.767 503.618C120.538 499.396 118.342 495.159 116.236 490.874C116.367 490.364 116.497 489.854 116.627 489.344Z" fill="#373737"/>
<path d="M222.724 532.68C223.489 532.97 224.248 533.271 225.003 533.585C234.433 537.51 244.169 544.889 248.128 554.551L248.043 558.113L249.511 557.919C253.381 561.654 256.643 575.823 258.643 581.354C270.073 612.958 270.712 655.407 228.597 661.909C224.284 662.58 217.526 660.867 213.652 663.347L213.509 664.493C215.92 667.369 218.243 667.576 221.763 668.198C221.952 672.604 221.515 680.075 225.167 682.847C229.182 683.304 226.046 682.086 229.23 681.367C229.92 683.548 225.367 691.129 224.164 693.365C213.589 682.384 200.206 676.315 187.929 667.119C188.305 666.041 188.618 664.938 188.866 663.823C191.558 651.915 181.599 646.675 174.899 635.919C161.484 639.716 159.058 630.91 157.984 619.344C157.765 616.986 157.938 614.183 159.601 612.434C163.433 611.1 166.055 612.855 169.706 614.536C175.743 605.157 175.043 598.459 174.159 587.742C177.94 585.296 182.582 581.088 185.637 579.347L186.001 581.48L186.667 581.84C190.909 578.751 192.387 571.259 199.394 571.565C201.875 571.674 203.35 572.694 205.145 570.633L205.021 569.285C202.604 567.15 199.182 567.243 196.169 567.357C198.968 562.641 200.09 560.289 201.996 555.211C202.473 558.693 202.527 561.184 205.319 563.531C215.009 565.082 221.619 540.218 222.724 532.68Z" fill="#FCFCFB"/>
<path d="M248.043 558.113C245.222 559.471 243.386 556.978 240.232 557.612C237.787 558.105 234.504 561.916 231.945 562.204L231.188 561.292C231.59 552.08 241.319 551.797 248.127 554.551L248.043 558.113Z" fill="#373737"/>
<path d="M247.316 620.332C254.004 625.127 244.233 657.619 221.125 642.58C217.659 639.204 212.277 632.562 214.066 627.425C214.895 626.675 215.79 625.682 216.957 625.749C228.785 626.462 236.267 624.512 247.316 620.332Z" fill="#373737"/>
<path d="M223.198 633.488C227.54 633.159 238.937 631.453 240.952 635.804C240.563 637.875 238.765 639.076 237.106 640.605C231.817 643.348 221.929 638.82 220.999 633.841L223.198 633.488Z" fill="#BDBCBC"/>
<path d="M201.525 585.537C204.87 585.447 206.22 585.561 208.896 587.833C211.598 590.147 213.224 593.474 213.389 597.027C213.532 600.804 212.903 601.922 210.451 604.546C200.527 607.406 197.144 593.447 201.525 585.537Z" fill="#373737"/>
<path d="M243.333 573.164C251.063 575.475 255.597 586.3 248.476 592.049L248.206 591.954C239.973 589.157 234.919 578.155 243.333 573.164Z" fill="#373737"/>
<path d="M234.51 591.873C247.236 594.377 254.977 604.734 241.119 613.915C238.896 613.976 237.946 613.842 237.44 611.575C238.54 608.93 242.232 605.615 244.356 603.413C239.627 599.415 233.666 599.235 234.51 591.873Z" fill="#373737"/>
<path d="M210.026 895.696C225.296 897.853 241.211 898.377 256.376 900.626C255.438 905.677 254.605 910.741 253.875 915.817C252.967 924.032 251.475 932.137 256.654 939.102C253.339 953.361 251.04 970.893 252.273 985.518C234.406 990.119 220.038 992.666 208.999 1009.33C199.96 1022.98 200.359 1021.59 186.952 1029.34C181.298 1032.62 175.927 1036.36 170.893 1040.52C167.788 1038.33 164.727 1035.93 161.702 1033.62C162.771 1029.65 163.673 1025.04 164.563 1020.99C174.711 1012.71 177.424 999.856 181.648 987.76C190.196 963.221 197.776 938.352 204.372 913.215C206.082 907.829 208.075 900.87 210.026 895.696Z" fill="#FCFCFB"/>
<path d="M210.026 895.696C225.296 897.853 241.21 898.377 256.375 900.626C255.438 905.677 254.604 910.741 253.875 915.817L253.256 914.422C250.241 912.746 212.749 914.331 204.372 913.215C206.081 907.829 208.074 900.87 210.026 895.696Z" fill="#ECECEC"/>
<path d="M141.012 692.274C156.508 692.14 160.969 712.219 161.258 724.358C161.366 728.886 160.469 735.449 159.73 739.952L159.695 739.239C155.732 742.274 139.955 764.455 135.297 770.189C130.693 768.111 121.989 765.198 117.209 767.703L117.118 768.69C119.467 773.236 126.678 771.274 130.643 774.083C152.566 789.628 160.171 798.269 138.854 817.854C134.032 821.596 132.124 822.547 126.265 824.314C111.204 819.256 94.4132 804.009 88.2497 789.275C84.1665 779.512 87.4543 765.966 91.9892 756.874C100.562 739.69 123.553 698.783 141.012 692.274Z" fill="#FCFCFB"/>
<path d="M314.236 569.716C326.196 582.731 331.652 586.702 348.695 590.559C346.64 598.104 342.882 607.193 339.816 614.427C325.288 648.716 306.352 671.958 281.848 698.978C278.02 703.042 274.872 706.522 271.321 710.824C268.883 698.697 266.599 689.033 259.768 678.557C266.324 667.735 263.097 664.14 276.628 661.909C280.421 661.288 286.788 652.915 288.639 649.149C294.315 637.607 293.852 624.28 289.743 612.203C297.623 597.879 305.789 583.714 314.236 569.716Z" fill="#FCFCFB"/>
<path d="M300.824 937.365L302.01 937.651C302.747 940.004 302.233 942.453 301.971 944.976C299.286 945.866 296.673 946.957 294.154 948.236C291.591 949.571 287.439 951.728 286.602 954.501C289.851 957.602 297.646 951.1 301.088 950.802C311.643 949.882 341.76 953.038 340.48 967.584C337.476 972.879 316.192 978.486 309.792 980.32C300.524 983.489 270.847 991.825 262.606 987.638C254.407 983.47 260.988 950.479 262.455 941.954L262.789 942.002C276.144 943.757 287.676 940.217 300.824 937.365Z" fill="#FCFCFB"/>
<path d="M118.42 1016.04C130.424 1021.81 144.583 1022.88 157.679 1022.32C156.606 1025.82 155.712 1029.86 154.832 1033.45C150.481 1033.54 143.054 1034.27 139.745 1037.25L139.765 1038.36C143.978 1042.04 150.253 1036.8 157.833 1040.17C167.344 1044.41 179.047 1053.58 183.32 1063.04C184.497 1078.39 139.345 1072.34 130.47 1069.67C112.471 1064.26 108.78 1063.1 112.524 1043.12C114.248 1033.92 116.162 1025.07 118.42 1016.04Z" fill="#FCFCFB"/>
<path d="M210.513 518.662C224.1 517.033 240.22 521.339 248.835 532.678C251.855 536.655 256.955 545.818 254.049 550.661C253.082 550.187 252.185 548.806 251.499 547.897C246.518 541.304 239.633 534.067 231.892 530.857C226.157 528.479 221.97 527.14 216.746 523.786C216.938 524.699 217.096 525.619 217.221 526.543C218.774 538.396 214.036 547.862 207.179 556.791C205.59 550.026 204.901 546.114 200.607 540.62C199.087 542.333 196.936 555.635 192.098 562.526C182.827 575.734 175.338 584.015 159.191 587.822C163.299 572.518 164.024 562.75 172.585 548.676C181.749 533.613 192.901 523.148 210.513 518.662Z" fill="#626262"/>
<path d="M64.316 790.92C72.1124 793.577 76.0219 794.198 84.0908 795.033C89.1279 804.113 91.5849 807.556 98.9449 814.405C97.5448 827.099 95.6699 838.744 101.413 850.511C102.108 851.931 103.716 854.246 103.775 855.605C57.6111 853.923 59.4639 828.342 64.316 790.92Z" fill="#919191"/>
<path d="M192.028 428.4C213.804 428.372 215.814 481.353 215.59 495.878C209.975 494.514 206.789 494.264 201.14 493.855C198.366 480.5 196.113 472.609 194.688 458.609C194.537 456.353 194.685 455.377 193.401 453.531L192.701 454.187C189.954 463.503 194.792 483.556 196.782 493.483C192.919 493.345 188.441 493.543 184.533 493.62C178.71 477.837 175.358 438.225 192.028 428.4Z" fill="#FCFCFB"/>
<path d="M146.026 681.836C150.879 681.878 166.155 686.095 169.679 689.703C176.844 697.046 179.943 714.431 180.137 724.48C180.459 741.122 174.343 760.287 164.651 773.742C161.897 777.563 157.455 782.017 154.135 785.436C152.695 784.753 149.399 780.847 148.114 779.433C158.606 766.064 166.949 744.248 166.606 727.033C166.323 712.835 163.58 693.578 148.717 687.546C144.529 685.845 141.619 686.089 137.188 686.144C140.071 684.669 143.104 683.25 146.026 681.836Z" fill="#919191"/>
<path d="M93.712 675.291C103.403 674.633 109.597 676.108 116.928 682.463C114.999 689.136 109.753 714.693 107.139 717.801C105.252 718.666 103.175 718.301 101.022 718.191C92.6222 717.771 84.1657 716.046 75.8975 714.492C77.2189 704.846 78.6763 690.111 83.7372 681.744C86.3441 677.436 89.0912 676.309 93.712 675.291Z" fill="#919191"/>
<path d="M266.882 586.53C272.275 589.129 283.17 609.99 285.049 616.2C290.003 632.568 285.729 642.824 278.109 656.955C278.081 648.448 277.844 644.341 275.11 636.328L272.724 649.356C268.343 661.635 260.781 660.63 249.541 660.081C255.097 656.723 257.82 654.31 261.525 648.826C276.013 627.376 271.304 609.54 266.882 586.53Z" fill="#626262"/>
<path d="M340.314 529.042C346.564 528.617 352.792 528.457 356.791 534.121C357.325 539.507 344.385 539.834 340.363 540.256L339.643 541.496C340.977 544.466 344.213 544.673 345.083 546.867C346.009 549.204 343.484 557.932 344.705 559.972L345.97 560.06C348.588 558.153 349.378 553.707 350.104 550.66L351.051 550.232C354.875 550.829 356.51 555.132 359.912 557.735C362.084 558.666 361.897 558.173 362.804 559.813C362.147 565.384 353.309 569.703 348.679 571.41C347.98 571.185 347.288 570.941 346.603 570.676C330.572 564.476 318.786 547.774 333.996 532.426C335.6 530.808 338.177 529.883 340.314 529.042Z" fill="#FCFCFB"/>
<path d="M75.1521 719.964C84.6418 721.591 93.848 722.761 103.347 724.169C98.2268 731.805 93.2196 739.227 89.2815 747.551C87.7357 750.805 86.2363 754.077 84.7826 757.374C80.7475 756.838 75.8531 756.551 71.7363 756.21C72.4793 744.632 74.0294 731.567 75.1521 719.964Z" fill="#919191"/>
<path d="M66.4796 762.353C71.343 761.81 77.3194 762.438 82.1913 763.017C80.445 769.263 79.9714 774.412 80.1994 780.792C80.2872 783.254 81.516 787.593 80.3847 789.275C65.7854 786.673 58.5242 785.722 63.0815 767.91C63.6953 765.515 64.8662 764.156 66.4796 762.353Z" fill="#919191"/>
<path d="M157.095 801.694C157.37 801.907 157.64 802.12 157.908 802.34C168.924 811.456 155.38 824.795 147.118 829.975C143.382 832.321 140.736 832.54 136.409 832.845C134.09 831.681 132.86 830.621 130.831 829.03L131.591 828.707C143.918 823.461 152.2 814.021 157.095 801.694Z" fill="#FCFCFB"/>
<path d="M104.08 818.854C108.466 822.041 110.706 823.54 115.48 826.118C113.734 835.801 114.255 845.806 114.901 855.544C100.563 849.804 102.722 831.127 104.08 818.854Z" fill="#919191"/>
<path d="M321.609 557.904C321.344 557.75 328.33 565.167 328.348 565.209C330.868 571.079 349.874 576.528 351.46 578.523C351.254 580.853 350.235 582.463 349.164 584.519C336.212 584.201 324.538 575.307 318.629 564.165C319.479 562.178 320.653 559.884 321.609 557.904Z" fill="#FCFCFB"/>
<path d="M360.133 492.605C360.854 492.824 361.669 493.253 362.368 493.58C366.592 499.798 355.09 518.028 350.868 522.82C349.965 523.845 348.537 523.389 347.286 523.292C345.189 523.072 344.813 523.086 342.879 522.345C342.198 518.98 357.308 496.496 360.133 492.605Z" fill="#FCFCFB"/>
<path d="M130.196 676.437C132.525 676.083 136.734 676.431 138.048 678.557C136.43 679.801 130.735 684.054 129.744 685.449C127.001 689.307 125.153 696.022 121.673 699.343C119.974 700.995 118.388 703.036 116.869 704.876C118.715 694.029 119.832 682.354 130.196 676.437Z" fill="#919191"/>
<path d="M118.382 664.499C120.331 664.792 126.167 670.599 127.956 672.244C125.285 673.981 122.331 676.278 119.735 678.198C117.557 676.309 116.249 675.474 113.847 673.914C106.991 670.983 104.865 670.544 97.5498 670.069C105.461 667.26 110.004 665.48 118.382 664.499Z" fill="#919191"/>
<path d="M260.323 543.457C264.1 548.857 270.476 573.755 270.642 579.848L270.012 580.457C267.046 576.346 263.894 572.165 261.504 567.707C257.511 560.259 261.191 552.256 260.406 544.235L260.323 543.457Z" fill="#FCFCFB"/>
<path d="M256.082 683.53C261.505 685.809 266.369 717.527 265.549 724.065L265.137 722.597C262.512 710.385 257.892 698.691 251.462 687.984L256.082 683.53Z" fill="#919191"/>
<path d="M359.098 523.273C370.442 522.72 368.473 535.973 363.839 542.048C362.013 544.441 360.063 545.397 357.494 546.74C355.986 546.6 355.757 546.364 354.487 545.61L354.298 544.555C362.603 535.528 364.254 536.375 357.653 525.98C357.251 525.346 358.602 523.953 359.098 523.273Z" fill="#FCFCFB"/>
<path d="M164.923 643.244C175.738 643.378 183.753 651.995 182.572 662.829C177.299 662.732 167.71 647.839 164.923 643.244Z" fill="#626262"/>
<path d="M168.813 591.266C169.487 592.649 168.587 603.626 168.456 605.839C164.577 605.434 162.485 605.215 158.625 605.388C158.325 605.394 157.875 605.192 157.551 605.08C157.109 602.416 157.74 596.841 157.964 593.918C161.067 593.456 165.661 592.097 168.813 591.266Z" fill="#626262"/>
<path d="M373.143 536.106C378.808 542.747 371.175 551.815 363.746 553.818L362.438 552.506C362.373 552.105 362.308 551.705 362.243 551.304C364.379 549.325 367.343 545.88 369.064 543.776C370.835 541.612 372.09 538.508 373.143 536.106Z" fill="#ECECEC"/>
<path d="M156.438 750.025C156.448 755.223 147.29 774.375 142.528 776.179L141.7 774.589C141.413 772.127 153.816 755.052 156.438 750.025Z" fill="#ECECEC"/>
<path d="M248.538 522.672C251.151 525.744 254.656 529.949 256.025 533.809C252.473 530.485 250.588 526.827 246.794 523.355L248.538 522.672Z" fill="#BDBCBC"/>
<path d="M637.074 451.639C634.825 445.659 632.728 438.985 635.751 432.708C637.159 429.786 639.743 427.601 642.864 426.703C650.483 424.585 661.54 430.314 669.305 430.911C698.727 433.174 739.632 428.294 748.86 465.388C768.597 473.453 767.463 503.249 759.826 519.493C757.113 525.253 754.767 529.852 751.427 535.324C752.792 554.56 743.619 570.639 722.688 570.351C720.469 574.839 715.587 581.697 715.678 585.752C719.116 589.814 728.423 601.465 731.452 603.432C759.332 621.538 787.766 629.813 783.006 670.69C779.995 696.534 770.468 732.828 757.211 756.679L762.105 820.853C762.886 831.687 763.836 842.577 763.946 853.436C764.013 860.084 756.876 861.821 751.579 863.35L752.134 920.973C752.17 928.328 751.817 945.866 752.676 952.612C752.097 989.259 754.974 1027.04 754.005 1063.72C753.968 1065.13 751.878 1066.96 750.872 1067.92C750.506 1068.28 750.134 1068.62 749.75 1068.96C751.25 1073.74 752.615 1077.71 754.407 1082.38C757.168 1091.01 760.521 1100.2 754.352 1108.15C743.149 1118.86 711.728 1119.06 701.458 1106.42C694.698 1098.09 697.429 1080.47 698.77 1070.12C696.192 1068.41 693.619 1067.05 693.101 1063.7C691.401 1052.75 690.584 1041.67 689.249 1030.66C686 1005.05 682.928 979.436 680.021 953.794C678.113 957.413 679.545 971.898 678.924 977.474C679.143 1003.45 679.052 1029.42 678.643 1055.39C678.552 1059.23 676.089 1061.51 675.809 1063.51C675.26 1067.42 676.248 1075.18 676.626 1079.36C676.388 1081.95 676.12 1087.41 674.438 1089.31C669.726 1094.66 660.376 1095.43 653.708 1095.07C651.239 1094.92 649.959 1093.71 648.252 1092.24C636.348 1098.23 590.187 1104.85 579.844 1091.1C574.64 1084.18 583.347 1074.32 590.766 1070.23C588.165 1068.73 587.828 1068.11 586.056 1065.73C578.467 1063.18 570.008 1061.08 562.219 1058.85C562.219 1055.92 562.08 1053.26 561.914 1050.33C562.798 1018.24 558.99 988.888 547.69 958.705C546.432 955.342 544.902 936 545.951 932.715C551.904 932.782 557.107 931.43 562.781 929.602C570.59 927.079 573.679 920.705 577.045 913.892C581.761 913.666 608.005 912.746 610.639 914.136C609.645 897.488 608.794 876.72 608.823 860.188C605.052 858.335 600.442 856.221 598.87 851.967C596.665 845.995 604.598 780.225 606.272 768.885C595.434 768.653 584.434 767.819 576.53 759.403C570.281 752.749 568.728 743.157 569.14 734.352C569.44 727.911 570.862 721.634 572.717 715.479C578.697 695.65 602.835 638.113 617.276 625.066C625.542 617.595 636.361 613.866 645.571 607.816C648.764 605.72 651.562 602.983 654.378 600.414C613.668 587.702 617.526 543.547 624.896 510.513C626.712 502.372 627.712 493.97 629.717 485.8C623.091 471.187 625.779 462.527 637.074 451.639Z" fill="#373737"/>
<path d="M577.045 913.892C581.761 913.666 608.005 912.746 610.639 914.136C611.791 945.707 614.314 978.041 615.57 1009.72C615.954 1019.47 616.771 1049.33 618.733 1056.94C609.351 1062.48 600.752 1066 590.766 1070.23C588.165 1068.73 587.828 1068.11 586.056 1065.73C578.467 1063.18 570.008 1061.08 562.219 1058.85C562.219 1055.92 562.08 1053.26 561.914 1050.33C562.798 1018.24 558.99 988.888 547.69 958.705C546.432 955.342 544.902 936 545.951 932.715C551.904 932.783 557.107 931.43 562.781 929.602C570.59 927.079 573.679 920.705 577.045 913.892Z" fill="#FCFCFB"/>
<path d="M678.924 977.474C678.089 971.783 678.4 949.924 678.552 943.776C679.393 947.511 679.649 949.949 680.021 953.794C678.113 957.413 679.545 971.898 678.924 977.474Z" fill="#BDBCBC"/>
<path d="M653.763 830.481L654.214 830.98C657.395 846.038 662.211 864.368 679.466 867.994C700.434 872.4 724.163 870.194 744.88 865.544C745.593 876.994 745.228 892.155 745.337 903.953L746.258 976.292L747.282 1028.22C747.52 1038.27 748.269 1052.23 747.428 1061.88C739.699 1071.12 710.18 1067.55 699.654 1063.72C698.331 1058.16 697.429 1047.92 696.728 1041.82L692.278 1003.12C688.073 966.822 683.27 930.601 677.869 894.459C677.053 889.109 676.26 884.081 675.206 878.767C671.555 876.677 658.681 867.982 655.207 869.755C656.225 873.314 665.179 879.395 668.562 881.802C672.975 906.878 672.347 941.515 672.353 967.517C672.573 997.596 672.353 1027.68 671.707 1057.75C658.596 1061.42 636.093 1062.39 624.53 1054.37C623.609 1046.32 623.5 1036.66 623.171 1028.42C622.707 1016.74 622.116 1005.05 621.403 993.379C619.014 951.862 615.893 903.216 615.43 862.052C642.371 869.261 647.68 853.527 653.763 830.481Z" fill="#FCFCFB"/>
<path d="M651.685 460.544C660.047 466.751 666.411 470.086 676.998 471.851C681.46 472.583 685.976 472.877 690.493 472.732C697.551 472.512 719.86 468.617 720.756 477.559C721.134 481.335 714.764 488.904 713.874 493.605C712.088 503.046 715.624 510.606 716.806 519.616C717.251 523.014 715.715 530.281 716.361 533.988C716.642 535.578 717.208 536.374 718.33 537.472C719.811 537.873 720.981 538.253 722.261 537.229C725.961 534.268 732.069 528.753 737.359 530.506C750.836 534.972 744.57 555.85 734.464 560.76C727.296 564.243 724.224 563.983 717.397 563.298C714.978 571.252 713.051 574.473 708.718 581.413C709.394 584.76 710.711 590.941 708.578 593.613C702.287 601.488 683.691 610.478 674.505 613.013L670.068 608.634C668.093 605.658 667.697 603.893 666.886 600.481C674.981 600.004 678.504 599.323 685.397 595.157C686.482 593.072 686.47 593.813 686.22 591.788C684.501 590.904 682.642 591.649 680.783 592.297C660.279 599.342 636.276 590.192 629.839 568.382C623.372 546.461 628.541 525.583 632.753 503.934C636.099 486.73 636.447 472.62 651.685 460.544Z" fill="#FCFCFB"/>
<path d="M666.886 600.481C674.98 600.004 678.503 599.323 685.397 595.157C684.507 604.036 675.504 603.765 670.067 608.634C668.093 605.658 667.696 603.893 666.886 600.481Z" fill="#ECECEC"/>
<path d="M654.89 517.104L656.914 518.752C659.175 524.921 647.972 532.352 646.686 537.784C645.613 542.32 652.58 542.469 654.695 545.925C654.311 547.898 653.714 548.156 652.135 549.609C642.578 547.72 637.495 539.835 643.736 531.508C647.375 526.66 651.282 522.053 654.89 517.104Z" fill="#373737"/>
<path d="M678.534 557.482C680.04 558.136 680.052 558.244 680.924 559.716C680.784 563.023 675.834 565.28 673.122 566.343C664.229 569.833 656.628 568.355 648.089 564.691C646.12 563.061 644.81 561.642 645.547 558.994C648.784 557.587 654.812 561.025 658.14 562.053C664.79 564.108 672.72 560.515 678.534 557.482Z" fill="#373737"/>
<path d="M681.649 512.79C690.682 515.395 687.933 527.059 681.235 531.729C672.707 529.421 675.121 517.412 681.649 512.79Z" fill="#373737"/>
<path d="M642.066 506.916C651.721 506.116 649.801 518.453 644.23 523.658C633.155 524.136 637.562 512.16 642.066 506.916Z" fill="#373737"/>
<path d="M679.004 493.781C686.879 492.684 704.128 496.053 699.953 506.79C697.088 505.889 693.59 501.222 688.616 499.659C685.105 498.556 680.314 498.92 678.589 497.641C678.108 495.382 678.187 496.202 679.004 493.781Z" fill="#373737"/>
<path d="M642.993 486.352C648.192 486.175 651.752 487.233 653.794 492.286C653.647 494.346 654.001 493.685 652.672 494.895C650.429 494.761 650.703 494.439 648.716 492.83C643.889 490.281 639.226 494.421 637.044 491.654C638.184 488.209 639.897 487.768 642.993 486.352Z" fill="#373737"/>
<path d="M731.288 611.886C742.515 617.309 769.432 632.659 773.997 645.877C783.841 674.383 758.174 763.199 731.257 776.155C716.476 783.272 656.006 771.243 638.75 762.95C649.532 759.964 662.04 755.857 672.115 750.921C674.401 749.799 675.102 748.69 676.12 746.363C679.594 745.552 680.874 744.937 684.153 743.431C684.598 741.481 685.001 738.837 685.366 736.814C693.217 735.345 701.116 734.675 709.089 735.668C713.295 736.192 719.512 740.055 722.931 736.856L722.889 736.003C720.658 732.853 716.812 731.573 713.319 730.397C721.194 711.86 725.388 690.867 734.159 672.518C735.768 669.149 739.254 661.72 738.785 658.296C732.726 656.498 716.531 703.816 714.898 708.776C707.017 705.327 702.305 705.132 694.016 704.895C700.312 692.384 721.694 666.516 725.583 655.736C724.016 652.08 721.243 648.509 718.915 645.231C736.633 641.739 731.337 632.769 731.495 618.29C731.513 616.188 731.355 613.994 731.288 611.886Z" fill="#FCFCFB"/>
<path d="M751.311 765.948C752.049 769.708 753.036 787.581 753.402 792.376C755.121 812.967 756.517 833.576 757.59 854.21C741.602 862.065 701.867 865.666 683.941 861.894C676.334 860.297 671.555 857.884 667.343 851.413C656.598 829.28 655.598 800.28 656.488 776.252C676.736 781.054 706.292 786.862 726.845 784.327C739.383 782.779 744.668 775.326 751.311 765.948Z" fill="#FCFCFB"/>
<path d="M640.031 618.04C641.457 619.747 632.491 627.985 633.247 633.305C633.802 637.211 634.533 637.187 638.02 640.41C634.667 642.982 631.973 644.932 629.029 648.009C628.365 663.957 632.095 687.472 635.734 702.823C628.182 695.151 626.755 693.755 616.522 690.641C617.43 684.572 621.154 656.26 619.368 652.001L618.564 652.123C614.199 659.496 613.261 679.386 611.079 689.087C609.403 690.568 608.065 690.434 605.607 690.964C600.52 696.308 594.488 701.385 590.707 707.637C588.806 710.781 589.452 711.975 590.375 715.297C589.312 716.771 588.959 717.1 588.433 718.8L589.373 720.086C590.67 720.665 617.247 715.449 621.483 715.004C633.509 713.73 645.712 711.726 657.829 710.976C661.297 710.745 664.765 710.568 668.24 710.452C664.808 723.279 664.217 733.2 668.38 745.997C652.295 754.083 610.237 764.955 592.986 760.829C587.171 759.44 581.982 756.375 578.881 751.14C573.556 742.152 575.415 730.391 577.998 720.824C582.656 703.572 606.776 645.883 617.698 633.683C623.854 626.809 632.138 622.556 640.031 618.04Z" fill="#FCFCFB"/>
<path d="M644.736 431.984C651.466 432.299 660.139 436.353 667.289 437.01C693.267 439.397 740.517 434.498 743.833 471.024C755.889 473.794 758.321 484.445 758.766 495.412C759.278 507.871 753.585 518.8 748.13 529.555C744.296 526.768 743.412 526.292 738.969 524.311C732.49 523.425 728.808 525.111 723.249 528.134C723.127 516.351 718.653 506.369 719.69 495.213C720.098 491.313 725.901 483.343 726.236 480.052C728.125 461.429 700.733 467.137 691.908 467.179C686.257 467.188 680.619 466.54 675.115 465.248C660.407 461.817 656.122 457.75 648.644 445.749L648.18 455.624C641.646 449.663 634.862 438.526 644.736 431.984Z" fill="#626262"/>
<path d="M612.108 768.605L629.656 765.083C637.232 769.232 642.84 772.444 651.038 775.149L651.05 781.414C650.928 789.165 652.282 802.23 651.203 809.183C646.607 838.823 641.414 873.259 604.477 849.859C606.626 825.136 608.952 800.432 611.456 775.74L612.108 768.605Z" fill="#FCFCFB"/>
<path d="M612.108 768.605L629.656 765.083C637.233 769.232 642.84 772.444 651.039 775.149L651.051 781.414C643.401 779.866 636.715 774.01 628.444 773.717C622.793 773.516 616.966 774.528 611.456 775.74L612.108 768.605Z" fill="#ECECEC"/>
<path d="M622.69 1061.38C625.109 1061.23 630.351 1063.68 633.015 1064.61C643.779 1068.39 657.67 1066.49 669.318 1066.4C669.769 1072.46 669.812 1078.14 669.879 1084.22C658.853 1087.84 658.493 1085.41 647.57 1085.99C646.376 1086.05 635.173 1089.43 632.503 1090.07C621.233 1092.09 609.737 1092.58 598.335 1091.52C559.515 1087.9 616.68 1065.56 622.69 1061.38Z" fill="#626262"/>
<path d="M720.055 599.331C728.649 605.665 726.559 627.096 726.516 637.272C722.396 639.021 714.575 639.734 712.558 643.244C712.399 647.01 717.91 652.872 720.415 656.041C711.631 670.52 698.49 688.667 688.707 703.432C688.128 704.194 687.695 704.486 686.97 705.108C685.093 705.217 679.729 703.987 676.968 703.694C687.403 668.856 707.676 634.195 720.055 599.331Z" fill="#FCFCFB"/>
<path d="M704.927 1071.75C720.134 1076 728.692 1074.26 743.802 1072.26C747.179 1081.59 755.377 1096.91 747.441 1105C737.244 1111.27 708.315 1111.6 704.122 1096.58C702.293 1090.03 704.092 1078.79 704.927 1071.75Z" fill="#626262"/>
<path d="M653.635 609.875C654.726 611.215 652.404 621.136 652.105 623.775C648.966 651.379 648.253 677.747 649.844 705.486C647.016 705.973 643.986 706.223 641.115 706.509C640.677 703.255 640.104 700.86 639.336 697.655C635.685 682.256 633.789 666.486 633.691 650.66C637.184 646.663 643.474 644.304 643.34 639.277C642.347 636.894 639.957 635.322 637.903 633.64L638.11 633.147C641.243 625.718 648.021 615.755 653.635 609.875Z" fill="#FCFCFB"/>
<path d="M668.69 645.279C671.104 645.255 671.969 645.279 674.377 645.627C676.931 648.204 675.809 681.671 675.596 687.448C675.425 692.122 673.048 699.246 671.262 703.798C668.653 704.035 665.935 704.182 663.314 704.371L654.75 704.773C656.377 685.474 661.351 663.189 668.69 645.279Z" fill="#919191"/>
<path d="M714.234 595.941C717.373 601.229 704.372 625.591 699.99 630.021C698.082 631.946 695.132 634.615 692.974 636.425L688.646 629.375C685.678 624.902 683.142 621.185 679.869 616.931C691.535 612.964 706.17 605.337 714.234 595.941Z" fill="#FCFCFB"/>
<path d="M690.268 711.378C698.661 710.671 704.774 711.055 712.211 714.974C711.229 718.471 709.547 725.827 707.194 728.66C706.603 729.367 705.658 729.062 704.464 729.014C695.955 728.794 691.633 729.202 683.258 730.744C683.301 723.95 682.015 712.877 690.268 711.378Z" fill="#FCFCFB"/>
<path d="M685.891 635.334C687.939 637.772 689.31 640.813 691.724 641.91C694.198 642.044 695.613 640.941 697.837 639.722C693.65 649.911 688.573 660.495 684.178 670.77L680.283 680.465C680.697 668.862 680.064 656.425 679.759 644.743L685.891 635.334Z" fill="#FCFCFB"/>
<path d="M673.877 619.503C677.711 622.02 681.076 627.473 683.502 631.355C681.155 635.609 680.137 638.156 675.956 640.624C673.816 640.465 670.702 639.85 668.513 639.478C663.704 628.674 665.588 626.815 673.877 619.503Z" fill="#919191"/>
<path d="M675.937 710.001C677.748 709.934 678.644 710.001 680.454 710.19C680.875 712.103 678.833 715.589 678.589 718.977C678.107 725.778 678.711 731.146 679.363 737.88C678.351 739.793 677.821 739.647 675.742 740.86C674.718 741.055 674.682 740.939 673.603 740.835C669.251 736.332 670.299 713.523 675.937 710.001Z" fill="#FCFCFB"/>
<path d="M661.73 634.256C662.065 634.688 664.534 640.715 664.96 641.739C661.864 652.866 658.036 660.69 654.934 673.896L654.598 675.145L654.214 675.212C653.971 663.999 655.104 651.16 655.811 639.832L655.927 640.356C658.633 638.028 659.475 637.059 661.73 634.256Z" fill="#FCFCFB"/>
<path d="M661.431 603.714C665.082 608.831 663.198 609.196 670.122 616.084C666.331 619.673 664.247 622.385 661.425 626.73L657.469 632.05C657.743 622.605 658.609 612.763 661.431 603.714Z" fill="#FCFCFB"/>
<path d="M610.414 695.254C617.015 695.894 628.432 700.41 630.656 707.094L629.498 707.789L625.737 708.295C622.982 705.711 619.472 702.232 616.454 700.05C614.656 698.752 611.292 698.301 609.334 696.528L610.414 695.254Z" fill="#FCFCFB"/>
<path d="M640.36 456.185C641.603 456.518 644.164 458.625 645.34 459.5C639.056 464.381 636.721 466.523 633.911 473.91C633.71 474.743 633.582 474.736 633.082 475.5C629.224 469.88 636.849 460.035 640.36 456.185Z" fill="#626262"/>
<path d="M601.501 701.506C606.704 700.836 618.021 703.45 618.856 709.142C618.289 709.185 616.655 709.422 616.247 709.392C613.321 709.178 602.899 704.919 601.033 703.115L601.501 701.506Z" fill="#FCFCFB"/>
<path d="M596.873 708.654C599.094 708.569 604.033 708.697 605.207 710.836L603.887 711.445C601.015 712.14 598.194 713.2 595.615 711.933C595.511 710.019 595.55 710.617 596.873 708.654Z" fill="#ECECEC"/>
<path d="M406.464 600.906C417.679 580.119 428.99 566.574 450.795 555.546C470.196 545.734 498.553 544.316 519.101 551.589C543.714 560.08 563.339 578.975 572.75 603.246C577.062 614.536 576.369 622.55 583.741 632.757C587.743 638.296 585.061 658.375 582.161 664.962C578.087 674.219 574.036 679.715 564.016 684.115C552.44 703.322 536.289 713.493 514.973 719.318C529.658 725.162 557.903 736.381 559.665 754.37C584.764 781.365 596.844 829.798 588.313 865.617C586.917 871.473 582.717 881.625 582.077 886.312C580.486 897.944 581.846 902.247 577.046 913.892C573.68 920.705 570.591 927.079 562.781 929.602C557.107 931.43 551.905 932.782 545.951 932.715C544.903 936 546.432 955.342 547.691 958.705C558.99 988.888 562.799 1018.24 561.915 1050.33C560.301 1058 563.326 1066.22 558.976 1074.21C555.787 1080.07 549.249 1083.33 542.634 1085.14C526.786 1089.46 502.865 1090.49 487.621 1083.74C484.427 1082.32 481.22 1078.03 480.467 1074.67C478.33 1065.15 482.372 1055 487.085 1047.03C483.933 1021.71 484.751 997.742 486.436 972.471C487.961 949.601 485.134 929.803 488.381 906.33C481.976 906.141 478.567 906.013 472.267 904.94C470.687 919.815 471.5 937.706 469.894 953.696C479.841 972.026 482.5 1032.08 477.278 1053.85C476.192 1058.38 473.996 1063.69 469.315 1065.96C450.332 1074.62 416.661 1076.84 396.508 1071.57C367.157 1063.9 393.214 1031.68 409 1023.57L409.611 1023.26C409.276 1005.01 409.898 985.743 411.747 967.584C412.065 961.435 415.071 954.044 415.318 948.133C416.436 921.338 418.456 894.751 427 869.042C417.661 848.305 415.541 836.605 412.992 813.552C406.484 817.556 395.61 823.022 387.726 822.181C355.854 818.756 341.2 779.08 342.455 751.055C337.314 743.919 330.527 729.891 328.913 720.988C327.981 717.448 331.421 708.142 335.071 707.161C341.782 705.358 340.945 704.194 345.338 699.014C347.321 698.277 349.933 697.661 352.015 697.101C348.931 688.057 340.302 663.347 360.172 668.941C367.353 670.958 374.917 698.551 377.205 705.638C391.975 711.128 390.158 728.313 387.114 740.598C390.441 746.399 393.754 752.968 396.904 758.922C405.055 750.043 415.595 739.781 424.471 731.622C428.883 727.563 443.126 721.53 449.258 718.282C445.53 716.619 441.869 714.809 438.282 712.865C414.575 699.928 405.493 685.151 398.152 660.331C385.16 650.325 387.426 629.149 392.738 615.658C395.768 607.959 398.998 604.07 406.464 600.906Z" fill="#373737"/>
<path d="M483.693 554.159C501.122 552.751 518.537 557.05 533.307 566.407C552.727 578.51 564.864 596.354 569.952 618.503C552.565 615.92 546.45 628.022 542.086 642.952C537.935 657.15 538.75 679.898 556.064 684.438C542.706 701.202 525.137 710.866 504.313 715.242C502.609 715.498 500.901 715.735 499.192 715.949C416.02 726.21 374.914 648.564 424.805 584.723C439.403 566.045 460.551 556.759 483.693 554.159Z" fill="#FCFCFB"/>
<path d="M445.907 592.556C462.235 591.772 488.02 596.606 504.428 600.481C533.884 607.438 536.711 643.725 519.984 664.487C513.49 672.549 505.163 674.444 495.074 675.187C477.219 675.51 433.973 669.776 419.102 659.618C402.645 648.381 407.996 617.23 419.686 604.153C427.11 595.846 434.69 593.429 445.907 592.556Z" fill="#373737"/>
<path d="M490.104 622.745C504.011 621.788 503.042 642.19 492.397 649.612C478.052 651.763 479.905 629.198 490.104 622.745Z" fill="#FCFCFB"/>
<path d="M437.89 615.481C438.664 615.365 439.446 615.316 440.229 615.322C451.879 615.469 448.108 636.005 440.028 642.354C424.725 642.677 429.771 622.921 437.89 615.481Z" fill="#FCFCFB"/>
<path d="M446.732 677.345C450.519 678.423 453.457 681.263 457.618 682.037C461.682 682.793 471.257 679.045 473.012 683.14C472.609 685.382 471.414 686.467 469.956 688.185C459.957 694.31 440.148 688.771 446.732 677.345Z" fill="#373737"/>
<path d="M449.623 725.625C449.691 727.21 449.577 730.525 449.992 731.853C455.281 748.709 482.304 746.332 495.056 742.396C504.482 739.489 511.627 735.01 516.061 726.649C522.822 729.062 528.049 731.67 534.265 735.144C525.575 738.313 520.333 743.919 516.212 752.219C510.706 763.334 509.904 776.191 513.984 787.904C516.85 796.142 521.43 801.962 529.285 805.728C532.209 806.55 532.838 806.227 534.521 809.232C541.546 821.76 535.327 844.99 531.344 858.091C528.305 856.598 527.249 856.068 523.687 856.233C503.737 859.92 481.466 878.201 481.531 899.785C408.141 895.483 402.377 757.404 449.623 725.625Z" fill="#FCFCFB"/>
<path d="M529.285 805.728C532.209 806.55 532.838 806.227 534.521 809.232C541.547 821.76 535.328 844.99 531.344 858.091C528.305 856.598 527.25 856.068 523.688 856.233C527.783 843.43 529.065 836.306 529.466 822.547C529.607 817.708 528 809.469 529.285 805.728Z" fill="#ECECEC"/>
<path d="M524.25 956.834C543.876 954.635 546.446 972.154 550.008 987.468C554.861 1008.34 556.002 1030.25 555.791 1051.62C548.133 1042.53 540.828 1036.3 528.916 1033.73C513.864 1031.15 504.995 1033.74 492.601 1041.85C491.17 1018.65 490.538 1001.1 491.926 977.413C507.145 990.813 510.981 967.133 519.207 959.522C520.492 958.334 522.617 957.505 524.25 956.834Z" fill="#FCFCFB"/>
<path d="M457.293 953.123C470.523 955.409 471.314 982.599 472.335 993.964C472.933 1000.64 477.204 1040.96 469.193 1042.49C461.88 1043.88 450.627 1031.31 442.808 1026.61C433.242 1021.57 426.837 1020.45 416.353 1020.81C415.593 1003.1 416.32 985.378 418.527 967.797C429.97 983.848 442.785 963.757 451.12 956.268C452.865 954.696 455.092 953.867 457.293 953.123Z" fill="#FCFCFB"/>
<path d="M523.826 883.149L529.969 883.106C525.79 889.529 521.185 899.322 522.803 907.207C524.293 914.465 528.174 913.788 531.085 915.696C531.566 922.441 521.563 929.37 538.628 932.435C539.561 939.388 539.886 946.554 540.127 953.556L539.551 953.312C530.748 949.76 524.839 950.131 516.332 953.654C510.51 956.286 500.438 961.764 494.354 958.888C491.518 951.503 492.721 916.549 494.863 907.938C495.888 903.764 497.715 899.827 500.244 896.354C506.356 887.945 513.9 884.703 523.826 883.149Z" fill="#FCFCFB"/>
<path d="M515.234 1039.12C535.605 1037.38 542.129 1047.32 555.189 1058.9C555.226 1064.43 555.299 1068.08 551.486 1072.59C546.446 1078.55 533.682 1080.72 526.168 1081.29C524.408 1081.65 520.713 1081.71 518.851 1081.7C505.892 1081.65 481.708 1082.46 486.786 1062.52C490.367 1048.45 501.979 1041.84 515.234 1039.12Z" fill="#FCFCFB"/>
<path d="M418.929 1027.49C419.301 1027.45 419.673 1027.42 420.046 1027.39C433.374 1026.43 443.759 1033.58 453.016 1042.18C459.962 1048.64 463.359 1049.17 472.439 1048.51C471.757 1051.24 471.039 1054.4 469.364 1056.65C464.123 1063.69 450.426 1065.08 442.053 1066.03C431.459 1068.48 403.744 1067.41 392.959 1063.22C386.583 1060.74 390.87 1050.31 393.775 1046.02C400.295 1036.38 407.34 1030.12 418.929 1027.49Z" fill="#FCFCFB"/>
<path d="M563.156 819.134C571.213 818.372 583.468 821.188 584.292 830.804C585.522 845.154 584.309 864.636 577.787 877.756C576.226 880.894 569.352 881.284 566.225 881.613C559.247 880.791 546.072 877.518 544.706 869.091C542.76 857.092 543.044 839.274 548.08 828C550.169 823.327 558.598 820.2 563.156 819.134Z" fill="#FCFCFB"/>
<path d="M383.783 747.484C385.918 748.782 388.731 757.27 389.984 760C396.11 773.364 402.13 790.341 391.462 803.193C383.84 812.37 374.212 811.011 365.823 803.948C354.82 790.859 350.359 773.358 347.928 756.801C363.393 764.607 373.168 759.184 383.783 747.484Z" fill="#FCFCFB"/>
<path d="M428.569 885.873C429.355 886.957 430.655 889.505 431.401 890.766C439.185 903.971 450.129 910.924 465.623 911.911C465.792 922.746 464.66 936.39 464 947.414L457.493 946.713C443.731 946.932 434.356 952.648 421.783 945.939C421.254 930.26 425.17 901.034 428.569 885.873Z" fill="#FCFCFB"/>
<path d="M543.754 753.882C546.38 753.663 548.842 753.724 551.121 755.217C563.507 763.303 576.159 791.2 579.411 804.613C571.019 801.931 566.301 801.834 558.12 805.106C550.491 808.909 548.46 811.237 543.874 818.5C539.385 800.694 520.094 767.429 543.754 753.882Z" fill="#FCFCFB"/>
<path d="M542.415 878.042C551.076 887.506 563.56 889.23 575.651 887.256C575.472 897.847 572.73 917.536 562.386 922.795C562.287 919.352 570.846 914.745 566.539 909.255C561.148 912.033 559.587 923.843 549.113 926.226L548.439 925.799C550.723 922.996 551.685 921.625 553.552 918.523C554.76 915.635 556.696 912.167 555.695 909.315C550.998 909.651 544.223 928.779 535.905 925.903C533.428 920.583 547.363 900.796 542.308 894.642L540.531 894.502C537.324 896.385 535.377 909.352 530.353 908.889C529.457 907.603 529.202 904.709 529.296 903.112C529.943 892.149 535.07 885.221 542.415 878.042Z" fill="#ECECEC"/>
<path d="M368.244 711.25C371.804 711.031 375.296 710.708 378.102 713.279C386.707 720.884 382.785 740.049 375.56 747.411C365.309 757.849 355.584 755.174 346.32 746.277C343.803 743.047 342.999 741.25 341.39 737.514C342.017 737.563 345.536 737.776 345.884 737.587C352.783 733.919 356.386 735.254 361.066 728.435C363.978 728.264 372.903 726.923 372.963 723.279L371.753 722.195C369.364 721.47 366.086 722.237 363.481 722.627C361.135 721.451 359.119 720.738 357.628 718.557C356.452 713.109 364.285 712.085 368.244 711.25Z" fill="#ECECEC"/>
<path d="M535.291 740.439C541.014 740.22 546.617 741.932 549.471 747.344C539.875 748.635 535.941 749.964 531.036 759.196C525.135 770.311 525.539 782.505 529.212 794.308C529.794 796.252 530.303 796.679 529.703 798.287L528.383 798.153C510.332 785.838 514.057 750.202 535.291 740.439Z" fill="#919191"/>
<path d="M571.042 631.282C585.804 631.3 579.364 664.268 568.199 672.86C560.047 672.592 560.14 659.393 560.924 653.738C562.132 645.023 563.953 636.998 571.042 631.282Z" fill="#ECECEC"/>
<path d="M523.568 861.79C526.086 861.87 527.169 862.144 528.475 864.277C528.741 867.695 526.746 872.729 525.633 876.281C524.858 876.379 524.084 876.488 523.311 876.61C508.227 878.835 499.87 885.976 491.047 897.859C490.357 898.798 490.22 898.798 489.307 899.565C488.574 899.047 488.221 899.041 488.183 898.097C487.448 879.572 508.096 864.727 523.568 861.79Z" fill="#919191"/>
<path d="M414.209 749.97L414.795 750.537C418.368 770.89 413.04 784.351 413.132 805.094C410.863 806.764 405.476 811.163 403.166 811.907L402.896 811.291L404.569 808.695C413.45 789.683 404.559 782.444 399.201 765.351C403.036 760.975 410.029 753.687 414.209 749.97Z" fill="#FCFCFB"/>
<path d="M561.378 623.464C563.983 623.202 569.28 623.208 570.483 625.871C566.879 627.851 564.566 628.71 562.164 632.422C556.147 641.715 554.027 654.682 555.621 665.523C556.523 671.659 558.978 674.846 563.907 678.204C538.16 682.597 543.264 634.158 561.378 623.464Z" fill="#ECECEC"/>
<path d="M508.253 724.449C509.623 725.193 509.037 724.657 509.757 726.381C509.588 727.021 509.295 728.057 508.788 728.502C495.695 740.001 471.631 744.863 457.38 734.035C456.158 732.347 454.614 729.337 455.395 727.228L456.219 726.966C470.681 736.625 494.144 733.09 508.253 724.449Z" fill="#919191"/>
<path d="M354.845 674.072C355.417 674.194 356.999 674.566 357.384 674.816C362.637 678.216 368.811 698.813 370.446 704.486L369.298 704.864L362.577 706.345C359.53 697.637 350.981 682.39 354.845 674.072Z" fill="#FCFCFB"/>
<path d="M421.531 952.222C429.708 955.896 436.333 954.592 445.137 953.818C442.917 956.962 441.057 959.272 438.595 962.228C426.738 973.763 417.404 966.493 421.531 952.222Z" fill="#919191"/>
<path d="M431.597 876.72C432.171 877.012 432.249 877.031 432.622 877.573C438.247 885.763 445.703 893.752 454.493 898.511C457.196 899.974 460.295 900.961 463.055 902.253C465.273 903.295 465.253 903.654 465.894 905.483C455.869 910.266 436.325 892.82 433.649 883.764C432.942 881.376 432.171 879.17 431.597 876.72Z" fill="#919191"/>
<path d="M457.263 719.708C468.804 722.53 481.188 724.833 493.098 723.2C495.382 722.889 497.319 722.725 499.627 722.725L499.96 723.279L498.524 724.608C490.207 728.721 459.615 731.488 457.263 719.708Z" fill="#919191"/>
<path d="M350.929 702.993L352.888 703.225C354.923 704.456 355.912 706.375 357.272 708.398C344.651 718.703 355.108 718.892 356.043 726.667C355.196 727.076 354.249 727.466 353.38 727.85C346.299 726.546 344.962 715.492 345.879 709.721C346.447 706.144 348.239 704.943 350.929 702.993Z" fill="#FCFCFB"/>
<path d="M565.24 808.208C570.739 807.824 583.066 809.652 582.152 817.221C581.261 817.349 573.457 813.68 569.146 812.894C559.371 812.748 557.231 814.241 548.722 818.927C554.047 812.784 557.275 810.383 565.24 808.208Z" fill="#919191"/>
<path d="M508.828 963.556L509.203 964.025C508.922 964.775 508.631 965.518 508.332 966.255C506.259 971.356 503.348 978.815 496.99 974.951C495.482 972.879 493.867 970.332 493.921 967.73C496.219 964.372 500.157 966.146 503.856 965.28C505.616 964.866 507.167 964.232 508.828 963.556Z" fill="#919191"/>
<path d="M338.844 711.579C340.8 713.712 340.361 719.647 341.685 722.841C343.033 726.095 344.608 726.911 346.022 730.299C344.948 731.914 344.81 731.567 342.709 732.536C341.369 731.762 340.136 730.817 339.04 729.72C333.329 724.114 332.819 717.259 338.844 711.579Z" fill="#ECECEC"/>
<path d="M402.699 790.908C403.59 792.322 403.356 792.291 403.405 793.882C403.783 806.215 395.174 815.581 383.006 815.856L382.62 815.447L382.676 814.783C395.082 811.157 399.253 802.248 402.699 790.908Z" fill="#989797"/>
<path d="M402.067 611.672C402.273 612.72 400.046 621.861 399.596 623.305C397.135 631.209 397.729 640.648 396.333 647.955C393.085 637.638 395.789 620.466 402.067 611.672Z" fill="#ECECEC"/>
<path d="M431.017 734.321C431.063 735.625 424.554 746.521 423.513 749.318C422.284 752.621 421.624 754.815 420.691 758.331C417.358 749.525 423.533 739.087 431.017 734.321Z" fill="#919191"/>
<path d="M536.769 861.644C537.67 862.765 537.598 870.632 537.661 872.655L533.631 878.317L532.544 877.073C531.775 873.265 535.288 865.532 536.769 861.644Z" fill="#ECECEC"/>
<path d="M265.506 317.648C278.672 301.628 294.116 279.813 306.722 262.887L357.175 196.376C369.665 179.797 384.669 157.813 399.755 143.776C404.433 140.101 411.945 138.804 417.56 139.636C426.626 140.979 432.765 147.759 438.143 154.538C447.942 166.888 456.814 180.003 466.309 192.587C497.48 233.9 526.158 277.227 556.783 318.888C562.975 312.202 568.965 304.738 574.927 297.794C588.325 282.333 601.541 266.718 614.577 250.951C623.208 240.614 631.583 229.953 641.097 220.422C650.344 211.163 662.991 210.883 672.055 220.585C696.6 246.86 718.836 275.377 741.87 302.993C771.615 338.654 801.993 373.802 832 409.234V422.745C803.499 387.433 771.163 353.169 743.01 317.44C741.821 315.937 739.925 313.938 738.597 312.463C726.601 319.08 702.33 295.465 690.255 302.353C682.27 306.906 677.76 322.708 671.811 330.666C660.931 342.698 637.501 305.025 627.042 301.857C612.492 297.451 586.822 324.403 574.438 311.469C572.825 313.195 571.36 314.657 570.068 316.656L562.02 326.206C574.716 344.541 587.699 361.463 601.806 378.741C605.794 383.625 626.402 407.799 626.042 412.012C624.67 413.272 625.237 412.893 622.988 413.066C618.868 411.477 609.379 399.473 606.001 395.506C575.834 359.931 547.673 322.702 521.652 283.993C520.034 281.618 518.576 279.937 516.718 277.757C499 292.934 469.197 248.652 451.7 262.498C440.485 271.372 434.808 301.541 418.905 303.747C405.291 303.63 373.744 260.31 365.026 260.475C348.704 260.782 322.549 296.568 300.289 285.765C299.257 287.239 297.613 289.435 296.816 290.958C283.933 306.907 272.29 323.777 259.411 339.789C245.355 357.263 229.912 373.37 214.655 389.786C212.081 392.556 210.611 395.273 206.604 393.462C205.313 389.375 211.047 384.077 213.662 381.032C228.965 363.216 245.182 345.843 259.015 326.83L260.06 325.638C259.862 323.532 258.627 322.622 257.141 320.994C240.923 328.506 216.337 307.285 203.715 310.853C195.304 313.23 189.51 333.689 178.043 339.427C166.109 339.813 153.993 317.406 142.669 314.503C134.785 312.481 127.693 318.609 120.86 322.47C111.194 327.932 103.28 333.087 91.6041 329.936L88.0031 335.131C76.6415 346.865 65.3854 360.514 54.2899 372.708C35.8718 392.949 17.2175 413.555 0 434.813V421.089C27.1417 388.899 56.4054 358.182 83.7833 325.971C100.179 306.291 116.768 286.773 133.548 267.421C142.58 256.944 151.937 245.972 161.968 236.444C166.981 231.757 177.612 227.697 184.099 231.527C197.208 239.907 208.224 253.844 218.615 265.578C233.741 282.656 251.279 300.059 265.506 317.648Z" fill="#373737"/>
<path d="M300.289 285.765C309.298 274.342 318.363 261.672 327.15 249.963L358.016 209.394C371.18 191.842 384.378 174.323 398.225 157.291C405.507 148.333 416.487 142.884 425.496 153.213C437.364 166.82 448.567 182.515 459.236 197.19C478.859 223.713 498.023 250.573 516.719 277.757C499.001 292.934 469.198 248.652 451.7 262.498C440.486 271.372 434.809 301.541 418.905 303.747C405.292 303.63 373.744 260.31 365.027 260.475C348.705 260.782 322.549 296.568 300.289 285.765Z" fill="#FCFCFB"/>
<path d="M574.438 311.469C599.235 285.774 620.922 254.009 645.571 227.9C650.423 222.761 656.085 220.411 662.802 223.367C661.906 233.684 663.271 245.981 664.155 256.412C665.191 269.389 666.386 282.353 667.751 295.299C669.123 307.292 670.903 318.566 671.811 330.666C660.931 342.698 637.501 305.024 627.041 301.857C612.492 297.451 586.822 324.403 574.438 311.469Z" fill="#FCFCFB"/>
<path d="M91.6045 329.936C97.5406 322.24 107.995 310.643 114.596 302.727C124.845 290.384 135.309 278.222 145.984 266.246C151.409 260.091 156.771 253.685 162.487 247.821C168.175 241.986 174.118 236.706 182.558 240.035C179.926 262.496 179.157 282.326 178.779 304.971C178.622 314.368 179.699 330.701 178.043 339.427C166.109 339.813 153.994 317.406 142.67 314.503C134.785 312.481 127.693 318.609 120.86 322.47C111.194 327.932 103.281 333.087 91.6045 329.936Z" fill="#FCFCFB"/>
<path d="M182.558 240.035C207.173 264.14 233.758 295.042 257.141 320.994C240.924 328.506 216.338 307.285 203.715 310.853C195.304 313.23 189.511 333.689 178.043 339.427C179.699 330.701 178.622 314.368 178.779 304.971C179.157 282.326 179.926 262.496 182.558 240.035Z" fill="#ECECEC"/>
<path d="M662.803 223.367C690.646 252.433 712.655 283.556 738.597 312.463C726.601 319.08 702.33 295.465 690.255 302.353C682.271 306.906 677.76 322.708 671.811 330.666C670.903 318.566 669.123 307.292 667.752 295.299C666.387 282.353 665.192 269.389 664.156 256.412C663.272 245.981 661.907 233.684 662.803 223.367Z" fill="#ECECEC"/>
<path d="M300.288 285.765C322.549 296.568 348.704 260.782 365.026 260.475C373.743 260.31 405.291 303.63 418.905 303.747C434.808 301.541 440.485 271.372 451.7 262.498C469.197 248.652 499 292.934 516.718 277.757C518.576 279.937 520.033 281.618 521.652 283.993C509.836 288.947 507.438 287.804 495.265 284.345C486.494 281.853 464.8 262.821 457.423 267.482C443.255 276.433 438.596 316.093 415.414 309.793C400.993 303.493 386.781 288.823 376.067 277.494C360.951 261.508 363.077 267.097 346.993 277.197C333.608 285.602 312.113 302.953 296.815 290.958C297.613 289.435 299.257 287.239 300.288 285.765Z" fill="#919191"/>
<path d="M671.811 330.666C677.76 322.708 682.27 306.906 690.255 302.353C702.33 295.465 726.601 319.08 738.596 312.462C739.925 313.938 741.821 315.937 743.009 317.44C728.795 326.407 709.169 308.694 695.857 307.987C685.799 310.362 684.038 327.508 677.4 334.025C657.889 354.732 635.922 310.223 623.342 308.291C610.005 306.243 587.815 331.794 570.067 316.656C571.36 314.657 572.825 313.195 574.438 311.469C586.822 324.403 612.492 297.451 627.041 301.857C637.501 305.024 660.931 342.698 671.811 330.666Z" fill="#919191"/>
<path d="M178.042 339.427C189.51 333.689 195.303 313.23 203.715 310.853C216.337 307.285 240.923 328.506 257.141 320.994C258.627 322.622 259.862 323.532 260.06 325.638L259.015 326.83C242.212 331.667 231.957 325.987 216.895 319.39C194.97 309.786 199.279 340.176 177.271 345.826C160.714 342.313 154.359 328.362 139.828 319.709C125.868 325.231 102.274 345.499 88.0029 335.131L91.604 329.936C103.28 333.087 111.193 327.932 120.86 322.47C127.693 318.609 134.784 312.481 142.669 314.503C153.993 317.406 166.109 339.813 178.042 339.427Z" fill="#919191"/>
<path d="M220.479 1112.32C225.251 1089.28 245.276 1087.09 261.994 1076.14C264.312 1074.62 267.449 1063.21 269.403 1059.5C274.143 1050.48 303.81 1033.9 312.886 1041.76L313.392 1042.82C309.916 1046.19 291.522 1049.2 282.899 1055.43C270.022 1064.74 273.536 1074.2 267.238 1080.54C260.843 1086.98 238.862 1092.94 231.953 1102.74C229.284 1106.53 228.467 1109.9 226.69 1112.74C223.927 1112.81 223.175 1112.73 220.479 1112.32Z" fill="#BDBCBC"/>
<path d="M396.803 332.2C401.12 333.592 409.838 340.404 415.11 342.418C425.371 347.525 431.572 351.664 436.672 362.142C451.807 393.237 353.33 409.985 381.538 434.394C398.746 449.094 441.347 461.668 448.265 485.959C457.664 518.963 409.069 531.067 394.485 560.767C393.795 561.716 393.852 561.656 392.813 562.208C391.778 561.508 391.232 560.983 391.095 559.494C390.299 536.025 430.403 521.78 439.837 504.844C454.617 478.311 407.902 459.025 391.081 448.856C380.017 442.169 371.914 438.33 368.556 425.253C374.644 398.435 423.202 394.122 431.752 367.674C427.488 351.158 409.002 347.832 397.975 338.734C396.118 337.202 396.596 334.551 396.803 332.2Z" fill="#BDBCBC"/>
<path d="M393.286 324.134C395.47 324.393 395.984 324.083 397.48 325.333C397.012 328.234 392.395 330.515 391.098 333.437C386.839 343.031 410.078 350.307 413.616 359.101C421.102 377.703 344.403 399.222 334.259 424.031C324.996 446.686 387.064 463.967 395.759 484.267C397.855 489.161 397.669 494.512 395.606 499.386C392.564 506.569 384.784 512.814 377.651 515.652C375.717 515.782 374.421 515.963 373.226 514.532C374.676 508.729 391.185 501.275 389.96 493.164C386.687 471.52 345.743 459.914 333.547 445.158C301.253 406.797 387.034 385.77 404.897 366.956C418.084 353.067 364.688 348.311 393.286 324.134Z" fill="#BDBCBC"/>
<path d="M394.646 862.448C395.245 862.388 395.844 862.339 396.444 862.296C398.923 862.119 401.263 861.943 403.203 863.618L403.211 865.026C399.954 866.745 394.913 867.007 391.231 868.225C387.079 869.596 383.022 871.333 379.036 873.173C373.361 875.788 367.714 878.859 362.75 882.661C360.943 884.051 357.01 888.518 355.477 889.255C348.065 892.808 342.929 893.984 335.545 898.286C332.884 899.718 331.976 900.638 329.357 900.004L328.796 898.98C331.147 892.46 344.698 888.457 350.466 884.916C354.085 882.692 356.882 879.115 360.136 876.939C369.335 870.797 383.796 864.051 394.646 862.448Z" fill="#BDBCBC"/>
<path d="M401.561 882.844C403.691 883.228 402.775 882.795 404.426 884.167L404.41 885.934C401.442 888.962 397.808 891.607 394.637 894.502C383.815 904.367 380.648 912.125 364.957 913.142L362.84 912.941L362.666 912.308C365.074 910.022 367.151 909.809 369.861 908.231C382.781 900.681 387.823 889.901 401.561 882.844Z" fill="#BDBCBC"/>
<path d="M218.967 1037.11C220.635 1036.9 222.649 1037.06 223.707 1038.36C221.463 1041.81 210.167 1045.98 205.971 1047.48C203.892 1048.36 203.209 1048.34 201.328 1047.19L201.552 1045.95C205.681 1041.14 213.05 1038.73 218.967 1037.11Z" fill="#BDBCBC"/>
</g>
<defs>
<clipPath id="clip0_6_908">
<rect width="832" height="1248" fill="white"/>
</clipPath>
</defs>
</svg>
