<svg width="832" height="1248" viewBox="0 0 832 1248" fill="none" xmlns="http://www.w3.org/2000/svg">
<g clip-path="url(#clip0_6_1039)">
<path d="M0 0H832V1248H0V0Z" fill="none"/>
<path d="M154.225 346.725C150.266 340.326 148.811 334.157 146.621 326.765C139.207 301.735 137.613 282.003 142.699 256.301C147.485 232.117 169.402 202.588 188.823 235.504C200.988 256.122 202.758 289.028 202.426 312.888C219.807 310.842 233.1 308.235 250.54 313.626C255.922 290.288 262.017 268.296 276.182 248.41C282.111 239.693 291.434 228.007 303.351 230.287C307.101 231.004 311.358 234.876 313.044 238.201C327.703 267.115 313 316.765 295.38 340.774C311.185 360.941 319.369 381.535 322.588 407.039C328.149 451.091 335.152 497.677 295.846 528.13C293.533 529.9 291.191 531.632 288.821 533.325C307.311 549.263 310.554 561.688 317.004 584.619C319.148 592.243 321.984 602.544 323.139 610.259C324.469 601.73 326.075 593.245 327.953 584.819C335.538 549.263 343.293 538.023 377.558 522.999C381.529 521.258 395.937 508.994 398.684 505.576C383.705 493.981 373.627 479.813 371.208 460.58C371.053 459.296 370.941 458.007 370.872 456.715C353.962 448.302 349.776 420.421 365.093 408.746C359.279 389.1 350.34 364.204 368.98 348.176C366.252 341.538 363.459 333.648 366.174 326.651C369.634 317.737 381.462 322.756 388.689 321.767C399.413 320.299 410.164 317.617 420.851 316.059C436.965 313.831 455.228 315.417 469.854 322.778C475.069 325.403 483.217 331.214 485.827 336.413C491.651 348.016 502.195 352.439 505.913 365.624C509.769 379.302 505.648 399.318 500.218 412.032C516.556 429.829 506.011 457.386 482.588 462.396C477.523 477.785 472.295 486.593 461.482 498.413C459.086 501.032 466.861 509.167 468.668 510.406C484.439 526.423 512.858 529.349 527.152 546.778C534.281 528.87 556.452 501.229 574.554 492.557C579.173 490.344 599.803 485.895 606.176 484.32C579.126 473.269 562.365 464.277 550.248 435.462C549.601 433.912 549.028 432.333 548.528 430.731C527.892 421.363 529.704 392.904 536.535 374.559C538.869 368.291 543.771 364.653 549.785 362.058C560.977 335.323 576.14 316.33 603.317 304.68C653.184 283.305 713.399 305.88 733.806 356.503C734.568 358.414 735.312 360.33 736.037 362.252C739.633 364.972 744.79 368.617 746.85 372.641C756.212 390.924 755.231 427.136 732.075 434.708C721.335 455.596 708.072 468.304 686.775 478.339C685.05 479.153 680.942 480.236 680.96 481.905C682.74 483.573 699.417 488.758 702.769 489.2C722.554 491.806 729.07 497.115 741.919 513.373C742.034 506.454 739.194 484.039 744.223 479.499C751.75 472.697 757.797 482.374 760.686 488.923C765.666 471.798 767.421 448.538 784.006 460.143C784.262 460.325 795.368 456.875 796.179 460.871C796.989 463.5 796.276 466.983 799.415 469.292C801.817 469.699 804.962 469.884 806.272 472.241C808.704 476.612 808.509 484.357 807.583 489.164C804.431 505.442 802.152 529.369 791.071 542.17C791.315 562.039 787.456 582.118 780.886 600.836C779.727 604.131 774.949 612.02 774.626 614.366C769.085 654.786 786.322 695.918 727.43 696.497C726.492 696.503 725.559 696.497 724.626 696.485C724.389 699.313 724.102 705.303 723.158 707.88C708.748 747.283 723.255 829.567 660.102 826.77C652.459 826.434 645.626 823.235 640.695 817.781C617.545 833.083 587.34 826.885 577.993 799.232C569.783 774.936 564.761 744.126 563.698 718.459C555.1 709.373 556.487 695.742 556.463 683.274C535.793 684.273 522.819 667.692 513.909 651.099C513.713 675.09 514.04 696.272 516.124 720.153L519.188 754.735C520.511 769.22 524.807 773.675 510.682 781.731C510.261 796.758 509.946 814.369 508.914 829.268C508.88 834.1 508.688 838.476 508.422 843.296C506.732 845.319 503.713 846.099 501.558 844.454C501.598 838.628 501.355 829.78 502.191 824.338C502.08 812.212 503.012 796.874 503.499 784.546C499.738 785.234 495.971 785.887 492.197 786.496C454.06 792.486 444.922 785.07 439.459 747.721C428.178 748.739 419.137 748.239 407.978 746.984C406.167 760.969 404.185 778.099 389.938 784.997C379.898 789.86 367.279 787.343 357.147 783.93C356.801 796.642 358.092 809.323 358.28 822.047C358.792 830.036 359.602 839.249 359.748 847.165C358.353 847.647 357.311 847.385 355.835 847.226C354.254 848.012 354.301 847.927 353.316 849.371C352.543 840.413 351.881 831.449 351.33 822.473L350.558 806.764L348.682 806.069C344.658 819.804 327.894 811.316 321.87 803.571C310.634 789.122 311.791 775.399 313.556 758.654C312.57 757.874 311.433 757.039 310.642 756.058C307.771 752.493 312.024 702.524 312.449 694.151C307.649 695.51 302.83 696.796 297.992 698.015C298.361 709.087 299.787 720.884 299.788 732.067C299.79 755.04 298.5 782.413 294.781 805.015C294.12 815.429 291.919 828.189 290.821 838.951C288.967 839.152 285.294 839.006 283.266 838.975C284.874 828.165 285.73 815.228 287.697 804.948C288.223 794.229 289.689 781.45 290.949 770.853C295.873 729.434 289.039 690.239 284.962 649.259C283.826 637.845 287.179 623.744 287.489 612.135C288.698 592.589 280.741 558.414 270.52 542.066C266.588 543.973 257.814 548.954 254.504 549.87L253.637 549.367C253.639 547.597 253.955 546.267 255.456 545.063C268.394 534.68 284.711 529.557 297.275 518.33C313.391 503.927 319.519 481.479 319.536 460.49C319.358 423.448 315.412 371.754 288.239 343.882C272.098 327.34 249.998 317.957 226.883 317.832C216.865 317.744 211.151 318.818 201.642 321.49C200.799 325.288 199.964 328.442 196.964 331.178L195.884 331.45C192.246 328.496 194.348 319.787 194.699 315.112C196.246 295.087 194.095 274.265 188.525 254.973C186.799 248.992 184.314 241.053 180.561 236.177C168.227 220.151 159.049 233.317 154.159 246C142.92 275.152 146.817 306.962 157.272 335.686C159.153 340.814 165.957 350.906 163.611 355.995C159.189 356.555 159.61 352.69 156.847 356.098C136.003 381.812 123.995 427.243 126.449 459.466C127.797 477.161 147.782 502.943 162.122 513.189C169.763 518.648 175.028 521.887 183.043 526.48C191.288 531.206 211.895 540.438 217.023 547.036L216.646 547.676C211.634 547.267 195.102 538.403 188.616 535.904C190.072 546.806 192.024 558.238 191.969 569.243C191.75 613.549 167.257 656.266 134.205 684.791C127.957 713.322 126.849 739.94 128.959 769.031C129.815 780.841 131.893 797.733 131.704 808.927C132.243 813.223 133.576 826.349 133.529 830.535C133.42 833.357 133.33 836.02 133.337 838.841C132.019 839.329 127.965 840.944 126.843 840.944C125.9 830.401 125.137 819.841 124.552 809.274C122.129 779.909 119.851 756.332 120.754 726.863C101.051 724.535 76.8313 722.713 74.7998 697.686C73.7057 684.212 75.1399 670.727 75.7817 657.241C76.2821 646.718 73.6563 627.09 83.2197 620.039C83.6269 619.74 84.045 619.454 84.4729 619.186C87.0152 597.47 90.7266 570.813 100.267 551.222C77.0386 522.903 60.2578 489.866 51.0908 454.408C47.8078 441.697 44.7756 432.37 49.8723 419.698C46.263 411.452 44.3519 406.198 47.0388 397.381C40.353 388.581 35.2986 378.185 30.2813 368.323C25.9552 359.821 15.7557 344.74 28.6259 339.393C22.3248 316.752 35.3635 329.098 38.4347 318.48C42.3906 304.803 52.6808 316.401 54.6395 314.325C68.938 299.164 78.2558 338.084 81.955 347.555C85.0294 340.645 89.3241 329.915 99.0704 334.18C107.302 337.783 99.9689 355.448 99.839 362.501C99.7135 369.302 98.3524 378.151 95.5449 384.195C99.5477 389.503 100.894 395.385 101.707 401.849C114.218 414.088 114.116 425.225 119.144 441.184C121.107 409.66 133.808 371.394 154.225 346.725Z" fill="#2C2C2B"/>
<path d="M287.696 804.948L287.739 805.344C288.239 809.713 286.508 815.24 287.727 817.483C289.319 818.829 289.53 818.982 291.585 819.25C292.577 818.122 293.494 807.94 293.776 805.636L294.78 805.015C294.119 815.429 291.918 828.189 290.82 838.951C288.967 839.152 285.294 839.006 283.266 838.975C284.874 828.165 285.729 815.228 287.696 804.948Z" fill="#656663"/>
<path d="M124.551 809.274L125.474 809.859C125.901 812.51 126.54 824.222 126.984 825.222C129.713 825.569 128.798 825.794 130.96 824.832C133.773 820.432 129.034 814.076 131.704 808.927C132.242 813.223 133.576 826.349 133.529 830.535C133.42 833.357 133.33 836.02 133.337 838.841C132.019 839.329 127.965 840.944 126.842 840.944C125.9 830.401 125.136 819.841 124.551 809.274Z" fill="#6A6B67"/>
<path d="M351.33 822.473C353.657 825.813 352.4 830.17 352.945 833.723C353.234 835.605 355.975 834.996 357.077 837.086L355.132 839.329L356.701 839.128C360.297 834.588 355.487 826.331 358.28 822.047C358.791 830.036 359.601 839.25 359.748 847.165C358.353 847.647 357.311 847.385 355.834 847.226C354.253 848.012 354.301 847.927 353.316 849.371C352.542 840.413 351.88 831.45 351.33 822.473Z" fill="#696967"/>
<path d="M502.191 824.338C502.342 828.019 502.322 839.061 504.597 841.431C505.939 841.626 505.521 841.553 507.016 840.493C508.364 838.342 507.588 833.174 508.914 829.268C508.88 834.1 508.687 838.476 508.422 843.296C506.731 845.319 503.712 846.099 501.558 844.454C501.597 838.628 501.355 829.78 502.191 824.338Z" fill="#60605E"/>
<path d="M348.682 806.069C348.637 804.07 348.359 802.858 349.489 801.279C351.094 802.486 350.646 804.856 350.557 806.764L348.682 806.069Z" fill="#FAFAF9"/>
<path d="M633.704 304.92C650.697 302.754 670.135 306.68 685.385 314.302C705.53 324.358 720.847 341.997 727.985 363.342C713.631 372.954 712.6 407.677 718.293 422.406C720.073 427.012 721.487 428.684 724.949 432.122C722.755 437.222 721.213 439.228 718.05 443.688C702.629 465.438 680.954 475.626 655.256 479.454C630.528 483.618 600.524 478.474 580.337 463.147C541.988 434.03 542.399 374.755 570.673 338.917C587.006 318.215 607.835 307.892 633.704 304.92Z" fill="#FAFAF9"/>
<path d="M624.031 351.297C640.238 350.886 671.653 351.263 684.8 362.411C699.234 374.657 700.794 408.698 687.732 422.572C676.188 434.837 652.55 434.504 636.575 434.949C618.85 435.199 586.335 435.213 572.673 423.43C558.21 410.957 561.246 377.451 573.944 364.389C586.525 351.447 607.321 351.782 624.031 351.297Z" fill="#2C2C2B"/>
<path d="M656.451 380.284C672.414 379.329 673.609 398.67 662.564 407.143C647.503 409.989 646.278 388.438 656.451 380.284Z" fill="#D2D1D0"/>
<path d="M595.648 379.669C610.194 378.475 610.969 400.281 599.061 407.403C585.164 407.198 583.726 387.452 595.648 379.669Z" fill="#D2D1D0"/>
<path d="M614.553 444.373C616.905 445.078 620.118 447.856 623.11 448.591C629.516 450.163 634.38 446.902 640.402 445.875C641.433 445.699 641.835 446.599 642.383 447.309C642.603 449.385 642.481 449.624 641.445 451.452C631.961 458.725 607.818 457.115 614.553 444.373Z" fill="#2C2C2B"/>
<path d="M683.41 491.659C689.847 492.67 693.754 493.667 699.709 496.009C673.847 535.155 684.349 588.398 718.391 619.283C718.903 629.003 719.713 706.808 713.094 713.194C704.183 721.792 666.307 726.381 651.27 726.795C628.827 727.417 588.199 726.308 567.877 712.859C563.954 710.111 564.275 687.613 564.062 681.373C584.603 672.787 607.138 646.126 615.729 626.291C616.247 624.512 616.375 622.099 616.558 620.204C629.102 612.781 640.548 590.865 649.21 578.463C653.708 572.024 653.403 566.661 646.9 561.639C645.778 555.922 654.037 548.823 638.537 546.405C635.654 543.348 637.653 537.197 629.815 536.968C628.913 536.942 624.146 538.441 623.963 538.123C611.511 516.252 597.595 554.501 593.553 563.934C591.84 557.998 589.367 550.389 582.05 550.333C573.109 550.263 573.796 563.616 574.251 569.3C574.928 577.764 574.775 586.076 574.668 594.392C570.654 597.854 567.025 601.32 563.189 604.976C564.531 596.927 564.066 586.481 565.34 577.612C569.093 551.486 576.734 524.924 588.302 501.139C591.447 494.672 595.828 494.251 602.148 492.509C603.286 504.131 608.667 510.892 620.361 513.818C641.432 519.091 676.309 515.942 683.41 491.659Z" fill="#FAFAF9"/>
<path d="M467.205 517.078C476.009 521.748 481.081 541.936 483.668 551.174C478.366 553.726 474.318 555.559 469.551 559.064C472.823 563.226 478.794 568.117 482.889 571.653C478.387 583.068 444.028 658.722 445.458 663.853L446.407 663.683C451.906 657.833 486.704 579.684 489.455 569.987C486.842 567.2 481.661 562.744 478.643 559.991C481.936 558.095 486.583 556.139 488.992 553.615C490.373 550.175 484.203 532.97 482.701 528.362C496.082 535.867 517.491 542.192 525.388 556.253C535.991 575.129 544.658 596.141 553.765 615.932C549.859 619.795 540.813 631.246 542.45 636.907L543.522 637.242C544.026 636.968 569.571 607.965 572.714 604.297C574.895 621.587 586.47 632.281 603.95 632.696C601.404 636.87 598.757 640.983 596.01 645.03C563.877 687.046 536.586 686.979 513.948 636.005C510.157 627.473 513.902 593.782 510.051 589.188L509.224 589.238C505.921 596.121 506.899 683.189 507.384 695.327C508.123 710.769 509.236 726.192 510.722 741.579C511.275 747.295 514.249 768.751 512.485 772.535C503.561 780.89 464.085 785.015 454.725 775.149C447.979 768.044 445.806 751.207 444.598 741.707C441.296 715.748 440.669 689.093 441.825 662.982C443.841 636.535 451.975 604.768 456.788 578.409C459.752 562.175 467.742 533.627 467.233 517.871L467.205 517.078Z" fill="#FAFAF9"/>
<path d="M391.417 519.615L392.221 520.172C392.421 567.173 402.482 609.546 406.924 655.669C409.334 680.69 405.978 720.732 402.232 745.979C400.512 754.479 399.279 765.704 394.536 772.98C385.972 786.106 358.521 779.476 347.966 772.164C349.677 747.996 352.773 723.956 353.934 699.715C355.409 668.911 354.32 638.211 353.273 607.418C353.113 602.698 353.593 588.034 351.656 584.607L350.918 584.413C346.787 591.883 348.144 642.842 348.073 654.908C348.018 666.242 347.763 677.57 347.31 688.899C346.399 709.191 344.969 729.459 343.021 749.678C342.829 751.274 342.622 752.865 342.398 754.455L341.413 755.162C335.186 755.857 327.68 754.674 321.319 753.718C313.439 752.536 317.446 742.048 317.255 736.814C317.163 734.26 317.594 731.019 317.708 728.49C320.162 674.414 325.749 619.527 339.751 567.118C345.166 546.849 359.941 540.309 376.847 531.597C374.745 535.249 368.173 548.724 368.991 553.37C369.307 555.168 375.386 558.419 377.503 559.654C374.359 563.016 370.357 566.414 366.89 569.513C368.786 579.565 397.529 656.986 402.82 662.695L403.611 662.604C404.67 656.26 392.285 626.962 389.582 618.894C384.32 603.191 378.188 587.882 373.922 571.63C376.606 569.028 384.632 562.604 385.457 559.885C384.906 556.495 378.143 552.968 374.931 550.545C379.278 537.95 381.792 529.354 391.417 519.615Z" fill="#FAFAF9"/>
<path d="M390.896 355.616C391.93 355.902 395.222 357.765 396.781 358.4C403.612 361.179 410.176 363.343 417.662 363.849C423.8 364.262 429.386 363.573 435.603 362.911C444.636 361.95 456.323 357.562 465.087 359.669C467.146 360.164 468.457 362.064 468.837 364.022C470.266 371.381 467.806 381.157 469.503 388.624C471.244 396.288 475.162 402.415 476.373 410.741C477.051 415.397 475.775 421.998 477.446 425.247C482.883 429.129 487.524 417.271 492 417.734C506.062 419.19 500.531 443.356 493.155 449.346C486.464 454.778 484.199 454.199 477.345 454.144C475.18 461.718 473.389 467.931 470.058 475.066C465.617 482.463 461.921 488.123 455.148 493.892C445.407 502.352 432.668 506.529 419.808 505.481C393.53 503.101 378.585 476.284 377.165 452.185C375.814 429.257 374.796 405.943 376.604 383.021C377.633 369.991 381.006 363.768 390.896 355.616Z" fill="#FAFAF9"/>
<path d="M441.003 460.926C442.166 460.67 442.965 460.779 444.164 460.8C444.828 461.336 445.402 461.57 445.459 462.349C446.308 473.886 430.781 482.806 420.533 481.225C415.716 480.482 413.685 479.47 410.425 477.52C404.02 471.844 403.121 469.391 401.007 461.204C406.878 461.201 413.64 462.031 419.733 462.161C427.443 462.327 433.322 461.761 441.003 460.926Z" fill="#2C2C2B"/>
<path d="M408.069 466.617C415.309 467.466 421.655 467.636 428.944 467.528C430.861 467.5 437.785 466.946 438.688 467.121C438.158 468.623 436.415 469.894 435.162 471.013C425.277 476.512 414.506 477.522 408.069 466.617Z" fill="#FAFAF9"/>
<path d="M415.553 418.962C418.26 419.706 419.541 420.644 419.349 423.716C418.956 429.988 415.695 437.197 413.555 443.117C417 445.738 420.096 445.592 422.999 448.301C423.526 450.228 423.449 449.493 422.549 451.698C399.965 451.455 411.938 431.957 415.553 418.962Z" fill="#202020"/>
<path d="M445.608 408.831C455.97 408.698 456.399 422.015 448.939 427.704C438.221 428.597 438.708 414.753 445.608 408.831Z" fill="#202020"/>
<path d="M396.788 408.146C406.768 409.401 406.943 421.883 399.078 427.616C388.799 426.424 389.036 413.307 396.788 408.146Z" fill="#202020"/>
<path d="M444.647 387.119C448.901 386.858 453.139 386.931 456.753 389.405C459.188 391.071 462.897 394.199 460.807 397.197C458.636 397.275 458.977 396.985 456.943 395.436C450.097 391.393 440.23 394.222 437.99 391.005L438.759 389.494C440.619 387.848 442.258 387.679 444.647 387.119Z" fill="#2C2C2B"/>
<path d="M392.649 387.059C396.666 386.495 404.583 386.792 407.072 390.572L406.873 391.18C403.279 393.759 398.663 392.525 394.219 392.19C390.114 393.246 386.889 396.79 383.049 395.523C383.651 391.754 389.486 388.484 392.649 387.059Z" fill="#2C2C2B"/>
<path d="M91.9107 391.421C92.6567 392.421 94.798 398.357 95.0503 399.704C96.9276 410.204 83.893 414.92 76.1551 417.419C70.4585 419.259 65.3415 419.67 59.4894 420.202C58.3448 420.305 58.557 420.429 57.9245 421.368C61.1986 427.233 84.2904 420.757 89.3616 417.746C92.0539 416.147 95.7293 409.685 99.0951 408.844C101.189 410.335 103.374 413.322 104.122 415.703C113.829 446.619 119.37 477.708 141.545 502.95C145.377 507.311 158.713 520.087 160.034 524.834C168.506 555.269 166.071 597.673 150.595 625.566C146.867 632.092 142.983 637.815 138.804 644.036C140.813 626.2 139.734 608.067 137.523 590.417C137.369 589.186 138.108 588.82 138.895 588.23L142.885 589.008C143.613 585.729 138.255 579.91 135.905 577.803C99.0579 544.767 71.2594 502.271 58.5741 454.22C55.2246 441.531 52.5278 432.325 56.6748 419.393C54.7252 413.284 53.5182 409.47 52.4121 403.179C67.7418 405.484 79.7001 400 91.9107 391.421Z" fill="#FAFAF9"/>
<path d="M570.944 723.474C612.065 739.099 670.263 738.264 711.412 723.554C708.705 747.234 706.011 765.119 700.276 788.324C699.672 790.676 698.813 794.619 697.911 796.825C693.906 805.996 681.984 806.63 673.463 807.562C660.132 809.025 650.746 807.367 638.311 802.687C634.051 803.802 629.735 804.674 625.377 805.289C613.997 806.861 597.928 806.776 588.357 799.908C581.495 794.985 580.661 781.475 578.942 773.528C575.36 756.972 573.24 740.232 570.944 723.474Z" fill="#FAFAF9"/>
<path d="M725.9 511.149C736.847 513.575 741.809 525.455 745.21 535.067C742.436 542.219 727.911 579.007 735.165 584.099C736.975 583.105 738.493 573.326 739.34 570.733C741.87 563.047 744.027 555.158 746.922 547.59C756.004 558.506 770.749 561.699 783.866 556.727C782.799 564.1 781.501 571.435 779.959 578.723C776.881 590.006 771.992 610.198 762.904 616.986C743.808 630.076 730.228 613.982 722.846 597.375C713.892 577.247 707.133 526.662 725.9 511.149Z" fill="#FAFAF9"/>
<path d="M430.501 322.009C438.852 320.895 452.642 323.524 460.825 326.414C465.344 327.418 479.224 335.841 480.711 340.494C483.915 350.517 494.634 355.639 498.286 363.933C504.948 379.059 499.224 396.372 493.631 411.011C487.709 411.396 486.295 412.253 482.911 416.929C481.203 404.806 477.404 397.291 474.027 385.826C472.806 381.681 473.32 374.13 473.523 369.633C473.716 364.858 474.248 361.655 470.699 357.719C463.363 349.585 446.039 355.347 435.698 356.736C429.649 357.579 423.528 357.77 417.439 357.306C408.462 356.57 398.496 353.877 390.889 348.524C389.977 347.882 385.315 342.237 384.33 341.076L383.621 341.315C380.943 345.073 383.9 346.699 383.997 350.974C382.459 351.021 380.624 351.712 379.486 350.73C374.593 346.508 369.083 335.109 373.29 329.235C376.994 327.915 386.755 329.157 391.207 328.399C404.643 326.111 416.805 322.969 430.501 322.009Z" fill="#60605E"/>
<path d="M422.359 563.938L430.243 564.583C435.28 590.398 437.975 616.048 438.854 642.336C438.695 646.419 438.195 650.758 437.606 654.792C434.663 674.98 435.816 694.627 436.521 714.955C434.007 719.757 428.117 727.46 424.777 732.06L424.076 732.786C422.092 732.048 413.096 720.044 411.213 717.655C411.822 702.451 413.106 688.892 413.029 673.384C412.993 666.01 410.975 646.815 411.408 641.916C412.973 624.207 416.963 578.951 422.359 563.938Z" fill="#7E7E7C"/>
<path d="M258.513 315.829C262.974 288.881 273.159 257.888 294.553 239.431C298.145 236.333 303.456 236.024 305.976 240.507C313.311 253.554 312.062 274.976 309.101 289.112C306.071 303.254 300.856 316.837 293.642 329.374C291.429 333.186 290.689 336.881 286.238 333.214C283.048 331.109 278.724 327.595 275.296 325.2C275.523 317.462 278.383 308.375 280.591 300.874L280.229 300.549C279.709 298.804 281.353 294.896 282.021 293.049L281.422 292.568C279.829 293.966 278.852 299.326 277.304 302.241L276.458 302.139C273.669 307.524 272.16 315.84 270.924 321.841C266.852 319.705 262.713 317.7 258.513 315.829Z" fill="#FAFAF9"/>
<path d="M296.036 264.798C299.402 268.287 301.47 271.085 301.871 276.025C303.258 293.109 295.874 310.03 288.445 325.033C286.917 328.119 286.388 329.704 286.238 333.214C283.048 331.109 278.724 327.595 275.296 325.2C275.523 317.462 278.383 308.375 280.591 300.874C282.194 297.784 286.902 283.744 286.388 280.312C287.979 274.854 292.436 269.161 296.036 264.798Z" fill="#D2D1D0"/>
<path d="M286.388 280.312C286.902 283.744 282.194 297.784 280.591 300.874L280.229 300.549C279.709 298.804 281.353 294.896 282.021 293.049L281.422 292.568C279.829 293.966 278.852 299.326 277.304 302.241L276.458 302.139C278.396 295.388 282.158 285.921 286.388 280.312Z" fill="#202020"/>
<path d="M60.2994 316.126C67.8996 320.534 75.4656 347.382 79.1722 357.079C72.2742 361.627 67.5979 367.602 68.2519 376.387C68.3921 378.274 68.6786 379.257 70.0854 380.449C72.0145 376.897 71.2398 375.398 71.789 371.869C72.6862 366.097 79.7945 361.993 84.3037 359.326C85.975 353.754 89.1726 338.675 96.3942 340.452C98.9683 343.701 94.6839 351.937 94.4523 355.923C92.9706 381.416 88.4357 397.737 57.5238 396.617C47.3043 391.306 41.2838 375.931 36.1538 365.521C34.3633 362.283 26.1167 349.19 30.4212 346.309C36.161 347.944 39.9458 359.843 43.9046 362.379C45.7603 362.622 45.2374 362.843 46.4154 361.979C47.3952 355.135 27.3887 333.719 35.2402 328.233C40.4058 328.523 51.7911 351.09 52.3956 355.61L52.4417 355.98L53.2103 356.26L55.0928 355.359C59.1356 347.704 39.1725 327.063 44.6524 318.657L45.9468 318.408C52.7688 321.462 58.8412 338.826 62.1165 345.775C62.9936 347.636 62.7266 349.039 64.0834 350.402C65.7187 349.867 65.1409 350.199 66.2838 348.63C67.9167 339.585 54.1238 324.989 60.2994 316.126Z" fill="#FAFAF9"/>
<path d="M614.979 537.106C625.56 540.588 604.046 562.662 609.938 567.223C615.613 565.085 622.177 541.372 630.168 543.088C636.239 550.375 618.258 564.014 619.41 572.1L620.111 572.613C626.627 570.263 635.057 548.82 641.987 553.249C644.608 560.018 625.262 576.329 628.907 581.845C634.697 580.744 640.018 566.265 645.76 567.945L646.357 569.038C646.327 574.538 637.568 585.363 633.99 590.245C628.388 599.04 621.604 611.788 611.73 615.755C597.016 621.666 580.914 606.254 580.457 591.77C580.137 581.69 580.846 571.973 579.652 561.884C579.497 560.577 579.938 558.838 580.455 557.658C582.001 556.332 581.139 556.615 583.094 556.682C587.566 559.592 589.444 571.788 590.616 576.957C591.451 577.447 592.269 577.967 593.067 578.516C601.762 584.591 598.365 594.706 601.906 597.023C603.371 594.868 603.723 589.578 603.26 586.966C602.217 581.093 598.948 578.104 594.469 574.741C599.99 561.896 605.591 547.444 614.979 537.106Z" fill="#FAFAF9"/>
<path d="M758.918 505.035C766.537 500.07 769.676 460.468 777.887 463.241C781.056 467.352 776.515 481.818 775.82 487.02C775.241 491.314 774.315 494.413 769.945 495.542L769.561 496.379C771.511 497.568 790.851 504.792 792.369 504.428C792.082 502.43 791.235 502.051 789.736 500.32C790.998 494.586 794.521 478.582 799.007 475.356C800.988 475.306 800.207 475.018 801.804 476.516C803.353 480.615 802.012 486.278 801.365 490.721C798.318 509.696 793.265 551.677 765.727 543.31C746.252 537.393 746.478 516.933 747.24 500.201C747.429 496.035 746.472 488.847 747.545 485.176C748.3 484.434 748.41 483.997 749.202 484.084C758.059 485.062 755.206 501.376 758.918 505.035Z" fill="#FAFAF9"/>
<path d="M758.918 505.035C766.616 506.82 772.498 517.433 768.39 524.424C766.61 521.737 766.641 517.273 765.202 514.493C764.081 512.323 759.089 508.497 758.601 506.209L758.918 505.035Z" fill="#1C1B19"/>
<path d="M297.166 554.272C297.467 554.574 297.751 554.891 298.018 555.223C307.203 566.496 317.39 613.232 319.253 629.356C319.469 631.233 317.231 647.948 316.849 651.02C315.361 662.519 314.121 674.048 313.13 685.602C311.227 686.485 309.339 687.107 307.362 687.801L296.905 690.056C296.112 676.089 291.488 658.064 292.172 643.762C292.406 638.869 297.628 629.387 299.198 623.208C305.739 597.468 302.581 579.387 297.166 554.272Z" fill="#FAFAF9"/>
<path d="M709.778 600.62L709.443 600.203C691.901 577.996 687.177 545.706 695.186 518.689C697.844 509.74 701.074 502.661 708.547 496.797C715.807 498.684 718.836 500.555 725.138 504.292C721.061 506.514 717.69 509.817 715.788 514.032C703.866 540.385 707.779 568.892 715.471 594.832C713.765 597.013 711.802 598.732 709.778 600.62Z" fill="#7D7C7B"/>
<path d="M83.645 655.602C94.6962 658.241 98.3735 658.545 109.829 658.935C108.693 675.559 105.883 700.355 114.23 714.346C113.563 716.546 113.804 717.204 111.607 718.276C99.8565 716.253 85.8179 714.894 83.2104 700.885C80.4498 686.059 82.4893 670.532 83.645 655.602Z" fill="#7E7E7C"/>
<path d="M166.029 524.232C169.848 525.805 177.933 530.699 181.755 532.96C189.946 564.764 186.348 600.663 170.048 629.393L168.834 630.715C165.547 631.215 159.719 627.224 156.723 625.45C173.556 597.241 172.762 555.249 166.029 524.232Z" fill="#7E7E7C"/>
<path d="M126.375 578.678C135.089 585.614 134.876 639.88 132.638 651.702C128.086 658.332 121.135 662.982 117.384 670.459C113.077 679.045 117.56 687.277 125.768 691.177C124.915 695.754 124.245 701.104 123.556 705.766C123.072 708.758 122.174 711.61 121.332 714.523C119.576 712.719 118.102 710.653 116.959 708.411C115.445 705.339 114.452 702.037 114.022 698.642C113.09 691.702 113.755 677.016 114.157 669.679C115.433 646.388 116.541 622.787 121.433 599.944C123.124 592.049 123.701 586.508 126.375 578.678Z" fill="#60605E"/>
<path d="M765.977 623.366L766.525 624.274C765.861 662.019 772.584 688.868 724.511 689.276C724.572 688.904 724.633 688.533 724.694 688.161C728.704 686.918 732.867 685.242 735.958 682.323C740.633 677.905 741.218 671.409 741.584 665.383C742.339 652.829 742.473 640.282 742.675 627.711C753.079 629.07 757.584 629.247 765.977 623.366Z" fill="#7E7E7C"/>
<path d="M105.334 557.248C106.776 558.194 120.228 572.493 121.896 574.435C119.321 584.406 117.803 594.324 116.017 604.43C115.401 607.915 113.77 622.952 112.15 624.646L110.149 624.427C103.946 623.519 97.3351 622.282 91.1167 621.239C92.2894 605.995 98.0031 570.314 105.334 557.248Z" fill="#7E7E7C"/>
<path d="M729.862 369.867C750.147 368.621 749.385 414.256 735.232 426.076C718.702 432.283 720.171 401.781 721.176 392.302C722.018 384.388 723.395 375.111 729.862 369.867Z" fill="#D2D1D0"/>
<path d="M555.093 517.291C555.085 518.242 552.842 527.518 552.5 529.012C550.296 538.648 549.356 546.466 549.429 556.231C549.528 569.64 554.01 575.93 556.888 588.029C557.312 589.813 556.376 602.293 556.24 605.513L551.03 594.194C544.925 580.021 538.739 567.108 532.016 553.225C536.245 542.445 546.903 525.345 555.093 517.291Z" fill="#FAFAF9"/>
<path d="M319.627 760.859C327.638 761.926 333.854 762.352 341.934 762.694C341.673 771.322 340.208 775.753 348.165 781.158C347.817 786.203 348.532 797.251 342.193 797.501C335.599 793.656 336.872 777.441 332.493 775.04C330.793 776.271 331.102 776.575 330.301 778.812C330.782 784.954 330.952 790.664 333.537 796.356C335.265 800.164 341.994 803.619 342.313 806.228C336.927 810.487 325.619 799.329 323.31 794.119C317.993 782.115 318.738 773.339 319.627 760.859Z" fill="#FAFAF9"/>
<path d="M154.089 630.015C158.643 633.104 161.718 634.737 166.761 636.797C154.737 655.285 147.504 666.394 130.126 680.136C127.428 682.22 126.483 683.566 123.046 682.652C120.583 679.935 121.234 676.65 121.332 672.908C124.747 667.668 131.8 661.105 136.179 656.242C143.285 648.351 149.295 639.478 154.089 630.015Z" fill="#60605E"/>
<path d="M583.832 496.115C583.737 499.895 576.427 512.702 574.824 517.397C570.833 529.084 567.351 540.613 564.182 552.515C563.476 555.166 559.657 574.535 559.426 574.945L558.647 573.862C552.387 553.489 555.994 529.432 564.874 510.234C569.417 500.41 574.233 499.408 583.832 496.115Z" fill="#7E7E7C"/>
<path d="M675.828 487.448C678.376 489.549 678.302 494.271 676.053 496.6C661.413 511.767 626.694 514.594 610.152 501.624C607.005 497.051 607.898 494.398 609.501 489.59C626.968 503.545 658.755 500.693 675.828 487.448Z" fill="#7E7E7C"/>
<path d="M725.254 620.271C730.563 620.13 733.452 622.769 738.127 625.615C738.042 637.717 739.218 668.631 733.452 677.991C730.027 680.428 728.668 680.891 724.687 682.323C724.675 663.03 724.553 639.228 725.254 620.271Z" fill="#60605E"/>
<path d="M85.8769 626.163C94.6882 627.644 103.523 628.979 112.377 630.179C111.591 637.882 110.895 646.449 109.614 654.012C103.946 653.878 85.6282 652.921 82.5483 648.485C81.8034 642.744 83.2425 631.696 85.8769 626.163Z" fill="#7E7E7C"/>
<path d="M440.968 551.845C449.226 561.109 449.824 560.852 456.87 551.356C455.41 557.257 454.478 563.783 453.092 569.764C450.144 582.491 447.495 595.022 445.104 607.866L442.341 621.855C441.579 604.736 438.046 581.409 434.96 564.412C436.913 560.028 438.965 556.683 440.968 551.845Z" fill="#FAFAF9"/>
<path d="M454.229 502.783C455.73 504.817 454.782 508.803 454.467 511.505C448.211 519.536 435.624 525.932 426.139 529.473C419.906 527 417.424 525.419 412.255 521.127C409.777 518.775 405.423 513.771 406.079 510.15C407.898 509.176 414.201 512.13 417.017 512.489C431.358 514.316 442.769 510.022 454.229 502.783Z" fill="#EBEAEA"/>
<path d="M412.201 551.89C413.828 554.553 415.384 559.479 417.593 563.247C413.077 578.973 409.837 603.543 408.316 620.137C407.588 616.73 407.252 614.207 406.847 610.74C404.251 591.742 401.11 571.47 399.209 552.481C401.503 555.591 401.898 557.628 405.976 557.678C408.366 556.698 410.43 553.913 412.201 551.89Z" fill="#FAFAF9"/>
<path d="M459.395 511.756C460.827 513.27 462.026 518.348 461.947 520.461C461.408 534.842 458.034 543.01 448.732 553.187C447.048 551.339 445.263 549.162 443.615 547.245C440.413 542.323 436.898 537.521 433.476 532.741C443.747 528.494 453.358 521.149 459.395 511.756Z" fill="#FAFAF9"/>
<path d="M293.161 597.45C291.387 582.217 288.711 571.66 283.902 557.068C282.415 552.558 277.078 542.931 276.858 539.43C278.668 537.446 281.791 536.556 283.499 539.149C297.672 560.663 300.487 603.467 292.322 627.358C292.983 619.728 294.83 607.626 293.297 600.534L293.161 597.45Z" fill="#60605E"/>
<path d="M397.511 520.34C398.566 517.423 398.991 516.221 400.524 513.539C401.633 515.637 402.874 518.139 404.121 520.104C409.649 526.649 413.09 529.087 420.295 533.132C415.516 537.972 409.102 546.698 405.1 552.433C397.704 539.734 396.602 535.066 397.511 520.34Z" fill="#FAFAF9"/>
<path d="M397.511 520.34C398.566 517.423 398.991 516.221 400.524 513.539C401.633 515.637 402.874 518.139 404.122 520.104C402.414 520.009 399.322 520.253 397.511 520.34Z" fill="#FAFAF9"/>
<path d="M424.827 536.192C430.814 536.006 434.37 543.137 437.515 547.678C436.312 550.951 434.489 557.717 431.052 558.724L420.273 559.064C418.301 554.4 417.769 551.767 416.7 546.912C418.27 541.218 419.855 539.241 424.827 536.192Z" fill="#7E7E7C"/>
<path d="M668.38 484.055C669.416 483.956 669.007 483.95 670.05 484.346C669.324 486.382 666.557 487.738 664.704 488.691C650.85 495.819 632.387 495.193 618.228 490.198C615.302 488.316 614.266 487.078 611.858 484.531C632.314 488.975 648.247 487.126 668.38 484.055Z" fill="#7E7E7C"/>
<path d="M374.081 353.341C385.499 359.27 377.425 358.355 375.045 366.559C372.192 376.396 370.97 386.809 369.78 396.957C369.494 396.88 369.208 396.805 368.922 396.729C365.951 388.25 363.213 381.572 364.42 372.3C365.354 365.116 368.245 357.88 374.081 353.341Z" fill="#4E4E4C"/>
<path d="M788.419 463.967L790.492 464.712C791.857 466.053 791.692 466.09 792.265 467.859C793.728 472.363 787.535 496.007 785.676 498.499L783.701 498.09L777.588 496.117C779.733 487.233 782.598 470.249 788.419 463.967Z" fill="#FAFAF9"/>
<path d="M409.866 731.64C415.131 731.689 415.346 731.579 418.986 735.51C424.787 741.774 426.643 738.569 430.286 732.487C432.735 732.304 434.654 731.987 437.027 732.585C438.532 734.102 438.077 733.462 438.25 736.156C438.563 738.471 439.046 740.415 438.45 742.627C434.311 744.004 414.043 742.158 408.936 741.603C409.309 738.343 409.567 734.918 409.866 731.64Z" fill="#7E7E7C"/>
<path d="M547.044 371.53C547.842 374.102 542.317 402.259 545.04 408.285C545.426 409.138 546.401 420.123 546.09 420.725L544.295 419.331C535.654 406.474 536.859 383.463 547.044 371.53Z" fill="#D2D1D0"/>
<path d="M592.304 809.89C602.88 812.973 614.059 813.851 625.091 812.492C628.663 812.047 633.222 810.103 636.642 810.249L636.965 810.889L635.167 812.876C630.729 816.666 624.61 818.616 618.88 819.128C607.389 820.164 600.893 816.873 592.304 809.89Z" fill="#7E7E7C"/>
<path d="M645.827 813.089C655.976 814.655 666.271 815.106 676.523 814.43C678.492 814.283 685.147 812.955 686.001 813.449L685.489 813.96L685.794 813.156C684.904 814.399 684.843 814.35 683.587 815.106C682.746 815.581 681.899 816.045 681.039 816.495C672.744 820.834 650.795 823.205 645.827 813.089Z" fill="#7E7E7C"/>
<path d="M366.697 416.304C367.595 416.58 368.671 416.675 368.904 417.576C369.738 420.801 369.83 444.536 369.287 446.559L368.195 446.167C362.635 437.86 360.309 424.755 366.697 416.304Z" fill="#FAFAF9"/>
<path d="M749.543 540.193C751.36 540.611 754.017 543.059 755.779 544.138C769.383 552.458 771.114 550.015 783.658 548.294L784.25 549.006L783.598 550.661C772.443 557.434 754.17 553.445 749.543 540.193Z" fill="#7E7E7C"/>
<path d="M578.491 604.346C580.063 605.32 585.238 617.79 594.464 621.02C598.204 622.33 607.492 623.409 608.825 623.903L608.78 625.231C597.651 630.38 584.036 620.642 580.066 610.405C579.37 608.608 578.892 606.248 578.491 604.346Z" fill="#D2D1D0"/>
<path d="M715.471 594.832C717.245 600.265 723.547 610.204 722.962 613.141C719.604 612.568 712.326 603.63 709.778 600.62C711.802 598.732 713.765 597.013 715.471 594.832Z" fill="#60605E"/>
<path d="M114.23 714.346C117.04 717.009 118.645 717.594 122.185 719.27C119.701 719.05 113.795 718.703 111.607 718.276C113.804 717.204 113.563 716.546 114.23 714.346Z" fill="#60605E"/>
<path d="M293.297 600.534C293.239 602.567 293.335 608.027 292.426 609.552C291.77 604.871 291.883 601.944 293.161 597.449L293.297 600.534Z" fill="#202020"/>
<path d="M244.655 341.503C255.768 339.995 269.98 346.257 279.426 352.979C294.004 363.352 304.429 383.017 306.294 400.757C306.899 406.52 303.81 415.21 304.188 420.06C304.744 427.171 307.094 435.357 307.97 442.777C311.367 471.545 312.348 496.058 284.719 513.486C278.952 517.124 272.517 519.603 266.987 522.861C256.782 528.871 247.172 538.42 240.093 547.805C244.585 561.824 247.406 576.324 248.5 591.005C250.101 614.78 246.711 640.161 246.095 663.926C245.936 683.304 245.764 702.701 245.654 722.079C245.638 725.022 244.847 730.354 241.932 731.646L240.845 730.665C239.602 728.032 240.152 724.468 240.342 721.469C241.46 704.114 240.177 685.462 240.901 668.076C242.014 641.367 245.65 613.409 243.436 586.766C242.877 580.041 239.609 556.227 236.318 551.085C223.103 532.504 199.436 523.362 181.975 508.86C138.524 472.774 155.738 408.694 187.097 370.903C202.207 352.695 220.889 343.421 244.655 341.503Z" fill="#2C2C2B"/>
<path d="M268.381 372.649C290.981 391.029 291.229 415.386 289.748 441.797C289.194 451.674 288.705 460.302 285.807 469.855C268.827 525.83 208.927 521.888 183.46 474.421C181.941 471.751 179.373 465.05 177.579 461.499C163.819 462.903 161.967 460.974 162.904 447.027C163.381 439.93 163.826 434.725 166.041 427.854C169.156 429.417 172.89 432.272 176.325 434.227C185.91 427.57 189.124 418.491 192.7 407.911C195.865 407.503 203.818 404.871 205.228 405.236C204.297 406.854 203.462 407.889 203.426 409.719C205.717 411.539 211.334 406.772 214.601 405.866C219.685 404.455 224.3 409.476 228.252 405.785L228.213 404.555C225.509 401.72 221.226 400.621 217.549 399.515C225.496 396.675 228.608 394.34 235.439 389.632C233.498 392.853 231.264 395.508 234.5 398.503C237.259 399.344 240.179 398.687 242.825 397.681C257.198 392.216 262.08 385.339 268.381 372.649Z" fill="#FAFAF9"/>
<path d="M220.96 468.147C238.197 471.62 243.434 471.129 260.545 471.941C263.819 476.562 257.533 482.696 254.468 485.938C237.572 500.418 213.029 478.285 220.96 468.147Z" fill="#2C2C2B"/>
<path d="M225.288 473.532C236.132 476.89 244.575 476.536 255.695 476.54C254.375 478.271 252.797 480.128 251.409 481.826C250.029 482.918 248.855 483.846 247.203 484.533C243.419 486.089 239.176 486.102 235.383 484.569C230.081 482.448 227.457 478.542 225.288 473.532Z" fill="#FAFAF9"/>
<path d="M215.917 420.206C227.073 421.724 226.701 437.246 218.113 443.209C206.551 442.504 208.751 426.928 215.917 420.206Z" fill="#2C2C2B"/>
<path d="M267.951 421.471C278.661 421.16 279.02 436.51 271.398 442.672C260.028 444.147 261.401 428.192 267.951 421.471Z" fill="#202020"/>
<path d="M251.711 440.459C254.102 441.281 257.726 445.632 258.517 448.009C261.144 455.901 257.587 459.282 251.338 461.851C249.112 461.303 248.425 461.379 247.041 459.708L247.223 458.424C249.206 456.425 252.275 455.516 254.956 454.484C253.492 450.345 249.995 444.415 251.711 440.459Z" fill="#202020"/>
<path d="M270.274 401.053C275.769 400.725 280.734 401.943 283.289 407.558C283.806 408.694 283.398 409.019 282.873 409.941C280.937 409.869 280.431 409.02 278.629 407.711C272.925 405.03 268.655 408.803 263.461 406.2L263.337 405.13C265.053 402.73 267.596 401.84 270.274 401.053Z" fill="#2C2C2B"/>
<path d="M246.243 347.6C247.053 347.601 247.862 347.628 248.67 347.683C253.349 348.002 261.39 348.313 264.501 351.859C266.015 356.192 265.285 365.975 263.604 370.295C259.146 381.751 250.703 387.879 240.204 392.859C242.173 384.719 245.638 378.129 247.347 369.459C238.852 381.312 224.849 390.15 211.804 396.22C195.073 401.85 191.163 403.562 173.368 403.724C177.168 393.589 185.753 380.721 193.184 372.881C208.869 356.336 223.469 348.776 246.243 347.6Z" fill="#60605E"/>
<path d="M298.912 426.997C299.195 427.497 299.56 428.084 299.677 428.664C306.651 463.055 312.547 503.864 267.535 513.928C265.797 513.927 261.773 514.162 260.772 512.759C262.807 511.089 264.837 510.458 266.816 508.979C284.384 495.861 293.355 475.847 294.872 454.325C295.515 445.214 293.499 434.575 298.912 426.997Z" fill="#4E4E4C"/>
<path d="M191.441 495.836C205.116 511.002 220.441 517.287 240.447 518.708C240.231 525.586 240.875 527.895 241.795 534.717C242.031 536.463 240.251 537.688 238.948 538.974L236.739 541.347C233.001 538.566 229.107 535.304 225.641 532.168C214.783 522.343 202.271 516.203 190.678 507.087C191.104 503.377 191.246 499.571 191.441 495.836Z" fill="#FAFAF9"/>
<path d="M270.414 354.783C292.37 366.044 306.401 394.707 297.367 418.437C297.312 418.67 297.031 419.048 296.884 419.279C295.811 417.294 295.054 409.65 294.73 407.011C292.417 388.187 283.348 378.789 270.599 366.282L270.414 354.783Z" fill="#4E4E4C"/>
<path d="M164.252 466.828C167.559 468.422 171.19 468.372 174.85 468.613C178.375 476.603 182.353 484.454 185.792 492.443C187.082 495.439 186.047 499.443 185.397 502.606L184.612 503.14C174.561 498.848 165.501 477.326 164.252 466.828Z" fill="#4E4E4C"/>
<path d="M171.003 408.474C174.088 408.942 183.113 409.165 186.698 409.367C184.669 415.319 182.701 418.341 179.345 423.502C177.832 425.532 178.426 425.328 176.39 426.212C173.803 426.002 169.371 423.441 166.576 422.219L171.003 408.474Z" fill="#4E4E4C"/>
<path d="M180.176 337.051C179.07 339.334 176.889 342.137 174.164 341.251C172.361 339.462 171.354 337.785 170.456 335.342C161.371 310.649 156.063 287.613 166.626 262.377C167.492 260.308 168.068 259.989 169.826 259.331C175.779 260.532 181.122 270.795 180.851 276.041C184.374 288.79 187.846 325.744 180.176 337.051Z" fill="#D2D1D0"/>
<path d="M180.851 276.041C184.374 288.79 187.846 325.744 180.176 337.051C177.956 333.71 180.374 326.957 180.618 322.624C181.064 313.905 181.09 305.17 180.696 296.448C180.526 292.237 179.397 278.632 180.851 276.041Z" fill="#1D1C1D"/>
<path d="M424.075 798.367C420.107 796.782 413.225 793.936 410.734 790.53L410.954 789.713C414.774 788.056 427.686 792.376 429.48 794.863C433.35 800.237 434.269 820.81 434.898 827.08C432.771 827.982 430.855 828.701 428.889 829.926L429.229 834.216L428.013 835.203L427.685 833.93C425.446 836.605 427.343 836.922 425.375 839.725L424.169 840.06C421.147 837.671 423.757 837.434 421.46 834.722C422.607 822.48 421.86 810.993 424.075 798.367Z" fill="#2B2B2A"/>
<path d="M427.685 833.93C427.767 832.223 427.844 831.175 428.126 829.493L428.889 829.926L429.229 834.216L428.013 835.203L427.685 833.93Z" fill="#D2D1D0"/>
<path d="M216.072 809.707C216.633 803.973 218.74 771.268 220.68 768.983C224.497 766.697 242.818 759.33 246.691 760.305C246.661 764.747 230.898 771.645 226.49 773.218C225.875 782.108 224.686 806.252 222.942 814.192C223.13 814.162 219.371 816.946 218.03 817.617L216.971 817.221C215.916 815.137 216.848 812.687 216.072 809.707Z" fill="#2D2D2C"/>
<path d="M283.266 838.975C285.294 839.006 288.967 839.152 290.82 838.951L289.72 847.281C288.082 857.464 286.312 868.512 285.419 878.755C285.328 879.797 285.449 879.633 285.086 880.821C283.343 876.781 285.463 871.577 285.745 866.921C284.299 866.94 282.55 866.958 280.498 866.988C278.837 869.316 279.833 878.286 278.572 879.541C278.351 879.206 278.13 878.871 277.908 878.536C279.105 868.755 281.1 855.398 282.479 846.111L283.266 838.975Z" fill="#B4B4B3"/>
<path d="M283.266 838.975C285.294 839.006 288.967 839.152 290.82 838.951L289.72 847.281C287.624 848.482 287.25 848.774 284.867 848.932C282.806 848.025 283.491 848.683 282.479 846.111L283.266 838.975Z" fill="#888987"/>
<path d="M133.529 830.536C134.386 835.471 137.475 874.35 136.831 876.854C136.356 875.19 136.019 869.066 135.85 866.933C133.836 866.537 134.333 866.318 132.843 867.061C133.231 868.804 133.623 869.091 134.767 870.547L134.08 871.705L134.736 871.327C131.036 871.077 133.059 868.902 130.822 870.62L130.332 873.411C129.34 862.546 127.76 851.565 126.842 840.944C127.965 840.944 132.018 839.329 133.337 838.841C133.329 836.02 133.42 833.357 133.529 830.536Z" fill="#B2B2B0"/>
<path d="M501.558 844.454C503.713 846.099 506.732 845.319 508.422 843.296C508.109 851.059 507.098 862.247 507.126 869.627C507.042 871.68 506.824 878.438 505.712 879.87C504.673 879.292 503.874 876.269 502.817 874.417L501.798 874.173C500.605 875.763 501.401 878.225 500.753 880.888C500.476 874.752 499.845 863.113 500.95 857.232L501.558 844.454Z" fill="#7C7C79"/>
<path d="M500.95 857.232L501.235 868.158C502.715 868.56 505.744 869.481 507.126 869.627C507.042 871.68 506.824 878.438 505.712 879.87C504.673 879.292 503.874 876.269 502.817 874.417L501.798 874.173C500.605 875.763 501.401 878.225 500.753 880.888C500.476 874.752 499.845 863.113 500.95 857.232Z" fill="#D2D1D0"/>
<path d="M436.649 843.948C436.816 845.557 437.118 847.756 437.051 849.322C438.989 860.102 439.034 873.344 440.925 884.197L440.42 885.062L439.656 884.812C439.545 882.844 439.138 872.777 438.564 871.613C436.643 872.722 434.692 872.296 433.395 873.765C433.351 876.275 435.523 877.792 435.39 878.158C435.085 879.005 434.257 883.374 434.178 885.355C432.949 877.963 432.218 866.659 431.61 858.981L430.492 848.372C431.253 844.77 433.431 845.063 436.649 843.948Z" fill="#BDBCBB"/>
<path d="M436.649 843.948C436.816 845.557 437.118 847.756 437.051 849.322C436.871 855.788 437.452 855.898 431.61 858.981L430.492 848.372C431.253 844.77 433.431 845.063 436.649 843.948Z" fill="#797877"/>
<path d="M353.316 849.371C354.301 847.927 354.253 848.012 355.834 847.226C357.311 847.385 358.353 847.647 359.748 847.165C360.84 858.622 361.122 871.394 362.282 882.515C362.113 879.456 362.038 877.281 359.721 875.044C357.979 874.319 357.924 874.313 356.142 874.752C356.208 876.939 356.863 885.525 356.332 886.787C355.086 883.039 353.441 854.49 353.316 849.371Z" fill="#949492"/>
<path d="M216.072 809.707C216.848 812.687 215.916 815.137 216.971 817.221L218.03 817.617C219.371 816.946 223.13 814.162 222.942 814.192C222.808 821.261 220.076 837.123 220.483 841.9C218.634 839.719 215.441 839.621 213.146 841.273C213.744 830.968 215.025 820.042 216.072 809.707Z" fill="#605F5E"/>
<path d="M426.689 856.032C426.245 866.836 425.572 875.239 425.642 886.08L425.056 886.507C424.752 884.435 424.747 883.167 424.726 881.114C422.942 880.48 421.371 879.608 419.681 880.132C419.119 881.54 419.247 882.783 419.233 884.307L418.691 883.965C418.93 880.2 419.714 859.395 420.329 857.506L421.323 857.945C423.482 857.482 424.97 857.385 426.689 856.032Z" fill="#C6C6C5"/>
<path d="M210.798 861.467C213.124 858.938 215.283 859.846 218.682 859.999C217.963 865.696 217.755 871.979 216.669 877.537C216.093 880.486 213.84 880.858 211.242 881.333L209.869 881.595C208.681 877.658 210.822 866.117 210.798 861.467Z" fill="#D1D1D0"/>
<path d="M213.146 841.273C215.442 839.621 218.635 839.719 220.483 841.9L220.076 843.893L218.682 859.999C215.283 859.846 213.124 858.938 210.798 861.467C211.028 857.738 211.855 850.17 212.517 846.574C212.615 844.466 212.773 843.357 213.146 841.273Z" fill="#AAAAA8"/>
<path d="M213.146 841.273C215.442 839.621 218.634 839.719 220.483 841.9L220.076 843.893L219.7 844.192C218.55 845.118 218.497 844.917 217.996 846.142L216.012 846.038L216.381 845.77C214.595 845.532 214.255 845.837 212.517 846.574C212.615 844.466 212.773 843.357 213.146 841.273Z" fill="#7E7E7C"/>
<path d="M421.46 834.722C423.758 837.434 421.148 837.671 424.169 840.06L425.375 839.725C427.343 836.922 425.446 836.605 427.685 833.93L428.013 835.203C427.607 842.15 427.166 849.091 426.689 856.032C424.97 857.385 423.482 857.482 421.324 857.945L420.33 857.506C420.467 849.901 420.993 842.309 421.46 834.722Z" fill="#60605F"/>
<path d="M434.898 827.08C435.683 832.754 436.148 838.238 436.649 843.948C433.431 845.063 431.254 844.77 430.492 848.372C430.105 843.649 429.684 838.933 429.229 834.216L428.889 829.926C430.855 828.701 432.771 827.982 434.898 827.08Z" fill="#565655"/>
</g>
<defs>
<clipPath id="clip0_6_1039">
<rect width="832" height="1248" fill="white"/>
</clipPath>
</defs>
</svg>
