<svg width="195" height="178" viewBox="0 0 195 178" fill="none" xmlns="http://www.w3.org/2000/svg">
<path d="M53.2916 0.627042C60.7741 -0.0542395 87.9534 17.5098 99.3021 15.1558C114.063 12.0937 127.096 4.87561 141.022 0C152.928 2.08467 180.443 12.5891 191.643 17.6981C195.655 19.528 194.335 48.2241 194.304 54.0016L194.273 101.755L194.276 145.038C194.287 152.304 197.624 179.686 185.132 176.48C171.243 172.916 156.123 165.258 141.841 163.375C132.138 164.713 105.839 177.865 98.7864 177.6C89.3906 177.247 64.1441 166.379 53.5293 162.73C38.5649 165.859 23.5163 172.997 8.647 176.807C6.79465 177.145 5.5811 177.202 4.07192 176.017C-1.62103 171.547 0.310543 160.254 0.334924 153.11L0.423298 118.306L0.42514 62.9131C0.37455 52.7554 -0.962761 26.8101 2.31465 18.38C3.84455 14.444 48.0484 1.18584 53.2916 0.627042Z" fill="#242324"/>
<path d="M142.024 10.1687C153.02 12.8896 174.571 20.7651 184.401 25.9491C184.596 34.1275 184.688 42.4004 184.584 50.5788C184.101 88.8536 186.048 127.506 184.272 165.714C170.505 161.724 156.103 156.804 142.475 152.322C129.563 155.702 108.517 166.677 96.6325 167.217C88.1236 167.603 63.7207 154.038 52.659 152.579L51.9295 152.487C44.7419 154.422 15.0319 165.197 11.2181 165.399C9.44625 160.356 10.1198 118.477 10.0826 110.694C9.75284 82.2437 9.59314 53.7908 9.6035 25.3379C19.6314 19.993 41.0622 13.2747 52.3915 11.2528C60.5317 9.80002 89.9668 27.8077 97.1927 26.4628C111.06 23.8821 127.908 14.767 142.024 10.1687Z" fill="#FCFCFB"/>
<path d="M17.3311 75.6643C19.7088 69.9612 17.9138 38.5083 19.5906 32.3603C23.2952 28.7181 45.0863 22.6584 50.9627 22.0046C51.1395 31.3244 50.3532 48.6812 51.4193 57.3465L56.6782 58.001C57.659 57.0497 58.3648 56.4849 58.3837 54.934C58.5117 44.2175 58.8274 33.8569 59.6613 23.1606C65.2061 24.3787 88.4661 33.4413 93.4539 36.0111C94.2085 37.3803 94.9643 38.4723 95.138 40.0202C94.8728 53.2686 95.2032 66.2775 94.8064 79.7313L100.86 83.1736C102.116 72.8399 101.515 47.3448 101.197 36.4291C111.017 31.0526 126.875 26.5402 137.899 22.6444C138.053 28.2751 136.932 43.1682 139.786 46.8525C142.633 41.7916 145.752 37.8264 151.666 36.1013C155.633 34.9221 159.91 35.4395 163.481 37.5296C167.599 39.9141 170.6 43.8367 171.823 48.4338C175.852 63.6346 160.014 73.0263 146.275 66.4274C142.738 72.9788 123.945 108.552 112.826 101.532C106.155 97.3203 101.266 90.31 91.9782 85.6831C58.316 96.7432 72.7538 64.5883 46.9765 64.7364C41.6834 64.7669 25.3103 80.2121 18.5714 77.4132L17.3311 75.6643Z" fill="#242324"/>
<path d="M101.197 36.4291C111.017 31.0526 126.875 26.5401 137.899 22.6444C138.053 28.275 136.933 43.1681 139.786 46.8524C138.355 53.6403 138.628 55.8042 141.661 62.0094C133.523 76.5851 129.205 85.6184 116.126 96.3965C111.69 92.6086 105.139 86.2912 100.86 83.1736C102.117 72.8398 101.515 47.3448 101.197 36.4291Z" fill="#E6E6E5"/>
<path d="M17.3311 75.6643C19.7088 69.9612 17.9138 38.5083 19.5906 32.3603C23.2952 28.7181 45.0863 22.6584 50.9628 22.0046C51.1395 31.3244 50.3532 48.6812 51.4193 57.3465C37.7976 59.1478 27.8136 70.5602 17.3311 75.6643Z" fill="#E6E6E5"/>
<path d="M63.4731 62.6048C76.4402 56.2131 84.4962 49.3314 95.1379 40.0201C94.8728 53.2686 95.2031 66.2775 94.8063 79.7313C89.0134 78.6746 83.7191 80.3662 77.9067 81.596C71.8663 76.2658 68.5048 69.1818 63.4731 62.6048Z" fill="#E6E6E5"/>
<path d="M59.6612 23.1605C65.2061 24.3787 88.4661 33.4413 93.4539 36.011C87.5988 41.3851 65.9771 57.2624 58.9499 58.6773C58.238 58.497 57.303 58.3196 56.6782 58.0009C57.6589 57.0497 58.3648 56.4848 58.3837 54.934C58.5117 44.2175 58.8274 33.8569 59.6612 23.1605Z" fill="#E6E6E5"/>
<path d="M154.375 42.5198C166.678 42.3272 170.112 56.4635 158.231 61.5438C152.765 61.5853 147.673 61.3379 145.661 54.9291C144.952 52.636 145.232 50.1516 146.434 48.0742C148.328 44.7257 150.989 43.5807 154.375 42.5198Z" fill="#E6E6E5"/>
<path d="M59.4085 116.508C58.1523 111.194 59.1129 89.257 59.2153 82.2065C64.9357 91.3856 68.8104 95.4812 78.8608 99.4415C83.2098 96.4513 86.3427 93.9078 92.1363 94.8511C101.816 96.4854 109.157 116.341 120.425 109.682C127.644 105.415 135.849 93.2155 145.81 95.6823C156.581 98.3495 163.429 109.213 173.612 113.112C176.237 114.116 176.411 115.166 175.631 117.818C169.704 120.113 165.54 116.919 161.097 113.304C155.937 109.105 151.662 105.881 145.823 102.663C142.724 101.913 141.61 101.78 138.526 103.14C138.214 110.365 138.085 117.598 138.139 124.83C138.156 128.456 139.096 142.745 136.204 144.27C125.965 149.669 112.86 154.426 101.637 157.416C101.625 146.363 100.615 120.025 102.01 110.529C97.1228 105.741 94.5951 103.49 88.3091 100.414C87.0327 101.391 82.6905 104.681 81.3197 105.018C59.1769 110.468 66.3955 138.434 45.6698 145.89C43.2616 146.756 39.9683 148.753 37.501 148.014C36.9329 146.23 37.0036 146.956 37.6381 144.968C41.1776 140.849 48.0604 139.49 51.1117 134.872C54.6914 129.454 57.4702 122.739 59.4085 116.508Z" fill="#242324"/>
<path d="M102.01 110.529C104.838 113.716 109.217 117.871 113.503 119.064C121.272 121.228 125.854 112.949 130.936 108.519C133.826 106 135.109 105.114 138.526 103.14C138.214 110.365 138.085 117.598 138.139 124.83C138.156 128.456 139.096 142.745 136.203 144.27C125.965 149.669 112.86 154.426 101.637 157.416C101.624 146.363 100.614 120.025 102.01 110.529Z" fill="#E6E6E5"/>
<path d="M59.4082 116.508C58.152 111.194 59.1126 89.257 59.215 82.2065C64.9354 91.3856 68.8102 95.4812 78.8606 99.4415C70.4303 103.993 62.1548 104.583 59.4082 116.508Z" fill="#E6E6E5"/>
<path d="M145.823 102.663C151.661 105.881 155.937 109.105 161.096 113.304C165.54 116.919 169.703 120.113 175.63 117.818C176.652 128.37 176.095 143.833 176.069 154.882C166.013 151.143 156.616 147.521 146.461 144.004C146.028 129.64 145.8 117.062 145.823 102.663Z" fill="#E6E6E5"/>
</svg>
