<svg width="832" height="1248" viewBox="0 0 832 1248" fill="none" xmlns="http://www.w3.org/2000/svg">
<g clip-path="url(#clip0_6_504)">
<path d="M0 0H832V1248H0V0Z" fill="#FBFBFA"/>
<path d="M153.701 344.402C149.539 327.32 148.401 309.642 150.34 292.168C152.941 268.409 161.47 238.264 180.176 221.839C188.676 214.376 199.726 215.842 205.849 225.365C220.768 248.565 220.272 284.436 216.155 310.499C233.337 306.561 246.002 307.701 262.919 311.455C271.053 288.273 291.427 241.551 318.576 232.552C328.934 229.119 335.825 242.841 336.96 251.831C340.59 280.592 328.498 314.035 311.917 337.24C328.171 354.327 330.843 359.667 333.967 382.722C336.543 401.725 339.75 409.63 328.859 427.947L333.677 427.797C337.723 421.084 340.178 415.835 347.299 412.202C350.184 405.582 353.033 398.408 356.519 392.123C381.091 347.829 436.914 328.546 483.106 348.924C507.215 359.387 526.089 379.12 535.466 403.665C536.975 407.588 538.099 411.254 539.223 415.304C547.156 420.598 551.74 428.241 553.119 437.643C555.844 456.225 554.452 486.92 533.319 493.576C524.219 511.4 515.923 522.204 498.662 533.73C494.956 536.204 483.462 541.343 480.862 543.501C482.415 545.552 488.318 546.385 490.87 546.954C513.681 552.045 533.478 566.175 548.117 584.314C552.728 566.508 556.495 546.706 573.936 536.541C575.541 535.625 577.176 534.763 578.839 533.957C580.036 528.157 580.171 527.239 584.351 523.181C573.642 518 559.929 509.399 574.861 497.931C559.756 471.987 560.738 456.43 561.624 426.904C561.738 423.14 562.363 408.744 561.854 405.83C559.3 391.221 550.985 386.578 555.636 368.729C557.407 361.938 561.366 356.724 565.685 351.171C557.557 338.274 560.054 316.186 580.528 322.331C582.037 322.785 592.19 323.258 593.915 322.983C631.412 316.998 675.627 303.631 698.911 344.819C731.843 362.944 723.858 397.041 714.642 426.27C722.066 449.729 712.253 470.262 686.964 473.962C684.44 479.304 681.094 485.331 678.808 490.372C688.476 495.907 692.565 501.566 701.001 508.271C704.969 511.427 714.283 513.804 719 516.419C738.164 525.601 762.13 536.159 767.64 558.967C773.528 583.322 767.36 610.685 759.656 633.957C758.376 637.833 752.756 649.966 752.61 652.787C752.213 660.617 753.195 671.446 753.676 679.386C754.78 699.349 756.316 719.288 758.278 739.19C759.247 749.501 765.135 791.664 760.997 798.458C757.571 804.083 749.568 806.63 743.613 808.555C743.863 862.436 743.497 916.323 742.516 970.192C742.138 987.559 743.138 1006.15 740.876 1023.43C740.602 1025.53 738.158 1028.87 736.829 1030.62C738.072 1036.68 738.341 1042.18 738.572 1048.34C745.667 1049.69 760.454 1053.16 764.422 1059.61C769.695 1068.34 753.323 1073.79 747.392 1075.38C713.173 1084.52 676.797 1087.79 641.658 1091.56C620.367 1093.85 598.26 1094.15 576.978 1095.39C491.06 1100.56 404.935 1101.33 318.939 1097.71C266.199 1095.69 212.78 1093.49 160.488 1086.38C137.931 1083.38 113.658 1081.09 92.0674 1073.57C59.8066 1062.32 88.6254 1052.94 103.141 1048.01C103.628 1039.14 105.383 1029.37 106.801 1020.53C104.261 1018.18 101.317 1015.22 101.043 1011.62C99.3128 988.772 100.189 964.921 100.408 942.088C100.624 894.361 101.483 846.647 102.982 798.946C101.99 798.019 101.027 797.063 100.093 796.075C95.2497 790.865 96.509 782.206 96.8046 775.564C75.4695 774.376 42.65 768.733 35.3582 745.357C29.4722 726.485 35.2336 703.31 36.7235 683.865C37.0591 679.49 36.1107 675.053 35.9984 670.684C35.8052 663.116 36.8238 652.824 39.9349 645.871C41.6398 642.062 44.8942 640.916 48.4355 639.698C51.694 618.839 54.497 597.988 58.5099 577.487C63.4935 552.027 66.7398 533.184 94.7597 525.339C107.858 521.672 117.067 520.223 130.792 519.398C117.692 505.326 109.773 487.217 108.334 468.049C104.792 424.557 125.925 377.152 153.701 344.402Z" fill="#2F2E2E"/>
<path d="M326.281 1030.87C308.528 1057.05 311.023 1071.4 344.495 1073.27C362.884 1074.3 385.391 1072.34 400.528 1060.9C411.376 1052.7 404.662 1037.76 405.563 1028.12C408.304 1029.73 439.441 1029.09 445.324 1029.1C438.689 1057.03 444.805 1064.74 473.855 1071.09C487.301 1074.02 529.808 1079.97 535.429 1060.97C537.627 1053.54 529.171 1037.86 524.431 1031.04C524.082 1030.53 523.72 1030.04 523.347 1029.55C526.614 1029.38 556.917 1031.96 559.246 1032.63C553.888 1036.21 549.704 1040.55 548.38 1047.1C545.609 1060.78 556.769 1064.1 567.605 1065.47C586.874 1067.8 606.419 1066.1 624.993 1060.46C629.504 1062.07 632.015 1062.2 636.806 1062.27C638.738 1077.95 652.885 1078.75 665.862 1079.59C684.276 1080.79 701.824 1076.87 718.653 1069.58C721.182 1068.49 726.869 1069.28 730.508 1067.75C732.483 1066.91 734.202 1065.56 735.482 1063.83C738.694 1059.47 738.456 1053.65 738.572 1048.34C745.667 1049.69 760.454 1053.16 764.422 1059.61C769.694 1068.34 753.322 1073.79 747.392 1075.38C713.173 1084.52 676.797 1087.79 641.658 1091.56C620.367 1093.85 598.26 1094.15 576.977 1095.39C491.06 1100.56 404.935 1101.33 318.939 1097.71C266.199 1095.69 212.78 1093.49 160.487 1086.38C137.931 1083.38 113.658 1081.09 92.067 1073.57C59.8063 1062.32 88.6251 1052.94 103.14 1048.01C103.149 1051.17 103.36 1054.96 104.069 1058.03C106.41 1068.15 119.039 1071.56 128.109 1068.94C141.966 1075.98 157.739 1077.39 173.033 1077.76C182.453 1077.99 199.44 1077.68 206.099 1070.68C209.427 1067.18 209.296 1065.42 209.364 1060.99C212.55 1060.96 218.724 1059.82 220.481 1060.02C224.415 1060.48 230.114 1061.65 234.216 1062.35C241.202 1063.51 248.258 1064.21 255.337 1064.44C265.552 1064.79 279.356 1064.72 288.947 1061.27C302.853 1056.26 296.786 1040.16 288.987 1032.71C296.926 1031.22 318.602 1029.43 326.281 1030.87Z" fill="#D9D8D8"/>
<path d="M279.327 805.228C286.471 796.764 283.309 791.261 285.368 780.914C286.291 776.277 290.471 770.36 291.257 765.978C293.43 753.864 292.544 739.05 292.591 726.503C307.377 740.031 322.909 738.441 340.09 731.609C342.164 748.483 337.926 765.454 347.148 781.993L345.398 795.417C332.535 808.695 336.323 864.648 337.484 883.667C338.079 893.405 340.419 903.38 345.627 911.698C335.298 924.361 338.456 954.519 339.604 970.417C340.555 983.592 341.385 1001.76 344.165 1014.48C335.402 1020.3 332.466 1022.49 326.282 1030.87C318.603 1029.43 296.927 1031.22 288.988 1032.71C276.625 1023.83 263.142 1021.42 254.896 1012.43C261.012 1006.46 261.143 993.641 262.22 985.152C264.116 969.54 265.838 953.903 267.386 938.255C271.804 895.038 277.15 848.628 279.327 805.228Z" fill="#FBFBFA"/>
<path d="M523.723 732.463C533.303 737.594 553.451 741.92 564.43 741.366C563.656 753.98 563.002 766.606 562.468 779.232C561.909 792.51 558.376 803.107 573.471 808.245C574.792 823.985 574.79 842.101 575.694 858.335L582.207 961.85C582.912 974.244 583.682 986.645 584.518 999.034C584.924 1004.54 585.427 1013.8 586.793 1018.85C579.094 1023.73 567.633 1028.38 559.246 1032.63C556.917 1031.96 526.614 1029.38 523.347 1029.55C517.453 1022.98 514.563 1020.29 506.448 1016.15C511.183 993.616 512.877 968.108 513.75 945.031C514.12 935.244 513.654 923.879 508.234 915.403C508.048 915.117 507.856 914.83 507.659 914.55C511.051 909.218 513.628 903.216 514.259 896.902C516.313 876.312 522.832 812.394 509.679 798.409L508.26 783.693C515.994 767.636 516.43 757.575 516.212 739.97L523.723 732.463Z" fill="#FBFBFA"/>
<path d="M418.529 835.349C425.812 836.519 429.04 836.934 436.605 836.136C429.822 848.475 436.633 878.061 436.916 892.533C437.061 899.968 439.876 909.773 443.542 916.293C440.737 920.491 438.209 925.775 438.096 930.845C437.415 961.295 439.475 999.338 445.324 1029.1C439.441 1029.09 408.305 1029.73 405.563 1028.12C409.372 1006.28 412.015 984.256 413.482 962.142C414.484 948.76 417.201 927.054 409.383 915.683C412.205 910.991 413.35 908.304 414.749 902.954C417.726 891.583 422.076 848.975 419.657 839.243C419.33 837.933 418.954 836.635 418.529 835.349Z" fill="#FBFBFA"/>
<path d="M331.14 470.541L333.364 469.79C335.9 475.57 340.589 481.903 346.519 484.538C357.381 516.341 372.815 531.863 403.357 545.126C399.479 546.21 393.945 547.584 390.311 549.005C370.995 525.331 333.004 548.241 337.705 575.754C331.728 581.578 327.257 586.831 322.739 593.919C320.203 590.113 315.838 586.6 314.745 584.679C306.701 570.537 307.438 567.032 293.658 557.27C296.859 552.06 300.142 546.834 306.277 544.474L307.006 546.736C309.04 547.522 310.941 546.826 312.895 545.99C341.409 533.789 343.207 496.478 331.611 471.509C331.461 471.183 331.304 470.86 331.14 470.541Z" fill="#FBFBFA"/>
<path d="M328.859 427.947L333.677 427.797C331.083 439.612 329.991 448.835 331.632 461.049C331.982 463.655 333.148 467.93 333.364 469.79L331.14 470.541C330.315 470.001 329.048 467.535 328.407 466.619C321.966 457.415 323.812 442.829 325.361 432.224C326.581 430.559 327.507 429.478 328.859 427.947Z" fill="#737272"/>
<path d="M189.346 225.48C190.528 225.369 191.719 225.415 192.889 225.619C213.731 229.177 211.978 297.36 208.623 312.655C207.4 318.227 202.09 331.194 204.91 334.802L206.374 334.813C211.173 332.217 213.347 323.99 214.997 318.802C239.137 312.533 263.122 317.182 285.161 328.25C301.376 336.393 318.916 350.715 324.633 368.41C319.17 361.669 314.775 357.888 306.802 354.005C290.515 346.209 271.798 345.198 254.766 351.193C213.573 365.608 189.648 404.592 178.463 444.682C168.755 477.278 175.027 509.201 197.959 534.781C211.771 550.187 231.504 562.07 245.165 577.722C247.61 580.524 249.013 594.264 249.405 598.707C253.044 639.856 249.251 681.409 245.898 722.463C243.966 745.808 243.405 767.325 232.783 788.818C212.27 791.852 179.337 789.317 158.768 787.178C149.261 786.191 119.877 777.605 115.63 778.458L115.683 779.299C124.555 786.435 148.98 790.323 160.332 792.09C182.248 795.771 208.93 795.308 230.995 793.894C229.865 799.939 228.968 804.21 227.281 810.103C190.187 814.856 148.161 810.079 113.443 796.148C97.8372 789.884 105.832 783.443 103.396 773.73C99.4915 758.154 98.7125 755.473 101.053 739.489C108.658 738.794 115.201 736.935 122.301 734.266C149.418 724.059 172.338 705.083 187.412 680.343C192.868 671.379 197.068 661.97 201.389 652.44C216.005 650.721 217.596 636.108 218.583 624.152C218.81 621.41 219.065 618.68 218.821 615.932C218.495 612.251 216.377 609.637 218.196 605.966C218.614 603.171 217.813 599.729 216.606 597.223C213.665 591.116 208.683 588.192 202.676 585.966C200.186 578.265 197.738 570.282 194.747 562.783C199.144 565.663 223.421 579.646 227.03 577.516L226.936 576.422C221.542 570.716 210.151 566.154 203.267 561.594C186.085 550.214 168.148 540.154 151.235 528.355C97.1729 490.638 113.472 419.786 142.76 371.785C146.759 365.233 151.46 359.03 156.007 352.786C157.618 356.232 158.852 359.723 163.403 359.138C164.085 357.837 164.528 356.891 164.132 355.345C161.017 343.212 158.517 332.073 157.619 319.462C156.241 302.076 158.031 284.584 162.905 267.838C167.312 252.949 175.188 233.187 189.346 225.48Z" fill="#FBFBFA"/>
<path d="M189.097 342.386C186.079 345.135 183.729 348.109 179.622 345.831C178.116 343.81 177.462 341.834 176.967 339.102C172.671 315.406 172.221 283.591 183.626 261.819C184.443 260.495 186.396 258.538 188.05 258.516C195.664 258.413 196.641 270.502 197.242 275.517C200.54 289.626 197.936 330.219 189.097 342.386Z" fill="#D9D8D8"/>
<path d="M197.242 275.517C200.54 289.626 197.935 330.218 189.097 342.386C188.758 342.004 188.604 341.858 188.318 341.391C186.689 338.727 193.062 314.999 193.737 310.255C195.372 298.772 194.949 286.854 197.242 275.517Z" fill="#242424"/>
<path d="M179.277 715.01C180.878 715.449 180.788 715.516 181.87 716.863C182.877 722.085 178.742 731.073 176.759 736.021C172.617 746.35 163.34 761.438 153.514 767.148C152.759 766.874 152.197 766.277 151.544 765.735C151.099 762.578 156.318 757.447 158.817 755.156C170.161 744.735 172.12 726.04 179.277 715.01Z" fill="#2F2E2E"/>
<path d="M607.333 759.062C617.521 761.237 629.09 761.664 639.44 761.889C642.128 775.521 643.121 791.164 648.704 803.924C651.679 810.713 654.69 813.174 661.346 815.612C686.239 822.254 711.638 816.422 736.226 811.212V869.712C736.214 875.739 736.506 893.356 735.787 898.962C736.244 914.148 735.732 1019.16 733.105 1022.92C731.539 1025.16 726.132 1026.65 723.548 1027.17C711.857 1029.51 684.8 1030.2 674.822 1023.5C673.585 1022.68 673.11 1021.86 672.683 1020.45C671.501 1016.53 671.348 1011.79 670.824 1007.73C669.44 996.992 668.154 986.237 666.96 975.475L655.049 873.533C653.654 861.333 652.173 849.146 650.6 836.964C648.558 821.078 650.838 817.056 634.112 810.895C630.23 809.463 624.848 805.819 620.587 806.855L620.422 807.934C623.921 813.077 636.392 819.622 642.292 822.918C644.919 845.24 647.571 867.994 650.24 890.333C651.161 898.042 650.393 910.778 650.344 918.858C650.356 938.273 649.948 957.688 649.113 977.084C648.79 986.127 648.692 1008.95 647.254 1016.82C640.055 1026.04 602.439 1020.37 592.611 1014.49C591.871 990.832 589.323 966.773 588.09 943.105C585.787 898.926 581.456 854.338 581.276 810.097C599.073 812.053 601.932 798.872 604.099 784.296C605.342 775.942 606.289 767.447 607.333 759.062Z" fill="#FBFBFA"/>
<path d="M661.346 815.612C686.239 822.254 711.637 816.422 736.226 811.212V869.712C736.214 875.739 736.506 893.356 735.787 898.962C735.129 894.447 735.445 877.878 735.445 872.637L735.689 817.537C723.188 819.341 665.716 829.701 661.346 815.612Z" fill="#D9D8D8"/>
<path d="M109.671 806.886C109.731 804.588 109.306 804.04 110.592 802.742C114.182 802.791 117.632 805.923 121.301 807.02C128.698 809.226 136.358 811.194 143.874 812.888C186.488 822.12 230.762 820.255 272.448 807.471C272.061 811.115 271.716 814.771 271.411 818.427C268.158 861.534 264.137 904.587 259.352 947.554C257.444 965.061 255.799 983.531 252.843 1000.88C252.41 1003.42 251.45 1006.07 248.818 1007.29C235.085 1013.69 217.126 1012.94 202.521 1010.31C199.839 1009.83 195.866 1007.49 195.198 1005.55C193.705 1001.22 193.367 989.966 193.541 985.469C194.003 973.598 192.172 954.488 193.422 943.349C195.066 928.7 198.456 910.638 201.143 895.934C204.271 878.828 207.006 857.214 211.084 840.797C216.669 838.012 231.546 834.283 233.564 828.665L233.027 827.933C228.243 826.617 205.538 834.216 204.441 838.616C201.852 848.993 199.919 861.065 198.136 871.729L183.335 959.369C181.501 970.881 179.515 982.361 177.379 993.817C176.153 1000.45 174.749 1009.37 172.464 1015.54C158.308 1023.06 119.689 1023.57 109.065 1012.91C106.098 1009.94 107.709 946.158 107.775 938.955L109.671 806.886Z" fill="#FBFBFA"/>
<path d="M109.671 806.886C109.732 804.588 109.307 804.04 110.592 802.742C114.183 802.791 117.633 805.923 121.302 807.02C128.698 809.226 136.359 811.194 143.875 812.888C186.489 822.12 230.763 820.255 272.448 807.471C272.062 811.115 271.716 814.771 271.412 818.427L270.784 814.655C266.866 811.998 236.631 820.207 230.032 821.096C204.48 824.564 179.038 822.211 153.738 818.768C146.444 817.775 112.134 806.538 109.671 806.886Z" fill="#D9D8D8"/>
<path d="M435.518 348.789C473.701 344.06 513.709 368.998 527.718 404.031C529.18 407.686 530.422 411.313 531.633 415.053C529.275 416.298 526.255 417.844 524.743 420.083C514.556 435.164 509.809 479.563 525.525 491.621C523.068 497.207 519.996 502.502 516.365 507.406C500.874 528.026 479.155 537.864 454.246 541.451C453.811 541.507 453.375 541.559 452.939 541.608C316.93 557.03 317.908 361.687 435.518 348.789Z" fill="#FBFBFA"/>
<path d="M408.19 406.722L408.828 406.68C429.161 405.462 459.148 406.394 478.296 411.589C506.724 419.301 513.301 464.434 494.094 484.264C483.893 494.795 469.571 496.885 455.771 497.394C436.695 498.129 419.822 497.284 400.743 495.225C378.218 494.085 359.835 479.544 359.773 455.346C359.685 420.971 377.158 408.348 408.19 406.722Z" fill="#2F2E2E"/>
<path d="M462.004 438.097C477.27 437.606 477.795 462.61 465.354 469.688C449.262 469.077 450.257 444.669 462.004 438.097Z" fill="#FBFBFA"/>
<path d="M395.462 436.355C410.21 434.101 412.122 459.301 399.92 467.448C384.247 468.067 383.612 443.933 395.462 436.355Z" fill="#FBFBFA"/>
<path d="M413.227 505.597C419.177 506.068 421.771 509.734 427.605 510.765C432.421 511.616 444.774 504.623 446.89 509.52C446.61 511.484 445.743 512.116 444.397 513.609C433.918 520.689 407.061 518.424 413.227 505.597Z" fill="#2F2E2E"/>
<path d="M435.46 577.357C478.997 573.611 517.333 605.851 521.095 649.374C524.857 692.902 492.623 731.238 449.088 735.016C405.53 738.794 367.16 706.552 363.395 663C359.631 619.454 391.9 581.104 435.46 577.357Z" fill="#FBFBFA"/>
<path d="M487.87 602.58C490.503 602.3 491.183 602.334 492.984 603.59C493.442 605.045 493.283 606.065 492.826 607.505C490.076 616.182 483.16 625.304 478.709 633.354C472.943 643.78 466.334 658.314 458.619 667.205C452.397 674.377 406.37 700.44 395.208 706.247C392.884 706.924 392.193 707.228 390.701 705.272C390.445 703.926 390.463 702.871 390.852 701.543C393.044 694.078 399.711 686.906 403.626 680.129C410.345 668.497 418.767 651.629 427.417 641.794C431.507 637.144 479.367 607.363 487.87 602.58Z" fill="#2F2E2E"/>
<path d="M428.205 651.245C430.035 663.847 434.839 668.216 447.452 668.009C435.924 675.035 424.792 682.153 413.036 689.191C407.811 692.055 404.604 694.358 399.738 697.868C409.88 683.225 418.103 666.431 428.205 651.245Z" fill="#D9D8D8"/>
<path d="M440.813 643.275C446.007 641.696 451.494 644.633 453.061 649.831C454.628 655.029 451.679 660.508 446.479 662.062C441.294 663.615 435.832 660.678 434.269 655.493C432.707 650.313 435.634 644.847 440.813 643.275Z" fill="#D9D8D8"/>
<path d="M583.703 358.042C601.381 371.064 626.407 370.178 646.503 365.027C651.763 363.679 661.126 361.471 666.093 363.042C670.866 367.602 663.155 380.702 663.765 388.164C664.789 400.676 669.708 408.252 674.645 419.433C676.882 424.5 675.571 433.035 679.18 436.276C687.549 438.238 689.17 424.507 697.136 424.236C705.773 423.943 709.406 428.832 710.01 436.638C710.686 444.754 707.998 452.792 702.573 458.872C696.405 465.82 690.206 466.41 681.709 466.861C678.217 477.049 676.925 480.473 671.232 489.572C673.219 494.297 673.761 495.749 673.42 500.823C665.789 512.585 656.896 518.285 645.388 525.696C647.174 518.412 656.755 504.411 647.466 499.479C634.52 492.61 627.456 507.973 622.464 516.943C618.715 515.189 614.235 512.181 610.688 509.919C601.209 503.874 594.57 500.756 583.583 498.261C560.646 464.084 569.622 429.703 570.184 390.729C570.355 378.862 575.963 366.942 583.703 358.042Z" fill="#FBFBFA"/>
<path d="M618.362 476.75C637.861 472.795 632.68 495.901 612.37 495.291C610.335 494.716 606.955 493.789 605.317 492.522C584.075 476.097 609.027 478.035 618.362 476.75Z" fill="#2F2E2E"/>
<path d="M599.174 430.38C600.595 430.816 600.573 430.884 601.686 431.768C604.645 438.253 597.056 447.551 595.661 453.923C594.12 460.959 603.854 458.66 606.434 462.867C606.005 464.865 606.212 464.195 604.087 465.765C599.098 465.688 592.378 464.525 590.111 459.386C587.167 452.714 592.659 445.729 595.211 439.863C596.583 436.711 597.86 433.55 599.174 430.38Z" fill="#2F2E2E"/>
<path d="M630.967 417.817C640.866 420.639 640.5 435.322 632.448 440.485C620.989 438.753 623.506 424.154 630.967 417.817Z" fill="#2F2E2E"/>
<path d="M583.305 417.218C592.554 418.43 593.108 432.569 585.57 438.302C575.703 437.629 576.802 422.925 583.305 417.218Z" fill="#2F2E2E"/>
<path d="M630.485 395.657C637.184 395.082 649.551 397.772 650.88 406.56C651.063 407.774 650.41 408.075 649.63 408.791C647.29 408.618 647.57 408.27 645.528 406.54C634.746 399.269 627.7 405.061 622.439 401.555L622.366 400.393C624.682 396.915 626.505 396.757 630.485 395.657Z" fill="#2F2E2E"/>
<path d="M581.688 394.365C582.292 394.327 582.895 394.303 583.499 394.294C587.768 394.238 594.815 396.445 594.658 401.534L593.414 402.44C590.773 403.102 586.435 401.13 582.838 400.425C579.646 401.117 577.162 402.847 574.416 404.555C572.244 404.408 572.75 404.766 571.364 403.598C571.368 399.371 577.909 395.38 581.688 394.365Z" fill="#2F2E2E"/>
<path d="M301.364 381.111C322.988 395.202 318.531 425.691 317.151 447.36C315.655 470.846 317.808 494.611 302.318 514.486C287.907 532.976 265.286 544.339 242.265 534.82C239.172 533.548 229.98 529.228 227.535 529.59C225.511 536.24 242.872 541.783 247.254 543.386C246.637 551.934 248.758 556.788 251.714 564.563L247.553 570.236C240.315 563.229 232.137 556.309 224.526 549.643C216.243 543.333 205.644 533.928 199.868 525.286C201.92 521.361 202.817 517.415 203.903 513.132L205.667 512.166C206.015 509.483 200.138 503.235 198.886 499.94C196.655 494.068 195.205 488.05 193.23 482.072C189.597 483.408 185.882 485.337 182.588 482.777C178.757 475.302 183.681 453.157 185.852 444.903C188.045 447.069 193.101 454.067 195.278 454.134C205.741 454.458 214.453 428.407 216.134 422.33C233.379 419.148 250.61 412.5 263.211 399.83C260.839 403.468 256.95 407.711 260.645 411.503C263.164 412.387 265.916 411.773 268.386 410.919C285.445 405.02 293.5 396.306 301.364 381.111Z" fill="#FBFBFA"/>
<path d="M251.245 491.64C255.074 491.814 265.288 497.018 270.864 498.455C275.443 499.636 283.632 499.407 285.557 500.262C287.097 501.949 286.785 501.165 287.146 503.279C286.128 506.721 283.318 508.957 280.665 511.229C262.501 523.903 240.874 503.753 251.245 491.64Z" fill="#2F2E2E"/>
<path d="M250.37 438C261.521 442.105 261.196 457.523 251.41 463.342C240.734 462.681 240.993 443.771 250.37 438Z" fill="#2F2E2E"/>
<path d="M301.874 439.16C311.942 441.753 310.392 458.148 302.823 463.438C291.345 460.984 293.98 445.007 301.874 439.16Z" fill="#2F2E2E"/>
<path d="M286.005 459.078C293.237 460.315 306.432 482.913 285.536 487.555C283.281 487.409 280.808 487.635 280.217 485.14C281.26 483.287 287.308 480.517 289.235 479.011C295.216 474.337 284.652 469.009 286.005 459.078Z" fill="#2F2E2E"/>
<path d="M249.648 413.928C253.574 413.796 263.717 415.608 262.551 420.794C257.366 423.623 252.663 418.454 244.141 421.763L243.487 422.02C239.845 423.971 236.611 428.427 232.743 427.276C231.79 421.224 244.624 415.075 249.648 413.928Z" fill="#2F2E2E"/>
<path d="M302.82 414.499C307.831 414.315 318.847 417.886 314.633 423.36C312.409 423.524 312.106 422.873 309.854 421.671C303.778 420.099 301.52 423.528 296.39 421.505L296.006 420.361C297.608 417.097 299.753 416.053 302.82 414.499Z" fill="#2F2E2E"/>
<path d="M702.5 516.89C718.616 524.323 748.897 536.72 757.309 552.517C767.494 572.943 761.88 603.223 755.651 623.714C747.544 650.404 720.5 716.15 684.056 703.956C660.175 695.967 620.501 642.025 608.767 619.57C613.614 614.061 626.273 603.703 632.216 598.91C638.025 594.518 643.389 590.311 649.332 585.959C655.445 592.732 660.541 601.021 666.289 608.198C670.202 613.08 703.988 651.361 705.81 651.854C706.73 652.104 706.688 651.897 707.431 651.44C709.065 645.377 698.215 633.927 694.601 629.661C701.909 608.195 710.65 587.451 718.775 566.421C718.97 565.919 718.062 565.522 717.726 565.298C710.314 568.663 693.461 614.482 689.213 624.75C686.19 621.453 684.318 619.271 681.588 615.652C686.104 603.247 692.62 591.678 698.417 579.842C700.215 576.16 701.824 573.346 703.012 569.411C700.202 566.246 694.211 560.918 690.968 557.877C696.082 555.286 700.33 555.204 704.884 550.816C706.487 546.882 703.153 523.017 702.5 516.89Z" fill="#FBFBFA"/>
<path d="M745.509 667.034C746.582 669.38 747.667 698.082 747.996 702.938C749.361 721.159 750.97 739.355 752.823 757.532C753.896 768.995 755.347 782.377 755.194 793.821C740.986 807.952 697.808 810.914 678.388 811.096C656.902 811.298 652.624 802.065 649.856 782.346C642.871 744.096 642.298 717.576 643.28 679.222C650.862 688.856 662.662 701.202 673.445 707.21C708.169 726.552 730.874 692.664 745.509 667.034Z" fill="#FBFBFA"/>
<path d="M732.922 731.957L735.963 731.756C737.53 732.725 736.939 732.097 737.828 733.681L737.371 735.071C731.081 740.677 699.416 743.328 689.7 744.035C688.481 743.992 687.147 743.773 685.934 743.614C684.142 742.207 684.532 742.92 683.989 740.945C684.849 739.812 685.117 739.41 686.689 739.245C702.305 737.594 717.623 735.644 732.922 731.957Z" fill="#2F2E2E"/>
<path d="M134.953 552.16C157.692 550.573 166.332 577.522 171.178 595.319C165.947 602.63 163.425 606.46 159.717 614.597C154.069 616.285 150.905 618.193 145.627 620.453C143.105 621.307 139.353 621.075 136.945 621.916C129.029 624.689 91.2047 638.741 90.0905 647.321L91.1639 648.076C95.8706 648.028 115.609 637.199 121.794 634.78C130.178 631.495 132.917 629.941 142.265 627.809C141.114 645.212 146.009 664.42 160.809 675.084L163.511 676.315L163.861 677.32C162.64 679.868 159.554 681.702 157.459 683.627C140.788 698.984 106.556 714.315 84.8346 703.883C77.5788 700.403 72.0163 694.163 69.3831 686.558C58.5281 655.036 103.894 562.659 134.953 552.16Z" fill="#FBFBFA"/>
<path d="M271.027 543.692C277.848 548.228 282.154 549.044 290.062 550.469C286.359 554.734 283.147 558.504 278.826 562.181C275.536 564.981 262.951 572.892 263.026 577.503C266.774 578.037 274.208 572.306 277.412 569.996C280.699 577.015 282.243 583.636 283.827 591.162C282.17 594.171 280.738 596.634 279.769 599.975C278.222 605.31 281.084 606.526 281.689 610.515C283.32 621.264 283.991 634.012 289.862 643.427C289.692 648.637 289.464 656.876 288.233 661.684C284.943 674.529 281.12 683.56 280.626 697.064C280.061 704.456 283.388 711.208 284.512 718.295C285.529 724.705 285.363 731.908 285.495 738.428C285.643 745.723 285.784 753.127 284.761 760.366C284.097 765.07 282.837 768.958 281.083 773.346C279.726 776.015 278.389 777.825 276.672 780.268C272.785 780.591 266.296 782.675 262.189 783.796C253.624 786.136 247.127 787.599 238.303 788.184C249.722 762.097 248.997 740.683 251.373 712.676C255.389 665.34 258.989 624.823 250.853 577.758C257.553 564.106 266.928 560.591 271.027 543.692Z" fill="#FBFBFA"/>
<path d="M571.039 327.934C585.852 330.418 595.232 330.163 609.914 327.158C634.996 322.025 671.951 317.019 688.938 341.217C691.151 344.361 693.138 348.558 696.259 351.035C703.025 355.653 707.663 357.434 711.412 365.354C719.988 383.453 715.319 402.714 709.339 420.656C698.471 415.1 691.444 418.423 683.02 426.283C679.911 413.265 672.884 405.256 670.281 392.397C668.544 383.785 675.456 368.908 673.719 363.357C669.336 349.338 636.099 362.449 624.207 362.135C610.133 361.764 602.131 361.905 589.698 354.174C587.139 353.671 584.268 353.728 581.906 354.93L580.543 355.373C579.378 355.008 578.595 354.685 577.553 354.04C572.777 351.013 569.421 346.189 568.247 340.658C567.034 335.081 568.088 332.49 571.039 327.934Z" fill="#5B5B5A"/>
<path d="M581.906 354.93C580.772 352.023 579.536 349.481 580.455 346.41L581.466 346.04C584.251 347.434 587.453 351.67 589.698 354.174C587.139 353.671 584.268 353.728 581.906 354.93Z" fill="#2F2E2E"/>
<path d="M347.279 739.982C358.04 745.04 364.125 745.162 374.808 748.916C379.975 751.128 384.65 755.369 389.575 757.88C431.875 779.391 471.826 771.914 509.476 746.04C508.838 756.375 508.271 764.406 505.557 774.382C495.13 773.126 492.458 774.637 483.843 780.512C478.079 785.448 474.813 789.208 469.869 795.24C461.841 804.728 450.908 824.21 438.647 828.067C400.518 840.078 393.465 786.246 365.684 773.614C359.834 770.957 355.8 770.908 350.357 772.98C347.665 762.822 347.48 750.439 347.279 739.982Z" fill="#ECECEB"/>
<path d="M349.991 801.371C354.464 801.547 362.064 803.516 365.614 806.477C378.335 817.08 401.245 832.242 413.22 841.163C415.644 842.967 410.265 893.283 409.034 898.67C406.978 907.67 406.836 915.33 395.508 912.624C390.578 906.128 390.622 899.651 379.753 894.684C371.185 890.766 362.565 892.155 356.131 899.267C354.057 901.564 353.237 904.069 350.929 904.91C340.33 901.333 340.757 810.847 349.991 801.371Z" fill="#FBFBFA"/>
<path d="M503.625 804.527C505.144 804.558 505.178 804.686 506.485 805.38C513.344 814.448 511.034 898.079 503.383 908.481C502.784 908.365 495.92 899.803 492.201 897.945C477.648 890.656 466.751 900.15 459.66 912.911C458.973 913.258 458.322 913.514 457.588 913.758C455.612 914.416 453.401 915.013 451.479 913.849C447.895 911.692 445.854 905.44 444.91 901.619C443.066 894.172 438.416 846.318 441.681 841.705C444.772 837.342 452.96 836.081 457.527 833.308C469.082 826.3 478.829 816.258 490.403 809.512C494.756 806.983 498.63 805.374 503.625 804.527Z" fill="#FBFBFA"/>
<path d="M349.313 919.303C353.163 924.592 353.104 932.009 358.294 936.78C362.354 940.522 369.803 943.038 375.291 942.679C385.327 942.027 389.204 933.642 395.245 927.201C397.001 925.324 400.829 923.38 403.49 923.429C404.691 923.447 405.632 923.88 406.42 924.806C411.308 930.552 403.401 996.377 401.849 1007.76C400.852 1015.03 399.981 1021.42 397.547 1028.36C382.683 1013.69 372.149 1007.72 350.636 1011.59L349.857 1006.24C347.68 990.795 341.342 929.888 349.313 919.303Z" fill="#FBFBFA"/>
<path d="M503.684 922.332C504.069 922.691 504.232 922.801 504.522 923.203C511.32 932.581 502.488 999.332 500.404 1013.1C478.545 1009.66 468.649 1015.83 452.693 1029.52C450.774 1023.4 449.813 1014.74 449.105 1008.37C446.162 984.39 444.899 958.419 444.276 934.196C444.187 930.784 445.219 926.372 447.826 923.995C457.52 919.852 463.993 942.66 475.191 944.111C492.335 946.329 500.031 937.682 503.684 922.332Z" fill="#FBFBFA"/>
<path d="M573.3 545.297C574.065 548.443 570.907 552.834 571.6 556.847C572.901 564.378 580.566 569.004 582.232 576.445C584.072 584.663 584.074 594.056 585.267 602.491C586.807 613.385 588.283 624.475 590.58 635.231C592.283 643.208 594.594 651.087 596.55 659.009C598.686 667.656 600.269 675.998 603.458 684.346C607.751 695.583 599.154 785.667 593.149 798.141C592.13 800.262 590.932 802.291 588.547 803.004C582.653 804.759 574.241 800.798 569.296 797.952C569.12 785.052 570.327 770.262 570.575 756.966C571.072 751 571.438 745.4 571.418 739.41C623.043 717.752 587.808 659.563 574.32 624.378C573.392 621.959 574.63 606.767 574.029 602.554C573.294 597.411 574.745 583.771 572.374 579.527L571.665 579.719C568.82 585.286 568.6 607.96 568.385 615.17C563.789 606.142 559.067 599.52 553.174 591.311C556.615 576.663 561.591 554.951 573.3 545.297Z" fill="#FBFBFA"/>
<path d="M274.131 354.307C283.089 353.264 291.586 355.621 299.771 358.876C299.492 381.6 287.714 398.321 265.616 404.678C267.736 400.888 274.026 386.426 269.689 383.407C267.931 384.04 266.907 386.016 265.615 387.696C253.865 403.151 236.297 413.121 217 415.284C210.561 416.016 203.324 415.591 197.311 416.491C197.356 417.477 197.222 418.815 197.733 419.45C199.565 421.734 207.146 422.052 210.047 422.433C206.408 434.53 204.061 437.302 197.091 447.781C193.62 443.233 191.879 441.608 187.164 438.375C200.016 399.215 229.929 358.183 274.131 354.307Z" fill="#5B5B5A"/>
<path d="M433.889 551.738C442.861 551.012 452.778 551.181 461.673 552.578C486.921 556.715 509.518 570.641 524.558 591.334C541.594 614.847 545.484 640.094 540.95 668.18C536.411 669.069 534.02 669.721 529.635 671.086L530.049 668.454C538.3 614.561 509.244 571.243 454.234 563.145C393.16 557.51 345.054 605.509 351.158 666.565C346.833 664.706 344.237 664.207 339.722 663.293C336.338 605.565 375.874 557.29 433.889 551.738Z" fill="#D9D8D8"/>
<path d="M578.389 503.957C591.465 504.165 606.001 513.477 616.009 521.674C619.252 524.333 624.286 531.479 627.565 532.011C628.254 531.134 628.547 520.006 629.79 516.186C631.637 510.523 638.653 501.16 645.059 505.806C646.028 508.818 643.358 512.914 642.023 515.725C637.001 526.291 641.127 536.647 640.335 547.633C639.719 556.199 636.976 564.577 636.538 573.407C629.668 577.497 623.055 582.012 616.74 586.927L609.111 592.663C594.403 585.662 591.541 578.724 584.108 565.075C581.942 561.097 576.694 556.996 579.224 552.194C581.751 551.173 582.68 553.176 585.934 552.528C587.87 547.199 578.352 547.353 581.123 541.976C584.267 535.875 592.186 545.02 595.32 540.784C594.654 536.781 590.25 537.28 586.306 533.639C585.93 532.495 585.55 532.35 586.017 531.344C590.269 522.192 598.634 532.197 603.769 529.669L604.068 528.427C599.533 519.147 575.902 515.235 575.193 507.106C576.19 505.077 576.428 505.341 578.389 503.957Z" fill="#FBFBFA"/>
<path d="M44.2466 681.683C50.4137 683.134 55.6593 684.164 61.9073 685.23C68.0824 705.352 78.9923 710.799 98.338 713.962C92.6231 720.592 90.4751 730.622 95.1965 738.355C92.5158 748.898 91.9392 756.368 94.3315 767.039L94.3285 767.831C92.2854 768.848 86.729 767.745 84.3323 767.295C67.5521 764.132 41.7572 757.392 40.2482 736.503C39.1038 720.659 41.2512 697.418 44.2466 681.683Z" fill="#737272"/>
<path d="M113.698 1023.49C116.181 1024.02 119.457 1025.33 122.682 1026C138.729 1029.32 150.839 1027.84 166.701 1024.79C173.895 1038.53 186.756 1040.18 197.422 1049.92C202.401 1054.46 205.868 1062.21 199.759 1067.5C184.817 1072.91 159.279 1070.37 144.198 1067.09C139.743 1066.13 132.092 1063.17 128.445 1062.54C119.82 1061.04 119.632 1062.78 110.939 1058.93C108.626 1045.96 110.892 1036.15 113.698 1023.49Z" fill="#5B5B5A"/>
<path d="M270.048 313.576C277.786 292.59 285.905 274.721 299.662 257.311C337.524 209.397 332.663 275.654 323.632 297.719C321.668 302.516 319.838 307.308 317.562 312.016C314.067 319.288 310.205 326.378 305.991 333.259L299.468 328.307L289.29 321.971C293.833 306.659 297.332 298.227 304.533 284.212L300.757 284.292C294.532 295.597 289.181 307.363 284.753 319.485L270.048 313.576Z" fill="#FBFBFA"/>
<path d="M310.85 270.848C312.567 269.751 312.802 269.722 314.836 269.912C316.02 270.608 317.029 270.97 317.293 272.707C319.621 288.052 313.883 302.394 306.389 315.401C303.848 319.812 300.646 323.813 299.468 328.307L289.29 321.971C293.833 306.659 297.332 298.227 304.533 284.212C306.211 280.662 311.165 273.806 310.85 270.848Z" fill="#D9D8D8"/>
<path d="M310.849 270.848C311.165 273.806 306.211 280.662 304.533 284.212L300.757 284.292C303.779 278.926 306.591 275.302 310.849 270.848Z" fill="#050404"/>
<path d="M247.293 1015.38L248.369 1015.3C250.856 1016.33 254.1 1022.14 256.993 1023.68C266.376 1028.67 278.215 1031.72 285.723 1039.53C288.62 1042.55 292.834 1051.04 287.616 1053.41C274.871 1059.18 252.103 1057.72 238.876 1055.95C236.59 1055.94 226.946 1053.9 223.835 1053.52C217.921 1052.81 213.297 1052.7 207.307 1052.51C204.422 1048.71 200.003 1044.12 196.665 1040.48C196.82 1033.13 197.801 1023.81 198.936 1016.54C215.582 1020.4 230.902 1018.47 247.293 1015.38Z" fill="#5B5B5A"/>
<path d="M385.11 1061.37C378.1 1063.46 371.575 1064.96 364.072 1065.75C356.749 1066.53 321.513 1067.55 322.474 1056.16C323.87 1039.62 343.869 1016.24 362.018 1017.11C374.297 1017.71 381.982 1021.89 390.516 1030.57C394.129 1033.19 395.604 1033.95 399.805 1035.52C400.459 1049.26 399.423 1056.32 385.11 1061.37Z" fill="#FBFBFA"/>
<path d="M390.516 1030.57C394.128 1033.19 395.604 1033.95 399.805 1035.52C400.458 1049.26 399.423 1056.32 385.109 1061.37C389.769 1051.59 393.326 1041.6 390.516 1030.57Z" fill="#D9D8D8"/>
<path d="M487.373 1019.09C507.187 1017.41 525.937 1038.15 528.951 1056.63C530.88 1068.45 499.009 1066.52 491.949 1066.35L490.73 1066.22C480.166 1065.08 459.904 1062.91 453.139 1054.16C448.602 1048.3 449.682 1042.28 450.439 1035.55C465.655 1032.92 465.038 1021.56 487.373 1019.09Z" fill="#FBFBFA"/>
<path d="M84.7886 537.503C93.4438 536.124 104.15 538.243 109.489 545.723C113.054 568.345 102.449 569.098 92.0791 587.364C83.9999 601.595 76.2949 617.577 70.7263 632.952L66.4108 643.311L55.3164 640.1C56.7899 615.719 64.578 587.239 68.6295 562.947C70.4075 552.286 75.3739 543.269 84.7886 537.503Z" fill="#737272"/>
<path d="M676.456 1031.48C692.736 1037.92 713.179 1035.33 729.941 1032.62C731.922 1040.26 731.532 1049.75 731.252 1057.56C729.893 1059.2 728.027 1060.82 726.449 1062.29C724.224 1061.9 721.365 1061.17 719.11 1060.67C710.559 1065.49 708.041 1066.74 698.642 1068.78C683.91 1072.27 659.718 1076.11 645.583 1067.02C644.413 1066.26 643.121 1063.58 643.298 1062.1C644.773 1049.89 659.773 1045.61 668.245 1038.92C672.274 1035.8 673.146 1034.92 676.456 1031.48Z" fill="#5B5B5A"/>
<path d="M594.048 1021.9C596.058 1022.67 598.731 1024.24 600.596 1024.66C614.333 1027.79 631.515 1029.72 645.071 1025.97C646.028 1031.29 646.369 1040.12 646.479 1045.54C644.589 1048.23 640.499 1052.7 638.226 1055.34C624.914 1053.6 623.116 1053.95 610.011 1057.16C595.977 1059.86 581.591 1060.18 567.453 1058.12C562.992 1057.47 552.241 1055.39 554.521 1048.55C557.974 1038.17 571.555 1034.43 580.332 1029.7C585.032 1027.16 589.471 1024.66 594.048 1021.9Z" fill="#5B5B5A"/>
<path d="M613.369 640.319C614.589 641.507 619.471 648.424 620.745 650.167C626.133 657.522 631.143 664.597 636.97 671.641C637.001 682.329 636.428 693.182 636.403 703.944C636.47 715.339 636.83 726.735 637.476 738.112C634.886 741.098 632.216 744.01 629.461 746.844C627.364 748.843 624.92 750.89 622.713 752.81C622.457 752.572 622.214 752.328 621.97 752.085C618.581 748.66 609.974 737.277 609.913 732.853C609.517 703.956 613.095 668.637 613.369 640.319Z" fill="#8C8C8A"/>
<path d="M334.509 669.855C347.231 669.124 356.951 675.797 360.971 687.984C363.663 696.071 362.942 704.907 358.973 712.457C355.308 719.41 350.514 723.158 343.138 725.418C312.752 729.458 301.014 675.638 334.509 669.855Z" fill="#FBFBFA"/>
<path d="M191.986 592.475C197.572 592.114 200.537 592.425 205.629 595.058C208.566 596.576 212.843 600.654 210.662 604.126C206.408 602.612 193.739 598.191 191.272 603.66C192.726 606.376 199.143 606.209 202.463 606.844C206.003 607.521 215.432 613.171 212.494 617.62C207.298 618.552 199.921 612.745 195.948 617.705C198.495 620.6 216.353 622.062 211.106 631.642C207.814 632.671 201.474 627.169 197.376 630.508L197.406 631.696C198.805 633.043 200.299 633.263 202.2 633.829C202.638 633.939 203.073 634.067 203.506 634.195C205.777 634.877 207.815 635.81 208.972 637.949C208.786 648.436 200.571 642.421 197.941 644C193.091 647.077 187.61 657.217 181.017 657.126C167.419 656.943 164.58 630.118 164.172 620.569C172.512 605.598 172.897 596.484 191.986 592.475Z" fill="#FBFBFA"/>
<path d="M538.238 675.315C564.368 674.353 569.93 696.54 558.202 717.106C554.175 724.163 548.133 728.173 540.16 729.861C527.365 730.019 517.938 722.097 515.384 709.642C513.748 701.89 515.308 693.804 519.712 687.217C524.415 680.148 530.16 676.997 538.238 675.315Z" fill="#FBFBFA"/>
<path d="M685.47 502.569C701.458 516.505 696.338 527.703 699.325 547.216C695.04 549.586 683.428 553.307 681.965 556.499C682.112 559.682 692.309 568.084 695.631 571.607C691.34 581.263 685.592 592.739 680.759 602.186L677.028 610.332C671.543 604.393 666.142 597.537 661.309 591.044C665.368 578.612 669.299 564.899 673.182 552.341C677.754 537.538 684.8 517.789 685.47 502.569Z" fill="#FBFBFA"/>
<path d="M368.716 704.748C379.325 716.692 384.914 722.975 399.424 730.263C435.136 748.203 481.499 739.69 508.439 709.087C509.435 713.535 513.114 718.995 510.888 722.585C509.176 724.26 507.386 725.857 505.523 727.368C483.789 745.058 455.923 753.413 428.037 750.598C403.932 748.057 379.703 735.613 364.366 716.692C366.946 712.286 367.723 709.715 368.716 704.748Z" fill="#D9D8D8"/>
<path d="M340.606 583.049C344.087 586.96 347.33 590.302 351.024 594.016C340.343 612.093 336.251 624.652 332.802 645.09C325.739 649.551 324.245 652.104 321.152 659.837C312 660.185 308.024 661.221 299.825 664.755C296.912 666.425 295.358 667.93 292.833 670.16C294.4 665.742 296.42 661.294 298.204 656.931C309.011 630.478 320.537 603.897 340.606 583.049Z" fill="#FBFBFA"/>
<path d="M532.727 579.94C552.191 590.898 572.784 638.485 581.536 659.173C582.513 661.483 586.05 670.3 586.265 672.592L585.441 671.946C579.33 666.065 571.819 663.817 563.833 662.049C563.154 659.356 562.235 656.73 561.089 654.195C558.496 648.564 555.078 646.254 549.566 644.122C547.522 621.215 542.358 604.372 528.78 585.224L532.727 579.94Z" fill="#FBFBFA"/>
<path d="M564.17 668.649C576.217 671.592 585.823 678.046 590.179 690.068C593.136 698.35 592.648 707.472 588.823 715.394C584.377 724.785 578.346 729.154 568.948 732.585C563.143 734.333 556.99 734.602 551.056 733.352C569.844 719.026 577.764 696.973 563.002 676.528L564.17 668.649Z" fill="#FBFBFA"/>
<path d="M189.373 661.111C189.85 661.641 189.635 661.446 189.702 662.458C183.164 674.596 177.64 685.364 168.121 695.571C151.077 713.834 124.973 731.207 99.5001 732.664C97.8879 730.628 99.3251 722.908 99.664 720.166C120.409 714.139 149.944 700.531 165.623 685.248C170.825 680.032 176.098 674.871 181.288 669.642C184.153 666.76 186.056 663.591 189.373 661.111Z" fill="#737272"/>
<path d="M312.885 667.406L320.65 666.827C308.989 679.532 305.77 689.112 309.727 706.735C312.021 716.948 318.519 724.364 327.331 729.708C322.148 730.019 318.097 730.171 312.939 729.397C308.693 728.221 305.258 727.35 301.669 724.992C282.157 712.183 282.302 679.392 304.891 669.764C307.929 668.472 309.699 668.021 312.885 667.406Z" fill="#F2F2F0"/>
<path d="M323.877 470.271C330.426 478.264 333.111 497.219 331.72 507.575C329.625 523.183 325.791 529.432 314.399 538.786L314.924 526.159C308.706 532.396 307.236 538.425 297.994 541.616C290.192 543.648 286.964 542.937 279.522 540.957C310.861 527.256 319.231 501.243 323.877 470.271Z" fill="#5B5B5A"/>
<path d="M148.03 540.123C158.127 539.904 166.378 546.238 175.203 550.849C187.676 557.367 192.883 572.085 196.127 585.362C190.372 586.292 185.777 587.119 180.295 589.13C178.877 590.128 178.536 590.527 176.884 590.832C175.344 588.726 174.043 583.621 173.172 580.896C166.586 560.298 156.694 543.304 132.319 546.187C138.559 542.296 140.816 540.878 148.03 540.123Z" fill="#737272"/>
<path d="M368.383 899.614C371.855 899.541 373.715 899.48 376.989 900.894C381.802 902.966 385.587 906.872 387.495 911.747C391.44 921.93 387.202 931.68 376.992 935.61C353.811 938.462 348.391 903.734 368.383 899.614Z" fill="#D9D8D8"/>
<path d="M437.135 568.173C461.982 564.446 494.159 577.853 508.467 598.282C510.691 601.458 515.878 607.754 516.588 611.435C512.863 608.181 511.075 602.955 507.933 599.899C479.439 572.191 444.097 566.636 408.218 581.741C384.143 592.447 366.1 613.33 359.007 638.698C358.258 641.294 357.277 650.227 356.288 651.324C355.633 646.206 357.13 642.318 357.992 637.437C365.202 596.576 397.121 572.592 437.135 568.173Z" fill="#5B5B5A"/>
<path d="M360.489 723.054C361.118 723.158 379.061 738.307 381.654 739.928C417.92 762.584 460.864 761.646 497.343 739.909C502.623 736.765 513.443 725.412 517.888 726.789C518.594 728.654 518.559 727.831 517.876 729.836C516.152 731.78 514.323 733.45 512.367 735.174C483.224 760.817 440.067 770.536 403.574 756.07C386.329 749.233 370.325 738.879 360.489 723.054Z" fill="#5B5B5A"/>
<path d="M478.487 902.6C495.298 900.674 501.101 914.398 495.03 928.87C493.041 933.611 488.538 936.225 483.72 937.731C480.867 937.901 478.028 937.749 475.301 936.798C471.544 935.525 468.469 932.776 466.787 929.187C461.555 918.06 468.012 907.353 478.487 902.6Z" fill="#D9D8D8"/>
<path d="M678.778 504.38C680.65 511.018 675.194 523.984 673.433 530.486C670.519 541.251 663.778 549.044 656.171 556.789L651.971 550.584C646.937 542.914 646.76 541.916 646.022 533.033C659.566 523.91 668.453 516.969 678.778 504.38Z" fill="#FBFBFA"/>
<path d="M588.572 585.814C593.518 591.271 596.683 593.606 602.635 597.53C602.288 598.272 601.964 599.024 601.664 599.785C599.818 604.534 602.226 608.605 604.167 613.05C599.079 620.929 603.308 624.5 607.759 631.471C607.791 643.092 606.63 657.467 605.898 669.252L604.007 669.581C599.788 650.075 595.327 631.715 592.467 611.813C591.202 603.006 589.228 594.862 588.572 585.814Z" fill="#FBFBFA"/>
<path d="M300.083 590.055C310.321 589.082 312.307 591.119 318.311 599.005C313.245 608.312 307.49 618.449 302.98 627.918C299.376 628.168 292.636 629.247 290.218 625.993L290.433 624.725C294.28 619.015 301.371 617.87 306.972 615.511C304.76 609.301 293.609 617.797 288.942 616.273C283.791 606.303 305.078 605.008 306.558 600.874L305.978 599.759C300.226 597.548 290.425 603.851 286.945 603.908C282.538 598.036 295.561 591.373 300.083 590.055Z" fill="#FBFBFA"/>
<path d="M156.294 622.623C157.391 622.927 156.875 622.672 157.694 623.671C157.801 628.912 158.563 634.116 159.964 639.167C162.929 649.959 167.582 659.021 177.511 664.597C174.401 667.595 172.849 669.112 169.264 671.635C156.43 671.525 149.819 654.847 148.031 644.335C147.09 638.802 147.224 633.336 147.473 627.778C150.221 625.724 153.264 624.225 156.294 622.623Z" fill="#FBFBFA"/>
<path d="M656.426 957.261L658.145 956.798L663.113 1001.53C663.991 1009.37 664.496 1024.15 669.007 1030.27C664.216 1034.8 658.401 1037.99 652.739 1041.38C652.16 1035.35 651.69 1029.81 650.581 1023.84L653.927 1019.57C656.024 1001.91 656.378 975.104 656.426 957.261Z" fill="#FBFBFA"/>
<path d="M276.41 784.26C276.92 784.26 277.126 784.442 277.657 784.674C278.223 787.66 277.491 793.705 277.226 796.965C266.001 803.692 247.086 807.361 234.083 808.933L233.304 808.921C232.653 807.044 235.337 796.283 235.921 793.498C252.084 790.798 260.52 789.64 276.41 784.26Z" fill="#FBFBFA"/>
<path d="M496.47 780.658C498.445 780.494 498.811 780.305 500.405 781.274C503.217 785.094 502.713 792.504 502.871 797.453C483.297 801.651 471.846 816.672 456.391 825.807C454.158 827.068 451.44 828.397 449.13 829.597C467.093 814.71 476.09 789.64 496.47 780.658Z" fill="#999998"/>
<path d="M355.834 777.995C371.89 779.043 381.567 797.379 389.597 809.159C392.188 812.961 397.534 819.085 399.352 822.955L398.031 822.833C379.014 809.786 376.434 801.749 352.124 794.192C352.843 787.916 352.917 783.65 355.834 777.995Z" fill="#9B9A99"/>
<path d="M304.625 360.223C327.152 367.764 334.955 399.961 326.048 420.097L325.748 420.795C324.785 420.098 325.978 388.567 303.109 375.747C304.582 370.071 304.721 365.923 304.625 360.223Z" fill="#5B5B5A"/>
<path d="M49.0244 646.589C54.5129 646.766 59.7141 647.833 65.1194 648.783C63.1196 655.688 62.006 660.593 61.4909 667.863C61.2916 670.678 61.2081 675.517 60.7661 678.015L59.0333 678.454C55.6615 677.68 44.9321 675.663 43.6029 673.073C40.6468 667.308 43.8197 650.429 49.0244 646.589Z" fill="#737272"/>
<path d="M533.938 420.96C535.451 421.463 536.578 422.124 537.983 422.867C539.281 424.898 538.239 424.388 536.85 426.761C528.842 440.44 528.795 460.082 531.051 475.446C531.516 478.608 535.52 483.636 535.356 485.512L533.102 486.663C520.073 487.21 521.345 460.823 521.837 451.982C522.405 441.775 524.536 426.777 533.938 420.96Z" fill="#D9D8D8"/>
<path d="M125.969 526.743C129.402 526.2 134.503 526.582 137.945 526.989L145.489 533.173C133.494 536.537 123.35 543.307 117.087 554.174C113.686 551.767 121.519 538.72 96.7725 532.558C106.292 529.677 116.071 527.728 125.969 526.743Z" fill="#737272"/>
<path d="M366.131 546.063C377.808 545.211 383.805 549.732 389.088 559.825C388.252 560.286 385.173 562.072 384.32 561.998C383.357 561.915 378.535 553.453 373.771 552.464C369.323 551.542 364.685 553.325 360.965 555.664C355.603 559.036 351.627 563.48 350.23 569.703C350.845 579.155 358.139 581.46 358.183 585.156C357.378 587.3 357.914 586.774 356.266 587.954C347.948 588.015 340.567 569.987 345.608 562.019C351.509 552.692 355.988 549.649 366.131 546.063Z" fill="#D9D8D8"/>
<path d="M541.952 428.704C549.688 436.074 547.459 457.808 545.4 467.672C544.414 472.397 542.529 476.13 540.132 480.236C531.314 469.753 534.353 439.182 541.952 428.704Z" fill="#D9D8D8"/>
<path d="M185.475 988.4C186.243 989.79 186.813 990.63 187.214 992.16C187.39 1000.02 186.437 1007.89 192.83 1013.49C191.608 1020.62 190.941 1030.04 190.518 1037.25C182.585 1033.32 178.809 1030.51 173.628 1023.41C174.872 1022.42 177.428 1020.37 178.16 1019.07C182.467 1011.43 183.976 997.206 185.475 988.4Z" fill="#FBFBFA"/>
<path d="M647.271 554.249C649.716 557.633 652.117 560.683 654.708 563.944C660.053 560.916 661.723 559.023 665.594 554.197C664.021 560.705 662.26 567.167 660.303 573.572L656.743 584.533C653.367 579.617 653.982 580.803 649.405 578.658C649.594 578.744 644.12 572.335 643.236 571.471L647.271 554.249Z" fill="#FBFBFA"/>
<path d="M640.561 578.801L641.341 578.998C642.889 580.608 642.938 580.14 643.151 581.909C634.478 588.927 617.929 601.383 610.755 608.893C609.315 607.585 608.421 604.957 607.591 603.068C619.294 591.773 626.212 586.919 640.561 578.801Z" fill="#FBFBFA"/>
<path d="M181.633 489.036C184.413 489.886 185.875 489.993 188.75 490.303C191.034 497.072 195.31 505.858 198.26 512.696L196.299 519.064L195.884 519.913L195.047 519.877C187.59 508.99 185.016 501.429 181.633 489.036Z" fill="#5B5B5A"/>
<path d="M344.791 423.464L345.21 424.031C343.433 438.532 341.47 453.254 343.556 467.852C343.797 469.537 344.522 471.856 343.994 473.432L342.884 472.657C335.424 458.1 335.783 437.263 344.791 423.464Z" fill="#D9D8D8"/>
<path d="M288.575 563.028C292.138 566.66 295.234 578.65 296.856 584.054L290.218 587.472C289.822 587.08 283.074 569.087 282.108 566.807C284.181 565.523 286.455 564.256 288.575 563.028Z" fill="#5B5B5A"/>
<path d="M492.23 554.829C505.993 559.474 517.345 564.27 528.166 574.234C526.837 576.142 525.304 578.478 523.928 580.297C516.749 572.818 501.96 558.668 491.795 555.82L492.23 554.829Z" fill="#FBFBFA"/>
<path d="M570.432 356.454L575.168 359.541C568.179 367.911 565.414 379.159 564.106 389.77L563.759 390.547L563.044 390.648C561.568 387.63 561.14 381.832 561.392 378.51C562.151 368.48 563.201 363.198 570.432 356.454Z" fill="#5B5B5A"/>
<path d="M549.509 651.087C557.757 654.95 558.404 664.243 556.844 672.128C554.151 670.891 550.549 669.673 547.71 668.625C548.714 662.135 549.1 657.686 549.509 651.087Z" fill="#FBFBFA"/>
<path d="M252.749 545.007C257.315 545.489 261.779 545.281 266.366 545.185C264.782 548.195 263.437 550.416 261.606 553.29C259.841 555.638 257.595 558.021 255.611 560.225C253.735 554.42 253.246 550.911 252.749 545.007Z" fill="#D9D8D8"/>
<path d="M370.529 558.765C372.281 558.939 373.433 559.14 374.508 560.442C373.584 563.827 365.078 567.447 360.77 572.492L360.297 573.051C359.598 573.92 359.922 573.646 358.87 574.093L357.761 572.905C355.368 565.37 365.149 561.032 370.529 558.765Z" fill="#FBFBFA"/>
<path d="M355.005 727.539C356.438 727.917 364.455 737.886 366.089 739.824L358.841 737.441C354.375 735.54 350.238 733.59 345.862 731.5C349.966 730.208 351.232 729.629 355.005 727.539Z" fill="#D9D8D8"/>
<path d="M332.092 653.122C333.216 654.274 333.209 661.343 333.305 663.372L327.014 664.584L326.83 664.578L326.318 663.993C326.993 660.142 329.84 656.224 332.092 653.122Z" fill="#FBFBFA"/>
<path d="M637.574 746.497C638.586 748.3 638.732 752.493 638.939 754.772L630.205 755.034L629.455 754.76C629.748 753.425 635.88 748.185 637.574 746.497Z" fill="#8C8C8A"/>
<path d="M608.37 743.943C609.664 745.381 614.114 752.078 615.339 753.943C612.834 753.547 610.005 753.279 607.462 752.98C607.597 749.318 607.715 747.526 608.37 743.943Z" fill="#737272"/>
<path d="M298.34 632.617L299.327 632.653L299.961 633.403C299.768 635.944 298.521 638.418 296.169 639.576C294.338 637.906 293.089 637.053 293.078 634.554C294.569 632.988 296.128 633.013 298.34 632.617Z" fill="#D9D8D8"/>
<path d="M299.907 572.129C302.142 574.724 305.294 580.457 306.252 583.773C301.148 583.051 300.94 576.58 299.907 572.129Z" fill="#D9D8D8"/>
<path d="M408.377 545.868C410.902 546.89 413.976 547.064 416.957 548.075L416.169 548.546C413.363 549.015 411.397 550.187 408.8 549.821C407.679 548.42 408.142 548.135 408.377 545.868Z" fill="#D9D8D8"/>
<path d="M372.854 569.085L373.3 569.479C372.945 570.582 366.297 576.134 364.348 578.458L363.685 577.732C365.272 574.31 369.763 571.333 372.854 569.085Z" fill="#8C8C8A"/>
<path d="M491.795 555.82C489.416 555.188 484.429 553.882 483.527 551.665L483.37 552.468L482.888 551.846C485.251 551.52 489.891 553.811 492.23 554.829L491.795 555.82Z" fill="#5B5B5A"/>
<path d="M473.836 544.96L474.394 545.678L473.894 548.017C472.075 548.628 471.429 547.998 469.282 547.318C468.519 547.055 468.586 546.971 467.919 546.423C470.019 545.637 471.656 545.388 473.836 544.96Z" fill="#737272"/>
<path d="M656.427 957.261C656.366 953.721 656.665 949.869 656.86 946.317C657.396 949.802 658.012 953.276 658.146 956.798L656.427 957.261Z" fill="#D9D8D8"/>
<path d="M398.74 552.561C399.936 552.615 399.679 552.614 400.845 552.959C400.107 554.156 397.777 554.727 396.317 555.26L395.226 555.757L394.485 555.395C395.573 553.65 396.809 553.389 398.74 552.561Z" fill="#D9D8D8"/>
<path d="M186.632 980.125C187.134 984.774 187.21 987.541 187.214 992.16C186.813 990.631 186.243 989.79 185.475 988.4L186.632 980.125Z" fill="#D9D8D8"/>
<path d="M604.007 669.581L605.898 669.252C605.901 670.891 606.187 673.731 605.298 674.895C604.385 672.787 604.323 671.799 604.007 669.581Z" fill="#D9D8D8"/>
</g>
<defs>
<clipPath id="clip0_6_504">
<rect width="832" height="1248" fill="white"/>
</clipPath>
</defs>
</svg>
