<svg width="182" height="182" viewBox="0 0 182 182" fill="none" xmlns="http://www.w3.org/2000/svg">
<path d="M86.0401 0.120897C135.995 -2.43787 178.588 35.929 181.231 85.8679C183.874 135.806 145.569 178.452 95.6224 181.178C45.558 183.911 2.77793 145.504 0.128942 95.4472C-2.52005 45.3907 35.9671 2.68576 86.0401 0.120897Z" fill="#242324"/>
<path d="M83.9592 8.49615C129.138 4.77348 168.82 38.28 172.709 83.4334C176.598 128.588 143.229 168.382 98.0782 172.435C52.6937 176.509 12.6376 142.937 8.72872 97.549C4.81924 52.1609 38.546 12.2377 83.9592 8.49615Z" fill="#E6E6E5"/>
<path d="M79.6092 21.8536C117.486 15.7428 153.174 41.4085 159.423 79.2543C165.672 117.1 140.128 152.871 102.296 159.255C64.2706 165.671 28.2678 139.975 21.9873 101.936C15.7061 63.8969 41.5384 27.9955 79.6092 21.8536Z" fill="#242324"/>
<path d="M89.0175 28.0571C123.561 27.1052 152.345 54.312 153.332 88.8465C154.319 123.381 127.135 152.186 92.5929 153.207C58.0019 154.23 29.1397 127.006 28.151 92.4211C27.163 57.8372 54.424 29.0095 89.0175 28.0571Z" fill="#FCFCFB"/>
<path d="M123.686 47.905C125.458 47.8118 129.081 48.2548 129.615 49.8496C131.878 56.6112 122.985 70.6433 120.528 76.6956C118.518 81.6468 115.312 86.3042 113.083 90.0007C100.62 110.671 77.0225 121.293 56.5096 132.412C55.6739 132.716 54.798 132.662 53.8721 132.707C50.1918 131.325 49.3409 128.224 50.8239 124.67C53.4491 118.377 57.052 113.086 60.1673 106.849C65.1654 96.8433 70.5609 86.0928 77.4059 77.1935C88.0914 65.3789 109.631 54.9451 123.686 47.905Z" fill="#242324"/>
<path d="M118.897 58.978C118.213 64.7141 103.464 88.5839 99.7673 94.3035C98.6287 90.267 98.241 88.7929 96.3119 85.13C93.3984 82.2348 89.8851 80.9807 86.1597 79.4567C95.1258 71.6677 108.504 64.9651 118.897 58.978Z" fill="#E6E6E5"/>
<path d="M81.237 84.5114C81.6777 85.0422 83.6312 92.4808 84.6399 94.1048C87.0305 97.9536 90.9186 98.3991 94.7873 99.0639C87.9716 104.185 80.9596 109.47 73.6216 113.778C69.7761 115.728 66.2725 117.806 62.5581 119.98C68.7807 108.593 75.6397 96.1346 81.237 84.5114Z" fill="#E6E6E5"/>
</svg>
